<?xml version="1.0" encoding="us-ascii" standalone="no"?><svg xmlns="http://www.w3.org/2000/svg" xmlns:xlink="http://www.w3.org/1999/xlink" contentStyleType="text/css" height="661px" preserveAspectRatio="none" style="width:1566px;height:661px;background:#FFFFFF;" version="1.1" viewBox="0 0 1566 661" width="1566px" zoomAndPan="magnify"><defs><filter height="300%" id="f1udsxusic4fl1" width="300%" x="-1" y="-1"><feGaussianBlur result="blurOut" stdDeviation="2.0"/><feColorMatrix in="blurOut" result="blurOut2" type="matrix" values="0 0 0 0 0 0 0 0 0 0 0 0 0 0 0 0 0 0 .4 0"/><feOffset dx="4.0" dy="4.0" in="blurOut2" result="blurOut3"/><feBlend in="SourceGraphic" in2="blurOut3" mode="normal"/></filter></defs><g><!--class VisitRequestUI--><g id="elem_VisitRequestUI"><rect codeLine="9" fill="#F1F1F1" filter="url(#f1udsxusic4fl1)" height="79.2813" id="VisitRequestUI" rx="2.5" ry="2.5" style="stroke:#181818;stroke-width:0.5;" width="136" x="7" y="304.5"/><ellipse cx="27.85" cy="320.5" fill="#ADD1B2" rx="11" ry="11" style="stroke:#181818;stroke-width:1.0;"/><path d="M30.6156,316.375 Q30.7719,316.1563 30.9594,316.0469 Q31.1469,315.9375 31.3656,315.9375 Q31.7406,315.9375 31.975,316.2031 Q32.2094,316.4531 32.2094,317.0625 L32.2094,318.5156 Q32.2094,319.125 31.975,319.3906 Q31.7406,319.6563 31.3656,319.6563 Q31.0219,319.6563 30.8188,319.4531 Q30.6156,319.2656 30.5063,318.75 Q30.4594,318.3906 30.2719,318.2031 Q29.9438,317.8281 29.3344,317.6094 Q28.725,317.3906 28.1,317.3906 Q27.3344,317.3906 26.6938,317.7188 Q26.0688,318.0469 25.5688,318.7969 Q25.0844,319.5469 25.0844,320.5781 L25.0844,321.6719 Q25.0844,322.9063 25.975,323.7344 Q26.8656,324.5469 28.4594,324.5469 Q29.3969,324.5469 30.0531,324.2969 Q30.4438,324.1406 30.8656,323.7031 Q31.1313,323.4375 31.2719,323.3594 Q31.4281,323.2813 31.6313,323.2813 Q31.9594,323.2813 32.2094,323.5469 Q32.475,323.7969 32.475,324.1406 Q32.475,324.4844 32.1313,324.8906 Q31.6313,325.4688 30.8344,325.7969 Q29.7563,326.25 28.4594,326.25 Q26.9438,326.25 25.7406,325.625 Q24.7563,325.125 24.0688,324.0625 Q23.3813,322.9844 23.3813,321.7031 L23.3813,320.5469 Q23.3813,319.2188 23.9906,318.0781 Q24.6156,316.9219 25.7094,316.3125 Q26.8031,315.6875 28.0375,315.6875 Q28.7719,315.6875 29.4125,315.8594 Q30.0688,316.0156 30.6156,316.375 Z " fill="#000000"/><text fill="#000000" font-family="sans-serif" font-size="14" lengthAdjust="spacing" textLength="91" x="43.15" y="325.3535">VisitRequestUI</text><line style="stroke:#181818;stroke-width:0.5;" x1="8" x2="142" y1="336.5" y2="336.5"/><line style="stroke:#181818;stroke-width:0.5;" x1="8" x2="142" y1="344.5" y2="344.5"/><ellipse cx="18" cy="357.8203" fill="#84BE84" rx="3" ry="3" style="stroke:#038048;stroke-width:1.0;"/><text fill="#000000" font-family="sans-serif" font-size="14" lengthAdjust="spacing" textLength="110" x="27" y="361.1738">chooseProperty()</text><ellipse cx="18" cy="373.4609" fill="#84BE84" rx="3" ry="3" style="stroke:#038048;stroke-width:1.0;"/><text fill="#000000" font-family="sans-serif" font-size="14" lengthAdjust="spacing" textLength="75" x="27" y="376.8145">insertData()</text></g><!--class VisitRequestController--><g id="elem_VisitRequestController"><rect codeLine="14" fill="#F1F1F1" filter="url(#f1udsxusic4fl1)" height="63.6406" id="VisitRequestController" rx="2.5" ry="2.5" style="stroke:#181818;stroke-width:0.5;" width="537" x="203" y="312"/><ellipse cx="396.75" cy="328" fill="#ADD1B2" rx="11" ry="11" style="stroke:#181818;stroke-width:1.0;"/><path d="M399.5156,323.875 Q399.6719,323.6563 399.8594,323.5469 Q400.0469,323.4375 400.2656,323.4375 Q400.6406,323.4375 400.875,323.7031 Q401.1094,323.9531 401.1094,324.5625 L401.1094,326.0156 Q401.1094,326.625 400.875,326.8906 Q400.6406,327.1563 400.2656,327.1563 Q399.9219,327.1563 399.7188,326.9531 Q399.5156,326.7656 399.4063,326.25 Q399.3594,325.8906 399.1719,325.7031 Q398.8438,325.3281 398.2344,325.1094 Q397.625,324.8906 397,324.8906 Q396.2344,324.8906 395.5938,325.2188 Q394.9688,325.5469 394.4688,326.2969 Q393.9844,327.0469 393.9844,328.0781 L393.9844,329.1719 Q393.9844,330.4063 394.875,331.2344 Q395.7656,332.0469 397.3594,332.0469 Q398.2969,332.0469 398.9531,331.7969 Q399.3438,331.6406 399.7656,331.2031 Q400.0313,330.9375 400.1719,330.8594 Q400.3281,330.7813 400.5313,330.7813 Q400.8594,330.7813 401.1094,331.0469 Q401.375,331.2969 401.375,331.6406 Q401.375,331.9844 401.0313,332.3906 Q400.5313,332.9688 399.7344,333.2969 Q398.6563,333.75 397.3594,333.75 Q395.8438,333.75 394.6406,333.125 Q393.6563,332.625 392.9688,331.5625 Q392.2813,330.4844 392.2813,329.2031 L392.2813,328.0469 Q392.2813,326.7188 392.8906,325.5781 Q393.5156,324.4219 394.6094,323.8125 Q395.7031,323.1875 396.9375,323.1875 Q397.6719,323.1875 398.3125,323.3594 Q398.9688,323.5156 399.5156,323.875 Z " fill="#000000"/><text fill="#000000" font-family="sans-serif" font-size="14" lengthAdjust="spacing" textLength="141" x="417.25" y="332.8535">VisitRequestController</text><line style="stroke:#181818;stroke-width:0.5;" x1="204" x2="739" y1="344" y2="344"/><line style="stroke:#181818;stroke-width:0.5;" x1="204" x2="739" y1="352" y2="352"/><ellipse cx="214" cy="365.3203" fill="#84BE84" rx="3" ry="3" style="stroke:#038048;stroke-width:1.0;"/><text fill="#000000" font-family="sans-serif" font-size="14" lengthAdjust="spacing" textLength="511" x="223" y="368.6738">visitRequest(name: String, email: String, phone: int, date: String, property: String)</text></g><!--class Repositories--><g id="elem_Repositories"><rect codeLine="18" fill="#F1F1F1" filter="url(#f1udsxusic4fl1)" height="126.2031" id="Repositories" rx="2.5" ry="2.5" style="stroke:#181818;stroke-width:0.5;" width="226" x="974" y="7"/><ellipse cx="1043.25" cy="23" fill="#ADD1B2" rx="11" ry="11" style="stroke:#181818;stroke-width:1.0;"/><path d="M1046.0156,18.875 Q1046.1719,18.6563 1046.3594,18.5469 Q1046.5469,18.4375 1046.7656,18.4375 Q1047.1406,18.4375 1047.375,18.7031 Q1047.6094,18.9531 1047.6094,19.5625 L1047.6094,21.0156 Q1047.6094,21.625 1047.375,21.8906 Q1047.1406,22.1563 1046.7656,22.1563 Q1046.4219,22.1563 1046.2188,21.9531 Q1046.0156,21.7656 1045.9063,21.25 Q1045.8594,20.8906 1045.6719,20.7031 Q1045.3438,20.3281 1044.7344,20.1094 Q1044.125,19.8906 1043.5,19.8906 Q1042.7344,19.8906 1042.0938,20.2188 Q1041.4688,20.5469 1040.9688,21.2969 Q1040.4844,22.0469 1040.4844,23.0781 L1040.4844,24.1719 Q1040.4844,25.4063 1041.375,26.2344 Q1042.2656,27.0469 1043.8594,27.0469 Q1044.7969,27.0469 1045.4531,26.7969 Q1045.8438,26.6406 1046.2656,26.2031 Q1046.5313,25.9375 1046.6719,25.8594 Q1046.8281,25.7813 1047.0313,25.7813 Q1047.3594,25.7813 1047.6094,26.0469 Q1047.875,26.2969 1047.875,26.6406 Q1047.875,26.9844 1047.5313,27.3906 Q1047.0313,27.9688 1046.2344,28.2969 Q1045.1563,28.75 1043.8594,28.75 Q1042.3438,28.75 1041.1406,28.125 Q1040.1563,27.625 1039.4688,26.5625 Q1038.7813,25.4844 1038.7813,24.2031 L1038.7813,23.0469 Q1038.7813,21.7188 1039.3906,20.5781 Q1040.0156,19.4219 1041.1094,18.8125 Q1042.2031,18.1875 1043.4375,18.1875 Q1044.1719,18.1875 1044.8125,18.3594 Q1045.4688,18.5156 1046.0156,18.875 Z " fill="#000000"/><text fill="#000000" font-family="sans-serif" font-size="14" lengthAdjust="spacing" textLength="79" x="1063.75" y="27.8535">Repositories</text><line style="stroke:#181818;stroke-width:0.5;" x1="975" x2="1199" y1="39" y2="39"/><line style="stroke:#181818;stroke-width:0.5;" x1="975" x2="1199" y1="47" y2="47"/><rect fill="#F24D5C" height="6" style="stroke:#C82930;stroke-width:1.0;" width="6" x="982" y="57.3203"/><text fill="#000000" font-family="sans-serif" font-size="14" lengthAdjust="spacing" textLength="89" x="994" y="63.6738">Repositories()</text><ellipse cx="985" cy="75.9609" fill="#84BE84" rx="3" ry="3" style="stroke:#038048;stroke-width:1.0;"/><text fill="#000000" font-family="sans-serif" font-size="14" lengthAdjust="spacing" textLength="174" x="994" y="79.3145">getInstance() : Repositories</text><ellipse cx="985" cy="91.6016" fill="#84BE84" rx="3" ry="3" style="stroke:#038048;stroke-width:1.0;"/><text fill="#000000" font-family="sans-serif" font-size="14" lengthAdjust="spacing" textLength="200" x="994" y="94.9551">getAnnouncementsRepository()</text><ellipse cx="985" cy="107.2422" fill="#84BE84" rx="3" ry="3" style="stroke:#038048;stroke-width:1.0;"/><text fill="#000000" font-family="sans-serif" font-size="14" lengthAdjust="spacing" textLength="177" x="994" y="110.5957">getVisitRequestRepository()</text><ellipse cx="985" cy="122.8828" fill="#84BE84" rx="3" ry="3" style="stroke:#038048;stroke-width:1.0;"/><text fill="#000000" font-family="sans-serif" font-size="14" lengthAdjust="spacing" textLength="134" x="994" y="126.2363">getClientRepository()</text></g><!--class AnnouncementRepository--><g id="elem_AnnouncementRepository"><rect codeLine="26" fill="#F1F1F1" filter="url(#f1udsxusic4fl1)" height="126.2031" id="AnnouncementRepository" rx="2.5" ry="2.5" style="stroke:#181818;stroke-width:0.5;" width="420" x="877" y="523"/><ellipse cx="1001.25" cy="539" fill="#ADD1B2" rx="11" ry="11" style="stroke:#181818;stroke-width:1.0;"/><path d="M1004.0156,534.875 Q1004.1719,534.6563 1004.3594,534.5469 Q1004.5469,534.4375 1004.7656,534.4375 Q1005.1406,534.4375 1005.375,534.7031 Q1005.6094,534.9531 1005.6094,535.5625 L1005.6094,537.0156 Q1005.6094,537.625 1005.375,537.8906 Q1005.1406,538.1563 1004.7656,538.1563 Q1004.4219,538.1563 1004.2188,537.9531 Q1004.0156,537.7656 1003.9063,537.25 Q1003.8594,536.8906 1003.6719,536.7031 Q1003.3438,536.3281 1002.7344,536.1094 Q1002.125,535.8906 1001.5,535.8906 Q1000.7344,535.8906 1000.0938,536.2188 Q999.4688,536.5469 998.9688,537.2969 Q998.4844,538.0469 998.4844,539.0781 L998.4844,540.1719 Q998.4844,541.4063 999.375,542.2344 Q1000.2656,543.0469 1001.8594,543.0469 Q1002.7969,543.0469 1003.4531,542.7969 Q1003.8438,542.6406 1004.2656,542.2031 Q1004.5313,541.9375 1004.6719,541.8594 Q1004.8281,541.7813 1005.0313,541.7813 Q1005.3594,541.7813 1005.6094,542.0469 Q1005.875,542.2969 1005.875,542.6406 Q1005.875,542.9844 1005.5313,543.3906 Q1005.0313,543.9688 1004.2344,544.2969 Q1003.1563,544.75 1001.8594,544.75 Q1000.3438,544.75 999.1406,544.125 Q998.1563,543.625 997.4688,542.5625 Q996.7813,541.4844 996.7813,540.2031 L996.7813,539.0469 Q996.7813,537.7188 997.3906,536.5781 Q998.0156,535.4219 999.1094,534.8125 Q1000.2031,534.1875 1001.4375,534.1875 Q1002.1719,534.1875 1002.8125,534.3594 Q1003.4688,534.5156 1004.0156,534.875 Z " fill="#000000"/><text fill="#000000" font-family="sans-serif" font-size="14" lengthAdjust="spacing" textLength="163" x="1021.75" y="543.8535">AnnouncementRepository</text><line style="stroke:#181818;stroke-width:0.5;" x1="878" x2="1296" y1="555" y2="555"/><polygon fill="none" points="888,564.3203,884,570.3203,892,570.3203" style="stroke:#1963A0;stroke-width:1.0;"/><text fill="#000000" font-family="sans-serif" font-size="14" lengthAdjust="spacing" textLength="242" x="897" y="571.6738">announcements: List&lt;Announcement&gt;</text><line style="stroke:#181818;stroke-width:0.5;" x1="878" x2="1296" y1="578.6406" y2="578.6406"/><ellipse cx="888" cy="591.9609" fill="#84BE84" rx="3" ry="3" style="stroke:#038048;stroke-width:1.0;"/><text fill="#000000" font-family="sans-serif" font-size="14" lengthAdjust="spacing" textLength="177" x="897" y="595.3145">AnnouncementRepository():</text><ellipse cx="888" cy="607.6016" fill="#84BE84" rx="3" ry="3" style="stroke:#038048;stroke-width:1.0;"/><text fill="#000000" font-family="sans-serif" font-size="14" lengthAdjust="spacing" textLength="394" x="897" y="610.9551">createAnnouncement(Property, int): Optional&lt;Announcement&gt;</text><ellipse cx="888" cy="623.2422" fill="#84BE84" rx="3" ry="3" style="stroke:#038048;stroke-width:1.0;"/><text fill="#000000" font-family="sans-serif" font-size="14" lengthAdjust="spacing" textLength="258" x="897" y="626.5957">addAnnouncement(Announcement): void</text><ellipse cx="888" cy="638.8828" fill="#84BE84" rx="3" ry="3" style="stroke:#038048;stroke-width:1.0;"/><text fill="#000000" font-family="sans-serif" font-size="14" lengthAdjust="spacing" textLength="306" x="897" y="642.2363">removeAnnouncement(Announcement): boolean</text></g><!--class VisitRequestRepository--><g id="elem_VisitRequestRepository"><rect codeLine="34" fill="#F1F1F1" filter="url(#f1udsxusic4fl1)" height="110.5625" id="VisitRequestRepository" rx="2.5" ry="2.5" style="stroke:#181818;stroke-width:0.5;" width="574" x="800" y="376.5"/><ellipse cx="1009.25" cy="392.5" fill="#ADD1B2" rx="11" ry="11" style="stroke:#181818;stroke-width:1.0;"/><path d="M1012.0156,388.375 Q1012.1719,388.1563 1012.3594,388.0469 Q1012.5469,387.9375 1012.7656,387.9375 Q1013.1406,387.9375 1013.375,388.2031 Q1013.6094,388.4531 1013.6094,389.0625 L1013.6094,390.5156 Q1013.6094,391.125 1013.375,391.3906 Q1013.1406,391.6563 1012.7656,391.6563 Q1012.4219,391.6563 1012.2188,391.4531 Q1012.0156,391.2656 1011.9063,390.75 Q1011.8594,390.3906 1011.6719,390.2031 Q1011.3438,389.8281 1010.7344,389.6094 Q1010.125,389.3906 1009.5,389.3906 Q1008.7344,389.3906 1008.0938,389.7188 Q1007.4688,390.0469 1006.9688,390.7969 Q1006.4844,391.5469 1006.4844,392.5781 L1006.4844,393.6719 Q1006.4844,394.9063 1007.375,395.7344 Q1008.2656,396.5469 1009.8594,396.5469 Q1010.7969,396.5469 1011.4531,396.2969 Q1011.8438,396.1406 1012.2656,395.7031 Q1012.5313,395.4375 1012.6719,395.3594 Q1012.8281,395.2813 1013.0313,395.2813 Q1013.3594,395.2813 1013.6094,395.5469 Q1013.875,395.7969 1013.875,396.1406 Q1013.875,396.4844 1013.5313,396.8906 Q1013.0313,397.4688 1012.2344,397.7969 Q1011.1563,398.25 1009.8594,398.25 Q1008.3438,398.25 1007.1406,397.625 Q1006.1563,397.125 1005.4688,396.0625 Q1004.7813,394.9844 1004.7813,393.7031 L1004.7813,392.5469 Q1004.7813,391.2188 1005.3906,390.0781 Q1006.0156,388.9219 1007.1094,388.3125 Q1008.2031,387.6875 1009.4375,387.6875 Q1010.1719,387.6875 1010.8125,387.8594 Q1011.4688,388.0156 1012.0156,388.375 Z " fill="#000000"/><text fill="#000000" font-family="sans-serif" font-size="14" lengthAdjust="spacing" textLength="147" x="1029.75" y="397.3535">VisitRequestRepository</text><line style="stroke:#181818;stroke-width:0.5;" x1="801" x2="1373" y1="408.5" y2="408.5"/><line style="stroke:#181818;stroke-width:0.5;" x1="801" x2="1373" y1="416.5" y2="416.5"/><rect fill="#F24D5C" height="6" style="stroke:#C82930;stroke-width:1.0;" width="6" x="808" y="426.8203"/><text fill="#000000" font-family="sans-serif" font-size="14" lengthAdjust="spacing" textLength="157" x="820" y="433.1738">VisitRequestRepository()</text><ellipse cx="811" cy="445.4609" fill="#84BE84" rx="3" ry="3" style="stroke:#038048;stroke-width:1.0;"/><text fill="#000000" font-family="sans-serif" font-size="14" lengthAdjust="spacing" textLength="242" x="820" y="448.8145">getInstance() : VisitRequestRepository</text><ellipse cx="811" cy="461.1016" fill="#84BE84" rx="3" ry="3" style="stroke:#038048;stroke-width:1.0;"/><text fill="#000000" font-family="sans-serif" font-size="14" lengthAdjust="spacing" textLength="131" x="820" y="464.4551">getVisitRequestList()</text><ellipse cx="811" cy="476.7422" fill="#84BE84" rx="3" ry="3" style="stroke:#038048;stroke-width:1.0;"/><text fill="#000000" font-family="sans-serif" font-size="14" lengthAdjust="spacing" textLength="548" x="820" y="480.0957">insertVisitRequest(name: String, email: String, phone: int, date: String, property: String)</text></g><!--class ClientRepository--><g id="elem_ClientRepository"><rect codeLine="41" fill="#F1F1F1" filter="url(#f1udsxusic4fl1)" height="173.125" id="ClientRepository" rx="2.5" ry="2.5" style="stroke:#181818;stroke-width:0.5;" width="538" x="818" y="168.5"/><ellipse cx="1030.75" cy="184.5" fill="#ADD1B2" rx="11" ry="11" style="stroke:#181818;stroke-width:1.0;"/><path d="M1033.5156,180.375 Q1033.6719,180.1563 1033.8594,180.0469 Q1034.0469,179.9375 1034.2656,179.9375 Q1034.6406,179.9375 1034.875,180.2031 Q1035.1094,180.4531 1035.1094,181.0625 L1035.1094,182.5156 Q1035.1094,183.125 1034.875,183.3906 Q1034.6406,183.6563 1034.2656,183.6563 Q1033.9219,183.6563 1033.7188,183.4531 Q1033.5156,183.2656 1033.4063,182.75 Q1033.3594,182.3906 1033.1719,182.2031 Q1032.8438,181.8281 1032.2344,181.6094 Q1031.625,181.3906 1031,181.3906 Q1030.2344,181.3906 1029.5938,181.7188 Q1028.9688,182.0469 1028.4688,182.7969 Q1027.9844,183.5469 1027.9844,184.5781 L1027.9844,185.6719 Q1027.9844,186.9063 1028.875,187.7344 Q1029.7656,188.5469 1031.3594,188.5469 Q1032.2969,188.5469 1032.9531,188.2969 Q1033.3438,188.1406 1033.7656,187.7031 Q1034.0313,187.4375 1034.1719,187.3594 Q1034.3281,187.2813 1034.5313,187.2813 Q1034.8594,187.2813 1035.1094,187.5469 Q1035.375,187.7969 1035.375,188.1406 Q1035.375,188.4844 1035.0313,188.8906 Q1034.5313,189.4688 1033.7344,189.7969 Q1032.6563,190.25 1031.3594,190.25 Q1029.8438,190.25 1028.6406,189.625 Q1027.6563,189.125 1026.9688,188.0625 Q1026.2813,186.9844 1026.2813,185.7031 L1026.2813,184.5469 Q1026.2813,183.2188 1026.8906,182.0781 Q1027.5156,180.9219 1028.6094,180.3125 Q1029.7031,179.6875 1030.9375,179.6875 Q1031.6719,179.6875 1032.3125,179.8594 Q1032.9688,180.0156 1033.5156,180.375 Z " fill="#000000"/><text fill="#000000" font-family="sans-serif" font-size="14" lengthAdjust="spacing" textLength="104" x="1051.25" y="189.3535">ClientRepository</text><line style="stroke:#181818;stroke-width:0.5;" x1="819" x2="1355" y1="200.5" y2="200.5"/><polygon fill="none" points="829,209.8203,825,215.8203,833,215.8203" style="stroke:#1963A0;stroke-width:1.0;"/><text fill="#000000" font-family="sans-serif" font-size="14" lengthAdjust="spacing" textLength="122" x="838" y="217.1738">clients: List&lt;Client&gt;</text><text fill="#000000" font-family="sans-serif" font-size="14" lengthAdjust="spacing" textLength="122" x="838" y="232.8145">clients: List&lt;Client&gt;</text><line style="stroke:#181818;stroke-width:0.5;" x1="819" x2="1355" y1="239.7813" y2="239.7813"/><ellipse cx="829" cy="253.1016" fill="#84BE84" rx="3" ry="3" style="stroke:#038048;stroke-width:1.0;"/><text fill="#000000" font-family="sans-serif" font-size="14" lengthAdjust="spacing" textLength="118" x="838" y="256.4551">ClientRepository():</text><rect fill="#F24D5C" height="6" style="stroke:#C82930;stroke-width:1.0;" width="6" x="826" y="265.7422"/><text fill="#000000" font-family="sans-serif" font-size="14" lengthAdjust="spacing" textLength="165" x="838" y="272.0957">validateClient(Client): void</text><ellipse cx="829" cy="284.3828" fill="#84BE84" rx="3" ry="3" style="stroke:#038048;stroke-width:1.0;"/><text fill="#000000" font-family="sans-serif" font-size="14" lengthAdjust="spacing" textLength="512" x="838" y="287.7363">addClient(String, String, int, String, String, String, String, Roles): Optional&lt;Client&gt;</text><ellipse cx="829" cy="300.0234" fill="#84BE84" rx="3" ry="3" style="stroke:#038048;stroke-width:1.0;"/><text fill="#000000" font-family="sans-serif" font-size="14" lengthAdjust="spacing" textLength="188" x="838" y="303.377">removeClient(Client): boolean</text><ellipse cx="829" cy="315.6641" fill="#84BE84" rx="3" ry="3" style="stroke:#038048;stroke-width:1.0;"/><text fill="#000000" font-family="sans-serif" font-size="14" lengthAdjust="spacing" textLength="213" x="838" y="319.0176">getClientByTaxNumber(int): Client</text><ellipse cx="829" cy="331.3047" fill="#84BE84" rx="3" ry="3" style="stroke:#038048;stroke-width:1.0;"/><text fill="#000000" font-family="sans-serif" font-size="14" lengthAdjust="spacing" textLength="273" x="838" y="334.6582">addPropertyToClient(Client, Property): void</text></g><!--class visitRequest--><g id="elem_visitRequest"><rect codeLine="52" fill="#F1F1F1" filter="url(#f1udsxusic4fl1)" height="204.4063" id="visitRequest" rx="2.5" ry="2.5" style="stroke:#181818;stroke-width:0.5;" width="120" x="1434" y="242"/><ellipse cx="1453.95" cy="258" fill="#ADD1B2" rx="11" ry="11" style="stroke:#181818;stroke-width:1.0;"/><path d="M1456.7156,253.875 Q1456.8719,253.6563 1457.0594,253.5469 Q1457.2469,253.4375 1457.4656,253.4375 Q1457.8406,253.4375 1458.075,253.7031 Q1458.3094,253.9531 1458.3094,254.5625 L1458.3094,256.0156 Q1458.3094,256.625 1458.075,256.8906 Q1457.8406,257.1563 1457.4656,257.1563 Q1457.1219,257.1563 1456.9188,256.9531 Q1456.7156,256.7656 1456.6063,256.25 Q1456.5594,255.8906 1456.3719,255.7031 Q1456.0438,255.3281 1455.4344,255.1094 Q1454.825,254.8906 1454.2,254.8906 Q1453.4344,254.8906 1452.7938,255.2188 Q1452.1688,255.5469 1451.6688,256.2969 Q1451.1844,257.0469 1451.1844,258.0781 L1451.1844,259.1719 Q1451.1844,260.4063 1452.075,261.2344 Q1452.9656,262.0469 1454.5594,262.0469 Q1455.4969,262.0469 1456.1531,261.7969 Q1456.5438,261.6406 1456.9656,261.2031 Q1457.2313,260.9375 1457.3719,260.8594 Q1457.5281,260.7813 1457.7313,260.7813 Q1458.0594,260.7813 1458.3094,261.0469 Q1458.575,261.2969 1458.575,261.6406 Q1458.575,261.9844 1458.2313,262.3906 Q1457.7313,262.9688 1456.9344,263.2969 Q1455.8563,263.75 1454.5594,263.75 Q1453.0438,263.75 1451.8406,263.125 Q1450.8563,262.625 1450.1688,261.5625 Q1449.4813,260.4844 1449.4813,259.2031 L1449.4813,258.0469 Q1449.4813,256.7188 1450.0906,255.5781 Q1450.7156,254.4219 1451.8094,253.8125 Q1452.9031,253.1875 1454.1375,253.1875 Q1454.8719,253.1875 1455.5125,253.3594 Q1456.1688,253.5156 1456.7156,253.875 Z " fill="#000000"/><text fill="#000000" font-family="sans-serif" font-size="14" lengthAdjust="spacing" textLength="77" x="1469.05" y="262.8535">visitRequest</text><line style="stroke:#181818;stroke-width:0.5;" x1="1435" x2="1553" y1="274" y2="274"/><rect fill="none" height="6" style="stroke:#C82930;stroke-width:1.0;" width="6" x="1442" y="284.3203"/><text fill="#000000" font-family="sans-serif" font-size="14" lengthAdjust="spacing" textLength="76" x="1454" y="290.6738">String name</text><rect fill="none" height="6" style="stroke:#C82930;stroke-width:1.0;" width="6" x="1442" y="299.9609"/><text fill="#000000" font-family="sans-serif" font-size="14" lengthAdjust="spacing" textLength="74" x="1454" y="306.3145">String email</text><rect fill="none" height="6" style="stroke:#C82930;stroke-width:1.0;" width="6" x="1442" y="315.6016"/><text fill="#000000" font-family="sans-serif" font-size="14" lengthAdjust="spacing" textLength="59" x="1454" y="321.9551">int phone</text><rect fill="none" height="6" style="stroke:#C82930;stroke-width:1.0;" width="6" x="1442" y="331.2422"/><text fill="#000000" font-family="sans-serif" font-size="14" lengthAdjust="spacing" textLength="69" x="1454" y="337.5957">String date</text><rect fill="none" height="6" style="stroke:#C82930;stroke-width:1.0;" width="6" x="1442" y="346.8828"/><text fill="#000000" font-family="sans-serif" font-size="14" lengthAdjust="spacing" textLength="94" x="1454" y="353.2363">String property</text><ellipse cx="1445" cy="365.5234" fill="none" rx="3" ry="3" style="stroke:#038048;stroke-width:1.0;"/><text fill="#000000" font-family="sans-serif" font-size="14" lengthAdjust="spacing" textLength="55" x="1454" y="368.877">setName</text><ellipse cx="1445" cy="381.1641" fill="none" rx="3" ry="3" style="stroke:#038048;stroke-width:1.0;"/><text fill="#000000" font-family="sans-serif" font-size="14" lengthAdjust="spacing" textLength="53" x="1454" y="384.5176">setEmail</text><ellipse cx="1445" cy="396.8047" fill="none" rx="3" ry="3" style="stroke:#038048;stroke-width:1.0;"/><text fill="#000000" font-family="sans-serif" font-size="14" lengthAdjust="spacing" textLength="60" x="1454" y="400.1582">setPhone</text><ellipse cx="1445" cy="412.4453" fill="none" rx="3" ry="3" style="stroke:#038048;stroke-width:1.0;"/><text fill="#000000" font-family="sans-serif" font-size="14" lengthAdjust="spacing" textLength="49" x="1454" y="415.7988">setDate</text><ellipse cx="1445" cy="428.0859" fill="none" rx="3" ry="3" style="stroke:#038048;stroke-width:1.0;"/><text fill="#000000" font-family="sans-serif" font-size="14" lengthAdjust="spacing" textLength="73" x="1454" y="431.4395">setProperty</text><line style="stroke:#181818;stroke-width:0.5;" x1="1435" x2="1553" y1="438.4063" y2="438.4063"/></g><!--link VisitRequestUI to VisitRequestController--><g id="link_VisitRequestUI_VisitRequestController"><path codeLine="65" d="M143.37,344 C159.7,344 178.17,344 197.81,344 " fill="none" id="VisitRequestUI-to-VisitRequestController" style="stroke:#181818;stroke-width:1.0;stroke-dasharray:7.0,7.0;"/><polygon fill="#181818" points="202.83,344,193.83,340,197.83,344,193.83,348,202.83,344" style="stroke:#181818;stroke-width:1.0;"/></g><!--link VisitRequestController to Repositories--><g id="link_VisitRequestController_Repositories"><path codeLine="66" d="M518.22,311.91 C579.76,269.94 693.82,196.43 800,151 C853.78,127.99 916,109.48 968.64,95.99 " fill="none" id="VisitRequestController-to-Repositories" style="stroke:#181818;stroke-width:1.0;stroke-dasharray:7.0,7.0;"/><polygon fill="#181818" points="973.71,94.7,963.9982,93.0628,968.8669,95.9429,965.9868,100.8117,973.71,94.7" style="stroke:#181818;stroke-width:1.0;"/></g><!--link Repositories to AnnouncementRepository--><g id="link_Repositories_AnnouncementRepository"><path codeLine="67" d="M973.88,69.39 C899.93,75.97 809.9,99.04 770,168.5 C734.69,229.97 734.69,426.03 770,487.5 C792.25,526.24 830.09,550.54 872.03,565.61 " fill="none" id="Repositories-to-AnnouncementRepository" style="stroke:#181818;stroke-width:1.0;"/><polygon fill="#181818" points="876.9,567.31,869.7294,560.5585,872.1814,565.6563,867.0836,568.1083,876.9,567.31" style="stroke:#181818;stroke-width:1.0;"/><text fill="#000000" font-family="sans-serif" font-size="13" lengthAdjust="spacing" textLength="7" x="862.2238" y="578.6642">1</text></g><!--link Repositories to VisitRequestRepository--><g id="link_Repositories_VisitRequestRepository"><path codeLine="68" d="M973.88,69.39 C899.93,75.97 809.9,99.04 770,168.5 C731.7,235.17 731.7,274.83 770,341.5 C777.17,353.99 786,364.89 796.08,374.41 " fill="none" id="Repositories-to-VisitRequestRepository" style="stroke:#181818;stroke-width:1.0;"/><polygon fill="#181818" points="799.85,377.85,795.909,368.824,796.1607,374.4753,790.5094,374.7269,799.85,377.85" style="stroke:#181818;stroke-width:1.0;"/><text fill="#000000" font-family="sans-serif" font-size="13" lengthAdjust="spacing" textLength="7" x="785.1296" y="388.3789">1</text></g><!--link Repositories to ClientRepository--><g id="link_Repositories_ClientRepository"><path codeLine="69" d="M1087,133.35 C1087,143.26 1087,153.18 1087,163.1 " fill="none" id="Repositories-to-ClientRepository" style="stroke:#181818;stroke-width:1.0;"/><polygon fill="#181818" points="1087,168.28,1091,159.28,1087,163.28,1083,159.28,1087,168.28" style="stroke:#181818;stroke-width:1.0;"/><text fill="#000000" font-family="sans-serif" font-size="13" lengthAdjust="spacing" textLength="7" x="1079.6883" y="157.7194">1</text></g><!--link VisitRequestRepository to visitRequest--><g id="link_VisitRequestRepository_visitRequest"><path codeLine="70" d="M1343.63,376.46 C1374.85,369.67 1404.25,363.28 1428.57,358 " fill="none" id="VisitRequestRepository-to-visitRequest" style="stroke:#181818;stroke-width:1.0;stroke-dasharray:7.0,7.0;"/><polygon fill="#181818" points="1433.69,356.89,1424.0476,354.8838,1428.8031,357.9474,1425.7395,362.7029,1433.69,356.89" style="stroke:#181818;stroke-width:1.0;"/></g><!--link ClientRepository to visitRequest--><g id="link_ClientRepository_visitRequest"><path codeLine="71" d="M1356.17,313.93 C1382.81,319.79 1407.76,325.27 1428.86,329.91 " fill="none" id="ClientRepository-to-visitRequest" style="stroke:#181818;stroke-width:1.0;stroke-dasharray:7.0,7.0;"/><polygon fill="#181818" points="1433.86,331,1425.942,325.1429,1428.9791,329.9153,1424.2066,332.9524,1433.86,331" style="stroke:#181818;stroke-width:1.0;"/></g><!--link VisitRequestController to AnnouncementRepository--><g id="link_VisitRequestController_AnnouncementRepository"><path codeLine="72" d="M529.65,376.05 C593.91,411.15 702.11,467.43 800,505 C823.04,513.84 847.44,522.2 871.91,529.96 " fill="none" id="VisitRequestController-to-AnnouncementRepository" style="stroke:#181818;stroke-width:1.0;stroke-dasharray:7.0,7.0;"/><polygon fill="#181818" points="876.8,531.5,869.4316,524.9649,872.0342,529.9875,867.0117,532.5901,876.8,531.5" style="stroke:#181818;stroke-width:1.0;"/></g><!--link VisitRequestController to VisitRequestRepository--><g id="link_VisitRequestController_VisitRequestRepository"><path codeLine="73" d="M695.72,376.02 C727.84,380.63 761.27,385.42 794.47,390.18 " fill="none" id="VisitRequestController-to-VisitRequestRepository" style="stroke:#181818;stroke-width:1.0;stroke-dasharray:7.0,7.0;"/><polygon fill="#181818" points="799.8,390.95,791.4646,385.7039,794.8514,390.2349,790.3204,393.6217,799.8,390.95" style="stroke:#181818;stroke-width:1.0;"/></g><!--link VisitRequestController to ClientRepository--><g id="link_VisitRequestController_ClientRepository"><path codeLine="74" d="M693.12,311.99 C731.83,306.38 772.54,300.47 812.48,294.68 " fill="none" id="VisitRequestController-to-ClientRepository" style="stroke:#181818;stroke-width:1.0;stroke-dasharray:7.0,7.0;"/><polygon fill="#181818" points="817.85,293.9,808.3629,291.2552,812.9034,294.6291,809.5295,299.1697,817.85,293.9" style="stroke:#181818;stroke-width:1.0;"/></g><!--SRC=[jLHDRzim3BtxLn0vEMXIO3i6Gu2ktI70q1L9rxjYiuvGMVGa9LisRBzzaXKvacDdf_aYa7pyV3Jr6vSDKwo6cYGLEqKrmYiJ6ZFTcHfMlB4AD-Oe41GMXibAn02zOoLzvx82e_QO6Mh046p96AgXvCw5aym4lXfdKBpQcKWVHIe4q_hE6CMtUuEhWkI6_qIOl9zaMMk35wwvMUEtFMhpTGM_Ch3VJR4ZqlYag45bZldKQxdKLdnWXbdDxw48zoID8Y5GXKXmYCovP3KkO6FhaTKCi6PSdCLcHz9QkJGpA9c9WCsfaA29ig-n8Pk054TzoZbFbA5ugD2ifBR3BZ2VmY81dI5tKjBUGcgKHdUGOnmbRdWOSI-uTKziNS5nWZEYBVrcn9XF5zRw1rXSsm8-Ssq-n1xBDaQXq0ulrkU1o9aRxdG1NngtA4mCUBEoJ5nZmNeUY9SjJc5D1xm6tH89P79uKNgTEzB-FTQ4lc7uC4jkKbqWlyKl_tSj-njmulToCJopHQiFd7gKusCE1oQuo-frkNzY8YnX9rieAxnjnNrb_rrRadIy4kVaWUH-wa1iikmVZy_in-E-tgBA_P9vVQWnhE0p9U5c40pddaQcqSqslYXXUtmxu8XC52sNNcEhybmc03VRH158zTkYqJo6c4xurCLpqbCNpaaF8LHh2c5isRqRExzTZXpDREIMEe_aN2LNRxw4oRl9oEqOX8xyEqFG_iPc8t-nAp4c9hlu0ouG8ytUMjn8BrSyHbgwud7HsLy0]--></g></svg>
