<?xml version="1.0" encoding="us-ascii" standalone="no"?><svg xmlns="http://www.w3.org/2000/svg" xmlns:xlink="http://www.w3.org/1999/xlink" contentStyleType="text/css" height="406px" preserveAspectRatio="none" style="width:612px;height:406px;background:#FFFFFF;" version="1.1" viewBox="0 0 612 406" width="612px" zoomAndPan="magnify"><defs/><g><rect fill="#FFFFFF" height="256.1875" style="stroke:#181818;stroke-width:1.0;" width="10" x="196" y="81.8047"/><rect fill="#FFFFFF" height="39.5234" style="stroke:#181818;stroke-width:1.0;" width="10" x="201" y="255.9453"/><rect fill="#FFFFFF" height="28.5234" style="stroke:#181818;stroke-width:1.0;" width="10" x="435.5" y="133.8516"/><rect fill="#FFFFFF" height="28.5234" style="stroke:#181818;stroke-width:1.0;" width="10" x="542.5" y="190.8984"/><rect fill="none" height="213.6641" style="stroke:#000000;stroke-width:1.5;" width="596" x="10" y="96.8047"/><line style="stroke:#181818;stroke-width:0.5;stroke-dasharray:5.0,5.0;" x1="201" x2="201" y1="51.2813" y2="355.9922"/><line style="stroke:#181818;stroke-width:0.5;stroke-dasharray:5.0,5.0;" x1="440" x2="440" y1="51.2813" y2="355.9922"/><line style="stroke:#181818;stroke-width:0.5;stroke-dasharray:5.0,5.0;" x1="547" x2="547" y1="51.2813" y2="355.9922"/><rect fill="#E3E3E3" height="29.6406" rx="2.5" ry="2.5" style="stroke:#181818;stroke-width:0.5;" width="362" x="20" y="20.6406"/><text fill="#000000" font-family="sans-serif" font-size="14" lengthAdjust="spacing" textLength="348" x="27" y="40.3145">AnnouncementsRepository:\AnnouncementsRepository</text><rect fill="#E3E3E3" height="29.6406" rx="2.5" ry="2.5" style="stroke:#181818;stroke-width:0.5;" width="362" x="20" y="354.9922"/><text fill="#000000" font-family="sans-serif" font-size="14" lengthAdjust="spacing" textLength="348" x="27" y="374.666">AnnouncementsRepository:\AnnouncementsRepository</text><rect fill="#E3E3E3" height="29.6406" rx="2.5" ry="2.5" style="stroke:#181818;stroke-width:0.5;" width="97" x="392" y="20.6406"/><text fill="#000000" font-family="sans-serif" font-size="14" lengthAdjust="spacing" textLength="83" x="399" y="40.3145">:Repositories</text><rect fill="#E3E3E3" height="29.6406" rx="2.5" ry="2.5" style="stroke:#181818;stroke-width:0.5;" width="97" x="392" y="354.9922"/><text fill="#000000" font-family="sans-serif" font-size="14" lengthAdjust="spacing" textLength="83" x="399" y="374.666">:Repositories</text><rect fill="#E3E3E3" height="45.2813" rx="2.5" ry="2.5" style="stroke:#181818;stroke-width:0.5;" width="97" x="499" y="5"/><text fill="#000000" font-family="sans-serif" font-size="14" lengthAdjust="spacing" textLength="74" x="510.5" y="24.6738">repositories</text><text fill="#000000" font-family="sans-serif" font-size="14" lengthAdjust="spacing" textLength="83" x="506" y="40.3145">:Repositories</text><rect fill="#E3E3E3" height="45.2813" rx="2.5" ry="2.5" style="stroke:#181818;stroke-width:0.5;" width="97" x="499" y="354.9922"/><text fill="#000000" font-family="sans-serif" font-size="14" lengthAdjust="spacing" textLength="74" x="510.5" y="374.666">repositories</text><text fill="#000000" font-family="sans-serif" font-size="14" lengthAdjust="spacing" textLength="83" x="506" y="390.3066">:Repositories</text><rect fill="#FFFFFF" height="256.1875" style="stroke:#181818;stroke-width:1.0;" width="10" x="196" y="81.8047"/><rect fill="#FFFFFF" height="39.5234" style="stroke:#181818;stroke-width:1.0;" width="10" x="201" y="255.9453"/><rect fill="#FFFFFF" height="28.5234" style="stroke:#181818;stroke-width:1.0;" width="10" x="435.5" y="133.8516"/><rect fill="#FFFFFF" height="28.5234" style="stroke:#181818;stroke-width:1.0;" width="10" x="542.5" y="190.8984"/><polygon fill="#181818" points="184,77.8047,194,81.8047,184,85.8047,188,81.8047" style="stroke:#181818;stroke-width:1.0;"/><line style="stroke:#181818;stroke-width:1.0;" x1="0" x2="190" y1="81.8047" y2="81.8047"/><text fill="#000000" font-family="sans-serif" font-size="13" font-weight="bold" lengthAdjust="spacing" textLength="7" x="7" y="77.0498">9</text><text fill="#000000" font-family="sans-serif" font-size="13" lengthAdjust="spacing" textLength="134" x="18" y="77.0498">getAnnouncementList()</text><path d="M10,96.8047 L197,96.8047 L197,103.3281 L187,113.3281 L10,113.3281 L10,96.8047 " fill="#EEEEEE" style="stroke:#000000;stroke-width:1.5;"/><rect fill="none" height="213.6641" style="stroke:#000000;stroke-width:1.5;" width="596" x="10" y="96.8047"/><text fill="#000000" font-family="sans-serif" font-size="13" font-weight="bold" lengthAdjust="spacing" textLength="142" x="25" y="109.5732">Get Task Category List</text><polygon fill="#181818" points="423.5,129.8516,433.5,133.8516,423.5,137.8516,427.5,133.8516" style="stroke:#181818;stroke-width:1.0;"/><line style="stroke:#181818;stroke-width:1.0;" x1="206" x2="429.5" y1="133.8516" y2="133.8516"/><text fill="#000000" font-family="sans-serif" font-size="13" font-weight="bold" lengthAdjust="spacing" textLength="18" x="213" y="129.0967">9.1</text><text fill="#000000" font-family="sans-serif" font-size="13" lengthAdjust="spacing" textLength="75" x="235" y="129.0967">getInstance()</text><polygon fill="#181818" points="217,158.375,207,162.375,217,166.375,213,162.375" style="stroke:#181818;stroke-width:1.0;"/><line style="stroke:#181818;stroke-width:1.0;stroke-dasharray:2.0,2.0;" x1="211" x2="439.5" y1="162.375" y2="162.375"/><text fill="#000000" font-family="sans-serif" font-size="13" font-weight="bold" lengthAdjust="spacing" textLength="18" x="223" y="157.6201">9.2</text><text fill="#000000" font-family="sans-serif" font-size="13" lengthAdjust="spacing" textLength="67" x="245" y="157.6201">repositories</text><polygon fill="#181818" points="530.5,186.8984,540.5,190.8984,530.5,194.8984,534.5,190.8984" style="stroke:#181818;stroke-width:1.0;"/><line style="stroke:#181818;stroke-width:1.0;" x1="206" x2="536.5" y1="190.8984" y2="190.8984"/><text fill="#000000" font-family="sans-serif" font-size="13" font-weight="bold" lengthAdjust="spacing" textLength="18" x="213" y="186.1436">9.3</text><text fill="#000000" font-family="sans-serif" font-size="13" lengthAdjust="spacing" textLength="182" x="235" y="186.1436">getAnnouncementsRepository()</text><polygon fill="#181818" points="217,215.4219,207,219.4219,217,223.4219,213,219.4219" style="stroke:#181818;stroke-width:1.0;"/><line style="stroke:#181818;stroke-width:1.0;stroke-dasharray:2.0,2.0;" x1="211" x2="546.5" y1="219.4219" y2="219.4219"/><text fill="#000000" font-family="sans-serif" font-size="13" font-weight="bold" lengthAdjust="spacing" textLength="18" x="223" y="214.667">9.4</text><text fill="#000000" font-family="sans-serif" font-size="13" lengthAdjust="spacing" textLength="156" x="245" y="214.667">AnnouncementsRepository</text><line style="stroke:#181818;stroke-width:1.0;" x1="206" x2="253" y1="242.9453" y2="242.9453"/><line style="stroke:#181818;stroke-width:1.0;" x1="253" x2="253" y1="242.9453" y2="255.9453"/><line style="stroke:#181818;stroke-width:1.0;" x1="212" x2="253" y1="255.9453" y2="255.9453"/><polygon fill="#181818" points="222,251.9453,212,255.9453,222,259.9453,218,255.9453" style="stroke:#181818;stroke-width:1.0;"/><text fill="#000000" font-family="sans-serif" font-size="13" font-weight="bold" lengthAdjust="spacing" textLength="18" x="218" y="238.1904">9.5</text><text fill="#000000" font-family="sans-serif" font-size="13" lengthAdjust="spacing" textLength="134" x="240" y="238.1904">getAnnouncementList()</text><line style="stroke:#181818;stroke-width:1.0;stroke-dasharray:2.0,2.0;" x1="211" x2="253" y1="294.4688" y2="294.4688"/><line style="stroke:#181818;stroke-width:1.0;stroke-dasharray:2.0,2.0;" x1="253" x2="253" y1="294.4688" y2="307.4688"/><line style="stroke:#181818;stroke-width:1.0;stroke-dasharray:2.0,2.0;" x1="206" x2="253" y1="307.4688" y2="307.4688"/><polygon fill="#181818" points="216,303.4688,206,307.4688,216,311.4688,212,307.4688" style="stroke:#181818;stroke-width:1.0;"/><text fill="#000000" font-family="sans-serif" font-size="13" font-weight="bold" lengthAdjust="spacing" textLength="18" x="218" y="289.7139">9.6</text><text fill="#000000" font-family="sans-serif" font-size="13" lengthAdjust="spacing" textLength="108" x="240" y="289.7139">AnnouncementList</text><polygon fill="#181818" points="11,333.9922,1,337.9922,11,341.9922,7,337.9922" style="stroke:#181818;stroke-width:1.0;"/><line style="stroke:#181818;stroke-width:1.0;stroke-dasharray:2.0,2.0;" x1="5" x2="200" y1="337.9922" y2="337.9922"/><text fill="#000000" font-family="sans-serif" font-size="13" font-weight="bold" lengthAdjust="spacing" textLength="14" x="17" y="333.2373">10</text><text fill="#000000" font-family="sans-serif" font-size="13" lengthAdjust="spacing" textLength="108" x="35" y="333.2373">AnnouncementList</text><!--SRC=[bPEnJiD038RtUmgh2p04qP488I46XDG1qOvTt8kRdjhueZi7wDjpIQLoQN9HyH8fjd__dvtulU4Q7LPGMRPwvsn58AuXvS-P6lKUIrhAyK3WI0joUOWB_0uB-ssuX2qUF2c5ZLXkgWqvfMvsfY3OMYiR-wEK2YrYjAcH1MOlpBPXJHMn-4-ghJTYtJ5V9n8pG0-9N5yvFoSC-Qxjht9fMe1WiT_Yeeur3mK-5Y-hc0qUbOBiEUK7SYX9ukJ2UBczwodSpnLgCLyebEI24AMpJGrl9B12luVNK5-sCrh9i5I88cKdE1rPmSdbE_jmLKt1NInrjZQskrvb6sFgMNe_ESGBxwaLTFta2TpsOCChH4KftDEbB_awkKcWgGkEi0t7JC3yzoiR1KiP7B0cZKmwkRIH0a_Qw1g8Y-uP_IVpX-xDKvObfu-DlsRaBm00]--></g></svg>
