<?xml version="1.0" encoding="us-ascii" standalone="no"?><svg xmlns="http://www.w3.org/2000/svg" xmlns:xlink="http://www.w3.org/1999/xlink" contentStyleType="text/css" height="431px" preserveAspectRatio="none" style="width:462px;height:431px;background:#FFFFFF;" version="1.1" viewBox="0 0 462 431" width="462px" zoomAndPan="magnify"><defs/><g><rect fill="#FFFFFF" height="281.4219" style="stroke:#181818;stroke-width:1.0;" width="10" x="148" y="81.8047"/><rect fill="#FFFFFF" height="122.5703" style="stroke:#181818;stroke-width:1.0;" width="10" x="153" y="198.1328"/><rect fill="#FFFFFF" height="39.5234" style="stroke:#181818;stroke-width:1.0;" width="10" x="158" y="239.6563"/><rect fill="none" height="238.8984" style="stroke:#000000;stroke-width:1.5;" width="392" x="64.5" y="96.8047"/><line style="stroke:#181818;stroke-width:0.5;stroke-dasharray:5.0,5.0;" x1="152.5" x2="152.5" y1="51.2813" y2="381.2266"/><line style="stroke:#181818;stroke-width:0.5;stroke-dasharray:5.0,5.0;" x1="398.5" x2="398.5" y1="151.4688" y2="381.2266"/><rect fill="#E3E3E3" height="29.6406" rx="2.5" ry="2.5" style="stroke:#181818;stroke-width:0.5;" width="157" x="74.5" y="20.6406"/><text fill="#000000" font-family="sans-serif" font-size="14" lengthAdjust="spacing" textLength="143" x="81.5" y="40.3145">:visitRequestController</text><rect fill="#E3E3E3" height="29.6406" rx="2.5" ry="2.5" style="stroke:#181818;stroke-width:0.5;" width="157" x="74.5" y="380.2266"/><text fill="#000000" font-family="sans-serif" font-size="14" lengthAdjust="spacing" textLength="143" x="81.5" y="399.9004">:visitRequestController</text><rect fill="#E3E3E3" height="45.2813" rx="2.5" ry="2.5" style="stroke:#181818;stroke-width:0.5;" width="95" x="351.5" y="380.2266"/><text fill="#000000" font-family="sans-serif" font-size="14" lengthAdjust="spacing" textLength="77" x="360.5" y="399.9004">visitRequest</text><text fill="#000000" font-family="sans-serif" font-size="14" lengthAdjust="spacing" textLength="81" x="358.5" y="415.541">:visitRequest</text><rect fill="#FFFFFF" height="281.4219" style="stroke:#181818;stroke-width:1.0;" width="10" x="148" y="81.8047"/><rect fill="#FFFFFF" height="122.5703" style="stroke:#181818;stroke-width:1.0;" width="10" x="153" y="198.1328"/><rect fill="#FFFFFF" height="39.5234" style="stroke:#181818;stroke-width:1.0;" width="10" x="158" y="239.6563"/><polygon fill="#181818" points="136,77.8047,146,81.8047,136,85.8047,140,81.8047" style="stroke:#181818;stroke-width:1.0;"/><line style="stroke:#181818;stroke-width:1.0;" x1="0" x2="142" y1="81.8047" y2="81.8047"/><text fill="#000000" font-family="sans-serif" font-size="13" font-weight="bold" lengthAdjust="spacing" textLength="7" x="7" y="77.0498">2</text><text fill="#000000" font-family="sans-serif" font-size="13" lengthAdjust="spacing" textLength="118" x="18" y="77.0498">createVisitRequest()</text><path d="M64.5,96.8047 L184.5,96.8047 L184.5,103.3281 L174.5,113.3281 L64.5,113.3281 L64.5,96.8047 " fill="#EEEEEE" style="stroke:#000000;stroke-width:1.5;"/><rect fill="none" height="238.8984" style="stroke:#000000;stroke-width:1.5;" width="392" x="64.5" y="96.8047"/><text fill="#000000" font-family="sans-serif" font-size="13" font-weight="bold" lengthAdjust="spacing" textLength="75" x="79.5" y="109.5732">Create Task</text><polygon fill="#181818" points="339.5,129.8516,349.5,133.8516,339.5,137.8516,343.5,133.8516" style="stroke:#181818;stroke-width:1.0;"/><line style="stroke:#181818;stroke-width:1.0;" x1="158" x2="345.5" y1="133.8516" y2="133.8516"/><text fill="#000000" font-family="sans-serif" font-size="13" font-weight="bold" lengthAdjust="spacing" textLength="18" x="165" y="129.0967">2.1</text><text fill="#000000" font-family="sans-serif" font-size="13" lengthAdjust="spacing" textLength="118" x="187" y="129.0967">createVisitRequest()</text><rect fill="#E3E3E3" height="45.2813" rx="2.5" ry="2.5" style="stroke:#181818;stroke-width:0.5;" width="95" x="351.5" y="113.3281"/><text fill="#000000" font-family="sans-serif" font-size="14" lengthAdjust="spacing" textLength="77" x="360.5" y="133.002">visitRequest</text><text fill="#000000" font-family="sans-serif" font-size="14" lengthAdjust="spacing" textLength="81" x="358.5" y="148.6426">:visitRequest</text><line style="stroke:#181818;stroke-width:1.0;" x1="158" x2="205" y1="185.1328" y2="185.1328"/><line style="stroke:#181818;stroke-width:1.0;" x1="205" x2="205" y1="185.1328" y2="198.1328"/><line style="stroke:#181818;stroke-width:1.0;" x1="164" x2="205" y1="198.1328" y2="198.1328"/><polygon fill="#181818" points="174,194.1328,164,198.1328,174,202.1328,170,198.1328" style="stroke:#181818;stroke-width:1.0;"/><text fill="#000000" font-family="sans-serif" font-size="13" font-weight="bold" lengthAdjust="spacing" textLength="18" x="170" y="180.3779">2.2</text><text fill="#000000" font-family="sans-serif" font-size="13" lengthAdjust="spacing" textLength="173" x="192" y="180.3779">addVisitRequest(visitRequest)</text><line style="stroke:#181818;stroke-width:1.0;" x1="163" x2="210" y1="226.6563" y2="226.6563"/><line style="stroke:#181818;stroke-width:1.0;" x1="210" x2="210" y1="226.6563" y2="239.6563"/><line style="stroke:#181818;stroke-width:1.0;" x1="169" x2="210" y1="239.6563" y2="239.6563"/><polygon fill="#181818" points="179,235.6563,169,239.6563,179,243.6563,175,239.6563" style="stroke:#181818;stroke-width:1.0;"/><text fill="#000000" font-family="sans-serif" font-size="13" font-weight="bold" lengthAdjust="spacing" textLength="18" x="175" y="221.9014">2.3</text><text fill="#000000" font-family="sans-serif" font-size="13" lengthAdjust="spacing" textLength="195" x="197" y="221.9014">validateVisitRequest(visitRequest)</text><line style="stroke:#181818;stroke-width:1.0;stroke-dasharray:2.0,2.0;" x1="168" x2="210" y1="278.1797" y2="278.1797"/><line style="stroke:#181818;stroke-width:1.0;stroke-dasharray:2.0,2.0;" x1="210" x2="210" y1="278.1797" y2="291.1797"/><line style="stroke:#181818;stroke-width:1.0;stroke-dasharray:2.0,2.0;" x1="163" x2="210" y1="291.1797" y2="291.1797"/><polygon fill="#181818" points="173,287.1797,163,291.1797,173,295.1797,169,291.1797" style="stroke:#181818;stroke-width:1.0;"/><text fill="#000000" font-family="sans-serif" font-size="13" font-weight="bold" lengthAdjust="spacing" textLength="18" x="175" y="273.4248">2.4</text><text fill="#000000" font-family="sans-serif" font-size="13" lengthAdjust="spacing" textLength="4" x="197" y="273.4248">&#160;</text><line style="stroke:#181818;stroke-width:1.0;stroke-dasharray:2.0,2.0;" x1="163" x2="205" y1="319.7031" y2="319.7031"/><line style="stroke:#181818;stroke-width:1.0;stroke-dasharray:2.0,2.0;" x1="205" x2="205" y1="319.7031" y2="332.7031"/><line style="stroke:#181818;stroke-width:1.0;stroke-dasharray:2.0,2.0;" x1="158" x2="205" y1="332.7031" y2="332.7031"/><polygon fill="#181818" points="168,328.7031,158,332.7031,168,336.7031,164,332.7031" style="stroke:#181818;stroke-width:1.0;"/><text fill="#000000" font-family="sans-serif" font-size="13" font-weight="bold" lengthAdjust="spacing" textLength="18" x="170" y="314.9482">2.5</text><text fill="#000000" font-family="sans-serif" font-size="13" lengthAdjust="spacing" textLength="4" x="192" y="314.9482">&#160;</text><polygon fill="#181818" points="11,359.2266,1,363.2266,11,367.2266,7,363.2266" style="stroke:#181818;stroke-width:1.0;"/><line style="stroke:#181818;stroke-width:1.0;stroke-dasharray:2.0,2.0;" x1="5" x2="152" y1="363.2266" y2="363.2266"/><text fill="#000000" font-family="sans-serif" font-size="13" font-weight="bold" lengthAdjust="spacing" textLength="14" x="17" y="358.4717">26</text><text fill="#000000" font-family="sans-serif" font-size="13" lengthAdjust="spacing" textLength="101" x="35" y="358.4717">VisitRequestData</text><!--SRC=[hPB1JiCm38RlVWfh9pQfI73WK24kuma0SU9Y4jD5JPEIk4MyFLsH81aBsn0-sh___tEKs1hNKw0EE- -ysWJVCKeO6EBNf2VLKiFtycuP0oiXrzXK43Ua_Pjn3RwGZGmmjSKeqvCJNDIZYKRk-7NWA6ll97XhEIoG8kuVvVkfvibbRZyy06WGxuRkcGDUGdLJIAXH1IRXnsHwjiotpo-0b9XnafKuSQec-A77zMo73nHRcDlRsh-5ErIhLO7cD9lqED8wyqfros- -OyxxEyH8rkZTgtAIDE0KcD-0YaIPW-P3UV0_OOU3jYfs-ZCm_O1NS-UwgahnDQPlUqj2SCHT7m00]--></g></svg>
