<?xml version="1.0" encoding="us-ascii" standalone="no"?><svg xmlns="http://www.w3.org/2000/svg" xmlns:xlink="http://www.w3.org/1999/xlink" contentStyleType="text/css" height="1604px" preserveAspectRatio="none" style="width:1717px;height:1604px;background:#FFFFFF;" version="1.1" viewBox="0 0 1717 1604" width="1717px" zoomAndPan="magnify"><defs/><g><!--class Repositories--><g id="elem_Repositories"><rect codeLine="9" fill="#F1F1F1" height="290.0742" id="Repositories" rx="2.5" ry="2.5" style="stroke:#181818;stroke-width:0.5;" width="359" x="555.5" y="7"/><ellipse cx="691.25" cy="23" fill="#ADD1B2" rx="11" ry="11" style="stroke:#181818;stroke-width:1.0;"/><path d="M694.0156,18.875 Q694.1719,18.6563 694.3594,18.5469 Q694.5469,18.4375 694.7656,18.4375 Q695.1406,18.4375 695.375,18.7031 Q695.6094,18.9531 695.6094,19.5625 L695.6094,21.0156 Q695.6094,21.625 695.375,21.8906 Q695.1406,22.1563 694.7656,22.1563 Q694.4219,22.1563 694.2188,21.9531 Q694.0156,21.7656 693.9063,21.25 Q693.8594,20.8906 693.6719,20.7031 Q693.3438,20.3281 692.7344,20.1094 Q692.125,19.8906 691.5,19.8906 Q690.7344,19.8906 690.0938,20.2188 Q689.4688,20.5469 688.9688,21.2969 Q688.4844,22.0469 688.4844,23.0781 L688.4844,24.1719 Q688.4844,25.4063 689.375,26.2344 Q690.2656,27.0469 691.8594,27.0469 Q692.7969,27.0469 693.4531,26.7969 Q693.8438,26.6406 694.2656,26.2031 Q694.5313,25.9375 694.6719,25.8594 Q694.8281,25.7813 695.0313,25.7813 Q695.3594,25.7813 695.6094,26.0469 Q695.875,26.2969 695.875,26.6406 Q695.875,26.9844 695.5313,27.3906 Q695.0313,27.9688 694.2344,28.2969 Q693.1563,28.75 691.8594,28.75 Q690.3438,28.75 689.1406,28.125 Q688.1563,27.625 687.4688,26.5625 Q686.7813,25.4844 686.7813,24.2031 L686.7813,23.0469 Q686.7813,21.7188 687.3906,20.5781 Q688.0156,19.4219 689.1094,18.8125 Q690.2031,18.1875 691.4375,18.1875 Q692.1719,18.1875 692.8125,18.3594 Q693.4688,18.5156 694.0156,18.875 Z " fill="#000000"/><text fill="#000000" font-family="sans-serif" font-size="14" lengthAdjust="spacing" textLength="79" x="711.75" y="28.7969">Repositories</text><line style="stroke:#181818;stroke-width:0.5;" x1="556.5" x2="913.5" y1="39" y2="39"/><polygon fill="none" points="566.5,49.8105,562.5,55.8105,570.5,55.8105" style="stroke:#1963A0;stroke-width:1.0;"/><text fill="#000000" font-family="sans-serif" font-size="14" lengthAdjust="spacing" textLength="251" x="575.5" y="58.1074">propertyRepository: PropertyRepository</text><polygon fill="none" points="566.5,68.4316,562.5,74.4316,570.5,74.4316" style="stroke:#1963A0;stroke-width:1.0;"/><text fill="#000000" font-family="sans-serif" font-size="14" lengthAdjust="spacing" textLength="323" x="575.5" y="76.7285">authenticationRepository: AuthenticationRepository</text><polygon fill="none" points="566.5,87.0527,562.5,93.0527,570.5,93.0527" style="stroke:#1963A0;stroke-width:1.0;"/><text fill="#000000" font-family="sans-serif" font-size="14" lengthAdjust="spacing" textLength="213" x="575.5" y="95.3496">clientRepository: ClientRepository</text><rect fill="none" height="6" style="stroke:#C82930;stroke-width:1.0;" width="6" x="563.5" y="106.6738"/><text fill="#000000" font-family="sans-serif" font-size="14" lengthAdjust="spacing" textLength="140" x="575.5" y="113.9707">instance: Repositories</text><polygon fill="none" points="566.5,124.2949,562.5,130.2949,570.5,130.2949" style="stroke:#1963A0;stroke-width:1.0;"/><text fill="#000000" font-family="sans-serif" font-size="14" lengthAdjust="spacing" textLength="333" x="575.5" y="132.5918">announcementRepository: AnnouncementRepository</text><polygon fill="none" points="566.5,142.916,562.5,148.916,570.5,148.916" style="stroke:#1963A0;stroke-width:1.0;"/><text fill="#000000" font-family="sans-serif" font-size="14" lengthAdjust="spacing" textLength="210" x="575.5" y="151.2129">storeRepository: StoreRepository</text><text fill="#000000" font-family="sans-serif" font-size="14" lengthAdjust="spacing" textLength="333" x="575.5" y="169.834">announcementRepository: AnnouncementRepository</text><text fill="#000000" font-family="sans-serif" font-size="14" lengthAdjust="spacing" textLength="251" x="575.5" y="188.4551">propertyRepository: PropertyRepository</text><text fill="#000000" font-family="sans-serif" font-size="14" lengthAdjust="spacing" textLength="140" x="575.5" y="207.0762">instance: Repositories</text><text fill="#000000" font-family="sans-serif" font-size="14" lengthAdjust="spacing" textLength="213" x="575.5" y="225.6973">clientRepository: ClientRepository</text><text fill="#000000" font-family="sans-serif" font-size="14" lengthAdjust="spacing" textLength="323" x="575.5" y="244.3184">authenticationRepository: AuthenticationRepository</text><text fill="#000000" font-family="sans-serif" font-size="14" lengthAdjust="spacing" textLength="210" x="575.5" y="262.9395">storeRepository: StoreRepository</text><line style="stroke:#181818;stroke-width:0.5;" x1="556.5" x2="913.5" y1="270.4531" y2="270.4531"/><rect fill="#F24D5C" height="6" style="stroke:#C82930;stroke-width:1.0;" width="6" x="563.5" y="282.2637"/><text fill="#000000" font-family="sans-serif" font-size="14" lengthAdjust="spacing" textLength="93" x="575.5" y="289.5605">Repositories():</text></g><!--class MessageRepository--><g id="elem_MessageRepository"><rect codeLine="25" fill="#F1F1F1" height="141.1055" id="MessageRepository" rx="2.5" ry="2.5" style="stroke:#181818;stroke-width:0.5;" width="238" x="444" y="376"/><ellipse cx="496.25" cy="392" fill="#ADD1B2" rx="11" ry="11" style="stroke:#181818;stroke-width:1.0;"/><path d="M499.0156,387.875 Q499.1719,387.6563 499.3594,387.5469 Q499.5469,387.4375 499.7656,387.4375 Q500.1406,387.4375 500.375,387.7031 Q500.6094,387.9531 500.6094,388.5625 L500.6094,390.0156 Q500.6094,390.625 500.375,390.8906 Q500.1406,391.1563 499.7656,391.1563 Q499.4219,391.1563 499.2188,390.9531 Q499.0156,390.7656 498.9063,390.25 Q498.8594,389.8906 498.6719,389.7031 Q498.3438,389.3281 497.7344,389.1094 Q497.125,388.8906 496.5,388.8906 Q495.7344,388.8906 495.0938,389.2188 Q494.4688,389.5469 493.9688,390.2969 Q493.4844,391.0469 493.4844,392.0781 L493.4844,393.1719 Q493.4844,394.4063 494.375,395.2344 Q495.2656,396.0469 496.8594,396.0469 Q497.7969,396.0469 498.4531,395.7969 Q498.8438,395.6406 499.2656,395.2031 Q499.5313,394.9375 499.6719,394.8594 Q499.8281,394.7813 500.0313,394.7813 Q500.3594,394.7813 500.6094,395.0469 Q500.875,395.2969 500.875,395.6406 Q500.875,395.9844 500.5313,396.3906 Q500.0313,396.9688 499.2344,397.2969 Q498.1563,397.75 496.8594,397.75 Q495.3438,397.75 494.1406,397.125 Q493.1563,396.625 492.4688,395.5625 Q491.7813,394.4844 491.7813,393.2031 L491.7813,392.0469 Q491.7813,390.7188 492.3906,389.5781 Q493.0156,388.4219 494.1094,387.8125 Q495.2031,387.1875 496.4375,387.1875 Q497.1719,387.1875 497.8125,387.3594 Q498.4688,387.5156 499.0156,387.875 Z " fill="#000000"/><text fill="#000000" font-family="sans-serif" font-size="14" lengthAdjust="spacing" textLength="125" x="516.75" y="397.7969">MessageRepository</text><line style="stroke:#181818;stroke-width:0.5;" x1="445" x2="681" y1="408" y2="408"/><polygon fill="none" points="455,418.8105,451,424.8105,459,424.8105" style="stroke:#1963A0;stroke-width:1.0;"/><text fill="#000000" font-family="sans-serif" font-size="14" lengthAdjust="spacing" textLength="182" x="464" y="427.1074">messageList: List&lt;Message&gt;</text><text fill="#000000" font-family="sans-serif" font-size="14" lengthAdjust="spacing" textLength="182" x="464" y="445.7285">messageList: List&lt;Message&gt;</text><line style="stroke:#181818;stroke-width:0.5;" x1="445" x2="681" y1="453.2422" y2="453.2422"/><rect fill="#F24D5C" height="6" style="stroke:#C82930;stroke-width:1.0;" width="6" x="452" y="465.0527"/><text fill="#000000" font-family="sans-serif" font-size="14" lengthAdjust="spacing" textLength="139" x="464" y="472.3496">MessageRepository():</text><ellipse cx="455" cy="486.6738" fill="#84BE84" rx="3" ry="3" style="stroke:#038048;stroke-width:1.0;"/><text fill="#000000" font-family="sans-serif" font-size="14" lengthAdjust="spacing" textLength="182" x="464" y="490.9707">addMessage(Message): void</text><ellipse cx="455" cy="505.2949" fill="#84BE84" rx="3" ry="3" style="stroke:#038048;stroke-width:1.0;"/><text fill="#000000" font-family="sans-serif" font-size="14" lengthAdjust="spacing" textLength="212" x="464" y="509.5918">getMessageList(): List&lt;Message&gt;</text></g><!--class StoreRepository--><g id="elem_StoreRepository"><rect codeLine="33" fill="#F1F1F1" height="215.5898" id="StoreRepository" rx="2.5" ry="2.5" style="stroke:#181818;stroke-width:0.5;" width="723" x="358.5" y="547"/><ellipse cx="664.75" cy="563" fill="#ADD1B2" rx="11" ry="11" style="stroke:#181818;stroke-width:1.0;"/><path d="M667.5156,558.875 Q667.6719,558.6563 667.8594,558.5469 Q668.0469,558.4375 668.2656,558.4375 Q668.6406,558.4375 668.875,558.7031 Q669.1094,558.9531 669.1094,559.5625 L669.1094,561.0156 Q669.1094,561.625 668.875,561.8906 Q668.6406,562.1563 668.2656,562.1563 Q667.9219,562.1563 667.7188,561.9531 Q667.5156,561.7656 667.4063,561.25 Q667.3594,560.8906 667.1719,560.7031 Q666.8438,560.3281 666.2344,560.1094 Q665.625,559.8906 665,559.8906 Q664.2344,559.8906 663.5938,560.2188 Q662.9688,560.5469 662.4688,561.2969 Q661.9844,562.0469 661.9844,563.0781 L661.9844,564.1719 Q661.9844,565.4063 662.875,566.2344 Q663.7656,567.0469 665.3594,567.0469 Q666.2969,567.0469 666.9531,566.7969 Q667.3438,566.6406 667.7656,566.2031 Q668.0313,565.9375 668.1719,565.8594 Q668.3281,565.7813 668.5313,565.7813 Q668.8594,565.7813 669.1094,566.0469 Q669.375,566.2969 669.375,566.6406 Q669.375,566.9844 669.0313,567.3906 Q668.5313,567.9688 667.7344,568.2969 Q666.6563,568.75 665.3594,568.75 Q663.8438,568.75 662.6406,568.125 Q661.6563,567.625 660.9688,566.5625 Q660.2813,565.4844 660.2813,564.2031 L660.2813,563.0469 Q660.2813,561.7188 660.8906,560.5781 Q661.5156,559.4219 662.6094,558.8125 Q663.7031,558.1875 664.9375,558.1875 Q665.6719,558.1875 666.3125,558.3594 Q666.9688,558.5156 667.5156,558.875 Z " fill="#000000"/><text fill="#000000" font-family="sans-serif" font-size="14" lengthAdjust="spacing" textLength="102" x="685.25" y="568.7969">StoreRepository</text><line style="stroke:#181818;stroke-width:0.5;" x1="359.5" x2="1080.5" y1="579" y2="579"/><polygon fill="none" points="369.5,589.8105,365.5,595.8105,373.5,595.8105" style="stroke:#1963A0;stroke-width:1.0;"/><text fill="#000000" font-family="sans-serif" font-size="14" lengthAdjust="spacing" textLength="119" x="378.5" y="598.1074">stores: List&lt;Store&gt;</text><text fill="#000000" font-family="sans-serif" font-size="14" lengthAdjust="spacing" textLength="119" x="378.5" y="616.7285">stores: List&lt;Store&gt;</text><line style="stroke:#181818;stroke-width:0.5;" x1="359.5" x2="1080.5" y1="624.2422" y2="624.2422"/><ellipse cx="369.5" cy="639.0527" fill="#84BE84" rx="3" ry="3" style="stroke:#038048;stroke-width:1.0;"/><text fill="#000000" font-family="sans-serif" font-size="14" lengthAdjust="spacing" textLength="116" x="378.5" y="643.3496">StoreRepository():</text><ellipse cx="369.5" cy="657.6738" fill="#84BE84" rx="3" ry="3" style="stroke:#038048;stroke-width:1.0;"/><text fill="#000000" font-family="sans-serif" font-size="14" lengthAdjust="spacing" textLength="136" x="378.5" y="661.9707">addStore(Store): void</text><rect fill="#F24D5C" height="6" style="stroke:#C82930;stroke-width:1.0;" width="6" x="366.5" y="673.2949"/><text fill="#000000" font-family="sans-serif" font-size="14" lengthAdjust="spacing" textLength="161" x="378.5" y="680.5918">validateStore(Store): void</text><ellipse cx="369.5" cy="694.916" fill="#84BE84" rx="3" ry="3" style="stroke:#038048;stroke-width:1.0;"/><text fill="#000000" font-family="sans-serif" font-size="14" lengthAdjust="spacing" textLength="697" x="378.5" y="699.2129">createEmployee(String, String, int, String, String, String, String, Roles[], int, Store): Optional&lt;EmployeeProject&gt;</text><rect fill="#F24D5C" height="6" style="stroke:#C82930;stroke-width:1.0;" width="6" x="366.5" y="710.5371"/><text fill="#000000" font-family="sans-serif" font-size="14" lengthAdjust="spacing" textLength="329" x="378.5" y="717.834">addEmployeeToStore(Store, EmployeeProject): void</text><ellipse cx="369.5" cy="732.1582" fill="#84BE84" rx="3" ry="3" style="stroke:#038048;stroke-width:1.0;"/><text fill="#000000" font-family="sans-serif" font-size="14" lengthAdjust="spacing" textLength="367" x="378.5" y="736.4551">addEmployeeToStorePublic(Store, EmployeeProject): void</text><ellipse cx="369.5" cy="750.7793" fill="#84BE84" rx="3" ry="3" style="stroke:#038048;stroke-width:1.0;"/><text fill="#000000" font-family="sans-serif" font-size="14" lengthAdjust="spacing" textLength="248" x="378.5" y="755.0762">listEmployees(): List&lt;EmployeeProject&gt;</text></g><!--class VisitRequestRepository--><g id="elem_VisitRequestRepository"><rect codeLine="46" fill="#F1F1F1" height="122.4844" id="VisitRequestRepository" rx="2.5" ry="2.5" style="stroke:#181818;stroke-width:0.5;" width="574" x="819" y="385.5"/><ellipse cx="1028.25" cy="401.5" fill="#ADD1B2" rx="11" ry="11" style="stroke:#181818;stroke-width:1.0;"/><path d="M1031.0156,397.375 Q1031.1719,397.1563 1031.3594,397.0469 Q1031.5469,396.9375 1031.7656,396.9375 Q1032.1406,396.9375 1032.375,397.2031 Q1032.6094,397.4531 1032.6094,398.0625 L1032.6094,399.5156 Q1032.6094,400.125 1032.375,400.3906 Q1032.1406,400.6563 1031.7656,400.6563 Q1031.4219,400.6563 1031.2188,400.4531 Q1031.0156,400.2656 1030.9063,399.75 Q1030.8594,399.3906 1030.6719,399.2031 Q1030.3438,398.8281 1029.7344,398.6094 Q1029.125,398.3906 1028.5,398.3906 Q1027.7344,398.3906 1027.0938,398.7188 Q1026.4688,399.0469 1025.9688,399.7969 Q1025.4844,400.5469 1025.4844,401.5781 L1025.4844,402.6719 Q1025.4844,403.9063 1026.375,404.7344 Q1027.2656,405.5469 1028.8594,405.5469 Q1029.7969,405.5469 1030.4531,405.2969 Q1030.8438,405.1406 1031.2656,404.7031 Q1031.5313,404.4375 1031.6719,404.3594 Q1031.8281,404.2813 1032.0313,404.2813 Q1032.3594,404.2813 1032.6094,404.5469 Q1032.875,404.7969 1032.875,405.1406 Q1032.875,405.4844 1032.5313,405.8906 Q1032.0313,406.4688 1031.2344,406.7969 Q1030.1563,407.25 1028.8594,407.25 Q1027.3438,407.25 1026.1406,406.625 Q1025.1563,406.125 1024.4688,405.0625 Q1023.7813,403.9844 1023.7813,402.7031 L1023.7813,401.5469 Q1023.7813,400.2188 1024.3906,399.0781 Q1025.0156,397.9219 1026.1094,397.3125 Q1027.2031,396.6875 1028.4375,396.6875 Q1029.1719,396.6875 1029.8125,396.8594 Q1030.4688,397.0156 1031.0156,397.375 Z " fill="#000000"/><text fill="#000000" font-family="sans-serif" font-size="14" lengthAdjust="spacing" textLength="147" x="1048.75" y="407.2969">VisitRequestRepository</text><line style="stroke:#181818;stroke-width:0.5;" x1="820" x2="1392" y1="417.5" y2="417.5"/><line style="stroke:#181818;stroke-width:0.5;" x1="820" x2="1392" y1="425.5" y2="425.5"/><rect fill="#F24D5C" height="6" style="stroke:#C82930;stroke-width:1.0;" width="6" x="827" y="437.3105"/><text fill="#000000" font-family="sans-serif" font-size="14" lengthAdjust="spacing" textLength="157" x="839" y="444.6074">VisitRequestRepository()</text><ellipse cx="830" cy="458.9316" fill="#84BE84" rx="3" ry="3" style="stroke:#038048;stroke-width:1.0;"/><text fill="#000000" font-family="sans-serif" font-size="14" lengthAdjust="spacing" textLength="242" x="839" y="463.2285">getInstance() : VisitRequestRepository</text><ellipse cx="830" cy="477.5527" fill="#84BE84" rx="3" ry="3" style="stroke:#038048;stroke-width:1.0;"/><text fill="#000000" font-family="sans-serif" font-size="14" lengthAdjust="spacing" textLength="131" x="839" y="481.8496">getVisitRequestList()</text><ellipse cx="830" cy="496.1738" fill="#84BE84" rx="3" ry="3" style="stroke:#038048;stroke-width:1.0;"/><text fill="#000000" font-family="sans-serif" font-size="14" lengthAdjust="spacing" textLength="548" x="839" y="500.4707">insertVisitRequest(name: String, email: String, phone: int, date: String, property: String)</text></g><!--class MessageVisitRequestUI--><g id="elem_MessageVisitRequestUI"><rect codeLine="53" fill="#F1F1F1" height="66.6211" id="MessageVisitRequestUI" rx="2.5" ry="2.5" style="stroke:#181818;stroke-width:0.5;" width="180" x="7" y="118.5"/><ellipse cx="22" cy="134.5" fill="#ADD1B2" rx="11" ry="11" style="stroke:#181818;stroke-width:1.0;"/><path d="M24.7656,130.375 Q24.9219,130.1563 25.1094,130.0469 Q25.2969,129.9375 25.5156,129.9375 Q25.8906,129.9375 26.125,130.2031 Q26.3594,130.4531 26.3594,131.0625 L26.3594,132.5156 Q26.3594,133.125 26.125,133.3906 Q25.8906,133.6563 25.5156,133.6563 Q25.1719,133.6563 24.9688,133.4531 Q24.7656,133.2656 24.6563,132.75 Q24.6094,132.3906 24.4219,132.2031 Q24.0938,131.8281 23.4844,131.6094 Q22.875,131.3906 22.25,131.3906 Q21.4844,131.3906 20.8438,131.7188 Q20.2188,132.0469 19.7188,132.7969 Q19.2344,133.5469 19.2344,134.5781 L19.2344,135.6719 Q19.2344,136.9063 20.125,137.7344 Q21.0156,138.5469 22.6094,138.5469 Q23.5469,138.5469 24.2031,138.2969 Q24.5938,138.1406 25.0156,137.7031 Q25.2813,137.4375 25.4219,137.3594 Q25.5781,137.2813 25.7813,137.2813 Q26.1094,137.2813 26.3594,137.5469 Q26.625,137.7969 26.625,138.1406 Q26.625,138.4844 26.2813,138.8906 Q25.7813,139.4688 24.9844,139.7969 Q23.9063,140.25 22.6094,140.25 Q21.0938,140.25 19.8906,139.625 Q18.9063,139.125 18.2188,138.0625 Q17.5313,136.9844 17.5313,135.7031 L17.5313,134.5469 Q17.5313,133.2188 18.1406,132.0781 Q18.7656,130.9219 19.8594,130.3125 Q20.9531,129.6875 22.1875,129.6875 Q22.9219,129.6875 23.5625,129.8594 Q24.2188,130.0156 24.7656,130.375 Z " fill="#000000"/><text fill="#000000" font-family="sans-serif" font-size="14" lengthAdjust="spacing" textLength="148" x="36" y="140.2969">MessageVisitRequestUI</text><line style="stroke:#181818;stroke-width:0.5;" x1="8" x2="186" y1="150.5" y2="150.5"/><line style="stroke:#181818;stroke-width:0.5;" x1="8" x2="186" y1="158.5" y2="158.5"/><ellipse cx="18" cy="173.3105" fill="#84BE84" rx="3" ry="3" style="stroke:#038048;stroke-width:1.0;"/><text fill="#000000" font-family="sans-serif" font-size="14" lengthAdjust="spacing" textLength="143" x="27" y="177.6074">showVisitRequestList()</text></g><!--class MessageVisitRequestController--><g id="elem_MessageVisitRequestController"><rect codeLine="58" fill="#F1F1F1" height="48" id="MessageVisitRequestController" rx="2.5" ry="2.5" style="stroke:#181818;stroke-width:0.5;" width="230" x="222" y="128"/><ellipse cx="237" cy="144" fill="#ADD1B2" rx="11" ry="11" style="stroke:#181818;stroke-width:1.0;"/><path d="M239.7656,139.875 Q239.9219,139.6563 240.1094,139.5469 Q240.2969,139.4375 240.5156,139.4375 Q240.8906,139.4375 241.125,139.7031 Q241.3594,139.9531 241.3594,140.5625 L241.3594,142.0156 Q241.3594,142.625 241.125,142.8906 Q240.8906,143.1563 240.5156,143.1563 Q240.1719,143.1563 239.9688,142.9531 Q239.7656,142.7656 239.6563,142.25 Q239.6094,141.8906 239.4219,141.7031 Q239.0938,141.3281 238.4844,141.1094 Q237.875,140.8906 237.25,140.8906 Q236.4844,140.8906 235.8438,141.2188 Q235.2188,141.5469 234.7188,142.2969 Q234.2344,143.0469 234.2344,144.0781 L234.2344,145.1719 Q234.2344,146.4063 235.125,147.2344 Q236.0156,148.0469 237.6094,148.0469 Q238.5469,148.0469 239.2031,147.7969 Q239.5938,147.6406 240.0156,147.2031 Q240.2813,146.9375 240.4219,146.8594 Q240.5781,146.7813 240.7813,146.7813 Q241.1094,146.7813 241.3594,147.0469 Q241.625,147.2969 241.625,147.6406 Q241.625,147.9844 241.2813,148.3906 Q240.7813,148.9688 239.9844,149.2969 Q238.9063,149.75 237.6094,149.75 Q236.0938,149.75 234.8906,149.125 Q233.9063,148.625 233.2188,147.5625 Q232.5313,146.4844 232.5313,145.2031 L232.5313,144.0469 Q232.5313,142.7188 233.1406,141.5781 Q233.7656,140.4219 234.8594,139.8125 Q235.9531,139.1875 237.1875,139.1875 Q237.9219,139.1875 238.5625,139.3594 Q239.2188,139.5156 239.7656,139.875 Z " fill="#000000"/><text fill="#000000" font-family="sans-serif" font-size="14" lengthAdjust="spacing" textLength="198" x="251" y="149.7969">MessageVisitRequestController</text><line style="stroke:#181818;stroke-width:0.5;" x1="223" x2="451" y1="160" y2="160"/><line style="stroke:#181818;stroke-width:0.5;" x1="223" x2="451" y1="168" y2="168"/></g><!--class User--><g id="elem_User"><rect codeLine="61" fill="#F1F1F1" height="383.1797" id="User" rx="2.5" ry="2.5" style="stroke:#181818;stroke-width:0.5;" width="398" x="1312" y="957"/><ellipse cx="1492.25" cy="973" fill="#ADD1B2" rx="11" ry="11" style="stroke:#181818;stroke-width:1.0;"/><path d="M1495.0156,968.875 Q1495.1719,968.6563 1495.3594,968.5469 Q1495.5469,968.4375 1495.7656,968.4375 Q1496.1406,968.4375 1496.375,968.7031 Q1496.6094,968.9531 1496.6094,969.5625 L1496.6094,971.0156 Q1496.6094,971.625 1496.375,971.8906 Q1496.1406,972.1563 1495.7656,972.1563 Q1495.4219,972.1563 1495.2188,971.9531 Q1495.0156,971.7656 1494.9063,971.25 Q1494.8594,970.8906 1494.6719,970.7031 Q1494.3438,970.3281 1493.7344,970.1094 Q1493.125,969.8906 1492.5,969.8906 Q1491.7344,969.8906 1491.0938,970.2188 Q1490.4688,970.5469 1489.9688,971.2969 Q1489.4844,972.0469 1489.4844,973.0781 L1489.4844,974.1719 Q1489.4844,975.4063 1490.375,976.2344 Q1491.2656,977.0469 1492.8594,977.0469 Q1493.7969,977.0469 1494.4531,976.7969 Q1494.8438,976.6406 1495.2656,976.2031 Q1495.5313,975.9375 1495.6719,975.8594 Q1495.8281,975.7813 1496.0313,975.7813 Q1496.3594,975.7813 1496.6094,976.0469 Q1496.875,976.2969 1496.875,976.6406 Q1496.875,976.9844 1496.5313,977.3906 Q1496.0313,977.9688 1495.2344,978.2969 Q1494.1563,978.75 1492.8594,978.75 Q1491.3438,978.75 1490.1406,978.125 Q1489.1563,977.625 1488.4688,976.5625 Q1487.7813,975.4844 1487.7813,974.2031 L1487.7813,973.0469 Q1487.7813,971.7188 1488.3906,970.5781 Q1489.0156,969.4219 1490.1094,968.8125 Q1491.2031,968.1875 1492.4375,968.1875 Q1493.1719,968.1875 1493.8125,968.3594 Q1494.4688,968.5156 1495.0156,968.875 Z " fill="#000000"/><text fill="#000000" font-family="sans-serif" font-size="14" lengthAdjust="spacing" textLength="29" x="1512.75" y="978.7969">User</text><line style="stroke:#181818;stroke-width:0.5;" x1="1313" x2="1709" y1="989" y2="989"/><rect fill="none" height="6" style="stroke:#C82930;stroke-width:1.0;" width="6" x="1320" y="1000.8105"/><text fill="#000000" font-family="sans-serif" font-size="14" lengthAdjust="spacing" textLength="85" x="1332" y="1008.1074">phone: String</text><rect fill="none" height="6" style="stroke:#C82930;stroke-width:1.0;" width="6" x="1320" y="1019.4316"/><text fill="#000000" font-family="sans-serif" font-size="14" lengthAdjust="spacing" textLength="80" x="1332" y="1026.7285">name: String</text><rect fill="none" height="6" style="stroke:#C82930;stroke-width:1.0;" width="6" x="1320" y="1038.0527"/><text fill="#000000" font-family="sans-serif" font-size="14" lengthAdjust="spacing" textLength="78" x="1332" y="1045.3496">email: String</text><rect fill="none" height="6" style="stroke:#C82930;stroke-width:1.0;" width="6" x="1320" y="1056.6738"/><text fill="#000000" font-family="sans-serif" font-size="14" lengthAdjust="spacing" textLength="96" x="1332" y="1063.9707">address: String</text><rect fill="none" height="6" style="stroke:#C82930;stroke-width:1.0;" width="6" x="1320" y="1075.2949"/><text fill="#000000" font-family="sans-serif" font-size="14" lengthAdjust="spacing" textLength="90" x="1332" y="1082.5918">taxNumber: int</text><rect fill="none" height="6" style="stroke:#C82930;stroke-width:1.0;" width="6" x="1320" y="1093.916"/><text fill="#000000" font-family="sans-serif" font-size="14" lengthAdjust="spacing" textLength="113" x="1332" y="1101.2129">descptions: String</text><rect fill="none" height="6" style="stroke:#C82930;stroke-width:1.0;" width="6" x="1320" y="1112.5371"/><text fill="#000000" font-family="sans-serif" font-size="14" lengthAdjust="spacing" textLength="75" x="1332" y="1119.834">roles: Roles</text><rect fill="none" height="6" style="stroke:#C82930;stroke-width:1.0;" width="6" x="1320" y="1131.1582"/><text fill="#000000" font-family="sans-serif" font-size="14" lengthAdjust="spacing" textLength="105" x="1332" y="1138.4551">password: String</text><text fill="#000000" font-family="sans-serif" font-size="14" lengthAdjust="spacing" textLength="80" x="1332" y="1157.0762">name: String</text><text fill="#000000" font-family="sans-serif" font-size="14" lengthAdjust="spacing" textLength="105" x="1332" y="1175.6973">password: String</text><text fill="#000000" font-family="sans-serif" font-size="14" lengthAdjust="spacing" textLength="113" x="1332" y="1194.3184">descptions: String</text><text fill="#000000" font-family="sans-serif" font-size="14" lengthAdjust="spacing" textLength="78" x="1332" y="1212.9395">email: String</text><text fill="#000000" font-family="sans-serif" font-size="14" lengthAdjust="spacing" textLength="85" x="1332" y="1231.5605">phone: String</text><text fill="#000000" font-family="sans-serif" font-size="14" lengthAdjust="spacing" textLength="96" x="1332" y="1250.1816">address: String</text><text fill="#000000" font-family="sans-serif" font-size="14" lengthAdjust="spacing" textLength="75" x="1332" y="1268.8027">roles: Roles</text><text fill="#000000" font-family="sans-serif" font-size="14" lengthAdjust="spacing" textLength="90" x="1332" y="1287.4238">taxNumber: int</text><line style="stroke:#181818;stroke-width:0.5;" x1="1313" x2="1709" y1="1294.9375" y2="1294.9375"/><ellipse cx="1323" cy="1309.748" fill="#84BE84" rx="3" ry="3" style="stroke:#038048;stroke-width:1.0;"/><text fill="#000000" font-family="sans-serif" font-size="14" lengthAdjust="spacing" textLength="372" x="1332" y="1314.0449">User(String, String, int, String, String, String, String, Roles):</text><ellipse cx="1323" cy="1328.3691" fill="#84BE84" rx="3" ry="3" style="stroke:#038048;stroke-width:1.0;"/><text fill="#000000" font-family="sans-serif" font-size="14" lengthAdjust="spacing" textLength="104" x="1332" y="1332.666">toString(): String</text></g><!--class Roles--><g id="elem_Roles"><rect codeLine="82" fill="#F1F1F1" height="116.4453" id="Roles" rx="2.5" ry="2.5" style="stroke:#181818;stroke-width:0.5;" width="166" x="1428" y="1450"/><ellipse cx="1467.3" cy="1472.291" fill="#EB937F" rx="11" ry="11" style="stroke:#181818;stroke-width:1.0;"/><path d="M1466.1594,1473.0879 L1466.1594,1475.5879 L1470.4875,1475.5879 L1470.4875,1474.666 Q1470.4875,1474.0566 1470.7219,1473.791 Q1470.9719,1473.5254 1471.3469,1473.5254 Q1471.7219,1473.5254 1471.9563,1473.791 Q1472.1906,1474.0566 1472.1906,1474.666 L1472.1906,1477.291 L1464.1906,1477.291 Q1463.5656,1477.291 1463.3,1477.0566 Q1463.05,1476.8223 1463.05,1476.4316 Q1463.05,1476.0566 1463.3156,1475.8223 Q1463.5813,1475.5879 1464.1906,1475.5879 L1464.4563,1475.5879 L1464.4563,1468.9316 L1464.1906,1468.9316 Q1463.5656,1468.9316 1463.3,1468.6973 Q1463.05,1468.4629 1463.05,1468.0723 Q1463.05,1467.6973 1463.3,1467.4629 Q1463.5656,1467.2285 1464.1906,1467.2285 L1471.8156,1467.2285 L1471.8156,1469.8223 Q1471.8156,1470.4316 1471.5813,1470.6973 Q1471.3625,1470.9473 1470.9719,1470.9473 Q1470.5969,1470.9473 1470.3625,1470.6973 Q1470.1281,1470.4316 1470.1281,1469.8223 L1470.1281,1468.9316 L1466.1594,1468.9316 L1466.1594,1471.3848 L1467.6438,1471.3848 Q1467.6438,1470.7285 1467.7688,1470.541 Q1468.0344,1470.1348 1468.5031,1470.1348 Q1468.8781,1470.1348 1469.1125,1470.4004 Q1469.3469,1470.6504 1469.3469,1471.2598 L1469.3469,1473.2285 Q1469.3469,1473.7754 1469.2219,1473.9629 Q1468.9563,1474.3535 1468.5031,1474.3535 Q1468.0344,1474.3535 1467.7688,1473.9473 Q1467.6438,1473.7598 1467.6438,1473.0879 L1466.1594,1473.0879 Z " fill="#000000"/><text fill="#000000" font-family="sans-serif" font-size="12" font-style="italic" lengthAdjust="spacing" textLength="84" x="1484.7" y="1467.9492">&#171;enumeration&#187;</text><text fill="#000000" font-family="sans-serif" font-size="14" lengthAdjust="spacing" textLength="36" x="1508.7" y="1486.0684">Roles</text><line style="stroke:#181818;stroke-width:0.5;" x1="1429" x2="1593" y1="1494.582" y2="1494.582"/><line style="stroke:#181818;stroke-width:0.5;" x1="1429" x2="1593" y1="1502.582" y2="1502.582"/><ellipse cx="1439" cy="1517.3926" fill="#84BE84" rx="3" ry="3" style="stroke:#038048;stroke-width:1.0;"/><text fill="#000000" font-family="sans-serif" font-size="14" lengthAdjust="spacing" textLength="50" x="1448" y="1521.6895">Roles():</text><ellipse cx="1439" cy="1536.0137" fill="#84BE84" rx="3" ry="3" style="stroke:#038048;stroke-width:1.0;"/><text fill="#000000" font-family="sans-serif" font-size="14" lengthAdjust="spacing" textLength="103" x="1448" y="1540.3105">values(): Roles[]</text><ellipse cx="1439" cy="1554.6348" fill="#84BE84" rx="3" ry="3" style="stroke:#038048;stroke-width:1.0;"/><text fill="#000000" font-family="sans-serif" font-size="14" lengthAdjust="spacing" textLength="140" x="1448" y="1558.9316">valueOf(String): Roles</text></g><!--class visitRequest--><g id="elem_visitRequest"><rect codeLine="88" fill="#F1F1F1" height="234.2109" id="visitRequest" rx="2.5" ry="2.5" style="stroke:#181818;stroke-width:0.5;" width="219" x="773.5" y="1031.5"/><ellipse cx="840.25" cy="1047.5" fill="#ADD1B2" rx="11" ry="11" style="stroke:#181818;stroke-width:1.0;"/><path d="M843.0156,1043.375 Q843.1719,1043.1563 843.3594,1043.0469 Q843.5469,1042.9375 843.7656,1042.9375 Q844.1406,1042.9375 844.375,1043.2031 Q844.6094,1043.4531 844.6094,1044.0625 L844.6094,1045.5156 Q844.6094,1046.125 844.375,1046.3906 Q844.1406,1046.6563 843.7656,1046.6563 Q843.4219,1046.6563 843.2188,1046.4531 Q843.0156,1046.2656 842.9063,1045.75 Q842.8594,1045.3906 842.6719,1045.2031 Q842.3438,1044.8281 841.7344,1044.6094 Q841.125,1044.3906 840.5,1044.3906 Q839.7344,1044.3906 839.0938,1044.7188 Q838.4688,1045.0469 837.9688,1045.7969 Q837.4844,1046.5469 837.4844,1047.5781 L837.4844,1048.6719 Q837.4844,1049.9063 838.375,1050.7344 Q839.2656,1051.5469 840.8594,1051.5469 Q841.7969,1051.5469 842.4531,1051.2969 Q842.8438,1051.1406 843.2656,1050.7031 Q843.5313,1050.4375 843.6719,1050.3594 Q843.8281,1050.2813 844.0313,1050.2813 Q844.3594,1050.2813 844.6094,1050.5469 Q844.875,1050.7969 844.875,1051.1406 Q844.875,1051.4844 844.5313,1051.8906 Q844.0313,1052.4688 843.2344,1052.7969 Q842.1563,1053.25 840.8594,1053.25 Q839.3438,1053.25 838.1406,1052.625 Q837.1563,1052.125 836.4688,1051.0625 Q835.7813,1049.9844 835.7813,1048.7031 L835.7813,1047.5469 Q835.7813,1046.2188 836.3906,1045.0781 Q837.0156,1043.9219 838.1094,1043.3125 Q839.2031,1042.6875 840.4375,1042.6875 Q841.1719,1042.6875 841.8125,1042.8594 Q842.4688,1043.0156 843.0156,1043.375 Z " fill="#000000"/><text fill="#000000" font-family="sans-serif" font-size="14" lengthAdjust="spacing" textLength="77" x="860.75" y="1053.2969">visitRequest</text><line style="stroke:#181818;stroke-width:0.5;" x1="774.5" x2="991.5" y1="1063.5" y2="1063.5"/><rect fill="none" height="6" style="stroke:#C82930;stroke-width:1.0;" width="6" x="781.5" y="1075.3105"/><text fill="#000000" font-family="sans-serif" font-size="14" lengthAdjust="spacing" textLength="76" x="793.5" y="1082.6074">String name</text><rect fill="none" height="6" style="stroke:#C82930;stroke-width:1.0;" width="6" x="781.5" y="1093.9316"/><text fill="#000000" font-family="sans-serif" font-size="14" lengthAdjust="spacing" textLength="74" x="793.5" y="1101.2285">String email</text><rect fill="none" height="6" style="stroke:#C82930;stroke-width:1.0;" width="6" x="781.5" y="1112.5527"/><text fill="#000000" font-family="sans-serif" font-size="14" lengthAdjust="spacing" textLength="59" x="793.5" y="1119.8496">int phone</text><rect fill="none" height="6" style="stroke:#C82930;stroke-width:1.0;" width="6" x="781.5" y="1131.1738"/><text fill="#000000" font-family="sans-serif" font-size="14" lengthAdjust="spacing" textLength="69" x="793.5" y="1138.4707">String date</text><rect fill="none" height="6" style="stroke:#C82930;stroke-width:1.0;" width="6" x="781.5" y="1149.7949"/><text fill="#000000" font-family="sans-serif" font-size="14" lengthAdjust="spacing" textLength="193" x="793.5" y="1157.0918">Announcement announcement</text><ellipse cx="784.5" cy="1171.416" fill="none" rx="3" ry="3" style="stroke:#038048;stroke-width:1.0;"/><text fill="#000000" font-family="sans-serif" font-size="14" lengthAdjust="spacing" textLength="55" x="793.5" y="1175.7129">setName</text><ellipse cx="784.5" cy="1190.0371" fill="none" rx="3" ry="3" style="stroke:#038048;stroke-width:1.0;"/><text fill="#000000" font-family="sans-serif" font-size="14" lengthAdjust="spacing" textLength="53" x="793.5" y="1194.334">setEmail</text><ellipse cx="784.5" cy="1208.6582" fill="none" rx="3" ry="3" style="stroke:#038048;stroke-width:1.0;"/><text fill="#000000" font-family="sans-serif" font-size="14" lengthAdjust="spacing" textLength="60" x="793.5" y="1212.9551">setPhone</text><ellipse cx="784.5" cy="1227.2793" fill="none" rx="3" ry="3" style="stroke:#038048;stroke-width:1.0;"/><text fill="#000000" font-family="sans-serif" font-size="14" lengthAdjust="spacing" textLength="49" x="793.5" y="1231.5762">setDate</text><ellipse cx="784.5" cy="1245.9004" fill="none" rx="3" ry="3" style="stroke:#038048;stroke-width:1.0;"/><text fill="#000000" font-family="sans-serif" font-size="14" lengthAdjust="spacing" textLength="73" x="793.5" y="1250.1973">setProperty</text><line style="stroke:#181818;stroke-width:0.5;" x1="774.5" x2="991.5" y1="1257.7109" y2="1257.7109"/></g><!--class visitRequestDTO--><g id="elem_visitRequestDTO"><rect codeLine="101" fill="#F1F1F1" height="234.2109" id="visitRequestDTO" rx="2.5" ry="2.5" style="stroke:#181818;stroke-width:0.5;" width="249" x="1027.5" y="1031.5"/><ellipse cx="1094.25" cy="1047.5" fill="#ADD1B2" rx="11" ry="11" style="stroke:#181818;stroke-width:1.0;"/><path d="M1097.0156,1043.375 Q1097.1719,1043.1563 1097.3594,1043.0469 Q1097.5469,1042.9375 1097.7656,1042.9375 Q1098.1406,1042.9375 1098.375,1043.2031 Q1098.6094,1043.4531 1098.6094,1044.0625 L1098.6094,1045.5156 Q1098.6094,1046.125 1098.375,1046.3906 Q1098.1406,1046.6563 1097.7656,1046.6563 Q1097.4219,1046.6563 1097.2188,1046.4531 Q1097.0156,1046.2656 1096.9063,1045.75 Q1096.8594,1045.3906 1096.6719,1045.2031 Q1096.3438,1044.8281 1095.7344,1044.6094 Q1095.125,1044.3906 1094.5,1044.3906 Q1093.7344,1044.3906 1093.0938,1044.7188 Q1092.4688,1045.0469 1091.9688,1045.7969 Q1091.4844,1046.5469 1091.4844,1047.5781 L1091.4844,1048.6719 Q1091.4844,1049.9063 1092.375,1050.7344 Q1093.2656,1051.5469 1094.8594,1051.5469 Q1095.7969,1051.5469 1096.4531,1051.2969 Q1096.8438,1051.1406 1097.2656,1050.7031 Q1097.5313,1050.4375 1097.6719,1050.3594 Q1097.8281,1050.2813 1098.0313,1050.2813 Q1098.3594,1050.2813 1098.6094,1050.5469 Q1098.875,1050.7969 1098.875,1051.1406 Q1098.875,1051.4844 1098.5313,1051.8906 Q1098.0313,1052.4688 1097.2344,1052.7969 Q1096.1563,1053.25 1094.8594,1053.25 Q1093.3438,1053.25 1092.1406,1052.625 Q1091.1563,1052.125 1090.4688,1051.0625 Q1089.7813,1049.9844 1089.7813,1048.7031 L1089.7813,1047.5469 Q1089.7813,1046.2188 1090.3906,1045.0781 Q1091.0156,1043.9219 1092.1094,1043.3125 Q1093.2031,1042.6875 1094.4375,1042.6875 Q1095.1719,1042.6875 1095.8125,1042.8594 Q1096.4688,1043.0156 1097.0156,1043.375 Z " fill="#000000"/><text fill="#000000" font-family="sans-serif" font-size="14" lengthAdjust="spacing" textLength="107" x="1114.75" y="1053.2969">visitRequestDTO</text><line style="stroke:#181818;stroke-width:0.5;" x1="1028.5" x2="1275.5" y1="1063.5" y2="1063.5"/><rect fill="none" height="6" style="stroke:#C82930;stroke-width:1.0;" width="6" x="1035.5" y="1075.3105"/><text fill="#000000" font-family="sans-serif" font-size="14" lengthAdjust="spacing" textLength="76" x="1047.5" y="1082.6074">String name</text><rect fill="none" height="6" style="stroke:#C82930;stroke-width:1.0;" width="6" x="1035.5" y="1093.9316"/><text fill="#000000" font-family="sans-serif" font-size="14" lengthAdjust="spacing" textLength="74" x="1047.5" y="1101.2285">String email</text><rect fill="none" height="6" style="stroke:#C82930;stroke-width:1.0;" width="6" x="1035.5" y="1112.5527"/><text fill="#000000" font-family="sans-serif" font-size="14" lengthAdjust="spacing" textLength="59" x="1047.5" y="1119.8496">int phone</text><rect fill="none" height="6" style="stroke:#C82930;stroke-width:1.0;" width="6" x="1035.5" y="1131.1738"/><text fill="#000000" font-family="sans-serif" font-size="14" lengthAdjust="spacing" textLength="69" x="1047.5" y="1138.4707">String date</text><rect fill="none" height="6" style="stroke:#C82930;stroke-width:1.0;" width="6" x="1035.5" y="1149.7949"/><text fill="#000000" font-family="sans-serif" font-size="14" lengthAdjust="spacing" textLength="223" x="1047.5" y="1157.0918">AnnouncementDTO announcement</text><ellipse cx="1038.5" cy="1171.416" fill="none" rx="3" ry="3" style="stroke:#038048;stroke-width:1.0;"/><text fill="#000000" font-family="sans-serif" font-size="14" lengthAdjust="spacing" textLength="55" x="1047.5" y="1175.7129">setName</text><ellipse cx="1038.5" cy="1190.0371" fill="none" rx="3" ry="3" style="stroke:#038048;stroke-width:1.0;"/><text fill="#000000" font-family="sans-serif" font-size="14" lengthAdjust="spacing" textLength="53" x="1047.5" y="1194.334">setEmail</text><ellipse cx="1038.5" cy="1208.6582" fill="none" rx="3" ry="3" style="stroke:#038048;stroke-width:1.0;"/><text fill="#000000" font-family="sans-serif" font-size="14" lengthAdjust="spacing" textLength="60" x="1047.5" y="1212.9551">setPhone</text><ellipse cx="1038.5" cy="1227.2793" fill="none" rx="3" ry="3" style="stroke:#038048;stroke-width:1.0;"/><text fill="#000000" font-family="sans-serif" font-size="14" lengthAdjust="spacing" textLength="49" x="1047.5" y="1231.5762">setDate</text><ellipse cx="1038.5" cy="1245.9004" fill="none" rx="3" ry="3" style="stroke:#038048;stroke-width:1.0;"/><text fill="#000000" font-family="sans-serif" font-size="14" lengthAdjust="spacing" textLength="73" x="1047.5" y="1250.1973">setProperty</text><line style="stroke:#181818;stroke-width:0.5;" x1="1028.5" x2="1275.5" y1="1257.7109" y2="1257.7109"/></g><!--class visitRequestMapper--><g id="elem_visitRequestMapper"><rect codeLine="114" fill="#F1F1F1" height="85.2422" id="visitRequestMapper" rx="2.5" ry="2.5" style="stroke:#181818;stroke-width:0.5;" width="235" x="1004.5" y="793"/><ellipse cx="1055.25" cy="809" fill="#ADD1B2" rx="11" ry="11" style="stroke:#181818;stroke-width:1.0;"/><path d="M1058.0156,804.875 Q1058.1719,804.6563 1058.3594,804.5469 Q1058.5469,804.4375 1058.7656,804.4375 Q1059.1406,804.4375 1059.375,804.7031 Q1059.6094,804.9531 1059.6094,805.5625 L1059.6094,807.0156 Q1059.6094,807.625 1059.375,807.8906 Q1059.1406,808.1563 1058.7656,808.1563 Q1058.4219,808.1563 1058.2188,807.9531 Q1058.0156,807.7656 1057.9063,807.25 Q1057.8594,806.8906 1057.6719,806.7031 Q1057.3438,806.3281 1056.7344,806.1094 Q1056.125,805.8906 1055.5,805.8906 Q1054.7344,805.8906 1054.0938,806.2188 Q1053.4688,806.5469 1052.9688,807.2969 Q1052.4844,808.0469 1052.4844,809.0781 L1052.4844,810.1719 Q1052.4844,811.4063 1053.375,812.2344 Q1054.2656,813.0469 1055.8594,813.0469 Q1056.7969,813.0469 1057.4531,812.7969 Q1057.8438,812.6406 1058.2656,812.2031 Q1058.5313,811.9375 1058.6719,811.8594 Q1058.8281,811.7813 1059.0313,811.7813 Q1059.3594,811.7813 1059.6094,812.0469 Q1059.875,812.2969 1059.875,812.6406 Q1059.875,812.9844 1059.5313,813.3906 Q1059.0313,813.9688 1058.2344,814.2969 Q1057.1563,814.75 1055.8594,814.75 Q1054.3438,814.75 1053.1406,814.125 Q1052.1563,813.625 1051.4688,812.5625 Q1050.7813,811.4844 1050.7813,810.2031 L1050.7813,809.0469 Q1050.7813,807.7188 1051.3906,806.5781 Q1052.0156,805.4219 1053.1094,804.8125 Q1054.2031,804.1875 1055.4375,804.1875 Q1056.1719,804.1875 1056.8125,804.3594 Q1057.4688,804.5156 1058.0156,804.875 Z " fill="#000000"/><text fill="#000000" font-family="sans-serif" font-size="14" lengthAdjust="spacing" textLength="125" x="1075.75" y="814.7969">visitRequestMapper</text><line style="stroke:#181818;stroke-width:0.5;" x1="1005.5" x2="1238.5" y1="825" y2="825"/><line style="stroke:#181818;stroke-width:0.5;" x1="1005.5" x2="1238.5" y1="833" y2="833"/><ellipse cx="1015.5" cy="847.8105" fill="#84BE84" rx="3" ry="3" style="stroke:#038048;stroke-width:1.0;"/><text fill="#000000" font-family="sans-serif" font-size="14" lengthAdjust="spacing" textLength="161" x="1024.5" y="852.1074">mapToDTO(visitRequest)</text><ellipse cx="1015.5" cy="866.4316" fill="#84BE84" rx="3" ry="3" style="stroke:#038048;stroke-width:1.0;"/><text fill="#000000" font-family="sans-serif" font-size="14" lengthAdjust="spacing" textLength="209" x="1024.5" y="870.7285">mapToDomain(visitRequestDTO)</text></g><!--class EmployeeProject--><g id="elem_EmployeeProject"><rect codeLine="122" fill="#F1F1F1" height="178.3477" id="EmployeeProject" rx="2.5" ry="2.5" style="stroke:#181818;stroke-width:0.5;" width="583" x="591.5" y="1419"/><ellipse cx="825.75" cy="1435" fill="#ADD1B2" rx="11" ry="11" style="stroke:#181818;stroke-width:1.0;"/><path d="M828.5156,1430.875 Q828.6719,1430.6563 828.8594,1430.5469 Q829.0469,1430.4375 829.2656,1430.4375 Q829.6406,1430.4375 829.875,1430.7031 Q830.1094,1430.9531 830.1094,1431.5625 L830.1094,1433.0156 Q830.1094,1433.625 829.875,1433.8906 Q829.6406,1434.1563 829.2656,1434.1563 Q828.9219,1434.1563 828.7188,1433.9531 Q828.5156,1433.7656 828.4063,1433.25 Q828.3594,1432.8906 828.1719,1432.7031 Q827.8438,1432.3281 827.2344,1432.1094 Q826.625,1431.8906 826,1431.8906 Q825.2344,1431.8906 824.5938,1432.2188 Q823.9688,1432.5469 823.4688,1433.2969 Q822.9844,1434.0469 822.9844,1435.0781 L822.9844,1436.1719 Q822.9844,1437.4063 823.875,1438.2344 Q824.7656,1439.0469 826.3594,1439.0469 Q827.2969,1439.0469 827.9531,1438.7969 Q828.3438,1438.6406 828.7656,1438.2031 Q829.0313,1437.9375 829.1719,1437.8594 Q829.3281,1437.7813 829.5313,1437.7813 Q829.8594,1437.7813 830.1094,1438.0469 Q830.375,1438.2969 830.375,1438.6406 Q830.375,1438.9844 830.0313,1439.3906 Q829.5313,1439.9688 828.7344,1440.2969 Q827.6563,1440.75 826.3594,1440.75 Q824.8438,1440.75 823.6406,1440.125 Q822.6563,1439.625 821.9688,1438.5625 Q821.2813,1437.4844 821.2813,1436.2031 L821.2813,1435.0469 Q821.2813,1433.7188 821.8906,1432.5781 Q822.5156,1431.4219 823.6094,1430.8125 Q824.7031,1430.1875 825.9375,1430.1875 Q826.6719,1430.1875 827.3125,1430.3594 Q827.9688,1430.5156 828.5156,1430.875 Z " fill="#000000"/><text fill="#000000" font-family="sans-serif" font-size="14" lengthAdjust="spacing" textLength="106" x="846.25" y="1440.7969">EmployeeProject</text><line style="stroke:#181818;stroke-width:0.5;" x1="592.5" x2="1173.5" y1="1451" y2="1451"/><rect fill="none" height="6" style="stroke:#C82930;stroke-width:1.0;" width="6" x="599.5" y="1462.8105"/><text fill="#000000" font-family="sans-serif" font-size="14" lengthAdjust="spacing" textLength="61" x="611.5" y="1470.1074">salary: int</text><text fill="#000000" font-family="sans-serif" font-size="14" lengthAdjust="spacing" textLength="61" x="611.5" y="1488.7285">salary: int</text><line style="stroke:#181818;stroke-width:0.5;" x1="592.5" x2="1173.5" y1="1496.2422" y2="1496.2422"/><ellipse cx="602.5" cy="1511.0527" fill="#84BE84" rx="3" ry="3" style="stroke:#038048;stroke-width:1.0;"/><text fill="#000000" font-family="sans-serif" font-size="14" lengthAdjust="spacing" textLength="522" x="611.5" y="1515.3496">EmployeeProject(String, String, int, String, String, String, String, Roles[], int, Store):</text><rect fill="#F24D5C" height="6" style="stroke:#C82930;stroke-width:1.0;" width="6" x="599.5" y="1526.6738"/><text fill="#000000" font-family="sans-serif" font-size="14" lengthAdjust="spacing" textLength="180" x="611.5" y="1533.9707">validateTaxNumber(int): void</text><rect fill="#F24D5C" height="6" style="stroke:#C82930;stroke-width:1.0;" width="6" x="599.5" y="1545.2949"/><text fill="#000000" font-family="sans-serif" font-size="14" lengthAdjust="spacing" textLength="161" x="611.5" y="1552.5918">validateStore(Store): void</text><rect fill="#F24D5C" height="6" style="stroke:#C82930;stroke-width:1.0;" width="6" x="599.5" y="1563.916"/><text fill="#000000" font-family="sans-serif" font-size="14" lengthAdjust="spacing" textLength="557" x="611.5" y="1571.2129">validateEmployee(String, String, int, String, String, String, String, Roles[], int, Store): void</text><rect fill="#F24D5C" height="6" style="stroke:#C82930;stroke-width:1.0;" width="6" x="599.5" y="1582.5371"/><text fill="#000000" font-family="sans-serif" font-size="14" lengthAdjust="spacing" textLength="148" x="611.5" y="1589.834">validateSalary(int): void</text></g><!--reverse link User to EmployeeProject--><g id="link_User_EmployeeProject"><path d="M1296.7,1337.63 C1294.94,1339.17 1294,1340 1294,1340 C1294,1340 1198.54,1378.79 1099.63,1418.98 " fill="none" id="User-backto-EmployeeProject" style="stroke:#181818;stroke-width:1.0;"/><polygon fill="none" points="1292.11,1332.34,1311.76,1324.41,1301.35,1342.87,1292.11,1332.34" style="stroke:#181818;stroke-width:1.0;"/></g><!--link MessageVisitRequestController to Repositories--><g id="link_MessageVisitRequestController_Repositories"><path codeLine="131" d="M452.12,152 C482.74,152 516.6,152 549.93,152 " fill="none" id="MessageVisitRequestController-to-Repositories" style="stroke:#181818;stroke-width:1.0;stroke-dasharray:7.0,7.0;"/><polygon fill="#181818" points="555.28,152,546.28,148,550.28,152,546.28,156,555.28,152" style="stroke:#181818;stroke-width:1.0;"/><text fill="#000000" font-family="sans-serif" font-size="13" lengthAdjust="spacing" textLength="67" x="470.25" y="145.0283">repositories</text></g><!--link MessageVisitRequestUI to MessageVisitRequestController--><g id="link_MessageVisitRequestUI_MessageVisitRequestController"><path codeLine="132" d="M187.13,152 C194.79,152 205.84,152 216.9,152 " fill="none" id="MessageVisitRequestUI-to-MessageVisitRequestController" style="stroke:#181818;stroke-width:1.0;stroke-dasharray:7.0,7.0;"/><polygon fill="#181818" points="221.97,152,212.97,148,216.97,152,212.97,156,221.97,152" style="stroke:#181818;stroke-width:1.0;"/></g><!--link Repositories to StoreRepository--><g id="link_Repositories_StoreRepository"><path codeLine="133" d="M730.68,297.24 C728.35,375.01 725.52,469.56 723.36,541.78 " fill="none" id="Repositories-to-StoreRepository" style="stroke:#181818;stroke-width:1.0;"/><polygon fill="#181818" points="723.21,546.94,727.4661,538.0583,723.3532,541.9421,719.4694,537.8291,723.21,546.94" style="stroke:#181818;stroke-width:1.0;"/><polygon fill="#000000" points="734.8504,341.6433,738.0586,332.6902,732.1834,332.5143,734.8504,341.6433" style="stroke:#000000;stroke-width:1.0;"/><text fill="#000000" font-family="sans-serif" font-size="13" lengthAdjust="spacing" textLength="21" x="744" y="342.0283">has</text><text fill="#000000" font-family="sans-serif" font-size="13" lengthAdjust="spacing" textLength="7" x="723.2768" y="319.2011">1</text><text fill="#000000" font-family="sans-serif" font-size="13" lengthAdjust="spacing" textLength="5" x="718.2599" y="535.7973">*</text></g><!--link Repositories to VisitRequestRepository--><g id="link_Repositories_VisitRequestRepository"><path codeLine="134" d="M914.52,294.54 C953.45,325.23 992.72,356.19 1025.48,382.02 " fill="none" id="Repositories-to-VisitRequestRepository" style="stroke:#181818;stroke-width:1.0;"/><polygon fill="#181818" points="1029.45,385.14,1024.843,376.4351,1025.5179,382.0515,1019.9015,382.7264,1029.45,385.14" style="stroke:#181818;stroke-width:1.0;"/><polygon fill="#000000" points="984.9265,339.7411,979.643,331.8332,976.0039,336.449,984.9265,339.7411" style="stroke:#000000;stroke-width:1.0;"/><text fill="#000000" font-family="sans-serif" font-size="13" lengthAdjust="spacing" textLength="21" x="990" y="342.0283">has</text><text fill="#000000" font-family="sans-serif" font-size="13" lengthAdjust="spacing" textLength="7" x="922.2412" y="297.2277">1</text><text fill="#000000" font-family="sans-serif" font-size="13" lengthAdjust="spacing" textLength="5" x="1015.3098" y="374.0796">*</text></g><!--link Repositories to MessageRepository--><g id="link_Repositories_MessageRepository"><path codeLine="135" d="M650.26,297.11 C635.16,322.79 620,348.57 606.66,371.26 " fill="none" id="Repositories-to-MessageRepository" style="stroke:#181818;stroke-width:1.0;"/><polygon fill="#181818" points="604.01,375.76,612.0201,370.0295,606.5445,371.45,605.124,365.9743,604.01,375.76" style="stroke:#181818;stroke-width:1.0;"/><polygon fill="#000000" points="631.4657,340.9556,638.5837,334.6482,633.5169,331.6689,631.4657,340.9556" style="stroke:#000000;stroke-width:1.0;"/><text fill="#000000" font-family="sans-serif" font-size="13" lengthAdjust="spacing" textLength="21" x="643" y="342.0283">has</text><text fill="#000000" font-family="sans-serif" font-size="13" lengthAdjust="spacing" textLength="7" x="638.7101" y="319.0644">1</text><text fill="#000000" font-family="sans-serif" font-size="13" lengthAdjust="spacing" textLength="5" x="602.9813" y="364.6263">*</text></g><!--link VisitRequestRepository to visitRequestMapper--><g id="link_VisitRequestRepository_visitRequestMapper"><path codeLine="136" d="M1108.48,507.54 C1111.67,584.72 1117.15,717.13 1120.05,787.43 " fill="none" id="VisitRequestRepository-to-visitRequestMapper" style="stroke:#181818;stroke-width:1.0;"/><polygon fill="#181818" points="1120.28,792.8,1123.891,783.637,1120.0659,787.8046,1115.8983,783.9795,1120.28,792.8" style="stroke:#181818;stroke-width:1.0;"/><polygon fill="#000000" points="1124.2065,660.1412,1126.7693,650.9825,1120.8965,651.2253,1124.2065,660.1412" style="stroke:#000000;stroke-width:1.0;"/><text fill="#000000" font-family="sans-serif" font-size="13" lengthAdjust="spacing" textLength="30" x="1133" y="660.5283">Uses</text><text fill="#000000" font-family="sans-serif" font-size="13" lengthAdjust="spacing" textLength="7" x="1101.3557" y="530.0317">1</text><text fill="#000000" font-family="sans-serif" font-size="13" lengthAdjust="spacing" textLength="5" x="1114.6074" y="781.6722">*</text></g><!--link visitRequestMapper to visitRequestDTO--><g id="link_visitRequestMapper_visitRequestDTO"><path codeLine="137" d="M1126.01,878.12 C1129.67,916.04 1135.26,973.96 1140.32,1026.4 " fill="none" id="visitRequestMapper-to-visitRequestDTO" style="stroke:#181818;stroke-width:1.0;"/><polygon fill="#181818" points="1140.81,1031.45,1143.945,1022.1134,1140.3393,1026.4722,1135.9805,1022.8665,1140.81,1031.45" style="stroke:#181818;stroke-width:1.0;"/><polygon fill="#000000" points="1136.4803,922.6224,1138.5368,913.3368,1132.6861,913.9014,1136.4803,922.6224" style="stroke:#000000;stroke-width:1.0;"/><text fill="#000000" font-family="sans-serif" font-size="13" lengthAdjust="spacing" textLength="43" x="1145" y="923.0283">creates</text><text fill="#000000" font-family="sans-serif" font-size="13" lengthAdjust="spacing" textLength="7" x="1119.0913" y="900.2995">1</text><text fill="#000000" font-family="sans-serif" font-size="13" lengthAdjust="spacing" textLength="5" x="1134.8902" y="1020.0456">*</text></g><!--link visitRequestMapper to visitRequest--><g id="link_visitRequestMapper_visitRequest"><path codeLine="138" d="M1034.16,878.09 C1000.94,893.82 971,908 971,908 C971,908 949.37,966.88 927.55,1026.25 " fill="none" id="visitRequestMapper-to-visitRequest" style="stroke:#181818;stroke-width:1.0;"/><polygon fill="#181818" points="925.71,1031.26,932.5707,1024.1939,927.4359,1026.5673,925.0624,1021.4325,925.71,1031.26" style="stroke:#181818;stroke-width:1.0;"/><text fill="#000000" font-family="sans-serif" font-size="13" lengthAdjust="spacing" textLength="149" x="972" y="923.0283">transformsDTO to object&gt;</text><text fill="#000000" font-family="sans-serif" font-size="13" lengthAdjust="spacing" textLength="7" x="1012.6027" y="900.2647">1</text><text fill="#000000" font-family="sans-serif" font-size="13" lengthAdjust="spacing" textLength="5" x="923.286" y="1020.2357">*</text></g><!--link visitRequest to EmployeeProject--><g id="link_visitRequest_EmployeeProject"><path codeLine="139" d="M883,1265.57 C883,1313.57 883,1368.47 883,1413.78 " fill="none" id="visitRequest-to-EmployeeProject" style="stroke:#181818;stroke-width:1.0;"/><polygon fill="#181818" points="883,1418.98,887,1409.98,883,1413.98,879,1409.98,883,1418.98" style="stroke:#181818;stroke-width:1.0;"/><polygon fill="#000000" points="888,1384.6455,890.9389,1375.6004,885.0611,1375.6004,888,1384.6455" style="stroke:#000000;stroke-width:1.0;"/><text fill="#000000" font-family="sans-serif" font-size="13" lengthAdjust="spacing" textLength="138" x="897" y="1385.0283">has a agent responsible</text><text fill="#000000" font-family="sans-serif" font-size="13" lengthAdjust="spacing" textLength="7" x="875.7758" y="1287.6452">1</text><text fill="#000000" font-family="sans-serif" font-size="13" lengthAdjust="spacing" textLength="5" x="877.7852" y="1407.6253">*</text></g><!--link User to Roles--><g id="link_User_Roles"><path codeLine="140" d="M1511,1340.03 C1511,1377.97 1511,1415.21 1511,1444.85 " fill="none" id="User-to-Roles" style="stroke:#181818;stroke-width:1.0;"/><polygon fill="#181818" points="1511,1449.92,1515,1440.92,1511,1444.92,1507,1440.92,1511,1449.92" style="stroke:#181818;stroke-width:1.0;"/><polygon fill="#000000" points="1516,1384.6455,1518.9389,1375.6004,1513.0611,1375.6004,1516,1384.6455" style="stroke:#000000;stroke-width:1.0;"/><text fill="#000000" font-family="sans-serif" font-size="13" lengthAdjust="spacing" textLength="57" x="1525" y="1385.0283">has a role</text><text fill="#000000" font-family="sans-serif" font-size="13" lengthAdjust="spacing" textLength="5" x="1505.8945" y="1362.4994">*</text><text fill="#000000" font-family="sans-serif" font-size="13" lengthAdjust="spacing" textLength="7" x="1503.5734" y="1438.8245">1</text></g><!--link StoreRepository to EmployeeProject--><g id="link_StoreRepository_EmployeeProject"><path codeLine="141" d="M725.64,763.25 C735.78,955.75 756,1340 756,1340 C756,1340 783.29,1375.89 812.57,1414.39 " fill="none" id="StoreRepository-to-EmployeeProject" style="stroke:#181818;stroke-width:1.0;"/><polygon fill="#181818" points="815.78,1418.61,813.5198,1409.024,812.7549,1414.6289,807.15,1413.8641,815.78,1418.61" style="stroke:#181818;stroke-width:1.0;"/><polygon fill="#000000" points="740.6617,922.6015,742.3778,913.2471,736.5516,914.0249,740.6617,922.6015" style="stroke:#000000;stroke-width:1.0;"/><text fill="#000000" font-family="sans-serif" font-size="13" lengthAdjust="spacing" textLength="92" x="749" y="923.0283">has a employee</text><text fill="#000000" font-family="sans-serif" font-size="13" lengthAdjust="spacing" textLength="7" x="718.7771" y="784.7801">1</text><text fill="#000000" font-family="sans-serif" font-size="13" lengthAdjust="spacing" textLength="5" x="805.2242" y="1407.8355">*</text></g><!--SRC=[lLTBRnit4Bxlho1qiLH51TBZmbZ0I78mKCU6xVGIv43jZYKsN793SkseGVhREtpjSXzobBJfHHBdcndEUwWp_P69XYfQareAMUwLh84OrKBM8mqjFz8Tt9a31wAWD5JiUCgWzxIIJqpio0FbEaKu4s0E3P16yeCzP6Spe5H6PebKoQdM5yOejcqDN9PItB6_W2n-MsHd71uCCP8ejjiRKZ5h3vCYSpBa5XgfcP6AWIPVCa8s0z9obIFjRz8esO0oXmuxvEHcGdEij3Lx48QLr5wJ2bmSGPnOoHbYAVkh4SKPnuJ6Q9QG3ypq5miXMuJgaPwBMReJqVWBKjwx8G6Plb_jwS4wxirfuVYnM7_RwwzPg8uhq1eBkOT2YKpeiKvg3_pEjCc9_JmFh0N2QqAhAfoNuNkLaqV9AeVkm5prygXoek4v_PtH8s-SoUinDHhiOg63BiVJMUfEI_VPMxaXZvIpYXgOXTUaL83WcxhXyW0MLzZcBqZyPiBqXsFVjvA3Vl-Xu_PNN3SsbPIVH-LOKtzYCnVEB3GuqkzbOjiBCc9FZPqAtRHRpieJH3a6BCAwozMCQRCXncI5RFt1C26tyAa5RKP9isxDmykLWrt9N8OUMgv8VeIzPqvnNsG1mqx4zapXfQ0rv5rEeAQCzyTcBmMYBa6s6X8aT7gah2RjbDxoxZAukiQb89zcxEj3DIF-IWgZ9EUWllJNl4DNGjNRd_-Y1bsJRAAp7dAKD3QEC0XFB4XCknxG3Ftyjgste5pa7Aa2NRh27d8gUttkhV0se6TFKbK9rnhNcZ_O-kl8O-FcHEUldNWnyNp6gx6fOoSnBI3QskFa_9pO4oWtbqbHX4Gvr0-bjHqnhM-gC0bwwlL3I6S4-xG_9dKH-yVpkeWC2CvHJq4RlPi31blJdf3kkS4oz6MhmRoDsktXJQVPdcuwnVRqEYfrKEYJUGTUtr__71TGyV_dnHLj6jkQZhkcpRt4wvSfnoh59DugbgCm-0aGjOy6B87F1aJbUzvNqeZZFzn0hWyrvTI-6MB_ndLu7wj-YSZ9-xA7VyR6dDhWZ1zQEF3eQ_Ria2M_5iCNSuxF- -JXDZ_WKUXPhTb0vUBbWcms1LdyifWyPNAofveKnmMERDDloaqVUb7aYCPKU5hnA8q5QSLdi6EYjZFpy7xwJb6KCueA_I1LhQqU_ByZj_u5Ck1B5OnRoNjC2SO1vmbE-GQt0zlYNxWYSolL2ZbXLEAdUHInAm2vnkawvJO8T5By0m00]--></g></svg>
