<?xml version="1.0" encoding="us-ascii" standalone="no"?><svg xmlns="http://www.w3.org/2000/svg" xmlns:xlink="http://www.w3.org/1999/xlink" contentStyleType="text/css" height="1465px" preserveAspectRatio="none" style="width:2586px;height:1465px;background:#FFFFFF;" version="1.1" viewBox="0 0 2586 1465" width="2586px" zoomAndPan="magnify"><defs/><g><rect fill="#FFFFFF" height="1270.6309" style="stroke:#181818;stroke-width:1.0;" width="10" x="21.5" y="93.6211"/><rect fill="#FFFFFF" height="31.291" style="stroke:#181818;stroke-width:1.0;" width="10" x="380.5" y="116.9121"/><rect fill="#FFFFFF" height="840.8965" style="stroke:#181818;stroke-width:1.0;" width="10" x="380.5" y="179.4941"/><rect fill="#FFFFFF" height="31.291" style="stroke:#181818;stroke-width:1.0;" width="10" x="380.5" y="1051.6816"/><rect fill="#FFFFFF" height="249.9883" style="stroke:#181818;stroke-width:1.0;" width="10" x="380.5" y="1114.2637"/><rect fill="#FFFFFF" height="734.6934" style="stroke:#181818;stroke-width:1.0;" width="10" x="612.5" y="254.4063"/><rect fill="#FFFFFF" height="187.4063" style="stroke:#181818;stroke-width:1.0;" width="10" x="612.5" y="1145.5547"/><rect fill="#FFFFFF" height="31.291" style="stroke:#181818;stroke-width:1.0;" width="10" x="779" y="598.6074"/><rect fill="#FFFFFF" height="31.291" style="stroke:#181818;stroke-width:1.0;" width="10" x="886" y="473.4434"/><rect fill="#FFFFFF" height="31.291" style="stroke:#181818;stroke-width:1.0;" width="10" x="886" y="661.1895"/><rect fill="#FFFFFF" height="31.291" style="stroke:#181818;stroke-width:1.0;" width="10" x="1013" y="285.6973"/><rect fill="#FFFFFF" height="31.291" style="stroke:#181818;stroke-width:1.0;" width="10" x="1160" y="348.2793"/><rect fill="#FFFFFF" height="31.291" style="stroke:#181818;stroke-width:1.0;" width="10" x="1293" y="410.8613"/><rect fill="#FFFFFF" height="31.291" style="stroke:#181818;stroke-width:1.0;" width="10" x="1431.5" y="536.0254"/><rect fill="#FFFFFF" height="31.291" style="stroke:#181818;stroke-width:1.0;" width="10" x="1587" y="1270.3789"/><rect fill="#FFFFFF" height="52.2422" style="stroke:#181818;stroke-width:1.0;" width="10" x="1719" y="1186.8457"/><rect fill="#FFFFFF" height="93.873" style="stroke:#181818;stroke-width:1.0;" width="10" x="2099.5" y="781.3535"/><rect fill="#FFFFFF" height="234.0371" style="stroke:#181818;stroke-width:1.0;" width="10" x="2328" y="723.7715"/><rect fill="#FFFFFF" height="31.291" style="stroke:#181818;stroke-width:1.0;" width="10" x="2543" y="812.6445"/><rect fill="none" height="144.4551" style="stroke:#000000;stroke-width:1.5;" width="623.5" x="1956.5" y="738.7715"/><line style="stroke:#181818;stroke-width:0.5;stroke-dasharray:5.0,5.0;" x1="26" x2="26" y1="83.6211" y2="1382.252"/><line style="stroke:#181818;stroke-width:0.5;stroke-dasharray:5.0,5.0;" x1="385.5" x2="385.5" y1="83.6211" y2="1382.252"/><line style="stroke:#181818;stroke-width:0.5;stroke-dasharray:5.0,5.0;" x1="617.5" x2="617.5" y1="219.3047" y2="1382.252"/><line style="stroke:#181818;stroke-width:0.5;stroke-dasharray:5.0,5.0;" x1="783.5" x2="783.5" y1="83.6211" y2="1382.252"/><line style="stroke:#181818;stroke-width:0.5;stroke-dasharray:5.0,5.0;" x1="890.5" x2="890.5" y1="83.6211" y2="1382.252"/><line style="stroke:#181818;stroke-width:0.5;stroke-dasharray:5.0,5.0;" x1="1017.5" x2="1017.5" y1="83.6211" y2="1382.252"/><line style="stroke:#181818;stroke-width:0.5;stroke-dasharray:5.0,5.0;" x1="1164.5" x2="1164.5" y1="83.6211" y2="1382.252"/><line style="stroke:#181818;stroke-width:0.5;stroke-dasharray:5.0,5.0;" x1="1297.5" x2="1297.5" y1="83.6211" y2="1382.252"/><line style="stroke:#181818;stroke-width:0.5;stroke-dasharray:5.0,5.0;" x1="1436.5" x2="1436.5" y1="83.6211" y2="1382.252"/><line style="stroke:#181818;stroke-width:0.5;stroke-dasharray:5.0,5.0;" x1="1591.5" x2="1591.5" y1="83.6211" y2="1382.252"/><line style="stroke:#181818;stroke-width:0.5;stroke-dasharray:5.0,5.0;" x1="1723.5" x2="1723.5" y1="1194.6758" y2="1382.252"/><line style="stroke:#181818;stroke-width:0.5;stroke-dasharray:5.0,5.0;" x1="1870.5" x2="1870.5" y1="83.6211" y2="1382.252"/><line style="stroke:#181818;stroke-width:0.5;stroke-dasharray:5.0,5.0;" x1="2104.5" x2="2104.5" y1="83.6211" y2="1382.252"/><line style="stroke:#181818;stroke-width:0.5;stroke-dasharray:5.0,5.0;" x1="2332.5" x2="2332.5" y1="83.6211" y2="1382.252"/><line style="stroke:#181818;stroke-width:0.5;stroke-dasharray:5.0,5.0;" x1="2548" x2="2548" y1="83.6211" y2="1382.252"/><text fill="#000000" font-family="sans-serif" font-size="14" lengthAdjust="spacing" textLength="37" x="5" y="80.1074">Agent</text><ellipse cx="26.5" cy="13.5" fill="#E3E3E3" rx="8" ry="8" style="stroke:#181818;stroke-width:0.5;"/><path d="M26.5,21.5 L26.5,48.5 M13.5,29.5 L39.5,29.5 M26.5,48.5 L13.5,63.5 M26.5,48.5 L39.5,63.5 " fill="none" style="stroke:#181818;stroke-width:0.5;"/><text fill="#000000" font-family="sans-serif" font-size="14" lengthAdjust="spacing" textLength="37" x="5" y="1396.3594">Agent</text><ellipse cx="26.5" cy="1408.373" fill="#E3E3E3" rx="8" ry="8" style="stroke:#181818;stroke-width:0.5;"/><path d="M26.5,1416.373 L26.5,1443.373 M13.5,1424.373 L39.5,1424.373 M26.5,1443.373 L13.5,1458.373 M26.5,1443.373 L39.5,1458.373 " fill="none" style="stroke:#181818;stroke-width:0.5;"/><rect fill="#E3E3E3" height="32.6211" rx="2.5" ry="2.5" style="stroke:#181818;stroke-width:0.5;" width="166" x="302.5" y="50"/><text fill="#000000" font-family="sans-serif" font-size="14" lengthAdjust="spacing" textLength="152" x="309.5" y="72.1074">:MessageVisitRequestUI</text><rect fill="#E3E3E3" height="32.6211" rx="2.5" ry="2.5" style="stroke:#181818;stroke-width:0.5;" width="166" x="302.5" y="1381.252"/><text fill="#000000" font-family="sans-serif" font-size="14" lengthAdjust="spacing" textLength="152" x="309.5" y="1403.3594">:MessageVisitRequestUI</text><rect fill="#E3E3E3" height="32.6211" rx="2.5" ry="2.5" style="stroke:#181818;stroke-width:0.5;" width="216" x="509.5" y="1381.252"/><text fill="#000000" font-family="sans-serif" font-size="14" lengthAdjust="spacing" textLength="202" x="516.5" y="1403.3594">:MessageVisitRequestController</text><rect fill="#E3E3E3" height="32.6211" rx="2.5" ry="2.5" style="stroke:#181818;stroke-width:0.5;" width="97" x="735.5" y="50"/><text fill="#000000" font-family="sans-serif" font-size="14" lengthAdjust="spacing" textLength="83" x="742.5" y="72.1074">:Repositories</text><rect fill="#E3E3E3" height="32.6211" rx="2.5" ry="2.5" style="stroke:#181818;stroke-width:0.5;" width="97" x="735.5" y="1381.252"/><text fill="#000000" font-family="sans-serif" font-size="14" lengthAdjust="spacing" textLength="83" x="742.5" y="1403.3594">:Repositories</text><rect fill="#E3E3E3" height="51.2422" rx="2.5" ry="2.5" style="stroke:#181818;stroke-width:0.5;" width="97" x="842.5" y="31.3789"/><text fill="#000000" font-family="sans-serif" font-size="14" lengthAdjust="spacing" textLength="74" x="854" y="53.4863">repositories</text><text fill="#000000" font-family="sans-serif" font-size="14" lengthAdjust="spacing" textLength="83" x="849.5" y="72.1074">:Repositories</text><rect fill="#E3E3E3" height="51.2422" rx="2.5" ry="2.5" style="stroke:#181818;stroke-width:0.5;" width="97" x="842.5" y="1381.252"/><text fill="#000000" font-family="sans-serif" font-size="14" lengthAdjust="spacing" textLength="74" x="854" y="1403.3594">repositories</text><text fill="#000000" font-family="sans-serif" font-size="14" lengthAdjust="spacing" textLength="83" x="849.5" y="1421.9805">:Repositories</text><rect fill="#E3E3E3" height="32.6211" rx="2.5" ry="2.5" style="stroke:#181818;stroke-width:0.5;" width="137" x="949.5" y="50"/><text fill="#000000" font-family="sans-serif" font-size="14" lengthAdjust="spacing" textLength="123" x="956.5" y="72.1074">:ApplicationSession</text><rect fill="#E3E3E3" height="32.6211" rx="2.5" ry="2.5" style="stroke:#181818;stroke-width:0.5;" width="137" x="949.5" y="1381.252"/><text fill="#000000" font-family="sans-serif" font-size="14" lengthAdjust="spacing" textLength="123" x="956.5" y="1403.3594">:ApplicationSession</text><rect fill="#E3E3E3" height="51.2422" rx="2.5" ry="2.5" style="stroke:#181818;stroke-width:0.5;" width="137" x="1096.5" y="31.3789"/><text fill="#000000" font-family="sans-serif" font-size="14" lengthAdjust="spacing" textLength="74" x="1128" y="53.4863">appSession</text><text fill="#000000" font-family="sans-serif" font-size="14" lengthAdjust="spacing" textLength="123" x="1103.5" y="72.1074">:ApplicationSession</text><rect fill="#E3E3E3" height="51.2422" rx="2.5" ry="2.5" style="stroke:#181818;stroke-width:0.5;" width="137" x="1096.5" y="1381.252"/><text fill="#000000" font-family="sans-serif" font-size="14" lengthAdjust="spacing" textLength="74" x="1128" y="1403.3594">appSession</text><text fill="#000000" font-family="sans-serif" font-size="14" lengthAdjust="spacing" textLength="123" x="1103.5" y="1421.9805">:ApplicationSession</text><rect fill="#E3E3E3" height="51.2422" rx="2.5" ry="2.5" style="stroke:#181818;stroke-width:0.5;" width="109" x="1243.5" y="31.3789"/><text fill="#000000" font-family="sans-serif" font-size="14" lengthAdjust="spacing" textLength="95" x="1250.5" y="53.4863">currentSession</text><text fill="#000000" font-family="sans-serif" font-size="14" lengthAdjust="spacing" textLength="83" x="1256.5" y="72.1074">:UserSession</text><rect fill="#E3E3E3" height="51.2422" rx="2.5" ry="2.5" style="stroke:#181818;stroke-width:0.5;" width="109" x="1243.5" y="1381.252"/><text fill="#000000" font-family="sans-serif" font-size="14" lengthAdjust="spacing" textLength="95" x="1250.5" y="1403.3594">currentSession</text><text fill="#000000" font-family="sans-serif" font-size="14" lengthAdjust="spacing" textLength="83" x="1256.5" y="1421.9805">:UserSession</text><rect fill="#E3E3E3" height="51.2422" rx="2.5" ry="2.5" style="stroke:#181818;stroke-width:0.5;" width="148" x="1362.5" y="31.3789"/><text fill="#000000" font-family="sans-serif" font-size="14" lengthAdjust="spacing" textLength="134" x="1369.5" y="53.4863">EmployeeRepository:</text><text fill="#000000" font-family="sans-serif" font-size="14" lengthAdjust="spacing" textLength="130" x="1371.5" y="72.1074">EmployeeRepository</text><rect fill="#E3E3E3" height="51.2422" rx="2.5" ry="2.5" style="stroke:#181818;stroke-width:0.5;" width="148" x="1362.5" y="1381.252"/><text fill="#000000" font-family="sans-serif" font-size="14" lengthAdjust="spacing" textLength="134" x="1369.5" y="1403.3594">EmployeeRepository:</text><text fill="#000000" font-family="sans-serif" font-size="14" lengthAdjust="spacing" textLength="130" x="1371.5" y="1421.9805">EmployeeRepository</text><rect fill="#E3E3E3" height="51.2422" rx="2.5" ry="2.5" style="stroke:#181818;stroke-width:0.5;" width="143" x="1520.5" y="31.3789"/><text fill="#000000" font-family="sans-serif" font-size="14" lengthAdjust="spacing" textLength="129" x="1527.5" y="53.4863">MessageRepository:</text><text fill="#000000" font-family="sans-serif" font-size="14" lengthAdjust="spacing" textLength="125" x="1529.5" y="72.1074">MessageRepository</text><rect fill="#E3E3E3" height="51.2422" rx="2.5" ry="2.5" style="stroke:#181818;stroke-width:0.5;" width="143" x="1520.5" y="1381.252"/><text fill="#000000" font-family="sans-serif" font-size="14" lengthAdjust="spacing" textLength="129" x="1527.5" y="1403.3594">MessageRepository:</text><text fill="#000000" font-family="sans-serif" font-size="14" lengthAdjust="spacing" textLength="125" x="1529.5" y="1421.9805">MessageRepository</text><rect fill="#E3E3E3" height="51.2422" rx="2.5" ry="2.5" style="stroke:#181818;stroke-width:0.5;" width="101" x="1673.5" y="1381.252"/><text fill="#000000" font-family="sans-serif" font-size="14" lengthAdjust="spacing" textLength="87" x="1680.5" y="1403.3594">MessageVisit:</text><text fill="#000000" font-family="sans-serif" font-size="14" lengthAdjust="spacing" textLength="83" x="1682.5" y="1421.9805">MessageVisit</text><rect fill="#E3E3E3" height="51.2422" rx="2.5" ry="2.5" style="stroke:#181818;stroke-width:0.5;" width="172" x="1784.5" y="31.3789"/><text fill="#000000" font-family="sans-serif" font-size="14" lengthAdjust="spacing" textLength="154" x="1793.5" y="53.4863">VisitRequestsRepository</text><text fill="#000000" font-family="sans-serif" font-size="14" lengthAdjust="spacing" textLength="158" x="1791.5" y="72.1074">:VisitRequestsRepository</text><rect fill="#E3E3E3" height="51.2422" rx="2.5" ry="2.5" style="stroke:#181818;stroke-width:0.5;" width="172" x="1784.5" y="1381.252"/><text fill="#000000" font-family="sans-serif" font-size="14" lengthAdjust="spacing" textLength="154" x="1793.5" y="1403.3594">VisitRequestsRepository</text><text fill="#000000" font-family="sans-serif" font-size="14" lengthAdjust="spacing" textLength="158" x="1791.5" y="1421.9805">:VisitRequestsRepository</text><rect fill="#E3E3E3" height="32.6211" rx="2.5" ry="2.5" style="stroke:#181818;stroke-width:0.5;" width="276" x="1966.5" y="50"/><text fill="#000000" font-family="sans-serif" font-size="14" lengthAdjust="spacing" textLength="262" x="1973.5" y="72.1074">VisitRequestMapper:\VisitRequestMapper</text><rect fill="#E3E3E3" height="32.6211" rx="2.5" ry="2.5" style="stroke:#181818;stroke-width:0.5;" width="276" x="1966.5" y="1381.252"/><text fill="#000000" font-family="sans-serif" font-size="14" lengthAdjust="spacing" textLength="262" x="1973.5" y="1403.3594">VisitRequestMapper:\VisitRequestMapper</text><rect fill="#E3E3E3" height="32.6211" rx="2.5" ry="2.5" style="stroke:#181818;stroke-width:0.5;" width="161" x="2252.5" y="50"/><text fill="#000000" font-family="sans-serif" font-size="14" lengthAdjust="spacing" textLength="147" x="2259.5" y="72.1074">VisitRequestRepository</text><rect fill="#E3E3E3" height="32.6211" rx="2.5" ry="2.5" style="stroke:#181818;stroke-width:0.5;" width="161" x="2252.5" y="1381.252"/><text fill="#000000" font-family="sans-serif" font-size="14" lengthAdjust="spacing" textLength="147" x="2259.5" y="1403.3594">VisitRequestRepository</text><rect fill="#E3E3E3" height="32.6211" rx="2.5" ry="2.5" style="stroke:#181818;stroke-width:0.5;" width="44" x="2526" y="50"/><text fill="#000000" font-family="sans-serif" font-size="14" lengthAdjust="spacing" textLength="30" x="2533" y="72.1074">DTO</text><rect fill="#E3E3E3" height="32.6211" rx="2.5" ry="2.5" style="stroke:#181818;stroke-width:0.5;" width="44" x="2526" y="1381.252"/><text fill="#000000" font-family="sans-serif" font-size="14" lengthAdjust="spacing" textLength="30" x="2533" y="1403.3594">DTO</text><rect fill="#FFFFFF" height="1270.6309" style="stroke:#181818;stroke-width:1.0;" width="10" x="21.5" y="93.6211"/><rect fill="#FFFFFF" height="31.291" style="stroke:#181818;stroke-width:1.0;" width="10" x="380.5" y="116.9121"/><rect fill="#FFFFFF" height="840.8965" style="stroke:#181818;stroke-width:1.0;" width="10" x="380.5" y="179.4941"/><rect fill="#FFFFFF" height="31.291" style="stroke:#181818;stroke-width:1.0;" width="10" x="380.5" y="1051.6816"/><rect fill="#FFFFFF" height="249.9883" style="stroke:#181818;stroke-width:1.0;" width="10" x="380.5" y="1114.2637"/><rect fill="#FFFFFF" height="734.6934" style="stroke:#181818;stroke-width:1.0;" width="10" x="612.5" y="254.4063"/><rect fill="#FFFFFF" height="187.4063" style="stroke:#181818;stroke-width:1.0;" width="10" x="612.5" y="1145.5547"/><rect fill="#FFFFFF" height="31.291" style="stroke:#181818;stroke-width:1.0;" width="10" x="779" y="598.6074"/><rect fill="#FFFFFF" height="31.291" style="stroke:#181818;stroke-width:1.0;" width="10" x="886" y="473.4434"/><rect fill="#FFFFFF" height="31.291" style="stroke:#181818;stroke-width:1.0;" width="10" x="886" y="661.1895"/><rect fill="#FFFFFF" height="31.291" style="stroke:#181818;stroke-width:1.0;" width="10" x="1013" y="285.6973"/><rect fill="#FFFFFF" height="31.291" style="stroke:#181818;stroke-width:1.0;" width="10" x="1160" y="348.2793"/><rect fill="#FFFFFF" height="31.291" style="stroke:#181818;stroke-width:1.0;" width="10" x="1293" y="410.8613"/><rect fill="#FFFFFF" height="31.291" style="stroke:#181818;stroke-width:1.0;" width="10" x="1431.5" y="536.0254"/><rect fill="#FFFFFF" height="31.291" style="stroke:#181818;stroke-width:1.0;" width="10" x="1587" y="1270.3789"/><rect fill="#FFFFFF" height="52.2422" style="stroke:#181818;stroke-width:1.0;" width="10" x="1719" y="1186.8457"/><rect fill="#FFFFFF" height="93.873" style="stroke:#181818;stroke-width:1.0;" width="10" x="2099.5" y="781.3535"/><rect fill="#FFFFFF" height="234.0371" style="stroke:#181818;stroke-width:1.0;" width="10" x="2328" y="723.7715"/><rect fill="#FFFFFF" height="31.291" style="stroke:#181818;stroke-width:1.0;" width="10" x="2543" y="812.6445"/><polygon fill="#181818" points="368.5,112.9121,378.5,116.9121,368.5,120.9121,372.5,116.9121" style="stroke:#181818;stroke-width:1.0;"/><line style="stroke:#181818;stroke-width:1.0;" x1="31.5" x2="374.5" y1="116.9121" y2="116.9121"/><text fill="#000000" font-family="sans-serif" font-size="13" font-weight="bold" lengthAdjust="spacing" textLength="7" x="38.5" y="111.6494">1</text><text fill="#000000" font-family="sans-serif" font-size="13" lengthAdjust="spacing" textLength="232" x="49.5" y="111.6494">Requests to see the list of visit requests</text><polygon fill="#181818" points="42.5,144.2031,32.5,148.2031,42.5,152.2031,38.5,148.2031" style="stroke:#181818;stroke-width:1.0;"/><line style="stroke:#181818;stroke-width:1.0;stroke-dasharray:2.0,2.0;" x1="36.5" x2="384.5" y1="148.2031" y2="148.2031"/><text fill="#000000" font-family="sans-serif" font-size="13" font-weight="bold" lengthAdjust="spacing" textLength="7" x="48.5" y="142.9404">2</text><text fill="#000000" font-family="sans-serif" font-size="13" lengthAdjust="spacing" textLength="314" x="59.5" y="142.9404">Requests begin data and end data of the visit requests</text><polygon fill="#181818" points="368.5,175.4941,378.5,179.4941,368.5,183.4941,372.5,179.4941" style="stroke:#181818;stroke-width:1.0;"/><line style="stroke:#181818;stroke-width:1.0;" x1="31.5" x2="374.5" y1="179.4941" y2="179.4941"/><text fill="#000000" font-family="sans-serif" font-size="13" font-weight="bold" lengthAdjust="spacing" textLength="7" x="38.5" y="174.2314">3</text><text fill="#000000" font-family="sans-serif" font-size="13" lengthAdjust="spacing" textLength="124" x="49.5" y="174.2314">fill the requested data</text><polygon fill="#181818" points="497.5,206.7852,507.5,210.7852,497.5,214.7852,501.5,210.7852" style="stroke:#181818;stroke-width:1.0;"/><line style="stroke:#181818;stroke-width:1.0;" x1="390.5" x2="503.5" y1="210.7852" y2="210.7852"/><text fill="#000000" font-family="sans-serif" font-size="13" font-weight="bold" lengthAdjust="spacing" textLength="7" x="397.5" y="205.5225">4</text><text fill="#000000" font-family="sans-serif" font-size="13" lengthAdjust="spacing" textLength="43" x="408.5" y="205.5225">creates</text><rect fill="#E3E3E3" height="32.6211" rx="2.5" ry="2.5" style="stroke:#181818;stroke-width:0.5;" width="216" x="509.5" y="187.4941"/><text fill="#000000" font-family="sans-serif" font-size="14" lengthAdjust="spacing" textLength="202" x="516.5" y="209.6016">:MessageVisitRequestController</text><polygon fill="#181818" points="600.5,250.4063,610.5,254.4063,600.5,258.4063,604.5,254.4063" style="stroke:#181818;stroke-width:1.0;"/><line style="stroke:#181818;stroke-width:1.0;" x1="390.5" x2="606.5" y1="254.4063" y2="254.4063"/><text fill="#000000" font-family="sans-serif" font-size="13" font-weight="bold" lengthAdjust="spacing" textLength="7" x="397.5" y="249.1436">5</text><text fill="#000000" font-family="sans-serif" font-size="13" lengthAdjust="spacing" textLength="192" x="408.5" y="249.1436">Requests the list of visit requests</text><polygon fill="#181818" points="1001,281.6973,1011,285.6973,1001,289.6973,1005,285.6973" style="stroke:#181818;stroke-width:1.0;"/><line style="stroke:#181818;stroke-width:1.0;" x1="622.5" x2="1007" y1="285.6973" y2="285.6973"/><text fill="#000000" font-family="sans-serif" font-size="13" font-weight="bold" lengthAdjust="spacing" textLength="7" x="629.5" y="280.4346">6</text><text fill="#000000" font-family="sans-serif" font-size="13" lengthAdjust="spacing" textLength="75" x="640.5" y="280.4346">getInstance()</text><polygon fill="#181818" points="633.5,312.9883,623.5,316.9883,633.5,320.9883,629.5,316.9883" style="stroke:#181818;stroke-width:1.0;"/><line style="stroke:#181818;stroke-width:1.0;" x1="627.5" x2="1017" y1="316.9883" y2="316.9883"/><text fill="#000000" font-family="sans-serif" font-size="13" font-weight="bold" lengthAdjust="spacing" textLength="7" x="639.5" y="311.7256">7</text><text fill="#000000" font-family="sans-serif" font-size="13" lengthAdjust="spacing" textLength="68" x="650.5" y="311.7256">appSession</text><polygon fill="#181818" points="1148,344.2793,1158,348.2793,1148,352.2793,1152,348.2793" style="stroke:#181818;stroke-width:1.0;"/><line style="stroke:#181818;stroke-width:1.0;" x1="622.5" x2="1154" y1="348.2793" y2="348.2793"/><text fill="#000000" font-family="sans-serif" font-size="13" font-weight="bold" lengthAdjust="spacing" textLength="7" x="629.5" y="343.0166">8</text><text fill="#000000" font-family="sans-serif" font-size="13" lengthAdjust="spacing" textLength="115" x="640.5" y="343.0166">getCurrentSession()</text><polygon fill="#181818" points="633.5,375.5703,623.5,379.5703,633.5,383.5703,629.5,379.5703" style="stroke:#181818;stroke-width:1.0;"/><line style="stroke:#181818;stroke-width:1.0;stroke-dasharray:2.0,2.0;" x1="627.5" x2="1164" y1="379.5703" y2="379.5703"/><text fill="#000000" font-family="sans-serif" font-size="13" font-weight="bold" lengthAdjust="spacing" textLength="7" x="639.5" y="374.3076">9</text><text fill="#000000" font-family="sans-serif" font-size="13" lengthAdjust="spacing" textLength="87" x="650.5" y="374.3076">currentSession</text><polygon fill="#181818" points="1281,406.8613,1291,410.8613,1281,414.8613,1285,410.8613" style="stroke:#181818;stroke-width:1.0;"/><line style="stroke:#181818;stroke-width:1.0;" x1="622.5" x2="1287" y1="410.8613" y2="410.8613"/><text fill="#000000" font-family="sans-serif" font-size="13" font-weight="bold" lengthAdjust="spacing" textLength="14" x="629.5" y="405.5986">10</text><text fill="#000000" font-family="sans-serif" font-size="13" lengthAdjust="spacing" textLength="135" x="647.5" y="405.5986">name = getUserName()</text><polygon fill="#181818" points="633.5,438.1523,623.5,442.1523,633.5,446.1523,629.5,442.1523" style="stroke:#181818;stroke-width:1.0;"/><line style="stroke:#181818;stroke-width:1.0;stroke-dasharray:2.0,2.0;" x1="627.5" x2="1297" y1="442.1523" y2="442.1523"/><text fill="#000000" font-family="sans-serif" font-size="13" font-weight="bold" lengthAdjust="spacing" textLength="14" x="639.5" y="436.8896">11</text><text fill="#000000" font-family="sans-serif" font-size="13" lengthAdjust="spacing" textLength="32" x="657.5" y="436.8896">name</text><polygon fill="#181818" points="874,469.4434,884,473.4434,874,477.4434,878,473.4434" style="stroke:#181818;stroke-width:1.0;"/><line style="stroke:#181818;stroke-width:1.0;" x1="622.5" x2="880" y1="473.4434" y2="473.4434"/><text fill="#000000" font-family="sans-serif" font-size="13" font-weight="bold" lengthAdjust="spacing" textLength="14" x="629.5" y="468.1807">12</text><text fill="#000000" font-family="sans-serif" font-size="13" lengthAdjust="spacing" textLength="146" x="647.5" y="468.1807">getEmployeeRepository()</text><polygon fill="#181818" points="633.5,500.7344,623.5,504.7344,633.5,508.7344,629.5,504.7344" style="stroke:#181818;stroke-width:1.0;"/><line style="stroke:#181818;stroke-width:1.0;stroke-dasharray:2.0,2.0;" x1="627.5" x2="890" y1="504.7344" y2="504.7344"/><text fill="#000000" font-family="sans-serif" font-size="13" font-weight="bold" lengthAdjust="spacing" textLength="14" x="639.5" y="499.4717">13</text><text fill="#000000" font-family="sans-serif" font-size="13" lengthAdjust="spacing" textLength="120" x="657.5" y="499.4717">EmployeeRepository</text><polygon fill="#181818" points="1419.5,532.0254,1429.5,536.0254,1419.5,540.0254,1423.5,536.0254" style="stroke:#181818;stroke-width:1.0;"/><line style="stroke:#181818;stroke-width:1.0;" x1="622.5" x2="1425.5" y1="536.0254" y2="536.0254"/><text fill="#000000" font-family="sans-serif" font-size="13" font-weight="bold" lengthAdjust="spacing" textLength="14" x="629.5" y="530.7627">14</text><text fill="#000000" font-family="sans-serif" font-size="13" lengthAdjust="spacing" textLength="192" x="647.5" y="530.7627">getEmployeeByUserName(email)</text><polygon fill="#181818" points="633.5,563.3164,623.5,567.3164,633.5,571.3164,629.5,567.3164" style="stroke:#181818;stroke-width:1.0;"/><line style="stroke:#181818;stroke-width:1.0;stroke-dasharray:2.0,2.0;" x1="627.5" x2="1435.5" y1="567.3164" y2="567.3164"/><text fill="#000000" font-family="sans-serif" font-size="13" font-weight="bold" lengthAdjust="spacing" textLength="14" x="639.5" y="562.0537">15</text><text fill="#000000" font-family="sans-serif" font-size="13" lengthAdjust="spacing" textLength="58" x="657.5" y="562.0537">Employee</text><polygon fill="#181818" points="767,594.6074,777,598.6074,767,602.6074,771,598.6074" style="stroke:#181818;stroke-width:1.0;"/><line style="stroke:#181818;stroke-width:1.0;" x1="622.5" x2="773" y1="598.6074" y2="598.6074"/><text fill="#000000" font-family="sans-serif" font-size="13" font-weight="bold" lengthAdjust="spacing" textLength="14" x="629.5" y="593.3447">16</text><text fill="#000000" font-family="sans-serif" font-size="13" lengthAdjust="spacing" textLength="75" x="647.5" y="593.3447">getInstance()</text><polygon fill="#181818" points="633.5,625.8984,623.5,629.8984,633.5,633.8984,629.5,629.8984" style="stroke:#181818;stroke-width:1.0;"/><line style="stroke:#181818;stroke-width:1.0;stroke-dasharray:2.0,2.0;" x1="627.5" x2="783" y1="629.8984" y2="629.8984"/><text fill="#000000" font-family="sans-serif" font-size="13" font-weight="bold" lengthAdjust="spacing" textLength="14" x="639.5" y="624.6357">17</text><text fill="#000000" font-family="sans-serif" font-size="13" lengthAdjust="spacing" textLength="67" x="657.5" y="624.6357">repositories</text><polygon fill="#181818" points="874,657.1895,884,661.1895,874,665.1895,878,661.1895" style="stroke:#181818;stroke-width:1.0;"/><line style="stroke:#181818;stroke-width:1.0;" x1="622.5" x2="880" y1="661.1895" y2="661.1895"/><text fill="#000000" font-family="sans-serif" font-size="13" font-weight="bold" lengthAdjust="spacing" textLength="14" x="629.5" y="655.9268">18</text><text fill="#000000" font-family="sans-serif" font-size="13" lengthAdjust="spacing" textLength="162" x="647.5" y="655.9268">getVisitRequestRepository()</text><polygon fill="#181818" points="633.5,688.4805,623.5,692.4805,633.5,696.4805,629.5,692.4805" style="stroke:#181818;stroke-width:1.0;"/><line style="stroke:#181818;stroke-width:1.0;stroke-dasharray:2.0,2.0;" x1="627.5" x2="890" y1="692.4805" y2="692.4805"/><text fill="#000000" font-family="sans-serif" font-size="13" font-weight="bold" lengthAdjust="spacing" textLength="14" x="639.5" y="687.2178">19</text><text fill="#000000" font-family="sans-serif" font-size="13" lengthAdjust="spacing" textLength="136" x="657.5" y="687.2178">VisitRequestRepository</text><polygon fill="#181818" points="2316,719.7715,2326,723.7715,2316,727.7715,2320,723.7715" style="stroke:#181818;stroke-width:1.0;"/><line style="stroke:#181818;stroke-width:1.0;" x1="622.5" x2="2322" y1="723.7715" y2="723.7715"/><text fill="#000000" font-family="sans-serif" font-size="13" font-weight="bold" lengthAdjust="spacing" textLength="14" x="629.5" y="718.5088">20</text><text fill="#000000" font-family="sans-serif" font-size="13" lengthAdjust="spacing" textLength="298" x="647.5" y="718.5088">getVisitRequestDTO(Employee,beginDate,endDate)</text><path d="M1956.5,738.7715 L2029.5,738.7715 L2029.5,748.0625 L2019.5,758.0625 L1956.5,758.0625 L1956.5,738.7715 " fill="#EEEEEE" style="stroke:#000000;stroke-width:1.5;"/><rect fill="none" height="144.4551" style="stroke:#000000;stroke-width:1.5;" width="623.5" x="1956.5" y="738.7715"/><text fill="#000000" font-family="sans-serif" font-size="13" font-weight="bold" lengthAdjust="spacing" textLength="28" x="1971.5" y="753.7998">loop</text><text fill="#000000" font-family="sans-serif" font-size="11" font-weight="bold" lengthAdjust="spacing" textLength="156" x="2044.5" y="752.6416">[get list of VisitRequestDTO]</text><polygon fill="#181818" points="2120.5,777.3535,2110.5,781.3535,2120.5,785.3535,2116.5,781.3535" style="stroke:#181818;stroke-width:1.0;"/><line style="stroke:#181818;stroke-width:1.0;" x1="2114.5" x2="2327" y1="781.3535" y2="781.3535"/><text fill="#000000" font-family="sans-serif" font-size="13" font-weight="bold" lengthAdjust="spacing" textLength="14" x="2126.5" y="776.0908">21</text><text fill="#000000" font-family="sans-serif" font-size="13" lengthAdjust="spacing" textLength="126" x="2144.5" y="776.0908">getVisitRequestDTO()</text><polygon fill="#181818" points="2531,808.6445,2541,812.6445,2531,816.6445,2535,812.6445" style="stroke:#181818;stroke-width:1.0;"/><line style="stroke:#181818;stroke-width:1.0;" x1="2109.5" x2="2537" y1="812.6445" y2="812.6445"/><text fill="#000000" font-family="sans-serif" font-size="13" font-weight="bold" lengthAdjust="spacing" textLength="14" x="2116.5" y="807.3818">22</text><text fill="#000000" font-family="sans-serif" font-size="13" lengthAdjust="spacing" textLength="146" x="2134.5" y="807.3818">CreateVisitRequestDTO()</text><polygon fill="#181818" points="2120.5,839.9355,2110.5,843.9355,2120.5,847.9355,2116.5,843.9355" style="stroke:#181818;stroke-width:1.0;"/><line style="stroke:#181818;stroke-width:1.0;stroke-dasharray:2.0,2.0;" x1="2114.5" x2="2547" y1="843.9355" y2="843.9355"/><text fill="#000000" font-family="sans-serif" font-size="13" font-weight="bold" lengthAdjust="spacing" textLength="14" x="2126.5" y="838.6729">23</text><text fill="#000000" font-family="sans-serif" font-size="13" lengthAdjust="spacing" textLength="100" x="2144.5" y="838.6729">VisitRequestDTO</text><polygon fill="#181818" points="2316,871.2266,2326,875.2266,2316,879.2266,2320,875.2266" style="stroke:#181818;stroke-width:1.0;"/><line style="stroke:#181818;stroke-width:1.0;stroke-dasharray:2.0,2.0;" x1="2104.5" x2="2322" y1="875.2266" y2="875.2266"/><text fill="#000000" font-family="sans-serif" font-size="13" font-weight="bold" lengthAdjust="spacing" textLength="14" x="2111.5" y="869.9639">24</text><text fill="#000000" font-family="sans-serif" font-size="13" lengthAdjust="spacing" textLength="100" x="2129.5" y="869.9639">VisitRequestDTO</text><line style="stroke:#181818;stroke-width:1.0;stroke-dasharray:2.0,2.0;" x1="2338" x2="2380" y1="913.5176" y2="913.5176"/><line style="stroke:#181818;stroke-width:1.0;stroke-dasharray:2.0,2.0;" x1="2380" x2="2380" y1="913.5176" y2="926.5176"/><line style="stroke:#181818;stroke-width:1.0;stroke-dasharray:2.0,2.0;" x1="2339" x2="2380" y1="926.5176" y2="926.5176"/><polygon fill="#181818" points="2349,922.5176,2339,926.5176,2349,930.5176,2345,926.5176" style="stroke:#181818;stroke-width:1.0;"/><text fill="#000000" font-family="sans-serif" font-size="13" font-weight="bold" lengthAdjust="spacing" textLength="14" x="2345" y="908.2549">25</text><text fill="#000000" font-family="sans-serif" font-size="13" lengthAdjust="spacing" textLength="173" x="2363" y="908.2549">Put the list in ascending order</text><polygon fill="#181818" points="633.5,953.8086,623.5,957.8086,633.5,961.8086,629.5,957.8086" style="stroke:#181818;stroke-width:1.0;"/><line style="stroke:#181818;stroke-width:1.0;stroke-dasharray:2.0,2.0;" x1="627.5" x2="2332" y1="957.8086" y2="957.8086"/><text fill="#000000" font-family="sans-serif" font-size="13" font-weight="bold" lengthAdjust="spacing" textLength="14" x="639.5" y="952.5459">26</text><text fill="#000000" font-family="sans-serif" font-size="13" lengthAdjust="spacing" textLength="95" x="657.5" y="952.5459">VisitRequestList</text><polygon fill="#181818" points="401.5,985.0996,391.5,989.0996,401.5,993.0996,397.5,989.0996" style="stroke:#181818;stroke-width:1.0;"/><line style="stroke:#181818;stroke-width:1.0;stroke-dasharray:2.0,2.0;" x1="395.5" x2="616.5" y1="989.0996" y2="989.0996"/><text fill="#000000" font-family="sans-serif" font-size="13" font-weight="bold" lengthAdjust="spacing" textLength="14" x="407.5" y="983.8369">27</text><text fill="#000000" font-family="sans-serif" font-size="13" lengthAdjust="spacing" textLength="95" x="425.5" y="983.8369">VisitRequestList</text><polygon fill="#181818" points="42.5,1016.3906,32.5,1020.3906,42.5,1024.3906,38.5,1020.3906" style="stroke:#181818;stroke-width:1.0;"/><line style="stroke:#181818;stroke-width:1.0;stroke-dasharray:2.0,2.0;" x1="36.5" x2="384.5" y1="1020.3906" y2="1020.3906"/><text fill="#000000" font-family="sans-serif" font-size="13" font-weight="bold" lengthAdjust="spacing" textLength="14" x="48.5" y="1015.1279">28</text><text fill="#000000" font-family="sans-serif" font-size="13" lengthAdjust="spacing" textLength="176" x="66.5" y="1015.1279">Shows the list of visit requests</text><polygon fill="#181818" points="368.5,1047.6816,378.5,1051.6816,368.5,1055.6816,372.5,1051.6816" style="stroke:#181818;stroke-width:1.0;"/><line style="stroke:#181818;stroke-width:1.0;" x1="31.5" x2="374.5" y1="1051.6816" y2="1051.6816"/><text fill="#000000" font-family="sans-serif" font-size="13" font-weight="bold" lengthAdjust="spacing" textLength="14" x="38.5" y="1046.4189">29</text><text fill="#000000" font-family="sans-serif" font-size="13" lengthAdjust="spacing" textLength="128" x="56.5" y="1046.4189">Selects a visit request</text><polygon fill="#181818" points="42.5,1078.9727,32.5,1082.9727,42.5,1086.9727,38.5,1082.9727" style="stroke:#181818;stroke-width:1.0;"/><line style="stroke:#181818;stroke-width:1.0;stroke-dasharray:2.0,2.0;" x1="36.5" x2="384.5" y1="1082.9727" y2="1082.9727"/><text fill="#000000" font-family="sans-serif" font-size="13" font-weight="bold" lengthAdjust="spacing" textLength="14" x="48.5" y="1077.71">30</text><text fill="#000000" font-family="sans-serif" font-size="13" lengthAdjust="spacing" textLength="142" x="66.5" y="1077.71">asks to write a message</text><polygon fill="#181818" points="368.5,1110.2637,378.5,1114.2637,368.5,1118.2637,372.5,1114.2637" style="stroke:#181818;stroke-width:1.0;"/><line style="stroke:#181818;stroke-width:1.0;" x1="31.5" x2="374.5" y1="1114.2637" y2="1114.2637"/><text fill="#000000" font-family="sans-serif" font-size="13" font-weight="bold" lengthAdjust="spacing" textLength="14" x="38.5" y="1109.001">31</text><text fill="#000000" font-family="sans-serif" font-size="13" lengthAdjust="spacing" textLength="102" x="56.5" y="1109.001">writes a message</text><polygon fill="#181818" points="600.5,1141.5547,610.5,1145.5547,600.5,1149.5547,604.5,1145.5547" style="stroke:#181818;stroke-width:1.0;"/><line style="stroke:#181818;stroke-width:1.0;" x1="390.5" x2="606.5" y1="1145.5547" y2="1145.5547"/><text fill="#000000" font-family="sans-serif" font-size="13" font-weight="bold" lengthAdjust="spacing" textLength="14" x="397.5" y="1140.292">32</text><text fill="#000000" font-family="sans-serif" font-size="13" lengthAdjust="spacing" textLength="85" x="415.5" y="1140.292">send message</text><polygon fill="#181818" points="1661.5,1172.8457,1671.5,1176.8457,1661.5,1180.8457,1665.5,1176.8457" style="stroke:#181818;stroke-width:1.0;"/><line style="stroke:#181818;stroke-width:1.0;" x1="622.5" x2="1667.5" y1="1176.8457" y2="1176.8457"/><text fill="#000000" font-family="sans-serif" font-size="13" font-weight="bold" lengthAdjust="spacing" textLength="14" x="629.5" y="1171.583">33</text><text fill="#000000" font-family="sans-serif" font-size="13" lengthAdjust="spacing" textLength="43" x="647.5" y="1171.583">creates</text><rect fill="#E3E3E3" height="51.2422" rx="2.5" ry="2.5" style="stroke:#181818;stroke-width:0.5;" width="101" x="1673.5" y="1153.5547"/><text fill="#000000" font-family="sans-serif" font-size="14" lengthAdjust="spacing" textLength="87" x="1680.5" y="1175.6621">MessageVisit:</text><text fill="#000000" font-family="sans-serif" font-size="14" lengthAdjust="spacing" textLength="83" x="1682.5" y="1194.2832">MessageVisit</text><polygon fill="#181818" points="633.5,1235.0879,623.5,1239.0879,633.5,1243.0879,629.5,1239.0879" style="stroke:#181818;stroke-width:1.0;"/><line style="stroke:#181818;stroke-width:1.0;" x1="627.5" x2="1723" y1="1239.0879" y2="1239.0879"/><text fill="#000000" font-family="sans-serif" font-size="13" font-weight="bold" lengthAdjust="spacing" textLength="14" x="639.5" y="1233.8252">34</text><text fill="#000000" font-family="sans-serif" font-size="13" lengthAdjust="spacing" textLength="79" x="657.5" y="1233.8252">MessageVisit</text><polygon fill="#181818" points="1575,1266.3789,1585,1270.3789,1575,1274.3789,1579,1270.3789" style="stroke:#181818;stroke-width:1.0;"/><line style="stroke:#181818;stroke-width:1.0;" x1="622.5" x2="1581" y1="1270.3789" y2="1270.3789"/><text fill="#000000" font-family="sans-serif" font-size="13" font-weight="bold" lengthAdjust="spacing" textLength="14" x="629.5" y="1265.1162">35</text><text fill="#000000" font-family="sans-serif" font-size="13" lengthAdjust="spacing" textLength="89" x="647.5" y="1265.1162">sendMessage()</text><polygon fill="#181818" points="633.5,1297.6699,623.5,1301.6699,633.5,1305.6699,629.5,1301.6699" style="stroke:#181818;stroke-width:1.0;"/><line style="stroke:#181818;stroke-width:1.0;" x1="627.5" x2="1591" y1="1301.6699" y2="1301.6699"/><text fill="#000000" font-family="sans-serif" font-size="13" font-weight="bold" lengthAdjust="spacing" textLength="14" x="639.5" y="1296.4072">36</text><text fill="#000000" font-family="sans-serif" font-size="13" lengthAdjust="spacing" textLength="49" x="657.5" y="1296.4072">success</text><polygon fill="#181818" points="401.5,1328.9609,391.5,1332.9609,401.5,1336.9609,397.5,1332.9609" style="stroke:#181818;stroke-width:1.0;"/><line style="stroke:#181818;stroke-width:1.0;" x1="395.5" x2="616.5" y1="1332.9609" y2="1332.9609"/><text fill="#000000" font-family="sans-serif" font-size="13" font-weight="bold" lengthAdjust="spacing" textLength="14" x="407.5" y="1327.6982">37</text><text fill="#000000" font-family="sans-serif" font-size="13" lengthAdjust="spacing" textLength="49" x="425.5" y="1327.6982">success</text><polygon fill="#181818" points="37.5,1360.252,27.5,1364.252,37.5,1368.252,33.5,1364.252" style="stroke:#181818;stroke-width:1.0;"/><line style="stroke:#181818;stroke-width:1.0;" x1="31.5" x2="384.5" y1="1364.252" y2="1364.252"/><text fill="#000000" font-family="sans-serif" font-size="13" font-weight="bold" lengthAdjust="spacing" textLength="14" x="43.5" y="1358.9893">38</text><text fill="#000000" font-family="sans-serif" font-size="13" lengthAdjust="spacing" textLength="49" x="61.5" y="1358.9893">success</text><!--SRC=[fLTHRzem47xFhpZrPHqgVo3Ia1Zj0rAxegRTKwN93GQiXZYpJJl-_SvEujYn3KoBX23stNVVdU_EXtndTKC4sSEUrxpS2RwdeCI1PjBkDAHy9rjQg6D5GT1IaNfRkG9oHzRyazLRs91AqYmZ1yNhm_wDYYpxicDh2XlErHl_av5ISG5NyosjrHKG2IyIXH16iP8rf5PmbJzGAT7UJoQPUgA_3rIgbsKhl3mlkk2r4hogg30gY-Ud-v7I4squodF1g3GoTk5OCEqQalTLXAFnMeS0g_lvyyZ8l6agLXB5U5qWIVmoah_cgvKlIPgc4q3aX5QWL1w4m0WEYZgChaPnLnJpHr_fRjzK_4Zfu6x-MeUBHZzSzh6wm7jGmPf12bQZGEO41mppwggR1L_JFNGvm6Cm4ZljMT-j7jCu3tWQLEIluLfBnlpCT1Qp3w9ecxqPuAD_mNI6AGevzBP1SP0K2sf7eM9I0T_0XuR6CcebNAnbXxI4gGRIWBb5UgDRLiEQA0AaNWF5Ztb1H8q-GbtJ03OWkM5LPNGxBTeYMk4eWaLQQXnTN9C9OfM2egGy9UU59HsFCO1bOGePMYY4r8MKmvQgPIsn8PNq-cl8t5IRYwONUa8v3ALdXPp06MMxqTljpIwy2emPzzJrOsnRutu9nmX4xRU5dKDDi55_qqpqeVx0jnY7hWruDDerXuc6YjaVA_SKTBSpCGYRH8o3QOuU0xtYs8_qcWWR7wRd4kbfBhFlHniTkYUiYj2BMFV8XlkMEWpSinZb6BI7tNiHkO0WbTmU-TZD5PHG37s8ldktUQgE8sVDkAdHCdSxQ3G_pkH894_Ya2dE8MHFCeuJqhvzVhpkZ_36zDzR1Bx1rgk_VKygpXkjRzlQ22ZkzWKUGK9eEklkgWZfH93xsylTRDUcCrJB5wQ9Xs1njB5J-3wrf4vvxvpHUAjZCvt5VRuKjdFKtSL3oyu7rIHRCZrM1pNSN7WP4raYh1vxkLYFx9snqNKFL-8UKLCE9V8aajtzvHuW1-n69ipr6hs-xIm2nOv__jFbxOyX0RWxZHIqmdyM4eYFcPu7KbF9G9V8TpE1VGg6yWJsxIZvFomDb3o1TU7GX51IZt1dORgfnt_q8fQQCnbF9da_WYMXl4bwBELkJcUctvwKTwljb5pVSuD_0Lq4klLnbuaHJoM-Gz-jiY7GXxB4xGjSE6MXTyIamGMGwNgo-Na12cQH-wR_RVm5]--></g></svg>
