<?xml version="1.0" encoding="us-ascii" standalone="no"?><svg xmlns="http://www.w3.org/2000/svg" xmlns:xlink="http://www.w3.org/1999/xlink" contentStyleType="text/css" height="738px" preserveAspectRatio="none" style="width:865px;height:738px;background:#FFFFFF;" version="1.1" viewBox="0 0 865 738" width="865px" zoomAndPan="magnify"><defs/><g><rect fill="#FFFFFF" height="543.9863" style="stroke:#181818;stroke-width:1.0;" width="10" x="56" y="93.6211"/><rect fill="#FFFFFF" height="31.291" style="stroke:#181818;stroke-width:1.0;" width="10" x="415" y="116.9121"/><rect fill="#FFFFFF" height="181.7852" style="stroke:#181818;stroke-width:1.0;" width="10" x="415" y="179.4941"/><rect fill="#FFFFFF" height="31.291" style="stroke:#181818;stroke-width:1.0;" width="10" x="415" y="392.5703"/><rect fill="#FFFFFF" height="182.4551" style="stroke:#181818;stroke-width:1.0;" width="10" x="415" y="455.1523"/><rect fill="#FFFFFF" height="75.582" style="stroke:#181818;stroke-width:1.0;" width="10" x="647" y="254.4063"/><rect fill="#FFFFFF" height="119.873" style="stroke:#181818;stroke-width:1.0;" width="10" x="647" y="486.4434"/><line style="stroke:#181818;stroke-width:0.5;stroke-dasharray:5.0,5.0;" x1="61" x2="61" y1="83.6211" y2="655.6074"/><line style="stroke:#181818;stroke-width:0.5;stroke-dasharray:5.0,5.0;" x1="420" x2="420" y1="83.6211" y2="655.6074"/><line style="stroke:#181818;stroke-width:0.5;stroke-dasharray:5.0,5.0;" x1="652" x2="652" y1="219.3047" y2="655.6074"/><text fill="#000000" font-family="sans-serif" font-size="14" lengthAdjust="spacing" textLength="106" x="5" y="80.1074">EmployeeProject</text><ellipse cx="61" cy="13.5" fill="#E3E3E3" rx="8" ry="8" style="stroke:#181818;stroke-width:0.5;"/><path d="M61,21.5 L61,48.5 M48,29.5 L74,29.5 M61,48.5 L48,63.5 M61,48.5 L74,63.5 " fill="none" style="stroke:#181818;stroke-width:0.5;"/><text fill="#000000" font-family="sans-serif" font-size="14" lengthAdjust="spacing" textLength="106" x="5" y="669.7148">EmployeeProject</text><ellipse cx="61" cy="681.7285" fill="#E3E3E3" rx="8" ry="8" style="stroke:#181818;stroke-width:0.5;"/><path d="M61,689.7285 L61,716.7285 M48,697.7285 L74,697.7285 M61,716.7285 L48,731.7285 M61,716.7285 L74,731.7285 " fill="none" style="stroke:#181818;stroke-width:0.5;"/><rect fill="#E3E3E3" height="32.6211" rx="2.5" ry="2.5" style="stroke:#181818;stroke-width:0.5;" width="166" x="337" y="50"/><text fill="#000000" font-family="sans-serif" font-size="14" lengthAdjust="spacing" textLength="152" x="344" y="72.1074">:MessageVisitRequestUI</text><rect fill="#E3E3E3" height="32.6211" rx="2.5" ry="2.5" style="stroke:#181818;stroke-width:0.5;" width="166" x="337" y="654.6074"/><text fill="#000000" font-family="sans-serif" font-size="14" lengthAdjust="spacing" textLength="152" x="344" y="676.7148">:MessageVisitRequestUI</text><rect fill="#E3E3E3" height="32.6211" rx="2.5" ry="2.5" style="stroke:#181818;stroke-width:0.5;" width="216" x="544" y="654.6074"/><text fill="#000000" font-family="sans-serif" font-size="14" lengthAdjust="spacing" textLength="202" x="551" y="676.7148">:MessageVisitRequestController</text><rect fill="#FFFFFF" height="543.9863" style="stroke:#181818;stroke-width:1.0;" width="10" x="56" y="93.6211"/><rect fill="#FFFFFF" height="31.291" style="stroke:#181818;stroke-width:1.0;" width="10" x="415" y="116.9121"/><rect fill="#FFFFFF" height="181.7852" style="stroke:#181818;stroke-width:1.0;" width="10" x="415" y="179.4941"/><rect fill="#FFFFFF" height="31.291" style="stroke:#181818;stroke-width:1.0;" width="10" x="415" y="392.5703"/><rect fill="#FFFFFF" height="182.4551" style="stroke:#181818;stroke-width:1.0;" width="10" x="415" y="455.1523"/><rect fill="#FFFFFF" height="75.582" style="stroke:#181818;stroke-width:1.0;" width="10" x="647" y="254.4063"/><rect fill="#FFFFFF" height="119.873" style="stroke:#181818;stroke-width:1.0;" width="10" x="647" y="486.4434"/><polygon fill="#181818" points="403,112.9121,413,116.9121,403,120.9121,407,116.9121" style="stroke:#181818;stroke-width:1.0;"/><line style="stroke:#181818;stroke-width:1.0;" x1="66" x2="409" y1="116.9121" y2="116.9121"/><text fill="#000000" font-family="sans-serif" font-size="13" font-weight="bold" lengthAdjust="spacing" textLength="7" x="73" y="111.6494">1</text><text fill="#000000" font-family="sans-serif" font-size="13" lengthAdjust="spacing" textLength="232" x="84" y="111.6494">Requests to see the list of visit requests</text><polygon fill="#181818" points="77,144.2031,67,148.2031,77,152.2031,73,148.2031" style="stroke:#181818;stroke-width:1.0;"/><line style="stroke:#181818;stroke-width:1.0;stroke-dasharray:2.0,2.0;" x1="71" x2="419" y1="148.2031" y2="148.2031"/><text fill="#000000" font-family="sans-serif" font-size="13" font-weight="bold" lengthAdjust="spacing" textLength="7" x="83" y="142.9404">2</text><text fill="#000000" font-family="sans-serif" font-size="13" lengthAdjust="spacing" textLength="314" x="94" y="142.9404">Requests begin data and end data of the visit requests</text><polygon fill="#181818" points="403,175.4941,413,179.4941,403,183.4941,407,179.4941" style="stroke:#181818;stroke-width:1.0;"/><line style="stroke:#181818;stroke-width:1.0;" x1="66" x2="409" y1="179.4941" y2="179.4941"/><text fill="#000000" font-family="sans-serif" font-size="13" font-weight="bold" lengthAdjust="spacing" textLength="7" x="73" y="174.2314">3</text><text fill="#000000" font-family="sans-serif" font-size="13" lengthAdjust="spacing" textLength="124" x="84" y="174.2314">fill the requested data</text><polygon fill="#181818" points="532,206.7852,542,210.7852,532,214.7852,536,210.7852" style="stroke:#181818;stroke-width:1.0;"/><line style="stroke:#181818;stroke-width:1.0;" x1="425" x2="538" y1="210.7852" y2="210.7852"/><text fill="#000000" font-family="sans-serif" font-size="13" font-weight="bold" lengthAdjust="spacing" textLength="7" x="432" y="205.5225">4</text><text fill="#000000" font-family="sans-serif" font-size="13" lengthAdjust="spacing" textLength="43" x="443" y="205.5225">creates</text><rect fill="#E3E3E3" height="32.6211" rx="2.5" ry="2.5" style="stroke:#181818;stroke-width:0.5;" width="216" x="544" y="187.4941"/><text fill="#000000" font-family="sans-serif" font-size="14" lengthAdjust="spacing" textLength="202" x="551" y="209.6016">:MessageVisitRequestController</text><polygon fill="#181818" points="635,250.4063,645,254.4063,635,258.4063,639,254.4063" style="stroke:#181818;stroke-width:1.0;"/><line style="stroke:#181818;stroke-width:1.0;" x1="425" x2="641" y1="254.4063" y2="254.4063"/><text fill="#000000" font-family="sans-serif" font-size="13" font-weight="bold" lengthAdjust="spacing" textLength="7" x="432" y="249.1436">5</text><text fill="#000000" font-family="sans-serif" font-size="13" lengthAdjust="spacing" textLength="192" x="443" y="249.1436">Requests the list of visit requests</text><line style="stroke:#181818;stroke-width:1.0;" x1="657" x2="699" y1="285.6973" y2="285.6973"/><line style="stroke:#181818;stroke-width:1.0;" x1="699" x2="699" y1="285.6973" y2="298.6973"/><line style="stroke:#181818;stroke-width:1.0;" x1="658" x2="699" y1="298.6973" y2="298.6973"/><polygon fill="#181818" points="668,294.6973,658,298.6973,668,302.6973,664,298.6973" style="stroke:#181818;stroke-width:1.0;"/><text fill="#000000" font-family="sans-serif" font-size="13" font-weight="bold" lengthAdjust="spacing" textLength="7" x="664" y="280.4346">6</text><text fill="#000000" font-family="sans-serif" font-size="13" lengthAdjust="spacing" textLength="173" x="675" y="280.4346">Put the list in ascending order</text><polygon fill="#181818" points="436,325.9883,426,329.9883,436,333.9883,432,329.9883" style="stroke:#181818;stroke-width:1.0;"/><line style="stroke:#181818;stroke-width:1.0;" x1="430" x2="651" y1="329.9883" y2="329.9883"/><text fill="#000000" font-family="sans-serif" font-size="13" font-weight="bold" lengthAdjust="spacing" textLength="7" x="442" y="324.7256">7</text><text fill="#000000" font-family="sans-serif" font-size="13" lengthAdjust="spacing" textLength="174" x="453" y="324.7256">Sends the list of visit requests</text><polygon fill="#181818" points="77,357.2793,67,361.2793,77,365.2793,73,361.2793" style="stroke:#181818;stroke-width:1.0;"/><line style="stroke:#181818;stroke-width:1.0;stroke-dasharray:2.0,2.0;" x1="71" x2="419" y1="361.2793" y2="361.2793"/><text fill="#000000" font-family="sans-serif" font-size="13" font-weight="bold" lengthAdjust="spacing" textLength="7" x="83" y="356.0166">8</text><text fill="#000000" font-family="sans-serif" font-size="13" lengthAdjust="spacing" textLength="176" x="94" y="356.0166">Shows the list of visit requests</text><polygon fill="#181818" points="403,388.5703,413,392.5703,403,396.5703,407,392.5703" style="stroke:#181818;stroke-width:1.0;"/><line style="stroke:#181818;stroke-width:1.0;" x1="66" x2="409" y1="392.5703" y2="392.5703"/><text fill="#000000" font-family="sans-serif" font-size="13" font-weight="bold" lengthAdjust="spacing" textLength="7" x="73" y="387.3076">9</text><text fill="#000000" font-family="sans-serif" font-size="13" lengthAdjust="spacing" textLength="128" x="84" y="387.3076">Selects a visit request</text><polygon fill="#181818" points="77,419.8613,67,423.8613,77,427.8613,73,423.8613" style="stroke:#181818;stroke-width:1.0;"/><line style="stroke:#181818;stroke-width:1.0;" x1="71" x2="419" y1="423.8613" y2="423.8613"/><text fill="#000000" font-family="sans-serif" font-size="13" font-weight="bold" lengthAdjust="spacing" textLength="14" x="83" y="418.5986">10</text><text fill="#000000" font-family="sans-serif" font-size="13" lengthAdjust="spacing" textLength="221" x="101" y="418.5986">Requests message of the visit request</text><polygon fill="#181818" points="403,451.1523,413,455.1523,403,459.1523,407,455.1523" style="stroke:#181818;stroke-width:1.0;"/><line style="stroke:#181818;stroke-width:1.0;" x1="66" x2="409" y1="455.1523" y2="455.1523"/><text fill="#000000" font-family="sans-serif" font-size="13" font-weight="bold" lengthAdjust="spacing" textLength="14" x="73" y="449.8896">11</text><text fill="#000000" font-family="sans-serif" font-size="13" lengthAdjust="spacing" textLength="91" x="91" y="449.8896">fill the message</text><polygon fill="#181818" points="635,482.4434,645,486.4434,635,490.4434,639,486.4434" style="stroke:#181818;stroke-width:1.0;"/><line style="stroke:#181818;stroke-width:1.0;" x1="425" x2="641" y1="486.4434" y2="486.4434"/><text fill="#000000" font-family="sans-serif" font-size="13" font-weight="bold" lengthAdjust="spacing" textLength="14" x="432" y="481.1807">12</text><text fill="#000000" font-family="sans-serif" font-size="13" lengthAdjust="spacing" textLength="116" x="450" y="481.1807">Sends the message</text><line style="stroke:#181818;stroke-width:1.0;" x1="657" x2="699" y1="517.7344" y2="517.7344"/><line style="stroke:#181818;stroke-width:1.0;" x1="699" x2="699" y1="517.7344" y2="530.7344"/><line style="stroke:#181818;stroke-width:1.0;" x1="658" x2="699" y1="530.7344" y2="530.7344"/><polygon fill="#181818" points="668,526.7344,658,530.7344,668,534.7344,664,530.7344" style="stroke:#181818;stroke-width:1.0;"/><text fill="#000000" font-family="sans-serif" font-size="13" font-weight="bold" lengthAdjust="spacing" textLength="14" x="664" y="512.4717">13</text><text fill="#000000" font-family="sans-serif" font-size="13" lengthAdjust="spacing" textLength="176" x="682" y="512.4717">Checks if the message is valid</text><line style="stroke:#181818;stroke-width:1.0;" x1="657" x2="699" y1="562.0254" y2="562.0254"/><line style="stroke:#181818;stroke-width:1.0;" x1="699" x2="699" y1="562.0254" y2="575.0254"/><line style="stroke:#181818;stroke-width:1.0;" x1="658" x2="699" y1="575.0254" y2="575.0254"/><polygon fill="#181818" points="668,571.0254,658,575.0254,668,579.0254,664,575.0254" style="stroke:#181818;stroke-width:1.0;"/><text fill="#000000" font-family="sans-serif" font-size="13" font-weight="bold" lengthAdjust="spacing" textLength="14" x="664" y="556.7627">14</text><text fill="#000000" font-family="sans-serif" font-size="13" lengthAdjust="spacing" textLength="116" x="682" y="556.7627">Sends the message</text><polygon fill="#181818" points="436,602.3164,426,606.3164,436,610.3164,432,606.3164" style="stroke:#181818;stroke-width:1.0;"/><line style="stroke:#181818;stroke-width:1.0;" x1="430" x2="651" y1="606.3164" y2="606.3164"/><text fill="#000000" font-family="sans-serif" font-size="13" font-weight="bold" lengthAdjust="spacing" textLength="14" x="442" y="601.0537">15</text><text fill="#000000" font-family="sans-serif" font-size="13" lengthAdjust="spacing" textLength="106" x="460" y="601.0537">success message</text><polygon fill="#181818" points="72,633.6074,62,637.6074,72,641.6074,68,637.6074" style="stroke:#181818;stroke-width:1.0;"/><line style="stroke:#181818;stroke-width:1.0;stroke-dasharray:2.0,2.0;" x1="66" x2="419" y1="637.6074" y2="637.6074"/><text fill="#000000" font-family="sans-serif" font-size="13" font-weight="bold" lengthAdjust="spacing" textLength="14" x="78" y="632.3447">16</text><text fill="#000000" font-family="sans-serif" font-size="13" lengthAdjust="spacing" textLength="149" x="96" y="632.3447">Shows success message</text><!--SRC=[fPF1Rjim38RlVWeYbm85yW8vz1BiO603YcRTdP7fM8iiPgASjcy_AdPL9t6I1HDWm89_VYH-_fQjzJiCs4BBdaqJk2M8eQD2yfSTcYrkQ1K_744W4z5lt5WW3LRyPlq6QdH2HO5TPD-rQmf5yT3OYg1cZcj-Bz143Z3xrkuSVn0z1_wjm1cWmAkeN87H6hj37s6s-44YslcN5HjVw4z74b_BNbpUbYxPny3EKJYKB7- -V2_I07QFaVfs1UX9Rp1_KYOiOAWLY0n2waL3uAn4u1hs2QuEz8engnn89SmJA04NcRIcZVLGOKH0Nm7fSxWeCT5Fg1MTOS-6hArpXzgXYdfY5ayICgbCdEJ6uwEoJ21LoZNTaIsN_JW5v2aEpiF4IH_cJqEBvov-qTKm5ADMfLHng3vtDKN8jgnKVzU4wOpyxXCovKDUAgmQVhkhn_4-p-3ZjQx8wSyWWCVCoyPUNkymRLvRs_yUavdxdv5p4eS6LsUzch2lvTr4JURfCma3RjcGsGhOUem4Ax17PwjRrRU7EGgUTCQexgBuD6F_4h4xc2a6uwjY_W80]--></g></svg>

