<?xml version="1.0" encoding="us-ascii" standalone="no"?><svg xmlns="http://www.w3.org/2000/svg" xmlns:xlink="http://www.w3.org/1999/xlink" contentStyleType="text/css" height="687px" preserveAspectRatio="none" style="width:1674px;height:687px;background:#FFFFFF;" version="1.1" viewBox="0 0 1674 687" width="1674px" zoomAndPan="magnify"><defs/><g><rect fill="#FFFFFF" height="492.6563" style="stroke:#181818;stroke-width:1.0;" width="10" x="54" y="93.6211"/><rect fill="#FFFFFF" height="469.3652" style="stroke:#181818;stroke-width:1.0;" width="10" x="414" y="116.9121"/><rect fill="#FFFFFF" height="344.2012" style="stroke:#181818;stroke-width:1.0;" width="10" x="647" y="148.2031"/><rect fill="#FFFFFF" height="31.291" style="stroke:#181818;stroke-width:1.0;" width="10" x="822" y="179.4941"/><rect fill="#FFFFFF" height="31.291" style="stroke:#181818;stroke-width:1.0;" width="10" x="953" y="242.0762"/><rect fill="#FFFFFF" height="31.291" style="stroke:#181818;stroke-width:1.0;" width="10" x="1085.5" y="304.6582"/><rect fill="#FFFFFF" height="31.291" style="stroke:#181818;stroke-width:1.0;" width="10" x="1247.5" y="367.2402"/><rect fill="#FFFFFF" height="31.291" style="stroke:#181818;stroke-width:1.0;" width="10" x="1418" y="429.8223"/><rect fill="#FFFFFF" height="31.291" style="stroke:#181818;stroke-width:1.0;" width="10" x="1580.5" y="523.6953"/><line style="stroke:#181818;stroke-width:0.5;stroke-dasharray:5.0,5.0;" x1="59" x2="59" y1="83.6211" y2="604.2773"/><line style="stroke:#181818;stroke-width:0.5;stroke-dasharray:5.0,5.0;" x1="418.5" x2="418.5" y1="83.6211" y2="604.2773"/><line style="stroke:#181818;stroke-width:0.5;stroke-dasharray:5.0,5.0;" x1="651.5" x2="651.5" y1="83.6211" y2="604.2773"/><line style="stroke:#181818;stroke-width:0.5;stroke-dasharray:5.0,5.0;" x1="827" x2="827" y1="83.6211" y2="604.2773"/><line style="stroke:#181818;stroke-width:0.5;stroke-dasharray:5.0,5.0;" x1="958" x2="958" y1="83.6211" y2="604.2773"/><line style="stroke:#181818;stroke-width:0.5;stroke-dasharray:5.0,5.0;" x1="1090" x2="1090" y1="83.6211" y2="604.2773"/><line style="stroke:#181818;stroke-width:0.5;stroke-dasharray:5.0,5.0;" x1="1252" x2="1252" y1="83.6211" y2="604.2773"/><line style="stroke:#181818;stroke-width:0.5;stroke-dasharray:5.0,5.0;" x1="1423" x2="1423" y1="83.6211" y2="604.2773"/><line style="stroke:#181818;stroke-width:0.5;stroke-dasharray:5.0,5.0;" x1="1585" x2="1585" y1="83.6211" y2="604.2773"/><text fill="#000000" font-family="sans-serif" font-size="14" lengthAdjust="spacing" textLength="102" x="5" y="80.1074">Store Managaer</text><ellipse cx="59" cy="13.5" fill="#E3E3E3" rx="8" ry="8" style="stroke:#181818;stroke-width:0.5;"/><path d="M59,21.5 L59,48.5 M46,29.5 L72,29.5 M59,48.5 L46,63.5 M59,48.5 L72,63.5 " fill="none" style="stroke:#181818;stroke-width:0.5;"/><text fill="#000000" font-family="sans-serif" font-size="14" lengthAdjust="spacing" textLength="102" x="5" y="618.3848">Store Managaer</text><ellipse cx="59" cy="630.3984" fill="#E3E3E3" rx="8" ry="8" style="stroke:#181818;stroke-width:0.5;"/><path d="M59,638.3984 L59,665.3984 M46,646.3984 L72,646.3984 M59,665.3984 L46,680.3984 M59,665.3984 L72,680.3984 " fill="none" style="stroke:#181818;stroke-width:0.5;"/><rect fill="#E3E3E3" height="32.6211" rx="2.5" ry="2.5" style="stroke:#181818;stroke-width:0.5;" width="115" x="361.5" y="50"/><text fill="#000000" font-family="sans-serif" font-size="14" lengthAdjust="spacing" textLength="101" x="368.5" y="72.1074">:AnalyzeDealsUI</text><rect fill="#E3E3E3" height="32.6211" rx="2.5" ry="2.5" style="stroke:#181818;stroke-width:0.5;" width="115" x="361.5" y="603.2773"/><text fill="#000000" font-family="sans-serif" font-size="14" lengthAdjust="spacing" textLength="101" x="368.5" y="625.3848">:AnalyzeDealsUI</text><rect fill="#E3E3E3" height="32.6211" rx="2.5" ry="2.5" style="stroke:#181818;stroke-width:0.5;" width="93" x="605.5" y="50"/><text fill="#000000" font-family="sans-serif" font-size="14" lengthAdjust="spacing" textLength="79" x="612.5" y="72.1074">:CSVReader</text><rect fill="#E3E3E3" height="32.6211" rx="2.5" ry="2.5" style="stroke:#181818;stroke-width:0.5;" width="93" x="605.5" y="603.2773"/><text fill="#000000" font-family="sans-serif" font-size="14" lengthAdjust="spacing" textLength="79" x="612.5" y="625.3848">:CSVReader</text><rect fill="#E3E3E3" height="32.6211" rx="2.5" ry="2.5" style="stroke:#181818;stroke-width:0.5;" width="120" x="767" y="50"/><text fill="#000000" font-family="sans-serif" font-size="14" lengthAdjust="spacing" textLength="106" x="774" y="72.1074">:StoreRepository</text><rect fill="#E3E3E3" height="32.6211" rx="2.5" ry="2.5" style="stroke:#181818;stroke-width:0.5;" width="120" x="767" y="603.2773"/><text fill="#000000" font-family="sans-serif" font-size="14" lengthAdjust="spacing" textLength="106" x="774" y="625.3848">:StoreRepository</text><rect fill="#E3E3E3" height="32.6211" rx="2.5" ry="2.5" style="stroke:#181818;stroke-width:0.5;" width="122" x="897" y="50"/><text fill="#000000" font-family="sans-serif" font-size="14" lengthAdjust="spacing" textLength="108" x="904" y="72.1074">:ClientRepository</text><rect fill="#E3E3E3" height="32.6211" rx="2.5" ry="2.5" style="stroke:#181818;stroke-width:0.5;" width="122" x="897" y="603.2773"/><text fill="#000000" font-family="sans-serif" font-size="14" lengthAdjust="spacing" textLength="108" x="904" y="625.3848">:ClientRepository</text><rect fill="#E3E3E3" height="32.6211" rx="2.5" ry="2.5" style="stroke:#181818;stroke-width:0.5;" width="123" x="1029" y="50"/><text fill="#000000" font-family="sans-serif" font-size="14" lengthAdjust="spacing" textLength="109" x="1036" y="72.1074">:OrderRepository</text><rect fill="#E3E3E3" height="32.6211" rx="2.5" ry="2.5" style="stroke:#181818;stroke-width:0.5;" width="123" x="1029" y="603.2773"/><text fill="#000000" font-family="sans-serif" font-size="14" lengthAdjust="spacing" textLength="109" x="1036" y="625.3848">:OrderRepository</text><rect fill="#E3E3E3" height="32.6211" rx="2.5" ry="2.5" style="stroke:#181818;stroke-width:0.5;" width="181" x="1162" y="50"/><text fill="#000000" font-family="sans-serif" font-size="14" lengthAdjust="spacing" textLength="167" x="1169" y="72.1074">:AnnouncementRepository</text><rect fill="#E3E3E3" height="32.6211" rx="2.5" ry="2.5" style="stroke:#181818;stroke-width:0.5;" width="181" x="1162" y="603.2773"/><text fill="#000000" font-family="sans-serif" font-size="14" lengthAdjust="spacing" textLength="167" x="1169" y="625.3848">:AnnouncementRepository</text><rect fill="#E3E3E3" height="32.6211" rx="2.5" ry="2.5" style="stroke:#181818;stroke-width:0.5;" width="140" x="1353" y="50"/><text fill="#000000" font-family="sans-serif" font-size="14" lengthAdjust="spacing" textLength="126" x="1360" y="72.1074">:PropertyRepository</text><rect fill="#E3E3E3" height="32.6211" rx="2.5" ry="2.5" style="stroke:#181818;stroke-width:0.5;" width="140" x="1353" y="603.2773"/><text fill="#000000" font-family="sans-serif" font-size="14" lengthAdjust="spacing" textLength="126" x="1360" y="625.3848">:PropertyRepository</text><rect fill="#E3E3E3" height="32.6211" rx="2.5" ry="2.5" style="stroke:#181818;stroke-width:0.5;" width="165" x="1503" y="50"/><text fill="#000000" font-family="sans-serif" font-size="14" lengthAdjust="spacing" textLength="151" x="1510" y="72.1074">:AnalyzeDealsController</text><rect fill="#E3E3E3" height="32.6211" rx="2.5" ry="2.5" style="stroke:#181818;stroke-width:0.5;" width="165" x="1503" y="603.2773"/><text fill="#000000" font-family="sans-serif" font-size="14" lengthAdjust="spacing" textLength="151" x="1510" y="625.3848">:AnalyzeDealsController</text><rect fill="#FFFFFF" height="492.6563" style="stroke:#181818;stroke-width:1.0;" width="10" x="54" y="93.6211"/><rect fill="#FFFFFF" height="469.3652" style="stroke:#181818;stroke-width:1.0;" width="10" x="414" y="116.9121"/><rect fill="#FFFFFF" height="344.2012" style="stroke:#181818;stroke-width:1.0;" width="10" x="647" y="148.2031"/><rect fill="#FFFFFF" height="31.291" style="stroke:#181818;stroke-width:1.0;" width="10" x="822" y="179.4941"/><rect fill="#FFFFFF" height="31.291" style="stroke:#181818;stroke-width:1.0;" width="10" x="953" y="242.0762"/><rect fill="#FFFFFF" height="31.291" style="stroke:#181818;stroke-width:1.0;" width="10" x="1085.5" y="304.6582"/><rect fill="#FFFFFF" height="31.291" style="stroke:#181818;stroke-width:1.0;" width="10" x="1247.5" y="367.2402"/><rect fill="#FFFFFF" height="31.291" style="stroke:#181818;stroke-width:1.0;" width="10" x="1418" y="429.8223"/><rect fill="#FFFFFF" height="31.291" style="stroke:#181818;stroke-width:1.0;" width="10" x="1580.5" y="523.6953"/><polygon fill="#181818" points="402,112.9121,412,116.9121,402,120.9121,406,116.9121" style="stroke:#181818;stroke-width:1.0;"/><line style="stroke:#181818;stroke-width:1.0;" x1="64" x2="408" y1="116.9121" y2="116.9121"/><text fill="#000000" font-family="sans-serif" font-size="13" font-weight="bold" lengthAdjust="spacing" textLength="7" x="71" y="111.6494">1</text><text fill="#000000" font-family="sans-serif" font-size="13" lengthAdjust="spacing" textLength="193" x="82" y="111.6494">Requests to analyze all the deals</text><polygon fill="#181818" points="635,144.2031,645,148.2031,635,152.2031,639,148.2031" style="stroke:#181818;stroke-width:1.0;"/><line style="stroke:#181818;stroke-width:1.0;" x1="424" x2="641" y1="148.2031" y2="148.2031"/><text fill="#000000" font-family="sans-serif" font-size="13" font-weight="bold" lengthAdjust="spacing" textLength="7" x="431" y="142.9404">2</text><text fill="#000000" font-family="sans-serif" font-size="13" lengthAdjust="spacing" textLength="68" x="442" y="142.9404">CSVReader</text><polygon fill="#181818" points="810,175.4941,820,179.4941,810,183.4941,814,179.4941" style="stroke:#181818;stroke-width:1.0;"/><line style="stroke:#181818;stroke-width:1.0;" x1="657" x2="816" y1="179.4941" y2="179.4941"/><text fill="#000000" font-family="sans-serif" font-size="13" font-weight="bold" lengthAdjust="spacing" textLength="7" x="664" y="174.2314">3</text><text fill="#000000" font-family="sans-serif" font-size="13" lengthAdjust="spacing" textLength="86" x="675" y="174.2314">addStoreDTO()</text><polygon fill="#181818" points="668,206.7852,658,210.7852,668,214.7852,664,210.7852" style="stroke:#181818;stroke-width:1.0;"/><line style="stroke:#181818;stroke-width:1.0;stroke-dasharray:2.0,2.0;" x1="662" x2="826" y1="210.7852" y2="210.7852"/><text fill="#000000" font-family="sans-serif" font-size="13" font-weight="bold" lengthAdjust="spacing" textLength="7" x="674" y="205.5225">4</text><text fill="#000000" font-family="sans-serif" font-size="13" lengthAdjust="spacing" textLength="130" x="685" y="205.5225">Save Store information</text><polygon fill="#181818" points="941,238.0762,951,242.0762,941,246.0762,945,242.0762" style="stroke:#181818;stroke-width:1.0;"/><line style="stroke:#181818;stroke-width:1.0;" x1="657" x2="947" y1="242.0762" y2="242.0762"/><text fill="#000000" font-family="sans-serif" font-size="13" font-weight="bold" lengthAdjust="spacing" textLength="7" x="664" y="236.8135">5</text><text fill="#000000" font-family="sans-serif" font-size="13" lengthAdjust="spacing" textLength="62" x="675" y="236.8135">addClient()</text><polygon fill="#181818" points="668,269.3672,658,273.3672,668,277.3672,664,273.3672" style="stroke:#181818;stroke-width:1.0;"/><line style="stroke:#181818;stroke-width:1.0;stroke-dasharray:2.0,2.0;" x1="662" x2="957" y1="273.3672" y2="273.3672"/><text fill="#000000" font-family="sans-serif" font-size="13" font-weight="bold" lengthAdjust="spacing" textLength="7" x="674" y="268.1045">6</text><text fill="#000000" font-family="sans-serif" font-size="13" lengthAdjust="spacing" textLength="132" x="685" y="268.1045">Save Client information</text><polygon fill="#181818" points="1073.5,300.6582,1083.5,304.6582,1073.5,308.6582,1077.5,304.6582" style="stroke:#181818;stroke-width:1.0;"/><line style="stroke:#181818;stroke-width:1.0;" x1="657" x2="1079.5" y1="304.6582" y2="304.6582"/><text fill="#000000" font-family="sans-serif" font-size="13" font-weight="bold" lengthAdjust="spacing" textLength="7" x="664" y="299.3955">7</text><text fill="#000000" font-family="sans-serif" font-size="13" lengthAdjust="spacing" textLength="76" x="675" y="299.3955">createOrder()</text><polygon fill="#181818" points="668,331.9492,658,335.9492,668,339.9492,664,335.9492" style="stroke:#181818;stroke-width:1.0;"/><line style="stroke:#181818;stroke-width:1.0;stroke-dasharray:2.0,2.0;" x1="662" x2="1089.5" y1="335.9492" y2="335.9492"/><text fill="#000000" font-family="sans-serif" font-size="13" font-weight="bold" lengthAdjust="spacing" textLength="7" x="674" y="330.6865">8</text><text fill="#000000" font-family="sans-serif" font-size="13" lengthAdjust="spacing" textLength="131" x="685" y="330.6865">Save Order information</text><polygon fill="#181818" points="1235.5,363.2402,1245.5,367.2402,1235.5,371.2402,1239.5,367.2402" style="stroke:#181818;stroke-width:1.0;"/><line style="stroke:#181818;stroke-width:1.0;" x1="657" x2="1241.5" y1="367.2402" y2="367.2402"/><text fill="#000000" font-family="sans-serif" font-size="13" font-weight="bold" lengthAdjust="spacing" textLength="7" x="664" y="361.9775">9</text><text fill="#000000" font-family="sans-serif" font-size="13" lengthAdjust="spacing" textLength="116" x="675" y="361.9775">addAnnouncement()</text><polygon fill="#181818" points="668,394.5313,658,398.5313,668,402.5313,664,398.5313" style="stroke:#181818;stroke-width:1.0;"/><line style="stroke:#181818;stroke-width:1.0;stroke-dasharray:2.0,2.0;" x1="662" x2="1251.5" y1="398.5313" y2="398.5313"/><text fill="#000000" font-family="sans-serif" font-size="13" font-weight="bold" lengthAdjust="spacing" textLength="14" x="674" y="393.2686">10</text><text fill="#000000" font-family="sans-serif" font-size="13" lengthAdjust="spacing" textLength="186" x="692" y="393.2686">Save Announcement information</text><polygon fill="#181818" points="1406,425.8223,1416,429.8223,1406,433.8223,1410,429.8223" style="stroke:#181818;stroke-width:1.0;"/><line style="stroke:#181818;stroke-width:1.0;" x1="657" x2="1412" y1="429.8223" y2="429.8223"/><text fill="#000000" font-family="sans-serif" font-size="13" font-weight="bold" lengthAdjust="spacing" textLength="14" x="664" y="424.5596">11</text><text fill="#000000" font-family="sans-serif" font-size="13" lengthAdjust="spacing" textLength="29" x="682" y="424.5596">add()</text><polygon fill="#181818" points="668,457.1133,658,461.1133,668,465.1133,664,461.1133" style="stroke:#181818;stroke-width:1.0;"/><line style="stroke:#181818;stroke-width:1.0;stroke-dasharray:2.0,2.0;" x1="662" x2="1422" y1="461.1133" y2="461.1133"/><text fill="#000000" font-family="sans-serif" font-size="13" font-weight="bold" lengthAdjust="spacing" textLength="14" x="674" y="455.8506">12</text><text fill="#000000" font-family="sans-serif" font-size="13" lengthAdjust="spacing" textLength="148" x="692" y="455.8506">Save Property information</text><polygon fill="#181818" points="435,488.4043,425,492.4043,435,496.4043,431,492.4043" style="stroke:#181818;stroke-width:1.0;"/><line style="stroke:#181818;stroke-width:1.0;stroke-dasharray:2.0,2.0;" x1="429" x2="651" y1="492.4043" y2="492.4043"/><text fill="#000000" font-family="sans-serif" font-size="13" font-weight="bold" lengthAdjust="spacing" textLength="14" x="441" y="487.1416">13</text><text fill="#000000" font-family="sans-serif" font-size="13" lengthAdjust="spacing" textLength="181" x="459" y="487.1416">All information have been saved</text><polygon fill="#181818" points="1568.5,519.6953,1578.5,523.6953,1568.5,527.6953,1572.5,523.6953" style="stroke:#181818;stroke-width:1.0;"/><line style="stroke:#181818;stroke-width:1.0;" x1="424" x2="1574.5" y1="523.6953" y2="523.6953"/><text fill="#000000" font-family="sans-serif" font-size="13" font-weight="bold" lengthAdjust="spacing" textLength="14" x="431" y="518.4326">14</text><text fill="#000000" font-family="sans-serif" font-size="13" lengthAdjust="spacing" textLength="88" x="449" y="518.4326">AnalyzeDeals()</text><polygon fill="#181818" points="435,550.9863,425,554.9863,435,558.9863,431,554.9863" style="stroke:#181818;stroke-width:1.0;"/><line style="stroke:#181818;stroke-width:1.0;stroke-dasharray:2.0,2.0;" x1="429" x2="1584.5" y1="554.9863" y2="554.9863"/><text fill="#000000" font-family="sans-serif" font-size="13" font-weight="bold" lengthAdjust="spacing" textLength="14" x="441" y="549.7236">15</text><text fill="#000000" font-family="sans-serif" font-size="13" lengthAdjust="spacing" textLength="308" x="459" y="549.7236">show the comparison between the values of the deals</text><polygon fill="#181818" points="70,582.2773,60,586.2773,70,590.2773,66,586.2773" style="stroke:#181818;stroke-width:1.0;"/><line style="stroke:#181818;stroke-width:1.0;stroke-dasharray:2.0,2.0;" x1="64" x2="418" y1="586.2773" y2="586.2773"/><text fill="#000000" font-family="sans-serif" font-size="13" font-weight="bold" lengthAdjust="spacing" textLength="14" x="76" y="581.0146">16</text><text fill="#000000" font-family="sans-serif" font-size="13" lengthAdjust="spacing" textLength="308" x="94" y="581.0146">show the comparison between the values of the deals</text><!--SRC=[fLF1Rjim3BthAuXSkXtw0pqK2DeT2cn8aRIxCpOJ2xKbJwAJPLy_IdPiMMvElGGM-VWUGpxw3srQTDX0OuqjAcSR0dOTAJzcMYm-y4WxljG4ZWf6SwnJWA-mj6TjZd30sfDIsB4rNRCdfzHTfKk2WxMyjtyL5cmTh7RoI_0B3HwHt0hGWsSbRAmBtQ9XM3si3TQNV_HCmld-4Z7lBndcQVTxIrWE5FBAyb5dIwtrMhuk4TN7VhnkSgvQa-4CF0INw8qJrGpSnvROjJ6sCmKrI_vPQbdvwcnBZYzPrHZ-J6kQsfCrx6nTNyVpjlsfL5Y1FY5JcBZo3FUFCbTuW2tzwSYp1xQ0FGjWNGDN16MWcofb3qfgf596BgNZ6YP8s8KAMG6D4nSebcLyFhzjldsVuDDIr8I-7mLsU1emeCt1kWPPMwEahKy81jLfTRri_qv5a-Mg19t9zfbRkZEENdYqWJ0KZWGL8wdov1GreJFTcBWbcn0CghcJ-Z-THjC65hvJY_gidJH_gwibwz1SQjY-iRIPcPtL39irSStTQc3E5CMlzbwBbPCgg0BVdiY0bwzojjFWtS7VSZEXEBcgcOFYIKNGAEGhUuv7KzX6RbDx4TiJduDK29-mbZi3UqWkAnMFb45T2EKylqmOZZLvUluF]--></g></svg>