<?xml version="1.0" encoding="us-ascii" standalone="no"?><svg xmlns="http://www.w3.org/2000/svg" xmlns:xlink="http://www.w3.org/1999/xlink" contentStyleType="text/css" height="465px" preserveAspectRatio="none" style="width:757px;height:465px;background:#FFFFFF;" version="1.1" viewBox="0 0 757 465" width="757px" zoomAndPan="magnify"><defs/><g><!--class CreateClientUI--><g id="elem_CreateClientUI"><rect codeLine="8" fill="#F1F1F1" height="48" id="CreateClientUI" rx="2.5" ry="2.5" style="stroke:#181818;stroke-width:0.5;" width="123" x="7" y="7"/><ellipse cx="22" cy="23" fill="#ADD1B2" rx="11" ry="11" style="stroke:#181818;stroke-width:1.0;"/><path d="M24.7656,18.875 Q24.9219,18.6563 25.1094,18.5469 Q25.2969,18.4375 25.5156,18.4375 Q25.8906,18.4375 26.125,18.7031 Q26.3594,18.9531 26.3594,19.5625 L26.3594,21.0156 Q26.3594,21.625 26.125,21.8906 Q25.8906,22.1563 25.5156,22.1563 Q25.1719,22.1563 24.9688,21.9531 Q24.7656,21.7656 24.6563,21.25 Q24.6094,20.8906 24.4219,20.7031 Q24.0938,20.3281 23.4844,20.1094 Q22.875,19.8906 22.25,19.8906 Q21.4844,19.8906 20.8438,20.2188 Q20.2188,20.5469 19.7188,21.2969 Q19.2344,22.0469 19.2344,23.0781 L19.2344,24.1719 Q19.2344,25.4063 20.125,26.2344 Q21.0156,27.0469 22.6094,27.0469 Q23.5469,27.0469 24.2031,26.7969 Q24.5938,26.6406 25.0156,26.2031 Q25.2813,25.9375 25.4219,25.8594 Q25.5781,25.7813 25.7813,25.7813 Q26.1094,25.7813 26.3594,26.0469 Q26.625,26.2969 26.625,26.6406 Q26.625,26.9844 26.2813,27.3906 Q25.7813,27.9688 24.9844,28.2969 Q23.9063,28.75 22.6094,28.75 Q21.0938,28.75 19.8906,28.125 Q18.9063,27.625 18.2188,26.5625 Q17.5313,25.4844 17.5313,24.2031 L17.5313,23.0469 Q17.5313,21.7188 18.1406,20.5781 Q18.7656,19.4219 19.8594,18.8125 Q20.9531,18.1875 22.1875,18.1875 Q22.9219,18.1875 23.5625,18.3594 Q24.2188,18.5156 24.7656,18.875 Z " fill="#000000"/><text fill="#000000" font-family="sans-serif" font-size="14" lengthAdjust="spacing" textLength="91" x="36" y="28.7969">CreateClientUI</text><line style="stroke:#181818;stroke-width:0.5;" x1="8" x2="129" y1="39" y2="39"/><line style="stroke:#181818;stroke-width:0.5;" x1="8" x2="129" y1="47" y2="47"/></g><!--class roles--><g id="elem_roles"><rect codeLine="11" fill="#F1F1F1" height="48" id="roles" rx="2.5" ry="2.5" style="stroke:#181818;stroke-width:0.5;" width="63" x="660" y="410"/><ellipse cx="675" cy="426" fill="#EB937F" rx="11" ry="11" style="stroke:#181818;stroke-width:1.0;"/><path d="M673.8594,426.7969 L673.8594,429.2969 L678.1875,429.2969 L678.1875,428.375 Q678.1875,427.7656 678.4219,427.5 Q678.6719,427.2344 679.0469,427.2344 Q679.4219,427.2344 679.6563,427.5 Q679.8906,427.7656 679.8906,428.375 L679.8906,431 L671.8906,431 Q671.2656,431 671,430.7656 Q670.75,430.5313 670.75,430.1406 Q670.75,429.7656 671.0156,429.5313 Q671.2813,429.2969 671.8906,429.2969 L672.1563,429.2969 L672.1563,422.6406 L671.8906,422.6406 Q671.2656,422.6406 671,422.4063 Q670.75,422.1719 670.75,421.7813 Q670.75,421.4063 671,421.1719 Q671.2656,420.9375 671.8906,420.9375 L679.5156,420.9375 L679.5156,423.5313 Q679.5156,424.1406 679.2813,424.4063 Q679.0625,424.6563 678.6719,424.6563 Q678.2969,424.6563 678.0625,424.4063 Q677.8281,424.1406 677.8281,423.5313 L677.8281,422.6406 L673.8594,422.6406 L673.8594,425.0938 L675.3438,425.0938 Q675.3438,424.4375 675.4688,424.25 Q675.7344,423.8438 676.2031,423.8438 Q676.5781,423.8438 676.8125,424.1094 Q677.0469,424.3594 677.0469,424.9688 L677.0469,426.9375 Q677.0469,427.4844 676.9219,427.6719 Q676.6563,428.0625 676.2031,428.0625 Q675.7344,428.0625 675.4688,427.6563 Q675.3438,427.4688 675.3438,426.7969 L673.8594,426.7969 Z " fill="#000000"/><text fill="#000000" font-family="sans-serif" font-size="14" lengthAdjust="spacing" textLength="31" x="689" y="431.7969">roles</text><line style="stroke:#181818;stroke-width:0.5;" x1="661" x2="722" y1="442" y2="442"/><line style="stroke:#181818;stroke-width:0.5;" x1="661" x2="722" y1="450" y2="450"/></g><!--class User--><g id="elem_User"><rect codeLine="22" fill="#F1F1F1" height="196.9688" id="User" rx="2.5" ry="2.5" style="stroke:#181818;stroke-width:0.5;" width="118" x="632.5" y="134"/><ellipse cx="673.15" cy="150" fill="#ADD1B2" rx="11" ry="11" style="stroke:#181818;stroke-width:1.0;"/><path d="M675.9156,145.875 Q676.0719,145.6563 676.2594,145.5469 Q676.4469,145.4375 676.6656,145.4375 Q677.0406,145.4375 677.275,145.7031 Q677.5094,145.9531 677.5094,146.5625 L677.5094,148.0156 Q677.5094,148.625 677.275,148.8906 Q677.0406,149.1563 676.6656,149.1563 Q676.3219,149.1563 676.1188,148.9531 Q675.9156,148.7656 675.8063,148.25 Q675.7594,147.8906 675.5719,147.7031 Q675.2438,147.3281 674.6344,147.1094 Q674.025,146.8906 673.4,146.8906 Q672.6344,146.8906 671.9938,147.2188 Q671.3688,147.5469 670.8688,148.2969 Q670.3844,149.0469 670.3844,150.0781 L670.3844,151.1719 Q670.3844,152.4063 671.275,153.2344 Q672.1656,154.0469 673.7594,154.0469 Q674.6969,154.0469 675.3531,153.7969 Q675.7438,153.6406 676.1656,153.2031 Q676.4313,152.9375 676.5719,152.8594 Q676.7281,152.7813 676.9313,152.7813 Q677.2594,152.7813 677.5094,153.0469 Q677.775,153.2969 677.775,153.6406 Q677.775,153.9844 677.4313,154.3906 Q676.9313,154.9688 676.1344,155.2969 Q675.0563,155.75 673.7594,155.75 Q672.2438,155.75 671.0406,155.125 Q670.0563,154.625 669.3688,153.5625 Q668.6813,152.4844 668.6813,151.2031 L668.6813,150.0469 Q668.6813,148.7188 669.2906,147.5781 Q669.9156,146.4219 671.0094,145.8125 Q672.1031,145.1875 673.3375,145.1875 Q674.0719,145.1875 674.7125,145.3594 Q675.3688,145.5156 675.9156,145.875 Z " fill="#000000"/><text fill="#000000" font-family="sans-serif" font-size="14" lengthAdjust="spacing" textLength="29" x="692.85" y="155.7969">User</text><line style="stroke:#181818;stroke-width:0.5;" x1="633.5" x2="749.5" y1="166" y2="166"/><rect fill="none" height="6" style="stroke:#C82930;stroke-width:1.0;" width="6" x="640.5" y="177.8105"/><text fill="#000000" font-family="sans-serif" font-size="14" lengthAdjust="spacing" textLength="35" x="652.5" y="185.1074">name</text><rect fill="none" height="6" style="stroke:#C82930;stroke-width:1.0;" width="6" x="640.5" y="196.4316"/><text fill="#000000" font-family="sans-serif" font-size="14" lengthAdjust="spacing" textLength="76" x="652.5" y="203.7285">descriptions</text><rect fill="none" height="6" style="stroke:#C82930;stroke-width:1.0;" width="6" x="640.5" y="215.0527"/><text fill="#000000" font-family="sans-serif" font-size="14" lengthAdjust="spacing" textLength="70" x="652.5" y="222.3496">tax number</text><rect fill="none" height="6" style="stroke:#C82930;stroke-width:1.0;" width="6" x="640.5" y="233.6738"/><text fill="#000000" font-family="sans-serif" font-size="14" lengthAdjust="spacing" textLength="51" x="652.5" y="240.9707">address</text><rect fill="none" height="6" style="stroke:#C82930;stroke-width:1.0;" width="6" x="640.5" y="252.2949"/><text fill="#000000" font-family="sans-serif" font-size="14" lengthAdjust="spacing" textLength="88" x="652.5" y="259.5918">email address</text><rect fill="none" height="6" style="stroke:#C82930;stroke-width:1.0;" width="6" x="640.5" y="270.916"/><text fill="#000000" font-family="sans-serif" font-size="14" lengthAdjust="spacing" textLength="92" x="652.5" y="278.2129">phone number</text><rect fill="none" height="6" style="stroke:#C82930;stroke-width:1.0;" width="6" x="640.5" y="289.5371"/><text fill="#000000" font-family="sans-serif" font-size="14" lengthAdjust="spacing" textLength="60" x="652.5" y="296.834">password</text><rect fill="none" height="6" style="stroke:#C82930;stroke-width:1.0;" width="6" x="640.5" y="308.1582"/><text fill="#000000" font-family="sans-serif" font-size="14" lengthAdjust="spacing" textLength="31" x="652.5" y="315.4551">roles</text><line style="stroke:#181818;stroke-width:0.5;" x1="633.5" x2="749.5" y1="322.9688" y2="322.9688"/></g><!--class ClientRepository--><g id="elem_ClientRepository"><rect codeLine="16" fill="#F1F1F1" height="103.8633" id="ClientRepository" rx="2.5" ry="2.5" style="stroke:#181818;stroke-width:0.5;" width="200" x="397.5" y="180.5"/><ellipse cx="441.3" cy="196.5" fill="#ADD1B2" rx="11" ry="11" style="stroke:#181818;stroke-width:1.0;"/><path d="M444.0656,192.375 Q444.2219,192.1563 444.4094,192.0469 Q444.5969,191.9375 444.8156,191.9375 Q445.1906,191.9375 445.425,192.2031 Q445.6594,192.4531 445.6594,193.0625 L445.6594,194.5156 Q445.6594,195.125 445.425,195.3906 Q445.1906,195.6563 444.8156,195.6563 Q444.4719,195.6563 444.2688,195.4531 Q444.0656,195.2656 443.9563,194.75 Q443.9094,194.3906 443.7219,194.2031 Q443.3938,193.8281 442.7844,193.6094 Q442.175,193.3906 441.55,193.3906 Q440.7844,193.3906 440.1438,193.7188 Q439.5188,194.0469 439.0188,194.7969 Q438.5344,195.5469 438.5344,196.5781 L438.5344,197.6719 Q438.5344,198.9063 439.425,199.7344 Q440.3156,200.5469 441.9094,200.5469 Q442.8469,200.5469 443.5031,200.2969 Q443.8938,200.1406 444.3156,199.7031 Q444.5813,199.4375 444.7219,199.3594 Q444.8781,199.2813 445.0813,199.2813 Q445.4094,199.2813 445.6594,199.5469 Q445.925,199.7969 445.925,200.1406 Q445.925,200.4844 445.5813,200.8906 Q445.0813,201.4688 444.2844,201.7969 Q443.2063,202.25 441.9094,202.25 Q440.3938,202.25 439.1906,201.625 Q438.2063,201.125 437.5188,200.0625 Q436.8313,198.9844 436.8313,197.7031 L436.8313,196.5469 Q436.8313,195.2188 437.4406,194.0781 Q438.0656,192.9219 439.1594,192.3125 Q440.2531,191.6875 441.4875,191.6875 Q442.2219,191.6875 442.8625,191.8594 Q443.5188,192.0156 444.0656,192.375 Z " fill="#000000"/><text fill="#000000" font-family="sans-serif" font-size="14" lengthAdjust="spacing" textLength="104" x="461.7" y="202.2969">ClientRepository</text><line style="stroke:#181818;stroke-width:0.5;" x1="398.5" x2="596.5" y1="212.5" y2="212.5"/><line style="stroke:#181818;stroke-width:0.5;" x1="398.5" x2="596.5" y1="220.5" y2="220.5"/><rect fill="#F24D5C" height="6" style="stroke:#C82930;stroke-width:1.0;" width="6" x="405.5" y="232.3105"/><text fill="#000000" font-family="sans-serif" font-size="14" lengthAdjust="spacing" textLength="89" x="417.5" y="239.6074">Repositories()</text><ellipse cx="408.5" cy="253.9316" fill="#84BE84" rx="3" ry="3" style="stroke:#038048;stroke-width:1.0;"/><text fill="#000000" font-family="sans-serif" font-size="14" lengthAdjust="spacing" textLength="174" x="417.5" y="258.2285">getInstance() : Repositories</text><ellipse cx="408.5" cy="272.5527" fill="#84BE84" rx="3" ry="3" style="stroke:#038048;stroke-width:1.0;"/><text fill="#000000" font-family="sans-serif" font-size="14" lengthAdjust="spacing" textLength="134" x="417.5" y="276.8496">getClientRepository()</text></g><!--class Client--><g id="elem_Client"><rect codeLine="32" fill="#F1F1F1" height="48" id="Client" rx="2.5" ry="2.5" style="stroke:#181818;stroke-width:0.5;" width="68" x="533.5" y="410"/><ellipse cx="548.5" cy="426" fill="#ADD1B2" rx="11" ry="11" style="stroke:#181818;stroke-width:1.0;"/><path d="M551.2656,421.875 Q551.4219,421.6563 551.6094,421.5469 Q551.7969,421.4375 552.0156,421.4375 Q552.3906,421.4375 552.625,421.7031 Q552.8594,421.9531 552.8594,422.5625 L552.8594,424.0156 Q552.8594,424.625 552.625,424.8906 Q552.3906,425.1563 552.0156,425.1563 Q551.6719,425.1563 551.4688,424.9531 Q551.2656,424.7656 551.1563,424.25 Q551.1094,423.8906 550.9219,423.7031 Q550.5938,423.3281 549.9844,423.1094 Q549.375,422.8906 548.75,422.8906 Q547.9844,422.8906 547.3438,423.2188 Q546.7188,423.5469 546.2188,424.2969 Q545.7344,425.0469 545.7344,426.0781 L545.7344,427.1719 Q545.7344,428.4063 546.625,429.2344 Q547.5156,430.0469 549.1094,430.0469 Q550.0469,430.0469 550.7031,429.7969 Q551.0938,429.6406 551.5156,429.2031 Q551.7813,428.9375 551.9219,428.8594 Q552.0781,428.7813 552.2813,428.7813 Q552.6094,428.7813 552.8594,429.0469 Q553.125,429.2969 553.125,429.6406 Q553.125,429.9844 552.7813,430.3906 Q552.2813,430.9688 551.4844,431.2969 Q550.4063,431.75 549.1094,431.75 Q547.5938,431.75 546.3906,431.125 Q545.4063,430.625 544.7188,429.5625 Q544.0313,428.4844 544.0313,427.2031 L544.0313,426.0469 Q544.0313,424.7188 544.6406,423.5781 Q545.2656,422.4219 546.3594,421.8125 Q547.4531,421.1875 548.6875,421.1875 Q549.4219,421.1875 550.0625,421.3594 Q550.7188,421.5156 551.2656,421.875 Z " fill="#000000"/><text fill="#000000" font-family="sans-serif" font-size="14" lengthAdjust="spacing" textLength="36" x="562.5" y="431.7969">Client</text><line style="stroke:#181818;stroke-width:0.5;" x1="534.5" x2="600.5" y1="442" y2="442"/><line style="stroke:#181818;stroke-width:0.5;" x1="534.5" x2="600.5" y1="450" y2="450"/></g><!--class CreateClientController--><g id="elem_CreateClientController"><rect codeLine="34" fill="#F1F1F1" height="48" id="CreateClientController" rx="2.5" ry="2.5" style="stroke:#181818;stroke-width:0.5;" width="173" x="165" y="7"/><ellipse cx="180" cy="23" fill="#ADD1B2" rx="11" ry="11" style="stroke:#181818;stroke-width:1.0;"/><path d="M182.7656,18.875 Q182.9219,18.6563 183.1094,18.5469 Q183.2969,18.4375 183.5156,18.4375 Q183.8906,18.4375 184.125,18.7031 Q184.3594,18.9531 184.3594,19.5625 L184.3594,21.0156 Q184.3594,21.625 184.125,21.8906 Q183.8906,22.1563 183.5156,22.1563 Q183.1719,22.1563 182.9688,21.9531 Q182.7656,21.7656 182.6563,21.25 Q182.6094,20.8906 182.4219,20.7031 Q182.0938,20.3281 181.4844,20.1094 Q180.875,19.8906 180.25,19.8906 Q179.4844,19.8906 178.8438,20.2188 Q178.2188,20.5469 177.7188,21.2969 Q177.2344,22.0469 177.2344,23.0781 L177.2344,24.1719 Q177.2344,25.4063 178.125,26.2344 Q179.0156,27.0469 180.6094,27.0469 Q181.5469,27.0469 182.2031,26.7969 Q182.5938,26.6406 183.0156,26.2031 Q183.2813,25.9375 183.4219,25.8594 Q183.5781,25.7813 183.7813,25.7813 Q184.1094,25.7813 184.3594,26.0469 Q184.625,26.2969 184.625,26.6406 Q184.625,26.9844 184.2813,27.3906 Q183.7813,27.9688 182.9844,28.2969 Q181.9063,28.75 180.6094,28.75 Q179.0938,28.75 177.8906,28.125 Q176.9063,27.625 176.2188,26.5625 Q175.5313,25.4844 175.5313,24.2031 L175.5313,23.0469 Q175.5313,21.7188 176.1406,20.5781 Q176.7656,19.4219 177.8594,18.8125 Q178.9531,18.1875 180.1875,18.1875 Q180.9219,18.1875 181.5625,18.3594 Q182.2188,18.5156 182.7656,18.875 Z " fill="#000000"/><text fill="#000000" font-family="sans-serif" font-size="14" lengthAdjust="spacing" textLength="141" x="194" y="28.7969">CreateClientController</text><line style="stroke:#181818;stroke-width:0.5;" x1="166" x2="337" y1="39" y2="39"/><line style="stroke:#181818;stroke-width:0.5;" x1="166" x2="337" y1="47" y2="47"/></g><!--class Repositories--><g id="elem_Repositories"><rect fill="#F1F1F1" height="48" id="Repositories" rx="2.5" ry="2.5" style="stroke:#181818;stroke-width:0.5;" width="111" x="442" y="7"/><ellipse cx="457" cy="23" fill="#ADD1B2" rx="11" ry="11" style="stroke:#181818;stroke-width:1.0;"/><path d="M459.7656,18.875 Q459.9219,18.6563 460.1094,18.5469 Q460.2969,18.4375 460.5156,18.4375 Q460.8906,18.4375 461.125,18.7031 Q461.3594,18.9531 461.3594,19.5625 L461.3594,21.0156 Q461.3594,21.625 461.125,21.8906 Q460.8906,22.1563 460.5156,22.1563 Q460.1719,22.1563 459.9688,21.9531 Q459.7656,21.7656 459.6563,21.25 Q459.6094,20.8906 459.4219,20.7031 Q459.0938,20.3281 458.4844,20.1094 Q457.875,19.8906 457.25,19.8906 Q456.4844,19.8906 455.8438,20.2188 Q455.2188,20.5469 454.7188,21.2969 Q454.2344,22.0469 454.2344,23.0781 L454.2344,24.1719 Q454.2344,25.4063 455.125,26.2344 Q456.0156,27.0469 457.6094,27.0469 Q458.5469,27.0469 459.2031,26.7969 Q459.5938,26.6406 460.0156,26.2031 Q460.2813,25.9375 460.4219,25.8594 Q460.5781,25.7813 460.7813,25.7813 Q461.1094,25.7813 461.3594,26.0469 Q461.625,26.2969 461.625,26.6406 Q461.625,26.9844 461.2813,27.3906 Q460.7813,27.9688 459.9844,28.2969 Q458.9063,28.75 457.6094,28.75 Q456.0938,28.75 454.8906,28.125 Q453.9063,27.625 453.2188,26.5625 Q452.5313,25.4844 452.5313,24.2031 L452.5313,23.0469 Q452.5313,21.7188 453.1406,20.5781 Q453.7656,19.4219 454.8594,18.8125 Q455.9531,18.1875 457.1875,18.1875 Q457.9219,18.1875 458.5625,18.3594 Q459.2188,18.5156 459.7656,18.875 Z " fill="#000000"/><text fill="#000000" font-family="sans-serif" font-size="14" lengthAdjust="spacing" textLength="79" x="471" y="28.7969">Repositories</text><line style="stroke:#181818;stroke-width:0.5;" x1="443" x2="552" y1="39" y2="39"/><line style="stroke:#181818;stroke-width:0.5;" x1="443" x2="552" y1="47" y2="47"/></g><!--reverse link User to roles--><g id="link_User_roles"><path d="M691.5,351.46 C691.5,373.76 691.5,394.81 691.5,409.93 " fill="none" id="User-backto-roles" style="stroke:#181818;stroke-width:1.0;"/><polygon fill="none" points="684.5,351.2,691.5,331.2,698.5,351.2,684.5,351.2" style="stroke:#181818;stroke-width:1.0;"/></g><!--reverse link User to Client--><g id="link_User_Client"><path d="M621.67,345.85 C606.63,370.04 592.22,393.23 582.04,409.6 " fill="none" id="User-backto-Client" style="stroke:#181818;stroke-width:1.0;"/><polygon fill="none" points="615.9,341.87,632.41,328.58,627.79,349.26,615.9,341.87" style="stroke:#181818;stroke-width:1.0;"/></g><!--link CreateClientUI to CreateClientController--><g id="link_CreateClientUI_CreateClientController"><path codeLine="38" d="M130.19,31 C133.28,31 146.4,31 159.61,31 " fill="none" id="CreateClientUI-to-CreateClientController" style="stroke:#181818;stroke-width:1.0;stroke-dasharray:7.0,7.0;"/><polygon fill="#181818" points="164.85,31,155.85,27,159.85,31,155.85,35,164.85,31" style="stroke:#181818;stroke-width:1.0;"/></g><!--link CreateClientController to Repositories--><g id="link_CreateClientController_Repositories"><path codeLine="39" d="M338.23,31 C370.79,31 407.08,31 436.78,31 " fill="none" id="CreateClientController-to-Repositories" style="stroke:#181818;stroke-width:1.0;stroke-dasharray:7.0,7.0;"/><polygon fill="#181818" points="441.86,31,432.86,27,436.86,31,432.86,35,441.86,31" style="stroke:#181818;stroke-width:1.0;"/><text fill="#000000" font-family="sans-serif" font-size="13" lengthAdjust="spacing" textLength="67" x="356.5" y="24.0283">repositories</text></g><!--link Repositories to ClientRepository--><g id="link_Repositories_ClientRepository"><path codeLine="40" d="M497.5,55.28 C497.5,84.39 497.5,135.24 497.5,174.85 " fill="none" id="Repositories-to-ClientRepository" style="stroke:#181818;stroke-width:1.0;"/><polygon fill="#181818" points="497.5,180.12,501.5,171.12,497.5,175.12,493.5,171.12,497.5,180.12" style="stroke:#181818;stroke-width:1.0;"/><polygon fill="#000000" points="502.5,99.6455,505.4389,90.6004,499.5611,90.6004,502.5,99.6455" style="stroke:#000000;stroke-width:1.0;"/><text fill="#000000" font-family="sans-serif" font-size="13" lengthAdjust="spacing" textLength="21" x="511.5" y="100.0283">has</text><text fill="#000000" font-family="sans-serif" font-size="13" lengthAdjust="spacing" textLength="7" x="489.6906" y="76.9223">1</text><text fill="#000000" font-family="sans-serif" font-size="13" lengthAdjust="spacing" textLength="5" x="492.1797" y="169.3755">*</text></g><!--link ClientRepository to Client--><g id="link_ClientRepository_Client"><path codeLine="41" d="M515.44,284.62 C528.89,322.97 546.81,374.03 557.73,405.15 " fill="none" id="ClientRepository-to-Client" style="stroke:#181818;stroke-width:1.0;"/><polygon fill="#181818" points="559.42,409.97,560.2183,400.1536,557.7663,405.2514,552.6685,402.7994,559.42,409.97" style="stroke:#181818;stroke-width:1.0;"/><polygon fill="#000000" points="556.1554,375.3635,555.9339,365.8555,550.3876,367.8016,556.1554,375.3635" style="stroke:#000000;stroke-width:1.0;"/><text fill="#000000" font-family="sans-serif" font-size="13" lengthAdjust="spacing" textLength="21" x="563.5" y="376.0283">has</text><text fill="#000000" font-family="sans-serif" font-size="13" lengthAdjust="spacing" textLength="7" x="510.2901" y="306.4427">1</text><text fill="#000000" font-family="sans-serif" font-size="13" lengthAdjust="spacing" textLength="5" x="551.7089" y="398.6998">*</text></g><!--SRC=[TL7DRi8m3BxdAQnUW4rCseuSa2PEN8TuWD1wRKGQHxOHT8XtNsW7jC1oYh-VsFuoagqBqRAjeQP0USLK8oZlqDoOQFEjBN6bZKTWpDM6qlS5Kjc2zYwKy6szz1dl0ceJ4IBvvboOqHEIMCdqNBct8f-gx3OxnMLEOUL-4BAFpBGKB1Yjui8x3BfU7it960ox6fWy2k11CHG2Qq4-cZDviRM6BumaJeaRE1f8PmfNoA6C9otu2YNgCaXQDiVn16O3qKro_sQodoxzkW7Q3i7MsDqAb9nTL4T1EaJj0TBq6-IkjaN1A7yarjRv8HGh2ZXmnDHjJrnqLPj2cgA_z5qefoT1BYXeilgEDsOOChpD_r6Rv_3Pq8yi9SZz10TSzfx1T3g7x2Lx_AKPL5PWRXw8HzTL-mi0]--></g></svg>