<?xml version="1.0" encoding="us-ascii" standalone="no"?><svg xmlns="http://www.w3.org/2000/svg" xmlns:xlink="http://www.w3.org/1999/xlink" contentStyleType="text/css" height="511.2px" preserveAspectRatio="none" style="width:1253px;height:511px;background:#FFFFFF;" version="1.1" viewBox="0 0 1253 511" width="1253.6px" zoomAndPan="magnify"><defs/><g><rect fill="#FFFFFF" height="362.7234" style="stroke:#181818;stroke-width:0.8000000000000002;" width="8" x="48" y="74.8969"/><rect fill="#FFFFFF" height="25.0328" style="stroke:#181818;stroke-width:0.8000000000000002;" width="8" x="478.4" y="93.5297"/><rect fill="#FFFFFF" height="286.825" style="stroke:#181818;stroke-width:0.8000000000000002;" width="8" x="478.4" y="143.5953"/><rect fill="#FFFFFF" height="201.8625" style="stroke:#181818;stroke-width:0.8000000000000002;" width="8" x="896.8" y="203.525"/><rect fill="#FFFFFF" height="25.0328" style="stroke:#181818;stroke-width:0.8000000000000002;" width="8" x="1007.2" y="249.5906"/><rect fill="#FFFFFF" height="25.0328" style="stroke:#181818;stroke-width:0.8000000000000002;" width="8" x="1092.8" y="299.6563"/><rect fill="#FFFFFF" height="25.0328" style="stroke:#181818;stroke-width:0.8000000000000002;" width="8" x="1188.4" y="349.7219"/><rect fill="none" height="165.6297" style="stroke:#000000;stroke-width:1.2000000000000002;" width="420" x="829.2" y="215.525"/><line style="stroke:#181818;stroke-width:0.4000000000000001;stroke-dasharray:5.0,5.0;" x1="52" x2="52" y1="66.8969" y2="444.8203"/><line style="stroke:#181818;stroke-width:0.4000000000000001;stroke-dasharray:5.0,5.0;" x1="482" x2="482" y1="66.8969" y2="444.8203"/><line style="stroke:#181818;stroke-width:0.4000000000000001;stroke-dasharray:5.0,5.0;" x1="900.4" x2="900.4" y1="175.4438" y2="444.8203"/><line style="stroke:#181818;stroke-width:0.4000000000000001;stroke-dasharray:5.0,5.0;" x1="1010.8" x2="1010.8" y1="66.8969" y2="444.8203"/><line style="stroke:#181818;stroke-width:0.4000000000000001;stroke-dasharray:5.0,5.0;" x1="1096.4" x2="1096.4" y1="66.8969" y2="444.8203"/><line style="stroke:#181818;stroke-width:0.4000000000000001;stroke-dasharray:5.0,5.0;" x1="1192.4" x2="1192.4" y1="66.8969" y2="444.8203"/><text fill="#000000" font-family="sans-serif" font-size="11.2" lengthAdjust="spacing" textLength="91.2" x="4" y="64.0859">Unregistered User</text><ellipse cx="52" cy="10.8" fill="#E3E3E3" rx="6.4" ry="6.4" style="stroke:#181818;stroke-width:0.4000000000000001;"/><path d="M52,17.2 L52,38.8 M41.6,23.6 L62.4,23.6 M52,38.8 L41.6,50.8 M52,38.8 L62.4,50.8 " fill="none" style="stroke:#181818;stroke-width:0.4000000000000001;"/><text fill="#000000" font-family="sans-serif" font-size="11.2" lengthAdjust="spacing" textLength="91.2" x="4" y="456.1063">Unregistered User</text><ellipse cx="52" cy="465.7172" fill="#E3E3E3" rx="6.4" ry="6.4" style="stroke:#181818;stroke-width:0.4000000000000001;"/><path d="M52,472.1172 L52,493.7172 M41.6,478.5172 L62.4,478.5172 M52,493.7172 L41.6,505.7172 M52,493.7172 L62.4,505.7172 " fill="none" style="stroke:#181818;stroke-width:0.4000000000000001;"/><rect fill="#E3E3E3" height="26.0969" rx="2" ry="2" style="stroke:#181818;stroke-width:0.4000000000000001;" width="87.2" x="438.8" y="40"/><text fill="#000000" font-family="sans-serif" font-size="11.2" lengthAdjust="spacing" textLength="76" x="444.4" y="57.6859">:CreateClientUI</text><rect fill="#E3E3E3" height="26.0969" rx="2" ry="2" style="stroke:#181818;stroke-width:0.4000000000000001;" width="87.2" x="438.8" y="444.0203"/><text fill="#000000" font-family="sans-serif" font-size="11.2" lengthAdjust="spacing" textLength="76" x="444.4" y="461.7063">:CreateClientUI</text><rect fill="#E3E3E3" height="26.0969" rx="2" ry="2" style="stroke:#181818;stroke-width:0.4000000000000001;" width="127.2" x="837.2" y="444.0203"/><text fill="#000000" font-family="sans-serif" font-size="11.2" lengthAdjust="spacing" textLength="116" x="842.8" y="461.7063">:CreateClientController</text><rect fill="#E3E3E3" height="26.0969" rx="2" ry="2" style="stroke:#181818;stroke-width:0.4000000000000001;" width="77.6" x="972.4" y="40"/><text fill="#000000" font-family="sans-serif" font-size="11.2" lengthAdjust="spacing" textLength="66.4" x="978" y="57.6859">:Repositories</text><rect fill="#E3E3E3" height="26.0969" rx="2" ry="2" style="stroke:#181818;stroke-width:0.4000000000000001;" width="77.6" x="972.4" y="444.0203"/><text fill="#000000" font-family="sans-serif" font-size="11.2" lengthAdjust="spacing" textLength="66.4" x="978" y="461.7063">:Repositories</text><rect fill="#E3E3E3" height="40.9938" rx="2" ry="2" style="stroke:#181818;stroke-width:0.4000000000000001;" width="77.6" x="1058" y="25.1031"/><text fill="#000000" font-family="sans-serif" font-size="11.2" lengthAdjust="spacing" textLength="59.2" x="1067.2" y="42.7891">repositories</text><text fill="#000000" font-family="sans-serif" font-size="11.2" lengthAdjust="spacing" textLength="66.4" x="1063.6" y="57.6859">:Repositories</text><rect fill="#E3E3E3" height="40.9938" rx="2" ry="2" style="stroke:#181818;stroke-width:0.4000000000000001;" width="77.6" x="1058" y="444.0203"/><text fill="#000000" font-family="sans-serif" font-size="11.2" lengthAdjust="spacing" textLength="59.2" x="1067.2" y="461.7063">repositories</text><text fill="#000000" font-family="sans-serif" font-size="11.2" lengthAdjust="spacing" textLength="66.4" x="1063.6" y="476.6031">:Repositories</text><rect fill="#E3E3E3" height="40.9938" rx="2" ry="2" style="stroke:#181818;stroke-width:0.4000000000000001;" width="97.6" x="1143.6" y="25.1031"/><text fill="#000000" font-family="sans-serif" font-size="11.2" lengthAdjust="spacing" textLength="86.4" x="1149.2" y="42.7891">ClientRepository:</text><text fill="#000000" font-family="sans-serif" font-size="11.2" lengthAdjust="spacing" textLength="83.2" x="1150.8" y="57.6859">ClientRepository</text><rect fill="#E3E3E3" height="40.9938" rx="2" ry="2" style="stroke:#181818;stroke-width:0.4000000000000001;" width="97.6" x="1143.6" y="444.0203"/><text fill="#000000" font-family="sans-serif" font-size="11.2" lengthAdjust="spacing" textLength="86.4" x="1149.2" y="461.7063">ClientRepository:</text><text fill="#000000" font-family="sans-serif" font-size="11.2" lengthAdjust="spacing" textLength="83.2" x="1150.8" y="476.6031">ClientRepository</text><rect fill="#FFFFFF" height="362.7234" style="stroke:#181818;stroke-width:0.8000000000000002;" width="8" x="48" y="74.8969"/><rect fill="#FFFFFF" height="25.0328" style="stroke:#181818;stroke-width:0.8000000000000002;" width="8" x="478.4" y="93.5297"/><rect fill="#FFFFFF" height="286.825" style="stroke:#181818;stroke-width:0.8000000000000002;" width="8" x="478.4" y="143.5953"/><rect fill="#FFFFFF" height="201.8625" style="stroke:#181818;stroke-width:0.8000000000000002;" width="8" x="896.8" y="203.525"/><rect fill="#FFFFFF" height="25.0328" style="stroke:#181818;stroke-width:0.8000000000000002;" width="8" x="1007.2" y="249.5906"/><rect fill="#FFFFFF" height="25.0328" style="stroke:#181818;stroke-width:0.8000000000000002;" width="8" x="1092.8" y="299.6563"/><rect fill="#FFFFFF" height="25.0328" style="stroke:#181818;stroke-width:0.8000000000000002;" width="8" x="1188.4" y="349.7219"/><polygon fill="#181818" points="468.8,90.3297,476.8,93.5297,468.8,96.7297,472,93.5297" style="stroke:#181818;stroke-width:0.8000000000000002;"/><line style="stroke:#181818;stroke-width:0.8000000000000002;" x1="56" x2="473.6" y1="93.5297" y2="93.5297"/><text fill="#000000" font-family="sans-serif" font-size="10.4" font-weight="bold" lengthAdjust="spacing" textLength="5.6" x="61.6" y="89.3195">1</text><text fill="#000000" font-family="sans-serif" font-size="10.4" lengthAdjust="spacing" textLength="148.8" x="70.4" y="89.3195">Asks to register has a new User</text><polygon fill="#181818" points="64.8,115.3625,56.8,118.5625,64.8,121.7625,61.6,118.5625" style="stroke:#181818;stroke-width:0.8000000000000002;"/><line style="stroke:#181818;stroke-width:0.8000000000000002;stroke-dasharray:2.0,2.0;" x1="60" x2="481.6" y1="118.5625" y2="118.5625"/><text fill="#000000" font-family="sans-serif" font-size="10.4" font-weight="bold" lengthAdjust="spacing" textLength="5.6" x="69.6" y="114.3523">2</text><text fill="#000000" font-family="sans-serif" font-size="10.4" lengthAdjust="spacing" textLength="394.4" x="78.4" y="114.3523">Request data (name, discription, tax number, email, password, adress, phone, roles )</text><polygon fill="#181818" points="468.8,140.3953,476.8,143.5953,468.8,146.7953,472,143.5953" style="stroke:#181818;stroke-width:0.8000000000000002;"/><line style="stroke:#181818;stroke-width:0.8000000000000002;" x1="56" x2="473.6" y1="143.5953" y2="143.5953"/><text fill="#000000" font-family="sans-serif" font-size="10.4" font-weight="bold" lengthAdjust="spacing" textLength="5.6" x="61.6" y="139.3852">3</text><text fill="#000000" font-family="sans-serif" font-size="10.4" lengthAdjust="spacing" textLength="127.2" x="70.4" y="139.3852">Confirms and Submits Data</text><polygon fill="#181818" points="827.6,165.4281,835.6,168.6281,827.6,171.8281,830.8,168.6281" style="stroke:#181818;stroke-width:0.8000000000000002;"/><line style="stroke:#181818;stroke-width:0.8000000000000002;" x1="486.4" x2="832.4" y1="168.6281" y2="168.6281"/><text fill="#000000" font-family="sans-serif" font-size="10.4" font-weight="bold" lengthAdjust="spacing" textLength="5.6" x="492" y="164.418">4</text><text fill="#000000" font-family="sans-serif" font-size="10.4" lengthAdjust="spacing" textLength="28.8" x="500.8" y="164.418">create</text><rect fill="#E3E3E3" height="26.0969" rx="2" ry="2" style="stroke:#181818;stroke-width:0.4000000000000001;" width="127.2" x="837.2" y="149.9953"/><text fill="#000000" font-family="sans-serif" font-size="11.2" lengthAdjust="spacing" textLength="116" x="842.8" y="167.6813">:CreateClientController</text><polygon fill="#181818" points="887.2,200.325,895.2,203.525,887.2,206.725,890.4,203.525" style="stroke:#181818;stroke-width:0.8000000000000002;"/><line style="stroke:#181818;stroke-width:0.8000000000000002;" x1="486.4" x2="892" y1="203.525" y2="203.525"/><text fill="#000000" font-family="sans-serif" font-size="10.4" font-weight="bold" lengthAdjust="spacing" textLength="5.6" x="492" y="199.3148">5</text><text fill="#000000" font-family="sans-serif" font-size="10.4" lengthAdjust="spacing" textLength="386.4" x="500.8" y="199.3148">RegisterUser(name, discription, tax number, email, password, adress, phone, roles)</text><path d="M829.2,215.525 L931.6,215.525 L931.6,222.9578 L923.6,230.9578 L829.2,230.9578 L829.2,215.525 " fill="#EEEEEE" style="stroke:#000000;stroke-width:1.2000000000000002;"/><rect fill="none" height="165.6297" style="stroke:#000000;stroke-width:1.2000000000000002;" width="420" x="829.2" y="215.525"/><text fill="#000000" font-family="sans-serif" font-size="10.4" font-weight="bold" lengthAdjust="spacing" textLength="66.4" x="841.2" y="227.5477">Create Client</text><polygon fill="#181818" points="997.6,246.3906,1005.6,249.5906,997.6,252.7906,1000.8,249.5906" style="stroke:#181818;stroke-width:0.8000000000000002;"/><line style="stroke:#181818;stroke-width:0.8000000000000002;" x1="904.8" x2="1002.4" y1="249.5906" y2="249.5906"/><text fill="#000000" font-family="sans-serif" font-size="10.4" font-weight="bold" lengthAdjust="spacing" textLength="5.6" x="910.4" y="245.3805">6</text><text fill="#000000" font-family="sans-serif" font-size="10.4" lengthAdjust="spacing" textLength="60" x="919.2" y="245.3805">getInstance()</text><polygon fill="#181818" points="913.6,271.4234,905.6,274.6234,913.6,277.8234,910.4,274.6234" style="stroke:#181818;stroke-width:0.8000000000000002;"/><line style="stroke:#181818;stroke-width:0.8000000000000002;stroke-dasharray:2.0,2.0;" x1="908.8" x2="1010.4" y1="274.6234" y2="274.6234"/><text fill="#000000" font-family="sans-serif" font-size="10.4" font-weight="bold" lengthAdjust="spacing" textLength="5.6" x="918.4" y="270.4133">7</text><text fill="#000000" font-family="sans-serif" font-size="10.4" lengthAdjust="spacing" textLength="53.6" x="927.2" y="270.4133">repositories</text><polygon fill="#181818" points="1083.2,296.4563,1091.2,299.6563,1083.2,302.8563,1086.4,299.6563" style="stroke:#181818;stroke-width:0.8000000000000002;"/><line style="stroke:#181818;stroke-width:0.8000000000000002;" x1="904.8" x2="1088" y1="299.6563" y2="299.6563"/><text fill="#000000" font-family="sans-serif" font-size="10.4" font-weight="bold" lengthAdjust="spacing" textLength="5.6" x="910.4" y="295.4461">8</text><text fill="#000000" font-family="sans-serif" font-size="10.4" lengthAdjust="spacing" textLength="96.8" x="919.2" y="295.4461">getClientRepository()</text><polygon fill="#181818" points="913.6,321.4891,905.6,324.6891,913.6,327.8891,910.4,324.6891" style="stroke:#181818;stroke-width:0.8000000000000002;"/><line style="stroke:#181818;stroke-width:0.8000000000000002;stroke-dasharray:2.0,2.0;" x1="908.8" x2="1096" y1="324.6891" y2="324.6891"/><text fill="#000000" font-family="sans-serif" font-size="10.4" font-weight="bold" lengthAdjust="spacing" textLength="5.6" x="918.4" y="320.4789">9</text><text fill="#000000" font-family="sans-serif" font-size="10.4" lengthAdjust="spacing" textLength="111.2" x="927.2" y="320.4789">taskCategoryRepository</text><polygon fill="#181818" points="1178.8,346.5219,1186.8,349.7219,1178.8,352.9219,1182,349.7219" style="stroke:#181818;stroke-width:0.8000000000000002;"/><line style="stroke:#181818;stroke-width:0.8000000000000002;" x1="904.8" x2="1183.6" y1="349.7219" y2="349.7219"/><text fill="#000000" font-family="sans-serif" font-size="10.4" font-weight="bold" lengthAdjust="spacing" textLength="11.2" x="910.4" y="345.5117">10</text><text fill="#000000" font-family="sans-serif" font-size="10.4" lengthAdjust="spacing" textLength="92.8" x="924.8" y="345.5117">getTaskCategories()</text><polygon fill="#181818" points="913.6,371.5547,905.6,374.7547,913.6,377.9547,910.4,374.7547" style="stroke:#181818;stroke-width:0.8000000000000002;"/><line style="stroke:#181818;stroke-width:0.8000000000000002;stroke-dasharray:2.0,2.0;" x1="908.8" x2="1191.6" y1="374.7547" y2="374.7547"/><text fill="#000000" font-family="sans-serif" font-size="10.4" font-weight="bold" lengthAdjust="spacing" textLength="11.2" x="918.4" y="370.5445">11</text><text fill="#000000" font-family="sans-serif" font-size="10.4" lengthAdjust="spacing" textLength="78.4" x="932.8" y="370.5445">taskCategoryList</text><polygon fill="#181818" points="495.2,402.1875,487.2,405.3875,495.2,408.5875,492,405.3875" style="stroke:#181818;stroke-width:0.8000000000000002;"/><line style="stroke:#181818;stroke-width:0.8000000000000002;stroke-dasharray:2.0,2.0;" x1="490.4" x2="900" y1="405.3875" y2="405.3875"/><text fill="#000000" font-family="sans-serif" font-size="10.4" font-weight="bold" lengthAdjust="spacing" textLength="11.2" x="500" y="401.1773">12</text><text fill="#000000" font-family="sans-serif" font-size="10.4" lengthAdjust="spacing" textLength="44.8" x="514.4" y="401.1773">New User</text><polygon fill="#181818" points="64.8,427.2203,56.8,430.4203,64.8,433.6203,61.6,430.4203" style="stroke:#181818;stroke-width:0.8000000000000002;"/><line style="stroke:#181818;stroke-width:0.8000000000000002;stroke-dasharray:2.0,2.0;" x1="60" x2="481.6" y1="430.4203" y2="430.4203"/><text fill="#000000" font-family="sans-serif" font-size="10.4" font-weight="bold" lengthAdjust="spacing" textLength="11.2" x="69.6" y="426.2102">13</text><text fill="#000000" font-family="sans-serif" font-size="10.4" lengthAdjust="spacing" textLength="126.4" x="84" y="426.2102">Displays Operation Sucess</text><!--SRC=[hLJ1Zjf03BtFLrXSTbd13t1O2S45YNQh1MvxCOa98vAPT3mfoz_NcK08IOXwg6yCzlDxzdFuf4sE3ZF8hB7HqTcCmBk25DV_v1YTCA6DlwG4ZYAF9acR2Np4s9wrIU20APDIM7XhYcnFJgcNeuu93jRwlVrM67dhOBGpZXBDdXp5i6Do8q26-VA74aIl8vsZyJ2QBHoXfqMgoVZTAYJjLWCv2skyisbw1LniFzUjx4_ABMiXeOb3JlrmsUXIbp1_B76DYY_J1VYrdcyVAoekT-3Pbsa_LVHQZqgLyz5_H4wOXO9ho0-OlejqcC6SJmpUmcs0S1Ga14FdCCYwfaQIWTMFPGZALC1Ap9ce_rqGUuZH8xmQp6W2iUR8wTnhQoRWyHkgLKw0CjJfHFp0VBOkdW36ZfZbvMYD5ChaYM5STukfbqHJZIpie5qc2amCcsAVQS-m53AzEjeotiE6tzu4A0ekK4zIWj9gNkMG_elGyKElccRmd4JYR953PSxhfXyAoWZKX6AF1uLnGdvbMAujejTnfxPks6VWJdOPVLscrm7De6dpJdbZa__KxYQil8rAITlhGuh2HVLA27XtpXxvj92AH00RPpJ0lX_wHhTDigA-lNUHsGmHxnvqduXEb-dTfKr5Q_7ha9PEDpBn4sctS_lP_agq8ODvdtujbfhp52yC7pavBEz6RZQIotXsydy1]--></g></svg>