<?xml version="1.0" encoding="us-ascii" standalone="no"?><svg xmlns="http://www.w3.org/2000/svg" xmlns:xlink="http://www.w3.org/1999/xlink" contentStyleType="text/css" height="516px" preserveAspectRatio="none" style="width:785px;height:516px;background:#FFFFFF;" version="1.1" viewBox="0 0 785 516" width="785px" zoomAndPan="magnify"><defs/><g><!--cluster usecases--><g id="cluster_usecases"><rect fill="none" height="450" rx="2.5" ry="2.5" style="stroke:#181818;stroke-width:1.0;" width="596" x="183" y="7"/><text fill="#000000" font-family="sans-serif" font-size="14" font-weight="bold" lengthAdjust="spacing" textLength="95" x="433.5" y="24.1074">RealStateUSA</text></g><g id="elem_Display listed properties"><ellipse cx="374.4493" cy="65.7899" fill="#F1F1F1" rx="96.9493" ry="21.7899" style="stroke:#181818;stroke-width:0.5;"/><text fill="#000000" font-family="sans-serif" font-size="14" lengthAdjust="spacing" textLength="151" x="296.9009" y="70.3039">Display listed properties</text></g><g id="elem_Publish any sale announcement"><ellipse cx="374.73" cy="415.246" fill="#F1F1F1" rx="119.23" ry="26.246" style="stroke:#181818;stroke-width:0.5;"/><text fill="#000000" font-family="sans-serif" font-size="14" lengthAdjust="spacing" textLength="201" x="274.23" y="419.0429">Publish any sale announcement</text></g><g id="elem_Register a new employee"><ellipse cx="374.3743" cy="220.9749" fill="#F1F1F1" rx="100.3743" ry="22.4749" style="stroke:#181818;stroke-width:0.5;"/><text fill="#000000" font-family="sans-serif" font-size="14" lengthAdjust="spacing" textLength="159" x="293.8782" y="225.1376">Register a new employee</text></g><g id="elem_Register a new store"><ellipse cx="374.3534" cy="143.0707" fill="#F1F1F1" rx="88.3534" ry="20.0707" style="stroke:#181818;stroke-width:0.5;"/><text fill="#000000" font-family="sans-serif" font-size="14" lengthAdjust="spacing" textLength="130" x="306.3534" y="147.8744">Register a new store</text></g><g id="elem_Submit a request for listing a property Sale or Rent"><ellipse cx="374.4041" cy="315.9808" fill="#F1F1F1" rx="175.4041" ry="37.4808" style="stroke:#181818;stroke-width:0.5;"/><text fill="#000000" font-family="sans-serif" font-size="14" lengthAdjust="spacing" textLength="320" x="214.4041" y="319.7777">Submit a request for listing a property Sale or Rent</text></g><g id="elem_Select an agent"><ellipse cx="686.6034" cy="370.2207" fill="#F1F1F1" rx="76.6034" ry="17.7207" style="stroke:#181818;stroke-width:0.5;"/><text fill="#000000" font-family="sans-serif" font-size="14" lengthAdjust="spacing" textLength="99" x="634.1034" y="375.0244">Select an agent</text></g><!--entity Unregistered User--><g id="elem_Unregistered User"><ellipse cx="72.5" cy="35" fill="#F1F1F1" rx="8" ry="8" style="stroke:#181818;stroke-width:0.5;"/><path d="M72.5,43 L72.5,70 M59.5,51 L85.5,51 M72.5,70 L59.5,85 M72.5,70 L85.5,85 " fill="none" style="stroke:#181818;stroke-width:0.5;"/><text fill="#000000" font-family="sans-serif" font-size="14" lengthAdjust="spacing" textLength="114" x="15.5" y="101.6074">Unregistered User</text></g><!--entity Agent--><g id="elem_Agent"><ellipse cx="72.5" cy="431" fill="#F1F1F1" rx="8" ry="8" style="stroke:#181818;stroke-width:0.5;"/><path d="M72.5,439 L72.5,466 M59.5,447 L85.5,447 M72.5,466 L59.5,481 M72.5,466 L85.5,481 " fill="none" style="stroke:#181818;stroke-width:0.5;"/><text fill="#000000" font-family="sans-serif" font-size="14" lengthAdjust="spacing" textLength="37" x="54" y="497.6074">Agent</text></g><!--entity System Administrator--><g id="elem_System Administrator"><ellipse cx="72.5" cy="160" fill="#F1F1F1" rx="8" ry="8" style="stroke:#181818;stroke-width:0.5;"/><path d="M72.5,168 L72.5,195 M59.5,176 L85.5,176 M72.5,195 L59.5,210 M72.5,195 L85.5,210 " fill="none" style="stroke:#181818;stroke-width:0.5;"/><text fill="#000000" font-family="sans-serif" font-size="14" lengthAdjust="spacing" textLength="133" x="6" y="226.6074">System Administrator</text></g><!--entity Owner--><g id="elem_Owner"><ellipse cx="72.5" cy="285" fill="#F1F1F1" rx="8" ry="8" style="stroke:#181818;stroke-width:0.5;"/><path d="M72.5,293 L72.5,320 M59.5,301 L85.5,301 M72.5,320 L59.5,335 M72.5,320 L85.5,335 " fill="none" style="stroke:#181818;stroke-width:0.5;"/><text fill="#000000" font-family="sans-serif" font-size="14" lengthAdjust="spacing" textLength="41" x="52" y="351.6074">Owner</text></g><!--link Agent to Publish any sale announcement--><g id="link_Agent_Publish any sale announcement"><path d="M91.37,459.2 C126.34,453.72 206.18,441.21 272.03,430.9 " fill="none" id="Agent-to-Publish any sale announcement" style="stroke:#181818;stroke-width:1.0;"/><polygon fill="#181818" points="277.15,430.09,267.6408,427.5257,272.2098,430.861,268.8745,435.43,277.15,430.09" style="stroke:#181818;stroke-width:1.0;"/></g><!--link Unregistered User to Display listed properties--><g id="link_Unregistered User_Display listed properties"><path d="M129.58,66 C169.58,66 224.51,66 272.11,66 " fill="none" id="Unregistered User-to-Display listed properties" style="stroke:#181818;stroke-width:1.0;"/><polygon fill="#181818" points="277.28,66,268.28,62,272.28,66,268.28,70,277.28,66" style="stroke:#181818;stroke-width:1.0;"/></g><!--link System Administrator to Register a new employee--><g id="link_System Administrator_Register a new employee"><path d="M139.34,197.58 C179.78,201.63 232.28,206.88 277.33,211.38 " fill="none" id="System Administrator-to-Register a new employee" style="stroke:#181818;stroke-width:1.0;"/><polygon fill="#181818" points="282.5,211.9,273.9455,207.0194,277.5251,211.3997,273.1449,214.9793,282.5,211.9" style="stroke:#181818;stroke-width:1.0;"/></g><!--link System Administrator to Register a new store--><g id="link_System Administrator_Register a new store"><path d="M139.34,180.47 C185.78,173.04 248.13,163.06 296.82,155.27 " fill="none" id="System Administrator-to-Register a new store" style="stroke:#181818;stroke-width:1.0;"/><polygon fill="#181818" points="301.79,154.47,292.2654,151.9637,296.8546,155.2711,293.5472,159.8603,301.79,154.47" style="stroke:#181818;stroke-width:1.0;"/></g><!--link Owner to Submit a request for listing a property Sale or Rent--><g id="link_Owner_Submit a request for listing a property Sale or Rent"><path d="M93.18,316 C115.02,316 152.56,316 193.2,316 " fill="none" id="Owner-to-Submit a request for listing a property Sale or Rent" style="stroke:#181818;stroke-width:1.0;"/><polygon fill="#181818" points="198.69,316,189.69,312,193.69,316,189.69,320,198.69,316" style="stroke:#181818;stroke-width:1.0;"/></g><!--link Submit a request for listing a property Sale or Rent to Select an agent--><g id="link_Submit a request for listing a property Sale or Rent_Select an agent"><path d="M511.02,339.61 C548.91,346.21 588.38,353.08 620.17,358.62 " fill="none" id="Submit a request for listing a property Sale or Rent-to-Select an agent" style="stroke:#181818;stroke-width:1.0;"/><polygon fill="#181818" points="625.21,359.5,617.0285,354.0171,620.2839,358.6433,615.6577,361.8988,625.21,359.5" style="stroke:#181818;stroke-width:1.0;"/></g><!--link Agent to Select an agent--><g id="link_Agent_Select an agent"><path d="M91.34,465.35 C155.25,476.63 378.09,509.71 550,458 C594.36,444.66 637.89,411.9 663.18,390.34 " fill="none" id="Agent-to-Select an agent" style="stroke:#181818;stroke-width:1.0;"/><polygon fill="#181818" points="667.09,386.98,657.665,389.8381,663.3068,390.2492,662.8957,395.8911,667.09,386.98" style="stroke:#181818;stroke-width:1.0;"/></g><!--SRC=[dLBBJiCm4BpdArQ-SEel85MKCoXHFc2JR5rBVWHxen8X_frr4wesBGMQWoDxPhopitvWmvQWJWHFACl6e8xeuFaTNM-fA2nj6JX0D7h7q9b8BPlW2smvH52rZwHDOehKvLkY-aRMcZmVTzKe70VhpXalz8XoUWHVzZuBYu93dsirWJcuasBvZrwBKLKIsegHgQxM2Z31aAWLv-cZ0Fdc7QYDIRt54Mmsrq4VGq-H3ILrpdiT6g7i0Fq82QK2UXy6tv8xs3_ZbdEhWE1f3oG9XP7eDYj9YqjADJJEi10YlGsK6BOIGtPgl9RJsUm8LJOaK7dffI8heOXRm2depmF-qxWoDey4Lgl7F_LzPRYJzfTihmzxajwCy1_2arJdvpFHxa_sFkbSTJcCYxYNZ2y0]--></g></svg>