<?xml version="1.0" encoding="us-ascii" standalone="no"?><svg xmlns="http://www.w3.org/2000/svg" xmlns:xlink="http://www.w3.org/1999/xlink" contentStyleType="text/css" height="845px" preserveAspectRatio="none" style="width:825px;height:845px;background:#FFFFFF;" version="1.1" viewBox="0 0 825 845" width="825px" zoomAndPan="magnify"><defs/><g><!--class House--><g id="elem_House"><rect codeLine="10" fill="#F1F1F1" height="185.5898" id="House" rx="2.5" ry="2.5" style="stroke:#181818;stroke-width:0.5;" width="178" x="207" y="262.5"/><text fill="#000000" font-family="sans-serif" font-size="14" lengthAdjust="spacing" textLength="40" x="276" y="282.6074">House</text><line style="stroke:#181818;stroke-width:0.5;" x1="208" x2="384" y1="291.1211" y2="291.1211"/><text fill="#000000" font-family="sans-serif" font-size="14" lengthAdjust="spacing" textLength="111" x="213" y="310.2285">numberOfRooms;</text><text fill="#000000" font-family="sans-serif" font-size="14" lengthAdjust="spacing" textLength="135" x="213" y="328.8496">numberOfBathrooms;</text><text fill="#000000" font-family="sans-serif" font-size="14" lengthAdjust="spacing" textLength="107" x="213" y="347.4707">numberOfFloors;</text><text fill="#000000" font-family="sans-serif" font-size="14" lengthAdjust="spacing" textLength="122" x="213" y="366.0918">numberOfGarages;</text><text fill="#000000" font-family="sans-serif" font-size="14" lengthAdjust="spacing" textLength="156" x="213" y="384.7129">List&lt;String&gt; equipments;</text><text fill="#000000" font-family="sans-serif" font-size="14" lengthAdjust="spacing" textLength="145" x="213" y="403.334">boolean hasBasement;</text><text fill="#000000" font-family="sans-serif" font-size="14" lengthAdjust="spacing" textLength="106" x="213" y="421.9551">boolean hasLoft;</text><text fill="#000000" font-family="sans-serif" font-size="14" lengthAdjust="spacing" textLength="166" x="213" y="440.5762">boolean hasSunExposure;</text></g><!--class Land--><g id="elem_Land"><rect codeLine="23" fill="#F1F1F1" height="55.2422" id="Land" rx="2.5" ry="2.5" style="stroke:#181818;stroke-width:0.5;" width="41" x="275.5" y="7"/><text fill="#000000" font-family="sans-serif" font-size="14" lengthAdjust="spacing" textLength="32" x="280" y="27.1074">Land</text><line style="stroke:#181818;stroke-width:0.5;" x1="276.5" x2="315.5" y1="35.6211" y2="35.6211"/><text fill="#000000" font-family="sans-serif" font-size="14" lengthAdjust="spacing" textLength="29" x="281.5" y="54.7285">area</text></g><!--class Apartment--><g id="elem_Apartment"><rect codeLine="28" fill="#F1F1F1" height="129.7266" id="Apartment" rx="2.5" ry="2.5" style="stroke:#181818;stroke-width:0.5;" width="168" x="212" y="97.5"/><text fill="#000000" font-family="sans-serif" font-size="14" lengthAdjust="spacing" textLength="65" x="263.5" y="117.6074">Apartment</text><line style="stroke:#181818;stroke-width:0.5;" x1="213" x2="379" y1="126.1211" y2="126.1211"/><text fill="#000000" font-family="sans-serif" font-size="14" lengthAdjust="spacing" textLength="111" x="218" y="145.2285">numberOfRooms;</text><text fill="#000000" font-family="sans-serif" font-size="14" lengthAdjust="spacing" textLength="135" x="218" y="163.8496">numberOfBathrooms;</text><text fill="#000000" font-family="sans-serif" font-size="14" lengthAdjust="spacing" textLength="107" x="218" y="182.4707">numberOfFloors;</text><text fill="#000000" font-family="sans-serif" font-size="14" lengthAdjust="spacing" textLength="122" x="218" y="201.0918">numberOfGarages;</text><text fill="#000000" font-family="sans-serif" font-size="14" lengthAdjust="spacing" textLength="156" x="218" y="219.7129">List&lt;String&gt; equipments;</text></g><!--class LegacySystemData--><g id="elem_LegacySystemData"><rect codeLine="37" fill="#F1F1F1" height="36.6211" id="LegacySystemData" rx="2.5" ry="2.5" style="stroke:#181818;stroke-width:0.5;" width="128" x="232" y="616"/><text fill="#000000" font-family="sans-serif" font-size="14" lengthAdjust="spacing" textLength="122" x="235" y="636.1074">LegacySystemData</text><line style="stroke:#181818;stroke-width:0.5;" x1="233" x2="359" y1="644.6211" y2="644.6211"/></g><!--class User--><g id="elem_User"><rect codeLine="40" fill="#F1F1F1" height="166.9688" id="User" rx="2.5" ry="2.5" style="stroke:#181818;stroke-width:0.5;" width="118" x="510" y="444"/><text fill="#000000" font-family="sans-serif" font-size="14" font-style="italic" lengthAdjust="spacing" textLength="30" x="554" y="464.1074">User</text><line style="stroke:#181818;stroke-width:0.5;" x1="511" x2="627" y1="472.6211" y2="472.6211"/><rect fill="none" height="6" style="stroke:#595959;stroke-width:1.0;" width="6" x="518" y="484.4316"/><text fill="#000000" font-family="sans-serif" font-size="14" lengthAdjust="spacing" textLength="35" x="530" y="491.7285">name</text><rect fill="none" height="6" style="stroke:#595959;stroke-width:1.0;" width="6" x="518" y="503.0527"/><text fill="#000000" font-family="sans-serif" font-size="14" lengthAdjust="spacing" textLength="76" x="530" y="510.3496">descriptions</text><rect fill="none" height="6" style="stroke:#595959;stroke-width:1.0;" width="6" x="518" y="521.6738"/><text fill="#000000" font-family="sans-serif" font-size="14" lengthAdjust="spacing" textLength="70" x="530" y="528.9707">tax number</text><rect fill="none" height="6" style="stroke:#595959;stroke-width:1.0;" width="6" x="518" y="540.2949"/><text fill="#000000" font-family="sans-serif" font-size="14" lengthAdjust="spacing" textLength="51" x="530" y="547.5918">address</text><rect fill="none" height="6" style="stroke:#595959;stroke-width:1.0;" width="6" x="518" y="558.916"/><text fill="#000000" font-family="sans-serif" font-size="14" lengthAdjust="spacing" textLength="88" x="530" y="566.2129">email address</text><rect fill="none" height="6" style="stroke:#595959;stroke-width:1.0;" width="6" x="518" y="577.5371"/><text fill="#000000" font-family="sans-serif" font-size="14" lengthAdjust="spacing" textLength="92" x="530" y="584.834">phone number</text><rect fill="none" height="6" style="stroke:#595959;stroke-width:1.0;" width="6" x="518" y="596.1582"/><text fill="#000000" font-family="sans-serif" font-size="14" lengthAdjust="spacing" textLength="60" x="530" y="603.4551">password</text></g><!--class Property--><g id="elem_Property"><rect codeLine="50" fill="#F1F1F1" height="148.3477" id="Property" rx="2.5" ry="2.5" style="stroke:#181818;stroke-width:0.5;" width="85" x="526.5" y="260.5"/><text fill="#000000" font-family="sans-serif" font-size="14" font-style="italic" lengthAdjust="spacing" textLength="54" x="542" y="280.6074">Property</text><line style="stroke:#181818;stroke-width:0.5;" x1="527.5" x2="610.5" y1="289.1211" y2="289.1211"/><text fill="#000000" font-family="sans-serif" font-size="14" lengthAdjust="spacing" textLength="39" x="532.5" y="308.2285">name;</text><text fill="#000000" font-family="sans-serif" font-size="14" lengthAdjust="spacing" textLength="31" x="532.5" y="326.8496">type;</text><text fill="#000000" font-family="sans-serif" font-size="14" lengthAdjust="spacing" textLength="55" x="532.5" y="345.4707">address;</text><text fill="#000000" font-family="sans-serif" font-size="14" lengthAdjust="spacing" textLength="73" x="532.5" y="364.0918">description;</text><text fill="#000000" font-family="sans-serif" font-size="14" lengthAdjust="spacing" textLength="64" x="532.5" y="382.7129">isForSale;</text><text fill="#000000" font-family="sans-serif" font-size="14" lengthAdjust="spacing" textLength="66" x="532.5" y="401.334">isForRent;</text></g><!--class Store--><g id="elem_Store"><rect codeLine="60" fill="#F1F1F1" height="166.9688" id="Store" rx="2.5" ry="2.5" style="stroke:#181818;stroke-width:0.5;" width="146" x="496" y="646"/><text fill="#000000" font-family="sans-serif" font-size="14" lengthAdjust="spacing" textLength="34" x="552" y="666.1074">Store</text><line style="stroke:#181818;stroke-width:0.5;" x1="497" x2="641" y1="674.6211" y2="674.6211"/><rect fill="none" height="6" style="stroke:#595959;stroke-width:1.0;" width="6" x="504" y="686.4316"/><text fill="#000000" font-family="sans-serif" font-size="14" lengthAdjust="spacing" textLength="120" x="516" y="693.7285">branchNumber : int</text><rect fill="none" height="6" style="stroke:#595959;stroke-width:1.0;" width="6" x="504" y="705.0527"/><text fill="#000000" font-family="sans-serif" font-size="14" lengthAdjust="spacing" textLength="73" x="516" y="712.3496">designation</text><rect fill="none" height="6" style="stroke:#595959;stroke-width:1.0;" width="6" x="504" y="723.6738"/><text fill="#000000" font-family="sans-serif" font-size="14" lengthAdjust="spacing" textLength="51" x="516" y="730.9707">address</text><rect fill="none" height="6" style="stroke:#595959;stroke-width:1.0;" width="6" x="504" y="742.2949"/><text fill="#000000" font-family="sans-serif" font-size="14" lengthAdjust="spacing" textLength="40" x="516" y="749.5918">phone</text><rect fill="none" height="6" style="stroke:#595959;stroke-width:1.0;" width="6" x="504" y="760.916"/><text fill="#000000" font-family="sans-serif" font-size="14" lengthAdjust="spacing" textLength="33" x="516" y="768.2129">email</text><rect fill="none" height="6" style="stroke:#595959;stroke-width:1.0;" width="6" x="504" y="779.5371"/><text fill="#000000" font-family="sans-serif" font-size="14" lengthAdjust="spacing" textLength="68" x="516" y="786.834">vatNumber</text><rect fill="none" height="6" style="stroke:#595959;stroke-width:1.0;" width="6" x="504" y="798.1582"/><text fill="#000000" font-family="sans-serif" font-size="14" lengthAdjust="spacing" textLength="56" x="516" y="805.4551">manager</text></g><!--class Administrator--><g id="elem_Administrator"><rect codeLine="69" fill="#F1F1F1" height="36.6211" id="Administrator" rx="2.5" ry="2.5" style="stroke:#181818;stroke-width:0.5;" width="89" x="7" y="763"/><text fill="#000000" font-family="sans-serif" font-size="14" lengthAdjust="spacing" textLength="83" x="10" y="783.1074">Administrator</text><line style="stroke:#181818;stroke-width:0.5;" x1="8" x2="95" y1="791.6211" y2="791.6211"/></g><!--class Role--><g id="elem_Role"><rect codeLine="72" fill="#F1F1F1" height="55.2422" id="Role" rx="2.5" ry="2.5" style="stroke:#181818;stroke-width:0.5;" width="114" x="239" y="783"/><text fill="#000000" font-family="sans-serif" font-size="14" lengthAdjust="spacing" textLength="29" x="281.5" y="803.1074">Role</text><line style="stroke:#181818;stroke-width:0.5;" x1="240" x2="352" y1="811.6211" y2="811.6211"/><ellipse cx="250" cy="826.4316" fill="none" rx="3" ry="3" style="stroke:#545454;stroke-width:1.0;"/><text fill="#000000" font-family="sans-serif" font-size="14" lengthAdjust="spacing" textLength="88" x="259" y="830.7285">ROLE_ADMIN</text></g><!--class Roles--><g id="elem_Roles"><rect codeLine="75" fill="#F1F1F1" height="55.2422" id="Roles" rx="2.5" ry="2.5" style="stroke:#181818;stroke-width:0.5;" width="78" x="740" y="500"/><text fill="#000000" font-family="sans-serif" font-size="14" lengthAdjust="spacing" textLength="36" x="761" y="520.1074">Roles</text><line style="stroke:#181818;stroke-width:0.5;" x1="741" x2="817" y1="528.6211" y2="528.6211"/><ellipse cx="751" cy="543.4316" fill="none" rx="3" ry="3" style="stroke:#545454;stroke-width:1.0;"/><text fill="#000000" font-family="sans-serif" font-size="14" lengthAdjust="spacing" textLength="52" x="760" y="547.7285">OWNER</text></g><!--class Client--><g id="elem_Client"><rect codeLine="78" fill="#F1F1F1" height="55.2422" id="Client" rx="2.5" ry="2.5" style="stroke:#181818;stroke-width:0.5;" width="176" x="208" y="484"/><text fill="#000000" font-family="sans-serif" font-size="14" lengthAdjust="spacing" textLength="36" x="278" y="504.1074">Client</text><line style="stroke:#181818;stroke-width:0.5;" x1="209" x2="383" y1="512.6211" y2="512.6211"/><text fill="#000000" font-family="sans-serif" font-size="14" lengthAdjust="spacing" textLength="164" x="214" y="531.7285">List&lt;Property&gt; properties;</text></g><!--class StoreNetWork--><g id="elem_StoreNetWork"><rect fill="#F1F1F1" height="36.6211" id="StoreNetWork" rx="2.5" ry="2.5" style="stroke:#181818;stroke-width:0.5;" width="94" x="249" y="711"/><text fill="#000000" font-family="sans-serif" font-size="14" lengthAdjust="spacing" textLength="88" x="252" y="731.1074">StoreNetWork</text><line style="stroke:#181818;stroke-width:0.5;" x1="250" x2="342" y1="739.6211" y2="739.6211"/></g><!--link Administrator to Role--><g id="link_Administrator_Role"><path codeLine="86" d="M96.13,786.72 C136.09,791.5 195.44,798.59 238.9,803.79 " fill="none" id="Administrator-Role" style="stroke:#181818;stroke-width:1.0;"/><text fill="#000000" font-family="sans-serif" font-size="13" lengthAdjust="spacing" textLength="7" x="104.1015" y="803.0762">1</text><text fill="#000000" font-family="sans-serif" font-size="13" lengthAdjust="spacing" textLength="5" x="225.8913" y="818.0621">*</text></g><!--link Administrator to LegacySystemData--><g id="link_Administrator_LegacySystemData"><path codeLine="88" d="M83.21,762.88 C129.73,734.68 217.56,681.44 264.15,653.2 " fill="none" id="Administrator-LegacySystemData" style="stroke:#181818;stroke-width:1.0;"/><polygon fill="#000000" points="135.2758,696.5537,126.0174,698.7291,129.0643,703.7556,135.2758,696.5537" style="stroke:#000000;stroke-width:1.0;"/><text fill="#000000" font-family="sans-serif" font-size="13" lengthAdjust="spacing" textLength="36" x="140" y="704.5283">import</text><text fill="#000000" font-family="sans-serif" font-size="13" lengthAdjust="spacing" textLength="7" x="84.8493" y="751.7054">1</text><text fill="#000000" font-family="sans-serif" font-size="13" lengthAdjust="spacing" textLength="5" x="249.9184" y="674.6283">*</text></g><!--link LegacySystemData to User--><g id="link_LegacySystemData_User"><path codeLine="89" d="M360.31,636.19 C393.06,634.91 432.99,629.92 466,615.5 C481.54,608.71 496.46,598.71 509.86,587.86 " fill="none" id="LegacySystemData-User" style="stroke:#181818;stroke-width:1.0;"/><polygon fill="#000000" points="424.7577,604.608,415.2472,604.5929,417.0547,610.1859,424.7577,604.608" style="stroke:#000000;stroke-width:1.0;"/><text fill="#000000" font-family="sans-serif" font-size="13" lengthAdjust="spacing" textLength="36" x="429" y="611.5283">create</text><text fill="#000000" font-family="sans-serif" font-size="13" lengthAdjust="spacing" textLength="7" x="368.1505" y="651.4353">1</text><text fill="#000000" font-family="sans-serif" font-size="13" lengthAdjust="spacing" textLength="20" x="481.8657" y="609.8689">0..*</text></g><!--link LegacySystemData to Property--><g id="link_LegacySystemData_Property"><path codeLine="90" d="M319.09,615.7 C337.13,600.16 363.13,577.35 385,556.5 C422.31,520.94 433.97,513.88 466,473.5 C481.4,454.09 481.68,446.73 496,426.5 C505.49,413.09 516.19,398.96 526.37,385.9 " fill="none" id="LegacySystemData-Property" style="stroke:#181818;stroke-width:1.0;"/><polygon fill="#000000" points="423.3489,460.4327,415.1083,465.1808,419.473,469.1177,423.3489,460.4327" style="stroke:#000000;stroke-width:1.0;"/><text fill="#000000" font-family="sans-serif" font-size="13" lengthAdjust="spacing" textLength="36" x="429" y="469.5283">create</text><text fill="#000000" font-family="sans-serif" font-size="13" lengthAdjust="spacing" textLength="7" x="317.8446" y="604.8073">1</text><text fill="#000000" font-family="sans-serif" font-size="13" lengthAdjust="spacing" textLength="20" x="498.64" y="408.722">0..*</text></g><!--link LegacySystemData to Store--><g id="link_LegacySystemData_Store"><path codeLine="91" d="M349.89,653.04 C391.48,667.62 449.86,688.09 495.76,704.18 " fill="none" id="LegacySystemData-Store" style="stroke:#181818;stroke-width:1.0;"/><polygon fill="#000000" points="424.7184,668.7997,417.155,663.0338,415.2104,668.5806,424.7184,668.7997" style="stroke:#000000;stroke-width:1.0;"/><text fill="#000000" font-family="sans-serif" font-size="13" lengthAdjust="spacing" textLength="36" x="429" y="672.5283">create</text><text fill="#000000" font-family="sans-serif" font-size="13" lengthAdjust="spacing" textLength="7" x="357.0622" y="674.7675">1</text><text fill="#000000" font-family="sans-serif" font-size="13" lengthAdjust="spacing" textLength="20" x="468.0863" y="716.6726">0..*</text></g><!--link User to Roles--><g id="link_User_Roles"><path codeLine="93" d="M628.22,527.5 C663.91,527.5 708.59,527.5 739.83,527.5 " fill="none" id="User-Roles" style="stroke:#181818;stroke-width:1.0;"/><polygon fill="#000000" points="682,518.1455,672.9549,515.2066,672.9549,521.0844,682,518.1455" style="stroke:#000000;stroke-width:1.0;"/><text fill="#000000" font-family="sans-serif" font-size="13" lengthAdjust="spacing" textLength="23" x="686" y="523.5283">with</text><text fill="#000000" font-family="sans-serif" font-size="13" lengthAdjust="spacing" textLength="7" x="635.864" y="542.5839">1</text><text fill="#000000" font-family="sans-serif" font-size="13" lengthAdjust="spacing" textLength="7" x="724.9627" y="543.1">1</text></g><!--link Client to User--><g id="link_Client_User"><path codeLine="94" d="M384.24,516.65 C418.03,518.65 456.44,520.91 489.37,522.86 " fill="none" id="Client-to-User" style="stroke:#181818;stroke-width:1.0;"/><polygon fill="none" points="490.04,515.88,509.59,524.05,489.21,529.86,490.04,515.88" style="stroke:#181818;stroke-width:1.0;"/></g><!--link Client to Property--><g id="link_Client_Property"><path codeLine="95" d="M352.58,483.95 C363.48,478.13 374.72,471.82 385,465.5 C435.25,434.59 489.89,394.57 526.26,366.93 " fill="none" id="Client-Property" style="stroke:#181818;stroke-width:1.0;"/><text fill="#000000" font-family="sans-serif" font-size="13" lengthAdjust="spacing" textLength="7" x="357.8547" y="472.6474">1</text><text fill="#000000" font-family="sans-serif" font-size="13" lengthAdjust="spacing" textLength="5" x="513.4844" y="387.9883">*</text></g><!--link Apartment to Property--><g id="link_Apartment_Property"><path codeLine="97" d="M380.15,215.27 C421.92,241.79 471.54,273.28 509.29,297.24 " fill="none" id="Apartment-to-Property" style="stroke:#181818;stroke-width:1.0;"/><polygon fill="none" points="513.12,291.37,526.25,308,505.61,303.2,513.12,291.37" style="stroke:#181818;stroke-width:1.0;"/></g><!--link Land to Property--><g id="link_Land_Property"><path codeLine="98" d="M316.78,41.46 C335.74,48.82 364.45,61.82 385,79.5 C438.53,125.56 484.76,190.34 517.37,243.08 " fill="none" id="Land-to-Property" style="stroke:#181818;stroke-width:1.0;"/><polygon fill="none" points="523.52,239.72,527.89,260.46,511.54,246.98,523.52,239.72" style="stroke:#181818;stroke-width:1.0;"/></g><!--link House to Property--><g id="link_House_Property"><path codeLine="99" d="M385.36,348.65 C424.91,345.59 470.57,342.05 506.35,339.28 " fill="none" id="House-to-Property" style="stroke:#181818;stroke-width:1.0;"/><polygon fill="none" points="505.93,332.29,526.41,337.72,507.01,346.25,505.93,332.29" style="stroke:#181818;stroke-width:1.0;"/></g><!--link StoreNetWork to Store--><g id="link_StoreNetWork_Store"><path codeLine="100" d="M343.28,729.5 C385.15,729.5 447.49,729.5 495.9,729.5 " fill="none" id="StoreNetWork-Store" style="stroke:#181818;stroke-width:1.0;"/><text fill="#000000" font-family="sans-serif" font-size="13" lengthAdjust="spacing" textLength="7" x="351.0557" y="744.8812">1</text><text fill="#000000" font-family="sans-serif" font-size="13" lengthAdjust="spacing" textLength="5" x="483.1038" y="744.4215">*</text></g><!--SRC=[nLHDZzCm4BtxLunw16N5NbbKQPVT1QJIeaPeZsYQJ1EhiHti2TrguRzZEqxw2U96JkFtnZDlFXotaRf5YmgKqQQehL44R3iIRcHQB3POKSwxXi1ImQYhvj31rLYQhTGLhB5n94H3QmOsO6LLCvGoN9962o5gMH8KqXO-GBGLSMrA9ue6dOEFfdFq8Y1-kbChielrqXZbRax0EsGlzWBns1XZpz0FNcX50poJZj_bRBtaAT3tJhQAD0_iofY6K4EDxWuT1UgScPdr1JJlzCDpQrndwSPN-qkakcQeoxuij8G7nAtl88SCgUZ_KFE1IggmsEKxnwJkaV4bKBXoRB5Ww7s-Eh9HQmOQ5VLMIQwmiWqpTY80mFYSTFHdB4jBBf6aK3R7K5iRJKStMfzjQsnvGSCNQrgol1jwvdKCjVEk7UsKO3WUY1mWwHwDpR6X8s0P1-xJfhRaR2n1doo3bKLTrFEe5Dw2r9m87rzM6kEYzyY-md2A9IOxTY3PFv3dGztXh53xiLal8Ar8gQIMeG5UHnm9-Jx1qYzTh-arB1UpXs-tzvy_pJqziYxHYwVvmt8CzxwH-tMBIp6qSmfjRycmDA5-_nrbXydr9CichoOn_X_9qptoRPg2LAsnBCwu_jQRgoj_CInNT2xyAs7wk_CW-vyln3aUE8kOhlUuxajoCTXMSYrIeo3BVawZC960iSn1WE_3y8fxxv48p_u4Yd-u4omAcnC_6RlPXu-edy1l]--></g></svg>