<?xml version="1.0" encoding="us-ascii" standalone="no"?><svg xmlns="http://www.w3.org/2000/svg" xmlns:xlink="http://www.w3.org/1999/xlink" contentStyleType="text/css" height="431px" preserveAspectRatio="none" style="width:1203px;height:431px;background:#FFFFFF;" version="1.1" viewBox="0 0 1203 431" width="1203px" zoomAndPan="magnify"><defs/><g><rect fill="#FFFFFF" height="245.3672" style="stroke:#181818;stroke-width:1.0;" width="10" x="56" y="93.6211"/><rect fill="#FFFFFF" height="213.0762" style="stroke:#181818;stroke-width:1.0;" width="10" x="502" y="116.9121"/><rect fill="#FFFFFF" height="106.873" style="stroke:#181818;stroke-width:1.0;" width="10" x="943" y="191.8242"/><line style="stroke:#181818;stroke-width:0.5;stroke-dasharray:5.0,5.0;" x1="61" x2="61" y1="83.6211" y2="347.9883"/><line style="stroke:#181818;stroke-width:0.5;stroke-dasharray:5.0,5.0;" x1="507" x2="507" y1="83.6211" y2="347.9883"/><line style="stroke:#181818;stroke-width:0.5;stroke-dasharray:5.0,5.0;" x1="948" x2="948" y1="156.7227" y2="347.9883"/><text fill="#000000" font-family="sans-serif" font-size="14" lengthAdjust="spacing" textLength="106" x="5" y="80.1074">NetworkManager</text><ellipse cx="61" cy="13.5" fill="#E3E3E3" rx="8" ry="8" style="stroke:#181818;stroke-width:0.5;"/><path d="M61,21.5 L61,48.5 M48,29.5 L74,29.5 M61,48.5 L48,63.5 M61,48.5 L74,63.5 " fill="none" style="stroke:#181818;stroke-width:0.5;"/><text fill="#000000" font-family="sans-serif" font-size="14" lengthAdjust="spacing" textLength="106" x="5" y="362.0957">NetworkManager</text><ellipse cx="61" cy="374.1094" fill="#E3E3E3" rx="8" ry="8" style="stroke:#181818;stroke-width:0.5;"/><path d="M61,382.1094 L61,409.1094 M48,390.1094 L74,390.1094 M61,409.1094 L48,424.1094 M61,409.1094 L74,424.1094 " fill="none" style="stroke:#181818;stroke-width:0.5;"/><rect fill="#E3E3E3" height="32.6211" rx="2.5" ry="2.5" style="stroke:#181818;stroke-width:0.5;" width="126" x="444" y="50"/><text fill="#000000" font-family="sans-serif" font-size="14" lengthAdjust="spacing" textLength="112" x="451" y="72.1074">:ShowEmployeeUI</text><rect fill="#E3E3E3" height="32.6211" rx="2.5" ry="2.5" style="stroke:#181818;stroke-width:0.5;" width="126" x="444" y="346.9883"/><text fill="#000000" font-family="sans-serif" font-size="14" lengthAdjust="spacing" textLength="112" x="451" y="369.0957">:ShowEmployeeUI</text><rect fill="#E3E3E3" height="32.6211" rx="2.5" ry="2.5" style="stroke:#181818;stroke-width:0.5;" width="176" x="860" y="346.9883"/><text fill="#000000" font-family="sans-serif" font-size="14" lengthAdjust="spacing" textLength="162" x="867" y="369.0957">:ShowEmployeeController</text><rect fill="#FFFFFF" height="245.3672" style="stroke:#181818;stroke-width:1.0;" width="10" x="56" y="93.6211"/><rect fill="#FFFFFF" height="213.0762" style="stroke:#181818;stroke-width:1.0;" width="10" x="502" y="116.9121"/><rect fill="#FFFFFF" height="106.873" style="stroke:#181818;stroke-width:1.0;" width="10" x="943" y="191.8242"/><polygon fill="#181818" points="490,112.9121,500,116.9121,490,120.9121,494,116.9121" style="stroke:#181818;stroke-width:1.0;"/><line style="stroke:#181818;stroke-width:1.0;" x1="66" x2="496" y1="116.9121" y2="116.9121"/><text fill="#000000" font-family="sans-serif" font-size="13" font-weight="bold" lengthAdjust="spacing" textLength="7" x="73" y="111.6494">1</text><text fill="#000000" font-family="sans-serif" font-size="13" lengthAdjust="spacing" textLength="168" x="84" y="111.6494">Request to list all employees</text><polygon fill="#181818" points="848,144.2031,858,148.2031,848,152.2031,852,148.2031" style="stroke:#181818;stroke-width:1.0;"/><line style="stroke:#181818;stroke-width:1.0;" x1="512" x2="854" y1="148.2031" y2="148.2031"/><text fill="#000000" font-family="sans-serif" font-size="13" font-weight="bold" lengthAdjust="spacing" textLength="7" x="519" y="142.9404">2</text><text fill="#000000" font-family="sans-serif" font-size="13" lengthAdjust="spacing" textLength="36" x="530" y="142.9404">create</text><rect fill="#E3E3E3" height="32.6211" rx="2.5" ry="2.5" style="stroke:#181818;stroke-width:0.5;" width="176" x="860" y="124.9121"/><text fill="#000000" font-family="sans-serif" font-size="14" lengthAdjust="spacing" textLength="162" x="867" y="147.0195">:ShowEmployeeController</text><polygon fill="#181818" points="931,187.8242,941,191.8242,931,195.8242,935,191.8242" style="stroke:#181818;stroke-width:1.0;"/><line style="stroke:#181818;stroke-width:1.0;" x1="512" x2="937" y1="191.8242" y2="191.8242"/><text fill="#000000" font-family="sans-serif" font-size="13" font-weight="bold" lengthAdjust="spacing" textLength="7" x="519" y="186.5615">3</text><text fill="#000000" font-family="sans-serif" font-size="13" lengthAdjust="spacing" textLength="63" x="530" y="186.5615">Get Stores</text><polygon fill="#181818" points="931,219.1152,941,223.1152,931,227.1152,935,223.1152" style="stroke:#181818;stroke-width:1.0;"/><line style="stroke:#181818;stroke-width:1.0;" x1="512" x2="937" y1="223.1152" y2="223.1152"/><text fill="#000000" font-family="sans-serif" font-size="13" font-weight="bold" lengthAdjust="spacing" textLength="7" x="519" y="217.8525">4</text><text fill="#000000" font-family="sans-serif" font-size="13" lengthAdjust="spacing" textLength="83" x="530" y="217.8525">Get Employee</text><line style="stroke:#181818;stroke-width:1.0;" x1="953" x2="995" y1="254.4063" y2="254.4063"/><line style="stroke:#181818;stroke-width:1.0;" x1="995" x2="995" y1="254.4063" y2="267.4063"/><line style="stroke:#181818;stroke-width:1.0;" x1="954" x2="995" y1="267.4063" y2="267.4063"/><polygon fill="#181818" points="964,263.4063,954,267.4063,964,271.4063,960,267.4063" style="stroke:#181818;stroke-width:1.0;"/><text fill="#000000" font-family="sans-serif" font-size="13" font-weight="bold" lengthAdjust="spacing" textLength="7" x="960" y="249.1436">5</text><text fill="#000000" font-family="sans-serif" font-size="13" lengthAdjust="spacing" textLength="225" x="971" y="249.1436">Sort employees alphabetically by store</text><polygon fill="#181818" points="523,294.6973,513,298.6973,523,302.6973,519,298.6973" style="stroke:#181818;stroke-width:1.0;"/><line style="stroke:#181818;stroke-width:1.0;stroke-dasharray:2.0,2.0;" x1="517" x2="947" y1="298.6973" y2="298.6973"/><text fill="#000000" font-family="sans-serif" font-size="13" font-weight="bold" lengthAdjust="spacing" textLength="7" x="529" y="293.4346">6</text><text fill="#000000" font-family="sans-serif" font-size="13" lengthAdjust="spacing" textLength="396" x="540" y="293.4346">Returns List of Stores and respective employees order alphabetically</text><polygon fill="#181818" points="77,325.9883,67,329.9883,77,333.9883,73,329.9883" style="stroke:#181818;stroke-width:1.0;"/><line style="stroke:#181818;stroke-width:1.0;stroke-dasharray:2.0,2.0;" x1="71" x2="506" y1="329.9883" y2="329.9883"/><text fill="#000000" font-family="sans-serif" font-size="13" font-weight="bold" lengthAdjust="spacing" textLength="7" x="83" y="324.7256">7</text><text fill="#000000" font-family="sans-serif" font-size="13" lengthAdjust="spacing" textLength="401" x="94" y="324.7256">Displays List of Stores and respective employees order alphabetically</text><!--SRC=[hP51JiCm44NtFiMe6wHAkK0NtHI4AW6BXXvWaamRgxR7s1DARezDqoH55IkoYUJvy_x_TZnfvp6W1SkEwpQm9P3GaOhZn6DzmYELqXk2GBMWEvgv8BROy5cx8npGH58AEs7NsOg2KW-jRWWEp5Bnby9QEC3YZUJCuVIABe730Z22iohHHDVQenDOhCgMpq_M6-w9zjiVpNxxXsR3JW8RC_0sxxiNfRAX_aIXp5SmVCv2iKuqM07iwAEZA20CHgS_6WCq8EEuCM9IXF4m0H8c6osN2LK7IefxupHy9e4oTR_7l4I5QQzOvwFBqhNUTJxficPGbXnaIfqw-1OhIXULslHGzH2pzUqg5DSxs95qmKLuoVtvCEG4T4rwxkWfvwGPdaD3uPV9n6xejjYyLx5sTWMFEdg3_JyPplpoutm3]--></g></svg>