<?xml version="1.0" encoding="us-ascii" standalone="no"?><svg xmlns="http://www.w3.org/2000/svg" xmlns:xlink="http://www.w3.org/1999/xlink" contentStyleType="text/css" height="1098.4px" preserveAspectRatio="none" style="width:1620px;height:1098px;background:#FFFFFF;" version="1.1" viewBox="0 0 1620 1098" width="1620px" zoomAndPan="magnify"><defs/><g><rect fill="#FFFFFF" height="950.4781" style="stroke:#181818;stroke-width:0.8000000000000002;" width="8" x="44.8" y="74.8969"/><rect fill="#FFFFFF" height="924.6453" style="stroke:#181818;stroke-width:0.8000000000000002;" width="8" x="407.2" y="93.5297"/><rect fill="#FFFFFF" height="839.6828" style="stroke:#181818;stroke-width:0.8000000000000002;" width="8" x="765.6" y="153.4594"/><rect fill="#FFFFFF" height="151.7969" style="stroke:#181818;stroke-width:0.8000000000000002;" width="8" x="979.2" y="278.6234"/><rect fill="#FFFFFF" height="151.7969" style="stroke:#181818;stroke-width:0.8000000000000002;" width="8" x="979.2" y="730.8141"/><rect fill="#FFFFFF" height="25.0328" style="stroke:#181818;stroke-width:0.8000000000000002;" width="8" x="979.2" y="907.6438"/><rect fill="#FFFFFF" height="25.0328" style="stroke:#181818;stroke-width:0.8000000000000002;" width="8" x="1091.2" y="555.5844"/><rect fill="#FFFFFF" height="25.0328" style="stroke:#181818;stroke-width:0.8000000000000002;" width="8" x="1194" y="178.4922"/><rect fill="#FFFFFF" height="25.0328" style="stroke:#181818;stroke-width:0.8000000000000002;" width="8" x="1194" y="455.4531"/><rect fill="#FFFFFF" height="25.0328" style="stroke:#181818;stroke-width:0.8000000000000002;" width="8" x="1194" y="630.6828"/><rect fill="#FFFFFF" height="25.0328" style="stroke:#181818;stroke-width:0.8000000000000002;" width="8" x="1279.6" y="228.5578"/><rect fill="#FFFFFF" height="25.0328" style="stroke:#181818;stroke-width:0.8000000000000002;" width="8" x="1279.6" y="505.5188"/><rect fill="#FFFFFF" height="25.0328" style="stroke:#181818;stroke-width:0.8000000000000002;" width="8" x="1279.6" y="680.7484"/><rect fill="#FFFFFF" height="75.0984" style="stroke:#181818;stroke-width:0.8000000000000002;" width="8" x="1400.8" y="324.6891"/><rect fill="#FFFFFF" height="75.0984" style="stroke:#181818;stroke-width:0.8000000000000002;" width="8" x="1400.8" y="776.8797"/><rect fill="#FFFFFF" height="25.0328" style="stroke:#181818;stroke-width:0.8000000000000002;" width="8" x="1543.2" y="349.7219"/><rect fill="#FFFFFF" height="25.0328" style="stroke:#181818;stroke-width:0.8000000000000002;" width="8" x="1543.2" y="801.9125"/><rect fill="none" height="115.5641" style="stroke:#000000;stroke-width:1.2000000000000002;" width="688" x="927.2" y="290.6234"/><rect fill="none" height="115.5641" style="stroke:#000000;stroke-width:1.2000000000000002;" width="688" x="927.2" y="742.8141"/><line style="stroke:#181818;stroke-width:0.4000000000000001;stroke-dasharray:5.0,5.0;" x1="48.8" x2="48.8" y1="66.8969" y2="1032.575"/><line style="stroke:#181818;stroke-width:0.4000000000000001;stroke-dasharray:5.0,5.0;" x1="411.2" x2="411.2" y1="66.8969" y2="1032.575"/><line style="stroke:#181818;stroke-width:0.4000000000000001;stroke-dasharray:5.0,5.0;" x1="769.6" x2="769.6" y1="125.3781" y2="1032.575"/><line style="stroke:#181818;stroke-width:0.4000000000000001;stroke-dasharray:5.0,5.0;" x1="983.2" x2="983.2" y1="66.8969" y2="1032.575"/><line style="stroke:#181818;stroke-width:0.4000000000000001;stroke-dasharray:5.0,5.0;" x1="1095.2" x2="1095.2" y1="66.8969" y2="1032.575"/><line style="stroke:#181818;stroke-width:0.4000000000000001;stroke-dasharray:5.0,5.0;" x1="1197.6" x2="1197.6" y1="66.8969" y2="1032.575"/><line style="stroke:#181818;stroke-width:0.4000000000000001;stroke-dasharray:5.0,5.0;" x1="1283.2" x2="1283.2" y1="66.8969" y2="1032.575"/><line style="stroke:#181818;stroke-width:0.4000000000000001;stroke-dasharray:5.0,5.0;" x1="1404.8" x2="1404.8" y1="66.8969" y2="1032.575"/><line style="stroke:#181818;stroke-width:0.4000000000000001;stroke-dasharray:5.0,5.0;" x1="1547.2" x2="1547.2" y1="66.8969" y2="1032.575"/><text fill="#000000" font-family="sans-serif" font-size="11.2" lengthAdjust="spacing" textLength="84.8" x="4" y="64.0859">NetworkManager</text><ellipse cx="48.8" cy="10.8" fill="#E3E3E3" rx="6.4" ry="6.4" style="stroke:#181818;stroke-width:0.4000000000000001;"/><path d="M48.8,17.2 L48.8,38.8 M38.4,23.6 L59.2,23.6 M48.8,38.8 L38.4,50.8 M48.8,38.8 L59.2,50.8 " fill="none" style="stroke:#181818;stroke-width:0.4000000000000001;"/><text fill="#000000" font-family="sans-serif" font-size="11.2" lengthAdjust="spacing" textLength="84.8" x="4" y="1043.8609">NetworkManager</text><ellipse cx="48.8" cy="1053.4719" fill="#E3E3E3" rx="6.4" ry="6.4" style="stroke:#181818;stroke-width:0.4000000000000001;"/><path d="M48.8,1059.8719 L48.8,1081.4719 M38.4,1066.2719 L59.2,1066.2719 M48.8,1081.4719 L38.4,1093.4719 M48.8,1081.4719 L59.2,1093.4719 " fill="none" style="stroke:#181818;stroke-width:0.4000000000000001;"/><rect fill="#E3E3E3" height="26.0969" rx="2" ry="2" style="stroke:#181818;stroke-width:0.4000000000000001;" width="100.8" x="360.8" y="40"/><text fill="#000000" font-family="sans-serif" font-size="11.2" lengthAdjust="spacing" textLength="89.6" x="366.4" y="57.6859">:ShowEmployeeUI</text><rect fill="#E3E3E3" height="26.0969" rx="2" ry="2" style="stroke:#181818;stroke-width:0.4000000000000001;" width="100.8" x="360.8" y="1031.775"/><text fill="#000000" font-family="sans-serif" font-size="11.2" lengthAdjust="spacing" textLength="89.6" x="366.4" y="1049.4609">:ShowEmployeeUI</text><rect fill="#E3E3E3" height="26.0969" rx="2" ry="2" style="stroke:#181818;stroke-width:0.4000000000000001;" width="140.8" x="699.2" y="1031.775"/><text fill="#000000" font-family="sans-serif" font-size="11.2" lengthAdjust="spacing" textLength="129.6" x="704.8" y="1049.4609">:ShowEmployeeController</text><rect fill="#E3E3E3" height="40.9938" rx="2" ry="2" style="stroke:#181818;stroke-width:0.4000000000000001;" width="96" x="935.2" y="25.1031"/><text fill="#000000" font-family="sans-serif" font-size="11.2" lengthAdjust="spacing" textLength="84.8" x="940.8" y="42.7891">StoreRepository:</text><text fill="#000000" font-family="sans-serif" font-size="11.2" lengthAdjust="spacing" textLength="81.6" x="942.4" y="57.6859">StoreRepository</text><rect fill="#E3E3E3" height="40.9938" rx="2" ry="2" style="stroke:#181818;stroke-width:0.4000000000000001;" width="96" x="935.2" y="1031.775"/><text fill="#000000" font-family="sans-serif" font-size="11.2" lengthAdjust="spacing" textLength="84.8" x="940.8" y="1049.4609">StoreRepository:</text><text fill="#000000" font-family="sans-serif" font-size="11.2" lengthAdjust="spacing" textLength="81.6" x="942.4" y="1064.3578">StoreRepository</text><rect fill="#E3E3E3" height="40.9938" rx="2" ry="2" style="stroke:#181818;stroke-width:0.4000000000000001;" width="112" x="1039.2" y="25.1031"/><text fill="#000000" font-family="sans-serif" font-size="11.2" lengthAdjust="spacing" textLength="100.8" x="1044.8" y="42.7891">PropertyRepository:</text><text fill="#000000" font-family="sans-serif" font-size="11.2" lengthAdjust="spacing" textLength="97.6" x="1046.4" y="57.6859">PropertyRepository</text><rect fill="#E3E3E3" height="40.9938" rx="2" ry="2" style="stroke:#181818;stroke-width:0.4000000000000001;" width="112" x="1039.2" y="1031.775"/><text fill="#000000" font-family="sans-serif" font-size="11.2" lengthAdjust="spacing" textLength="100.8" x="1044.8" y="1049.4609">PropertyRepository:</text><text fill="#000000" font-family="sans-serif" font-size="11.2" lengthAdjust="spacing" textLength="97.6" x="1046.4" y="1064.3578">PropertyRepository</text><rect fill="#E3E3E3" height="26.0969" rx="2" ry="2" style="stroke:#181818;stroke-width:0.4000000000000001;" width="77.6" x="1159.2" y="40"/><text fill="#000000" font-family="sans-serif" font-size="11.2" lengthAdjust="spacing" textLength="66.4" x="1164.8" y="57.6859">:Repositories</text><rect fill="#E3E3E3" height="26.0969" rx="2" ry="2" style="stroke:#181818;stroke-width:0.4000000000000001;" width="77.6" x="1159.2" y="1031.775"/><text fill="#000000" font-family="sans-serif" font-size="11.2" lengthAdjust="spacing" textLength="66.4" x="1164.8" y="1049.4609">:Repositories</text><rect fill="#E3E3E3" height="40.9938" rx="2" ry="2" style="stroke:#181818;stroke-width:0.4000000000000001;" width="77.6" x="1244.8" y="25.1031"/><text fill="#000000" font-family="sans-serif" font-size="11.2" lengthAdjust="spacing" textLength="59.2" x="1254" y="42.7891">repositories</text><text fill="#000000" font-family="sans-serif" font-size="11.2" lengthAdjust="spacing" textLength="66.4" x="1250.4" y="57.6859">:Repositories</text><rect fill="#E3E3E3" height="40.9938" rx="2" ry="2" style="stroke:#181818;stroke-width:0.4000000000000001;" width="77.6" x="1244.8" y="1031.775"/><text fill="#000000" font-family="sans-serif" font-size="11.2" lengthAdjust="spacing" textLength="59.2" x="1254" y="1049.4609">repositories</text><text fill="#000000" font-family="sans-serif" font-size="11.2" lengthAdjust="spacing" textLength="66.4" x="1250.4" y="1064.3578">:Repositories</text><rect fill="#E3E3E3" height="26.0969" rx="2" ry="2" style="stroke:#181818;stroke-width:0.4000000000000001;" width="148.8" x="1330.4" y="40"/><text fill="#000000" font-family="sans-serif" font-size="11.2" lengthAdjust="spacing" textLength="137.6" x="1336" y="57.6859">StoreMapper:\StoreMapper</text><rect fill="#E3E3E3" height="26.0969" rx="2" ry="2" style="stroke:#181818;stroke-width:0.4000000000000001;" width="148.8" x="1330.4" y="1031.775"/><text fill="#000000" font-family="sans-serif" font-size="11.2" lengthAdjust="spacing" textLength="137.6" x="1336" y="1049.4609">StoreMapper:\StoreMapper</text><rect fill="#E3E3E3" height="26.0969" rx="2" ry="2" style="stroke:#181818;stroke-width:0.4000000000000001;" width="120" x="1487.2" y="40"/><text fill="#000000" font-family="sans-serif" font-size="11.2" lengthAdjust="spacing" textLength="108.8" x="1492.8" y="57.6859">StoreDTO:\StoreDTO</text><rect fill="#E3E3E3" height="26.0969" rx="2" ry="2" style="stroke:#181818;stroke-width:0.4000000000000001;" width="120" x="1487.2" y="1031.775"/><text fill="#000000" font-family="sans-serif" font-size="11.2" lengthAdjust="spacing" textLength="108.8" x="1492.8" y="1049.4609">StoreDTO:\StoreDTO</text><rect fill="#FFFFFF" height="950.4781" style="stroke:#181818;stroke-width:0.8000000000000002;" width="8" x="44.8" y="74.8969"/><rect fill="#FFFFFF" height="924.6453" style="stroke:#181818;stroke-width:0.8000000000000002;" width="8" x="407.2" y="93.5297"/><rect fill="#FFFFFF" height="839.6828" style="stroke:#181818;stroke-width:0.8000000000000002;" width="8" x="765.6" y="153.4594"/><rect fill="#FFFFFF" height="151.7969" style="stroke:#181818;stroke-width:0.8000000000000002;" width="8" x="979.2" y="278.6234"/><rect fill="#FFFFFF" height="151.7969" style="stroke:#181818;stroke-width:0.8000000000000002;" width="8" x="979.2" y="730.8141"/><rect fill="#FFFFFF" height="25.0328" style="stroke:#181818;stroke-width:0.8000000000000002;" width="8" x="979.2" y="907.6438"/><rect fill="#FFFFFF" height="25.0328" style="stroke:#181818;stroke-width:0.8000000000000002;" width="8" x="1091.2" y="555.5844"/><rect fill="#FFFFFF" height="25.0328" style="stroke:#181818;stroke-width:0.8000000000000002;" width="8" x="1194" y="178.4922"/><rect fill="#FFFFFF" height="25.0328" style="stroke:#181818;stroke-width:0.8000000000000002;" width="8" x="1194" y="455.4531"/><rect fill="#FFFFFF" height="25.0328" style="stroke:#181818;stroke-width:0.8000000000000002;" width="8" x="1194" y="630.6828"/><rect fill="#FFFFFF" height="25.0328" style="stroke:#181818;stroke-width:0.8000000000000002;" width="8" x="1279.6" y="228.5578"/><rect fill="#FFFFFF" height="25.0328" style="stroke:#181818;stroke-width:0.8000000000000002;" width="8" x="1279.6" y="505.5188"/><rect fill="#FFFFFF" height="25.0328" style="stroke:#181818;stroke-width:0.8000000000000002;" width="8" x="1279.6" y="680.7484"/><rect fill="#FFFFFF" height="75.0984" style="stroke:#181818;stroke-width:0.8000000000000002;" width="8" x="1400.8" y="324.6891"/><rect fill="#FFFFFF" height="75.0984" style="stroke:#181818;stroke-width:0.8000000000000002;" width="8" x="1400.8" y="776.8797"/><rect fill="#FFFFFF" height="25.0328" style="stroke:#181818;stroke-width:0.8000000000000002;" width="8" x="1543.2" y="349.7219"/><rect fill="#FFFFFF" height="25.0328" style="stroke:#181818;stroke-width:0.8000000000000002;" width="8" x="1543.2" y="801.9125"/><polygon fill="#181818" points="397.6,90.3297,405.6,93.5297,397.6,96.7297,400.8,93.5297" style="stroke:#181818;stroke-width:0.8000000000000002;"/><line style="stroke:#181818;stroke-width:0.8000000000000002;" x1="52.8" x2="402.4" y1="93.5297" y2="93.5297"/><text fill="#000000" font-family="sans-serif" font-size="10.4" font-weight="bold" lengthAdjust="spacing" textLength="5.6" x="58.4" y="89.3195">1</text><text fill="#000000" font-family="sans-serif" font-size="10.4" lengthAdjust="spacing" textLength="134.4" x="67.2" y="89.3195">Request to list all employees</text><polygon fill="#181818" points="689.6,115.3625,697.6,118.5625,689.6,121.7625,692.8,118.5625" style="stroke:#181818;stroke-width:0.8000000000000002;"/><line style="stroke:#181818;stroke-width:0.8000000000000002;" x1="415.2" x2="694.4" y1="118.5625" y2="118.5625"/><text fill="#000000" font-family="sans-serif" font-size="10.4" font-weight="bold" lengthAdjust="spacing" textLength="5.6" x="420.8" y="114.3523">2</text><text fill="#000000" font-family="sans-serif" font-size="10.4" lengthAdjust="spacing" textLength="28.8" x="429.6" y="114.3523">create</text><rect fill="#E3E3E3" height="26.0969" rx="2" ry="2" style="stroke:#181818;stroke-width:0.4000000000000001;" width="140.8" x="699.2" y="99.9297"/><text fill="#000000" font-family="sans-serif" font-size="11.2" lengthAdjust="spacing" textLength="129.6" x="704.8" y="117.6156">:ShowEmployeeController</text><polygon fill="#181818" points="756,150.2594,764,153.4594,756,156.6594,759.2,153.4594" style="stroke:#181818;stroke-width:0.8000000000000002;"/><line style="stroke:#181818;stroke-width:0.8000000000000002;" x1="415.2" x2="760.8" y1="153.4594" y2="153.4594"/><text fill="#000000" font-family="sans-serif" font-size="10.4" font-weight="bold" lengthAdjust="spacing" textLength="5.6" x="420.8" y="149.2492">3</text><text fill="#000000" font-family="sans-serif" font-size="10.4" lengthAdjust="spacing" textLength="50.4" x="429.6" y="149.2492">Get Stores</text><polygon fill="#181818" points="1184.4,175.2922,1192.4,178.4922,1184.4,181.6922,1187.6,178.4922" style="stroke:#181818;stroke-width:0.8000000000000002;"/><line style="stroke:#181818;stroke-width:0.8000000000000002;" x1="773.6" x2="1189.2" y1="178.4922" y2="178.4922"/><text fill="#000000" font-family="sans-serif" font-size="10.4" font-weight="bold" lengthAdjust="spacing" textLength="5.6" x="779.2" y="174.282">4</text><text fill="#000000" font-family="sans-serif" font-size="10.4" lengthAdjust="spacing" textLength="60" x="788" y="174.282">getInstance()</text><polygon fill="#181818" points="782.4,200.325,774.4,203.525,782.4,206.725,779.2,203.525" style="stroke:#181818;stroke-width:0.8000000000000002;"/><line style="stroke:#181818;stroke-width:0.8000000000000002;stroke-dasharray:2.0,2.0;" x1="777.6" x2="1197.2" y1="203.525" y2="203.525"/><text fill="#000000" font-family="sans-serif" font-size="10.4" font-weight="bold" lengthAdjust="spacing" textLength="5.6" x="787.2" y="199.3148">5</text><text fill="#000000" font-family="sans-serif" font-size="10.4" lengthAdjust="spacing" textLength="53.6" x="796" y="199.3148">repositories</text><polygon fill="#181818" points="1270,225.3578,1278,228.5578,1270,231.7578,1273.2,228.5578" style="stroke:#181818;stroke-width:0.8000000000000002;"/><line style="stroke:#181818;stroke-width:0.8000000000000002;" x1="773.6" x2="1274.8" y1="228.5578" y2="228.5578"/><text fill="#000000" font-family="sans-serif" font-size="10.4" font-weight="bold" lengthAdjust="spacing" textLength="5.6" x="779.2" y="224.3477">6</text><text fill="#000000" font-family="sans-serif" font-size="10.4" lengthAdjust="spacing" textLength="95.2" x="788" y="224.3477">getStoreRepository()</text><polygon fill="#181818" points="782.4,250.3906,774.4,253.5906,782.4,256.7906,779.2,253.5906" style="stroke:#181818;stroke-width:0.8000000000000002;"/><line style="stroke:#181818;stroke-width:0.8000000000000002;stroke-dasharray:2.0,2.0;" x1="777.6" x2="1282.8" y1="253.5906" y2="253.5906"/><text fill="#000000" font-family="sans-serif" font-size="10.4" font-weight="bold" lengthAdjust="spacing" textLength="5.6" x="787.2" y="249.3805">7</text><text fill="#000000" font-family="sans-serif" font-size="10.4" lengthAdjust="spacing" textLength="74.4" x="796" y="249.3805">StoreRepository</text><polygon fill="#181818" points="969.6,275.4234,977.6,278.6234,969.6,281.8234,972.8,278.6234" style="stroke:#181818;stroke-width:0.8000000000000002;"/><line style="stroke:#181818;stroke-width:0.8000000000000002;" x1="773.6" x2="974.4" y1="278.6234" y2="278.6234"/><text fill="#000000" font-family="sans-serif" font-size="10.4" font-weight="bold" lengthAdjust="spacing" textLength="5.6" x="779.2" y="274.4133">8</text><text fill="#000000" font-family="sans-serif" font-size="10.4" lengthAdjust="spacing" textLength="88.8" x="788" y="274.4133">getListStoresDTO()</text><path d="M927.2,290.6234 L985.6,290.6234 L985.6,298.0563 L977.6,306.0563 L927.2,306.0563 L927.2,290.6234 " fill="#EEEEEE" style="stroke:#000000;stroke-width:1.2000000000000002;"/><rect fill="none" height="115.5641" style="stroke:#000000;stroke-width:1.2000000000000002;" width="688" x="927.2" y="290.6234"/><text fill="#000000" font-family="sans-serif" font-size="10.4" font-weight="bold" lengthAdjust="spacing" textLength="22.4" x="939.2" y="302.6461">loop</text><text fill="#000000" font-family="sans-serif" font-size="8.8" font-weight="bold" lengthAdjust="spacing" textLength="53.6" x="997.6" y="301.7195">[storesDTO]</text><polygon fill="#181818" points="1391.2,321.4891,1399.2,324.6891,1391.2,327.8891,1394.4,324.6891" style="stroke:#181818;stroke-width:0.8000000000000002;"/><line style="stroke:#181818;stroke-width:0.8000000000000002;" x1="987.2" x2="1396" y1="324.6891" y2="324.6891"/><text fill="#000000" font-family="sans-serif" font-size="10.4" font-weight="bold" lengthAdjust="spacing" textLength="5.6" x="992.8" y="320.4789">9</text><text fill="#000000" font-family="sans-serif" font-size="10.4" lengthAdjust="spacing" textLength="88.8" x="1001.6" y="320.4789">getListStoresDTO()</text><polygon fill="#181818" points="1533.6,346.5219,1541.6,349.7219,1533.6,352.9219,1536.8,349.7219" style="stroke:#181818;stroke-width:0.8000000000000002;"/><line style="stroke:#181818;stroke-width:0.8000000000000002;" x1="1408.8" x2="1538.4" y1="349.7219" y2="349.7219"/><text fill="#000000" font-family="sans-serif" font-size="10.4" font-weight="bold" lengthAdjust="spacing" textLength="11.2" x="1414.4" y="345.5117">10</text><text fill="#000000" font-family="sans-serif" font-size="10.4" lengthAdjust="spacing" textLength="82.4" x="1428.8" y="345.5117">CreateStoreDTO()</text><polygon fill="#181818" points="1417.6,371.5547,1409.6,374.7547,1417.6,377.9547,1414.4,374.7547" style="stroke:#181818;stroke-width:0.8000000000000002;"/><line style="stroke:#181818;stroke-width:0.8000000000000002;stroke-dasharray:2.0,2.0;" x1="1412.8" x2="1546.4" y1="374.7547" y2="374.7547"/><text fill="#000000" font-family="sans-serif" font-size="10.4" font-weight="bold" lengthAdjust="spacing" textLength="11.2" x="1422.4" y="370.5445">11</text><text fill="#000000" font-family="sans-serif" font-size="10.4" lengthAdjust="spacing" textLength="45.6" x="1436.8" y="370.5445">StoreDTO</text><polygon fill="#181818" points="996,396.5875,988,399.7875,996,402.9875,992.8,399.7875" style="stroke:#181818;stroke-width:0.8000000000000002;"/><line style="stroke:#181818;stroke-width:0.8000000000000002;stroke-dasharray:2.0,2.0;" x1="991.2" x2="1404" y1="399.7875" y2="399.7875"/><text fill="#000000" font-family="sans-serif" font-size="10.4" font-weight="bold" lengthAdjust="spacing" textLength="11.2" x="1000.8" y="395.5773">12</text><text fill="#000000" font-family="sans-serif" font-size="10.4" lengthAdjust="spacing" textLength="45.6" x="1015.2" y="395.5773">StoreDTO</text><polygon fill="#181818" points="782.4,427.2203,774.4,430.4203,782.4,433.6203,779.2,430.4203" style="stroke:#181818;stroke-width:0.8000000000000002;"/><line style="stroke:#181818;stroke-width:0.8000000000000002;stroke-dasharray:2.0,2.0;" x1="777.6" x2="982.4" y1="430.4203" y2="430.4203"/><text fill="#000000" font-family="sans-serif" font-size="10.4" font-weight="bold" lengthAdjust="spacing" textLength="11.2" x="787.2" y="426.2102">13</text><text fill="#000000" font-family="sans-serif" font-size="10.4" lengthAdjust="spacing" textLength="41.6" x="801.6" y="426.2102">StoreList</text><polygon fill="#181818" points="1184.4,452.2531,1192.4,455.4531,1184.4,458.6531,1187.6,455.4531" style="stroke:#181818;stroke-width:0.8000000000000002;"/><line style="stroke:#181818;stroke-width:0.8000000000000002;" x1="773.6" x2="1189.2" y1="455.4531" y2="455.4531"/><text fill="#000000" font-family="sans-serif" font-size="10.4" font-weight="bold" lengthAdjust="spacing" textLength="11.2" x="779.2" y="451.243">14</text><text fill="#000000" font-family="sans-serif" font-size="10.4" lengthAdjust="spacing" textLength="60" x="793.6" y="451.243">getInstance()</text><polygon fill="#181818" points="782.4,477.2859,774.4,480.4859,782.4,483.6859,779.2,480.4859" style="stroke:#181818;stroke-width:0.8000000000000002;"/><line style="stroke:#181818;stroke-width:0.8000000000000002;stroke-dasharray:2.0,2.0;" x1="777.6" x2="1197.2" y1="480.4859" y2="480.4859"/><text fill="#000000" font-family="sans-serif" font-size="10.4" font-weight="bold" lengthAdjust="spacing" textLength="11.2" x="787.2" y="476.2758">15</text><text fill="#000000" font-family="sans-serif" font-size="10.4" lengthAdjust="spacing" textLength="53.6" x="801.6" y="476.2758">repositories</text><polygon fill="#181818" points="1270,502.3188,1278,505.5188,1270,508.7188,1273.2,505.5188" style="stroke:#181818;stroke-width:0.8000000000000002;"/><line style="stroke:#181818;stroke-width:0.8000000000000002;" x1="773.6" x2="1274.8" y1="505.5188" y2="505.5188"/><text fill="#000000" font-family="sans-serif" font-size="10.4" font-weight="bold" lengthAdjust="spacing" textLength="11.2" x="779.2" y="501.3086">16</text><text fill="#000000" font-family="sans-serif" font-size="10.4" lengthAdjust="spacing" textLength="109.6" x="793.6" y="501.3086">getPropertyRepository()</text><polygon fill="#181818" points="782.4,527.3516,774.4,530.5516,782.4,533.7516,779.2,530.5516" style="stroke:#181818;stroke-width:0.8000000000000002;"/><line style="stroke:#181818;stroke-width:0.8000000000000002;stroke-dasharray:2.0,2.0;" x1="777.6" x2="1282.8" y1="530.5516" y2="530.5516"/><text fill="#000000" font-family="sans-serif" font-size="10.4" font-weight="bold" lengthAdjust="spacing" textLength="11.2" x="787.2" y="526.3414">17</text><text fill="#000000" font-family="sans-serif" font-size="10.4" lengthAdjust="spacing" textLength="88.8" x="801.6" y="526.3414">PropertyRepository</text><polygon fill="#181818" points="1081.6,552.3844,1089.6,555.5844,1081.6,558.7844,1084.8,555.5844" style="stroke:#181818;stroke-width:0.8000000000000002;"/><line style="stroke:#181818;stroke-width:0.8000000000000002;" x1="773.6" x2="1086.4" y1="555.5844" y2="555.5844"/><text fill="#000000" font-family="sans-serif" font-size="10.4" font-weight="bold" lengthAdjust="spacing" textLength="11.2" x="779.2" y="551.3742">18</text><text fill="#000000" font-family="sans-serif" font-size="10.4" lengthAdjust="spacing" textLength="164.8" x="793.6" y="551.3742">Numbers of properties of each store</text><polygon fill="#181818" points="782.4,577.4172,774.4,580.6172,782.4,583.8172,779.2,580.6172" style="stroke:#181818;stroke-width:0.8000000000000002;"/><line style="stroke:#181818;stroke-width:0.8000000000000002;stroke-dasharray:2.0,2.0;" x1="777.6" x2="1094.4" y1="580.6172" y2="580.6172"/><text fill="#000000" font-family="sans-serif" font-size="10.4" font-weight="bold" lengthAdjust="spacing" textLength="11.2" x="787.2" y="576.407">19</text><text fill="#000000" font-family="sans-serif" font-size="10.4" lengthAdjust="spacing" textLength="164.8" x="801.6" y="576.407">Numbers of properties of each store</text><polygon fill="#181818" points="756,602.45,764,605.65,756,608.85,759.2,605.65" style="stroke:#181818;stroke-width:0.8000000000000002;"/><line style="stroke:#181818;stroke-width:0.8000000000000002;" x1="415.2" x2="760.8" y1="605.65" y2="605.65"/><text fill="#000000" font-family="sans-serif" font-size="10.4" font-weight="bold" lengthAdjust="spacing" textLength="11.2" x="420.8" y="601.4398">20</text><text fill="#000000" font-family="sans-serif" font-size="10.4" lengthAdjust="spacing" textLength="66.4" x="435.2" y="601.4398">Get Employee</text><polygon fill="#181818" points="1184.4,627.4828,1192.4,630.6828,1184.4,633.8828,1187.6,630.6828" style="stroke:#181818;stroke-width:0.8000000000000002;"/><line style="stroke:#181818;stroke-width:0.8000000000000002;" x1="773.6" x2="1189.2" y1="630.6828" y2="630.6828"/><text fill="#000000" font-family="sans-serif" font-size="10.4" font-weight="bold" lengthAdjust="spacing" textLength="11.2" x="779.2" y="626.4727">21</text><text fill="#000000" font-family="sans-serif" font-size="10.4" lengthAdjust="spacing" textLength="60" x="793.6" y="626.4727">getInstance()</text><polygon fill="#181818" points="782.4,652.5156,774.4,655.7156,782.4,658.9156,779.2,655.7156" style="stroke:#181818;stroke-width:0.8000000000000002;"/><line style="stroke:#181818;stroke-width:0.8000000000000002;stroke-dasharray:2.0,2.0;" x1="777.6" x2="1197.2" y1="655.7156" y2="655.7156"/><text fill="#000000" font-family="sans-serif" font-size="10.4" font-weight="bold" lengthAdjust="spacing" textLength="11.2" x="787.2" y="651.5055">22</text><text fill="#000000" font-family="sans-serif" font-size="10.4" lengthAdjust="spacing" textLength="53.6" x="801.6" y="651.5055">repositories</text><polygon fill="#181818" points="1270,677.5484,1278,680.7484,1270,683.9484,1273.2,680.7484" style="stroke:#181818;stroke-width:0.8000000000000002;"/><line style="stroke:#181818;stroke-width:0.8000000000000002;" x1="773.6" x2="1274.8" y1="680.7484" y2="680.7484"/><text fill="#000000" font-family="sans-serif" font-size="10.4" font-weight="bold" lengthAdjust="spacing" textLength="11.2" x="779.2" y="676.5383">23</text><text fill="#000000" font-family="sans-serif" font-size="10.4" lengthAdjust="spacing" textLength="95.2" x="793.6" y="676.5383">getStoreRepository()</text><polygon fill="#181818" points="782.4,702.5813,774.4,705.7813,782.4,708.9813,779.2,705.7813" style="stroke:#181818;stroke-width:0.8000000000000002;"/><line style="stroke:#181818;stroke-width:0.8000000000000002;stroke-dasharray:2.0,2.0;" x1="777.6" x2="1282.8" y1="705.7813" y2="705.7813"/><text fill="#000000" font-family="sans-serif" font-size="10.4" font-weight="bold" lengthAdjust="spacing" textLength="11.2" x="787.2" y="701.5711">24</text><text fill="#000000" font-family="sans-serif" font-size="10.4" lengthAdjust="spacing" textLength="74.4" x="801.6" y="701.5711">StoreRepository</text><polygon fill="#181818" points="969.6,727.6141,977.6,730.8141,969.6,734.0141,972.8,730.8141" style="stroke:#181818;stroke-width:0.8000000000000002;"/><line style="stroke:#181818;stroke-width:0.8000000000000002;" x1="773.6" x2="974.4" y1="730.8141" y2="730.8141"/><text fill="#000000" font-family="sans-serif" font-size="10.4" font-weight="bold" lengthAdjust="spacing" textLength="11.2" x="779.2" y="726.6039">25</text><text fill="#000000" font-family="sans-serif" font-size="10.4" lengthAdjust="spacing" textLength="104.8" x="793.6" y="726.6039">getListEmployeeDTO()</text><path d="M927.2,742.8141 L985.6,742.8141 L985.6,750.2469 L977.6,758.2469 L927.2,758.2469 L927.2,742.8141 " fill="#EEEEEE" style="stroke:#000000;stroke-width:1.2000000000000002;"/><rect fill="none" height="115.5641" style="stroke:#000000;stroke-width:1.2000000000000002;" width="688" x="927.2" y="742.8141"/><text fill="#000000" font-family="sans-serif" font-size="10.4" font-weight="bold" lengthAdjust="spacing" textLength="22.4" x="939.2" y="754.8367">loop</text><text fill="#000000" font-family="sans-serif" font-size="8.8" font-weight="bold" lengthAdjust="spacing" textLength="68" x="997.6" y="753.9102">[employeeDTO]</text><polygon fill="#181818" points="1391.2,773.6797,1399.2,776.8797,1391.2,780.0797,1394.4,776.8797" style="stroke:#181818;stroke-width:0.8000000000000002;"/><line style="stroke:#181818;stroke-width:0.8000000000000002;" x1="987.2" x2="1396" y1="776.8797" y2="776.8797"/><text fill="#000000" font-family="sans-serif" font-size="10.4" font-weight="bold" lengthAdjust="spacing" textLength="11.2" x="992.8" y="772.6695">26</text><text fill="#000000" font-family="sans-serif" font-size="10.4" lengthAdjust="spacing" textLength="104.8" x="1007.2" y="772.6695">getListEmployeeDTO()</text><polygon fill="#181818" points="1533.6,798.7125,1541.6,801.9125,1533.6,805.1125,1536.8,801.9125" style="stroke:#181818;stroke-width:0.8000000000000002;"/><line style="stroke:#181818;stroke-width:0.8000000000000002;" x1="1408.8" x2="1538.4" y1="801.9125" y2="801.9125"/><text fill="#000000" font-family="sans-serif" font-size="10.4" font-weight="bold" lengthAdjust="spacing" textLength="11.2" x="1414.4" y="797.7023">27</text><text fill="#000000" font-family="sans-serif" font-size="10.4" lengthAdjust="spacing" textLength="104" x="1428.8" y="797.7023">CreateEmployeeDTO()</text><polygon fill="#181818" points="1417.6,823.7453,1409.6,826.9453,1417.6,830.1453,1414.4,826.9453" style="stroke:#181818;stroke-width:0.8000000000000002;"/><line style="stroke:#181818;stroke-width:0.8000000000000002;stroke-dasharray:2.0,2.0;" x1="1412.8" x2="1546.4" y1="826.9453" y2="826.9453"/><text fill="#000000" font-family="sans-serif" font-size="10.4" font-weight="bold" lengthAdjust="spacing" textLength="11.2" x="1422.4" y="822.7352">28</text><text fill="#000000" font-family="sans-serif" font-size="10.4" lengthAdjust="spacing" textLength="67.2" x="1436.8" y="822.7352">EmployeeDTO</text><polygon fill="#181818" points="996,848.7781,988,851.9781,996,855.1781,992.8,851.9781" style="stroke:#181818;stroke-width:0.8000000000000002;"/><line style="stroke:#181818;stroke-width:0.8000000000000002;stroke-dasharray:2.0,2.0;" x1="991.2" x2="1404" y1="851.9781" y2="851.9781"/><text fill="#000000" font-family="sans-serif" font-size="10.4" font-weight="bold" lengthAdjust="spacing" textLength="11.2" x="1000.8" y="847.768">29</text><text fill="#000000" font-family="sans-serif" font-size="10.4" lengthAdjust="spacing" textLength="67.2" x="1015.2" y="847.768">EmployeeDTO</text><polygon fill="#181818" points="782.4,879.4109,774.4,882.6109,782.4,885.8109,779.2,882.6109" style="stroke:#181818;stroke-width:0.8000000000000002;"/><line style="stroke:#181818;stroke-width:0.8000000000000002;stroke-dasharray:2.0,2.0;" x1="777.6" x2="982.4" y1="882.6109" y2="882.6109"/><text fill="#000000" font-family="sans-serif" font-size="10.4" font-weight="bold" lengthAdjust="spacing" textLength="11.2" x="787.2" y="878.4008">30</text><text fill="#000000" font-family="sans-serif" font-size="10.4" lengthAdjust="spacing" textLength="63.2" x="801.6" y="878.4008">EmployeeList</text><polygon fill="#181818" points="969.6,904.4438,977.6,907.6438,969.6,910.8438,972.8,907.6438" style="stroke:#181818;stroke-width:0.8000000000000002;"/><line style="stroke:#181818;stroke-width:0.8000000000000002;" x1="773.6" x2="974.4" y1="907.6438" y2="907.6438"/><text fill="#000000" font-family="sans-serif" font-size="10.4" font-weight="bold" lengthAdjust="spacing" textLength="11.2" x="779.2" y="903.4336">31</text><text fill="#000000" font-family="sans-serif" font-size="10.4" lengthAdjust="spacing" textLength="89.6" x="793.6" y="903.4336">getListEmployees()</text><polygon fill="#181818" points="782.4,929.4766,774.4,932.6766,782.4,935.8766,779.2,932.6766" style="stroke:#181818;stroke-width:0.8000000000000002;"/><line style="stroke:#181818;stroke-width:0.8000000000000002;stroke-dasharray:2.0,2.0;" x1="777.6" x2="982.4" y1="932.6766" y2="932.6766"/><text fill="#000000" font-family="sans-serif" font-size="10.4" font-weight="bold" lengthAdjust="spacing" textLength="11.2" x="787.2" y="928.4664">32</text><text fill="#000000" font-family="sans-serif" font-size="10.4" lengthAdjust="spacing" textLength="77.6" x="801.6" y="928.4664">List of Employee</text><line style="stroke:#181818;stroke-width:0.8000000000000002;" x1="773.6" x2="807.2" y1="957.7094" y2="957.7094"/><line style="stroke:#181818;stroke-width:0.8000000000000002;" x1="807.2" x2="807.2" y1="957.7094" y2="968.1094"/><line style="stroke:#181818;stroke-width:0.8000000000000002;" x1="774.4" x2="807.2" y1="968.1094" y2="968.1094"/><polygon fill="#181818" points="782.4,964.9094,774.4,968.1094,782.4,971.3094,779.2,968.1094" style="stroke:#181818;stroke-width:0.8000000000000002;"/><text fill="#000000" font-family="sans-serif" font-size="10.4" font-weight="bold" lengthAdjust="spacing" textLength="11.2" x="779.2" y="953.4992">33</text><text fill="#000000" font-family="sans-serif" font-size="10.4" lengthAdjust="spacing" textLength="180" x="793.6" y="953.4992">Sort employees alphabetically by store</text><polygon fill="#181818" points="424,989.9422,416,993.1422,424,996.3422,420.8,993.1422" style="stroke:#181818;stroke-width:0.8000000000000002;"/><line style="stroke:#181818;stroke-width:0.8000000000000002;stroke-dasharray:2.0,2.0;" x1="419.2" x2="768.8" y1="993.1422" y2="993.1422"/><text fill="#000000" font-family="sans-serif" font-size="10.4" font-weight="bold" lengthAdjust="spacing" textLength="11.2" x="428.8" y="988.932">34</text><text fill="#000000" font-family="sans-serif" font-size="10.4" lengthAdjust="spacing" textLength="316.8" x="443.2" y="988.932">Returns List of Stores and respective employees order alphabetically</text><polygon fill="#181818" points="61.6,1014.975,53.6,1018.175,61.6,1021.375,58.4,1018.175" style="stroke:#181818;stroke-width:0.8000000000000002;"/><line style="stroke:#181818;stroke-width:0.8000000000000002;stroke-dasharray:2.0,2.0;" x1="56.8" x2="410.4" y1="1018.175" y2="1018.175"/><text fill="#000000" font-family="sans-serif" font-size="10.4" font-weight="bold" lengthAdjust="spacing" textLength="11.2" x="66.4" y="1013.9648">35</text><text fill="#000000" font-family="sans-serif" font-size="10.4" lengthAdjust="spacing" textLength="320.8" x="80.8" y="1013.9648">Displays List of Stores and respective employees order alphabetically</text><!--SRC=[xLPDRzim3BtxLn2zR2lWF-13WA4jXW1fLoJjhHV5Pc8ZjkH9oZB_-r7ojoodRJhiC2oNs2Bv-2XIprA7Z9TCiW8AmKMSIb4WQ7d4G7MMaiK7jiUDhd84YR5cV9yF7LJA4d7A-1vsB5SO1Eoe1JyMMvH1y2dD4eIT47ehVWKiraB2rGFgav27UyO9M5u1Ky2BWD1q5cSbungkeaqgJdT5cOiAyNbfVPwNPtnk1DTIv7c3T_EqNeszDvGQrrWAbT5J5RrmPyN6EMjZY4SfIfIw6g5C5otGTDaXtnaoL3QYzznaPejf4ySXSX3nmgS0ZwklJvwQxrb9JAANmKjTQltiYRXz-jwuqrFjImz1OFgN_MGQJRi2Q7wyW711pO48g8OVHrGQj80yet-Mvu1DXrGNqS5GHxj50Y0OqxVhQuAA9PA7pqp6RwZhJdamRUS3wqW1dasb-3tg9LSqoJ5-_j91Z61ytHXvcfyFFMneHZ3iroWqmRUdQGinpQsPEoCwLu2TXf79GlJqt56VOLZZj3ISe9hHYbfTjuF6nE6J2r62Qer-gkUOW6iD5ytWHgzaxk6RGHzPcqL2CzD-OwUj7Na2ca5oIp0BOS-e1PZRosbymu8W77bw5QefQcX6dan6r6rOs9yYQp8xE9l3wSk_VAgcUdtnmV98_zcpDM8LBZnV6NYmdrC5OWTbRQRgpHjXfVNn2ZnCpn3nFKtzgIXRqxlo3mkSCkZzdfSDkjNpzaF-Nxl_kdQtMp-ZtjYRBz3lr-HxFldx1NoCTPc6tyrKUvcClmNjuqhUPdcNc3koup9tsgE6pNa3w1pR20ogaOxkm5_2ra9jXDJzzP8kcsNAjaYNMRfsLh2jN66g3q9xMLsZFagkEZxrFG8OJ-Zqgn8D5Hp02vcWT99ukTiRw53bmWKl8hZDL9cpwWyb7EGpj-ZV]--></g></svg>