<?xml version="1.0" encoding="us-ascii" standalone="no"?><svg xmlns="http://www.w3.org/2000/svg" xmlns:xlink="http://www.w3.org/1999/xlink" contentStyleType="text/css" height="431.6px" preserveAspectRatio="none" style="width:708px;height:431px;background:#FFFFFF;" version="1.1" viewBox="0 0 708 431" width="708.8px" zoomAndPan="magnify"><defs/><g><!--class CreatEmployeeUi--><g id="elem_CreatEmployeeUi"><rect codeLine="10" fill="#F1F1F1" height="138.375" id="CreatEmployeeUi" rx="1" ry="1" style="stroke:#181818;stroke-width:0.20000000000000004;" width="110.4" x="343.8" y="14"/><ellipse cx="375.5" cy="20.4" fill="#ADD1B2" rx="4.4" ry="4.4" style="stroke:#181818;stroke-width:0.4000000000000001;"/><path d="M376.6063,18.75 Q376.6688,18.6625 376.7438,18.6188 Q376.8188,18.575 376.9063,18.575 Q377.0563,18.575 377.15,18.6813 Q377.2438,18.7813 377.2438,19.025 L377.2438,19.6063 Q377.2438,19.85 377.15,19.9563 Q377.0563,20.0625 376.9063,20.0625 Q376.7688,20.0625 376.6875,19.9813 Q376.6063,19.9063 376.5625,19.7 Q376.5438,19.5563 376.4688,19.4813 Q376.3375,19.3313 376.0938,19.2438 Q375.85,19.1563 375.6,19.1563 Q375.2938,19.1563 375.0375,19.2875 Q374.7875,19.4188 374.5875,19.7188 Q374.3938,20.0188 374.3938,20.4313 L374.3938,20.8688 Q374.3938,21.3625 374.75,21.6938 Q375.1063,22.0188 375.7438,22.0188 Q376.1188,22.0188 376.3813,21.9188 Q376.5375,21.8563 376.7063,21.6813 Q376.8125,21.575 376.8688,21.5438 Q376.9313,21.5125 377.0125,21.5125 Q377.1438,21.5125 377.2438,21.6188 Q377.35,21.7188 377.35,21.8563 Q377.35,21.9938 377.2125,22.1563 Q377.0125,22.3875 376.6938,22.5188 Q376.2625,22.7 375.7438,22.7 Q375.1375,22.7 374.6563,22.45 Q374.2625,22.25 373.9875,21.825 Q373.7125,21.3938 373.7125,20.8813 L373.7125,20.4188 Q373.7125,19.8875 373.9563,19.4313 Q374.2063,18.9688 374.6438,18.725 Q375.0813,18.475 375.575,18.475 Q375.8688,18.475 376.125,18.5438 Q376.3875,18.6063 376.6063,18.75 Z " fill="#000000"/><text fill="#000000" font-family="sans-serif" font-size="5.6" lengthAdjust="spacing" textLength="43.6" x="383.7" y="22.7188">CreatEmployeeUi</text><line style="stroke:#181818;stroke-width:0.20000000000000004;" x1="344.2" x2="453.8" y1="26.8" y2="26.8"/><rect fill="none" height="2.4" style="stroke:#C82930;stroke-width:0.4000000000000001;" width="2.4" x="347" y="31.5242"/><text fill="#000000" font-family="sans-serif" font-size="5.6" lengthAdjust="spacing" textLength="90.4" x="351.8" y="34.443">controller: CreatEmployeeController</text><text fill="#000000" font-family="sans-serif" font-size="5.6" lengthAdjust="spacing" textLength="90.4" x="351.8" y="41.8914">controller: CreatEmployeeController</text><line style="stroke:#181818;stroke-width:0.20000000000000004;" x1="344.2" x2="453.8" y1="44.8969" y2="44.8969"/><ellipse cx="348.2" cy="50.8211" fill="#84BE84" rx="1.2" ry="1.2" style="stroke:#038048;stroke-width:0.4000000000000001;"/><text fill="#000000" font-family="sans-serif" font-size="5.6" lengthAdjust="spacing" textLength="49.2" x="351.8" y="52.5398">CreatEmployeeUi():</text><rect fill="#F24D5C" height="2.4" style="stroke:#C82930;stroke-width:0.4000000000000001;" width="2.4" x="347" y="57.0695"/><text fill="#000000" font-family="sans-serif" font-size="5.6" lengthAdjust="spacing" textLength="55.6" x="351.8" y="59.9883">requestName(): String</text><rect fill="#F24D5C" height="2.4" style="stroke:#C82930;stroke-width:0.4000000000000001;" width="2.4" x="347" y="64.518"/><text fill="#000000" font-family="sans-serif" font-size="5.6" lengthAdjust="spacing" textLength="100" x="351.8" y="67.4367">displayStoresOptions(List&lt;Store&gt;): void</text><rect fill="#F24D5C" height="2.4" style="stroke:#C82930;stroke-width:0.4000000000000001;" width="2.4" x="347" y="71.9664"/><text fill="#000000" font-family="sans-serif" font-size="5.6" lengthAdjust="spacing" textLength="48.8" x="351.8" y="74.8852">requestData(): void</text><rect fill="#F24D5C" height="2.4" style="stroke:#C82930;stroke-width:0.4000000000000001;" width="2.4" x="347" y="79.4148"/><text fill="#000000" font-family="sans-serif" font-size="5.6" lengthAdjust="spacing" textLength="54.8" x="351.8" y="82.3336">requestEmail(): String</text><rect fill="#F24D5C" height="2.4" style="stroke:#C82930;stroke-width:0.4000000000000001;" width="2.4" x="347" y="86.8633"/><text fill="#000000" font-family="sans-serif" font-size="5.6" lengthAdjust="spacing" textLength="65.6" x="351.8" y="89.782">requestPassword(): String</text><rect fill="#F24D5C" height="2.4" style="stroke:#C82930;stroke-width:0.4000000000000001;" width="2.4" x="347" y="94.3117"/><text fill="#000000" font-family="sans-serif" font-size="5.6" lengthAdjust="spacing" textLength="69.2" x="351.8" y="97.2305">requestDescptions(): String</text><ellipse cx="348.2" cy="102.9602" fill="#84BE84" rx="1.2" ry="1.2" style="stroke:#038048;stroke-width:0.4000000000000001;"/><text fill="#000000" font-family="sans-serif" font-size="5.6" lengthAdjust="spacing" textLength="26" x="351.8" y="104.6789">run(): void</text><rect fill="#F24D5C" height="2.4" style="stroke:#C82930;stroke-width:0.4000000000000001;" width="2.4" x="347" y="109.2086"/><text fill="#000000" font-family="sans-serif" font-size="5.6" lengthAdjust="spacing" textLength="48.4" x="351.8" y="112.1273">requestSalary(): int</text><rect fill="#F24D5C" height="2.4" style="stroke:#C82930;stroke-width:0.4000000000000001;" width="2.4" x="347" y="116.657"/><text fill="#000000" font-family="sans-serif" font-size="5.6" lengthAdjust="spacing" textLength="57.6" x="351.8" y="119.5758">requestPhone(): String</text><rect fill="#F24D5C" height="2.4" style="stroke:#C82930;stroke-width:0.4000000000000001;" width="2.4" x="347" y="124.1055"/><text fill="#000000" font-family="sans-serif" font-size="5.6" lengthAdjust="spacing" textLength="61.2" x="351.8" y="127.0242">requestTaxNumber(): int</text><rect fill="#F24D5C" height="2.4" style="stroke:#C82930;stroke-width:0.4000000000000001;" width="2.4" x="347" y="131.5539"/><text fill="#000000" font-family="sans-serif" font-size="5.6" lengthAdjust="spacing" textLength="46" x="351.8" y="134.4727">submitData(): void</text><rect fill="#F24D5C" height="2.4" style="stroke:#C82930;stroke-width:0.4000000000000001;" width="2.4" x="347" y="139.0023"/><text fill="#000000" font-family="sans-serif" font-size="5.6" lengthAdjust="spacing" textLength="62" x="351.8" y="141.9211">requestAddress(): String</text><rect fill="#F24D5C" height="2.4" style="stroke:#C82930;stroke-width:0.4000000000000001;" width="2.4" x="347" y="146.4508"/><text fill="#000000" font-family="sans-serif" font-size="5.6" lengthAdjust="spacing" textLength="80.4" x="351.8" y="149.3695">displayAndSelectStores(): Store</text></g><!--class CreatEmployeeController--><g id="elem_CreatEmployeeController"><rect codeLine="29" fill="#F1F1F1" height="71.3391" id="CreatEmployeeController" rx="1" ry="1" style="stroke:#181818;stroke-width:0.20000000000000004;" width="289.2" x="254.4" y="217.6"/><ellipse cx="365.5" cy="224" fill="#ADD1B2" rx="4.4" ry="4.4" style="stroke:#181818;stroke-width:0.4000000000000001;"/><path d="M366.6063,222.35 Q366.6688,222.2625 366.7438,222.2188 Q366.8188,222.175 366.9063,222.175 Q367.0563,222.175 367.15,222.2813 Q367.2438,222.3813 367.2438,222.625 L367.2438,223.2063 Q367.2438,223.45 367.15,223.5563 Q367.0563,223.6625 366.9063,223.6625 Q366.7688,223.6625 366.6875,223.5813 Q366.6063,223.5063 366.5625,223.3 Q366.5438,223.1563 366.4688,223.0813 Q366.3375,222.9313 366.0938,222.8438 Q365.85,222.7563 365.6,222.7563 Q365.2938,222.7563 365.0375,222.8875 Q364.7875,223.0188 364.5875,223.3188 Q364.3938,223.6188 364.3938,224.0313 L364.3938,224.4688 Q364.3938,224.9625 364.75,225.2938 Q365.1063,225.6188 365.7438,225.6188 Q366.1188,225.6188 366.3813,225.5188 Q366.5375,225.4563 366.7063,225.2813 Q366.8125,225.175 366.8688,225.1438 Q366.9313,225.1125 367.0125,225.1125 Q367.1438,225.1125 367.2438,225.2188 Q367.35,225.3188 367.35,225.4563 Q367.35,225.5938 367.2125,225.7563 Q367.0125,225.9875 366.6938,226.1188 Q366.2625,226.3 365.7438,226.3 Q365.1375,226.3 364.6563,226.05 Q364.2625,225.85 363.9875,225.425 Q363.7125,224.9938 363.7125,224.4813 L363.7125,224.0188 Q363.7125,223.4875 363.9563,223.0313 Q364.2063,222.5688 364.6438,222.325 Q365.0813,222.075 365.575,222.075 Q365.8688,222.075 366.125,222.1438 Q366.3875,222.2063 366.6063,222.35 Z " fill="#000000"/><text fill="#000000" font-family="sans-serif" font-size="5.6" lengthAdjust="spacing" textLength="63.6" x="373.7" y="226.3188">CreatEmployeeController</text><line style="stroke:#181818;stroke-width:0.20000000000000004;" x1="254.8" x2="543.2" y1="230.4" y2="230.4"/><rect fill="none" height="2.4" style="stroke:#C82930;stroke-width:0.4000000000000001;" width="2.4" x="257.6" y="235.1242"/><text fill="#000000" font-family="sans-serif" font-size="5.6" lengthAdjust="spacing" textLength="84" x="262.4" y="238.043">storeRepository: StoreRepository</text><rect fill="none" height="2.4" style="stroke:#C82930;stroke-width:0.4000000000000001;" width="2.4" x="257.6" y="242.5727"/><text fill="#000000" font-family="sans-serif" font-size="5.6" lengthAdjust="spacing" textLength="129.2" x="262.4" y="245.4914">authenticationRepository: AuthenticationRepository</text><text fill="#000000" font-family="sans-serif" font-size="5.6" lengthAdjust="spacing" textLength="47.6" x="262.4" y="252.9398">stores: List&lt;Store&gt;</text><text fill="#000000" font-family="sans-serif" font-size="5.6" lengthAdjust="spacing" textLength="129.2" x="262.4" y="260.3883">authenticationRepository: AuthenticationRepository</text><text fill="#000000" font-family="sans-serif" font-size="5.6" lengthAdjust="spacing" textLength="84" x="262.4" y="267.8367">storeRepository: StoreRepository</text><line style="stroke:#181818;stroke-width:0.20000000000000004;" x1="254.8" x2="543.2" y1="270.8422" y2="270.8422"/><ellipse cx="258.8" cy="276.7664" fill="#84BE84" rx="1.2" ry="1.2" style="stroke:#038048;stroke-width:0.4000000000000001;"/><text fill="#000000" font-family="sans-serif" font-size="5.6" lengthAdjust="spacing" textLength="69.2" x="262.4" y="278.4852">CreatEmployeeController():</text><ellipse cx="258.8" cy="284.2148" fill="#84BE84" rx="1.2" ry="1.2" style="stroke:#038048;stroke-width:0.4000000000000001;"/><text fill="#000000" font-family="sans-serif" font-size="5.6" lengthAdjust="spacing" textLength="278.8" x="262.4" y="285.9336">createEmployee(String, String, int, String, String, String, String, Roles[], int, Store): Optional&lt;EmployeeProject&gt;</text></g><!--class CreateStoreUI--><g id="elem_CreateStoreUI"><rect codeLine="39" fill="#F1F1F1" height="34.0969" id="CreateStoreUI" rx="1" ry="1" style="stroke:#181818;stroke-width:0.20000000000000004;" width="51.6" x="2.8" y="236.2"/><ellipse cx="10.24" cy="242.6" fill="#ADD1B2" rx="4.4" ry="4.4" style="stroke:#181818;stroke-width:0.4000000000000001;"/><path d="M11.3463,240.95 Q11.4088,240.8625 11.4838,240.8188 Q11.5588,240.775 11.6463,240.775 Q11.7963,240.775 11.89,240.8813 Q11.9838,240.9813 11.9838,241.225 L11.9838,241.8063 Q11.9838,242.05 11.89,242.1563 Q11.7963,242.2625 11.6463,242.2625 Q11.5088,242.2625 11.4275,242.1813 Q11.3463,242.1063 11.3025,241.9 Q11.2838,241.7563 11.2088,241.6813 Q11.0775,241.5313 10.8338,241.4438 Q10.59,241.3563 10.34,241.3563 Q10.0338,241.3563 9.7775,241.4875 Q9.5275,241.6188 9.3275,241.9188 Q9.1338,242.2188 9.1338,242.6313 L9.1338,243.0688 Q9.1338,243.5625 9.49,243.8938 Q9.8463,244.2188 10.4838,244.2188 Q10.8588,244.2188 11.1213,244.1188 Q11.2775,244.0563 11.4463,243.8813 Q11.5525,243.775 11.6088,243.7438 Q11.6713,243.7125 11.7525,243.7125 Q11.8838,243.7125 11.9838,243.8188 Q12.09,243.9188 12.09,244.0563 Q12.09,244.1938 11.9525,244.3563 Q11.7525,244.5875 11.4338,244.7188 Q11.0025,244.9 10.4838,244.9 Q9.8775,244.9 9.3963,244.65 Q9.0025,244.45 8.7275,244.025 Q8.4525,243.5938 8.4525,243.0813 L8.4525,242.6188 Q8.4525,242.0875 8.6963,241.6313 Q8.9463,241.1688 9.3838,240.925 Q9.8213,240.675 10.315,240.675 Q10.6088,240.675 10.865,240.7438 Q11.1275,240.8063 11.3463,240.95 Z " fill="#000000"/><text fill="#000000" font-family="sans-serif" font-size="5.6" lengthAdjust="spacing" textLength="35.6" x="16.16" y="244.9188">CreateStoreUI</text><line style="stroke:#181818;stroke-width:0.20000000000000004;" x1="3.2" x2="54" y1="249" y2="249"/><line style="stroke:#181818;stroke-width:0.20000000000000004;" x1="3.2" x2="54" y1="252.2" y2="252.2"/><ellipse cx="7.2" cy="258.1242" fill="#84BE84" rx="1.2" ry="1.2" style="stroke:#038048;stroke-width:0.4000000000000001;"/><text fill="#000000" font-family="sans-serif" font-size="5.6" lengthAdjust="spacing" textLength="41.2" x="10.8" y="259.843">CreateStoreUI():</text><ellipse cx="7.2" cy="265.5727" fill="#84BE84" rx="1.2" ry="1.2" style="stroke:#038048;stroke-width:0.4000000000000001;"/><text fill="#000000" font-family="sans-serif" font-size="5.6" lengthAdjust="spacing" textLength="26" x="10.8" y="267.2914">run(): void</text></g><!--class CreateStoreController--><g id="elem_CreateStoreController"><rect codeLine="44" fill="#F1F1F1" height="34.0969" id="CreateStoreController" rx="1" ry="1" style="stroke:#181818;stroke-width:0.20000000000000004;" width="156.8" x="83.4" y="236.2"/><ellipse cx="132.3" cy="242.6" fill="#ADD1B2" rx="4.4" ry="4.4" style="stroke:#181818;stroke-width:0.4000000000000001;"/><path d="M133.4063,240.95 Q133.4688,240.8625 133.5438,240.8188 Q133.6188,240.775 133.7063,240.775 Q133.8563,240.775 133.95,240.8813 Q134.0438,240.9813 134.0438,241.225 L134.0438,241.8063 Q134.0438,242.05 133.95,242.1563 Q133.8563,242.2625 133.7063,242.2625 Q133.5688,242.2625 133.4875,242.1813 Q133.4063,242.1063 133.3625,241.9 Q133.3438,241.7563 133.2688,241.6813 Q133.1375,241.5313 132.8938,241.4438 Q132.65,241.3563 132.4,241.3563 Q132.0938,241.3563 131.8375,241.4875 Q131.5875,241.6188 131.3875,241.9188 Q131.1938,242.2188 131.1938,242.6313 L131.1938,243.0688 Q131.1938,243.5625 131.55,243.8938 Q131.9063,244.2188 132.5438,244.2188 Q132.9188,244.2188 133.1813,244.1188 Q133.3375,244.0563 133.5063,243.8813 Q133.6125,243.775 133.6688,243.7438 Q133.7313,243.7125 133.8125,243.7125 Q133.9438,243.7125 134.0438,243.8188 Q134.15,243.9188 134.15,244.0563 Q134.15,244.1938 134.0125,244.3563 Q133.8125,244.5875 133.4938,244.7188 Q133.0625,244.9 132.5438,244.9 Q131.9375,244.9 131.4563,244.65 Q131.0625,244.45 130.7875,244.025 Q130.5125,243.5938 130.5125,243.0813 L130.5125,242.6188 Q130.5125,242.0875 130.7563,241.6313 Q131.0063,241.1688 131.4438,240.925 Q131.8813,240.675 132.375,240.675 Q132.6688,240.675 132.925,240.7438 Q133.1875,240.8063 133.4063,240.95 Z " fill="#000000"/><text fill="#000000" font-family="sans-serif" font-size="5.6" lengthAdjust="spacing" textLength="55.6" x="140.5" y="244.9188">CreateStoreController</text><line style="stroke:#181818;stroke-width:0.20000000000000004;" x1="83.8" x2="239.8" y1="249" y2="249"/><line style="stroke:#181818;stroke-width:0.20000000000000004;" x1="83.8" x2="239.8" y1="252.2" y2="252.2"/><ellipse cx="87.8" cy="258.1242" fill="#84BE84" rx="1.2" ry="1.2" style="stroke:#038048;stroke-width:0.4000000000000001;"/><text fill="#000000" font-family="sans-serif" font-size="5.6" lengthAdjust="spacing" textLength="61.2" x="91.4" y="259.843">CreateStoreController():</text><ellipse cx="87.8" cy="265.5727" fill="#84BE84" rx="1.2" ry="1.2" style="stroke:#038048;stroke-width:0.4000000000000001;"/><text fill="#000000" font-family="sans-serif" font-size="5.6" lengthAdjust="spacing" textLength="146.4" x="91.4" y="267.2914">createStore(String, String, String, String, String, int): Store</text></g><!--class Store--><g id="elem_Store"><rect codeLine="49" fill="#F1F1F1" height="160.7203" id="Store" rx="1" ry="1" style="stroke:#181818;stroke-width:0.20000000000000004;" width="153.6" x="552.6" y="2.8"/><ellipse cx="620.9" cy="9.2" fill="#ADD1B2" rx="4.4" ry="4.4" style="stroke:#181818;stroke-width:0.4000000000000001;"/><path d="M622.0063,7.55 Q622.0688,7.4625 622.1438,7.4188 Q622.2188,7.375 622.3063,7.375 Q622.4563,7.375 622.55,7.4813 Q622.6438,7.5813 622.6438,7.825 L622.6438,8.4063 Q622.6438,8.65 622.55,8.7563 Q622.4563,8.8625 622.3063,8.8625 Q622.1688,8.8625 622.0875,8.7813 Q622.0063,8.7063 621.9625,8.5 Q621.9438,8.3563 621.8688,8.2813 Q621.7375,8.1313 621.4938,8.0438 Q621.25,7.9563 621,7.9563 Q620.6938,7.9563 620.4375,8.0875 Q620.1875,8.2188 619.9875,8.5188 Q619.7938,8.8188 619.7938,9.2313 L619.7938,9.6688 Q619.7938,10.1625 620.15,10.4938 Q620.5063,10.8188 621.1438,10.8188 Q621.5188,10.8188 621.7813,10.7188 Q621.9375,10.6563 622.1063,10.4813 Q622.2125,10.375 622.2688,10.3438 Q622.3313,10.3125 622.4125,10.3125 Q622.5438,10.3125 622.6438,10.4188 Q622.75,10.5188 622.75,10.6563 Q622.75,10.7938 622.6125,10.9563 Q622.4125,11.1875 622.0938,11.3188 Q621.6625,11.5 621.1438,11.5 Q620.5375,11.5 620.0563,11.25 Q619.6625,11.05 619.3875,10.625 Q619.1125,10.1938 619.1125,9.6813 L619.1125,9.2188 Q619.1125,8.6875 619.3563,8.2313 Q619.6063,7.7688 620.0438,7.525 Q620.4813,7.275 620.975,7.275 Q621.2688,7.275 621.525,7.3438 Q621.7875,7.4063 622.0063,7.55 Z " fill="#000000"/><text fill="#000000" font-family="sans-serif" font-size="5.6" lengthAdjust="spacing" textLength="13.6" x="629.1" y="11.5188">Store</text><line style="stroke:#181818;stroke-width:0.20000000000000004;" x1="553" x2="705.8" y1="15.6" y2="15.6"/><rect fill="none" height="2.4" style="stroke:#C82930;stroke-width:0.4000000000000001;" width="2.4" x="555.8" y="20.3242"/><text fill="#000000" font-family="sans-serif" font-size="5.6" lengthAdjust="spacing" textLength="32" x="560.6" y="23.243">name: String</text><rect fill="none" height="2.4" style="stroke:#C82930;stroke-width:0.4000000000000001;" width="2.4" x="555.8" y="27.7727"/><text fill="#000000" font-family="sans-serif" font-size="5.6" lengthAdjust="spacing" textLength="34" x="560.6" y="30.6914">phone: String</text><rect fill="none" height="2.4" style="stroke:#C82930;stroke-width:0.4000000000000001;" width="2.4" x="555.8" y="35.2211"/><text fill="#000000" font-family="sans-serif" font-size="5.6" lengthAdjust="spacing" textLength="45.2" x="560.6" y="38.1398">vatNumber: String</text><rect fill="none" height="2.4" style="stroke:#C82930;stroke-width:0.4000000000000001;" width="2.4" x="555.8" y="42.6695"/><text fill="#000000" font-family="sans-serif" font-size="5.6" lengthAdjust="spacing" textLength="46.4" x="560.6" y="45.5883">branchNumber: int</text><rect fill="none" height="2.4" style="stroke:#C82930;stroke-width:0.4000000000000001;" width="2.4" x="555.8" y="50.118"/><text fill="#000000" font-family="sans-serif" font-size="5.6" lengthAdjust="spacing" textLength="79.6" x="560.6" y="53.0367">localManager: EmployeeProject</text><rect fill="none" height="2.4" style="stroke:#C82930;stroke-width:0.4000000000000001;" width="2.4" x="555.8" y="57.5664"/><text fill="#000000" font-family="sans-serif" font-size="5.6" lengthAdjust="spacing" textLength="38.4" x="560.6" y="60.4852">address: String</text><rect fill="none" height="2.4" style="stroke:#C82930;stroke-width:0.4000000000000001;" width="2.4" x="555.8" y="65.0148"/><text fill="#000000" font-family="sans-serif" font-size="5.6" lengthAdjust="spacing" textLength="31.2" x="560.6" y="67.9336">email: String</text><rect fill="none" height="2.4" style="stroke:#C82930;stroke-width:0.4000000000000001;" width="2.4" x="555.8" y="72.4633"/><text fill="#000000" font-family="sans-serif" font-size="5.6" lengthAdjust="spacing" textLength="88" x="560.6" y="75.382">employees: List&lt;EmployeeProject&gt;</text><text fill="#000000" font-family="sans-serif" font-size="5.6" lengthAdjust="spacing" textLength="32" x="560.6" y="82.8305">name: String</text><text fill="#000000" font-family="sans-serif" font-size="5.6" lengthAdjust="spacing" textLength="88" x="560.6" y="90.2789">employees: List&lt;EmployeeProject&gt;</text><text fill="#000000" font-family="sans-serif" font-size="5.6" lengthAdjust="spacing" textLength="79.6" x="560.6" y="97.7273">localManager: EmployeeProject</text><text fill="#000000" font-family="sans-serif" font-size="5.6" lengthAdjust="spacing" textLength="46.4" x="560.6" y="105.1758">branchNumber: int</text><text fill="#000000" font-family="sans-serif" font-size="5.6" lengthAdjust="spacing" textLength="31.2" x="560.6" y="112.6242">email: String</text><text fill="#000000" font-family="sans-serif" font-size="5.6" lengthAdjust="spacing" textLength="34" x="560.6" y="120.0727">phone: String</text><text fill="#000000" font-family="sans-serif" font-size="5.6" lengthAdjust="spacing" textLength="45.2" x="560.6" y="127.5211">vatNumber: String</text><text fill="#000000" font-family="sans-serif" font-size="5.6" lengthAdjust="spacing" textLength="38.4" x="560.6" y="134.9695">address: String</text><line style="stroke:#181818;stroke-width:0.20000000000000004;" x1="553" x2="705.8" y1="137.975" y2="137.975"/><ellipse cx="557" cy="143.8992" fill="#84BE84" rx="1.2" ry="1.2" style="stroke:#038048;stroke-width:0.4000000000000001;"/><text fill="#000000" font-family="sans-serif" font-size="5.6" lengthAdjust="spacing" textLength="115.2" x="560.6" y="145.618">Store(String, String, String, String, String, int):</text><ellipse cx="557" cy="151.3477" fill="#84BE84" rx="1.2" ry="1.2" style="stroke:#038048;stroke-width:0.4000000000000001;"/><text fill="#000000" font-family="sans-serif" font-size="5.6" lengthAdjust="spacing" textLength="143.2" x="560.6" y="153.0664">validate(String, String, String, String, String, int): boolean</text><ellipse cx="557" cy="158.7961" fill="#84BE84" rx="1.2" ry="1.2" style="stroke:#038048;stroke-width:0.4000000000000001;"/><text fill="#000000" font-family="sans-serif" font-size="5.6" lengthAdjust="spacing" textLength="41.6" x="560.6" y="160.5148">toString(): String</text></g><!--class Repositories--><g id="elem_Repositories"><rect codeLine="71" fill="#F1F1F1" height="116.0297" id="Repositories" rx="1" ry="1" style="stroke:#181818;stroke-width:0.20000000000000004;" width="143.6" x="557.6" y="195.2"/><ellipse cx="611.9" cy="201.6" fill="#ADD1B2" rx="4.4" ry="4.4" style="stroke:#181818;stroke-width:0.4000000000000001;"/><path d="M613.0063,199.95 Q613.0688,199.8625 613.1438,199.8188 Q613.2188,199.775 613.3063,199.775 Q613.4563,199.775 613.55,199.8813 Q613.6438,199.9813 613.6438,200.225 L613.6438,200.8063 Q613.6438,201.05 613.55,201.1563 Q613.4563,201.2625 613.3063,201.2625 Q613.1688,201.2625 613.0875,201.1813 Q613.0063,201.1063 612.9625,200.9 Q612.9438,200.7563 612.8688,200.6813 Q612.7375,200.5313 612.4938,200.4438 Q612.25,200.3563 612,200.3563 Q611.6938,200.3563 611.4375,200.4875 Q611.1875,200.6188 610.9875,200.9188 Q610.7938,201.2188 610.7938,201.6313 L610.7938,202.0688 Q610.7938,202.5625 611.15,202.8938 Q611.5063,203.2188 612.1438,203.2188 Q612.5188,203.2188 612.7813,203.1188 Q612.9375,203.0563 613.1063,202.8813 Q613.2125,202.775 613.2688,202.7438 Q613.3313,202.7125 613.4125,202.7125 Q613.5438,202.7125 613.6438,202.8188 Q613.75,202.9188 613.75,203.0563 Q613.75,203.1938 613.6125,203.3563 Q613.4125,203.5875 613.0938,203.7188 Q612.6625,203.9 612.1438,203.9 Q611.5375,203.9 611.0563,203.65 Q610.6625,203.45 610.3875,203.025 Q610.1125,202.5938 610.1125,202.0813 L610.1125,201.6188 Q610.1125,201.0875 610.3563,200.6313 Q610.6063,200.1688 611.0438,199.925 Q611.4813,199.675 611.975,199.675 Q612.2688,199.675 612.525,199.7438 Q612.7875,199.8063 613.0063,199.95 Z " fill="#000000"/><text fill="#000000" font-family="sans-serif" font-size="5.6" lengthAdjust="spacing" textLength="31.6" x="620.1" y="203.9188">Repositories</text><line style="stroke:#181818;stroke-width:0.20000000000000004;" x1="558" x2="700.8" y1="208" y2="208"/><polygon fill="none" points="562,212.3242,560.4,214.7242,563.6,214.7242" style="stroke:#1963A0;stroke-width:0.4000000000000001;"/><text fill="#000000" font-family="sans-serif" font-size="5.6" lengthAdjust="spacing" textLength="100.4" x="565.6" y="215.643">propertyRepository: PropertyRepository</text><polygon fill="none" points="562,219.7727,560.4,222.1727,563.6,222.1727" style="stroke:#1963A0;stroke-width:0.4000000000000001;"/><text fill="#000000" font-family="sans-serif" font-size="5.6" lengthAdjust="spacing" textLength="129.2" x="565.6" y="223.0914">authenticationRepository: AuthenticationRepository</text><polygon fill="none" points="562,227.2211,560.4,229.6211,563.6,229.6211" style="stroke:#1963A0;stroke-width:0.4000000000000001;"/><text fill="#000000" font-family="sans-serif" font-size="5.6" lengthAdjust="spacing" textLength="85.2" x="565.6" y="230.5398">clientRepository: ClientRepository</text><rect fill="none" height="2.4" style="stroke:#C82930;stroke-width:0.4000000000000001;" width="2.4" x="560.8" y="235.0695"/><text fill="#000000" font-family="sans-serif" font-size="5.6" lengthAdjust="spacing" textLength="56" x="565.6" y="237.9883">instance: Repositories</text><polygon fill="none" points="562,242.118,560.4,244.518,563.6,244.518" style="stroke:#1963A0;stroke-width:0.4000000000000001;"/><text fill="#000000" font-family="sans-serif" font-size="5.6" lengthAdjust="spacing" textLength="133.2" x="565.6" y="245.4367">announcementRepository: AnnouncementRepository</text><polygon fill="none" points="562,249.5664,560.4,251.9664,563.6,251.9664" style="stroke:#1963A0;stroke-width:0.4000000000000001;"/><text fill="#000000" font-family="sans-serif" font-size="5.6" lengthAdjust="spacing" textLength="84" x="565.6" y="252.8852">storeRepository: StoreRepository</text><text fill="#000000" font-family="sans-serif" font-size="5.6" lengthAdjust="spacing" textLength="133.2" x="565.6" y="260.3336">announcementRepository: AnnouncementRepository</text><text fill="#000000" font-family="sans-serif" font-size="5.6" lengthAdjust="spacing" textLength="100.4" x="565.6" y="267.782">propertyRepository: PropertyRepository</text><text fill="#000000" font-family="sans-serif" font-size="5.6" lengthAdjust="spacing" textLength="56" x="565.6" y="275.2305">instance: Repositories</text><text fill="#000000" font-family="sans-serif" font-size="5.6" lengthAdjust="spacing" textLength="85.2" x="565.6" y="282.6789">clientRepository: ClientRepository</text><text fill="#000000" font-family="sans-serif" font-size="5.6" lengthAdjust="spacing" textLength="129.2" x="565.6" y="290.1273">authenticationRepository: AuthenticationRepository</text><text fill="#000000" font-family="sans-serif" font-size="5.6" lengthAdjust="spacing" textLength="84" x="565.6" y="297.5758">storeRepository: StoreRepository</text><line style="stroke:#181818;stroke-width:0.20000000000000004;" x1="558" x2="700.8" y1="300.5813" y2="300.5813"/><rect fill="#F24D5C" height="2.4" style="stroke:#C82930;stroke-width:0.4000000000000001;" width="2.4" x="560.8" y="305.3055"/><text fill="#000000" font-family="sans-serif" font-size="5.6" lengthAdjust="spacing" textLength="37.2" x="565.6" y="308.2242">Repositories():</text></g><!--class StoreRepository--><g id="elem_StoreRepository"><rect codeLine="87" fill="#F1F1F1" height="86.2359" id="StoreRepository" rx="1" ry="1" style="stroke:#181818;stroke-width:0.20000000000000004;" width="289.2" x="254.4" y="342.8"/><ellipse cx="376.9" cy="349.2" fill="#ADD1B2" rx="4.4" ry="4.4" style="stroke:#181818;stroke-width:0.4000000000000001;"/><path d="M378.0063,347.55 Q378.0688,347.4625 378.1438,347.4188 Q378.2188,347.375 378.3063,347.375 Q378.4563,347.375 378.55,347.4813 Q378.6438,347.5813 378.6438,347.825 L378.6438,348.4063 Q378.6438,348.65 378.55,348.7563 Q378.4563,348.8625 378.3063,348.8625 Q378.1688,348.8625 378.0875,348.7813 Q378.0063,348.7063 377.9625,348.5 Q377.9438,348.3563 377.8688,348.2813 Q377.7375,348.1313 377.4938,348.0438 Q377.25,347.9563 377,347.9563 Q376.6938,347.9563 376.4375,348.0875 Q376.1875,348.2188 375.9875,348.5188 Q375.7938,348.8188 375.7938,349.2313 L375.7938,349.6688 Q375.7938,350.1625 376.15,350.4938 Q376.5063,350.8188 377.1438,350.8188 Q377.5188,350.8188 377.7813,350.7188 Q377.9375,350.6563 378.1063,350.4813 Q378.2125,350.375 378.2688,350.3438 Q378.3313,350.3125 378.4125,350.3125 Q378.5438,350.3125 378.6438,350.4188 Q378.75,350.5188 378.75,350.6563 Q378.75,350.7938 378.6125,350.9563 Q378.4125,351.1875 378.0938,351.3188 Q377.6625,351.5 377.1438,351.5 Q376.5375,351.5 376.0563,351.25 Q375.6625,351.05 375.3875,350.625 Q375.1125,350.1938 375.1125,349.6813 L375.1125,349.2188 Q375.1125,348.6875 375.3563,348.2313 Q375.6063,347.7688 376.0438,347.525 Q376.4813,347.275 376.975,347.275 Q377.2688,347.275 377.525,347.3438 Q377.7875,347.4063 378.0063,347.55 Z " fill="#000000"/><text fill="#000000" font-family="sans-serif" font-size="5.6" lengthAdjust="spacing" textLength="40.8" x="385.1" y="351.5188">StoreRepository</text><line style="stroke:#181818;stroke-width:0.20000000000000004;" x1="254.8" x2="543.2" y1="355.6" y2="355.6"/><polygon fill="none" points="258.8,359.9242,257.2,362.3242,260.4,362.3242" style="stroke:#1963A0;stroke-width:0.4000000000000001;"/><text fill="#000000" font-family="sans-serif" font-size="5.6" lengthAdjust="spacing" textLength="47.6" x="262.4" y="363.243">stores: List&lt;Store&gt;</text><text fill="#000000" font-family="sans-serif" font-size="5.6" lengthAdjust="spacing" textLength="47.6" x="262.4" y="370.6914">stores: List&lt;Store&gt;</text><line style="stroke:#181818;stroke-width:0.20000000000000004;" x1="254.8" x2="543.2" y1="373.6969" y2="373.6969"/><ellipse cx="258.8" cy="379.6211" fill="#84BE84" rx="1.2" ry="1.2" style="stroke:#038048;stroke-width:0.4000000000000001;"/><text fill="#000000" font-family="sans-serif" font-size="5.6" lengthAdjust="spacing" textLength="46.4" x="262.4" y="381.3398">StoreRepository():</text><ellipse cx="258.8" cy="387.0695" fill="#84BE84" rx="1.2" ry="1.2" style="stroke:#038048;stroke-width:0.4000000000000001;"/><text fill="#000000" font-family="sans-serif" font-size="5.6" lengthAdjust="spacing" textLength="54.4" x="262.4" y="388.7883">addStore(Store): void</text><rect fill="#F24D5C" height="2.4" style="stroke:#C82930;stroke-width:0.4000000000000001;" width="2.4" x="257.6" y="393.318"/><text fill="#000000" font-family="sans-serif" font-size="5.6" lengthAdjust="spacing" textLength="64.4" x="262.4" y="396.2367">validateStore(Store): void</text><ellipse cx="258.8" cy="401.9664" fill="#84BE84" rx="1.2" ry="1.2" style="stroke:#038048;stroke-width:0.4000000000000001;"/><text fill="#000000" font-family="sans-serif" font-size="5.6" lengthAdjust="spacing" textLength="278.8" x="262.4" y="403.6852">createEmployee(String, String, int, String, String, String, String, Roles[], int, Store): Optional&lt;EmployeeProject&gt;</text><rect fill="#F24D5C" height="2.4" style="stroke:#C82930;stroke-width:0.4000000000000001;" width="2.4" x="257.6" y="408.2148"/><text fill="#000000" font-family="sans-serif" font-size="5.6" lengthAdjust="spacing" textLength="131.6" x="262.4" y="411.1336">addEmployeeToStore(Store, EmployeeProject): void</text><ellipse cx="258.8" cy="416.8633" fill="#84BE84" rx="1.2" ry="1.2" style="stroke:#038048;stroke-width:0.4000000000000001;"/><text fill="#000000" font-family="sans-serif" font-size="5.6" lengthAdjust="spacing" textLength="146.8" x="262.4" y="418.582">addEmployeeToStorePublic(Store, EmployeeProject): void</text><ellipse cx="258.8" cy="424.3117" fill="#84BE84" rx="1.2" ry="1.2" style="stroke:#038048;stroke-width:0.4000000000000001;"/><text fill="#000000" font-family="sans-serif" font-size="5.6" lengthAdjust="spacing" textLength="99.2" x="262.4" y="426.0305">listEmployees(): List&lt;EmployeeProject&gt;</text></g><!--link CreatEmployeeUi to CreatEmployeeController--><g id="link_CreatEmployeeUi_CreatEmployeeController"><path codeLine="101" d="M399,152.42 C399,174.004 399,197.008 399,215.54 " fill="none" id="CreatEmployeeUi-to-CreatEmployeeController" style="stroke:#181818;stroke-width:0.4000000000000001;"/><polygon fill="#181818" points="399,217.548,400.6,213.948,399,215.548,397.4,213.948,399,217.548" style="stroke:#181818;stroke-width:0.4000000000000001;"/><text fill="#000000" font-family="sans-serif" font-size="5.2" lengthAdjust="spacing" textLength="14.4" x="399.4" y="181.6113">create</text></g><!--link CreateStoreController to StoreRepository--><g id="link_CreateStoreController_StoreRepository"><path codeLine="102" d="M190.944,273.212 C215.756,289.904 247.4,311.2 247.4,311.2 C247.4,311.2 275.192,324.84 306.976,340.44 " fill="none" id="CreateStoreController-StoreRepository" style="stroke:#181818;stroke-width:0.4000000000000001;"/><polygon fill="#181818" points="186.56,270.26,187.658,272.9273,190.5424,272.9396,189.4444,270.2723,186.56,270.26" style="stroke:#181818;stroke-width:0.4000000000000001;"/><polygon fill="#181818" points="311.692,342.752,309.1623,339.732,309.8957,341.8726,307.7552,342.606,311.692,342.752" style="stroke:#181818;stroke-width:0.4000000000000001;"/><line style="stroke:#181818;stroke-width:0.4000000000000001;" x1="309.8957" x2="307.024" y1="341.8726" y2="340.462"/><text fill="#000000" font-family="sans-serif" font-size="5.2" lengthAdjust="spacing" textLength="2.8" x="187.483" y="279.1337">1</text></g><!--link CreateStoreUI to CreateStoreController--><g id="link_CreateStoreUI_CreateStoreController"><path codeLine="103" d="M54.44,253.2 C62.42,253.2 71.672,253.2 81.328,253.2 " fill="none" id="CreateStoreUI-to-CreateStoreController" style="stroke:#181818;stroke-width:0.4000000000000001;"/><polygon fill="#181818" points="83.396,253.2,79.796,251.6,81.396,253.2,79.796,254.8,83.396,253.2" style="stroke:#181818;stroke-width:0.4000000000000001;"/><text fill="#000000" font-family="sans-serif" font-size="5.2" lengthAdjust="spacing" textLength="14.4" x="61.7" y="250.4113">create</text></g><!--link CreatEmployeeController to StoreRepository--><g id="link_CreatEmployeeController_StoreRepository"><path codeLine="104" d="M399,294.048 C399,307.724 399,323.128 399,337.344 " fill="none" id="CreatEmployeeController-StoreRepository" style="stroke:#181818;stroke-width:0.4000000000000001;"/><polygon fill="#181818" points="399,288.8,397.4,291.2,399,293.6,400.6,291.2,399,288.8" style="stroke:#181818;stroke-width:0.4000000000000001;"/><polygon fill="#181818" points="399,342.732,400.6,339.132,399,340.732,397.4,339.132,399,342.732" style="stroke:#181818;stroke-width:0.4000000000000001;"/><line style="stroke:#181818;stroke-width:0.4000000000000001;" x1="399" x2="399" y1="340.732" y2="337.532"/><text fill="#000000" font-family="sans-serif" font-size="5.2" lengthAdjust="spacing" textLength="2.8" x="396.0797" y="297.7619">1</text><text fill="#000000" font-family="sans-serif" font-size="5.2" lengthAdjust="spacing" textLength="36.4" x="361.3772" y="331.3927">storeRepository</text><text fill="#000000" font-family="sans-serif" font-size="5.2" lengthAdjust="spacing" textLength="2.8" x="378.1772" y="338.3091">1</text></g><!--link Store to Repositories--><g id="link_Store_Repositories"><path codeLine="105" d="M629.4,168.86 C629.4,175.96 629.4,183.052 629.4,189.94 " fill="none" id="Store-Repositories" style="stroke:#181818;stroke-width:0.4000000000000001;"/><polygon fill="#181818" points="629.4,163.616,627.8,166.016,629.4,168.416,631,166.016,629.4,163.616" style="stroke:#181818;stroke-width:0.4000000000000001;"/><polygon fill="#181818" points="629.4,195.164,631,191.564,629.4,193.164,627.8,191.564,629.4,195.164" style="stroke:#181818;stroke-width:0.4000000000000001;"/><line style="stroke:#181818;stroke-width:0.4000000000000001;" x1="629.4" x2="629.4" y1="193.164" y2="189.964"/><text fill="#000000" font-family="sans-serif" font-size="5.2" lengthAdjust="spacing" textLength="2.8" x="626.5497" y="172.243">1</text><text fill="#000000" font-family="sans-serif" font-size="5.2" lengthAdjust="spacing" textLength="26.8" x="601.9091" y="183.8375">repositories</text><text fill="#000000" font-family="sans-serif" font-size="5.2" lengthAdjust="spacing" textLength="2.8" x="613.9091" y="190.7539">1</text></g><!--link Repositories to StoreRepository--><g id="link_Repositories_StoreRepository"><path codeLine="106" d="M557.592,306.088 C553.256,309.26 550.6,311.2 550.6,311.2 C550.6,311.2 521.192,325.632 488.28,341.784 " fill="none" id="Repositories-to-StoreRepository" style="stroke:#181818;stroke-width:0.4000000000000001;"/><polygon fill="#181818" points="486.308,342.752,490.2447,342.6033,488.1037,341.8713,488.8357,339.7303,486.308,342.752" style="stroke:#181818;stroke-width:0.4000000000000001;"/><text fill="#000000" font-family="sans-serif" font-size="5.2" lengthAdjust="spacing" textLength="14.4" x="525.8" y="329.2113">create</text></g><!--SRC=[nLQzRjim4Dxr58INkdKyjACH132S307Qr8YJgUr0InUR3KMg99LKBT8NwYDqovELFvP4qXJY12ZAHT9zn-FTTp-Kl2MimWANgCBvBTx0IZKKa81SORQXaCbEGMvnmUy9sw0RJAMFKC90DHMWYjF6V6GKRXHI70cosIfK46EFS9OfNXdncYl5Iq_k6SifbdAkb23hMi5vpjcA_00qUZVAiio2Q240gxEoehm1k2RePuRG99QENy-qU8gq0IKufI1ceSgY0woUW6yrI7M1Iz1RqKexm3OMAOYiA6vMYWkG7olZi1o_9r8TMz69rhxZfF2jd6A5nmdvMOa9ZSpleAMEx9wB8esUWint9_lu18cQfGvQOOf5On32L73CbZD8dt65lr_KvHg4lqtMwv8CnZCl2is9J1CsPyKAgCwmOyufwJUjSr1M7fBvxXLIUU_HDl_I77a95PT4lpKx7tg1LSArsW9J9CU6OrzxFe3OetDpDBHdZnq5HwXzQWxxZw7d9QSWFttfjBLpcYXNPfWUjyQNWd_LL9uOycn8SeQy6ZJY5mNnD3zX6i32r-S- -QtCKHxMP6ftEeKnrbhBUt3y59aUyrsrTHxOpzs9Bp1d2uNfyH3KUcNwAP3SOUNQA92k1MRvjWNQxg8yn_G3PdhmQccKQrUPhiC2Ms2cI2HnEzkYI5JDH3j6IQ6fV2QBQwuh53DhGd671GqVatA8Dqz6dYHiB_8z-fFixv7ObKHNvWIahOnf878b-0jLWbSWLEEtoN9FPbLVr8I_zAr7DEQhBoA9TOumgU_bN4Vik-aEPepN6YeZE_Eat6uvO3G-t-pXP0r7SnWT_tpWHO0_EdffMoFfeJmnjTSE6pVQkpkqxSSa_Byk5pjnMlaLztmxYhlKTtP_qx9UKv8Vi9KIsLtVzYTXS6QaA7x8NYriijeDNYApBFvJ3DTqUe86Voxicg7Hus-NYCS_eonzX-tMwEq8lJ4cHr651FlqpHclpeiXooalXZpklOZg_3FJI5pgxaeSMBqfuRMdjHFqQp14zwCpuSMT5AmmlBy0]--></g></svg>