<?xml version="1.0" encoding="us-ascii" standalone="no"?><svg xmlns="http://www.w3.org/2000/svg" xmlns:xlink="http://www.w3.org/1999/xlink" contentStyleType="text/css" height="1121px" preserveAspectRatio="none" style="width:2304px;height:1121px;background:#FFFFFF;" version="1.1" viewBox="0 0 2304 1121" width="2304px" zoomAndPan="magnify"><defs/><g><rect fill="#FFFFFF" height="926.7695" style="stroke:#181818;stroke-width:1.0;" width="10" x="21.5" y="93.6211"/><rect fill="#FFFFFF" height="31.291" style="stroke:#181818;stroke-width:1.0;" width="10" x="380.5" y="116.9121"/><rect fill="#FFFFFF" height="840.8965" style="stroke:#181818;stroke-width:1.0;" width="10" x="380.5" y="179.4941"/><rect fill="#FFFFFF" height="734.6934" style="stroke:#181818;stroke-width:1.0;" width="10" x="612.5" y="254.4063"/><rect fill="#FFFFFF" height="31.291" style="stroke:#181818;stroke-width:1.0;" width="10" x="761.5" y="598.6074"/><rect fill="#FFFFFF" height="31.291" style="stroke:#181818;stroke-width:1.0;" width="10" x="868.5" y="473.4434"/><rect fill="#FFFFFF" height="31.291" style="stroke:#181818;stroke-width:1.0;" width="10" x="868.5" y="661.1895"/><rect fill="#FFFFFF" height="31.291" style="stroke:#181818;stroke-width:1.0;" width="10" x="995.5" y="285.6973"/><rect fill="#FFFFFF" height="31.291" style="stroke:#181818;stroke-width:1.0;" width="10" x="1142.5" y="348.2793"/><rect fill="#FFFFFF" height="31.291" style="stroke:#181818;stroke-width:1.0;" width="10" x="1275.5" y="410.8613"/><rect fill="#FFFFFF" height="31.291" style="stroke:#181818;stroke-width:1.0;" width="10" x="1414" y="536.0254"/><rect fill="#FFFFFF" height="93.873" style="stroke:#181818;stroke-width:1.0;" width="10" x="1818" y="781.3535"/><rect fill="#FFFFFF" height="234.0371" style="stroke:#181818;stroke-width:1.0;" width="10" x="2046.5" y="723.7715"/><rect fill="#FFFFFF" height="31.291" style="stroke:#181818;stroke-width:1.0;" width="10" x="2261.5" y="812.6445"/><rect fill="none" height="144.4551" style="stroke:#000000;stroke-width:1.5;" width="623.5" x="1675" y="738.7715"/><line style="stroke:#181818;stroke-width:0.5;stroke-dasharray:5.0,5.0;" x1="26" x2="26" y1="83.6211" y2="1038.3906"/><line style="stroke:#181818;stroke-width:0.5;stroke-dasharray:5.0,5.0;" x1="385" x2="385" y1="83.6211" y2="1038.3906"/><line style="stroke:#181818;stroke-width:0.5;stroke-dasharray:5.0,5.0;" x1="617" x2="617" y1="219.3047" y2="1038.3906"/><line style="stroke:#181818;stroke-width:0.5;stroke-dasharray:5.0,5.0;" x1="766" x2="766" y1="83.6211" y2="1038.3906"/><line style="stroke:#181818;stroke-width:0.5;stroke-dasharray:5.0,5.0;" x1="873" x2="873" y1="83.6211" y2="1038.3906"/><line style="stroke:#181818;stroke-width:0.5;stroke-dasharray:5.0,5.0;" x1="1000" x2="1000" y1="83.6211" y2="1038.3906"/><line style="stroke:#181818;stroke-width:0.5;stroke-dasharray:5.0,5.0;" x1="1147" x2="1147" y1="83.6211" y2="1038.3906"/><line style="stroke:#181818;stroke-width:0.5;stroke-dasharray:5.0,5.0;" x1="1280" x2="1280" y1="83.6211" y2="1038.3906"/><line style="stroke:#181818;stroke-width:0.5;stroke-dasharray:5.0,5.0;" x1="1419" x2="1419" y1="83.6211" y2="1038.3906"/><line style="stroke:#181818;stroke-width:0.5;stroke-dasharray:5.0,5.0;" x1="1589" x2="1589" y1="83.6211" y2="1038.3906"/><line style="stroke:#181818;stroke-width:0.5;stroke-dasharray:5.0,5.0;" x1="1823" x2="1823" y1="83.6211" y2="1038.3906"/><line style="stroke:#181818;stroke-width:0.5;stroke-dasharray:5.0,5.0;" x1="2051" x2="2051" y1="83.6211" y2="1038.3906"/><line style="stroke:#181818;stroke-width:0.5;stroke-dasharray:5.0,5.0;" x1="2266.5" x2="2266.5" y1="83.6211" y2="1038.3906"/><text fill="#000000" font-family="sans-serif" font-size="14" lengthAdjust="spacing" textLength="37" x="5" y="80.1074">Agent</text><ellipse cx="26.5" cy="13.5" fill="#E3E3E3" rx="8" ry="8" style="stroke:#181818;stroke-width:0.5;"/><path d="M26.5,21.5 L26.5,48.5 M13.5,29.5 L39.5,29.5 M26.5,48.5 L13.5,63.5 M26.5,48.5 L39.5,63.5 " fill="none" style="stroke:#181818;stroke-width:0.5;"/><text fill="#000000" font-family="sans-serif" font-size="14" lengthAdjust="spacing" textLength="37" x="5" y="1052.498">Agent</text><ellipse cx="26.5" cy="1064.5117" fill="#E3E3E3" rx="8" ry="8" style="stroke:#181818;stroke-width:0.5;"/><path d="M26.5,1072.5117 L26.5,1099.5117 M13.5,1080.5117 L39.5,1080.5117 M26.5,1099.5117 L13.5,1114.5117 M26.5,1099.5117 L39.5,1114.5117 " fill="none" style="stroke:#181818;stroke-width:0.5;"/><rect fill="#E3E3E3" height="32.6211" rx="2.5" ry="2.5" style="stroke:#181818;stroke-width:0.5;" width="131" x="320" y="50"/><text fill="#000000" font-family="sans-serif" font-size="14" lengthAdjust="spacing" textLength="117" x="327" y="72.1074">:ListVisitRequestUI</text><rect fill="#E3E3E3" height="32.6211" rx="2.5" ry="2.5" style="stroke:#181818;stroke-width:0.5;" width="131" x="320" y="1037.3906"/><text fill="#000000" font-family="sans-serif" font-size="14" lengthAdjust="spacing" textLength="117" x="327" y="1059.498">:ListVisitRequestUI</text><rect fill="#E3E3E3" height="32.6211" rx="2.5" ry="2.5" style="stroke:#181818;stroke-width:0.5;" width="181" x="527" y="1037.3906"/><text fill="#000000" font-family="sans-serif" font-size="14" lengthAdjust="spacing" textLength="167" x="534" y="1059.498">:ListVisitRequestController</text><rect fill="#E3E3E3" height="32.6211" rx="2.5" ry="2.5" style="stroke:#181818;stroke-width:0.5;" width="97" x="718" y="50"/><text fill="#000000" font-family="sans-serif" font-size="14" lengthAdjust="spacing" textLength="83" x="725" y="72.1074">:Repositories</text><rect fill="#E3E3E3" height="32.6211" rx="2.5" ry="2.5" style="stroke:#181818;stroke-width:0.5;" width="97" x="718" y="1037.3906"/><text fill="#000000" font-family="sans-serif" font-size="14" lengthAdjust="spacing" textLength="83" x="725" y="1059.498">:Repositories</text><rect fill="#E3E3E3" height="51.2422" rx="2.5" ry="2.5" style="stroke:#181818;stroke-width:0.5;" width="97" x="825" y="31.3789"/><text fill="#000000" font-family="sans-serif" font-size="14" lengthAdjust="spacing" textLength="74" x="836.5" y="53.4863">repositories</text><text fill="#000000" font-family="sans-serif" font-size="14" lengthAdjust="spacing" textLength="83" x="832" y="72.1074">:Repositories</text><rect fill="#E3E3E3" height="51.2422" rx="2.5" ry="2.5" style="stroke:#181818;stroke-width:0.5;" width="97" x="825" y="1037.3906"/><text fill="#000000" font-family="sans-serif" font-size="14" lengthAdjust="spacing" textLength="74" x="836.5" y="1059.498">repositories</text><text fill="#000000" font-family="sans-serif" font-size="14" lengthAdjust="spacing" textLength="83" x="832" y="1078.1191">:Repositories</text><rect fill="#E3E3E3" height="32.6211" rx="2.5" ry="2.5" style="stroke:#181818;stroke-width:0.5;" width="137" x="932" y="50"/><text fill="#000000" font-family="sans-serif" font-size="14" lengthAdjust="spacing" textLength="123" x="939" y="72.1074">:ApplicationSession</text><rect fill="#E3E3E3" height="32.6211" rx="2.5" ry="2.5" style="stroke:#181818;stroke-width:0.5;" width="137" x="932" y="1037.3906"/><text fill="#000000" font-family="sans-serif" font-size="14" lengthAdjust="spacing" textLength="123" x="939" y="1059.498">:ApplicationSession</text><rect fill="#E3E3E3" height="51.2422" rx="2.5" ry="2.5" style="stroke:#181818;stroke-width:0.5;" width="137" x="1079" y="31.3789"/><text fill="#000000" font-family="sans-serif" font-size="14" lengthAdjust="spacing" textLength="74" x="1110.5" y="53.4863">appSession</text><text fill="#000000" font-family="sans-serif" font-size="14" lengthAdjust="spacing" textLength="123" x="1086" y="72.1074">:ApplicationSession</text><rect fill="#E3E3E3" height="51.2422" rx="2.5" ry="2.5" style="stroke:#181818;stroke-width:0.5;" width="137" x="1079" y="1037.3906"/><text fill="#000000" font-family="sans-serif" font-size="14" lengthAdjust="spacing" textLength="74" x="1110.5" y="1059.498">appSession</text><text fill="#000000" font-family="sans-serif" font-size="14" lengthAdjust="spacing" textLength="123" x="1086" y="1078.1191">:ApplicationSession</text><rect fill="#E3E3E3" height="51.2422" rx="2.5" ry="2.5" style="stroke:#181818;stroke-width:0.5;" width="109" x="1226" y="31.3789"/><text fill="#000000" font-family="sans-serif" font-size="14" lengthAdjust="spacing" textLength="95" x="1233" y="53.4863">currentSession</text><text fill="#000000" font-family="sans-serif" font-size="14" lengthAdjust="spacing" textLength="83" x="1239" y="72.1074">:UserSession</text><rect fill="#E3E3E3" height="51.2422" rx="2.5" ry="2.5" style="stroke:#181818;stroke-width:0.5;" width="109" x="1226" y="1037.3906"/><text fill="#000000" font-family="sans-serif" font-size="14" lengthAdjust="spacing" textLength="95" x="1233" y="1059.498">currentSession</text><text fill="#000000" font-family="sans-serif" font-size="14" lengthAdjust="spacing" textLength="83" x="1239" y="1078.1191">:UserSession</text><rect fill="#E3E3E3" height="51.2422" rx="2.5" ry="2.5" style="stroke:#181818;stroke-width:0.5;" width="148" x="1345" y="31.3789"/><text fill="#000000" font-family="sans-serif" font-size="14" lengthAdjust="spacing" textLength="134" x="1352" y="53.4863">EmployeeRepository:</text><text fill="#000000" font-family="sans-serif" font-size="14" lengthAdjust="spacing" textLength="130" x="1354" y="72.1074">EmployeeRepository</text><rect fill="#E3E3E3" height="51.2422" rx="2.5" ry="2.5" style="stroke:#181818;stroke-width:0.5;" width="148" x="1345" y="1037.3906"/><text fill="#000000" font-family="sans-serif" font-size="14" lengthAdjust="spacing" textLength="134" x="1352" y="1059.498">EmployeeRepository:</text><text fill="#000000" font-family="sans-serif" font-size="14" lengthAdjust="spacing" textLength="130" x="1354" y="1078.1191">EmployeeRepository</text><rect fill="#E3E3E3" height="51.2422" rx="2.5" ry="2.5" style="stroke:#181818;stroke-width:0.5;" width="172" x="1503" y="31.3789"/><text fill="#000000" font-family="sans-serif" font-size="14" lengthAdjust="spacing" textLength="154" x="1512" y="53.4863">VisitRequestsRepository</text><text fill="#000000" font-family="sans-serif" font-size="14" lengthAdjust="spacing" textLength="158" x="1510" y="72.1074">:VisitRequestsRepository</text><rect fill="#E3E3E3" height="51.2422" rx="2.5" ry="2.5" style="stroke:#181818;stroke-width:0.5;" width="172" x="1503" y="1037.3906"/><text fill="#000000" font-family="sans-serif" font-size="14" lengthAdjust="spacing" textLength="154" x="1512" y="1059.498">VisitRequestsRepository</text><text fill="#000000" font-family="sans-serif" font-size="14" lengthAdjust="spacing" textLength="158" x="1510" y="1078.1191">:VisitRequestsRepository</text><rect fill="#E3E3E3" height="32.6211" rx="2.5" ry="2.5" style="stroke:#181818;stroke-width:0.5;" width="276" x="1685" y="50"/><text fill="#000000" font-family="sans-serif" font-size="14" lengthAdjust="spacing" textLength="262" x="1692" y="72.1074">VisitRequestMapper:\VisitRequestMapper</text><rect fill="#E3E3E3" height="32.6211" rx="2.5" ry="2.5" style="stroke:#181818;stroke-width:0.5;" width="276" x="1685" y="1037.3906"/><text fill="#000000" font-family="sans-serif" font-size="14" lengthAdjust="spacing" textLength="262" x="1692" y="1059.498">VisitRequestMapper:\VisitRequestMapper</text><rect fill="#E3E3E3" height="32.6211" rx="2.5" ry="2.5" style="stroke:#181818;stroke-width:0.5;" width="161" x="1971" y="50"/><text fill="#000000" font-family="sans-serif" font-size="14" lengthAdjust="spacing" textLength="147" x="1978" y="72.1074">VisitRequestRepository</text><rect fill="#E3E3E3" height="32.6211" rx="2.5" ry="2.5" style="stroke:#181818;stroke-width:0.5;" width="161" x="1971" y="1037.3906"/><text fill="#000000" font-family="sans-serif" font-size="14" lengthAdjust="spacing" textLength="147" x="1978" y="1059.498">VisitRequestRepository</text><rect fill="#E3E3E3" height="32.6211" rx="2.5" ry="2.5" style="stroke:#181818;stroke-width:0.5;" width="44" x="2244.5" y="50"/><text fill="#000000" font-family="sans-serif" font-size="14" lengthAdjust="spacing" textLength="30" x="2251.5" y="72.1074">DTO</text><rect fill="#E3E3E3" height="32.6211" rx="2.5" ry="2.5" style="stroke:#181818;stroke-width:0.5;" width="44" x="2244.5" y="1037.3906"/><text fill="#000000" font-family="sans-serif" font-size="14" lengthAdjust="spacing" textLength="30" x="2251.5" y="1059.498">DTO</text><rect fill="#FFFFFF" height="926.7695" style="stroke:#181818;stroke-width:1.0;" width="10" x="21.5" y="93.6211"/><rect fill="#FFFFFF" height="31.291" style="stroke:#181818;stroke-width:1.0;" width="10" x="380.5" y="116.9121"/><rect fill="#FFFFFF" height="840.8965" style="stroke:#181818;stroke-width:1.0;" width="10" x="380.5" y="179.4941"/><rect fill="#FFFFFF" height="734.6934" style="stroke:#181818;stroke-width:1.0;" width="10" x="612.5" y="254.4063"/><rect fill="#FFFFFF" height="31.291" style="stroke:#181818;stroke-width:1.0;" width="10" x="761.5" y="598.6074"/><rect fill="#FFFFFF" height="31.291" style="stroke:#181818;stroke-width:1.0;" width="10" x="868.5" y="473.4434"/><rect fill="#FFFFFF" height="31.291" style="stroke:#181818;stroke-width:1.0;" width="10" x="868.5" y="661.1895"/><rect fill="#FFFFFF" height="31.291" style="stroke:#181818;stroke-width:1.0;" width="10" x="995.5" y="285.6973"/><rect fill="#FFFFFF" height="31.291" style="stroke:#181818;stroke-width:1.0;" width="10" x="1142.5" y="348.2793"/><rect fill="#FFFFFF" height="31.291" style="stroke:#181818;stroke-width:1.0;" width="10" x="1275.5" y="410.8613"/><rect fill="#FFFFFF" height="31.291" style="stroke:#181818;stroke-width:1.0;" width="10" x="1414" y="536.0254"/><rect fill="#FFFFFF" height="93.873" style="stroke:#181818;stroke-width:1.0;" width="10" x="1818" y="781.3535"/><rect fill="#FFFFFF" height="234.0371" style="stroke:#181818;stroke-width:1.0;" width="10" x="2046.5" y="723.7715"/><rect fill="#FFFFFF" height="31.291" style="stroke:#181818;stroke-width:1.0;" width="10" x="2261.5" y="812.6445"/><polygon fill="#181818" points="368.5,112.9121,378.5,116.9121,368.5,120.9121,372.5,116.9121" style="stroke:#181818;stroke-width:1.0;"/><line style="stroke:#181818;stroke-width:1.0;" x1="31.5" x2="374.5" y1="116.9121" y2="116.9121"/><text fill="#000000" font-family="sans-serif" font-size="13" font-weight="bold" lengthAdjust="spacing" textLength="7" x="38.5" y="111.6494">1</text><text fill="#000000" font-family="sans-serif" font-size="13" lengthAdjust="spacing" textLength="232" x="49.5" y="111.6494">Requests to see the list of visit requests</text><polygon fill="#181818" points="42.5,144.2031,32.5,148.2031,42.5,152.2031,38.5,148.2031" style="stroke:#181818;stroke-width:1.0;"/><line style="stroke:#181818;stroke-width:1.0;stroke-dasharray:2.0,2.0;" x1="36.5" x2="384.5" y1="148.2031" y2="148.2031"/><text fill="#000000" font-family="sans-serif" font-size="13" font-weight="bold" lengthAdjust="spacing" textLength="7" x="48.5" y="142.9404">2</text><text fill="#000000" font-family="sans-serif" font-size="13" lengthAdjust="spacing" textLength="314" x="59.5" y="142.9404">Requests begin data and end data of the visit requests</text><polygon fill="#181818" points="368.5,175.4941,378.5,179.4941,368.5,183.4941,372.5,179.4941" style="stroke:#181818;stroke-width:1.0;"/><line style="stroke:#181818;stroke-width:1.0;" x1="31.5" x2="374.5" y1="179.4941" y2="179.4941"/><text fill="#000000" font-family="sans-serif" font-size="13" font-weight="bold" lengthAdjust="spacing" textLength="7" x="38.5" y="174.2314">3</text><text fill="#000000" font-family="sans-serif" font-size="13" lengthAdjust="spacing" textLength="124" x="49.5" y="174.2314">fill the requested data</text><polygon fill="#181818" points="515,206.7852,525,210.7852,515,214.7852,519,210.7852" style="stroke:#181818;stroke-width:1.0;"/><line style="stroke:#181818;stroke-width:1.0;" x1="390.5" x2="521" y1="210.7852" y2="210.7852"/><text fill="#000000" font-family="sans-serif" font-size="13" font-weight="bold" lengthAdjust="spacing" textLength="7" x="397.5" y="205.5225">4</text><text fill="#000000" font-family="sans-serif" font-size="13" lengthAdjust="spacing" textLength="43" x="408.5" y="205.5225">creates</text><rect fill="#E3E3E3" height="32.6211" rx="2.5" ry="2.5" style="stroke:#181818;stroke-width:0.5;" width="181" x="527" y="187.4941"/><text fill="#000000" font-family="sans-serif" font-size="14" lengthAdjust="spacing" textLength="167" x="534" y="209.6016">:ListVisitRequestController</text><polygon fill="#181818" points="600.5,250.4063,610.5,254.4063,600.5,258.4063,604.5,254.4063" style="stroke:#181818;stroke-width:1.0;"/><line style="stroke:#181818;stroke-width:1.0;" x1="390.5" x2="606.5" y1="254.4063" y2="254.4063"/><text fill="#000000" font-family="sans-serif" font-size="13" font-weight="bold" lengthAdjust="spacing" textLength="7" x="397.5" y="249.1436">5</text><text fill="#000000" font-family="sans-serif" font-size="13" lengthAdjust="spacing" textLength="192" x="408.5" y="249.1436">Requests the list of visit requests</text><polygon fill="#181818" points="983.5,281.6973,993.5,285.6973,983.5,289.6973,987.5,285.6973" style="stroke:#181818;stroke-width:1.0;"/><line style="stroke:#181818;stroke-width:1.0;" x1="622.5" x2="989.5" y1="285.6973" y2="285.6973"/><text fill="#000000" font-family="sans-serif" font-size="13" font-weight="bold" lengthAdjust="spacing" textLength="7" x="629.5" y="280.4346">6</text><text fill="#000000" font-family="sans-serif" font-size="13" lengthAdjust="spacing" textLength="75" x="640.5" y="280.4346">getInstance()</text><polygon fill="#181818" points="633.5,312.9883,623.5,316.9883,633.5,320.9883,629.5,316.9883" style="stroke:#181818;stroke-width:1.0;"/><line style="stroke:#181818;stroke-width:1.0;" x1="627.5" x2="999.5" y1="316.9883" y2="316.9883"/><text fill="#000000" font-family="sans-serif" font-size="13" font-weight="bold" lengthAdjust="spacing" textLength="7" x="639.5" y="311.7256">7</text><text fill="#000000" font-family="sans-serif" font-size="13" lengthAdjust="spacing" textLength="68" x="650.5" y="311.7256">appSession</text><polygon fill="#181818" points="1130.5,344.2793,1140.5,348.2793,1130.5,352.2793,1134.5,348.2793" style="stroke:#181818;stroke-width:1.0;"/><line style="stroke:#181818;stroke-width:1.0;" x1="622.5" x2="1136.5" y1="348.2793" y2="348.2793"/><text fill="#000000" font-family="sans-serif" font-size="13" font-weight="bold" lengthAdjust="spacing" textLength="7" x="629.5" y="343.0166">8</text><text fill="#000000" font-family="sans-serif" font-size="13" lengthAdjust="spacing" textLength="115" x="640.5" y="343.0166">getCurrentSession()</text><polygon fill="#181818" points="633.5,375.5703,623.5,379.5703,633.5,383.5703,629.5,379.5703" style="stroke:#181818;stroke-width:1.0;"/><line style="stroke:#181818;stroke-width:1.0;stroke-dasharray:2.0,2.0;" x1="627.5" x2="1146.5" y1="379.5703" y2="379.5703"/><text fill="#000000" font-family="sans-serif" font-size="13" font-weight="bold" lengthAdjust="spacing" textLength="7" x="639.5" y="374.3076">9</text><text fill="#000000" font-family="sans-serif" font-size="13" lengthAdjust="spacing" textLength="87" x="650.5" y="374.3076">currentSession</text><polygon fill="#181818" points="1263.5,406.8613,1273.5,410.8613,1263.5,414.8613,1267.5,410.8613" style="stroke:#181818;stroke-width:1.0;"/><line style="stroke:#181818;stroke-width:1.0;" x1="622.5" x2="1269.5" y1="410.8613" y2="410.8613"/><text fill="#000000" font-family="sans-serif" font-size="13" font-weight="bold" lengthAdjust="spacing" textLength="14" x="629.5" y="405.5986">10</text><text fill="#000000" font-family="sans-serif" font-size="13" lengthAdjust="spacing" textLength="135" x="647.5" y="405.5986">name = getUserName()</text><polygon fill="#181818" points="633.5,438.1523,623.5,442.1523,633.5,446.1523,629.5,442.1523" style="stroke:#181818;stroke-width:1.0;"/><line style="stroke:#181818;stroke-width:1.0;stroke-dasharray:2.0,2.0;" x1="627.5" x2="1279.5" y1="442.1523" y2="442.1523"/><text fill="#000000" font-family="sans-serif" font-size="13" font-weight="bold" lengthAdjust="spacing" textLength="14" x="639.5" y="436.8896">11</text><text fill="#000000" font-family="sans-serif" font-size="13" lengthAdjust="spacing" textLength="32" x="657.5" y="436.8896">name</text><polygon fill="#181818" points="856.5,469.4434,866.5,473.4434,856.5,477.4434,860.5,473.4434" style="stroke:#181818;stroke-width:1.0;"/><line style="stroke:#181818;stroke-width:1.0;" x1="622.5" x2="862.5" y1="473.4434" y2="473.4434"/><text fill="#000000" font-family="sans-serif" font-size="13" font-weight="bold" lengthAdjust="spacing" textLength="14" x="629.5" y="468.1807">12</text><text fill="#000000" font-family="sans-serif" font-size="13" lengthAdjust="spacing" textLength="146" x="647.5" y="468.1807">getEmployeeRepository()</text><polygon fill="#181818" points="633.5,500.7344,623.5,504.7344,633.5,508.7344,629.5,504.7344" style="stroke:#181818;stroke-width:1.0;"/><line style="stroke:#181818;stroke-width:1.0;stroke-dasharray:2.0,2.0;" x1="627.5" x2="872.5" y1="504.7344" y2="504.7344"/><text fill="#000000" font-family="sans-serif" font-size="13" font-weight="bold" lengthAdjust="spacing" textLength="14" x="639.5" y="499.4717">13</text><text fill="#000000" font-family="sans-serif" font-size="13" lengthAdjust="spacing" textLength="120" x="657.5" y="499.4717">EmployeeRepository</text><polygon fill="#181818" points="1402,532.0254,1412,536.0254,1402,540.0254,1406,536.0254" style="stroke:#181818;stroke-width:1.0;"/><line style="stroke:#181818;stroke-width:1.0;" x1="622.5" x2="1408" y1="536.0254" y2="536.0254"/><text fill="#000000" font-family="sans-serif" font-size="13" font-weight="bold" lengthAdjust="spacing" textLength="14" x="629.5" y="530.7627">14</text><text fill="#000000" font-family="sans-serif" font-size="13" lengthAdjust="spacing" textLength="192" x="647.5" y="530.7627">getEmployeeByUserName(email)</text><polygon fill="#181818" points="633.5,563.3164,623.5,567.3164,633.5,571.3164,629.5,567.3164" style="stroke:#181818;stroke-width:1.0;"/><line style="stroke:#181818;stroke-width:1.0;stroke-dasharray:2.0,2.0;" x1="627.5" x2="1418" y1="567.3164" y2="567.3164"/><text fill="#000000" font-family="sans-serif" font-size="13" font-weight="bold" lengthAdjust="spacing" textLength="14" x="639.5" y="562.0537">15</text><text fill="#000000" font-family="sans-serif" font-size="13" lengthAdjust="spacing" textLength="58" x="657.5" y="562.0537">Employee</text><polygon fill="#181818" points="749.5,594.6074,759.5,598.6074,749.5,602.6074,753.5,598.6074" style="stroke:#181818;stroke-width:1.0;"/><line style="stroke:#181818;stroke-width:1.0;" x1="622.5" x2="755.5" y1="598.6074" y2="598.6074"/><text fill="#000000" font-family="sans-serif" font-size="13" font-weight="bold" lengthAdjust="spacing" textLength="14" x="629.5" y="593.3447">16</text><text fill="#000000" font-family="sans-serif" font-size="13" lengthAdjust="spacing" textLength="75" x="647.5" y="593.3447">getInstance()</text><polygon fill="#181818" points="633.5,625.8984,623.5,629.8984,633.5,633.8984,629.5,629.8984" style="stroke:#181818;stroke-width:1.0;"/><line style="stroke:#181818;stroke-width:1.0;stroke-dasharray:2.0,2.0;" x1="627.5" x2="765.5" y1="629.8984" y2="629.8984"/><text fill="#000000" font-family="sans-serif" font-size="13" font-weight="bold" lengthAdjust="spacing" textLength="14" x="639.5" y="624.6357">17</text><text fill="#000000" font-family="sans-serif" font-size="13" lengthAdjust="spacing" textLength="67" x="657.5" y="624.6357">repositories</text><polygon fill="#181818" points="856.5,657.1895,866.5,661.1895,856.5,665.1895,860.5,661.1895" style="stroke:#181818;stroke-width:1.0;"/><line style="stroke:#181818;stroke-width:1.0;" x1="622.5" x2="862.5" y1="661.1895" y2="661.1895"/><text fill="#000000" font-family="sans-serif" font-size="13" font-weight="bold" lengthAdjust="spacing" textLength="14" x="629.5" y="655.9268">18</text><text fill="#000000" font-family="sans-serif" font-size="13" lengthAdjust="spacing" textLength="162" x="647.5" y="655.9268">getVisitRequestRepository()</text><polygon fill="#181818" points="633.5,688.4805,623.5,692.4805,633.5,696.4805,629.5,692.4805" style="stroke:#181818;stroke-width:1.0;"/><line style="stroke:#181818;stroke-width:1.0;stroke-dasharray:2.0,2.0;" x1="627.5" x2="872.5" y1="692.4805" y2="692.4805"/><text fill="#000000" font-family="sans-serif" font-size="13" font-weight="bold" lengthAdjust="spacing" textLength="14" x="639.5" y="687.2178">19</text><text fill="#000000" font-family="sans-serif" font-size="13" lengthAdjust="spacing" textLength="136" x="657.5" y="687.2178">VisitRequestRepository</text><polygon fill="#181818" points="2034.5,719.7715,2044.5,723.7715,2034.5,727.7715,2038.5,723.7715" style="stroke:#181818;stroke-width:1.0;"/><line style="stroke:#181818;stroke-width:1.0;" x1="622.5" x2="2040.5" y1="723.7715" y2="723.7715"/><text fill="#000000" font-family="sans-serif" font-size="13" font-weight="bold" lengthAdjust="spacing" textLength="14" x="629.5" y="718.5088">20</text><text fill="#000000" font-family="sans-serif" font-size="13" lengthAdjust="spacing" textLength="298" x="647.5" y="718.5088">getVisitRequestDTO(Employee,beginDate,endDate)</text><path d="M1675,738.7715 L1748,738.7715 L1748,748.0625 L1738,758.0625 L1675,758.0625 L1675,738.7715 " fill="#EEEEEE" style="stroke:#000000;stroke-width:1.5;"/><rect fill="none" height="144.4551" style="stroke:#000000;stroke-width:1.5;" width="623.5" x="1675" y="738.7715"/><text fill="#000000" font-family="sans-serif" font-size="13" font-weight="bold" lengthAdjust="spacing" textLength="28" x="1690" y="753.7998">loop</text><text fill="#000000" font-family="sans-serif" font-size="11" font-weight="bold" lengthAdjust="spacing" textLength="156" x="1763" y="752.6416">[get list of VisitRequestDTO]</text><polygon fill="#181818" points="1839,777.3535,1829,781.3535,1839,785.3535,1835,781.3535" style="stroke:#181818;stroke-width:1.0;"/><line style="stroke:#181818;stroke-width:1.0;" x1="1833" x2="2045.5" y1="781.3535" y2="781.3535"/><text fill="#000000" font-family="sans-serif" font-size="13" font-weight="bold" lengthAdjust="spacing" textLength="14" x="1845" y="776.0908">21</text><text fill="#000000" font-family="sans-serif" font-size="13" lengthAdjust="spacing" textLength="126" x="1863" y="776.0908">getVisitRequestDTO()</text><polygon fill="#181818" points="2249.5,808.6445,2259.5,812.6445,2249.5,816.6445,2253.5,812.6445" style="stroke:#181818;stroke-width:1.0;"/><line style="stroke:#181818;stroke-width:1.0;" x1="1828" x2="2255.5" y1="812.6445" y2="812.6445"/><text fill="#000000" font-family="sans-serif" font-size="13" font-weight="bold" lengthAdjust="spacing" textLength="14" x="1835" y="807.3818">22</text><text fill="#000000" font-family="sans-serif" font-size="13" lengthAdjust="spacing" textLength="146" x="1853" y="807.3818">CreateVisitRequestDTO()</text><polygon fill="#181818" points="1839,839.9355,1829,843.9355,1839,847.9355,1835,843.9355" style="stroke:#181818;stroke-width:1.0;"/><line style="stroke:#181818;stroke-width:1.0;stroke-dasharray:2.0,2.0;" x1="1833" x2="2265.5" y1="843.9355" y2="843.9355"/><text fill="#000000" font-family="sans-serif" font-size="13" font-weight="bold" lengthAdjust="spacing" textLength="14" x="1845" y="838.6729">23</text><text fill="#000000" font-family="sans-serif" font-size="13" lengthAdjust="spacing" textLength="100" x="1863" y="838.6729">VisitRequestDTO</text><polygon fill="#181818" points="2034.5,871.2266,2044.5,875.2266,2034.5,879.2266,2038.5,875.2266" style="stroke:#181818;stroke-width:1.0;"/><line style="stroke:#181818;stroke-width:1.0;stroke-dasharray:2.0,2.0;" x1="1823" x2="2040.5" y1="875.2266" y2="875.2266"/><text fill="#000000" font-family="sans-serif" font-size="13" font-weight="bold" lengthAdjust="spacing" textLength="14" x="1830" y="869.9639">24</text><text fill="#000000" font-family="sans-serif" font-size="13" lengthAdjust="spacing" textLength="100" x="1848" y="869.9639">VisitRequestDTO</text><line style="stroke:#181818;stroke-width:1.0;stroke-dasharray:2.0,2.0;" x1="2056.5" x2="2098.5" y1="913.5176" y2="913.5176"/><line style="stroke:#181818;stroke-width:1.0;stroke-dasharray:2.0,2.0;" x1="2098.5" x2="2098.5" y1="913.5176" y2="926.5176"/><line style="stroke:#181818;stroke-width:1.0;stroke-dasharray:2.0,2.0;" x1="2057.5" x2="2098.5" y1="926.5176" y2="926.5176"/><polygon fill="#181818" points="2067.5,922.5176,2057.5,926.5176,2067.5,930.5176,2063.5,926.5176" style="stroke:#181818;stroke-width:1.0;"/><text fill="#000000" font-family="sans-serif" font-size="13" font-weight="bold" lengthAdjust="spacing" textLength="14" x="2063.5" y="908.2549">25</text><text fill="#000000" font-family="sans-serif" font-size="13" lengthAdjust="spacing" textLength="173" x="2081.5" y="908.2549">Put the list in ascending order</text><polygon fill="#181818" points="633.5,953.8086,623.5,957.8086,633.5,961.8086,629.5,957.8086" style="stroke:#181818;stroke-width:1.0;"/><line style="stroke:#181818;stroke-width:1.0;stroke-dasharray:2.0,2.0;" x1="627.5" x2="2050.5" y1="957.8086" y2="957.8086"/><text fill="#000000" font-family="sans-serif" font-size="13" font-weight="bold" lengthAdjust="spacing" textLength="14" x="639.5" y="952.5459">26</text><text fill="#000000" font-family="sans-serif" font-size="13" lengthAdjust="spacing" textLength="95" x="657.5" y="952.5459">VisitRequestList</text><polygon fill="#181818" points="401.5,985.0996,391.5,989.0996,401.5,993.0996,397.5,989.0996" style="stroke:#181818;stroke-width:1.0;"/><line style="stroke:#181818;stroke-width:1.0;stroke-dasharray:2.0,2.0;" x1="395.5" x2="616.5" y1="989.0996" y2="989.0996"/><text fill="#000000" font-family="sans-serif" font-size="13" font-weight="bold" lengthAdjust="spacing" textLength="14" x="407.5" y="983.8369">27</text><text fill="#000000" font-family="sans-serif" font-size="13" lengthAdjust="spacing" textLength="95" x="425.5" y="983.8369">VisitRequestList</text><polygon fill="#181818" points="37.5,1016.3906,27.5,1020.3906,37.5,1024.3906,33.5,1020.3906" style="stroke:#181818;stroke-width:1.0;"/><line style="stroke:#181818;stroke-width:1.0;stroke-dasharray:2.0,2.0;" x1="31.5" x2="384.5" y1="1020.3906" y2="1020.3906"/><text fill="#000000" font-family="sans-serif" font-size="13" font-weight="bold" lengthAdjust="spacing" textLength="14" x="43.5" y="1015.1279">28</text><text fill="#000000" font-family="sans-serif" font-size="13" lengthAdjust="spacing" textLength="176" x="61.5" y="1015.1279">Shows the list of visit requests</text><!--SRC=[bLRRRjim37ttLn1zMLSqFs1W0RAq3m6wDQZRFHKOL8T9X3gI9odjylUZv9jaoKqN84WiaOU7z14f_Sf5pHGxm44AMUwLF20OTSHCzpirAr_P3WjpgX0KbeQ9NUKRw3tRo7SkTh1bbSOiOqSZnV7mWYhBlkpv1c4hfNcHVpDM6gdWOh53OIw0QNZIP4GmXfUyPiB0HNx7jVd5DJSF-EU8sZoj6ilL6Rkb54R9gaBbx9UF3tSZZmUi9TbBnL4xctxXL72R5D4ENPJdyInYWFNTud4KP57N5I-PuL8Kg3NzEClVY_Kwj6HrtHeGyeHNv5GUbQBQ3OwsWBv7SLiKY_lGwVPGL_A4EAIRFujuqVd7ora8vfTS3rP4PMAdgVJj-duQvmVL0bN-7Ayvv-PlPjN3tvZ1HZKPqCV-WzcSr04vTB71ID18GjuZLAGIa5juiz0atyR2nrgrI2kOMI0BcFT8BxZZ0ZRCC61Y0qXVzq285ds4ki48DYAvvLNbV5ilR11xuoH2ZxIoE5RQLrU4LIeaI_sHNL2MwNgC0NeMxXX10qMGLiOvxD2iXAP6KEBbrvYvqxgFPXSwGZaCmk-DlC8vvtwZYzk5NGRwJmKFtEt7nUw3XmSeHI0PlpbMEGX63VARPM9VwazwId5e3s50erdpc5YeLFonSqV1zXfNW_Y8fZYurXGmi2jU_CH9Jx09OJekYOxYC_j-wgk31yQh1BrKd_79nlizTHYuPodAAUW0kyiYqVvXIjm1-TJSY8vG2dselZzP0bSlaRDXV6aqpFqEcjJ76OqaT9A6dE8SGtOaqpWnxPl7-ylk5Lwx_dj3mDVKUkrlc4abPMtz-xOs0agd_OcCOC9eDczdLOBqH96xwULlDckpERdbIzV4Ox0qsZWfUfxrf3xAtdj7uwsMpMoUplcpi6sY_YwzjEnyKPtO9kMnFffXSj4mPheaM7lTb6epYdScHjizV0jxYvnAQ48d2NLtmpr2ZjYDGhZncXpV_Lq4Yhry_w_X7Lv3_2TxR_e7]--></g></svg>
