<?xml version="1.0" encoding="us-ascii" standalone="no"?><svg xmlns="http://www.w3.org/2000/svg" xmlns:xlink="http://www.w3.org/1999/xlink" contentStyleType="text/css" height="462px" preserveAspectRatio="none" style="width:855px;height:462px;background:#FFFFFF;" version="1.1" viewBox="0 0 855 462" width="855px" zoomAndPan="magnify"><defs/><g><rect fill="#FFFFFF" height="267.6582" style="stroke:#181818;stroke-width:1.0;" width="10" x="56" y="93.6211"/><rect fill="#FFFFFF" height="31.291" style="stroke:#181818;stroke-width:1.0;" width="10" x="415" y="116.9121"/><rect fill="#FFFFFF" height="181.7852" style="stroke:#181818;stroke-width:1.0;" width="10" x="415" y="179.4941"/><rect fill="#FFFFFF" height="75.582" style="stroke:#181818;stroke-width:1.0;" width="10" x="647" y="254.4063"/><line style="stroke:#181818;stroke-width:0.5;stroke-dasharray:5.0,5.0;" x1="61" x2="61" y1="83.6211" y2="379.2793"/><line style="stroke:#181818;stroke-width:0.5;stroke-dasharray:5.0,5.0;" x1="419.5" x2="419.5" y1="83.6211" y2="379.2793"/><line style="stroke:#181818;stroke-width:0.5;stroke-dasharray:5.0,5.0;" x1="651.5" x2="651.5" y1="219.3047" y2="379.2793"/><text fill="#000000" font-family="sans-serif" font-size="14" lengthAdjust="spacing" textLength="106" x="5" y="80.1074">EmployeeProject</text><ellipse cx="61" cy="13.5" fill="#E3E3E3" rx="8" ry="8" style="stroke:#181818;stroke-width:0.5;"/><path d="M61,21.5 L61,48.5 M48,29.5 L74,29.5 M61,48.5 L48,63.5 M61,48.5 L74,63.5 " fill="none" style="stroke:#181818;stroke-width:0.5;"/><text fill="#000000" font-family="sans-serif" font-size="14" lengthAdjust="spacing" textLength="106" x="5" y="393.3867">EmployeeProject</text><ellipse cx="61" cy="405.4004" fill="#E3E3E3" rx="8" ry="8" style="stroke:#181818;stroke-width:0.5;"/><path d="M61,413.4004 L61,440.4004 M48,421.4004 L74,421.4004 M61,440.4004 L48,455.4004 M61,440.4004 L74,455.4004 " fill="none" style="stroke:#181818;stroke-width:0.5;"/><rect fill="#E3E3E3" height="32.6211" rx="2.5" ry="2.5" style="stroke:#181818;stroke-width:0.5;" width="131" x="354.5" y="50"/><text fill="#000000" font-family="sans-serif" font-size="14" lengthAdjust="spacing" textLength="117" x="361.5" y="72.1074">:ListVisitRequestUI</text><rect fill="#E3E3E3" height="32.6211" rx="2.5" ry="2.5" style="stroke:#181818;stroke-width:0.5;" width="131" x="354.5" y="378.2793"/><text fill="#000000" font-family="sans-serif" font-size="14" lengthAdjust="spacing" textLength="117" x="361.5" y="400.3867">:ListVisitRequestUI</text><rect fill="#E3E3E3" height="32.6211" rx="2.5" ry="2.5" style="stroke:#181818;stroke-width:0.5;" width="181" x="561.5" y="378.2793"/><text fill="#000000" font-family="sans-serif" font-size="14" lengthAdjust="spacing" textLength="167" x="568.5" y="400.3867">:ListVisitRequestController</text><rect fill="#FFFFFF" height="267.6582" style="stroke:#181818;stroke-width:1.0;" width="10" x="56" y="93.6211"/><rect fill="#FFFFFF" height="31.291" style="stroke:#181818;stroke-width:1.0;" width="10" x="415" y="116.9121"/><rect fill="#FFFFFF" height="181.7852" style="stroke:#181818;stroke-width:1.0;" width="10" x="415" y="179.4941"/><rect fill="#FFFFFF" height="75.582" style="stroke:#181818;stroke-width:1.0;" width="10" x="647" y="254.4063"/><polygon fill="#181818" points="403,112.9121,413,116.9121,403,120.9121,407,116.9121" style="stroke:#181818;stroke-width:1.0;"/><line style="stroke:#181818;stroke-width:1.0;" x1="66" x2="409" y1="116.9121" y2="116.9121"/><text fill="#000000" font-family="sans-serif" font-size="13" font-weight="bold" lengthAdjust="spacing" textLength="7" x="73" y="111.6494">1</text><text fill="#000000" font-family="sans-serif" font-size="13" lengthAdjust="spacing" textLength="232" x="84" y="111.6494">Requests to see the list of visit requests</text><polygon fill="#181818" points="77,144.2031,67,148.2031,77,152.2031,73,148.2031" style="stroke:#181818;stroke-width:1.0;"/><line style="stroke:#181818;stroke-width:1.0;stroke-dasharray:2.0,2.0;" x1="71" x2="419" y1="148.2031" y2="148.2031"/><text fill="#000000" font-family="sans-serif" font-size="13" font-weight="bold" lengthAdjust="spacing" textLength="7" x="83" y="142.9404">2</text><text fill="#000000" font-family="sans-serif" font-size="13" lengthAdjust="spacing" textLength="314" x="94" y="142.9404">Requests begin data and end data of the visit requests</text><polygon fill="#181818" points="403,175.4941,413,179.4941,403,183.4941,407,179.4941" style="stroke:#181818;stroke-width:1.0;"/><line style="stroke:#181818;stroke-width:1.0;" x1="66" x2="409" y1="179.4941" y2="179.4941"/><text fill="#000000" font-family="sans-serif" font-size="13" font-weight="bold" lengthAdjust="spacing" textLength="7" x="73" y="174.2314">3</text><text fill="#000000" font-family="sans-serif" font-size="13" lengthAdjust="spacing" textLength="124" x="84" y="174.2314">fill the requested data</text><polygon fill="#181818" points="549.5,206.7852,559.5,210.7852,549.5,214.7852,553.5,210.7852" style="stroke:#181818;stroke-width:1.0;"/><line style="stroke:#181818;stroke-width:1.0;" x1="425" x2="555.5" y1="210.7852" y2="210.7852"/><text fill="#000000" font-family="sans-serif" font-size="13" font-weight="bold" lengthAdjust="spacing" textLength="7" x="432" y="205.5225">4</text><text fill="#000000" font-family="sans-serif" font-size="13" lengthAdjust="spacing" textLength="43" x="443" y="205.5225">creates</text><rect fill="#E3E3E3" height="32.6211" rx="2.5" ry="2.5" style="stroke:#181818;stroke-width:0.5;" width="181" x="561.5" y="187.4941"/><text fill="#000000" font-family="sans-serif" font-size="14" lengthAdjust="spacing" textLength="167" x="568.5" y="209.6016">:ListVisitRequestController</text><polygon fill="#181818" points="635,250.4063,645,254.4063,635,258.4063,639,254.4063" style="stroke:#181818;stroke-width:1.0;"/><line style="stroke:#181818;stroke-width:1.0;" x1="425" x2="641" y1="254.4063" y2="254.4063"/><text fill="#000000" font-family="sans-serif" font-size="13" font-weight="bold" lengthAdjust="spacing" textLength="7" x="432" y="249.1436">5</text><text fill="#000000" font-family="sans-serif" font-size="13" lengthAdjust="spacing" textLength="192" x="443" y="249.1436">Requests the list of visit requests</text><line style="stroke:#181818;stroke-width:1.0;" x1="657" x2="699" y1="285.6973" y2="285.6973"/><line style="stroke:#181818;stroke-width:1.0;" x1="699" x2="699" y1="285.6973" y2="298.6973"/><line style="stroke:#181818;stroke-width:1.0;" x1="658" x2="699" y1="298.6973" y2="298.6973"/><polygon fill="#181818" points="668,294.6973,658,298.6973,668,302.6973,664,298.6973" style="stroke:#181818;stroke-width:1.0;"/><text fill="#000000" font-family="sans-serif" font-size="13" font-weight="bold" lengthAdjust="spacing" textLength="7" x="664" y="280.4346">6</text><text fill="#000000" font-family="sans-serif" font-size="13" lengthAdjust="spacing" textLength="173" x="675" y="280.4346">Put the list in ascending order</text><polygon fill="#181818" points="436,325.9883,426,329.9883,436,333.9883,432,329.9883" style="stroke:#181818;stroke-width:1.0;"/><line style="stroke:#181818;stroke-width:1.0;" x1="430" x2="651" y1="329.9883" y2="329.9883"/><text fill="#000000" font-family="sans-serif" font-size="13" font-weight="bold" lengthAdjust="spacing" textLength="7" x="442" y="324.7256">7</text><text fill="#000000" font-family="sans-serif" font-size="13" lengthAdjust="spacing" textLength="174" x="453" y="324.7256">Sends the list of visit requests</text><polygon fill="#181818" points="72,357.2793,62,361.2793,72,365.2793,68,361.2793" style="stroke:#181818;stroke-width:1.0;"/><line style="stroke:#181818;stroke-width:1.0;stroke-dasharray:2.0,2.0;" x1="66" x2="419" y1="361.2793" y2="361.2793"/><text fill="#000000" font-family="sans-serif" font-size="13" font-weight="bold" lengthAdjust="spacing" textLength="7" x="78" y="356.0166">8</text><text fill="#000000" font-family="sans-serif" font-size="13" lengthAdjust="spacing" textLength="176" x="89" y="356.0166">Shows the list of visit requests</text><!--SRC=[bPB1Ri8m38RlUGgBooGaNe035xH39Gu8nkwcTTkCDEuI5yRRBscxha2tQPOY9Shlpyxl-9EsDJgie6BBQUcu8X3NaFB3JOtf2GlQozKGE4e5RM760bzYnXTj2yZHU58A6s7RL4ToIZsLEYF8cUN87mfJOGUpvwesV2NQEduBm1cWXuCFyW0KdUeQhS1ikT5UNhNNigFtXhmSaawP_A5RinN7nf1hzUkNtKR5qlgCGbqX1I7Y3XQh08GbzBaUXC5JSA4aC04CdCCvmiFREyMObVIa11OH587BWNIaGbl8K13GPa1XjOT0ZFGxQaOFs8ScSsrCczjdKKSSn9E4WPH4JdHZFW-ir55G-jzqDxRyxCSzOEYYTHuc8buiLds9RIFVz60O-ZHO5VyJk-nhLbE4mPPzqF-hmnWZlxiVCkN3C5JObtpvLutRUOvF0VW9]--></g></svg>
