<?xml version="1.0" encoding="us-ascii" standalone="no"?><svg xmlns="http://www.w3.org/2000/svg" xmlns:xlink="http://www.w3.org/1999/xlink" contentStyleType="text/css" height="575px" preserveAspectRatio="none" style="width:1371px;height:575px;background:#FFFFFF;" version="1.1" viewBox="0 0 1371 575" width="1371px" zoomAndPan="magnify"><defs/><g><rect fill="#FFFFFF" height="410.7832" style="stroke:#181818;stroke-width:1.0;" width="10" x="156" y="90.5332"/><rect fill="#FFFFFF" height="31.291" style="stroke:#181818;stroke-width:1.0;" width="10" x="322.5" y="148.1152"/><rect fill="#FFFFFF" height="31.291" style="stroke:#181818;stroke-width:1.0;" width="10" x="429.5" y="210.6973"/><rect fill="#FFFFFF" height="189.7461" style="stroke:#181818;stroke-width:1.0;" width="10" x="646" y="273.2793"/><rect fill="#FFFFFF" height="93.873" style="stroke:#181818;stroke-width:1.0;" width="10" x="952" y="330.8613"/><rect fill="#FFFFFF" height="31.291" style="stroke:#181818;stroke-width:1.0;" width="10" x="1220" y="362.1523"/><rect fill="none" height="365.4922" style="stroke:#000000;stroke-width:1.5;" width="1322" x="43" y="105.5332"/><rect fill="none" height="144.4551" style="stroke:#000000;stroke-width:1.5;" width="872" x="483" y="288.2793"/><line style="stroke:#181818;stroke-width:0.5;stroke-dasharray:5.0,5.0;" x1="161" x2="161" y1="57.2422" y2="519.3164"/><line style="stroke:#181818;stroke-width:0.5;stroke-dasharray:5.0,5.0;" x1="327" x2="327" y1="57.2422" y2="519.3164"/><line style="stroke:#181818;stroke-width:0.5;stroke-dasharray:5.0,5.0;" x1="434" x2="434" y1="57.2422" y2="519.3164"/><line style="stroke:#181818;stroke-width:0.5;stroke-dasharray:5.0,5.0;" x1="651" x2="651" y1="57.2422" y2="519.3164"/><line style="stroke:#181818;stroke-width:0.5;stroke-dasharray:5.0,5.0;" x1="957" x2="957" y1="57.2422" y2="519.3164"/><line style="stroke:#181818;stroke-width:0.5;stroke-dasharray:5.0,5.0;" x1="1225" x2="1225" y1="57.2422" y2="519.3164"/><rect fill="#E3E3E3" height="32.6211" rx="2.5" ry="2.5" style="stroke:#181818;stroke-width:0.5;" width="216" x="53" y="23.6211"/><text fill="#000000" font-family="sans-serif" font-size="14" lengthAdjust="spacing" textLength="202" x="60" y="45.7285">:MessageVisitRequestController</text><rect fill="#E3E3E3" height="32.6211" rx="2.5" ry="2.5" style="stroke:#181818;stroke-width:0.5;" width="216" x="53" y="518.3164"/><text fill="#000000" font-family="sans-serif" font-size="14" lengthAdjust="spacing" textLength="202" x="60" y="540.4238">:MessageVisitRequestController</text><rect fill="#E3E3E3" height="32.6211" rx="2.5" ry="2.5" style="stroke:#181818;stroke-width:0.5;" width="97" x="279" y="23.6211"/><text fill="#000000" font-family="sans-serif" font-size="14" lengthAdjust="spacing" textLength="83" x="286" y="45.7285">:Repositories</text><rect fill="#E3E3E3" height="32.6211" rx="2.5" ry="2.5" style="stroke:#181818;stroke-width:0.5;" width="97" x="279" y="518.3164"/><text fill="#000000" font-family="sans-serif" font-size="14" lengthAdjust="spacing" textLength="83" x="286" y="540.4238">:Repositories</text><rect fill="#E3E3E3" height="51.2422" rx="2.5" ry="2.5" style="stroke:#181818;stroke-width:0.5;" width="97" x="386" y="5"/><text fill="#000000" font-family="sans-serif" font-size="14" lengthAdjust="spacing" textLength="74" x="397.5" y="27.1074">repositories</text><text fill="#000000" font-family="sans-serif" font-size="14" lengthAdjust="spacing" textLength="83" x="393" y="45.7285">:Repositories</text><rect fill="#E3E3E3" height="51.2422" rx="2.5" ry="2.5" style="stroke:#181818;stroke-width:0.5;" width="97" x="386" y="518.3164"/><text fill="#000000" font-family="sans-serif" font-size="14" lengthAdjust="spacing" textLength="74" x="397.5" y="540.4238">repositories</text><text fill="#000000" font-family="sans-serif" font-size="14" lengthAdjust="spacing" textLength="83" x="393" y="559.0449">:Repositories</text><rect fill="#E3E3E3" height="32.6211" rx="2.5" ry="2.5" style="stroke:#181818;stroke-width:0.5;" width="316" x="493" y="23.6211"/><text fill="#000000" font-family="sans-serif" font-size="14" lengthAdjust="spacing" textLength="302" x="500" y="45.7285">VisitRequestRepository:\VisitRequestRepository</text><rect fill="#E3E3E3" height="32.6211" rx="2.5" ry="2.5" style="stroke:#181818;stroke-width:0.5;" width="316" x="493" y="518.3164"/><text fill="#000000" font-family="sans-serif" font-size="14" lengthAdjust="spacing" textLength="302" x="500" y="540.4238">VisitRequestRepository:\VisitRequestRepository</text><rect fill="#E3E3E3" height="32.6211" rx="2.5" ry="2.5" style="stroke:#181818;stroke-width:0.5;" width="276" x="819" y="23.6211"/><text fill="#000000" font-family="sans-serif" font-size="14" lengthAdjust="spacing" textLength="262" x="826" y="45.7285">VisitRequestMapper:\VisitRequestMapper</text><rect fill="#E3E3E3" height="32.6211" rx="2.5" ry="2.5" style="stroke:#181818;stroke-width:0.5;" width="276" x="819" y="518.3164"/><text fill="#000000" font-family="sans-serif" font-size="14" lengthAdjust="spacing" textLength="262" x="826" y="540.4238">VisitRequestMapper:\VisitRequestMapper</text><rect fill="#E3E3E3" height="32.6211" rx="2.5" ry="2.5" style="stroke:#181818;stroke-width:0.5;" width="240" x="1105" y="23.6211"/><text fill="#000000" font-family="sans-serif" font-size="14" lengthAdjust="spacing" textLength="226" x="1112" y="45.7285">VisitRequestDTO:\VisitRequestDTO</text><rect fill="#E3E3E3" height="32.6211" rx="2.5" ry="2.5" style="stroke:#181818;stroke-width:0.5;" width="240" x="1105" y="518.3164"/><text fill="#000000" font-family="sans-serif" font-size="14" lengthAdjust="spacing" textLength="226" x="1112" y="540.4238">VisitRequestDTO:\VisitRequestDTO</text><rect fill="#FFFFFF" height="410.7832" style="stroke:#181818;stroke-width:1.0;" width="10" x="156" y="90.5332"/><rect fill="#FFFFFF" height="31.291" style="stroke:#181818;stroke-width:1.0;" width="10" x="322.5" y="148.1152"/><rect fill="#FFFFFF" height="31.291" style="stroke:#181818;stroke-width:1.0;" width="10" x="429.5" y="210.6973"/><rect fill="#FFFFFF" height="189.7461" style="stroke:#181818;stroke-width:1.0;" width="10" x="646" y="273.2793"/><rect fill="#FFFFFF" height="93.873" style="stroke:#181818;stroke-width:1.0;" width="10" x="952" y="330.8613"/><rect fill="#FFFFFF" height="31.291" style="stroke:#181818;stroke-width:1.0;" width="10" x="1220" y="362.1523"/><polygon fill="#181818" points="144,86.5332,154,90.5332,144,94.5332,148,90.5332" style="stroke:#181818;stroke-width:1.0;"/><line style="stroke:#181818;stroke-width:1.0;" x1="0" x2="150" y1="90.5332" y2="90.5332"/><text fill="#000000" font-family="sans-serif" font-size="13" font-weight="bold" lengthAdjust="spacing" textLength="7" x="7" y="85.2705">3</text><text fill="#000000" font-family="sans-serif" font-size="13" lengthAdjust="spacing" textLength="126" x="18" y="85.2705">getVisitRequestDTO()</text><path d="M43,105.5332 L230,105.5332 L230,114.8242 L220,124.8242 L43,124.8242 L43,105.5332 " fill="#EEEEEE" style="stroke:#000000;stroke-width:1.5;"/><rect fill="none" height="365.4922" style="stroke:#000000;stroke-width:1.5;" width="1322" x="43" y="105.5332"/><text fill="#000000" font-family="sans-serif" font-size="13" font-weight="bold" lengthAdjust="spacing" textLength="142" x="58" y="120.5615">Get Task Category List</text><polygon fill="#181818" points="310.5,144.1152,320.5,148.1152,310.5,152.1152,314.5,148.1152" style="stroke:#181818;stroke-width:1.0;"/><line style="stroke:#181818;stroke-width:1.0;" x1="166" x2="316.5" y1="148.1152" y2="148.1152"/><text fill="#000000" font-family="sans-serif" font-size="13" font-weight="bold" lengthAdjust="spacing" textLength="18" x="173" y="142.8525">3.1</text><text fill="#000000" font-family="sans-serif" font-size="13" lengthAdjust="spacing" textLength="75" x="195" y="142.8525">getInstance()</text><polygon fill="#181818" points="177,175.4063,167,179.4063,177,183.4063,173,179.4063" style="stroke:#181818;stroke-width:1.0;"/><line style="stroke:#181818;stroke-width:1.0;stroke-dasharray:2.0,2.0;" x1="171" x2="326.5" y1="179.4063" y2="179.4063"/><text fill="#000000" font-family="sans-serif" font-size="13" font-weight="bold" lengthAdjust="spacing" textLength="18" x="183" y="174.1436">3.2</text><text fill="#000000" font-family="sans-serif" font-size="13" lengthAdjust="spacing" textLength="67" x="205" y="174.1436">repositories</text><polygon fill="#181818" points="417.5,206.6973,427.5,210.6973,417.5,214.6973,421.5,210.6973" style="stroke:#181818;stroke-width:1.0;"/><line style="stroke:#181818;stroke-width:1.0;" x1="166" x2="423.5" y1="210.6973" y2="210.6973"/><text fill="#000000" font-family="sans-serif" font-size="13" font-weight="bold" lengthAdjust="spacing" textLength="18" x="173" y="205.4346">3.3</text><text fill="#000000" font-family="sans-serif" font-size="13" lengthAdjust="spacing" textLength="162" x="195" y="205.4346">getVisitRequestRepository()</text><polygon fill="#181818" points="177,237.9883,167,241.9883,177,245.9883,173,241.9883" style="stroke:#181818;stroke-width:1.0;"/><line style="stroke:#181818;stroke-width:1.0;stroke-dasharray:2.0,2.0;" x1="171" x2="433.5" y1="241.9883" y2="241.9883"/><text fill="#000000" font-family="sans-serif" font-size="13" font-weight="bold" lengthAdjust="spacing" textLength="18" x="183" y="236.7256">3.4</text><text fill="#000000" font-family="sans-serif" font-size="13" lengthAdjust="spacing" textLength="136" x="205" y="236.7256">VisitRequestRepository</text><polygon fill="#181818" points="634,269.2793,644,273.2793,634,277.2793,638,273.2793" style="stroke:#181818;stroke-width:1.0;"/><line style="stroke:#181818;stroke-width:1.0;" x1="166" x2="640" y1="273.2793" y2="273.2793"/><text fill="#000000" font-family="sans-serif" font-size="13" font-weight="bold" lengthAdjust="spacing" textLength="18" x="173" y="268.0166">3.5</text><text fill="#000000" font-family="sans-serif" font-size="13" lengthAdjust="spacing" textLength="126" x="195" y="268.0166">getVisitRequestDTO()</text><path d="M483,288.2793 L556,288.2793 L556,297.5703 L546,307.5703 L483,307.5703 L483,288.2793 " fill="#EEEEEE" style="stroke:#000000;stroke-width:1.5;"/><rect fill="none" height="144.4551" style="stroke:#000000;stroke-width:1.5;" width="872" x="483" y="288.2793"/><text fill="#000000" font-family="sans-serif" font-size="13" font-weight="bold" lengthAdjust="spacing" textLength="28" x="498" y="303.3076">loop</text><text fill="#000000" font-family="sans-serif" font-size="11" font-weight="bold" lengthAdjust="spacing" textLength="156" x="571" y="302.1494">[get list of VisitRequestDTO]</text><polygon fill="#181818" points="940,326.8613,950,330.8613,940,334.8613,944,330.8613" style="stroke:#181818;stroke-width:1.0;"/><line style="stroke:#181818;stroke-width:1.0;" x1="656" x2="946" y1="330.8613" y2="330.8613"/><text fill="#000000" font-family="sans-serif" font-size="13" font-weight="bold" lengthAdjust="spacing" textLength="18" x="663" y="325.5986">3.6</text><text fill="#000000" font-family="sans-serif" font-size="13" lengthAdjust="spacing" textLength="126" x="685" y="325.5986">getVisitRequestDTO()</text><polygon fill="#181818" points="1208,358.1523,1218,362.1523,1208,366.1523,1212,362.1523" style="stroke:#181818;stroke-width:1.0;"/><line style="stroke:#181818;stroke-width:1.0;" x1="962" x2="1214" y1="362.1523" y2="362.1523"/><text fill="#000000" font-family="sans-serif" font-size="13" font-weight="bold" lengthAdjust="spacing" textLength="18" x="969" y="356.8896">3.7</text><text fill="#000000" font-family="sans-serif" font-size="13" lengthAdjust="spacing" textLength="146" x="991" y="356.8896">CreateVisitRequestDTO()</text><polygon fill="#181818" points="973,389.4434,963,393.4434,973,397.4434,969,393.4434" style="stroke:#181818;stroke-width:1.0;"/><line style="stroke:#181818;stroke-width:1.0;stroke-dasharray:2.0,2.0;" x1="967" x2="1224" y1="393.4434" y2="393.4434"/><text fill="#000000" font-family="sans-serif" font-size="13" font-weight="bold" lengthAdjust="spacing" textLength="18" x="979" y="388.1807">3.8</text><text fill="#000000" font-family="sans-serif" font-size="13" lengthAdjust="spacing" textLength="100" x="1001" y="388.1807">VisitRequestDTO</text><polygon fill="#181818" points="667,420.7344,657,424.7344,667,428.7344,663,424.7344" style="stroke:#181818;stroke-width:1.0;"/><line style="stroke:#181818;stroke-width:1.0;stroke-dasharray:2.0,2.0;" x1="661" x2="956" y1="424.7344" y2="424.7344"/><text fill="#000000" font-family="sans-serif" font-size="13" font-weight="bold" lengthAdjust="spacing" textLength="18" x="673" y="419.4717">3.9</text><text fill="#000000" font-family="sans-serif" font-size="13" lengthAdjust="spacing" textLength="100" x="695" y="419.4717">VisitRequestDTO</text><polygon fill="#181818" points="177,459.0254,167,463.0254,177,467.0254,173,463.0254" style="stroke:#181818;stroke-width:1.0;"/><line style="stroke:#181818;stroke-width:1.0;stroke-dasharray:2.0,2.0;" x1="171" x2="650" y1="463.0254" y2="463.0254"/><text fill="#000000" font-family="sans-serif" font-size="13" font-weight="bold" lengthAdjust="spacing" textLength="25" x="183" y="457.7627">3.10</text><text fill="#000000" font-family="sans-serif" font-size="13" lengthAdjust="spacing" textLength="95" x="212" y="457.7627">VisitRequestList</text><polygon fill="#181818" points="11,497.3164,1,501.3164,11,505.3164,7,501.3164" style="stroke:#181818;stroke-width:1.0;"/><line style="stroke:#181818;stroke-width:1.0;stroke-dasharray:2.0,2.0;" x1="5" x2="160" y1="501.3164" y2="501.3164"/><text fill="#000000" font-family="sans-serif" font-size="13" font-weight="bold" lengthAdjust="spacing" textLength="7" x="17" y="496.0537">4</text><text fill="#000000" font-family="sans-serif" font-size="13" lengthAdjust="spacing" textLength="95" x="28" y="496.0537">VisitRequestList</text><!--SRC=[ZLHFJy8m5B_tKxnmKGyrCNeYXiHWOamW6Y2Uk9JjCHf6EzjEvTlRTMDqMwlq0dllz-UzlhPwpqN153l0GGgPx9Gy81XL8j5jfc39dcMuDCSSGM5YcCXo7w1tB9NVN6ImPRb6GbXff2WF6rI4NEruYh2Lqcpa3o6MONZ22oOCZCPprDfAVt3DpG8_IzHcAeLHCizHZO1fcAuMinvfWOMqUAauQeTf0ySbhqgpvbsAyXXhCHHudpsjkWo_ehFyU1sEEv5mAYuxPqM1gYjPnvnS_JTEVrwzTRasu8Zsrvy0t1C2TE8s4iQGeUcHhcywwDixmXB3lvZ1UlF1hap9ie0NDB1YUWzJcyniSp3ZsX27E2rdO-q2CwdTNuMs1oX1Q-lpMi_GC3l8QeNKQTFa6FnnTwWfNcvpQgGw6yDzEzDZVRWpDIZSgPqhZPoPICr3oLEHOPtOk7s5NCgYGa5kHmbo2prukBaBweO8Y4wQW_zlQQrRSnKwoJf69zKrc2gqiA5OMAtVbFscRL5_TUzDefzggg6JoBjneMpJg9z5aGuEKMJQz7pBVOIxen73o1o9x-mz3Wyky4XfxHCoyiJTw_4B]--></g></svg>
