<?xml version="1.0" encoding="us-ascii" standalone="no"?><svg xmlns="http://www.w3.org/2000/svg" xmlns:xlink="http://www.w3.org/1999/xlink" contentStyleType="text/css" height="1432px" preserveAspectRatio="none" style="width:2048px;height:1432px;background:#FFFFFF;" version="1.1" viewBox="0 0 2048 1432" width="2048px" zoomAndPan="magnify"><defs/><g><rect fill="#FFFFFF" height="1237.3398" style="stroke:#181818;stroke-width:1.0;" width="10" x="63.5" y="93.6211"/><rect fill="#FFFFFF" height="342.5313" style="stroke:#181818;stroke-width:1.0;" width="10" x="398.5" y="116.9121"/><rect fill="#FFFFFF" height="298.9102" style="stroke:#181818;stroke-width:1.0;" width="10" x="398.5" y="490.7344"/><rect fill="#FFFFFF" height="31.291" style="stroke:#181818;stroke-width:1.0;" width="10" x="398.5" y="820.9355"/><rect fill="#FFFFFF" height="31.291" style="stroke:#181818;stroke-width:1.0;" width="10" x="398.5" y="883.5176"/><rect fill="#FFFFFF" height="384.8613" style="stroke:#181818;stroke-width:1.0;" width="10" x="398.5" y="946.0996"/><rect fill="#FFFFFF" height="219.0371" style="stroke:#181818;stroke-width:1.0;" width="10" x="703.5" y="191.8242"/><rect fill="#FFFFFF" height="219.0371" style="stroke:#181818;stroke-width:1.0;" width="10" x="703.5" y="522.0254"/><rect fill="#FFFFFF" height="322.2793" style="stroke:#181818;stroke-width:1.0;" width="10" x="703.5" y="977.3906"/><rect fill="#FFFFFF" height="31.291" style="stroke:#181818;stroke-width:1.0;" width="10" x="871" y="223.1152"/><rect fill="#FFFFFF" height="31.291" style="stroke:#181818;stroke-width:1.0;" width="10" x="871" y="553.3164"/><rect fill="#FFFFFF" height="31.291" style="stroke:#181818;stroke-width:1.0;" width="10" x="978" y="285.6973"/><rect fill="#FFFFFF" height="31.291" style="stroke:#181818;stroke-width:1.0;" width="10" x="978" y="615.8984"/><rect fill="#FFFFFF" height="31.291" style="stroke:#181818;stroke-width:1.0;" width="10" x="1097.5" y="348.2793"/><rect fill="#FFFFFF" height="31.291" style="stroke:#181818;stroke-width:1.0;" width="10" x="1238.5" y="678.4805"/><rect fill="#FFFFFF" height="259.6973" style="stroke:#181818;stroke-width:1.0;" width="10" x="1409" y="1008.6816"/><rect fill="#FFFFFF" height="42.291" style="stroke:#181818;stroke-width:1.0;" width="10" x="1414" y="1136.5059"/><rect fill="#FFFFFF" height="42.291" style="stroke:#181818;stroke-width:1.0;" width="10" x="1770.5" y="1180.7969"/><rect fill="none" height="214.4063" style="stroke:#000000;stroke-width:1.5;" width="729" x="1313.5" y="1023.6816"/><line style="stroke:#181818;stroke-width:0.5;stroke-dasharray:5.0,5.0;" x1="68" x2="68" y1="83.6211" y2="1348.9609"/><line style="stroke:#181818;stroke-width:0.5;stroke-dasharray:5.0,5.0;" x1="403.5" x2="403.5" y1="83.6211" y2="1348.9609"/><line style="stroke:#181818;stroke-width:0.5;stroke-dasharray:5.0,5.0;" x1="708.5" x2="708.5" y1="156.7227" y2="1348.9609"/><line style="stroke:#181818;stroke-width:0.5;stroke-dasharray:5.0,5.0;" x1="875.5" x2="875.5" y1="83.6211" y2="1348.9609"/><line style="stroke:#181818;stroke-width:0.5;stroke-dasharray:5.0,5.0;" x1="982.5" x2="982.5" y1="83.6211" y2="1348.9609"/><line style="stroke:#181818;stroke-width:0.5;stroke-dasharray:5.0,5.0;" x1="1102.5" x2="1102.5" y1="83.6211" y2="1348.9609"/><line style="stroke:#181818;stroke-width:0.5;stroke-dasharray:5.0,5.0;" x1="1243.5" x2="1243.5" y1="83.6211" y2="1348.9609"/><line style="stroke:#181818;stroke-width:0.5;stroke-dasharray:5.0,5.0;" x1="1413.5" x2="1413.5" y1="83.6211" y2="1348.9609"/><line style="stroke:#181818;stroke-width:0.5;stroke-dasharray:5.0,5.0;" x1="1775" x2="1775" y1="1084.0938" y2="1348.9609"/><text fill="#000000" font-family="sans-serif" font-size="14" lengthAdjust="spacing" textLength="121" x="5" y="80.1074">Organization Agent</text><ellipse cx="68.5" cy="13.5" fill="#E3E3E3" rx="8" ry="8" style="stroke:#181818;stroke-width:0.5;"/><path d="M68.5,21.5 L68.5,48.5 M55.5,29.5 L81.5,29.5 M68.5,48.5 L55.5,63.5 M68.5,48.5 L81.5,63.5 " fill="none" style="stroke:#181818;stroke-width:0.5;"/><text fill="#000000" font-family="sans-serif" font-size="14" lengthAdjust="spacing" textLength="121" x="5" y="1363.0684">Organization Agent</text><ellipse cx="68.5" cy="1375.082" fill="#E3E3E3" rx="8" ry="8" style="stroke:#181818;stroke-width:0.5;"/><path d="M68.5,1383.082 L68.5,1410.082 M55.5,1391.082 L81.5,1391.082 M68.5,1410.082 L55.5,1425.082 M68.5,1410.082 L81.5,1425.082 " fill="none" style="stroke:#181818;stroke-width:0.5;"/><rect fill="#E3E3E3" height="32.6211" rx="2.5" ry="2.5" style="stroke:#181818;stroke-width:0.5;" width="168" x="319.5" y="50"/><text fill="#000000" font-family="sans-serif" font-size="14" lengthAdjust="spacing" textLength="154" x="326.5" y="72.1074">:CreateAnnouncementUI</text><rect fill="#E3E3E3" height="32.6211" rx="2.5" ry="2.5" style="stroke:#181818;stroke-width:0.5;" width="168" x="319.5" y="1347.9609"/><text fill="#000000" font-family="sans-serif" font-size="14" lengthAdjust="spacing" textLength="154" x="326.5" y="1370.0684">:CreateAnnouncementUI</text><rect fill="#E3E3E3" height="32.6211" rx="2.5" ry="2.5" style="stroke:#181818;stroke-width:0.5;" width="218" x="599.5" y="1347.9609"/><text fill="#000000" font-family="sans-serif" font-size="14" lengthAdjust="spacing" textLength="204" x="606.5" y="1370.0684">:CreateAnnouncementController</text><rect fill="#E3E3E3" height="32.6211" rx="2.5" ry="2.5" style="stroke:#181818;stroke-width:0.5;" width="97" x="827.5" y="50"/><text fill="#000000" font-family="sans-serif" font-size="14" lengthAdjust="spacing" textLength="83" x="834.5" y="72.1074">:Repositories</text><rect fill="#E3E3E3" height="32.6211" rx="2.5" ry="2.5" style="stroke:#181818;stroke-width:0.5;" width="97" x="827.5" y="1347.9609"/><text fill="#000000" font-family="sans-serif" font-size="14" lengthAdjust="spacing" textLength="83" x="834.5" y="1370.0684">:Repositories</text><rect fill="#E3E3E3" height="51.2422" rx="2.5" ry="2.5" style="stroke:#181818;stroke-width:0.5;" width="97" x="934.5" y="31.3789"/><text fill="#000000" font-family="sans-serif" font-size="14" lengthAdjust="spacing" textLength="74" x="946" y="53.4863">repositories</text><text fill="#000000" font-family="sans-serif" font-size="14" lengthAdjust="spacing" textLength="83" x="941.5" y="72.1074">:Repositories</text><rect fill="#E3E3E3" height="51.2422" rx="2.5" ry="2.5" style="stroke:#181818;stroke-width:0.5;" width="97" x="934.5" y="1347.9609"/><text fill="#000000" font-family="sans-serif" font-size="14" lengthAdjust="spacing" textLength="74" x="946" y="1370.0684">repositories</text><text fill="#000000" font-family="sans-serif" font-size="14" lengthAdjust="spacing" textLength="83" x="941.5" y="1388.6895">:Repositories</text><rect fill="#E3E3E3" height="51.2422" rx="2.5" ry="2.5" style="stroke:#181818;stroke-width:0.5;" width="122" x="1041.5" y="31.3789"/><text fill="#000000" font-family="sans-serif" font-size="14" lengthAdjust="spacing" textLength="108" x="1048.5" y="53.4863">ClientRepository:</text><text fill="#000000" font-family="sans-serif" font-size="14" lengthAdjust="spacing" textLength="104" x="1050.5" y="72.1074">ClientRepository</text><rect fill="#E3E3E3" height="51.2422" rx="2.5" ry="2.5" style="stroke:#181818;stroke-width:0.5;" width="122" x="1041.5" y="1347.9609"/><text fill="#000000" font-family="sans-serif" font-size="14" lengthAdjust="spacing" textLength="108" x="1048.5" y="1370.0684">ClientRepository:</text><text fill="#000000" font-family="sans-serif" font-size="14" lengthAdjust="spacing" textLength="104" x="1050.5" y="1388.6895">ClientRepository</text><rect fill="#E3E3E3" height="51.2422" rx="2.5" ry="2.5" style="stroke:#181818;stroke-width:0.5;" width="140" x="1173.5" y="31.3789"/><text fill="#000000" font-family="sans-serif" font-size="14" lengthAdjust="spacing" textLength="126" x="1180.5" y="53.4863">PropertyRepository:</text><text fill="#000000" font-family="sans-serif" font-size="14" lengthAdjust="spacing" textLength="122" x="1182.5" y="72.1074">PropertyRepository</text><rect fill="#E3E3E3" height="51.2422" rx="2.5" ry="2.5" style="stroke:#181818;stroke-width:0.5;" width="140" x="1173.5" y="1347.9609"/><text fill="#000000" font-family="sans-serif" font-size="14" lengthAdjust="spacing" textLength="126" x="1180.5" y="1370.0684">PropertyRepository:</text><text fill="#000000" font-family="sans-serif" font-size="14" lengthAdjust="spacing" textLength="122" x="1182.5" y="1388.6895">PropertyRepository</text><rect fill="#E3E3E3" height="51.2422" rx="2.5" ry="2.5" style="stroke:#181818;stroke-width:0.5;" width="181" x="1323.5" y="31.3789"/><text fill="#000000" font-family="sans-serif" font-size="14" lengthAdjust="spacing" textLength="163" x="1332.5" y="53.4863">AnnouncementRepository</text><text fill="#000000" font-family="sans-serif" font-size="14" lengthAdjust="spacing" textLength="167" x="1330.5" y="72.1074">:AnnouncementRepository</text><rect fill="#E3E3E3" height="51.2422" rx="2.5" ry="2.5" style="stroke:#181818;stroke-width:0.5;" width="181" x="1323.5" y="1347.9609"/><text fill="#000000" font-family="sans-serif" font-size="14" lengthAdjust="spacing" textLength="163" x="1332.5" y="1370.0684">AnnouncementRepository</text><text fill="#000000" font-family="sans-serif" font-size="14" lengthAdjust="spacing" textLength="167" x="1330.5" y="1388.6895">:AnnouncementRepository</text><rect fill="#E3E3E3" height="51.2422" rx="2.5" ry="2.5" style="stroke:#181818;stroke-width:0.5;" width="113" x="1719" y="1347.9609"/><text fill="#000000" font-family="sans-serif" font-size="14" lengthAdjust="spacing" textLength="95" x="1728" y="1370.0684">Announcement</text><text fill="#000000" font-family="sans-serif" font-size="14" lengthAdjust="spacing" textLength="99" x="1726" y="1388.6895">:Announcement</text><rect fill="#FFFFFF" height="1237.3398" style="stroke:#181818;stroke-width:1.0;" width="10" x="63.5" y="93.6211"/><rect fill="#FFFFFF" height="342.5313" style="stroke:#181818;stroke-width:1.0;" width="10" x="398.5" y="116.9121"/><rect fill="#FFFFFF" height="298.9102" style="stroke:#181818;stroke-width:1.0;" width="10" x="398.5" y="490.7344"/><rect fill="#FFFFFF" height="31.291" style="stroke:#181818;stroke-width:1.0;" width="10" x="398.5" y="820.9355"/><rect fill="#FFFFFF" height="31.291" style="stroke:#181818;stroke-width:1.0;" width="10" x="398.5" y="883.5176"/><rect fill="#FFFFFF" height="384.8613" style="stroke:#181818;stroke-width:1.0;" width="10" x="398.5" y="946.0996"/><rect fill="#FFFFFF" height="219.0371" style="stroke:#181818;stroke-width:1.0;" width="10" x="703.5" y="191.8242"/><rect fill="#FFFFFF" height="219.0371" style="stroke:#181818;stroke-width:1.0;" width="10" x="703.5" y="522.0254"/><rect fill="#FFFFFF" height="322.2793" style="stroke:#181818;stroke-width:1.0;" width="10" x="703.5" y="977.3906"/><rect fill="#FFFFFF" height="31.291" style="stroke:#181818;stroke-width:1.0;" width="10" x="871" y="223.1152"/><rect fill="#FFFFFF" height="31.291" style="stroke:#181818;stroke-width:1.0;" width="10" x="871" y="553.3164"/><rect fill="#FFFFFF" height="31.291" style="stroke:#181818;stroke-width:1.0;" width="10" x="978" y="285.6973"/><rect fill="#FFFFFF" height="31.291" style="stroke:#181818;stroke-width:1.0;" width="10" x="978" y="615.8984"/><rect fill="#FFFFFF" height="31.291" style="stroke:#181818;stroke-width:1.0;" width="10" x="1097.5" y="348.2793"/><rect fill="#FFFFFF" height="31.291" style="stroke:#181818;stroke-width:1.0;" width="10" x="1238.5" y="678.4805"/><rect fill="#FFFFFF" height="259.6973" style="stroke:#181818;stroke-width:1.0;" width="10" x="1409" y="1008.6816"/><rect fill="#FFFFFF" height="42.291" style="stroke:#181818;stroke-width:1.0;" width="10" x="1414" y="1136.5059"/><rect fill="#FFFFFF" height="42.291" style="stroke:#181818;stroke-width:1.0;" width="10" x="1770.5" y="1180.7969"/><polygon fill="#181818" points="386.5,112.9121,396.5,116.9121,386.5,120.9121,390.5,116.9121" style="stroke:#181818;stroke-width:1.0;"/><line style="stroke:#181818;stroke-width:1.0;" x1="73.5" x2="392.5" y1="116.9121" y2="116.9121"/><text fill="#000000" font-family="sans-serif" font-size="13" font-weight="bold" lengthAdjust="spacing" textLength="7" x="80.5" y="111.6494">1</text><text fill="#000000" font-family="sans-serif" font-size="13" lengthAdjust="spacing" textLength="212" x="91.5" y="111.6494">asks to create a new Announcement</text><polygon fill="#181818" points="587.5,144.2031,597.5,148.2031,587.5,152.2031,591.5,148.2031" style="stroke:#181818;stroke-width:1.0;"/><line style="stroke:#181818;stroke-width:1.0;" x1="408.5" x2="593.5" y1="148.2031" y2="148.2031"/><text fill="#000000" font-family="sans-serif" font-size="13" font-weight="bold" lengthAdjust="spacing" textLength="7" x="415.5" y="142.9404">2</text><text fill="#000000" font-family="sans-serif" font-size="13" lengthAdjust="spacing" textLength="36" x="426.5" y="142.9404">create</text><rect fill="#E3E3E3" height="32.6211" rx="2.5" ry="2.5" style="stroke:#181818;stroke-width:0.5;" width="218" x="599.5" y="124.9121"/><text fill="#000000" font-family="sans-serif" font-size="14" lengthAdjust="spacing" textLength="204" x="606.5" y="147.0195">:CreateAnnouncementController</text><polygon fill="#181818" points="691.5,187.8242,701.5,191.8242,691.5,195.8242,695.5,191.8242" style="stroke:#181818;stroke-width:1.0;"/><line style="stroke:#181818;stroke-width:1.0;" x1="408.5" x2="697.5" y1="191.8242" y2="191.8242"/><text fill="#000000" font-family="sans-serif" font-size="13" font-weight="bold" lengthAdjust="spacing" textLength="7" x="415.5" y="186.5615">3</text><text fill="#000000" font-family="sans-serif" font-size="13" lengthAdjust="spacing" textLength="66" x="426.5" y="186.5615">getClients()</text><polygon fill="#181818" points="859,219.1152,869,223.1152,859,227.1152,863,223.1152" style="stroke:#181818;stroke-width:1.0;"/><line style="stroke:#181818;stroke-width:1.0;" x1="713.5" x2="865" y1="223.1152" y2="223.1152"/><text fill="#000000" font-family="sans-serif" font-size="13" font-weight="bold" lengthAdjust="spacing" textLength="7" x="720.5" y="217.8525">4</text><text fill="#000000" font-family="sans-serif" font-size="13" lengthAdjust="spacing" textLength="75" x="731.5" y="217.8525">getInstance()</text><polygon fill="#181818" points="724.5,250.4063,714.5,254.4063,724.5,258.4063,720.5,254.4063" style="stroke:#181818;stroke-width:1.0;"/><line style="stroke:#181818;stroke-width:1.0;stroke-dasharray:2.0,2.0;" x1="718.5" x2="875" y1="254.4063" y2="254.4063"/><text fill="#000000" font-family="sans-serif" font-size="13" font-weight="bold" lengthAdjust="spacing" textLength="7" x="730.5" y="249.1436">5</text><text fill="#000000" font-family="sans-serif" font-size="13" lengthAdjust="spacing" textLength="67" x="741.5" y="249.1436">repositories</text><polygon fill="#181818" points="966,281.6973,976,285.6973,966,289.6973,970,285.6973" style="stroke:#181818;stroke-width:1.0;"/><line style="stroke:#181818;stroke-width:1.0;" x1="713.5" x2="972" y1="285.6973" y2="285.6973"/><text fill="#000000" font-family="sans-serif" font-size="13" font-weight="bold" lengthAdjust="spacing" textLength="7" x="720.5" y="280.4346">6</text><text fill="#000000" font-family="sans-serif" font-size="13" lengthAdjust="spacing" textLength="121" x="731.5" y="280.4346">getClientRepository()</text><polygon fill="#181818" points="724.5,312.9883,714.5,316.9883,724.5,320.9883,720.5,316.9883" style="stroke:#181818;stroke-width:1.0;"/><line style="stroke:#181818;stroke-width:1.0;stroke-dasharray:2.0,2.0;" x1="718.5" x2="982" y1="316.9883" y2="316.9883"/><text fill="#000000" font-family="sans-serif" font-size="13" font-weight="bold" lengthAdjust="spacing" textLength="7" x="730.5" y="311.7256">7</text><text fill="#000000" font-family="sans-serif" font-size="13" lengthAdjust="spacing" textLength="95" x="741.5" y="311.7256">ClientRepository</text><polygon fill="#181818" points="1085.5,344.2793,1095.5,348.2793,1085.5,352.2793,1089.5,348.2793" style="stroke:#181818;stroke-width:1.0;"/><line style="stroke:#181818;stroke-width:1.0;" x1="713.5" x2="1091.5" y1="348.2793" y2="348.2793"/><text fill="#000000" font-family="sans-serif" font-size="13" font-weight="bold" lengthAdjust="spacing" textLength="7" x="720.5" y="343.0166">8</text><text fill="#000000" font-family="sans-serif" font-size="13" lengthAdjust="spacing" textLength="80" x="731.5" y="343.0166">getClientList()</text><polygon fill="#181818" points="724.5,375.5703,714.5,379.5703,724.5,383.5703,720.5,379.5703" style="stroke:#181818;stroke-width:1.0;"/><line style="stroke:#181818;stroke-width:1.0;stroke-dasharray:2.0,2.0;" x1="718.5" x2="1101.5" y1="379.5703" y2="379.5703"/><text fill="#000000" font-family="sans-serif" font-size="13" font-weight="bold" lengthAdjust="spacing" textLength="7" x="730.5" y="374.3076">9</text><text fill="#000000" font-family="sans-serif" font-size="13" lengthAdjust="spacing" textLength="54" x="741.5" y="374.3076">ClientList</text><polygon fill="#181818" points="419.5,406.8613,409.5,410.8613,419.5,414.8613,415.5,410.8613" style="stroke:#181818;stroke-width:1.0;"/><line style="stroke:#181818;stroke-width:1.0;stroke-dasharray:2.0,2.0;" x1="413.5" x2="707.5" y1="410.8613" y2="410.8613"/><text fill="#000000" font-family="sans-serif" font-size="13" font-weight="bold" lengthAdjust="spacing" textLength="14" x="425.5" y="405.5986">10</text><text fill="#000000" font-family="sans-serif" font-size="13" lengthAdjust="spacing" textLength="58" x="443.5" y="405.5986">Client List</text><polygon fill="#181818" points="84.5,455.4434,74.5,459.4434,84.5,463.4434,80.5,459.4434" style="stroke:#181818;stroke-width:1.0;"/><line style="stroke:#181818;stroke-width:1.0;stroke-dasharray:2.0,2.0;" x1="78.5" x2="402.5" y1="459.4434" y2="459.4434"/><text fill="#000000" font-family="sans-serif" font-size="13" font-weight="bold" lengthAdjust="spacing" textLength="14" x="90.5" y="445.5352">11</text><text fill="#000000" font-family="sans-serif" font-size="13" lengthAdjust="spacing" textLength="100" x="108.5" y="436.8896">shows clients list</text><text fill="#000000" font-family="sans-serif" font-size="13" lengthAdjust="spacing" textLength="132" x="112.5" y="454.1807">and asks to select one</text><polygon fill="#181818" points="386.5,486.7344,396.5,490.7344,386.5,494.7344,390.5,490.7344" style="stroke:#181818;stroke-width:1.0;"/><line style="stroke:#181818;stroke-width:1.0;" x1="73.5" x2="392.5" y1="490.7344" y2="490.7344"/><text fill="#000000" font-family="sans-serif" font-size="13" font-weight="bold" lengthAdjust="spacing" textLength="14" x="80.5" y="485.4717">12</text><text fill="#000000" font-family="sans-serif" font-size="13" lengthAdjust="spacing" textLength="90" x="98.5" y="485.4717">selects a Client</text><polygon fill="#181818" points="691.5,518.0254,701.5,522.0254,691.5,526.0254,695.5,522.0254" style="stroke:#181818;stroke-width:1.0;"/><line style="stroke:#181818;stroke-width:1.0;" x1="408.5" x2="697.5" y1="522.0254" y2="522.0254"/><text fill="#000000" font-family="sans-serif" font-size="13" font-weight="bold" lengthAdjust="spacing" textLength="14" x="415.5" y="516.7627">13</text><text fill="#000000" font-family="sans-serif" font-size="13" lengthAdjust="spacing" textLength="75" x="433.5" y="516.7627">getProperty()</text><polygon fill="#181818" points="859,549.3164,869,553.3164,859,557.3164,863,553.3164" style="stroke:#181818;stroke-width:1.0;"/><line style="stroke:#181818;stroke-width:1.0;" x1="713.5" x2="865" y1="553.3164" y2="553.3164"/><text fill="#000000" font-family="sans-serif" font-size="13" font-weight="bold" lengthAdjust="spacing" textLength="14" x="720.5" y="548.0537">14</text><text fill="#000000" font-family="sans-serif" font-size="13" lengthAdjust="spacing" textLength="75" x="738.5" y="548.0537">getInstance()</text><polygon fill="#181818" points="724.5,580.6074,714.5,584.6074,724.5,588.6074,720.5,584.6074" style="stroke:#181818;stroke-width:1.0;"/><line style="stroke:#181818;stroke-width:1.0;stroke-dasharray:2.0,2.0;" x1="718.5" x2="875" y1="584.6074" y2="584.6074"/><text fill="#000000" font-family="sans-serif" font-size="13" font-weight="bold" lengthAdjust="spacing" textLength="14" x="730.5" y="579.3447">15</text><text fill="#000000" font-family="sans-serif" font-size="13" lengthAdjust="spacing" textLength="67" x="748.5" y="579.3447">repositories</text><polygon fill="#181818" points="966,611.8984,976,615.8984,966,619.8984,970,615.8984" style="stroke:#181818;stroke-width:1.0;"/><line style="stroke:#181818;stroke-width:1.0;" x1="713.5" x2="972" y1="615.8984" y2="615.8984"/><text fill="#000000" font-family="sans-serif" font-size="13" font-weight="bold" lengthAdjust="spacing" textLength="14" x="720.5" y="610.6357">16</text><text fill="#000000" font-family="sans-serif" font-size="13" lengthAdjust="spacing" textLength="137" x="738.5" y="610.6357">getPropertyRepository()</text><polygon fill="#181818" points="724.5,643.1895,714.5,647.1895,724.5,651.1895,720.5,647.1895" style="stroke:#181818;stroke-width:1.0;"/><line style="stroke:#181818;stroke-width:1.0;stroke-dasharray:2.0,2.0;" x1="718.5" x2="982" y1="647.1895" y2="647.1895"/><text fill="#000000" font-family="sans-serif" font-size="13" font-weight="bold" lengthAdjust="spacing" textLength="14" x="730.5" y="641.9268">17</text><text fill="#000000" font-family="sans-serif" font-size="13" lengthAdjust="spacing" textLength="111" x="748.5" y="641.9268">PropertyRepository</text><polygon fill="#181818" points="1226.5,674.4805,1236.5,678.4805,1226.5,682.4805,1230.5,678.4805" style="stroke:#181818;stroke-width:1.0;"/><line style="stroke:#181818;stroke-width:1.0;" x1="713.5" x2="1232.5" y1="678.4805" y2="678.4805"/><text fill="#000000" font-family="sans-serif" font-size="13" font-weight="bold" lengthAdjust="spacing" textLength="14" x="720.5" y="673.2178">18</text><text fill="#000000" font-family="sans-serif" font-size="13" lengthAdjust="spacing" textLength="96" x="738.5" y="673.2178">getPropertyList()</text><polygon fill="#181818" points="724.5,705.7715,714.5,709.7715,724.5,713.7715,720.5,709.7715" style="stroke:#181818;stroke-width:1.0;"/><line style="stroke:#181818;stroke-width:1.0;stroke-dasharray:2.0,2.0;" x1="718.5" x2="1242.5" y1="709.7715" y2="709.7715"/><text fill="#000000" font-family="sans-serif" font-size="13" font-weight="bold" lengthAdjust="spacing" textLength="14" x="730.5" y="704.5088">19</text><text fill="#000000" font-family="sans-serif" font-size="13" lengthAdjust="spacing" textLength="70" x="748.5" y="704.5088">PropertyList</text><polygon fill="#181818" points="419.5,737.0625,409.5,741.0625,419.5,745.0625,415.5,741.0625" style="stroke:#181818;stroke-width:1.0;"/><line style="stroke:#181818;stroke-width:1.0;stroke-dasharray:2.0,2.0;" x1="413.5" x2="707.5" y1="741.0625" y2="741.0625"/><text fill="#000000" font-family="sans-serif" font-size="13" font-weight="bold" lengthAdjust="spacing" textLength="14" x="425.5" y="735.7998">20</text><text fill="#000000" font-family="sans-serif" font-size="13" lengthAdjust="spacing" textLength="70" x="443.5" y="735.7998">PropertyList</text><polygon fill="#181818" points="84.5,785.6445,74.5,789.6445,84.5,793.6445,80.5,789.6445" style="stroke:#181818;stroke-width:1.0;"/><line style="stroke:#181818;stroke-width:1.0;stroke-dasharray:2.0,2.0;" x1="78.5" x2="402.5" y1="789.6445" y2="789.6445"/><text fill="#000000" font-family="sans-serif" font-size="13" font-weight="bold" lengthAdjust="spacing" textLength="14" x="90.5" y="775.7363">21</text><text fill="#000000" font-family="sans-serif" font-size="13" lengthAdjust="spacing" textLength="109" x="108.5" y="767.0908">shows property list</text><text fill="#000000" font-family="sans-serif" font-size="13" lengthAdjust="spacing" textLength="132" x="112.5" y="784.3818">and asks to select one</text><polygon fill="#181818" points="386.5,816.9355,396.5,820.9355,386.5,824.9355,390.5,820.9355" style="stroke:#181818;stroke-width:1.0;"/><line style="stroke:#181818;stroke-width:1.0;" x1="73.5" x2="392.5" y1="820.9355" y2="820.9355"/><text fill="#000000" font-family="sans-serif" font-size="13" font-weight="bold" lengthAdjust="spacing" textLength="14" x="80.5" y="815.6729">22</text><text fill="#000000" font-family="sans-serif" font-size="13" lengthAdjust="spacing" textLength="104" x="98.5" y="815.6729">selects a property</text><polygon fill="#181818" points="84.5,848.2266,74.5,852.2266,84.5,856.2266,80.5,852.2266" style="stroke:#181818;stroke-width:1.0;"/><line style="stroke:#181818;stroke-width:1.0;stroke-dasharray:2.0,2.0;" x1="78.5" x2="402.5" y1="852.2266" y2="852.2266"/><text fill="#000000" font-family="sans-serif" font-size="13" font-weight="bold" lengthAdjust="spacing" textLength="14" x="90.5" y="846.9639">23</text><text fill="#000000" font-family="sans-serif" font-size="13" lengthAdjust="spacing" textLength="79" x="108.5" y="846.9639">requests data</text><polygon fill="#181818" points="386.5,879.5176,396.5,883.5176,386.5,887.5176,390.5,883.5176" style="stroke:#181818;stroke-width:1.0;"/><line style="stroke:#181818;stroke-width:1.0;" x1="73.5" x2="392.5" y1="883.5176" y2="883.5176"/><text fill="#000000" font-family="sans-serif" font-size="13" font-weight="bold" lengthAdjust="spacing" textLength="14" x="80.5" y="878.2549">24</text><text fill="#000000" font-family="sans-serif" font-size="13" lengthAdjust="spacing" textLength="204" x="98.5" y="878.2549">types requested data (commission)</text><polygon fill="#181818" points="84.5,910.8086,74.5,914.8086,84.5,918.8086,80.5,914.8086" style="stroke:#181818;stroke-width:1.0;"/><line style="stroke:#181818;stroke-width:1.0;stroke-dasharray:2.0,2.0;" x1="78.5" x2="402.5" y1="914.8086" y2="914.8086"/><text fill="#000000" font-family="sans-serif" font-size="13" font-weight="bold" lengthAdjust="spacing" textLength="14" x="90.5" y="909.5459">25</text><text fill="#000000" font-family="sans-serif" font-size="13" lengthAdjust="spacing" textLength="283" x="108.5" y="909.5459">shows selected Property, Client and commission</text><polygon fill="#181818" points="386.5,942.0996,396.5,946.0996,386.5,950.0996,390.5,946.0996" style="stroke:#181818;stroke-width:1.0;"/><line style="stroke:#181818;stroke-width:1.0;" x1="73.5" x2="392.5" y1="946.0996" y2="946.0996"/><text fill="#000000" font-family="sans-serif" font-size="13" font-weight="bold" lengthAdjust="spacing" textLength="14" x="80.5" y="940.8369">26</text><text fill="#000000" font-family="sans-serif" font-size="13" lengthAdjust="spacing" textLength="75" x="98.5" y="940.8369">submits data</text><polygon fill="#181818" points="691.5,973.3906,701.5,977.3906,691.5,981.3906,695.5,977.3906" style="stroke:#181818;stroke-width:1.0;"/><line style="stroke:#181818;stroke-width:1.0;" x1="408.5" x2="697.5" y1="977.3906" y2="977.3906"/><text fill="#000000" font-family="sans-serif" font-size="13" font-weight="bold" lengthAdjust="spacing" textLength="14" x="415.5" y="972.1279">27</text><text fill="#000000" font-family="sans-serif" font-size="13" lengthAdjust="spacing" textLength="258" x="433.5" y="972.1279">createAnnouncement(Property, commission)</text><polygon fill="#181818" points="1397,1004.6816,1407,1008.6816,1397,1012.6816,1401,1008.6816" style="stroke:#181818;stroke-width:1.0;"/><line style="stroke:#181818;stroke-width:1.0;" x1="713.5" x2="1403" y1="1008.6816" y2="1008.6816"/><text fill="#000000" font-family="sans-serif" font-size="13" font-weight="bold" lengthAdjust="spacing" textLength="14" x="720.5" y="1003.4189">28</text><text fill="#000000" font-family="sans-serif" font-size="13" lengthAdjust="spacing" textLength="258" x="738.5" y="1003.4189">createAnnouncement(Property, commission)</text><path d="M1313.5,1023.6816 L1500.5,1023.6816 L1500.5,1032.9727 L1490.5,1042.9727 L1313.5,1042.9727 L1313.5,1023.6816 " fill="#EEEEEE" style="stroke:#000000;stroke-width:1.5;"/><rect fill="none" height="214.4063" style="stroke:#000000;stroke-width:1.5;" width="729" x="1313.5" y="1023.6816"/><text fill="#000000" font-family="sans-serif" font-size="13" font-weight="bold" lengthAdjust="spacing" textLength="142" x="1328.5" y="1038.71">Create Announcement</text><polygon fill="#181818" points="1707,1062.2637,1717,1066.2637,1707,1070.2637,1711,1066.2637" style="stroke:#181818;stroke-width:1.0;"/><line style="stroke:#181818;stroke-width:1.0;" x1="1419" x2="1713" y1="1066.2637" y2="1066.2637"/><text fill="#000000" font-family="sans-serif" font-size="13" font-weight="bold" lengthAdjust="spacing" textLength="14" x="1426" y="1061.001">29</text><text fill="#000000" font-family="sans-serif" font-size="13" lengthAdjust="spacing" textLength="258" x="1444" y="1061.001">createAnnouncement(Property, commission)</text><rect fill="#E3E3E3" height="51.2422" rx="2.5" ry="2.5" style="stroke:#181818;stroke-width:0.5;" width="113" x="1719" y="1042.9727"/><text fill="#000000" font-family="sans-serif" font-size="14" lengthAdjust="spacing" textLength="95" x="1728" y="1065.0801">Announcement</text><text fill="#000000" font-family="sans-serif" font-size="14" lengthAdjust="spacing" textLength="99" x="1726" y="1083.7012">:Announcement</text><line style="stroke:#181818;stroke-width:1.0;" x1="1419" x2="1466" y1="1123.5059" y2="1123.5059"/><line style="stroke:#181818;stroke-width:1.0;" x1="1466" x2="1466" y1="1123.5059" y2="1136.5059"/><line style="stroke:#181818;stroke-width:1.0;" x1="1425" x2="1466" y1="1136.5059" y2="1136.5059"/><polygon fill="#181818" points="1435,1132.5059,1425,1136.5059,1435,1140.5059,1431,1136.5059" style="stroke:#181818;stroke-width:1.0;"/><text fill="#000000" font-family="sans-serif" font-size="13" font-weight="bold" lengthAdjust="spacing" textLength="14" x="1431" y="1118.2432">30</text><text fill="#000000" font-family="sans-serif" font-size="13" lengthAdjust="spacing" textLength="207" x="1449" y="1118.2432">addAnnouncement (Announcement)</text><line style="stroke:#181818;stroke-width:1.0;" x1="1780.5" x2="1822.5" y1="1172.7969" y2="1172.7969"/><line style="stroke:#181818;stroke-width:1.0;" x1="1822.5" x2="1822.5" y1="1172.7969" y2="1185.7969"/><line style="stroke:#181818;stroke-width:1.0;" x1="1781.5" x2="1822.5" y1="1185.7969" y2="1185.7969"/><polygon fill="#181818" points="1791.5,1181.7969,1781.5,1185.7969,1791.5,1189.7969,1787.5,1185.7969" style="stroke:#181818;stroke-width:1.0;"/><text fill="#000000" font-family="sans-serif" font-size="13" font-weight="bold" lengthAdjust="spacing" textLength="14" x="1787.5" y="1167.5342">31</text><text fill="#000000" font-family="sans-serif" font-size="13" lengthAdjust="spacing" textLength="225" x="1805.5" y="1167.5342">validateAnnouncement(Announcement)</text><line style="stroke:#181818;stroke-width:1.0;stroke-dasharray:2.0,2.0;" x1="1780.5" x2="1822.5" y1="1222.0879" y2="1222.0879"/><line style="stroke:#181818;stroke-width:1.0;stroke-dasharray:2.0,2.0;" x1="1822.5" x2="1822.5" y1="1222.0879" y2="1235.0879"/><line style="stroke:#181818;stroke-width:1.0;stroke-dasharray:2.0,2.0;" x1="1775.5" x2="1822.5" y1="1235.0879" y2="1235.0879"/><polygon fill="#181818" points="1785.5,1231.0879,1775.5,1235.0879,1785.5,1239.0879,1781.5,1235.0879" style="stroke:#181818;stroke-width:1.0;"/><text fill="#000000" font-family="sans-serif" font-size="13" font-weight="bold" lengthAdjust="spacing" textLength="14" x="1787.5" y="1216.8252">32</text><text fill="#000000" font-family="sans-serif" font-size="13" lengthAdjust="spacing" textLength="4" x="1805.5" y="1216.8252">&#160;</text><polygon fill="#181818" points="724.5,1264.3789,714.5,1268.3789,724.5,1272.3789,720.5,1268.3789" style="stroke:#181818;stroke-width:1.0;"/><line style="stroke:#181818;stroke-width:1.0;stroke-dasharray:2.0,2.0;" x1="718.5" x2="1413" y1="1268.3789" y2="1268.3789"/><text fill="#000000" font-family="sans-serif" font-size="13" font-weight="bold" lengthAdjust="spacing" textLength="14" x="730.5" y="1263.1162">33</text><text fill="#000000" font-family="sans-serif" font-size="13" lengthAdjust="spacing" textLength="87" x="748.5" y="1263.1162">Announcement</text><polygon fill="#181818" points="419.5,1295.6699,409.5,1299.6699,419.5,1303.6699,415.5,1299.6699" style="stroke:#181818;stroke-width:1.0;"/><line style="stroke:#181818;stroke-width:1.0;stroke-dasharray:2.0,2.0;" x1="413.5" x2="707.5" y1="1299.6699" y2="1299.6699"/><text fill="#000000" font-family="sans-serif" font-size="13" font-weight="bold" lengthAdjust="spacing" textLength="14" x="425.5" y="1294.4072">34</text><text fill="#000000" font-family="sans-serif" font-size="13" lengthAdjust="spacing" textLength="87" x="443.5" y="1294.4072">Announcement</text><polygon fill="#181818" points="79.5,1326.9609,69.5,1330.9609,79.5,1334.9609,75.5,1330.9609" style="stroke:#181818;stroke-width:1.0;"/><line style="stroke:#181818;stroke-width:1.0;stroke-dasharray:2.0,2.0;" x1="73.5" x2="402.5" y1="1330.9609" y2="1330.9609"/><text fill="#000000" font-family="sans-serif" font-size="13" font-weight="bold" lengthAdjust="spacing" textLength="14" x="85.5" y="1325.6982">35</text><text fill="#000000" font-family="sans-serif" font-size="13" lengthAdjust="spacing" textLength="158" x="103.5" y="1325.6982">displays operation success</text><!--SRC=[fLTDJ-Cm4BtxLuouK13z0pqWLTqF8R425VR6nJZJrcfYPsq7jllhrx6RnawSD41EhJtpPfuzRpBHUovAgcW1XHIIxPGi48ogaEZJJadPdcxnoHno18NCKB7DGmEzevbyvs8B6vfh98HMHeggU4L5oEMEPmWRASsh_4ieCrB1nOFQKi7_KSEbWEKMXRa0gc7vxHUna8OpNb9Xu6AnKaWDBeMGbM1OMCFVTyxqzzrPovKKHiayH-KyLi_h-uxF6akfkSs8etOsfuN34wz9MXgnYmeyNaGVuF5- -Hnxh79kSsc15o-Yk-GydwdUhoo3hLrejsAiHoLBLEOGeVKNVIQzvHWhFAdMnd9ARpZCX_NFOP2EgoUrN7__iIJrjVCtIyxTC87ZO__0_DPU9IoiyLw3aS3SDG85WUyGuhLk9p1R0-GIWiSYpIrWZRkmbVgdGcqqPDHGc2dSe48BTWCPQgPuMHVV3G0N6waAciEBY7SCiftWpEv4orcbgF_5f3PN94pWyfY-gxLkPhTk-VhQvkRDo829DTYYyLMYPt644taN8jgg7-TkOHA5x57lXBRwPTY1ZQ1JAkXPrqygoln8ehw0LXmzzmm_5guXLWiiF9_MUOoHasMIWiDhS-w2ZkMT1cqIJUivJFsUQpEMz417ID8OY3PlAwgDESPfQapFiX6lnuOUU03SBzT8h7edtpKmN_AGMo2hHYgoKr_GcDit3qY1985UTu9kH_4UshOIdnxfzOukgQu2cnOwTabf6NvLYf-JunSb-HbPfgNPV_USupWiq8H84w-sCro6uK_9zp1ZAWDYZKdqyngcr8yNY3MCUfRRnAYnP4SZZEfsGBlb4N2YU0S4F2pY1Zyz1foV0CY4bc4E9Uh63RFZvC1aKN2jxIl_YamBx4_4vsvXchE-QHfbVJOjwfJCTFLQy939Q3EB6Xdh3SQpDg4kjm-E6NOW_6I0A4WzLoPhTgjaLO8VxUDfS4XN5igzVTtWUNtzXUmwY8ugpR8G2MRXloioBFU8AemyFl6MmWBUQCwpBeKuxX1OK5I3HnoF77vUdvBWASCfqPllWAGjYYozuKw-BUJH-pz7DUX-qv5wOtoiz0LaN9SvFMYe2yf_pUgACTHwR4e9bkhleVy0]--></g></svg>