<?xml version="1.0" encoding="us-ascii" standalone="no"?><svg xmlns="http://www.w3.org/2000/svg" xmlns:xlink="http://www.w3.org/1999/xlink" contentStyleType="text/css" height="1139px" preserveAspectRatio="none" style="width:1167px;height:1139px;background:#FFFFFF;" version="1.1" viewBox="0 0 1167 1139" width="1167px" zoomAndPan="magnify"><defs/><g><rect fill="#FFFFFF" height="944.293" style="stroke:#181818;stroke-width:1.0;" width="10" x="56" y="93.6211"/><rect fill="#FFFFFF" height="201.707" style="stroke:#181818;stroke-width:1.0;" width="10" x="387" y="116.9121"/><rect fill="#FFFFFF" height="158.0859" style="stroke:#181818;stroke-width:1.0;" width="10" x="387" y="349.9102"/><rect fill="#FFFFFF" height="31.291" style="stroke:#181818;stroke-width:1.0;" width="10" x="387" y="539.2871"/><rect fill="#FFFFFF" height="31.291" style="stroke:#181818;stroke-width:1.0;" width="10" x="387" y="601.8691"/><rect fill="#FFFFFF" height="373.4629" style="stroke:#181818;stroke-width:1.0;" width="10" x="387" y="664.4512"/><rect fill="#FFFFFF" height="95.5039" style="stroke:#181818;stroke-width:1.0;" width="10" x="692" y="191.8242"/><rect fill="#FFFFFF" height="95.5039" style="stroke:#181818;stroke-width:1.0;" width="10" x="692" y="381.2012"/><rect fill="#FFFFFF" height="310.8809" style="stroke:#181818;stroke-width:1.0;" width="10" x="692" y="695.7422"/><rect fill="#FFFFFF" height="106.5039" style="stroke:#181818;stroke-width:1.0;" width="10" x="697" y="735.0332"/><rect fill="#FFFFFF" height="95.5039" style="stroke:#181818;stroke-width:1.0;" width="10" x="1063" y="879.8281"/><line style="stroke:#181818;stroke-width:0.5;stroke-dasharray:5.0,5.0;" x1="61" x2="61" y1="83.6211" y2="1055.9141"/><line style="stroke:#181818;stroke-width:0.5;stroke-dasharray:5.0,5.0;" x1="392" x2="392" y1="83.6211" y2="1055.9141"/><line style="stroke:#181818;stroke-width:0.5;stroke-dasharray:5.0,5.0;" x1="697" x2="697" y1="156.7227" y2="1055.9141"/><line style="stroke:#181818;stroke-width:0.5;stroke-dasharray:5.0,5.0;" x1="1067.5" x2="1067.5" y1="83.6211" y2="1055.9141"/><text fill="#000000" font-family="sans-serif" font-size="14" lengthAdjust="spacing" textLength="106" x="5" y="80.1074">Real State agent</text><ellipse cx="61" cy="13.5" fill="#E3E3E3" rx="8" ry="8" style="stroke:#181818;stroke-width:0.5;"/><path d="M61,21.5 L61,48.5 M48,29.5 L74,29.5 M61,48.5 L48,63.5 M61,48.5 L74,63.5 " fill="none" style="stroke:#181818;stroke-width:0.5;"/><text fill="#000000" font-family="sans-serif" font-size="14" lengthAdjust="spacing" textLength="106" x="5" y="1070.0215">Real State agent</text><ellipse cx="61" cy="1082.0352" fill="#E3E3E3" rx="8" ry="8" style="stroke:#181818;stroke-width:0.5;"/><path d="M61,1090.0352 L61,1117.0352 M48,1098.0352 L74,1098.0352 M61,1117.0352 L48,1132.0352 M61,1117.0352 L74,1132.0352 " fill="none" style="stroke:#181818;stroke-width:0.5;"/><rect fill="#E3E3E3" height="32.6211" rx="2.5" ry="2.5" style="stroke:#181818;stroke-width:0.5;" width="168" x="308" y="50"/><text fill="#000000" font-family="sans-serif" font-size="14" lengthAdjust="spacing" textLength="154" x="315" y="72.1074">:CreateAnnouncementUI</text><rect fill="#E3E3E3" height="32.6211" rx="2.5" ry="2.5" style="stroke:#181818;stroke-width:0.5;" width="168" x="308" y="1054.9141"/><text fill="#000000" font-family="sans-serif" font-size="14" lengthAdjust="spacing" textLength="154" x="315" y="1077.0215">:CreateAnnouncementUI</text><rect fill="#E3E3E3" height="32.6211" rx="2.5" ry="2.5" style="stroke:#181818;stroke-width:0.5;" width="218" x="588" y="1054.9141"/><text fill="#000000" font-family="sans-serif" font-size="14" lengthAdjust="spacing" textLength="204" x="595" y="1077.0215">:CreateAnnouncementController</text><rect fill="#E3E3E3" height="51.2422" rx="2.5" ry="2.5" style="stroke:#181818;stroke-width:0.5;" width="181" x="977.5" y="31.3789"/><text fill="#000000" font-family="sans-serif" font-size="14" lengthAdjust="spacing" textLength="163" x="986.5" y="53.4863">AnnouncementRepository</text><text fill="#000000" font-family="sans-serif" font-size="14" lengthAdjust="spacing" textLength="167" x="984.5" y="72.1074">:AnnouncementRepository</text><rect fill="#E3E3E3" height="51.2422" rx="2.5" ry="2.5" style="stroke:#181818;stroke-width:0.5;" width="181" x="977.5" y="1054.9141"/><text fill="#000000" font-family="sans-serif" font-size="14" lengthAdjust="spacing" textLength="163" x="986.5" y="1077.0215">AnnouncementRepository</text><text fill="#000000" font-family="sans-serif" font-size="14" lengthAdjust="spacing" textLength="167" x="984.5" y="1095.6426">:AnnouncementRepository</text><rect fill="#FFFFFF" height="944.293" style="stroke:#181818;stroke-width:1.0;" width="10" x="56" y="93.6211"/><rect fill="#FFFFFF" height="201.707" style="stroke:#181818;stroke-width:1.0;" width="10" x="387" y="116.9121"/><rect fill="#FFFFFF" height="158.0859" style="stroke:#181818;stroke-width:1.0;" width="10" x="387" y="349.9102"/><rect fill="#FFFFFF" height="31.291" style="stroke:#181818;stroke-width:1.0;" width="10" x="387" y="539.2871"/><rect fill="#FFFFFF" height="31.291" style="stroke:#181818;stroke-width:1.0;" width="10" x="387" y="601.8691"/><rect fill="#FFFFFF" height="373.4629" style="stroke:#181818;stroke-width:1.0;" width="10" x="387" y="664.4512"/><rect fill="#FFFFFF" height="95.5039" style="stroke:#181818;stroke-width:1.0;" width="10" x="692" y="191.8242"/><rect fill="#FFFFFF" height="95.5039" style="stroke:#181818;stroke-width:1.0;" width="10" x="692" y="381.2012"/><rect fill="#FFFFFF" height="310.8809" style="stroke:#181818;stroke-width:1.0;" width="10" x="692" y="695.7422"/><rect fill="#FFFFFF" height="106.5039" style="stroke:#181818;stroke-width:1.0;" width="10" x="697" y="735.0332"/><rect fill="#FFFFFF" height="95.5039" style="stroke:#181818;stroke-width:1.0;" width="10" x="1063" y="879.8281"/><polygon fill="#181818" points="375,112.9121,385,116.9121,375,120.9121,379,116.9121" style="stroke:#181818;stroke-width:1.0;"/><line style="stroke:#181818;stroke-width:1.0;" x1="66" x2="381" y1="116.9121" y2="116.9121"/><text fill="#000000" font-family="sans-serif" font-size="13" font-weight="bold" lengthAdjust="spacing" textLength="7" x="73" y="111.6494">1</text><text fill="#000000" font-family="sans-serif" font-size="13" lengthAdjust="spacing" textLength="210" x="84" y="111.6494">asks to create a new announcement</text><polygon fill="#181818" points="576,144.2031,586,148.2031,576,152.2031,580,148.2031" style="stroke:#181818;stroke-width:1.0;"/><line style="stroke:#181818;stroke-width:1.0;" x1="397" x2="582" y1="148.2031" y2="148.2031"/><text fill="#000000" font-family="sans-serif" font-size="13" font-weight="bold" lengthAdjust="spacing" textLength="7" x="404" y="142.9404">2</text><text fill="#000000" font-family="sans-serif" font-size="13" lengthAdjust="spacing" textLength="36" x="415" y="142.9404">create</text><rect fill="#E3E3E3" height="32.6211" rx="2.5" ry="2.5" style="stroke:#181818;stroke-width:0.5;" width="218" x="588" y="124.9121"/><text fill="#000000" font-family="sans-serif" font-size="14" lengthAdjust="spacing" textLength="204" x="595" y="147.0195">:CreateAnnouncementController</text><polygon fill="#181818" points="680,187.8242,690,191.8242,680,195.8242,684,191.8242" style="stroke:#181818;stroke-width:1.0;"/><line style="stroke:#181818;stroke-width:1.0;" x1="397" x2="686" y1="191.8242" y2="191.8242"/><text fill="#000000" font-family="sans-serif" font-size="13" font-weight="bold" lengthAdjust="spacing" textLength="7" x="404" y="186.5615">3</text><text fill="#000000" font-family="sans-serif" font-size="13" lengthAdjust="spacing" textLength="59" x="415" y="186.5615">getClient()</text><rect fill="none" height="59.2129" style="stroke:#000000;stroke-width:1.5;" width="224" x="585" y="199.8242"/><path d="M585,199.8242 L647,199.8242 L647,208.8242 L637,218.8242 L585,218.8242 L585,199.8242 " fill="#EEEEEE" style="stroke:#000000;stroke-width:2.0;"/><text fill="#000000" font-family="sans-serif" font-size="13" font-weight="bold" lengthAdjust="spacing" textLength="17" x="598" y="215.8525">ref</text><text fill="#000000" font-family="sans-serif" font-size="12" lengthAdjust="spacing" textLength="97" x="648.5" y="235.7734">Get List of Clients</text><text fill="#000000" font-family="sans-serif" font-size="12" lengthAdjust="spacing" textLength="3" x="695.5" y="251.7344">&#160;</text><polygon fill="#181818" points="408,283.3281,398,287.3281,408,291.3281,404,287.3281" style="stroke:#181818;stroke-width:1.0;"/><line style="stroke:#181818;stroke-width:1.0;stroke-dasharray:2.0,2.0;" x1="402" x2="696" y1="287.3281" y2="287.3281"/><text fill="#000000" font-family="sans-serif" font-size="13" font-weight="bold" lengthAdjust="spacing" textLength="7" x="414" y="282.0654">4</text><text fill="#000000" font-family="sans-serif" font-size="13" lengthAdjust="spacing" textLength="54" x="425" y="282.0654">ClientList</text><polygon fill="#181818" points="77,314.6191,67,318.6191,77,322.6191,73,318.6191" style="stroke:#181818;stroke-width:1.0;"/><line style="stroke:#181818;stroke-width:1.0;stroke-dasharray:2.0,2.0;" x1="71" x2="391" y1="318.6191" y2="318.6191"/><text fill="#000000" font-family="sans-serif" font-size="13" font-weight="bold" lengthAdjust="spacing" textLength="7" x="83" y="313.3564">5</text><text fill="#000000" font-family="sans-serif" font-size="13" lengthAdjust="spacing" textLength="238" x="94" y="313.3564">shows Clients list and asks to select one</text><polygon fill="#181818" points="375,345.9102,385,349.9102,375,353.9102,379,349.9102" style="stroke:#181818;stroke-width:1.0;"/><line style="stroke:#181818;stroke-width:1.0;" x1="66" x2="381" y1="349.9102" y2="349.9102"/><text fill="#000000" font-family="sans-serif" font-size="13" font-weight="bold" lengthAdjust="spacing" textLength="7" x="73" y="344.6475">6</text><text fill="#000000" font-family="sans-serif" font-size="13" lengthAdjust="spacing" textLength="79" x="84" y="344.6475">selects Client</text><polygon fill="#181818" points="680,377.2012,690,381.2012,680,385.2012,684,381.2012" style="stroke:#181818;stroke-width:1.0;"/><line style="stroke:#181818;stroke-width:1.0;" x1="397" x2="686" y1="381.2012" y2="381.2012"/><text fill="#000000" font-family="sans-serif" font-size="13" font-weight="bold" lengthAdjust="spacing" textLength="7" x="404" y="375.9385">7</text><text fill="#000000" font-family="sans-serif" font-size="13" lengthAdjust="spacing" textLength="85" x="415" y="375.9385">getProperties()</text><rect fill="none" height="59.2129" style="stroke:#000000;stroke-width:1.5;" width="224" x="585" y="389.2012"/><path d="M585,389.2012 L647,389.2012 L647,398.2012 L637,408.2012 L585,408.2012 L585,389.2012 " fill="#EEEEEE" style="stroke:#000000;stroke-width:2.0;"/><text fill="#000000" font-family="sans-serif" font-size="13" font-weight="bold" lengthAdjust="spacing" textLength="17" x="598" y="405.2295">ref</text><text fill="#000000" font-family="sans-serif" font-size="12" lengthAdjust="spacing" textLength="115" x="639.5" y="425.1504">Get List of Properties</text><text fill="#000000" font-family="sans-serif" font-size="12" lengthAdjust="spacing" textLength="3" x="695.5" y="441.1113">&#160;</text><polygon fill="#181818" points="408,472.7051,398,476.7051,408,480.7051,404,476.7051" style="stroke:#181818;stroke-width:1.0;"/><line style="stroke:#181818;stroke-width:1.0;stroke-dasharray:2.0,2.0;" x1="402" x2="696" y1="476.7051" y2="476.7051"/><text fill="#000000" font-family="sans-serif" font-size="13" font-weight="bold" lengthAdjust="spacing" textLength="7" x="414" y="471.4424">8</text><text fill="#000000" font-family="sans-serif" font-size="13" lengthAdjust="spacing" textLength="80" x="425" y="471.4424">ListProperties</text><polygon fill="#181818" points="77,503.9961,67,507.9961,77,511.9961,73,507.9961" style="stroke:#181818;stroke-width:1.0;"/><line style="stroke:#181818;stroke-width:1.0;stroke-dasharray:2.0,2.0;" x1="71" x2="391" y1="507.9961" y2="507.9961"/><text fill="#000000" font-family="sans-serif" font-size="13" font-weight="bold" lengthAdjust="spacing" textLength="7" x="83" y="502.7334">9</text><text fill="#000000" font-family="sans-serif" font-size="13" lengthAdjust="spacing" textLength="286" x="94" y="502.7334">shows task Properties list and asks to select one</text><polygon fill="#181818" points="375,535.2871,385,539.2871,375,543.2871,379,539.2871" style="stroke:#181818;stroke-width:1.0;"/><line style="stroke:#181818;stroke-width:1.0;" x1="66" x2="381" y1="539.2871" y2="539.2871"/><text fill="#000000" font-family="sans-serif" font-size="13" font-weight="bold" lengthAdjust="spacing" textLength="14" x="73" y="534.0244">10</text><text fill="#000000" font-family="sans-serif" font-size="13" lengthAdjust="spacing" textLength="95" x="91" y="534.0244">selects Property</text><polygon fill="#181818" points="77,566.5781,67,570.5781,77,574.5781,73,570.5781" style="stroke:#181818;stroke-width:1.0;"/><line style="stroke:#181818;stroke-width:1.0;stroke-dasharray:2.0,2.0;" x1="71" x2="391" y1="570.5781" y2="570.5781"/><text fill="#000000" font-family="sans-serif" font-size="13" font-weight="bold" lengthAdjust="spacing" textLength="14" x="83" y="565.3154">11</text><text fill="#000000" font-family="sans-serif" font-size="13" lengthAdjust="spacing" textLength="79" x="101" y="565.3154">requests data</text><polygon fill="#181818" points="375,597.8691,385,601.8691,375,605.8691,379,601.8691" style="stroke:#181818;stroke-width:1.0;"/><line style="stroke:#181818;stroke-width:1.0;" x1="66" x2="381" y1="601.8691" y2="601.8691"/><text fill="#000000" font-family="sans-serif" font-size="13" font-weight="bold" lengthAdjust="spacing" textLength="14" x="73" y="596.6064">12</text><text fill="#000000" font-family="sans-serif" font-size="13" lengthAdjust="spacing" textLength="261" x="91" y="596.6064">types requested data (Property, commission)</text><polygon fill="#181818" points="77,629.1602,67,633.1602,77,637.1602,73,633.1602" style="stroke:#181818;stroke-width:1.0;"/><line style="stroke:#181818;stroke-width:1.0;stroke-dasharray:2.0,2.0;" x1="71" x2="391" y1="633.1602" y2="633.1602"/><text fill="#000000" font-family="sans-serif" font-size="13" font-weight="bold" lengthAdjust="spacing" textLength="14" x="83" y="627.8975">13</text><text fill="#000000" font-family="sans-serif" font-size="13" lengthAdjust="spacing" textLength="256" x="101" y="627.8975">shows selected property and requested data</text><polygon fill="#181818" points="375,660.4512,385,664.4512,375,668.4512,379,664.4512" style="stroke:#181818;stroke-width:1.0;"/><line style="stroke:#181818;stroke-width:1.0;" x1="66" x2="381" y1="664.4512" y2="664.4512"/><text fill="#000000" font-family="sans-serif" font-size="13" font-weight="bold" lengthAdjust="spacing" textLength="14" x="73" y="659.1885">14</text><text fill="#000000" font-family="sans-serif" font-size="13" lengthAdjust="spacing" textLength="75" x="91" y="659.1885">submits data</text><polygon fill="#181818" points="680,691.7422,690,695.7422,680,699.7422,684,695.7422" style="stroke:#181818;stroke-width:1.0;"/><line style="stroke:#181818;stroke-width:1.0;" x1="397" x2="686" y1="695.7422" y2="695.7422"/><text fill="#000000" font-family="sans-serif" font-size="13" font-weight="bold" lengthAdjust="spacing" textLength="14" x="404" y="690.4795">15</text><text fill="#000000" font-family="sans-serif" font-size="13" lengthAdjust="spacing" textLength="258" x="422" y="690.4795">createAnnouncement(Property, commission)</text><line style="stroke:#181818;stroke-width:1.0;" x1="702" x2="749" y1="722.0332" y2="722.0332"/><line style="stroke:#181818;stroke-width:1.0;" x1="749" x2="749" y1="722.0332" y2="735.0332"/><line style="stroke:#181818;stroke-width:1.0;" x1="708" x2="749" y1="735.0332" y2="735.0332"/><polygon fill="#181818" points="718,731.0332,708,735.0332,718,739.0332,714,735.0332" style="stroke:#181818;stroke-width:1.0;"/><text fill="#000000" font-family="sans-serif" font-size="13" font-weight="bold" lengthAdjust="spacing" textLength="14" x="714" y="716.7705">16</text><text fill="#000000" font-family="sans-serif" font-size="13" lengthAdjust="spacing" textLength="161" x="732" y="716.7705">getEmployeeFromSession()</text><rect fill="none" height="59.2129" style="stroke:#000000;stroke-width:1.5;" width="224" x="585" y="748.0332"/><path d="M585,748.0332 L647,748.0332 L647,757.0332 L637,767.0332 L585,767.0332 L585,748.0332 " fill="#EEEEEE" style="stroke:#000000;stroke-width:2.0;"/><text fill="#000000" font-family="sans-serif" font-size="13" font-weight="bold" lengthAdjust="spacing" textLength="17" x="598" y="764.0615">ref</text><text fill="#000000" font-family="sans-serif" font-size="12" lengthAdjust="spacing" textLength="77" x="658.5" y="783.9824">Get Employee</text><text fill="#000000" font-family="sans-serif" font-size="12" lengthAdjust="spacing" textLength="3" x="695.5" y="799.9434">&#160;</text><line style="stroke:#181818;stroke-width:1.0;" x1="707" x2="749" y1="840.5371" y2="840.5371"/><line style="stroke:#181818;stroke-width:1.0;" x1="749" x2="749" y1="840.5371" y2="853.5371"/><line style="stroke:#181818;stroke-width:1.0;" x1="702" x2="749" y1="853.5371" y2="853.5371"/><polygon fill="#181818" points="712,849.5371,702,853.5371,712,857.5371,708,853.5371" style="stroke:#181818;stroke-width:1.0;"/><text fill="#000000" font-family="sans-serif" font-size="13" font-weight="bold" lengthAdjust="spacing" textLength="14" x="714" y="835.2744">17</text><text fill="#000000" font-family="sans-serif" font-size="13" lengthAdjust="spacing" textLength="56" x="732" y="835.2744">employee</text><polygon fill="#181818" points="1051,875.8281,1061,879.8281,1051,883.8281,1055,879.8281" style="stroke:#181818;stroke-width:1.0;"/><line style="stroke:#181818;stroke-width:1.0;" x1="702" x2="1057" y1="879.8281" y2="879.8281"/><text fill="#000000" font-family="sans-serif" font-size="13" font-weight="bold" lengthAdjust="spacing" textLength="14" x="709" y="874.5654">18</text><text fill="#000000" font-family="sans-serif" font-size="13" lengthAdjust="spacing" textLength="324" x="727" y="874.5654">createAnnouncement(Property, commission, Employee)</text><rect fill="none" height="59.2129" style="stroke:#000000;stroke-width:1.5;" width="187" x="974.5" y="887.8281"/><path d="M974.5,887.8281 L1036.5,887.8281 L1036.5,896.8281 L1026.5,906.8281 L974.5,906.8281 L974.5,887.8281 " fill="#EEEEEE" style="stroke:#000000;stroke-width:2.0;"/><text fill="#000000" font-family="sans-serif" font-size="13" font-weight="bold" lengthAdjust="spacing" textLength="17" x="987.5" y="903.8564">ref</text><text fill="#000000" font-family="sans-serif" font-size="12" lengthAdjust="spacing" textLength="123" x="1006.5" y="923.7773">Create Announcement</text><text fill="#000000" font-family="sans-serif" font-size="12" lengthAdjust="spacing" textLength="3" x="1066.5" y="939.7383">&#160;</text><polygon fill="#181818" points="713,971.332,703,975.332,713,979.332,709,975.332" style="stroke:#181818;stroke-width:1.0;"/><line style="stroke:#181818;stroke-width:1.0;stroke-dasharray:2.0,2.0;" x1="707" x2="1067" y1="975.332" y2="975.332"/><text fill="#000000" font-family="sans-serif" font-size="13" font-weight="bold" lengthAdjust="spacing" textLength="14" x="719" y="970.0693">19</text><text fill="#000000" font-family="sans-serif" font-size="13" lengthAdjust="spacing" textLength="87" x="737" y="970.0693">Announcement</text><polygon fill="#181818" points="408,1002.623,398,1006.623,408,1010.623,404,1006.623" style="stroke:#181818;stroke-width:1.0;"/><line style="stroke:#181818;stroke-width:1.0;stroke-dasharray:2.0,2.0;" x1="402" x2="696" y1="1006.623" y2="1006.623"/><text fill="#000000" font-family="sans-serif" font-size="13" font-weight="bold" lengthAdjust="spacing" textLength="14" x="414" y="1001.3604">20</text><text fill="#000000" font-family="sans-serif" font-size="13" lengthAdjust="spacing" textLength="87" x="432" y="1001.3604">Announcement</text><polygon fill="#181818" points="72,1033.9141,62,1037.9141,72,1041.9141,68,1037.9141" style="stroke:#181818;stroke-width:1.0;"/><line style="stroke:#181818;stroke-width:1.0;stroke-dasharray:2.0,2.0;" x1="66" x2="391" y1="1037.9141" y2="1037.9141"/><text fill="#000000" font-family="sans-serif" font-size="13" font-weight="bold" lengthAdjust="spacing" textLength="14" x="78" y="1032.6514">21</text><text fill="#000000" font-family="sans-serif" font-size="13" lengthAdjust="spacing" textLength="158" x="96" y="1032.6514">displays operation success</text><!--SRC=[ZPN1Sjem48RlVegTN9faaXVWq1c6DfdCfDCEDBTUXBs01bdhIdAetxuh6Hc1RR1FOEt- -lVZbx1xgIjXH0abQSftXae4PshCRBTIYNmljhXoZK8mc3kXjoeji3jHq47gBMo4ifXbedQawtAD9ik-x6I1i25oQ_gNYToHWRib2WKh9nm2Asjt1yB2_DkFZ0MTp6Kbj8ExsS8WbyorfbhdM7BXnrie_NYxMRaWxGmfXIPqB7ultyzxqk8bLcGbMsl-wDdmGb3vkNpD_0poqrltXZFWXp_0yrTs1JEksbjm17bm108q7a0aacrB9yAZX1V-OG6MyLOV7rcgbHXOvRKjkeMIB7V_q1KOt01zecc7XUHvHGVlqZgW3RHjzhGhwiAtdbvqteBEcL3O_JdEsafvuQwem95kxvxxFAeP9uOEDZe1vPq9TX7PMLGSCo3T3fzeHbefyROwobt1EmJnbw4AEHLe4v3NOLu2FKcSRzNZUeDjdw_V8L5F2qSvZx1sp3PnUfFv2FSnzaVbff-XotntlWp-hT5oRo6ScF8xkwPYuySsB48VtCUTdo2difJMIj8FsJGBBPfs1XQiZbA1o_a-at9OhqkPpdFZZ7SdFBrmhimpwMYcsVvULeeQn1U-rLSOb2v2VYEDryz0F0Tnctv_F073AU-iOXIO7F0emFVnP8XFdT4H1k5o7qNWLuS8jFyyCE_Ty1SW-YzPCMJnIE5COOH4ps9oNqnJwFsIfmCnWqBQIed6WgSd74FZKESvHsSe_ybN_q_u7m00]--></g></svg>