<?xml version="1.0" encoding="us-ascii" standalone="no"?><svg xmlns="http://www.w3.org/2000/svg" xmlns:xlink="http://www.w3.org/1999/xlink" contentStyleType="text/css" height="1432px" preserveAspectRatio="none" style="width:2064px;height:1432px;background:#FFFFFF;" version="1.1" viewBox="0 0 2064 1432" width="2064px" zoomAndPan="magnify"><defs/><g><rect fill="#FFFFFF" height="1237.3398" style="stroke:#181818;stroke-width:1.0;" width="10" x="63.5" y="93.6211"/><rect fill="#FFFFFF" height="342.5313" style="stroke:#181818;stroke-width:1.0;" width="10" x="402.5" y="116.9121"/><rect fill="#FFFFFF" height="298.9102" style="stroke:#181818;stroke-width:1.0;" width="10" x="402.5" y="490.7344"/><rect fill="#FFFFFF" height="31.291" style="stroke:#181818;stroke-width:1.0;" width="10" x="402.5" y="820.9355"/><rect fill="#FFFFFF" height="31.291" style="stroke:#181818;stroke-width:1.0;" width="10" x="402.5" y="883.5176"/><rect fill="#FFFFFF" height="384.8613" style="stroke:#181818;stroke-width:1.0;" width="10" x="402.5" y="946.0996"/><rect fill="#FFFFFF" height="219.0371" style="stroke:#181818;stroke-width:1.0;" width="10" x="707.5" y="191.8242"/><rect fill="#FFFFFF" height="219.0371" style="stroke:#181818;stroke-width:1.0;" width="10" x="707.5" y="522.0254"/><rect fill="#FFFFFF" height="322.2793" style="stroke:#181818;stroke-width:1.0;" width="10" x="707.5" y="977.3906"/><rect fill="#FFFFFF" height="31.291" style="stroke:#181818;stroke-width:1.0;" width="10" x="875" y="223.1152"/><rect fill="#FFFFFF" height="31.291" style="stroke:#181818;stroke-width:1.0;" width="10" x="875" y="553.3164"/><rect fill="#FFFFFF" height="31.291" style="stroke:#181818;stroke-width:1.0;" width="10" x="982" y="285.6973"/><rect fill="#FFFFFF" height="31.291" style="stroke:#181818;stroke-width:1.0;" width="10" x="982" y="615.8984"/><rect fill="#FFFFFF" height="31.291" style="stroke:#181818;stroke-width:1.0;" width="10" x="1107.5" y="348.2793"/><rect fill="#FFFFFF" height="31.291" style="stroke:#181818;stroke-width:1.0;" width="10" x="1254.5" y="678.4805"/><rect fill="#FFFFFF" height="259.6973" style="stroke:#181818;stroke-width:1.0;" width="10" x="1425" y="1008.6816"/><rect fill="#FFFFFF" height="42.291" style="stroke:#181818;stroke-width:1.0;" width="10" x="1430" y="1136.5059"/><rect fill="#FFFFFF" height="42.291" style="stroke:#181818;stroke-width:1.0;" width="10" x="1786.5" y="1180.7969"/><rect fill="none" height="214.4063" style="stroke:#000000;stroke-width:1.5;" width="729" x="1329.5" y="1023.6816"/><line style="stroke:#181818;stroke-width:0.5;stroke-dasharray:5.0,5.0;" x1="68" x2="68" y1="83.6211" y2="1348.9609"/><line style="stroke:#181818;stroke-width:0.5;stroke-dasharray:5.0,5.0;" x1="407.5" x2="407.5" y1="83.6211" y2="1348.9609"/><line style="stroke:#181818;stroke-width:0.5;stroke-dasharray:5.0,5.0;" x1="712.5" x2="712.5" y1="156.7227" y2="1348.9609"/><line style="stroke:#181818;stroke-width:0.5;stroke-dasharray:5.0,5.0;" x1="879.5" x2="879.5" y1="83.6211" y2="1348.9609"/><line style="stroke:#181818;stroke-width:0.5;stroke-dasharray:5.0,5.0;" x1="986.5" x2="986.5" y1="83.6211" y2="1348.9609"/><line style="stroke:#181818;stroke-width:0.5;stroke-dasharray:5.0,5.0;" x1="1112.5" x2="1112.5" y1="83.6211" y2="1348.9609"/><line style="stroke:#181818;stroke-width:0.5;stroke-dasharray:5.0,5.0;" x1="1259.5" x2="1259.5" y1="83.6211" y2="1348.9609"/><line style="stroke:#181818;stroke-width:0.5;stroke-dasharray:5.0,5.0;" x1="1429.5" x2="1429.5" y1="83.6211" y2="1348.9609"/><line style="stroke:#181818;stroke-width:0.5;stroke-dasharray:5.0,5.0;" x1="1791" x2="1791" y1="1084.0938" y2="1348.9609"/><text fill="#000000" font-family="sans-serif" font-size="14" lengthAdjust="spacing" textLength="121" x="5" y="80.1074">Organization Agent</text><ellipse cx="68.5" cy="13.5" fill="#E3E3E3" rx="8" ry="8" style="stroke:#181818;stroke-width:0.5;"/><path d="M68.5,21.5 L68.5,48.5 M55.5,29.5 L81.5,29.5 M68.5,48.5 L55.5,63.5 M68.5,48.5 L81.5,63.5 " fill="none" style="stroke:#181818;stroke-width:0.5;"/><text fill="#000000" font-family="sans-serif" font-size="14" lengthAdjust="spacing" textLength="121" x="5" y="1363.0684">Organization Agent</text><ellipse cx="68.5" cy="1375.082" fill="#E3E3E3" rx="8" ry="8" style="stroke:#181818;stroke-width:0.5;"/><path d="M68.5,1383.082 L68.5,1410.082 M55.5,1391.082 L81.5,1391.082 M68.5,1410.082 L55.5,1425.082 M68.5,1410.082 L81.5,1425.082 " fill="none" style="stroke:#181818;stroke-width:0.5;"/><rect fill="#E3E3E3" height="32.6211" rx="2.5" ry="2.5" style="stroke:#181818;stroke-width:0.5;" width="168" x="323.5" y="50"/><text fill="#000000" font-family="sans-serif" font-size="14" lengthAdjust="spacing" textLength="154" x="330.5" y="72.1074">:CreateAnnouncementUI</text><rect fill="#E3E3E3" height="32.6211" rx="2.5" ry="2.5" style="stroke:#181818;stroke-width:0.5;" width="168" x="323.5" y="1347.9609"/><text fill="#000000" font-family="sans-serif" font-size="14" lengthAdjust="spacing" textLength="154" x="330.5" y="1370.0684">:CreateAnnouncementUI</text><rect fill="#E3E3E3" height="32.6211" rx="2.5" ry="2.5" style="stroke:#181818;stroke-width:0.5;" width="218" x="603.5" y="1347.9609"/><text fill="#000000" font-family="sans-serif" font-size="14" lengthAdjust="spacing" textLength="204" x="610.5" y="1370.0684">:CreateAnnouncementController</text><rect fill="#E3E3E3" height="32.6211" rx="2.5" ry="2.5" style="stroke:#181818;stroke-width:0.5;" width="97" x="831.5" y="50"/><text fill="#000000" font-family="sans-serif" font-size="14" lengthAdjust="spacing" textLength="83" x="838.5" y="72.1074">:Repositories</text><rect fill="#E3E3E3" height="32.6211" rx="2.5" ry="2.5" style="stroke:#181818;stroke-width:0.5;" width="97" x="831.5" y="1347.9609"/><text fill="#000000" font-family="sans-serif" font-size="14" lengthAdjust="spacing" textLength="83" x="838.5" y="1370.0684">:Repositories</text><rect fill="#E3E3E3" height="51.2422" rx="2.5" ry="2.5" style="stroke:#181818;stroke-width:0.5;" width="97" x="938.5" y="31.3789"/><text fill="#000000" font-family="sans-serif" font-size="14" lengthAdjust="spacing" textLength="74" x="950" y="53.4863">repositories</text><text fill="#000000" font-family="sans-serif" font-size="14" lengthAdjust="spacing" textLength="83" x="945.5" y="72.1074">:Repositories</text><rect fill="#E3E3E3" height="51.2422" rx="2.5" ry="2.5" style="stroke:#181818;stroke-width:0.5;" width="97" x="938.5" y="1347.9609"/><text fill="#000000" font-family="sans-serif" font-size="14" lengthAdjust="spacing" textLength="74" x="950" y="1370.0684">repositories</text><text fill="#000000" font-family="sans-serif" font-size="14" lengthAdjust="spacing" textLength="83" x="945.5" y="1388.6895">:Repositories</text><rect fill="#E3E3E3" height="51.2422" rx="2.5" ry="2.5" style="stroke:#181818;stroke-width:0.5;" width="134" x="1045.5" y="31.3789"/><text fill="#000000" font-family="sans-serif" font-size="14" lengthAdjust="spacing" textLength="120" x="1052.5" y="53.4863">OwnersRepository:</text><text fill="#000000" font-family="sans-serif" font-size="14" lengthAdjust="spacing" textLength="116" x="1054.5" y="72.1074">OwnersRepository</text><rect fill="#E3E3E3" height="51.2422" rx="2.5" ry="2.5" style="stroke:#181818;stroke-width:0.5;" width="134" x="1045.5" y="1347.9609"/><text fill="#000000" font-family="sans-serif" font-size="14" lengthAdjust="spacing" textLength="120" x="1052.5" y="1370.0684">OwnersRepository:</text><text fill="#000000" font-family="sans-serif" font-size="14" lengthAdjust="spacing" textLength="116" x="1054.5" y="1388.6895">OwnersRepository</text><rect fill="#E3E3E3" height="51.2422" rx="2.5" ry="2.5" style="stroke:#181818;stroke-width:0.5;" width="140" x="1189.5" y="31.3789"/><text fill="#000000" font-family="sans-serif" font-size="14" lengthAdjust="spacing" textLength="126" x="1196.5" y="53.4863">PropertyRepository:</text><text fill="#000000" font-family="sans-serif" font-size="14" lengthAdjust="spacing" textLength="122" x="1198.5" y="72.1074">PropertyRepository</text><rect fill="#E3E3E3" height="51.2422" rx="2.5" ry="2.5" style="stroke:#181818;stroke-width:0.5;" width="140" x="1189.5" y="1347.9609"/><text fill="#000000" font-family="sans-serif" font-size="14" lengthAdjust="spacing" textLength="126" x="1196.5" y="1370.0684">PropertyRepository:</text><text fill="#000000" font-family="sans-serif" font-size="14" lengthAdjust="spacing" textLength="122" x="1198.5" y="1388.6895">PropertyRepository</text><rect fill="#E3E3E3" height="51.2422" rx="2.5" ry="2.5" style="stroke:#181818;stroke-width:0.5;" width="181" x="1339.5" y="31.3789"/><text fill="#000000" font-family="sans-serif" font-size="14" lengthAdjust="spacing" textLength="163" x="1348.5" y="53.4863">AnnouncementRepository</text><text fill="#000000" font-family="sans-serif" font-size="14" lengthAdjust="spacing" textLength="167" x="1346.5" y="72.1074">:AnnouncementRepository</text><rect fill="#E3E3E3" height="51.2422" rx="2.5" ry="2.5" style="stroke:#181818;stroke-width:0.5;" width="181" x="1339.5" y="1347.9609"/><text fill="#000000" font-family="sans-serif" font-size="14" lengthAdjust="spacing" textLength="163" x="1348.5" y="1370.0684">AnnouncementRepository</text><text fill="#000000" font-family="sans-serif" font-size="14" lengthAdjust="spacing" textLength="167" x="1346.5" y="1388.6895">:AnnouncementRepository</text><rect fill="#E3E3E3" height="51.2422" rx="2.5" ry="2.5" style="stroke:#181818;stroke-width:0.5;" width="113" x="1735" y="1347.9609"/><text fill="#000000" font-family="sans-serif" font-size="14" lengthAdjust="spacing" textLength="95" x="1744" y="1370.0684">Announcement</text><text fill="#000000" font-family="sans-serif" font-size="14" lengthAdjust="spacing" textLength="99" x="1742" y="1388.6895">:Announcement</text><rect fill="#FFFFFF" height="1237.3398" style="stroke:#181818;stroke-width:1.0;" width="10" x="63.5" y="93.6211"/><rect fill="#FFFFFF" height="342.5313" style="stroke:#181818;stroke-width:1.0;" width="10" x="402.5" y="116.9121"/><rect fill="#FFFFFF" height="298.9102" style="stroke:#181818;stroke-width:1.0;" width="10" x="402.5" y="490.7344"/><rect fill="#FFFFFF" height="31.291" style="stroke:#181818;stroke-width:1.0;" width="10" x="402.5" y="820.9355"/><rect fill="#FFFFFF" height="31.291" style="stroke:#181818;stroke-width:1.0;" width="10" x="402.5" y="883.5176"/><rect fill="#FFFFFF" height="384.8613" style="stroke:#181818;stroke-width:1.0;" width="10" x="402.5" y="946.0996"/><rect fill="#FFFFFF" height="219.0371" style="stroke:#181818;stroke-width:1.0;" width="10" x="707.5" y="191.8242"/><rect fill="#FFFFFF" height="219.0371" style="stroke:#181818;stroke-width:1.0;" width="10" x="707.5" y="522.0254"/><rect fill="#FFFFFF" height="322.2793" style="stroke:#181818;stroke-width:1.0;" width="10" x="707.5" y="977.3906"/><rect fill="#FFFFFF" height="31.291" style="stroke:#181818;stroke-width:1.0;" width="10" x="875" y="223.1152"/><rect fill="#FFFFFF" height="31.291" style="stroke:#181818;stroke-width:1.0;" width="10" x="875" y="553.3164"/><rect fill="#FFFFFF" height="31.291" style="stroke:#181818;stroke-width:1.0;" width="10" x="982" y="285.6973"/><rect fill="#FFFFFF" height="31.291" style="stroke:#181818;stroke-width:1.0;" width="10" x="982" y="615.8984"/><rect fill="#FFFFFF" height="31.291" style="stroke:#181818;stroke-width:1.0;" width="10" x="1107.5" y="348.2793"/><rect fill="#FFFFFF" height="31.291" style="stroke:#181818;stroke-width:1.0;" width="10" x="1254.5" y="678.4805"/><rect fill="#FFFFFF" height="259.6973" style="stroke:#181818;stroke-width:1.0;" width="10" x="1425" y="1008.6816"/><rect fill="#FFFFFF" height="42.291" style="stroke:#181818;stroke-width:1.0;" width="10" x="1430" y="1136.5059"/><rect fill="#FFFFFF" height="42.291" style="stroke:#181818;stroke-width:1.0;" width="10" x="1786.5" y="1180.7969"/><polygon fill="#181818" points="390.5,112.9121,400.5,116.9121,390.5,120.9121,394.5,116.9121" style="stroke:#181818;stroke-width:1.0;"/><line style="stroke:#181818;stroke-width:1.0;" x1="73.5" x2="396.5" y1="116.9121" y2="116.9121"/><text fill="#000000" font-family="sans-serif" font-size="13" font-weight="bold" lengthAdjust="spacing" textLength="7" x="80.5" y="111.6494">1</text><text fill="#000000" font-family="sans-serif" font-size="13" lengthAdjust="spacing" textLength="212" x="91.5" y="111.6494">asks to create a new Announcement</text><polygon fill="#181818" points="591.5,144.2031,601.5,148.2031,591.5,152.2031,595.5,148.2031" style="stroke:#181818;stroke-width:1.0;"/><line style="stroke:#181818;stroke-width:1.0;" x1="412.5" x2="597.5" y1="148.2031" y2="148.2031"/><text fill="#000000" font-family="sans-serif" font-size="13" font-weight="bold" lengthAdjust="spacing" textLength="7" x="419.5" y="142.9404">2</text><text fill="#000000" font-family="sans-serif" font-size="13" lengthAdjust="spacing" textLength="36" x="430.5" y="142.9404">create</text><rect fill="#E3E3E3" height="32.6211" rx="2.5" ry="2.5" style="stroke:#181818;stroke-width:0.5;" width="218" x="603.5" y="124.9121"/><text fill="#000000" font-family="sans-serif" font-size="14" lengthAdjust="spacing" textLength="204" x="610.5" y="147.0195">:CreateAnnouncementController</text><polygon fill="#181818" points="695.5,187.8242,705.5,191.8242,695.5,195.8242,699.5,191.8242" style="stroke:#181818;stroke-width:1.0;"/><line style="stroke:#181818;stroke-width:1.0;" x1="412.5" x2="701.5" y1="191.8242" y2="191.8242"/><text fill="#000000" font-family="sans-serif" font-size="13" font-weight="bold" lengthAdjust="spacing" textLength="7" x="419.5" y="186.5615">3</text><text fill="#000000" font-family="sans-serif" font-size="13" lengthAdjust="spacing" textLength="70" x="430.5" y="186.5615">getOwners()</text><polygon fill="#181818" points="863,219.1152,873,223.1152,863,227.1152,867,223.1152" style="stroke:#181818;stroke-width:1.0;"/><line style="stroke:#181818;stroke-width:1.0;" x1="717.5" x2="869" y1="223.1152" y2="223.1152"/><text fill="#000000" font-family="sans-serif" font-size="13" font-weight="bold" lengthAdjust="spacing" textLength="7" x="724.5" y="217.8525">4</text><text fill="#000000" font-family="sans-serif" font-size="13" lengthAdjust="spacing" textLength="75" x="735.5" y="217.8525">getInstance()</text><polygon fill="#181818" points="728.5,250.4063,718.5,254.4063,728.5,258.4063,724.5,254.4063" style="stroke:#181818;stroke-width:1.0;"/><line style="stroke:#181818;stroke-width:1.0;stroke-dasharray:2.0,2.0;" x1="722.5" x2="879" y1="254.4063" y2="254.4063"/><text fill="#000000" font-family="sans-serif" font-size="13" font-weight="bold" lengthAdjust="spacing" textLength="7" x="734.5" y="249.1436">5</text><text fill="#000000" font-family="sans-serif" font-size="13" lengthAdjust="spacing" textLength="67" x="745.5" y="249.1436">repositories</text><polygon fill="#181818" points="970,281.6973,980,285.6973,970,289.6973,974,285.6973" style="stroke:#181818;stroke-width:1.0;"/><line style="stroke:#181818;stroke-width:1.0;" x1="717.5" x2="976" y1="285.6973" y2="285.6973"/><text fill="#000000" font-family="sans-serif" font-size="13" font-weight="bold" lengthAdjust="spacing" textLength="7" x="724.5" y="280.4346">6</text><text fill="#000000" font-family="sans-serif" font-size="13" lengthAdjust="spacing" textLength="132" x="735.5" y="280.4346">getOwnersRepository()</text><polygon fill="#181818" points="728.5,312.9883,718.5,316.9883,728.5,320.9883,724.5,316.9883" style="stroke:#181818;stroke-width:1.0;"/><line style="stroke:#181818;stroke-width:1.0;stroke-dasharray:2.0,2.0;" x1="722.5" x2="986" y1="316.9883" y2="316.9883"/><text fill="#000000" font-family="sans-serif" font-size="13" font-weight="bold" lengthAdjust="spacing" textLength="7" x="734.5" y="311.7256">7</text><text fill="#000000" font-family="sans-serif" font-size="13" lengthAdjust="spacing" textLength="106" x="745.5" y="311.7256">OwnersRepository</text><polygon fill="#181818" points="1095.5,344.2793,1105.5,348.2793,1095.5,352.2793,1099.5,348.2793" style="stroke:#181818;stroke-width:1.0;"/><line style="stroke:#181818;stroke-width:1.0;" x1="717.5" x2="1101.5" y1="348.2793" y2="348.2793"/><text fill="#000000" font-family="sans-serif" font-size="13" font-weight="bold" lengthAdjust="spacing" textLength="7" x="724.5" y="343.0166">8</text><text fill="#000000" font-family="sans-serif" font-size="13" lengthAdjust="spacing" textLength="91" x="735.5" y="343.0166">getOwnersList()</text><polygon fill="#181818" points="728.5,375.5703,718.5,379.5703,728.5,383.5703,724.5,379.5703" style="stroke:#181818;stroke-width:1.0;"/><line style="stroke:#181818;stroke-width:1.0;stroke-dasharray:2.0,2.0;" x1="722.5" x2="1111.5" y1="379.5703" y2="379.5703"/><text fill="#000000" font-family="sans-serif" font-size="13" font-weight="bold" lengthAdjust="spacing" textLength="7" x="734.5" y="374.3076">9</text><text fill="#000000" font-family="sans-serif" font-size="13" lengthAdjust="spacing" textLength="65" x="745.5" y="374.3076">OwnersList</text><polygon fill="#181818" points="423.5,406.8613,413.5,410.8613,423.5,414.8613,419.5,410.8613" style="stroke:#181818;stroke-width:1.0;"/><line style="stroke:#181818;stroke-width:1.0;stroke-dasharray:2.0,2.0;" x1="417.5" x2="711.5" y1="410.8613" y2="410.8613"/><text fill="#000000" font-family="sans-serif" font-size="13" font-weight="bold" lengthAdjust="spacing" textLength="14" x="429.5" y="405.5986">10</text><text fill="#000000" font-family="sans-serif" font-size="13" lengthAdjust="spacing" textLength="65" x="447.5" y="405.5986">OwnersList</text><polygon fill="#181818" points="84.5,455.4434,74.5,459.4434,84.5,463.4434,80.5,459.4434" style="stroke:#181818;stroke-width:1.0;"/><line style="stroke:#181818;stroke-width:1.0;stroke-dasharray:2.0,2.0;" x1="78.5" x2="406.5" y1="459.4434" y2="459.4434"/><text fill="#000000" font-family="sans-serif" font-size="13" font-weight="bold" lengthAdjust="spacing" textLength="14" x="90.5" y="445.5352">11</text><text fill="#000000" font-family="sans-serif" font-size="13" lengthAdjust="spacing" textLength="103" x="108.5" y="436.8896">shows owners list</text><text fill="#000000" font-family="sans-serif" font-size="13" lengthAdjust="spacing" textLength="132" x="112.5" y="454.1807">and asks to select one</text><polygon fill="#181818" points="390.5,486.7344,400.5,490.7344,390.5,494.7344,394.5,490.7344" style="stroke:#181818;stroke-width:1.0;"/><line style="stroke:#181818;stroke-width:1.0;" x1="73.5" x2="396.5" y1="490.7344" y2="490.7344"/><text fill="#000000" font-family="sans-serif" font-size="13" font-weight="bold" lengthAdjust="spacing" textLength="14" x="80.5" y="485.4717">12</text><text fill="#000000" font-family="sans-serif" font-size="13" lengthAdjust="spacing" textLength="101" x="98.5" y="485.4717">selects an Owner</text><polygon fill="#181818" points="695.5,518.0254,705.5,522.0254,695.5,526.0254,699.5,522.0254" style="stroke:#181818;stroke-width:1.0;"/><line style="stroke:#181818;stroke-width:1.0;" x1="412.5" x2="701.5" y1="522.0254" y2="522.0254"/><text fill="#000000" font-family="sans-serif" font-size="13" font-weight="bold" lengthAdjust="spacing" textLength="14" x="419.5" y="516.7627">13</text><text fill="#000000" font-family="sans-serif" font-size="13" lengthAdjust="spacing" textLength="75" x="437.5" y="516.7627">getProperty()</text><polygon fill="#181818" points="863,549.3164,873,553.3164,863,557.3164,867,553.3164" style="stroke:#181818;stroke-width:1.0;"/><line style="stroke:#181818;stroke-width:1.0;" x1="717.5" x2="869" y1="553.3164" y2="553.3164"/><text fill="#000000" font-family="sans-serif" font-size="13" font-weight="bold" lengthAdjust="spacing" textLength="14" x="724.5" y="548.0537">14</text><text fill="#000000" font-family="sans-serif" font-size="13" lengthAdjust="spacing" textLength="75" x="742.5" y="548.0537">getInstance()</text><polygon fill="#181818" points="728.5,580.6074,718.5,584.6074,728.5,588.6074,724.5,584.6074" style="stroke:#181818;stroke-width:1.0;"/><line style="stroke:#181818;stroke-width:1.0;stroke-dasharray:2.0,2.0;" x1="722.5" x2="879" y1="584.6074" y2="584.6074"/><text fill="#000000" font-family="sans-serif" font-size="13" font-weight="bold" lengthAdjust="spacing" textLength="14" x="734.5" y="579.3447">15</text><text fill="#000000" font-family="sans-serif" font-size="13" lengthAdjust="spacing" textLength="67" x="752.5" y="579.3447">repositories</text><polygon fill="#181818" points="970,611.8984,980,615.8984,970,619.8984,974,615.8984" style="stroke:#181818;stroke-width:1.0;"/><line style="stroke:#181818;stroke-width:1.0;" x1="717.5" x2="976" y1="615.8984" y2="615.8984"/><text fill="#000000" font-family="sans-serif" font-size="13" font-weight="bold" lengthAdjust="spacing" textLength="14" x="724.5" y="610.6357">16</text><text fill="#000000" font-family="sans-serif" font-size="13" lengthAdjust="spacing" textLength="137" x="742.5" y="610.6357">getPropertyRepository()</text><polygon fill="#181818" points="728.5,643.1895,718.5,647.1895,728.5,651.1895,724.5,647.1895" style="stroke:#181818;stroke-width:1.0;"/><line style="stroke:#181818;stroke-width:1.0;stroke-dasharray:2.0,2.0;" x1="722.5" x2="986" y1="647.1895" y2="647.1895"/><text fill="#000000" font-family="sans-serif" font-size="13" font-weight="bold" lengthAdjust="spacing" textLength="14" x="734.5" y="641.9268">17</text><text fill="#000000" font-family="sans-serif" font-size="13" lengthAdjust="spacing" textLength="111" x="752.5" y="641.9268">PropertyRepository</text><polygon fill="#181818" points="1242.5,674.4805,1252.5,678.4805,1242.5,682.4805,1246.5,678.4805" style="stroke:#181818;stroke-width:1.0;"/><line style="stroke:#181818;stroke-width:1.0;" x1="717.5" x2="1248.5" y1="678.4805" y2="678.4805"/><text fill="#000000" font-family="sans-serif" font-size="13" font-weight="bold" lengthAdjust="spacing" textLength="14" x="724.5" y="673.2178">18</text><text fill="#000000" font-family="sans-serif" font-size="13" lengthAdjust="spacing" textLength="96" x="742.5" y="673.2178">getPropertyList()</text><polygon fill="#181818" points="728.5,705.7715,718.5,709.7715,728.5,713.7715,724.5,709.7715" style="stroke:#181818;stroke-width:1.0;"/><line style="stroke:#181818;stroke-width:1.0;stroke-dasharray:2.0,2.0;" x1="722.5" x2="1258.5" y1="709.7715" y2="709.7715"/><text fill="#000000" font-family="sans-serif" font-size="13" font-weight="bold" lengthAdjust="spacing" textLength="14" x="734.5" y="704.5088">19</text><text fill="#000000" font-family="sans-serif" font-size="13" lengthAdjust="spacing" textLength="70" x="752.5" y="704.5088">PropertyList</text><polygon fill="#181818" points="423.5,737.0625,413.5,741.0625,423.5,745.0625,419.5,741.0625" style="stroke:#181818;stroke-width:1.0;"/><line style="stroke:#181818;stroke-width:1.0;stroke-dasharray:2.0,2.0;" x1="417.5" x2="711.5" y1="741.0625" y2="741.0625"/><text fill="#000000" font-family="sans-serif" font-size="13" font-weight="bold" lengthAdjust="spacing" textLength="14" x="429.5" y="735.7998">20</text><text fill="#000000" font-family="sans-serif" font-size="13" lengthAdjust="spacing" textLength="70" x="447.5" y="735.7998">PropertyList</text><polygon fill="#181818" points="84.5,785.6445,74.5,789.6445,84.5,793.6445,80.5,789.6445" style="stroke:#181818;stroke-width:1.0;"/><line style="stroke:#181818;stroke-width:1.0;stroke-dasharray:2.0,2.0;" x1="78.5" x2="406.5" y1="789.6445" y2="789.6445"/><text fill="#000000" font-family="sans-serif" font-size="13" font-weight="bold" lengthAdjust="spacing" textLength="14" x="90.5" y="775.7363">21</text><text fill="#000000" font-family="sans-serif" font-size="13" lengthAdjust="spacing" textLength="109" x="108.5" y="767.0908">shows property list</text><text fill="#000000" font-family="sans-serif" font-size="13" lengthAdjust="spacing" textLength="132" x="112.5" y="784.3818">and asks to select one</text><polygon fill="#181818" points="390.5,816.9355,400.5,820.9355,390.5,824.9355,394.5,820.9355" style="stroke:#181818;stroke-width:1.0;"/><line style="stroke:#181818;stroke-width:1.0;" x1="73.5" x2="396.5" y1="820.9355" y2="820.9355"/><text fill="#000000" font-family="sans-serif" font-size="13" font-weight="bold" lengthAdjust="spacing" textLength="14" x="80.5" y="815.6729">22</text><text fill="#000000" font-family="sans-serif" font-size="13" lengthAdjust="spacing" textLength="104" x="98.5" y="815.6729">selects a property</text><polygon fill="#181818" points="84.5,848.2266,74.5,852.2266,84.5,856.2266,80.5,852.2266" style="stroke:#181818;stroke-width:1.0;"/><line style="stroke:#181818;stroke-width:1.0;stroke-dasharray:2.0,2.0;" x1="78.5" x2="406.5" y1="852.2266" y2="852.2266"/><text fill="#000000" font-family="sans-serif" font-size="13" font-weight="bold" lengthAdjust="spacing" textLength="14" x="90.5" y="846.9639">23</text><text fill="#000000" font-family="sans-serif" font-size="13" lengthAdjust="spacing" textLength="79" x="108.5" y="846.9639">requests data</text><polygon fill="#181818" points="390.5,879.5176,400.5,883.5176,390.5,887.5176,394.5,883.5176" style="stroke:#181818;stroke-width:1.0;"/><line style="stroke:#181818;stroke-width:1.0;" x1="73.5" x2="396.5" y1="883.5176" y2="883.5176"/><text fill="#000000" font-family="sans-serif" font-size="13" font-weight="bold" lengthAdjust="spacing" textLength="14" x="80.5" y="878.2549">24</text><text fill="#000000" font-family="sans-serif" font-size="13" lengthAdjust="spacing" textLength="204" x="98.5" y="878.2549">types requested data (commission)</text><polygon fill="#181818" points="84.5,910.8086,74.5,914.8086,84.5,918.8086,80.5,914.8086" style="stroke:#181818;stroke-width:1.0;"/><line style="stroke:#181818;stroke-width:1.0;stroke-dasharray:2.0,2.0;" x1="78.5" x2="406.5" y1="914.8086" y2="914.8086"/><text fill="#000000" font-family="sans-serif" font-size="13" font-weight="bold" lengthAdjust="spacing" textLength="14" x="90.5" y="909.5459">25</text><text fill="#000000" font-family="sans-serif" font-size="13" lengthAdjust="spacing" textLength="287" x="108.5" y="909.5459">shows selected Property, Owner and commission</text><polygon fill="#181818" points="390.5,942.0996,400.5,946.0996,390.5,950.0996,394.5,946.0996" style="stroke:#181818;stroke-width:1.0;"/><line style="stroke:#181818;stroke-width:1.0;" x1="73.5" x2="396.5" y1="946.0996" y2="946.0996"/><text fill="#000000" font-family="sans-serif" font-size="13" font-weight="bold" lengthAdjust="spacing" textLength="14" x="80.5" y="940.8369">26</text><text fill="#000000" font-family="sans-serif" font-size="13" lengthAdjust="spacing" textLength="75" x="98.5" y="940.8369">submits data</text><polygon fill="#181818" points="695.5,973.3906,705.5,977.3906,695.5,981.3906,699.5,977.3906" style="stroke:#181818;stroke-width:1.0;"/><line style="stroke:#181818;stroke-width:1.0;" x1="412.5" x2="701.5" y1="977.3906" y2="977.3906"/><text fill="#000000" font-family="sans-serif" font-size="13" font-weight="bold" lengthAdjust="spacing" textLength="14" x="419.5" y="972.1279">27</text><text fill="#000000" font-family="sans-serif" font-size="13" lengthAdjust="spacing" textLength="258" x="437.5" y="972.1279">createAnnouncement(Property, commission)</text><polygon fill="#181818" points="1413,1004.6816,1423,1008.6816,1413,1012.6816,1417,1008.6816" style="stroke:#181818;stroke-width:1.0;"/><line style="stroke:#181818;stroke-width:1.0;" x1="717.5" x2="1419" y1="1008.6816" y2="1008.6816"/><text fill="#000000" font-family="sans-serif" font-size="13" font-weight="bold" lengthAdjust="spacing" textLength="14" x="724.5" y="1003.4189">28</text><text fill="#000000" font-family="sans-serif" font-size="13" lengthAdjust="spacing" textLength="258" x="742.5" y="1003.4189">createAnnouncement(Property, commission)</text><path d="M1329.5,1023.6816 L1516.5,1023.6816 L1516.5,1032.9727 L1506.5,1042.9727 L1329.5,1042.9727 L1329.5,1023.6816 " fill="#EEEEEE" style="stroke:#000000;stroke-width:1.5;"/><rect fill="none" height="214.4063" style="stroke:#000000;stroke-width:1.5;" width="729" x="1329.5" y="1023.6816"/><text fill="#000000" font-family="sans-serif" font-size="13" font-weight="bold" lengthAdjust="spacing" textLength="142" x="1344.5" y="1038.71">Create Announcement</text><polygon fill="#181818" points="1723,1062.2637,1733,1066.2637,1723,1070.2637,1727,1066.2637" style="stroke:#181818;stroke-width:1.0;"/><line style="stroke:#181818;stroke-width:1.0;" x1="1435" x2="1729" y1="1066.2637" y2="1066.2637"/><text fill="#000000" font-family="sans-serif" font-size="13" font-weight="bold" lengthAdjust="spacing" textLength="14" x="1442" y="1061.001">29</text><text fill="#000000" font-family="sans-serif" font-size="13" lengthAdjust="spacing" textLength="258" x="1460" y="1061.001">createAnnouncement(Property, commission)</text><rect fill="#E3E3E3" height="51.2422" rx="2.5" ry="2.5" style="stroke:#181818;stroke-width:0.5;" width="113" x="1735" y="1042.9727"/><text fill="#000000" font-family="sans-serif" font-size="14" lengthAdjust="spacing" textLength="95" x="1744" y="1065.0801">Announcement</text><text fill="#000000" font-family="sans-serif" font-size="14" lengthAdjust="spacing" textLength="99" x="1742" y="1083.7012">:Announcement</text><line style="stroke:#181818;stroke-width:1.0;" x1="1435" x2="1482" y1="1123.5059" y2="1123.5059"/><line style="stroke:#181818;stroke-width:1.0;" x1="1482" x2="1482" y1="1123.5059" y2="1136.5059"/><line style="stroke:#181818;stroke-width:1.0;" x1="1441" x2="1482" y1="1136.5059" y2="1136.5059"/><polygon fill="#181818" points="1451,1132.5059,1441,1136.5059,1451,1140.5059,1447,1136.5059" style="stroke:#181818;stroke-width:1.0;"/><text fill="#000000" font-family="sans-serif" font-size="13" font-weight="bold" lengthAdjust="spacing" textLength="14" x="1447" y="1118.2432">30</text><text fill="#000000" font-family="sans-serif" font-size="13" lengthAdjust="spacing" textLength="207" x="1465" y="1118.2432">addAnnouncement (Announcement)</text><line style="stroke:#181818;stroke-width:1.0;" x1="1796.5" x2="1838.5" y1="1172.7969" y2="1172.7969"/><line style="stroke:#181818;stroke-width:1.0;" x1="1838.5" x2="1838.5" y1="1172.7969" y2="1185.7969"/><line style="stroke:#181818;stroke-width:1.0;" x1="1797.5" x2="1838.5" y1="1185.7969" y2="1185.7969"/><polygon fill="#181818" points="1807.5,1181.7969,1797.5,1185.7969,1807.5,1189.7969,1803.5,1185.7969" style="stroke:#181818;stroke-width:1.0;"/><text fill="#000000" font-family="sans-serif" font-size="13" font-weight="bold" lengthAdjust="spacing" textLength="14" x="1803.5" y="1167.5342">31</text><text fill="#000000" font-family="sans-serif" font-size="13" lengthAdjust="spacing" textLength="225" x="1821.5" y="1167.5342">validateAnnouncement(Announcement)</text><line style="stroke:#181818;stroke-width:1.0;stroke-dasharray:2.0,2.0;" x1="1796.5" x2="1838.5" y1="1222.0879" y2="1222.0879"/><line style="stroke:#181818;stroke-width:1.0;stroke-dasharray:2.0,2.0;" x1="1838.5" x2="1838.5" y1="1222.0879" y2="1235.0879"/><line style="stroke:#181818;stroke-width:1.0;stroke-dasharray:2.0,2.0;" x1="1791.5" x2="1838.5" y1="1235.0879" y2="1235.0879"/><polygon fill="#181818" points="1801.5,1231.0879,1791.5,1235.0879,1801.5,1239.0879,1797.5,1235.0879" style="stroke:#181818;stroke-width:1.0;"/><text fill="#000000" font-family="sans-serif" font-size="13" font-weight="bold" lengthAdjust="spacing" textLength="14" x="1803.5" y="1216.8252">32</text><text fill="#000000" font-family="sans-serif" font-size="13" lengthAdjust="spacing" textLength="4" x="1821.5" y="1216.8252">&#160;</text><polygon fill="#181818" points="728.5,1264.3789,718.5,1268.3789,728.5,1272.3789,724.5,1268.3789" style="stroke:#181818;stroke-width:1.0;"/><line style="stroke:#181818;stroke-width:1.0;stroke-dasharray:2.0,2.0;" x1="722.5" x2="1429" y1="1268.3789" y2="1268.3789"/><text fill="#000000" font-family="sans-serif" font-size="13" font-weight="bold" lengthAdjust="spacing" textLength="14" x="734.5" y="1263.1162">33</text><text fill="#000000" font-family="sans-serif" font-size="13" lengthAdjust="spacing" textLength="87" x="752.5" y="1263.1162">Announcement</text><polygon fill="#181818" points="423.5,1295.6699,413.5,1299.6699,423.5,1303.6699,419.5,1299.6699" style="stroke:#181818;stroke-width:1.0;"/><line style="stroke:#181818;stroke-width:1.0;stroke-dasharray:2.0,2.0;" x1="417.5" x2="711.5" y1="1299.6699" y2="1299.6699"/><text fill="#000000" font-family="sans-serif" font-size="13" font-weight="bold" lengthAdjust="spacing" textLength="14" x="429.5" y="1294.4072">34</text><text fill="#000000" font-family="sans-serif" font-size="13" lengthAdjust="spacing" textLength="87" x="447.5" y="1294.4072">Announcement</text><polygon fill="#181818" points="79.5,1326.9609,69.5,1330.9609,79.5,1334.9609,75.5,1330.9609" style="stroke:#181818;stroke-width:1.0;"/><line style="stroke:#181818;stroke-width:1.0;stroke-dasharray:2.0,2.0;" x1="73.5" x2="406.5" y1="1330.9609" y2="1330.9609"/><text fill="#000000" font-family="sans-serif" font-size="13" font-weight="bold" lengthAdjust="spacing" textLength="14" x="85.5" y="1325.6982">35</text><text fill="#000000" font-family="sans-serif" font-size="13" lengthAdjust="spacing" textLength="158" x="103.5" y="1325.6982">displays operation success</text><!--SRC=[fLTDR-CW4BtpAqQzD8sQFv13fIZxeKfTjKgxjruedZWeDdW1DvlzzOjnOeED7RVbbC3Cctam3yPwpqL15SqXbqAodP8vWb4b4jsi59JjQOhFvfWXA6I6YZJp3VIE9lB0HGfRccaaX9P6YZ9_GqN8zOud25ifpPlyIoWpKi7LeqgfuF-euLB0AaLXhe1gM7txHIoauOmNL1YuMguLKeCh8MGf6ERMyFUzC_rzVz5oBOLHCijGEO_ro-QXuxF1GcfkC-AedKqpSNpc5KbB8tHHdiUhw0CyFQnUGe_7Wq2bM-3bg-XEESyNglThoo2r4-rIYFMaP87A70Eq_cITIMywnF9tghMndE8B3lDnytCOfEDQarfjllzOaUhO-RibvqwOm6dOFx2uiqS9Iskyrs0aC7UCG47W0Noyrgq1ipL0hi4R5cbX0IlSfQtKFoLgeo6XXi9CuHOLMh1RI50pnOkg-6u1kDXAbTCCNaMuOf3j16Ts9PXEIaNhNqngSqFy1AvFwRjQwsPsvwRdSvjRRKO6JAn1YgQkabaOeE7k8WHBrN3U5YLInpNelT1MlWmxi05qJ0Gzwsh4eYnE7AhzRxNHSq_mO-7En2fz-TlJEeynSggCKd1uRSvTqB6yuw3dHEDozbD_uDgC9Jrm8KHf34HRj0NLnXpZD3LcpVAitG5i3xTVhO5KzKuUD4W70vd5iLAa8cak1OsPVNP02YGHyEeQw5udjOUsA7Lsf7TnT2brvNU-FyUEA2x2hmhnSsByeY0_8yguCFiFpoMEm_ACI3JohbtWCWpV9D_33AaCI3KaqSzhc58_dYTLF-f5RXEZXe8TZJ0gsm7f5YV0YU8T4F2WY1lyU0zm-Vad4wuCSonGdzqmERKDJEOvrzg-zpTaMk1wH-hSBSnvhs_hYyXjJGiw9J5TlkNS9p9wbmNt6EirnRCsdowr3_OOjXdyP80WIDLJHaisLR8ie6xhmqvmI5OMoZszhkcSpx-GNGVHKQL9uYF1pFztGuRL7b25aL4dtb9OmZlDUDAb4COT0lEAQd2BmtwZxjMd9DXaE2Nw-HiWQeiYYI-udMyBUVJyBr7rBh_fIBqMFXJw4XAkYumURTzY2wh-ajKbOwZrM9FYJLNVGly1]--></g></svg>