<?xml version="1.0" encoding="us-ascii" standalone="no"?><svg xmlns="http://www.w3.org/2000/svg" xmlns:xlink="http://www.w3.org/1999/xlink" contentStyleType="text/css" height="779px" preserveAspectRatio="none" style="width:1542px;height:779px;background:#FFFFFF;" version="1.1" viewBox="0 0 1542 779" width="1542px" zoomAndPan="magnify"><defs><filter height="300%" id="f1x0ou5ljyj4ss" width="300%" x="-1" y="-1"><feGaussianBlur result="blurOut" stdDeviation="2.0"/><feColorMatrix in="blurOut" result="blurOut2" type="matrix" values="0 0 0 0 0 0 0 0 0 0 0 0 0 0 0 0 0 0 .4 0"/><feOffset dx="4.0" dy="4.0" in="blurOut2" result="blurOut3"/><feBlend in="SourceGraphic" in2="blurOut3" mode="normal"/></filter></defs><g><!--class House--><g id="elem_House"><rect codeLine="8" fill="#F1F1F1" filter="url(#f1x0ou5ljyj4ss)" height="196.9688" id="House" rx="2.5" ry="2.5" style="stroke:#181818;stroke-width:0.5;" width="172" x="1169" y="331.7627"/><ellipse cx="1230.75" cy="347.7627" fill="#ADD1B2" rx="11" ry="11" style="stroke:#181818;stroke-width:1.0;"/><path d="M1233.5156,343.6377 Q1233.6719,343.4189 1233.8594,343.3096 Q1234.0469,343.2002 1234.2656,343.2002 Q1234.6406,343.2002 1234.875,343.4658 Q1235.1094,343.7158 1235.1094,344.3252 L1235.1094,345.7783 Q1235.1094,346.3877 1234.875,346.6533 Q1234.6406,346.9189 1234.2656,346.9189 Q1233.9219,346.9189 1233.7188,346.7158 Q1233.5156,346.5283 1233.4063,346.0127 Q1233.3594,345.6533 1233.1719,345.4658 Q1232.8438,345.0908 1232.2344,344.8721 Q1231.625,344.6533 1231,344.6533 Q1230.2344,344.6533 1229.5938,344.9814 Q1228.9688,345.3096 1228.4688,346.0596 Q1227.9844,346.8096 1227.9844,347.8408 L1227.9844,348.9346 Q1227.9844,350.1689 1228.875,350.9971 Q1229.7656,351.8096 1231.3594,351.8096 Q1232.2969,351.8096 1232.9531,351.5596 Q1233.3438,351.4033 1233.7656,350.9658 Q1234.0313,350.7002 1234.1719,350.6221 Q1234.3281,350.5439 1234.5313,350.5439 Q1234.8594,350.5439 1235.1094,350.8096 Q1235.375,351.0596 1235.375,351.4033 Q1235.375,351.7471 1235.0313,352.1533 Q1234.5313,352.7314 1233.7344,353.0596 Q1232.6563,353.5127 1231.3594,353.5127 Q1229.8438,353.5127 1228.6406,352.8877 Q1227.6563,352.3877 1226.9688,351.3252 Q1226.2813,350.2471 1226.2813,348.9658 L1226.2813,347.8096 Q1226.2813,346.4814 1226.8906,345.3408 Q1227.5156,344.1846 1228.6094,343.5752 Q1229.7031,342.9502 1230.9375,342.9502 Q1231.6719,342.9502 1232.3125,343.1221 Q1232.9688,343.2783 1233.5156,343.6377 Z " fill="#000000"/><text fill="#000000" font-family="sans-serif" font-size="14" lengthAdjust="spacing" textLength="40" x="1251.25" y="353.5596">House</text><line style="stroke:#181818;stroke-width:0.5;" x1="1170" x2="1340" y1="363.7627" y2="363.7627"/><rect fill="none" height="6" style="stroke:#C82930;stroke-width:1.0;" width="6" x="1177" y="375.5732"/><text fill="#000000" font-family="sans-serif" font-size="14" lengthAdjust="spacing" textLength="107" x="1189" y="382.8701">numberOfRooms</text><rect fill="none" height="6" style="stroke:#C82930;stroke-width:1.0;" width="6" x="1177" y="394.1943"/><text fill="#000000" font-family="sans-serif" font-size="14" lengthAdjust="spacing" textLength="131" x="1189" y="401.4912">numberOfBathrooms</text><rect fill="none" height="6" style="stroke:#C82930;stroke-width:1.0;" width="6" x="1177" y="412.8154"/><text fill="#000000" font-family="sans-serif" font-size="14" lengthAdjust="spacing" textLength="103" x="1189" y="420.1123">numberOfFloors</text><rect fill="none" height="6" style="stroke:#C82930;stroke-width:1.0;" width="6" x="1177" y="431.4365"/><text fill="#000000" font-family="sans-serif" font-size="14" lengthAdjust="spacing" textLength="118" x="1189" y="438.7334">numberOfGarages</text><rect fill="none" height="6" style="stroke:#C82930;stroke-width:1.0;" width="6" x="1177" y="450.0576"/><text fill="#000000" font-family="sans-serif" font-size="14" lengthAdjust="spacing" textLength="82" x="1189" y="457.3545">Equipaments</text><rect fill="none" height="6" style="stroke:#C82930;stroke-width:1.0;" width="6" x="1177" y="468.6787"/><text fill="#000000" font-family="sans-serif" font-size="14" lengthAdjust="spacing" textLength="122" x="1189" y="475.9756">Basement: boolean</text><rect fill="none" height="6" style="stroke:#C82930;stroke-width:1.0;" width="6" x="1177" y="487.2998"/><text fill="#000000" font-family="sans-serif" font-size="14" lengthAdjust="spacing" textLength="144" x="1189" y="494.5967">inhabited  loft: boolean</text><rect fill="none" height="6" style="stroke:#C82930;stroke-width:1.0;" width="6" x="1177" y="505.9209"/><text fill="#000000" font-family="sans-serif" font-size="14" lengthAdjust="spacing" textLength="146" x="1189" y="513.2178">Sun exposure: boolean</text><line style="stroke:#181818;stroke-width:0.5;" x1="1170" x2="1340" y1="520.7314" y2="520.7314"/></g><!--class Apartment--><g id="elem_Apartment"><rect codeLine="18" fill="#F1F1F1" filter="url(#f1x0ou5ljyj4ss)" height="141.1055" id="Apartment" rx="2.5" ry="2.5" style="stroke:#181818;stroke-width:0.5;" width="157" x="877.5" y="359.7627"/><ellipse cx="919.5" cy="375.7627" fill="#ADD1B2" rx="11" ry="11" style="stroke:#181818;stroke-width:1.0;"/><path d="M922.2656,371.6377 Q922.4219,371.4189 922.6094,371.3096 Q922.7969,371.2002 923.0156,371.2002 Q923.3906,371.2002 923.625,371.4658 Q923.8594,371.7158 923.8594,372.3252 L923.8594,373.7783 Q923.8594,374.3877 923.625,374.6533 Q923.3906,374.9189 923.0156,374.9189 Q922.6719,374.9189 922.4688,374.7158 Q922.2656,374.5283 922.1563,374.0127 Q922.1094,373.6533 921.9219,373.4658 Q921.5938,373.0908 920.9844,372.8721 Q920.375,372.6533 919.75,372.6533 Q918.9844,372.6533 918.3438,372.9814 Q917.7188,373.3096 917.2188,374.0596 Q916.7344,374.8096 916.7344,375.8408 L916.7344,376.9346 Q916.7344,378.1689 917.625,378.9971 Q918.5156,379.8096 920.1094,379.8096 Q921.0469,379.8096 921.7031,379.5596 Q922.0938,379.4033 922.5156,378.9658 Q922.7813,378.7002 922.9219,378.6221 Q923.0781,378.5439 923.2813,378.5439 Q923.6094,378.5439 923.8594,378.8096 Q924.125,379.0596 924.125,379.4033 Q924.125,379.7471 923.7813,380.1533 Q923.2813,380.7314 922.4844,381.0596 Q921.4063,381.5127 920.1094,381.5127 Q918.5938,381.5127 917.3906,380.8877 Q916.4063,380.3877 915.7188,379.3252 Q915.0313,378.2471 915.0313,376.9658 L915.0313,375.8096 Q915.0313,374.4814 915.6406,373.3408 Q916.2656,372.1846 917.3594,371.5752 Q918.4531,370.9502 919.6875,370.9502 Q920.4219,370.9502 921.0625,371.1221 Q921.7188,371.2783 922.2656,371.6377 Z " fill="#000000"/><text fill="#000000" font-family="sans-serif" font-size="14" lengthAdjust="spacing" textLength="65" x="939.5" y="381.5596">Apartment</text><line style="stroke:#181818;stroke-width:0.5;" x1="878.5" x2="1033.5" y1="391.7627" y2="391.7627"/><rect fill="none" height="6" style="stroke:#C82930;stroke-width:1.0;" width="6" x="885.5" y="403.5732"/><text fill="#000000" font-family="sans-serif" font-size="14" lengthAdjust="spacing" textLength="107" x="897.5" y="410.8701">numberOfRooms</text><rect fill="none" height="6" style="stroke:#C82930;stroke-width:1.0;" width="6" x="885.5" y="422.1943"/><text fill="#000000" font-family="sans-serif" font-size="14" lengthAdjust="spacing" textLength="131" x="897.5" y="429.4912">numberOfBathrooms</text><rect fill="none" height="6" style="stroke:#C82930;stroke-width:1.0;" width="6" x="885.5" y="440.8154"/><text fill="#000000" font-family="sans-serif" font-size="14" lengthAdjust="spacing" textLength="103" x="897.5" y="448.1123">numberOfFloors</text><rect fill="none" height="6" style="stroke:#C82930;stroke-width:1.0;" width="6" x="885.5" y="459.4365"/><text fill="#000000" font-family="sans-serif" font-size="14" lengthAdjust="spacing" textLength="118" x="897.5" y="466.7334">numberOfGarages</text><rect fill="none" height="6" style="stroke:#C82930;stroke-width:1.0;" width="6" x="885.5" y="478.0576"/><text fill="#000000" font-family="sans-serif" font-size="14" lengthAdjust="spacing" textLength="82" x="897.5" y="485.3545">Equipaments</text><line style="stroke:#181818;stroke-width:0.5;" x1="878.5" x2="1033.5" y1="492.8682" y2="492.8682"/></g><!--class Land--><g id="elem_Land"><rect codeLine="26" fill="#F1F1F1" filter="url(#f1x0ou5ljyj4ss)" height="66.6211" id="Land" rx="2.5" ry="2.5" style="stroke:#181818;stroke-width:0.5;" width="64" x="1070" y="396.7627"/><ellipse cx="1085" cy="412.7627" fill="#ADD1B2" rx="11" ry="11" style="stroke:#181818;stroke-width:1.0;"/><path d="M1087.7656,408.6377 Q1087.9219,408.4189 1088.1094,408.3096 Q1088.2969,408.2002 1088.5156,408.2002 Q1088.8906,408.2002 1089.125,408.4658 Q1089.3594,408.7158 1089.3594,409.3252 L1089.3594,410.7783 Q1089.3594,411.3877 1089.125,411.6533 Q1088.8906,411.9189 1088.5156,411.9189 Q1088.1719,411.9189 1087.9688,411.7158 Q1087.7656,411.5283 1087.6563,411.0127 Q1087.6094,410.6533 1087.4219,410.4658 Q1087.0938,410.0908 1086.4844,409.8721 Q1085.875,409.6533 1085.25,409.6533 Q1084.4844,409.6533 1083.8438,409.9814 Q1083.2188,410.3096 1082.7188,411.0596 Q1082.2344,411.8096 1082.2344,412.8408 L1082.2344,413.9346 Q1082.2344,415.1689 1083.125,415.9971 Q1084.0156,416.8096 1085.6094,416.8096 Q1086.5469,416.8096 1087.2031,416.5596 Q1087.5938,416.4033 1088.0156,415.9658 Q1088.2813,415.7002 1088.4219,415.6221 Q1088.5781,415.5439 1088.7813,415.5439 Q1089.1094,415.5439 1089.3594,415.8096 Q1089.625,416.0596 1089.625,416.4033 Q1089.625,416.7471 1089.2813,417.1533 Q1088.7813,417.7314 1087.9844,418.0596 Q1086.9063,418.5127 1085.6094,418.5127 Q1084.0938,418.5127 1082.8906,417.8877 Q1081.9063,417.3877 1081.2188,416.3252 Q1080.5313,415.2471 1080.5313,413.9658 L1080.5313,412.8096 Q1080.5313,411.4814 1081.1406,410.3408 Q1081.7656,409.1846 1082.8594,408.5752 Q1083.9531,407.9502 1085.1875,407.9502 Q1085.9219,407.9502 1086.5625,408.1221 Q1087.2188,408.2783 1087.7656,408.6377 Z " fill="#000000"/><text fill="#000000" font-family="sans-serif" font-size="14" lengthAdjust="spacing" textLength="32" x="1099" y="418.5596">Land</text><line style="stroke:#181818;stroke-width:0.5;" x1="1071" x2="1133" y1="428.7627" y2="428.7627"/><rect fill="none" height="6" style="stroke:#C82930;stroke-width:1.0;" width="6" x="1078" y="440.5732"/><text fill="#000000" font-family="sans-serif" font-size="14" lengthAdjust="spacing" textLength="29" x="1090" y="447.8701">area</text><line style="stroke:#181818;stroke-width:0.5;" x1="1071" x2="1133" y1="455.3838" y2="455.3838"/></g><!--class Property--><g id="elem_Property"><rect codeLine="29" fill="#F1F1F1" filter="url(#f1x0ou5ljyj4ss)" height="159.7266" id="Property" rx="2.5" ry="2.5" style="stroke:#181818;stroke-width:0.5;" width="125" x="1039.5" y="607.7627"/><ellipse cx="1072.05" cy="623.7627" fill="#A9DCDF" rx="11" ry="11" style="stroke:#181818;stroke-width:1.0;"/><path d="M1074.2375,625.5283 L1070.0969,625.5283 L1069.675,626.5596 L1070.0969,626.5596 Q1070.7063,626.5596 1070.9719,626.7939 Q1071.2375,627.0283 1071.2375,627.4189 Q1071.2375,627.7939 1070.9719,628.0283 Q1070.7063,628.2627 1070.0969,628.2627 L1067.8,628.2627 Q1067.1906,628.2627 1066.9406,628.0283 Q1066.675,627.7939 1066.675,627.4033 Q1066.675,627.0283 1066.9563,626.7939 Q1067.2219,626.5439 1067.8469,626.5596 L1070.5188,619.9033 L1069.4094,619.9033 Q1068.8,619.9033 1068.5344,619.6689 Q1068.2688,619.4346 1068.2688,619.0439 Q1068.2688,618.6689 1068.5344,618.4346 Q1068.8,618.2002 1069.4094,618.2002 L1073.0813,618.2002 L1076.4719,626.5596 Q1077.0656,626.5596 1077.2531,626.7002 Q1077.6438,626.9658 1077.6438,627.4189 Q1077.6438,627.7939 1077.3781,628.0283 Q1077.1281,628.2627 1076.5188,628.2627 L1074.2219,628.2627 Q1073.6125,628.2627 1073.3469,628.0283 Q1073.0813,627.7939 1073.0813,627.4033 Q1073.0813,627.0283 1073.3469,626.7939 Q1073.6125,626.5596 1074.2219,626.5596 L1074.6438,626.5596 L1074.2375,625.5283 Z M1073.5188,623.8252 L1072.1594,620.4502 L1070.7844,623.8252 L1073.5188,623.8252 Z " fill="#000000"/><text fill="#000000" font-family="sans-serif" font-size="14" font-style="italic" lengthAdjust="spacing" textLength="54" x="1089.95" y="629.5596">Property</text><line style="stroke:#181818;stroke-width:0.5;" x1="1040.5" x2="1163.5" y1="639.7627" y2="639.7627"/><rect fill="none" height="6" style="stroke:#C82930;stroke-width:1.0;" width="6" x="1047.5" y="651.5732"/><text fill="#000000" font-family="sans-serif" font-size="14" lengthAdjust="spacing" textLength="35" x="1059.5" y="658.8701">name</text><rect fill="none" height="6" style="stroke:#C82930;stroke-width:1.0;" width="6" x="1047.5" y="670.1943"/><text fill="#000000" font-family="sans-serif" font-size="14" lengthAdjust="spacing" textLength="28" x="1059.5" y="677.4912">Tipo</text><rect fill="none" height="6" style="stroke:#C82930;stroke-width:1.0;" width="6" x="1047.5" y="688.8154"/><text fill="#000000" font-family="sans-serif" font-size="14" lengthAdjust="spacing" textLength="51" x="1059.5" y="696.1123">address</text><rect fill="none" height="6" style="stroke:#C82930;stroke-width:1.0;" width="6" x="1047.5" y="707.4365"/><text fill="#000000" font-family="sans-serif" font-size="14" lengthAdjust="spacing" textLength="76" x="1059.5" y="714.7334">descriptions</text><rect fill="none" height="6" style="stroke:#C82930;stroke-width:1.0;" width="6" x="1047.5" y="726.0576"/><text fill="#000000" font-family="sans-serif" font-size="14" lengthAdjust="spacing" textLength="99" x="1059.5" y="733.3545">vender:boolean</text><rect fill="none" height="6" style="stroke:#C82930;stroke-width:1.0;" width="6" x="1047.5" y="744.6787"/><text fill="#000000" font-family="sans-serif" font-size="14" lengthAdjust="spacing" textLength="97" x="1059.5" y="751.9756">render:boolean</text><line style="stroke:#181818;stroke-width:0.5;" x1="1040.5" x2="1163.5" y1="759.4893" y2="759.4893"/></g><!--class Repositories--><g id="elem_Repositories"><rect codeLine="38" fill="#F1F1F1" filter="url(#f1x0ou5ljyj4ss)" height="103.8633" id="Repositories" rx="2.5" ry="2.5" style="stroke:#181818;stroke-width:0.5;" width="200" x="965" y="102.2627"/><ellipse cx="1021.25" cy="118.2627" fill="#ADD1B2" rx="11" ry="11" style="stroke:#181818;stroke-width:1.0;"/><path d="M1024.0156,114.1377 Q1024.1719,113.9189 1024.3594,113.8096 Q1024.5469,113.7002 1024.7656,113.7002 Q1025.1406,113.7002 1025.375,113.9658 Q1025.6094,114.2158 1025.6094,114.8252 L1025.6094,116.2783 Q1025.6094,116.8877 1025.375,117.1533 Q1025.1406,117.4189 1024.7656,117.4189 Q1024.4219,117.4189 1024.2188,117.2158 Q1024.0156,117.0283 1023.9063,116.5127 Q1023.8594,116.1533 1023.6719,115.9658 Q1023.3438,115.5908 1022.7344,115.3721 Q1022.125,115.1533 1021.5,115.1533 Q1020.7344,115.1533 1020.0938,115.4814 Q1019.4688,115.8096 1018.9688,116.5596 Q1018.4844,117.3096 1018.4844,118.3408 L1018.4844,119.4346 Q1018.4844,120.6689 1019.375,121.4971 Q1020.2656,122.3096 1021.8594,122.3096 Q1022.7969,122.3096 1023.4531,122.0596 Q1023.8438,121.9033 1024.2656,121.4658 Q1024.5313,121.2002 1024.6719,121.1221 Q1024.8281,121.0439 1025.0313,121.0439 Q1025.3594,121.0439 1025.6094,121.3096 Q1025.875,121.5596 1025.875,121.9033 Q1025.875,122.2471 1025.5313,122.6533 Q1025.0313,123.2314 1024.2344,123.5596 Q1023.1563,124.0127 1021.8594,124.0127 Q1020.3438,124.0127 1019.1406,123.3877 Q1018.1563,122.8877 1017.4688,121.8252 Q1016.7813,120.7471 1016.7813,119.4658 L1016.7813,118.3096 Q1016.7813,116.9814 1017.3906,115.8408 Q1018.0156,114.6846 1019.1094,114.0752 Q1020.2031,113.4502 1021.4375,113.4502 Q1022.1719,113.4502 1022.8125,113.6221 Q1023.4688,113.7783 1024.0156,114.1377 Z " fill="#000000"/><text fill="#000000" font-family="sans-serif" font-size="14" lengthAdjust="spacing" textLength="79" x="1041.75" y="124.0596">Repositories</text><line style="stroke:#181818;stroke-width:0.5;" x1="966" x2="1164" y1="134.2627" y2="134.2627"/><line style="stroke:#181818;stroke-width:0.5;" x1="966" x2="1164" y1="142.2627" y2="142.2627"/><rect fill="#F24D5C" height="6" style="stroke:#C82930;stroke-width:1.0;" width="6" x="973" y="154.0732"/><text fill="#000000" font-family="sans-serif" font-size="14" lengthAdjust="spacing" textLength="89" x="985" y="161.3701">Repositories()</text><ellipse cx="976" cy="175.6943" fill="#84BE84" rx="3" ry="3" style="stroke:#038048;stroke-width:1.0;"/><text fill="#000000" font-family="sans-serif" font-size="14" lengthAdjust="spacing" textLength="174" x="985" y="179.9912">getInstance() : Repositories</text><ellipse cx="976" cy="194.3154" fill="#84BE84" rx="3" ry="3" style="stroke:#038048;stroke-width:1.0;"/><text fill="#000000" font-family="sans-serif" font-size="14" lengthAdjust="spacing" textLength="152" x="985" y="198.6123">getPropertyRepository()</text></g><!--class CreateAnnouncementUI--><g id="elem_CreateAnnouncementUI"><rect codeLine="44" fill="#F1F1F1" filter="url(#f1x0ou5ljyj4ss)" height="48" id="CreateAnnouncementUI" rx="2.5" ry="2.5" style="stroke:#181818;stroke-width:0.5;" width="182" x="7" y="130.2627"/><ellipse cx="22" cy="146.2627" fill="#ADD1B2" rx="11" ry="11" style="stroke:#181818;stroke-width:1.0;"/><path d="M24.7656,142.1377 Q24.9219,141.9189 25.1094,141.8096 Q25.2969,141.7002 25.5156,141.7002 Q25.8906,141.7002 26.125,141.9658 Q26.3594,142.2158 26.3594,142.8252 L26.3594,144.2783 Q26.3594,144.8877 26.125,145.1533 Q25.8906,145.4189 25.5156,145.4189 Q25.1719,145.4189 24.9688,145.2158 Q24.7656,145.0283 24.6563,144.5127 Q24.6094,144.1533 24.4219,143.9658 Q24.0938,143.5908 23.4844,143.3721 Q22.875,143.1533 22.25,143.1533 Q21.4844,143.1533 20.8438,143.4814 Q20.2188,143.8096 19.7188,144.5596 Q19.2344,145.3096 19.2344,146.3408 L19.2344,147.4346 Q19.2344,148.6689 20.125,149.4971 Q21.0156,150.3096 22.6094,150.3096 Q23.5469,150.3096 24.2031,150.0596 Q24.5938,149.9033 25.0156,149.4658 Q25.2813,149.2002 25.4219,149.1221 Q25.5781,149.0439 25.7813,149.0439 Q26.1094,149.0439 26.3594,149.3096 Q26.625,149.5596 26.625,149.9033 Q26.625,150.2471 26.2813,150.6533 Q25.7813,151.2314 24.9844,151.5596 Q23.9063,152.0127 22.6094,152.0127 Q21.0938,152.0127 19.8906,151.3877 Q18.9063,150.8877 18.2188,149.8252 Q17.5313,148.7471 17.5313,147.4658 L17.5313,146.3096 Q17.5313,144.9814 18.1406,143.8408 Q18.7656,142.6846 19.8594,142.0752 Q20.9531,141.4502 22.1875,141.4502 Q22.9219,141.4502 23.5625,141.6221 Q24.2188,141.7783 24.7656,142.1377 Z " fill="#000000"/><text fill="#000000" font-family="sans-serif" font-size="14" lengthAdjust="spacing" textLength="150" x="36" y="152.0596">CreateAnnouncementUI</text><line style="stroke:#181818;stroke-width:0.5;" x1="8" x2="188" y1="162.2627" y2="162.2627"/><line style="stroke:#181818;stroke-width:0.5;" x1="8" x2="188" y1="170.2627" y2="170.2627"/></g><!--class CreateAnnouncementController--><g id="elem_CreateAnnouncementController"><rect codeLine="47" fill="#F1F1F1" filter="url(#f1x0ou5ljyj4ss)" height="66.6211" id="CreateAnnouncementController" rx="2.5" ry="2.5" style="stroke:#181818;stroke-width:0.5;" width="376" x="224" y="120.7627"/><ellipse cx="307.75" cy="136.7627" fill="#ADD1B2" rx="11" ry="11" style="stroke:#181818;stroke-width:1.0;"/><path d="M310.5156,132.6377 Q310.6719,132.4189 310.8594,132.3096 Q311.0469,132.2002 311.2656,132.2002 Q311.6406,132.2002 311.875,132.4658 Q312.1094,132.7158 312.1094,133.3252 L312.1094,134.7783 Q312.1094,135.3877 311.875,135.6533 Q311.6406,135.9189 311.2656,135.9189 Q310.9219,135.9189 310.7188,135.7158 Q310.5156,135.5283 310.4063,135.0127 Q310.3594,134.6533 310.1719,134.4658 Q309.8438,134.0908 309.2344,133.8721 Q308.625,133.6533 308,133.6533 Q307.2344,133.6533 306.5938,133.9814 Q305.9688,134.3096 305.4688,135.0596 Q304.9844,135.8096 304.9844,136.8408 L304.9844,137.9346 Q304.9844,139.1689 305.875,139.9971 Q306.7656,140.8096 308.3594,140.8096 Q309.2969,140.8096 309.9531,140.5596 Q310.3438,140.4033 310.7656,139.9658 Q311.0313,139.7002 311.1719,139.6221 Q311.3281,139.5439 311.5313,139.5439 Q311.8594,139.5439 312.1094,139.8096 Q312.375,140.0596 312.375,140.4033 Q312.375,140.7471 312.0313,141.1533 Q311.5313,141.7314 310.7344,142.0596 Q309.6563,142.5127 308.3594,142.5127 Q306.8438,142.5127 305.6406,141.8877 Q304.6563,141.3877 303.9688,140.3252 Q303.2813,139.2471 303.2813,137.9658 L303.2813,136.8096 Q303.2813,135.4814 303.8906,134.3408 Q304.5156,133.1846 305.6094,132.5752 Q306.7031,131.9502 307.9375,131.9502 Q308.6719,131.9502 309.3125,132.1221 Q309.9688,132.2783 310.5156,132.6377 Z " fill="#000000"/><text fill="#000000" font-family="sans-serif" font-size="14" lengthAdjust="spacing" textLength="200" x="328.25" y="142.5596">CreateAnnouncementController</text><line style="stroke:#181818;stroke-width:0.5;" x1="225" x2="599" y1="152.7627" y2="152.7627"/><line style="stroke:#181818;stroke-width:0.5;" x1="225" x2="599" y1="160.7627" y2="160.7627"/><ellipse cx="235" cy="175.5732" fill="#84BE84" rx="3" ry="3" style="stroke:#038048;stroke-width:1.0;"/><text fill="#000000" font-family="sans-serif" font-size="14" lengthAdjust="spacing" textLength="350" x="244" y="179.8701">createAnnouncement(Property, commission, Employee)</text></g><!--class PropertyRepository--><g id="elem_PropertyRepository"><rect codeLine="50" fill="#F1F1F1" filter="url(#f1x0ou5ljyj4ss)" height="48" id="PropertyRepository" rx="2.5" ry="2.5" style="stroke:#181818;stroke-width:0.5;" width="154" x="1376" y="406.2627"/><ellipse cx="1391" cy="422.2627" fill="#ADD1B2" rx="11" ry="11" style="stroke:#181818;stroke-width:1.0;"/><path d="M1393.7656,418.1377 Q1393.9219,417.9189 1394.1094,417.8096 Q1394.2969,417.7002 1394.5156,417.7002 Q1394.8906,417.7002 1395.125,417.9658 Q1395.3594,418.2158 1395.3594,418.8252 L1395.3594,420.2783 Q1395.3594,420.8877 1395.125,421.1533 Q1394.8906,421.4189 1394.5156,421.4189 Q1394.1719,421.4189 1393.9688,421.2158 Q1393.7656,421.0283 1393.6563,420.5127 Q1393.6094,420.1533 1393.4219,419.9658 Q1393.0938,419.5908 1392.4844,419.3721 Q1391.875,419.1533 1391.25,419.1533 Q1390.4844,419.1533 1389.8438,419.4814 Q1389.2188,419.8096 1388.7188,420.5596 Q1388.2344,421.3096 1388.2344,422.3408 L1388.2344,423.4346 Q1388.2344,424.6689 1389.125,425.4971 Q1390.0156,426.3096 1391.6094,426.3096 Q1392.5469,426.3096 1393.2031,426.0596 Q1393.5938,425.9033 1394.0156,425.4658 Q1394.2813,425.2002 1394.4219,425.1221 Q1394.5781,425.0439 1394.7813,425.0439 Q1395.1094,425.0439 1395.3594,425.3096 Q1395.625,425.5596 1395.625,425.9033 Q1395.625,426.2471 1395.2813,426.6533 Q1394.7813,427.2314 1393.9844,427.5596 Q1392.9063,428.0127 1391.6094,428.0127 Q1390.0938,428.0127 1388.8906,427.3877 Q1387.9063,426.8877 1387.2188,425.8252 Q1386.5313,424.7471 1386.5313,423.4658 L1386.5313,422.3096 Q1386.5313,420.9814 1387.1406,419.8408 Q1387.7656,418.6846 1388.8594,418.0752 Q1389.9531,417.4502 1391.1875,417.4502 Q1391.9219,417.4502 1392.5625,417.6221 Q1393.2188,417.7783 1393.7656,418.1377 Z " fill="#000000"/><text fill="#000000" font-family="sans-serif" font-size="14" lengthAdjust="spacing" textLength="122" x="1405" y="428.0596">PropertyRepository</text><line style="stroke:#181818;stroke-width:0.5;" x1="1377" x2="1529" y1="438.2627" y2="438.2627"/><line style="stroke:#181818;stroke-width:0.5;" x1="1377" x2="1529" y1="446.2627" y2="446.2627"/></g><!--class Owner--><g id="elem_Owner"><rect codeLine="54" fill="#F1F1F1" filter="url(#f1x0ou5ljyj4ss)" height="48" id="Owner" rx="2.5" ry="2.5" style="stroke:#181818;stroke-width:0.5;" width="73" x="769.5" y="406.2627"/><ellipse cx="784.5" cy="422.2627" fill="#ADD1B2" rx="11" ry="11" style="stroke:#181818;stroke-width:1.0;"/><path d="M787.2656,418.1377 Q787.4219,417.9189 787.6094,417.8096 Q787.7969,417.7002 788.0156,417.7002 Q788.3906,417.7002 788.625,417.9658 Q788.8594,418.2158 788.8594,418.8252 L788.8594,420.2783 Q788.8594,420.8877 788.625,421.1533 Q788.3906,421.4189 788.0156,421.4189 Q787.6719,421.4189 787.4688,421.2158 Q787.2656,421.0283 787.1563,420.5127 Q787.1094,420.1533 786.9219,419.9658 Q786.5938,419.5908 785.9844,419.3721 Q785.375,419.1533 784.75,419.1533 Q783.9844,419.1533 783.3438,419.4814 Q782.7188,419.8096 782.2188,420.5596 Q781.7344,421.3096 781.7344,422.3408 L781.7344,423.4346 Q781.7344,424.6689 782.625,425.4971 Q783.5156,426.3096 785.1094,426.3096 Q786.0469,426.3096 786.7031,426.0596 Q787.0938,425.9033 787.5156,425.4658 Q787.7813,425.2002 787.9219,425.1221 Q788.0781,425.0439 788.2813,425.0439 Q788.6094,425.0439 788.8594,425.3096 Q789.125,425.5596 789.125,425.9033 Q789.125,426.2471 788.7813,426.6533 Q788.2813,427.2314 787.4844,427.5596 Q786.4063,428.0127 785.1094,428.0127 Q783.5938,428.0127 782.3906,427.3877 Q781.4063,426.8877 780.7188,425.8252 Q780.0313,424.7471 780.0313,423.4658 L780.0313,422.3096 Q780.0313,420.9814 780.6406,419.8408 Q781.2656,418.6846 782.3594,418.0752 Q783.4531,417.4502 784.6875,417.4502 Q785.4219,417.4502 786.0625,417.6221 Q786.7188,417.7783 787.2656,418.1377 Z " fill="#000000"/><text fill="#000000" font-family="sans-serif" font-size="14" lengthAdjust="spacing" textLength="41" x="798.5" y="428.0596">Owner</text><line style="stroke:#181818;stroke-width:0.5;" x1="770.5" x2="841.5" y1="438.2627" y2="438.2627"/><line style="stroke:#181818;stroke-width:0.5;" x1="770.5" x2="841.5" y1="446.2627" y2="446.2627"/></g><!--class user--><g id="elem_user"><rect codeLine="61" fill="#F1F1F1" filter="url(#f1x0ou5ljyj4ss)" height="196.9688" id="user" rx="2.5" ry="2.5" style="stroke:#181818;stroke-width:0.5;" width="118" x="635" y="55.7627"/><ellipse cx="676.1" cy="71.7627" fill="#ADD1B2" rx="11" ry="11" style="stroke:#181818;stroke-width:1.0;"/><path d="M678.8656,67.6377 Q679.0219,67.4189 679.2094,67.3096 Q679.3969,67.2002 679.6156,67.2002 Q679.9906,67.2002 680.225,67.4658 Q680.4594,67.7158 680.4594,68.3252 L680.4594,69.7783 Q680.4594,70.3877 680.225,70.6533 Q679.9906,70.9189 679.6156,70.9189 Q679.2719,70.9189 679.0688,70.7158 Q678.8656,70.5283 678.7563,70.0127 Q678.7094,69.6533 678.5219,69.4658 Q678.1938,69.0908 677.5844,68.8721 Q676.975,68.6533 676.35,68.6533 Q675.5844,68.6533 674.9438,68.9814 Q674.3188,69.3096 673.8188,70.0596 Q673.3344,70.8096 673.3344,71.8408 L673.3344,72.9346 Q673.3344,74.1689 674.225,74.9971 Q675.1156,75.8096 676.7094,75.8096 Q677.6469,75.8096 678.3031,75.5596 Q678.6938,75.4033 679.1156,74.9658 Q679.3813,74.7002 679.5219,74.6221 Q679.6781,74.5439 679.8813,74.5439 Q680.2094,74.5439 680.4594,74.8096 Q680.725,75.0596 680.725,75.4033 Q680.725,75.7471 680.3813,76.1533 Q679.8813,76.7314 679.0844,77.0596 Q678.0063,77.5127 676.7094,77.5127 Q675.1938,77.5127 673.9906,76.8877 Q673.0063,76.3877 672.3188,75.3252 Q671.6313,74.2471 671.6313,72.9658 L671.6313,71.8096 Q671.6313,70.4814 672.2406,69.3408 Q672.8656,68.1846 673.9594,67.5752 Q675.0531,66.9502 676.2875,66.9502 Q677.0219,66.9502 677.6625,67.1221 Q678.3188,67.2783 678.8656,67.6377 Z " fill="#000000"/><text fill="#000000" font-family="sans-serif" font-size="14" lengthAdjust="spacing" textLength="28" x="695.9" y="77.5596">user</text><line style="stroke:#181818;stroke-width:0.5;" x1="636" x2="752" y1="87.7627" y2="87.7627"/><rect fill="none" height="6" style="stroke:#C82930;stroke-width:1.0;" width="6" x="643" y="99.5732"/><text fill="#000000" font-family="sans-serif" font-size="14" lengthAdjust="spacing" textLength="35" x="655" y="106.8701">name</text><rect fill="none" height="6" style="stroke:#C82930;stroke-width:1.0;" width="6" x="643" y="118.1943"/><text fill="#000000" font-family="sans-serif" font-size="14" lengthAdjust="spacing" textLength="76" x="655" y="125.4912">descriptions</text><rect fill="none" height="6" style="stroke:#C82930;stroke-width:1.0;" width="6" x="643" y="136.8154"/><text fill="#000000" font-family="sans-serif" font-size="14" lengthAdjust="spacing" textLength="70" x="655" y="144.1123">tax number</text><rect fill="none" height="6" style="stroke:#C82930;stroke-width:1.0;" width="6" x="643" y="155.4365"/><text fill="#000000" font-family="sans-serif" font-size="14" lengthAdjust="spacing" textLength="51" x="655" y="162.7334">address</text><rect fill="none" height="6" style="stroke:#C82930;stroke-width:1.0;" width="6" x="643" y="174.0576"/><text fill="#000000" font-family="sans-serif" font-size="14" lengthAdjust="spacing" textLength="88" x="655" y="181.3545">email address</text><rect fill="none" height="6" style="stroke:#C82930;stroke-width:1.0;" width="6" x="643" y="192.6787"/><text fill="#000000" font-family="sans-serif" font-size="14" lengthAdjust="spacing" textLength="92" x="655" y="199.9756">phone number</text><rect fill="none" height="6" style="stroke:#C82930;stroke-width:1.0;" width="6" x="643" y="211.2998"/><text fill="#000000" font-family="sans-serif" font-size="14" lengthAdjust="spacing" textLength="60" x="655" y="218.5967">password</text><rect fill="none" height="6" style="stroke:#C82930;stroke-width:1.0;" width="6" x="643" y="229.9209"/><text fill="#000000" font-family="sans-serif" font-size="14" lengthAdjust="spacing" textLength="31" x="655" y="237.2178">roles</text><line style="stroke:#181818;stroke-width:0.5;" x1="636" x2="752" y1="244.7314" y2="244.7314"/></g><!--class Employee--><g id="elem_Employee"><rect codeLine="57" fill="#F1F1F1" filter="url(#f1x0ou5ljyj4ss)" height="66.6211" id="Employee" rx="2.5" ry="2.5" style="stroke:#181818;stroke-width:0.5;" width="94" x="640" y="396.7627"/><ellipse cx="655" cy="412.7627" fill="#ADD1B2" rx="11" ry="11" style="stroke:#181818;stroke-width:1.0;"/><path d="M657.7656,408.6377 Q657.9219,408.4189 658.1094,408.3096 Q658.2969,408.2002 658.5156,408.2002 Q658.8906,408.2002 659.125,408.4658 Q659.3594,408.7158 659.3594,409.3252 L659.3594,410.7783 Q659.3594,411.3877 659.125,411.6533 Q658.8906,411.9189 658.5156,411.9189 Q658.1719,411.9189 657.9688,411.7158 Q657.7656,411.5283 657.6563,411.0127 Q657.6094,410.6533 657.4219,410.4658 Q657.0938,410.0908 656.4844,409.8721 Q655.875,409.6533 655.25,409.6533 Q654.4844,409.6533 653.8438,409.9814 Q653.2188,410.3096 652.7188,411.0596 Q652.2344,411.8096 652.2344,412.8408 L652.2344,413.9346 Q652.2344,415.1689 653.125,415.9971 Q654.0156,416.8096 655.6094,416.8096 Q656.5469,416.8096 657.2031,416.5596 Q657.5938,416.4033 658.0156,415.9658 Q658.2813,415.7002 658.4219,415.6221 Q658.5781,415.5439 658.7813,415.5439 Q659.1094,415.5439 659.3594,415.8096 Q659.625,416.0596 659.625,416.4033 Q659.625,416.7471 659.2813,417.1533 Q658.7813,417.7314 657.9844,418.0596 Q656.9063,418.5127 655.6094,418.5127 Q654.0938,418.5127 652.8906,417.8877 Q651.9063,417.3877 651.2188,416.3252 Q650.5313,415.2471 650.5313,413.9658 L650.5313,412.8096 Q650.5313,411.4814 651.1406,410.3408 Q651.7656,409.1846 652.8594,408.5752 Q653.9531,407.9502 655.1875,407.9502 Q655.9219,407.9502 656.5625,408.1221 Q657.2188,408.2783 657.7656,408.6377 Z " fill="#000000"/><text fill="#000000" font-family="sans-serif" font-size="14" lengthAdjust="spacing" textLength="62" x="669" y="418.5596">Employee</text><line style="stroke:#181818;stroke-width:0.5;" x1="641" x2="733" y1="428.7627" y2="428.7627"/><rect fill="none" height="6" style="stroke:#C82930;stroke-width:1.0;" width="6" x="648" y="440.5732"/><text fill="#000000" font-family="sans-serif" font-size="14" lengthAdjust="spacing" textLength="38" x="660" y="447.8701">salary</text><line style="stroke:#181818;stroke-width:0.5;" x1="641" x2="733" y1="455.3838" y2="455.3838"/></g><!--class roles--><g id="elem_roles"><rect codeLine="73" fill="#F1F1F1" filter="url(#f1x0ou5ljyj4ss)" height="48" id="roles" rx="2.5" ry="2.5" style="stroke:#181818;stroke-width:0.5;" width="63" x="541.5" y="406.2627"/><ellipse cx="556.5" cy="422.2627" fill="#EB937F" rx="11" ry="11" style="stroke:#181818;stroke-width:1.0;"/><path d="M555.3594,423.0596 L555.3594,425.5596 L559.6875,425.5596 L559.6875,424.6377 Q559.6875,424.0283 559.9219,423.7627 Q560.1719,423.4971 560.5469,423.4971 Q560.9219,423.4971 561.1563,423.7627 Q561.3906,424.0283 561.3906,424.6377 L561.3906,427.2627 L553.3906,427.2627 Q552.7656,427.2627 552.5,427.0283 Q552.25,426.7939 552.25,426.4033 Q552.25,426.0283 552.5156,425.7939 Q552.7813,425.5596 553.3906,425.5596 L553.6563,425.5596 L553.6563,418.9033 L553.3906,418.9033 Q552.7656,418.9033 552.5,418.6689 Q552.25,418.4346 552.25,418.0439 Q552.25,417.6689 552.5,417.4346 Q552.7656,417.2002 553.3906,417.2002 L561.0156,417.2002 L561.0156,419.7939 Q561.0156,420.4033 560.7813,420.6689 Q560.5625,420.9189 560.1719,420.9189 Q559.7969,420.9189 559.5625,420.6689 Q559.3281,420.4033 559.3281,419.7939 L559.3281,418.9033 L555.3594,418.9033 L555.3594,421.3564 L556.8438,421.3564 Q556.8438,420.7002 556.9688,420.5127 Q557.2344,420.1064 557.7031,420.1064 Q558.0781,420.1064 558.3125,420.3721 Q558.5469,420.6221 558.5469,421.2314 L558.5469,423.2002 Q558.5469,423.7471 558.4219,423.9346 Q558.1563,424.3252 557.7031,424.3252 Q557.2344,424.3252 556.9688,423.9189 Q556.8438,423.7314 556.8438,423.0596 L555.3594,423.0596 Z " fill="#000000"/><text fill="#000000" font-family="sans-serif" font-size="14" lengthAdjust="spacing" textLength="31" x="570.5" y="428.0596">roles</text><line style="stroke:#181818;stroke-width:0.5;" x1="542.5" x2="603.5" y1="438.2627" y2="438.2627"/><line style="stroke:#181818;stroke-width:0.5;" x1="542.5" x2="603.5" y1="446.2627" y2="446.2627"/></g><!--class Announcement--><g id="elem_Announcement"><rect codeLine="77" fill="#F1F1F1" filter="url(#f1x0ou5ljyj4ss)" height="103.8633" id="Announcement" rx="2.5" ry="2.5" style="stroke:#181818;stroke-width:0.5;" width="127" x="623.5" y="635.7627"/><ellipse cx="638.5" cy="651.7627" fill="#ADD1B2" rx="11" ry="11" style="stroke:#181818;stroke-width:1.0;"/><path d="M641.2656,647.6377 Q641.4219,647.4189 641.6094,647.3096 Q641.7969,647.2002 642.0156,647.2002 Q642.3906,647.2002 642.625,647.4658 Q642.8594,647.7158 642.8594,648.3252 L642.8594,649.7783 Q642.8594,650.3877 642.625,650.6533 Q642.3906,650.9189 642.0156,650.9189 Q641.6719,650.9189 641.4688,650.7158 Q641.2656,650.5283 641.1563,650.0127 Q641.1094,649.6533 640.9219,649.4658 Q640.5938,649.0908 639.9844,648.8721 Q639.375,648.6533 638.75,648.6533 Q637.9844,648.6533 637.3438,648.9814 Q636.7188,649.3096 636.2188,650.0596 Q635.7344,650.8096 635.7344,651.8408 L635.7344,652.9346 Q635.7344,654.1689 636.625,654.9971 Q637.5156,655.8096 639.1094,655.8096 Q640.0469,655.8096 640.7031,655.5596 Q641.0938,655.4033 641.5156,654.9658 Q641.7813,654.7002 641.9219,654.6221 Q642.0781,654.5439 642.2813,654.5439 Q642.6094,654.5439 642.8594,654.8096 Q643.125,655.0596 643.125,655.4033 Q643.125,655.7471 642.7813,656.1533 Q642.2813,656.7314 641.4844,657.0596 Q640.4063,657.5127 639.1094,657.5127 Q637.5938,657.5127 636.3906,656.8877 Q635.4063,656.3877 634.7188,655.3252 Q634.0313,654.2471 634.0313,652.9658 L634.0313,651.8096 Q634.0313,650.4814 634.6406,649.3408 Q635.2656,648.1846 636.3594,647.5752 Q637.4531,646.9502 638.6875,646.9502 Q639.4219,646.9502 640.0625,647.1221 Q640.7188,647.2783 641.2656,647.6377 Z " fill="#000000"/><text fill="#000000" font-family="sans-serif" font-size="14" lengthAdjust="spacing" textLength="95" x="652.5" y="657.5596">Announcement</text><line style="stroke:#181818;stroke-width:0.5;" x1="624.5" x2="749.5" y1="667.7627" y2="667.7627"/><rect fill="none" height="6" style="stroke:#C82930;stroke-width:1.0;" width="6" x="631.5" y="679.5732"/><text fill="#000000" font-family="sans-serif" font-size="14" lengthAdjust="spacing" textLength="54" x="643.5" y="686.8701">Property</text><rect fill="none" height="6" style="stroke:#C82930;stroke-width:1.0;" width="6" x="631.5" y="698.1943"/><text fill="#000000" font-family="sans-serif" font-size="14" lengthAdjust="spacing" textLength="73" x="643.5" y="705.4912">commission</text><rect fill="none" height="6" style="stroke:#C82930;stroke-width:1.0;" width="6" x="631.5" y="716.8154"/><text fill="#000000" font-family="sans-serif" font-size="14" lengthAdjust="spacing" textLength="62" x="643.5" y="724.1123">Employee</text><line style="stroke:#181818;stroke-width:0.5;" x1="624.5" x2="749.5" y1="731.626" y2="731.626"/></g><!--class OwnerRepository--><g id="elem_OwnerRepository"><rect codeLine="83" fill="#F1F1F1" filter="url(#f1x0ou5ljyj4ss)" height="48" id="OwnerRepository" rx="2.5" ry="2.5" style="stroke:#181818;stroke-width:0.5;" width="141" x="788.5" y="130.2627"/><ellipse cx="803.5" cy="146.2627" fill="#ADD1B2" rx="11" ry="11" style="stroke:#181818;stroke-width:1.0;"/><path d="M806.2656,142.1377 Q806.4219,141.9189 806.6094,141.8096 Q806.7969,141.7002 807.0156,141.7002 Q807.3906,141.7002 807.625,141.9658 Q807.8594,142.2158 807.8594,142.8252 L807.8594,144.2783 Q807.8594,144.8877 807.625,145.1533 Q807.3906,145.4189 807.0156,145.4189 Q806.6719,145.4189 806.4688,145.2158 Q806.2656,145.0283 806.1563,144.5127 Q806.1094,144.1533 805.9219,143.9658 Q805.5938,143.5908 804.9844,143.3721 Q804.375,143.1533 803.75,143.1533 Q802.9844,143.1533 802.3438,143.4814 Q801.7188,143.8096 801.2188,144.5596 Q800.7344,145.3096 800.7344,146.3408 L800.7344,147.4346 Q800.7344,148.6689 801.625,149.4971 Q802.5156,150.3096 804.1094,150.3096 Q805.0469,150.3096 805.7031,150.0596 Q806.0938,149.9033 806.5156,149.4658 Q806.7813,149.2002 806.9219,149.1221 Q807.0781,149.0439 807.2813,149.0439 Q807.6094,149.0439 807.8594,149.3096 Q808.125,149.5596 808.125,149.9033 Q808.125,150.2471 807.7813,150.6533 Q807.2813,151.2314 806.4844,151.5596 Q805.4063,152.0127 804.1094,152.0127 Q802.5938,152.0127 801.3906,151.3877 Q800.4063,150.8877 799.7188,149.8252 Q799.0313,148.7471 799.0313,147.4658 L799.0313,146.3096 Q799.0313,144.9814 799.6406,143.8408 Q800.2656,142.6846 801.3594,142.0752 Q802.4531,141.4502 803.6875,141.4502 Q804.4219,141.4502 805.0625,141.6221 Q805.7188,141.7783 806.2656,142.1377 Z " fill="#000000"/><text fill="#000000" font-family="sans-serif" font-size="14" lengthAdjust="spacing" textLength="109" x="817.5" y="152.0596">OwnerRepository</text><line style="stroke:#181818;stroke-width:0.5;" x1="789.5" x2="928.5" y1="162.2627" y2="162.2627"/><line style="stroke:#181818;stroke-width:0.5;" x1="789.5" x2="928.5" y1="170.2627" y2="170.2627"/></g><!--reverse link user to Owner--><g id="link_user_Owner"><path d="M741.61,271.7427 C762.22,322.1627 784.39,376.3827 796.59,406.2327 " fill="none" id="user-backto-Owner" style="stroke:#181818;stroke-width:1.0;"/><polygon fill="none" points="735.05,274.1827,733.96,253.0227,748.01,268.8827,735.05,274.1827" style="stroke:#181818;stroke-width:1.0;"/></g><!--reverse link user to Employee--><g id="link_user_Employee"><path d="M690.99,273.0827 C689.84,318.0627 688.62,365.8527 687.84,396.5427 " fill="none" id="user-backto-Employee" style="stroke:#181818;stroke-width:1.0;"/><polygon fill="none" points="683.99,272.8327,691.5,253.0227,697.99,273.1927,683.99,272.8327" style="stroke:#181818;stroke-width:1.0;"/></g><!--link CreateAnnouncementUI to CreateAnnouncementController--><g id="link_CreateAnnouncementUI_CreateAnnouncementController"><path codeLine="87" d="M189.07,154.2627 C198.96,154.2627 208.85,154.2627 218.73,154.2627 " fill="none" id="CreateAnnouncementUI-to-CreateAnnouncementController" style="stroke:#181818;stroke-width:1.0;stroke-dasharray:7.0,7.0;"/><polygon fill="#181818" points="223.9,154.2627,214.9,150.2627,218.9,154.2627,214.9,158.2627,223.9,154.2627" style="stroke:#181818;stroke-width:1.0;"/></g><!--link CreateAnnouncementController to Repositories--><g id="link_CreateAnnouncementController_Repositories"><path codeLine="88" d="M471.77,120.6027 C511.79,99.3127 566.25,72.7127 617,55.7627 C701.81,27.4427 727.52,20.9827 816.5,29.7627 C875.35,35.5727 893.65,30.2427 947,55.7627 C969.49,66.5227 991.29,82.5427 1009.89,98.5627 " fill="none" id="CreateAnnouncementController-to-Repositories" style="stroke:#181818;stroke-width:1.0;stroke-dasharray:7.0,7.0;"/><polygon fill="#181818" points="1014.06,102.1927,1009.9184,93.257,1010.2962,98.9012,1004.652,99.279,1014.06,102.1927" style="stroke:#181818;stroke-width:1.0;"/><text fill="#000000" font-family="sans-serif" font-size="13" lengthAdjust="spacing" textLength="67" x="748.5" y="21.791">repositories</text></g><!--link Repositories to PropertyRepository--><g id="link_Repositories_PropertyRepository"><path codeLine="89" d="M1164.54,206.4227 C1223.57,238.8127 1298.44,283.5727 1359,331.7627 C1385.56,352.9027 1412.06,381.2027 1430.12,401.8727 " fill="none" id="Repositories-to-PropertyRepository" style="stroke:#181818;stroke-width:1.0;"/><polygon fill="#181818" points="1433.62,405.9027,1430.724,396.4892,1430.3356,402.1327,1424.6921,401.7443,1433.62,405.9027" style="stroke:#181818;stroke-width:1.0;"/><polygon fill="#000000" points="1323.027,295.3718,1317.4841,287.6436,1314.0001,292.3776,1323.027,295.3718" style="stroke:#000000;stroke-width:1.0;"/><text fill="#000000" font-family="sans-serif" font-size="13" lengthAdjust="spacing" textLength="21" x="1328" y="297.791">has</text><text fill="#000000" font-family="sans-serif" font-size="13" lengthAdjust="spacing" textLength="7" x="1169.8451" y="228.2505">1</text><text fill="#000000" font-family="sans-serif" font-size="13" lengthAdjust="spacing" textLength="5" x="1423.2867" y="394.9569">*</text></g><!--link PropertyRepository to Property--><g id="link_PropertyRepository_Property"><path codeLine="90" d="M1433.56,454.5527 C1415.5,475.3927 1387.21,506.0627 1359,528.7627 C1298.86,577.1427 1222.81,622.1727 1169.08,651.6827 " fill="none" id="PropertyRepository-to-Property" style="stroke:#181818;stroke-width:1.0;"/><polygon fill="#181818" points="1164.6,654.1327,1174.4154,653.3212,1168.9862,651.7324,1170.5749,646.3033,1164.6,654.1327" style="stroke:#181818;stroke-width:1.0;"/><polygon fill="#000000" points="1312.9911,571.3963,1321.9996,568.3472,1318.487,563.6344,1312.9911,571.3963" style="stroke:#000000;stroke-width:1.0;"/><text fill="#000000" font-family="sans-serif" font-size="13" lengthAdjust="spacing" textLength="21" x="1326" y="573.791">has</text><text fill="#000000" font-family="sans-serif" font-size="13" lengthAdjust="spacing" textLength="7" x="1421.2551" y="476.1974">1</text><text fill="#000000" font-family="sans-serif" font-size="13" lengthAdjust="spacing" textLength="5" x="1172.5341" y="646.0608">*</text></g><!--link House to Property--><g id="link_House_Property"><path codeLine="91" d="M1196.5,528.9527 C1184.5,549.0027 1171.86,570.0927 1159.88,590.1027 " fill="none" id="House-to-Property" style="stroke:#181818;stroke-width:1.0;"/><polygon fill="none" points="1165.83,593.7927,1149.55,607.3627,1153.82,586.6027,1165.83,593.7927" style="stroke:#181818;stroke-width:1.0;"/><text fill="#000000" font-family="sans-serif" font-size="13" lengthAdjust="spacing" textLength="10" x="1179" y="573.791">is</text></g><!--link Apartment to Property--><g id="link_Apartment_Property"><path codeLine="92" d="M995.9,501.0827 C1011.56,528.4927 1029.81,560.4227 1046.7,589.9927 " fill="none" id="Apartment-to-Property" style="stroke:#181818;stroke-width:1.0;"/><polygon fill="none" points="1052.9,586.7227,1056.74,607.5627,1040.74,593.6727,1052.9,586.7227" style="stroke:#181818;stroke-width:1.0;"/><text fill="#000000" font-family="sans-serif" font-size="13" lengthAdjust="spacing" textLength="10" x="1038" y="573.791">is</text></g><!--link Land to Property--><g id="link_Land_Property"><path codeLine="93" d="M1102,463.8827 C1102,495.0727 1102,543.7327 1102,587.6327 " fill="none" id="Land-to-Property" style="stroke:#181818;stroke-width:1.0;"/><polygon fill="none" points="1109,587.7127,1102,607.7127,1095,587.7127,1109,587.7127" style="stroke:#181818;stroke-width:1.0;"/><text fill="#000000" font-family="sans-serif" font-size="13" lengthAdjust="spacing" textLength="10" x="1103" y="573.791">is</text></g><!--link Owner to Property--><g id="link_Owner_Property"><path codeLine="94" d="M815.05,454.5627 C824.09,475.6927 839.58,506.8027 860,528.7627 C911.59,584.2427 986.52,629.2427 1039.3,656.8327 " fill="none" id="Owner-Property" style="stroke:#181818;stroke-width:1.0;"/><text fill="#000000" font-family="sans-serif" font-size="13" lengthAdjust="spacing" textLength="30" x="913" y="573.791">owns</text><text fill="#000000" font-family="sans-serif" font-size="13" lengthAdjust="spacing" textLength="7" x="809.3334" y="476.2097">1</text><text fill="#000000" font-family="sans-serif" font-size="13" lengthAdjust="spacing" textLength="16" x="1015.5672" y="649.5792">0.*</text></g><!--link user to roles--><g id="link_user_roles"><path codeLine="95" d="M650.83,253.0227 C626.46,308.1927 598,372.6427 583.17,406.2327 " fill="none" id="user-roles" style="stroke:#181818;stroke-width:1.0;"/><polygon fill="#000000" points="640.9801,296.982,647.3226,289.8951,641.9457,287.5206,640.9801,296.982" style="stroke:#000000;stroke-width:1.0;"/><text fill="#000000" font-family="sans-serif" font-size="13" lengthAdjust="spacing" textLength="21" x="652" y="297.791">has</text><text fill="#000000" font-family="sans-serif" font-size="13" lengthAdjust="spacing" textLength="7" x="640.5485" y="274.6041">1</text><text fill="#000000" font-family="sans-serif" font-size="13" lengthAdjust="spacing" textLength="20" x="563.2136" y="394.9625">1..*</text></g><!--link Employee to Announcement--><g id="link_Employee_Announcement"><path codeLine="96" d="M686.13,463.8427 C685.44,493.5327 684.64,538.5927 685,577.7627 C685.17,596.6927 685.52,617.4627 685.87,635.7527 " fill="none" id="Employee-Announcement" style="stroke:#181818;stroke-width:1.0;"/><polygon fill="#000000" points="689.9924,573.4082,692.945,564.3676,687.0672,564.3587,689.9924,573.4082" style="stroke:#000000;stroke-width:1.0;"/><text fill="#000000" font-family="sans-serif" font-size="13" lengthAdjust="spacing" textLength="41" x="699" y="573.791">publish</text><text fill="#000000" font-family="sans-serif" font-size="13" lengthAdjust="spacing" textLength="7" x="678.3516" y="485.4262">1</text><text fill="#000000" font-family="sans-serif" font-size="13" lengthAdjust="spacing" textLength="20" x="664.3744" y="624.6787">1..*</text></g><!--link CreateAnnouncementController to Announcement--><g id="link_CreateAnnouncementController_Announcement"><path codeLine="97" d="M404.74,187.8427 C391.3,256.4627 369.54,418.5927 435,528.7627 C475.67,597.2027 558.74,640.5127 618.4,664.1327 " fill="none" id="CreateAnnouncementController-to-Announcement" style="stroke:#181818;stroke-width:1.0;stroke-dasharray:7.0,7.0;"/><polygon fill="#181818" points="623.38,666.0827,616.4645,659.0701,618.7259,664.2553,613.5407,666.5167,623.38,666.0827" style="stroke:#181818;stroke-width:1.0;"/><text fill="#000000" font-family="sans-serif" font-size="13" lengthAdjust="spacing" textLength="87" x="436" y="435.791">Announcement</text><text fill="#000000" font-family="sans-serif" font-size="13" lengthAdjust="spacing" textLength="7" x="608.6193" y="659.6462">1</text></g><!--link OwnerRepository to Owner--><g id="link_OwnerRepository_Owner"><path codeLine="98" d="M854.48,178.6227 C844.78,228.7727 821.99,346.5827 811.49,400.9027 " fill="none" id="OwnerRepository-to-Owner" style="stroke:#181818;stroke-width:1.0;"/><polygon fill="#181818" points="810.51,405.9627,816.1342,397.8776,811.4521,401.0523,808.2775,396.3702,810.51,405.9627" style="stroke:#181818;stroke-width:1.0;"/><polygon fill="#000000" points="839.0506,297.3172,843.6536,288.9948,837.8826,287.8787,839.0506,297.3172" style="stroke:#000000;stroke-width:1.0;"/><text fill="#000000" font-family="sans-serif" font-size="13" lengthAdjust="spacing" textLength="21" x="849" y="297.791">has</text><text fill="#000000" font-family="sans-serif" font-size="13" lengthAdjust="spacing" textLength="7" x="845.6254" y="200.2835">1</text><text fill="#000000" font-family="sans-serif" font-size="13" lengthAdjust="spacing" textLength="5" x="805.9999" y="395.0315">*</text></g><!--link Owner to Announcement--><g id="link_Owner_Announcement"><path codeLine="99" d="M797.15,454.3927 C785.83,483.5227 765.26,534.9227 745,577.7627 C736.71,595.3027 727.03,614.0527 717.98,630.9827 " fill="none" id="Owner-to-Announcement" style="stroke:#181818;stroke-width:1.0;"/><polygon fill="#181818" points="715.45,635.7027,723.2259,629.6583,717.8111,631.2953,716.1741,625.8805,715.45,635.7027" style="stroke:#181818;stroke-width:1.0;"/><polygon fill="#000000" points="755.9545,572.9707,762.3366,565.9194,756.9731,563.5148,755.9545,572.9707" style="stroke:#000000;stroke-width:1.0;"/><text fill="#000000" font-family="sans-serif" font-size="13" lengthAdjust="spacing" textLength="43" x="767" y="573.791">request</text><text fill="#000000" font-family="sans-serif" font-size="13" lengthAdjust="spacing" textLength="7" x="787.1397" y="476.41">1</text><text fill="#000000" font-family="sans-serif" font-size="13" lengthAdjust="spacing" textLength="16" x="702.198" y="624.622">0.*</text></g><!--SRC=[lLHDRzim3BtxLn0-9LiJj3lc420jkYt0W0xDzWCKcqc4og8hoKkphFzzz8TisJ5oh4yM7ocIxptRlaYT2oCoo4XJSZ2K8Uo4iXZP5if5yYBsk74dXM0mSKBlLPXW3oAbezHxSAR0o54EZc1Bpb46gInB9Eaeg4YKi7Rbd97Rmk4w8RsHVn7YBt4KLHXyfyBYEG9-Pg2BR8lcQVTCbDb1x5uu7lio_bKHcM7m6tVVeuy-lXOo5nbgvoFtmc9vNl3qf53e9YxrGMobmnH0qUu2tXGQy2qdMnZiiFTcbHNlxCfRFt2TjlaFeLFVLnWK38YjTKOahbO1VXhAqRWJjEFn7SthBvcJBqvJWzRtIj4cHkQbhZxq1tMAPj5dnlI3xrxUPsIsf2CZqRQDm-1aMWK_mnxTMblsN8AJAInwILsANw95Jtn1Iy83B-vmfJKLV4t9qE_rkHlc4duWxGmfXURSz4WkSYQ-vmqab6NIMYRZ1XwpND49STfslvpj77NDduuQ3Rl7CLCMsFGccCnVDi0hkgnGmfowt00A9HnHoectnaAZsc8cf1h4yWDfx1VbtFH89lLAiyALxoBajFeOxXbIrupfYQbF7OdrsUy-e6h8ufYsC5zU5JMw1fR5FNiksCM1vtfOV1V3RBQ4-5CyeZEN7eI5PJG2ZLMs-TNVZpcO_Lj2Xp8iRTJ-JYxm2Yu_-76aTXhtdStYstdGTW5qP7EK1chWktc9LngsCxLU35D22ZapBxPAsWDdNsUOAIxt7rI7nsWWTe-lUXC_MBjNZT-Ep6NmjK3hEFa_]--></g></svg>