<?xml version="1.0" encoding="us-ascii" standalone="no"?><svg xmlns="http://www.w3.org/2000/svg" xmlns:xlink="http://www.w3.org/1999/xlink" contentStyleType="text/css" height="852px" preserveAspectRatio="none" style="width:1051px;height:852px;background:#FFFFFF;" version="1.1" viewBox="0 0 1051 852" width="1051px" zoomAndPan="magnify"><defs/><g><!--class Repositories--><g id="elem_Repositories"><rect codeLine="9" fill="#F1F1F1" height="103.8633" id="Repositories" rx="2.5" ry="2.5" style="stroke:#181818;stroke-width:0.5;" width="200" x="844.5" y="44"/><ellipse cx="900.75" cy="60" fill="#ADD1B2" rx="11" ry="11" style="stroke:#181818;stroke-width:1.0;"/><path d="M903.5156,55.875 Q903.6719,55.6563 903.8594,55.5469 Q904.0469,55.4375 904.2656,55.4375 Q904.6406,55.4375 904.875,55.7031 Q905.1094,55.9531 905.1094,56.5625 L905.1094,58.0156 Q905.1094,58.625 904.875,58.8906 Q904.6406,59.1563 904.2656,59.1563 Q903.9219,59.1563 903.7188,58.9531 Q903.5156,58.7656 903.4063,58.25 Q903.3594,57.8906 903.1719,57.7031 Q902.8438,57.3281 902.2344,57.1094 Q901.625,56.8906 901,56.8906 Q900.2344,56.8906 899.5938,57.2188 Q898.9688,57.5469 898.4688,58.2969 Q897.9844,59.0469 897.9844,60.0781 L897.9844,61.1719 Q897.9844,62.4063 898.875,63.2344 Q899.7656,64.0469 901.3594,64.0469 Q902.2969,64.0469 902.9531,63.7969 Q903.3438,63.6406 903.7656,63.2031 Q904.0313,62.9375 904.1719,62.8594 Q904.3281,62.7813 904.5313,62.7813 Q904.8594,62.7813 905.1094,63.0469 Q905.375,63.2969 905.375,63.6406 Q905.375,63.9844 905.0313,64.3906 Q904.5313,64.9688 903.7344,65.2969 Q902.6563,65.75 901.3594,65.75 Q899.8438,65.75 898.6406,65.125 Q897.6563,64.625 896.9688,63.5625 Q896.2813,62.4844 896.2813,61.2031 L896.2813,60.0469 Q896.2813,58.7188 896.8906,57.5781 Q897.5156,56.4219 898.6094,55.8125 Q899.7031,55.1875 900.9375,55.1875 Q901.6719,55.1875 902.3125,55.3594 Q902.9688,55.5156 903.5156,55.875 Z " fill="#000000"/><text fill="#000000" font-family="sans-serif" font-size="14" lengthAdjust="spacing" textLength="79" x="921.25" y="65.7969">Repositories</text><line style="stroke:#181818;stroke-width:0.5;" x1="845.5" x2="1043.5" y1="76" y2="76"/><line style="stroke:#181818;stroke-width:0.5;" x1="845.5" x2="1043.5" y1="84" y2="84"/><rect fill="#F24D5C" height="6" style="stroke:#C82930;stroke-width:1.0;" width="6" x="852.5" y="95.8105"/><text fill="#000000" font-family="sans-serif" font-size="14" lengthAdjust="spacing" textLength="89" x="864.5" y="103.1074">Repositories()</text><ellipse cx="855.5" cy="117.4316" fill="#84BE84" rx="3" ry="3" style="stroke:#038048;stroke-width:1.0;"/><text fill="#000000" font-family="sans-serif" font-size="14" lengthAdjust="spacing" textLength="174" x="864.5" y="121.7285">getInstance() : Repositories</text><ellipse cx="855.5" cy="136.0527" fill="#84BE84" rx="3" ry="3" style="stroke:#038048;stroke-width:1.0;"/><text fill="#000000" font-family="sans-serif" font-size="14" lengthAdjust="spacing" textLength="132" x="864.5" y="140.3496">getStoreRepository()</text></g><!--class StoreRepository--><g id="elem_StoreRepository"><rect codeLine="14" fill="#F1F1F1" height="48" id="StoreRepository" rx="2.5" ry="2.5" style="stroke:#181818;stroke-width:0.5;" width="134" x="748.5" y="338.5"/><ellipse cx="763.5" cy="354.5" fill="#ADD1B2" rx="11" ry="11" style="stroke:#181818;stroke-width:1.0;"/><path d="M766.2656,350.375 Q766.4219,350.1563 766.6094,350.0469 Q766.7969,349.9375 767.0156,349.9375 Q767.3906,349.9375 767.625,350.2031 Q767.8594,350.4531 767.8594,351.0625 L767.8594,352.5156 Q767.8594,353.125 767.625,353.3906 Q767.3906,353.6563 767.0156,353.6563 Q766.6719,353.6563 766.4688,353.4531 Q766.2656,353.2656 766.1563,352.75 Q766.1094,352.3906 765.9219,352.2031 Q765.5938,351.8281 764.9844,351.6094 Q764.375,351.3906 763.75,351.3906 Q762.9844,351.3906 762.3438,351.7188 Q761.7188,352.0469 761.2188,352.7969 Q760.7344,353.5469 760.7344,354.5781 L760.7344,355.6719 Q760.7344,356.9063 761.625,357.7344 Q762.5156,358.5469 764.1094,358.5469 Q765.0469,358.5469 765.7031,358.2969 Q766.0938,358.1406 766.5156,357.7031 Q766.7813,357.4375 766.9219,357.3594 Q767.0781,357.2813 767.2813,357.2813 Q767.6094,357.2813 767.8594,357.5469 Q768.125,357.7969 768.125,358.1406 Q768.125,358.4844 767.7813,358.8906 Q767.2813,359.4688 766.4844,359.7969 Q765.4063,360.25 764.1094,360.25 Q762.5938,360.25 761.3906,359.625 Q760.4063,359.125 759.7188,358.0625 Q759.0313,356.9844 759.0313,355.7031 L759.0313,354.5469 Q759.0313,353.2188 759.6406,352.0781 Q760.2656,350.9219 761.3594,350.3125 Q762.4531,349.6875 763.6875,349.6875 Q764.4219,349.6875 765.0625,349.8594 Q765.7188,350.0156 766.2656,350.375 Z " fill="#000000"/><text fill="#000000" font-family="sans-serif" font-size="14" lengthAdjust="spacing" textLength="102" x="777.5" y="360.2969">StoreRepository</text><line style="stroke:#181818;stroke-width:0.5;" x1="749.5" x2="881.5" y1="370.5" y2="370.5"/><line style="stroke:#181818;stroke-width:0.5;" x1="749.5" x2="881.5" y1="378.5" y2="378.5"/></g><!--class CreateEmployeeUI--><g id="elem_CreateEmployeeUI"><rect codeLine="19" fill="#F1F1F1" height="48" id="CreateEmployeeUI" rx="2.5" ry="2.5" style="stroke:#181818;stroke-width:0.5;" width="149" x="180" y="72"/><ellipse cx="195" cy="88" fill="#ADD1B2" rx="11" ry="11" style="stroke:#181818;stroke-width:1.0;"/><path d="M197.7656,83.875 Q197.9219,83.6563 198.1094,83.5469 Q198.2969,83.4375 198.5156,83.4375 Q198.8906,83.4375 199.125,83.7031 Q199.3594,83.9531 199.3594,84.5625 L199.3594,86.0156 Q199.3594,86.625 199.125,86.8906 Q198.8906,87.1563 198.5156,87.1563 Q198.1719,87.1563 197.9688,86.9531 Q197.7656,86.7656 197.6563,86.25 Q197.6094,85.8906 197.4219,85.7031 Q197.0938,85.3281 196.4844,85.1094 Q195.875,84.8906 195.25,84.8906 Q194.4844,84.8906 193.8438,85.2188 Q193.2188,85.5469 192.7188,86.2969 Q192.2344,87.0469 192.2344,88.0781 L192.2344,89.1719 Q192.2344,90.4063 193.125,91.2344 Q194.0156,92.0469 195.6094,92.0469 Q196.5469,92.0469 197.2031,91.7969 Q197.5938,91.6406 198.0156,91.2031 Q198.2813,90.9375 198.4219,90.8594 Q198.5781,90.7813 198.7813,90.7813 Q199.1094,90.7813 199.3594,91.0469 Q199.625,91.2969 199.625,91.6406 Q199.625,91.9844 199.2813,92.3906 Q198.7813,92.9688 197.9844,93.2969 Q196.9063,93.75 195.6094,93.75 Q194.0938,93.75 192.8906,93.125 Q191.9063,92.625 191.2188,91.5625 Q190.5313,90.4844 190.5313,89.2031 L190.5313,88.0469 Q190.5313,86.7188 191.1406,85.5781 Q191.7656,84.4219 192.8594,83.8125 Q193.9531,83.1875 195.1875,83.1875 Q195.9219,83.1875 196.5625,83.3594 Q197.2188,83.5156 197.7656,83.875 Z " fill="#000000"/><text fill="#000000" font-family="sans-serif" font-size="14" lengthAdjust="spacing" textLength="117" x="209" y="93.7969">CreateEmployeeUI</text><line style="stroke:#181818;stroke-width:0.5;" x1="181" x2="328" y1="104" y2="104"/><line style="stroke:#181818;stroke-width:0.5;" x1="181" x2="328" y1="112" y2="112"/></g><!--class CreateEmployeeController--><g id="elem_CreateEmployeeController"><rect codeLine="22" fill="#F1F1F1" height="103.8633" id="CreateEmployeeController" rx="2.5" ry="2.5" style="stroke:#181818;stroke-width:0.5;" width="377" x="364" y="44"/><ellipse cx="464.75" cy="60" fill="#ADD1B2" rx="11" ry="11" style="stroke:#181818;stroke-width:1.0;"/><path d="M467.5156,55.875 Q467.6719,55.6563 467.8594,55.5469 Q468.0469,55.4375 468.2656,55.4375 Q468.6406,55.4375 468.875,55.7031 Q469.1094,55.9531 469.1094,56.5625 L469.1094,58.0156 Q469.1094,58.625 468.875,58.8906 Q468.6406,59.1563 468.2656,59.1563 Q467.9219,59.1563 467.7188,58.9531 Q467.5156,58.7656 467.4063,58.25 Q467.3594,57.8906 467.1719,57.7031 Q466.8438,57.3281 466.2344,57.1094 Q465.625,56.8906 465,56.8906 Q464.2344,56.8906 463.5938,57.2188 Q462.9688,57.5469 462.4688,58.2969 Q461.9844,59.0469 461.9844,60.0781 L461.9844,61.1719 Q461.9844,62.4063 462.875,63.2344 Q463.7656,64.0469 465.3594,64.0469 Q466.2969,64.0469 466.9531,63.7969 Q467.3438,63.6406 467.7656,63.2031 Q468.0313,62.9375 468.1719,62.8594 Q468.3281,62.7813 468.5313,62.7813 Q468.8594,62.7813 469.1094,63.0469 Q469.375,63.2969 469.375,63.6406 Q469.375,63.9844 469.0313,64.3906 Q468.5313,64.9688 467.7344,65.2969 Q466.6563,65.75 465.3594,65.75 Q463.8438,65.75 462.6406,65.125 Q461.6563,64.625 460.9688,63.5625 Q460.2813,62.4844 460.2813,61.2031 L460.2813,60.0469 Q460.2813,58.7188 460.8906,57.5781 Q461.5156,56.4219 462.6094,55.8125 Q463.7031,55.1875 464.9375,55.1875 Q465.6719,55.1875 466.3125,55.3594 Q466.9688,55.5156 467.5156,55.875 Z " fill="#000000"/><text fill="#000000" font-family="sans-serif" font-size="14" lengthAdjust="spacing" textLength="167" x="485.25" y="65.7969">CreateEmployeeController</text><line style="stroke:#181818;stroke-width:0.5;" x1="365" x2="740" y1="76" y2="76"/><line style="stroke:#181818;stroke-width:0.5;" x1="365" x2="740" y1="84" y2="84"/><ellipse cx="375" cy="98.8105" fill="#84BE84" rx="3" ry="3" style="stroke:#038048;stroke-width:1.0;"/><text fill="#000000" font-family="sans-serif" font-size="14" lengthAdjust="spacing" textLength="279" x="384" y="103.1074">CreateEmployeeController(StoreRepository)</text><ellipse cx="375" cy="126.7422" fill="#84BE84" rx="3" ry="3" style="stroke:#038048;stroke-width:1.0;"/><text fill="#000000" font-family="sans-serif" font-size="14" lengthAdjust="spacing" textLength="351" x="384" y="121.7285">createEmployee(name,descriptions,tax number,address</text><text fill="#000000" font-family="sans-serif" font-size="14" lengthAdjust="spacing" textLength="328" x="384" y="140.3496">,email address,phone number,password,store,roles)</text></g><!--class user--><g id="elem_user"><rect codeLine="27" fill="#F1F1F1" height="196.9688" id="user" rx="2.5" ry="2.5" style="stroke:#181818;stroke-width:0.5;" width="118" x="83.5" y="264"/><ellipse cx="124.6" cy="280" fill="#ADD1B2" rx="11" ry="11" style="stroke:#181818;stroke-width:1.0;"/><path d="M127.3656,275.875 Q127.5219,275.6563 127.7094,275.5469 Q127.8969,275.4375 128.1156,275.4375 Q128.4906,275.4375 128.725,275.7031 Q128.9594,275.9531 128.9594,276.5625 L128.9594,278.0156 Q128.9594,278.625 128.725,278.8906 Q128.4906,279.1563 128.1156,279.1563 Q127.7719,279.1563 127.5688,278.9531 Q127.3656,278.7656 127.2563,278.25 Q127.2094,277.8906 127.0219,277.7031 Q126.6938,277.3281 126.0844,277.1094 Q125.475,276.8906 124.85,276.8906 Q124.0844,276.8906 123.4438,277.2188 Q122.8188,277.5469 122.3188,278.2969 Q121.8344,279.0469 121.8344,280.0781 L121.8344,281.1719 Q121.8344,282.4063 122.725,283.2344 Q123.6156,284.0469 125.2094,284.0469 Q126.1469,284.0469 126.8031,283.7969 Q127.1938,283.6406 127.6156,283.2031 Q127.8813,282.9375 128.0219,282.8594 Q128.1781,282.7813 128.3813,282.7813 Q128.7094,282.7813 128.9594,283.0469 Q129.225,283.2969 129.225,283.6406 Q129.225,283.9844 128.8813,284.3906 Q128.3813,284.9688 127.5844,285.2969 Q126.5063,285.75 125.2094,285.75 Q123.6938,285.75 122.4906,285.125 Q121.5063,284.625 120.8188,283.5625 Q120.1313,282.4844 120.1313,281.2031 L120.1313,280.0469 Q120.1313,278.7188 120.7406,277.5781 Q121.3656,276.4219 122.4594,275.8125 Q123.5531,275.1875 124.7875,275.1875 Q125.5219,275.1875 126.1625,275.3594 Q126.8188,275.5156 127.3656,275.875 Z " fill="#000000"/><text fill="#000000" font-family="sans-serif" font-size="14" lengthAdjust="spacing" textLength="28" x="144.4" y="285.7969">user</text><line style="stroke:#181818;stroke-width:0.5;" x1="84.5" x2="200.5" y1="296" y2="296"/><rect fill="none" height="6" style="stroke:#C82930;stroke-width:1.0;" width="6" x="91.5" y="307.8105"/><text fill="#000000" font-family="sans-serif" font-size="14" lengthAdjust="spacing" textLength="35" x="103.5" y="315.1074">name</text><rect fill="none" height="6" style="stroke:#C82930;stroke-width:1.0;" width="6" x="91.5" y="326.4316"/><text fill="#000000" font-family="sans-serif" font-size="14" lengthAdjust="spacing" textLength="76" x="103.5" y="333.7285">descriptions</text><rect fill="none" height="6" style="stroke:#C82930;stroke-width:1.0;" width="6" x="91.5" y="345.0527"/><text fill="#000000" font-family="sans-serif" font-size="14" lengthAdjust="spacing" textLength="70" x="103.5" y="352.3496">tax number</text><rect fill="none" height="6" style="stroke:#C82930;stroke-width:1.0;" width="6" x="91.5" y="363.6738"/><text fill="#000000" font-family="sans-serif" font-size="14" lengthAdjust="spacing" textLength="51" x="103.5" y="370.9707">address</text><rect fill="none" height="6" style="stroke:#C82930;stroke-width:1.0;" width="6" x="91.5" y="382.2949"/><text fill="#000000" font-family="sans-serif" font-size="14" lengthAdjust="spacing" textLength="88" x="103.5" y="389.5918">email address</text><rect fill="none" height="6" style="stroke:#C82930;stroke-width:1.0;" width="6" x="91.5" y="400.916"/><text fill="#000000" font-family="sans-serif" font-size="14" lengthAdjust="spacing" textLength="92" x="103.5" y="408.2129">phone number</text><rect fill="none" height="6" style="stroke:#C82930;stroke-width:1.0;" width="6" x="91.5" y="419.5371"/><text fill="#000000" font-family="sans-serif" font-size="14" lengthAdjust="spacing" textLength="60" x="103.5" y="426.834">password</text><rect fill="none" height="6" style="stroke:#C82930;stroke-width:1.0;" width="6" x="91.5" y="438.1582"/><text fill="#000000" font-family="sans-serif" font-size="14" lengthAdjust="spacing" textLength="31" x="103.5" y="445.4551">roles</text><line style="stroke:#181818;stroke-width:0.5;" x1="84.5" x2="200.5" y1="452.9688" y2="452.9688"/></g><!--class roles--><g id="elem_roles"><rect codeLine="38" fill="#F1F1F1" height="48" id="roles" rx="2.5" ry="2.5" style="stroke:#181818;stroke-width:0.5;" width="63" x="157" y="596"/><ellipse cx="172" cy="612" fill="#EB937F" rx="11" ry="11" style="stroke:#181818;stroke-width:1.0;"/><path d="M170.8594,612.7969 L170.8594,615.2969 L175.1875,615.2969 L175.1875,614.375 Q175.1875,613.7656 175.4219,613.5 Q175.6719,613.2344 176.0469,613.2344 Q176.4219,613.2344 176.6563,613.5 Q176.8906,613.7656 176.8906,614.375 L176.8906,617 L168.8906,617 Q168.2656,617 168,616.7656 Q167.75,616.5313 167.75,616.1406 Q167.75,615.7656 168.0156,615.5313 Q168.2813,615.2969 168.8906,615.2969 L169.1563,615.2969 L169.1563,608.6406 L168.8906,608.6406 Q168.2656,608.6406 168,608.4063 Q167.75,608.1719 167.75,607.7813 Q167.75,607.4063 168,607.1719 Q168.2656,606.9375 168.8906,606.9375 L176.5156,606.9375 L176.5156,609.5313 Q176.5156,610.1406 176.2813,610.4063 Q176.0625,610.6563 175.6719,610.6563 Q175.2969,610.6563 175.0625,610.4063 Q174.8281,610.1406 174.8281,609.5313 L174.8281,608.6406 L170.8594,608.6406 L170.8594,611.0938 L172.3438,611.0938 Q172.3438,610.4375 172.4688,610.25 Q172.7344,609.8438 173.2031,609.8438 Q173.5781,609.8438 173.8125,610.1094 Q174.0469,610.3594 174.0469,610.9688 L174.0469,612.9375 Q174.0469,613.4844 173.9219,613.6719 Q173.6563,614.0625 173.2031,614.0625 Q172.7344,614.0625 172.4688,613.6563 Q172.3438,613.4688 172.3438,612.7969 L170.8594,612.7969 Z " fill="#000000"/><text fill="#000000" font-family="sans-serif" font-size="14" lengthAdjust="spacing" textLength="31" x="186" y="617.7969">roles</text><line style="stroke:#181818;stroke-width:0.5;" x1="158" x2="219" y1="628" y2="628"/><line style="stroke:#181818;stroke-width:0.5;" x1="158" x2="219" y1="636" y2="636"/></g><!--class RealEstate--><g id="elem_RealEstate"><rect codeLine="41" fill="#F1F1F1" height="178.3477" id="RealEstate" rx="2.5" ry="2.5" style="stroke:#181818;stroke-width:0.5;" width="115" x="30" y="7"/><ellipse cx="51.3" cy="23" fill="#ADD1B2" rx="11" ry="11" style="stroke:#181818;stroke-width:1.0;"/><path d="M54.0656,18.875 Q54.2219,18.6563 54.4094,18.5469 Q54.5969,18.4375 54.8156,18.4375 Q55.1906,18.4375 55.425,18.7031 Q55.6594,18.9531 55.6594,19.5625 L55.6594,21.0156 Q55.6594,21.625 55.425,21.8906 Q55.1906,22.1563 54.8156,22.1563 Q54.4719,22.1563 54.2688,21.9531 Q54.0656,21.7656 53.9563,21.25 Q53.9094,20.8906 53.7219,20.7031 Q53.3938,20.3281 52.7844,20.1094 Q52.175,19.8906 51.55,19.8906 Q50.7844,19.8906 50.1438,20.2188 Q49.5188,20.5469 49.0188,21.2969 Q48.5344,22.0469 48.5344,23.0781 L48.5344,24.1719 Q48.5344,25.4063 49.425,26.2344 Q50.3156,27.0469 51.9094,27.0469 Q52.8469,27.0469 53.5031,26.7969 Q53.8938,26.6406 54.3156,26.2031 Q54.5813,25.9375 54.7219,25.8594 Q54.8781,25.7813 55.0813,25.7813 Q55.4094,25.7813 55.6594,26.0469 Q55.925,26.2969 55.925,26.6406 Q55.925,26.9844 55.5813,27.3906 Q55.0813,27.9688 54.2844,28.2969 Q53.2063,28.75 51.9094,28.75 Q50.3938,28.75 49.1906,28.125 Q48.2063,27.625 47.5188,26.5625 Q46.8313,25.4844 46.8313,24.2031 L46.8313,23.0469 Q46.8313,21.7188 47.4406,20.5781 Q48.0656,19.4219 49.1594,18.8125 Q50.2531,18.1875 51.4875,18.1875 Q52.2219,18.1875 52.8625,18.3594 Q53.5188,18.5156 54.0656,18.875 Z " fill="#000000"/><text fill="#000000" font-family="sans-serif" font-size="14" lengthAdjust="spacing" textLength="69" x="66.7" y="28.7969">RealEstate</text><line style="stroke:#181818;stroke-width:0.5;" x1="31" x2="144" y1="39" y2="39"/><rect fill="none" height="6" style="stroke:#C82930;stroke-width:1.0;" width="6" x="38" y="50.8105"/><text fill="#000000" font-family="sans-serif" font-size="14" lengthAdjust="spacing" textLength="35" x="50" y="58.1074">name</text><rect fill="none" height="6" style="stroke:#C82930;stroke-width:1.0;" width="6" x="38" y="69.4316"/><text fill="#000000" font-family="sans-serif" font-size="14" lengthAdjust="spacing" textLength="51" x="50" y="76.7285">address</text><rect fill="none" height="6" style="stroke:#C82930;stroke-width:1.0;" width="6" x="38" y="88.0527"/><text fill="#000000" font-family="sans-serif" font-size="14" lengthAdjust="spacing" textLength="76" x="50" y="95.3496">descriptions</text><rect fill="none" height="6" style="stroke:#C82930;stroke-width:1.0;" width="6" x="38" y="106.6738"/><text fill="#000000" font-family="sans-serif" font-size="14" lengthAdjust="spacing" textLength="47" x="50" y="113.9707">website</text><rect fill="none" height="6" style="stroke:#C82930;stroke-width:1.0;" width="6" x="38" y="125.2949"/><text fill="#000000" font-family="sans-serif" font-size="14" lengthAdjust="spacing" textLength="89" x="50" y="132.5918">phoneNumber</text><rect fill="none" height="6" style="stroke:#C82930;stroke-width:1.0;" width="6" x="38" y="143.916"/><text fill="#000000" font-family="sans-serif" font-size="14" lengthAdjust="spacing" textLength="33" x="50" y="151.2129">email</text><rect fill="none" height="6" style="stroke:#C82930;stroke-width:1.0;" width="6" x="38" y="162.5371"/><text fill="#000000" font-family="sans-serif" font-size="14" lengthAdjust="spacing" textLength="68" x="50" y="169.834">vatNumber</text><line style="stroke:#181818;stroke-width:0.5;" x1="31" x2="144" y1="177.3477" y2="177.3477"/></g><!--class Employee--><g id="elem_Employee"><rect codeLine="52" fill="#F1F1F1" height="66.6211" id="Employee" rx="2.5" ry="2.5" style="stroke:#181818;stroke-width:0.5;" width="94" x="226.5" y="779"/><ellipse cx="241.5" cy="795" fill="#ADD1B2" rx="11" ry="11" style="stroke:#181818;stroke-width:1.0;"/><path d="M244.2656,790.875 Q244.4219,790.6563 244.6094,790.5469 Q244.7969,790.4375 245.0156,790.4375 Q245.3906,790.4375 245.625,790.7031 Q245.8594,790.9531 245.8594,791.5625 L245.8594,793.0156 Q245.8594,793.625 245.625,793.8906 Q245.3906,794.1563 245.0156,794.1563 Q244.6719,794.1563 244.4688,793.9531 Q244.2656,793.7656 244.1563,793.25 Q244.1094,792.8906 243.9219,792.7031 Q243.5938,792.3281 242.9844,792.1094 Q242.375,791.8906 241.75,791.8906 Q240.9844,791.8906 240.3438,792.2188 Q239.7188,792.5469 239.2188,793.2969 Q238.7344,794.0469 238.7344,795.0781 L238.7344,796.1719 Q238.7344,797.4063 239.625,798.2344 Q240.5156,799.0469 242.1094,799.0469 Q243.0469,799.0469 243.7031,798.7969 Q244.0938,798.6406 244.5156,798.2031 Q244.7813,797.9375 244.9219,797.8594 Q245.0781,797.7813 245.2813,797.7813 Q245.6094,797.7813 245.8594,798.0469 Q246.125,798.2969 246.125,798.6406 Q246.125,798.9844 245.7813,799.3906 Q245.2813,799.9688 244.4844,800.2969 Q243.4063,800.75 242.1094,800.75 Q240.5938,800.75 239.3906,800.125 Q238.4063,799.625 237.7188,798.5625 Q237.0313,797.4844 237.0313,796.2031 L237.0313,795.0469 Q237.0313,793.7188 237.6406,792.5781 Q238.2656,791.4219 239.3594,790.8125 Q240.4531,790.1875 241.6875,790.1875 Q242.4219,790.1875 243.0625,790.3594 Q243.7188,790.5156 244.2656,790.875 Z " fill="#000000"/><text fill="#000000" font-family="sans-serif" font-size="14" lengthAdjust="spacing" textLength="62" x="255.5" y="800.7969">Employee</text><line style="stroke:#181818;stroke-width:0.5;" x1="227.5" x2="319.5" y1="811" y2="811"/><rect fill="none" height="6" style="stroke:#C82930;stroke-width:1.0;" width="6" x="234.5" y="822.8105"/><text fill="#000000" font-family="sans-serif" font-size="14" lengthAdjust="spacing" textLength="38" x="246.5" y="830.1074">salary</text><line style="stroke:#181818;stroke-width:0.5;" x1="227.5" x2="319.5" y1="837.6211" y2="837.6211"/></g><!--class Administrator--><g id="elem_Administrator"><rect codeLine="56" fill="#F1F1F1" height="48" id="Administrator" rx="2.5" ry="2.5" style="stroke:#181818;stroke-width:0.5;" width="115" x="7" y="596"/><ellipse cx="22" cy="612" fill="#ADD1B2" rx="11" ry="11" style="stroke:#181818;stroke-width:1.0;"/><path d="M24.7656,607.875 Q24.9219,607.6563 25.1094,607.5469 Q25.2969,607.4375 25.5156,607.4375 Q25.8906,607.4375 26.125,607.7031 Q26.3594,607.9531 26.3594,608.5625 L26.3594,610.0156 Q26.3594,610.625 26.125,610.8906 Q25.8906,611.1563 25.5156,611.1563 Q25.1719,611.1563 24.9688,610.9531 Q24.7656,610.7656 24.6563,610.25 Q24.6094,609.8906 24.4219,609.7031 Q24.0938,609.3281 23.4844,609.1094 Q22.875,608.8906 22.25,608.8906 Q21.4844,608.8906 20.8438,609.2188 Q20.2188,609.5469 19.7188,610.2969 Q19.2344,611.0469 19.2344,612.0781 L19.2344,613.1719 Q19.2344,614.4063 20.125,615.2344 Q21.0156,616.0469 22.6094,616.0469 Q23.5469,616.0469 24.2031,615.7969 Q24.5938,615.6406 25.0156,615.2031 Q25.2813,614.9375 25.4219,614.8594 Q25.5781,614.7813 25.7813,614.7813 Q26.1094,614.7813 26.3594,615.0469 Q26.625,615.2969 26.625,615.6406 Q26.625,615.9844 26.2813,616.3906 Q25.7813,616.9688 24.9844,617.2969 Q23.9063,617.75 22.6094,617.75 Q21.0938,617.75 19.8906,617.125 Q18.9063,616.625 18.2188,615.5625 Q17.5313,614.4844 17.5313,613.2031 L17.5313,612.0469 Q17.5313,610.7188 18.1406,609.5781 Q18.7656,608.4219 19.8594,607.8125 Q20.9531,607.1875 22.1875,607.1875 Q22.9219,607.1875 23.5625,607.3594 Q24.2188,607.5156 24.7656,607.875 Z " fill="#000000"/><text fill="#000000" font-family="sans-serif" font-size="14" lengthAdjust="spacing" textLength="83" x="36" y="617.7969">Administrator</text><line style="stroke:#181818;stroke-width:0.5;" x1="8" x2="121" y1="628" y2="628"/><line style="stroke:#181818;stroke-width:0.5;" x1="8" x2="121" y1="636" y2="636"/></g><!--class Store--><g id="elem_Store"><rect codeLine="59" fill="#F1F1F1" height="159.7266" id="Store" rx="2.5" ry="2.5" style="stroke:#181818;stroke-width:0.5;" width="119" x="438" y="540"/><ellipse cx="476.85" cy="556" fill="#ADD1B2" rx="11" ry="11" style="stroke:#181818;stroke-width:1.0;"/><path d="M479.6156,551.875 Q479.7719,551.6563 479.9594,551.5469 Q480.1469,551.4375 480.3656,551.4375 Q480.7406,551.4375 480.975,551.7031 Q481.2094,551.9531 481.2094,552.5625 L481.2094,554.0156 Q481.2094,554.625 480.975,554.8906 Q480.7406,555.1563 480.3656,555.1563 Q480.0219,555.1563 479.8188,554.9531 Q479.6156,554.7656 479.5063,554.25 Q479.4594,553.8906 479.2719,553.7031 Q478.9438,553.3281 478.3344,553.1094 Q477.725,552.8906 477.1,552.8906 Q476.3344,552.8906 475.6938,553.2188 Q475.0688,553.5469 474.5688,554.2969 Q474.0844,555.0469 474.0844,556.0781 L474.0844,557.1719 Q474.0844,558.4063 474.975,559.2344 Q475.8656,560.0469 477.4594,560.0469 Q478.3969,560.0469 479.0531,559.7969 Q479.4438,559.6406 479.8656,559.2031 Q480.1313,558.9375 480.2719,558.8594 Q480.4281,558.7813 480.6313,558.7813 Q480.9594,558.7813 481.2094,559.0469 Q481.475,559.2969 481.475,559.6406 Q481.475,559.9844 481.1313,560.3906 Q480.6313,560.9688 479.8344,561.2969 Q478.7563,561.75 477.4594,561.75 Q475.9438,561.75 474.7406,561.125 Q473.7563,560.625 473.0688,559.5625 Q472.3813,558.4844 472.3813,557.2031 L472.3813,556.0469 Q472.3813,554.7188 472.9906,553.5781 Q473.6156,552.4219 474.7094,551.8125 Q475.8031,551.1875 477.0375,551.1875 Q477.7719,551.1875 478.4125,551.3594 Q479.0688,551.5156 479.6156,551.875 Z " fill="#000000"/><text fill="#000000" font-family="sans-serif" font-size="14" lengthAdjust="spacing" textLength="34" x="496.15" y="561.7969">Store</text><line style="stroke:#181818;stroke-width:0.5;" x1="439" x2="556" y1="572" y2="572"/><rect fill="none" height="6" style="stroke:#C82930;stroke-width:1.0;" width="6" x="446" y="583.8105"/><text fill="#000000" font-family="sans-serif" font-size="14" lengthAdjust="spacing" textLength="35" x="458" y="591.1074">name</text><rect fill="none" height="6" style="stroke:#C82930;stroke-width:1.0;" width="6" x="446" y="602.4316"/><text fill="#000000" font-family="sans-serif" font-size="14" lengthAdjust="spacing" textLength="68" x="458" y="609.7285">vatNumber</text><rect fill="none" height="6" style="stroke:#C82930;stroke-width:1.0;" width="6" x="446" y="621.0527"/><text fill="#000000" font-family="sans-serif" font-size="14" lengthAdjust="spacing" textLength="51" x="458" y="628.3496">address</text><rect fill="none" height="6" style="stroke:#C82930;stroke-width:1.0;" width="6" x="446" y="639.6738"/><text fill="#000000" font-family="sans-serif" font-size="14" lengthAdjust="spacing" textLength="89" x="458" y="646.9707">phoneNumber</text><rect fill="none" height="6" style="stroke:#C82930;stroke-width:1.0;" width="6" x="446" y="658.2949"/><text fill="#000000" font-family="sans-serif" font-size="14" lengthAdjust="spacing" textLength="33" x="458" y="665.5918">email</text><rect fill="none" height="6" style="stroke:#C82930;stroke-width:1.0;" width="6" x="446" y="676.916"/><text fill="#000000" font-family="sans-serif" font-size="14" lengthAdjust="spacing" textLength="93" x="458" y="684.2129">branchNumber</text><line style="stroke:#181818;stroke-width:0.5;" x1="439" x2="556" y1="691.7266" y2="691.7266"/></g><!--class StoreNetWork--><g id="elem_StoreNetWork"><rect codeLine="67" fill="#F1F1F1" height="159.7266" id="StoreNetWork" rx="2.5" ry="2.5" style="stroke:#181818;stroke-width:0.5;" width="246" x="236.5" y="282.5"/><ellipse cx="311.25" cy="298.5" fill="#ADD1B2" rx="11" ry="11" style="stroke:#181818;stroke-width:1.0;"/><path d="M314.0156,294.375 Q314.1719,294.1563 314.3594,294.0469 Q314.5469,293.9375 314.7656,293.9375 Q315.1406,293.9375 315.375,294.2031 Q315.6094,294.4531 315.6094,295.0625 L315.6094,296.5156 Q315.6094,297.125 315.375,297.3906 Q315.1406,297.6563 314.7656,297.6563 Q314.4219,297.6563 314.2188,297.4531 Q314.0156,297.2656 313.9063,296.75 Q313.8594,296.3906 313.6719,296.2031 Q313.3438,295.8281 312.7344,295.6094 Q312.125,295.3906 311.5,295.3906 Q310.7344,295.3906 310.0938,295.7188 Q309.4688,296.0469 308.9688,296.7969 Q308.4844,297.5469 308.4844,298.5781 L308.4844,299.6719 Q308.4844,300.9063 309.375,301.7344 Q310.2656,302.5469 311.8594,302.5469 Q312.7969,302.5469 313.4531,302.2969 Q313.8438,302.1406 314.2656,301.7031 Q314.5313,301.4375 314.6719,301.3594 Q314.8281,301.2813 315.0313,301.2813 Q315.3594,301.2813 315.6094,301.5469 Q315.875,301.7969 315.875,302.1406 Q315.875,302.4844 315.5313,302.8906 Q315.0313,303.4688 314.2344,303.7969 Q313.1563,304.25 311.8594,304.25 Q310.3438,304.25 309.1406,303.625 Q308.1563,303.125 307.4688,302.0625 Q306.7813,300.9844 306.7813,299.7031 L306.7813,298.5469 Q306.7813,297.2188 307.3906,296.0781 Q308.0156,294.9219 309.1094,294.3125 Q310.2031,293.6875 311.4375,293.6875 Q312.1719,293.6875 312.8125,293.8594 Q313.4688,294.0156 314.0156,294.375 Z " fill="#000000"/><text fill="#000000" font-family="sans-serif" font-size="14" lengthAdjust="spacing" textLength="88" x="331.75" y="304.2969">StoreNetWork</text><line style="stroke:#181818;stroke-width:0.5;" x1="237.5" x2="481.5" y1="314.5" y2="314.5"/><rect fill="none" height="6" style="stroke:#C82930;stroke-width:1.0;" width="6" x="244.5" y="326.3105"/><text fill="#000000" font-family="sans-serif" font-size="14" lengthAdjust="spacing" textLength="76" x="256.5" y="333.6074">String name</text><rect fill="none" height="6" style="stroke:#C82930;stroke-width:1.0;" width="6" x="244.5" y="344.9316"/><text fill="#000000" font-family="sans-serif" font-size="14" lengthAdjust="spacing" textLength="92" x="256.5" y="352.2285">String address</text><line style="stroke:#181818;stroke-width:0.5;" x1="237.5" x2="481.5" y1="359.7422" y2="359.7422"/><ellipse cx="247.5" cy="383.8633" fill="#84BE84" rx="3" ry="3" style="stroke:#038048;stroke-width:1.0;"/><text fill="#000000" font-family="sans-serif" font-size="14" lengthAdjust="spacing" textLength="216" x="256.5" y="378.8496">createStore(ID, designation/name,</text><text fill="#000000" font-family="sans-serif" font-size="14" lengthAdjust="spacing" textLength="200" x="260.5" y="397.4707">location, phone number, e-mail)</text><ellipse cx="247.5" cy="411.7949" fill="#84BE84" rx="3" ry="3" style="stroke:#038048;stroke-width:1.0;"/><text fill="#000000" font-family="sans-serif" font-size="14" lengthAdjust="spacing" textLength="91" x="256.5" y="416.0918">validate(store)</text><ellipse cx="247.5" cy="430.416" fill="#84BE84" rx="3" ry="3" style="stroke:#038048;stroke-width:1.0;"/><text fill="#000000" font-family="sans-serif" font-size="14" lengthAdjust="spacing" textLength="100" x="256.5" y="434.7129">addStore(store)</text></g><!--reverse link user to Employee--><g id="link_user_Employee"><path d="M204.87,478.75 C208.97,486.32 211.5,491 211.5,491 C211.5,491 237.5,540 237.5,540 C237.5,540 259.58,706.54 269.16,778.75 " fill="none" id="user-backto-Employee" style="stroke:#181818;stroke-width:1.0;"/><polygon fill="none" points="198.69,482.03,195.32,461.11,211,475.36,198.69,482.03" style="stroke:#181818;stroke-width:1.0;"/></g><!--reverse link user to Administrator--><g id="link_user_Administrator"><path d="M106.81,480.39 C93.49,524.05 79.64,569.42 71.56,595.89 " fill="none" id="user-backto-Administrator" style="stroke:#181818;stroke-width:1.0;"/><polygon fill="none" points="100.14,478.27,112.68,461.19,113.53,482.36,100.14,478.27" style="stroke:#181818;stroke-width:1.0;"/></g><!--link Store to Employee--><g id="link_Store_Employee"><path codeLine="74" d="M437.77,671.8 C397.85,705.75 346.51,749.41 311.94,778.81 " fill="none" id="Store-Employee" style="stroke:#181818;stroke-width:1.0;"/><polygon fill="#000000" points="365.6911,742.8847,374.4854,739.2637,370.6775,734.7861,365.6911,742.8847" style="stroke:#000000;stroke-width:1.0;"/><text fill="#000000" font-family="sans-serif" font-size="13" lengthAdjust="spacing" textLength="21" x="378.5" y="745.0283">has</text><text fill="#000000" font-family="sans-serif" font-size="13" lengthAdjust="spacing" textLength="7" x="423.0638" y="674.1399">1</text><text fill="#000000" font-family="sans-serif" font-size="13" lengthAdjust="spacing" textLength="20" x="297.3614" y="767.8597">0..*</text></g><!--link StoreNetWork to Store--><g id="link_StoreNetWork_Store"><path codeLine="75" d="M402.22,442.59 C418.92,473.52 438.04,508.91 454.75,539.84 " fill="none" id="StoreNetWork-Store" style="stroke:#181818;stroke-width:1.0;"/><polygon fill="#000000" points="443.8763,505.0448,442.1634,495.6897,436.9917,498.4832,443.8763,505.0448" style="stroke:#000000;stroke-width:1.0;"/><text fill="#000000" font-family="sans-serif" font-size="13" lengthAdjust="spacing" textLength="21" x="450.5" y="506.0283">has</text><text fill="#000000" font-family="sans-serif" font-size="13" lengthAdjust="spacing" textLength="7" x="398.5905" y="464.2558">1</text><text fill="#000000" font-family="sans-serif" font-size="13" lengthAdjust="spacing" textLength="20" x="429.8871" y="528.721">0..*</text></g><!--link RealEstate to StoreNetWork--><g id="link_RealEstate_StoreNetWork"><path codeLine="76" d="M145.1,164.59 C155.18,176.41 162.5,185 162.5,185 C162.5,185 218.71,235.36 271.08,282.28 " fill="none" id="RealEstate-StoreNetWork" style="stroke:#181818;stroke-width:1.0;"/><polygon fill="#000000" points="223.1537,228.0588,218.5504,219.7365,214.5378,224.0317,223.1537,228.0588" style="stroke:#000000;stroke-width:1.0;"/><text fill="#000000" font-family="sans-serif" font-size="13" lengthAdjust="spacing" textLength="21" x="228.5" y="230.0283">has</text><text fill="#000000" font-family="sans-serif" font-size="13" lengthAdjust="spacing" textLength="7" x="152.9284" y="169.3137">1</text><text fill="#000000" font-family="sans-serif" font-size="13" lengthAdjust="spacing" textLength="7" x="255.6061" y="271.1555">1</text></g><!--link user to roles--><g id="link_user_roles"><path codeLine="77" d="M160.09,461.19 C168.91,510.21 178.87,565.5 184.34,595.89 " fill="none" id="user-roles" style="stroke:#181818;stroke-width:1.0;"/><polygon fill="#000000" points="173.3859,505.5664,174.6757,496.1437,168.8909,497.1851,173.3859,505.5664" style="stroke:#000000;stroke-width:1.0;"/><text fill="#000000" font-family="sans-serif" font-size="13" lengthAdjust="spacing" textLength="21" x="181.5" y="506.0283">has</text><text fill="#000000" font-family="sans-serif" font-size="13" lengthAdjust="spacing" textLength="7" x="154.1247" y="483.1019">1</text><text fill="#000000" font-family="sans-serif" font-size="13" lengthAdjust="spacing" textLength="20" x="160.7115" y="584.5993">1..*</text></g><!--link CreateEmployeeController to Repositories--><g id="link_CreateEmployeeController_Repositories"><path codeLine="78" d="M741.04,96 C774.78,96 808.82,96 839.15,96 " fill="none" id="CreateEmployeeController-to-Repositories" style="stroke:#181818;stroke-width:1.0;stroke-dasharray:7.0,7.0;"/><polygon fill="#181818" points="844.38,96,835.38,92,839.38,96,835.38,100,844.38,96" style="stroke:#181818;stroke-width:1.0;"/><text fill="#000000" font-family="sans-serif" font-size="13" lengthAdjust="spacing" textLength="67" x="759.25" y="89.0283">repositories</text></g><!--link CreateEmployeeUI to CreateEmployeeController--><g id="link_CreateEmployeeUI_CreateEmployeeController"><path codeLine="79" d="M329.02,96 C343.27,96 353.83,96 353.83,96 C353.83,96 355.47,96 358.31,96 " fill="none" id="CreateEmployeeUI-to-CreateEmployeeController" style="stroke:#181818;stroke-width:1.0;stroke-dasharray:7.0,7.0;"/><polygon fill="#181818" points="363.72,96,354.72,92,358.72,96,354.72,100,363.72,96" style="stroke:#181818;stroke-width:1.0;"/></g><!--link Administrator to Employee--><g id="link_Administrator_Employee"><path codeLine="80" d="M86.6,644.28 C108.72,667.58 139.5,700 139.5,700 C139.5,700 186.5,749 186.5,749 C186.5,749 204.28,761.78 223.77,775.78 " fill="none" id="Administrator-to-Employee" style="stroke:#181818;stroke-width:1.0;"/><polygon fill="#181818" points="228.22,778.97,223.2637,770.4591,224.1659,776.0436,218.5814,776.9458,228.22,778.97" style="stroke:#181818;stroke-width:1.0;"/><text fill="#000000" font-family="sans-serif" font-size="13" lengthAdjust="spacing" textLength="59" x="187.5" y="745.0283">createdBy</text></g><!--link CreateEmployeeController to Store--><g id="link_CreateEmployeeController_Store"><path codeLine="81" d="M547.13,148 C537.65,237.9 517.9,425.39 506.38,534.76 " fill="none" id="CreateEmployeeController-to-Store" style="stroke:#181818;stroke-width:1.0;stroke-dasharray:7.0,7.0;"/><polygon fill="#181818" points="505.83,539.91,510.7591,531.3833,506.3586,534.938,502.804,530.5375,505.83,539.91" style="stroke:#181818;stroke-width:1.0;"/><text fill="#000000" font-family="sans-serif" font-size="13" lengthAdjust="spacing" textLength="31" x="535.5" y="368.0283">Store</text><text fill="#000000" font-family="sans-serif" font-size="13" lengthAdjust="spacing" textLength="7" x="499.2753" y="528.7974">1</text></g><!--link Repositories to StoreRepository--><g id="link_Repositories_StoreRepository"><path codeLine="82" d="M919.47,148.31 C892.47,203.68 850.46,289.81 829.05,333.72 " fill="none" id="Repositories-to-StoreRepository" style="stroke:#181818;stroke-width:1.0;"/><polygon fill="#181818" points="826.79,338.35,834.3202,332.002,828.9745,333.8525,827.1241,328.5068,826.79,338.35" style="stroke:#181818;stroke-width:1.0;"/><polygon fill="#000000" points="886.3083,229.1396,892.9146,222.2979,887.6315,219.7215,886.3083,229.1396" style="stroke:#000000;stroke-width:1.0;"/><text fill="#000000" font-family="sans-serif" font-size="13" lengthAdjust="spacing" textLength="21" x="897.5" y="230.0283">has</text><text fill="#000000" font-family="sans-serif" font-size="13" lengthAdjust="spacing" textLength="7" x="908.9929" y="169.7756">1</text><text fill="#000000" font-family="sans-serif" font-size="13" lengthAdjust="spacing" textLength="5" x="824.0424" y="327.049">*</text></g><!--link StoreRepository to Store--><g id="link_StoreRepository_Store"><path codeLine="83" d="M786.72,386.62 C736.05,427.33 629.81,512.7 561.16,567.85 " fill="none" id="StoreRepository-to-Store" style="stroke:#181818;stroke-width:1.0;"/><polygon fill="#181818" points="557.1,571.11,566.6232,568.5985,561.0002,567.9813,561.6173,562.3582,557.1,571.11" style="stroke:#181818;stroke-width:1.0;"/><polygon fill="#000000" points="657.6023,503.7772,666.4941,500.4029,662.8126,495.8209,657.6023,503.7772" style="stroke:#000000;stroke-width:1.0;"/><text fill="#000000" font-family="sans-serif" font-size="13" lengthAdjust="spacing" textLength="21" x="670.5" y="506.0283">has</text><text fill="#000000" font-family="sans-serif" font-size="13" lengthAdjust="spacing" textLength="7" x="771.8518" y="408.6349">1</text><text fill="#000000" font-family="sans-serif" font-size="13" lengthAdjust="spacing" textLength="5" x="565.0566" y="560.8214">*</text></g><!--SRC=[VLJ1Sjem4BtxAtPymRGsRNham4oQvi0bXpATNd8HziRM84iUIOIuJFwzaYrXYPXm0UrxgttxjEn27IZlY2Gjj8ABif6YHT3oYCc4TAGya1ftkcS84ajDUCr2Wcf89KwKr_12c0eHHZdglaFe1Elj8LdCW49gaGHP9IDAtMijwVweSLiAlgF_4D8VQR9W-A912v2qRZHKrEgXWYT33lp6JYYgXQIeu9o0-HHHC5iEmQzGezvoPLefCLl2EY9Db9q9u0NgJVQxgtI5d1E390vxa4WqFhOT4ptYd-tPOdFGW-1Q2iPGdbtDMtXsLS-tKKRyZ9CMymfLAMbdRL6v9c_0Z-qUPKwgIg9Ippp7bb06xfntZU3eIPrHUHAoofKjc9lgg9QJ_gFoMWkmnTpFiAGBJOLTm9LpfqY2YuL2VCZ9SST1ZhKQ3Miy3SxxroViqRofHfZH6DUQKNp2lJ4NGp5FePP1illzIhJ39c_yAm2-QUHLP9OYZCX-ujvNBULKQKcCpLS9yOpDjJ9LdsljS-LxQMQ-SN1KwGdrNo4FvsYq1YJR_igjOxJcn3hsRPWpUER0H3b4ykZnSi32blHJ-aeOhSnbsJ1KFcfKZxS7qS98aNQJ1DswY6_oFHbzIUzIA0f8lwzMNzB9_3KqHC4c2LkwuexvdXXCZQVTfP4Z5wfz7uiMHNett3HCu0M-zUU5rIRUJ6kpHeDrSxqlBF_MNKayEKMn2LiVtwpwsN-YnLn-QT2a3Dz996-qmT2yLzFUYUqDuXzoFFC_]--></g></svg>
