<?xml version="1.0" encoding="us-ascii" standalone="no"?><svg xmlns="http://www.w3.org/2000/svg" xmlns:xlink="http://www.w3.org/1999/xlink" contentStyleType="text/css" height="950px" preserveAspectRatio="none" style="width:606px;height:950px;background:#FFFFFF;" version="1.1" viewBox="0 0 606 950" width="606px" zoomAndPan="magnify"><defs/><g><!--class House--><g id="elem_House"><rect codeLine="10" fill="#F1F1F1" height="185.5898" id="House" rx="2.5" ry="2.5" style="stroke:#181818;stroke-width:0.5;" width="178" x="240" y="7"/><text fill="#000000" font-family="sans-serif" font-size="14" lengthAdjust="spacing" textLength="40" x="309" y="27.1074">House</text><line style="stroke:#181818;stroke-width:0.5;" x1="241" x2="417" y1="35.6211" y2="35.6211"/><text fill="#000000" font-family="sans-serif" font-size="14" lengthAdjust="spacing" textLength="111" x="246" y="54.7285">numberOfRooms;</text><text fill="#000000" font-family="sans-serif" font-size="14" lengthAdjust="spacing" textLength="135" x="246" y="73.3496">numberOfBathrooms;</text><text fill="#000000" font-family="sans-serif" font-size="14" lengthAdjust="spacing" textLength="107" x="246" y="91.9707">numberOfFloors;</text><text fill="#000000" font-family="sans-serif" font-size="14" lengthAdjust="spacing" textLength="122" x="246" y="110.5918">numberOfGarages;</text><text fill="#000000" font-family="sans-serif" font-size="14" lengthAdjust="spacing" textLength="156" x="246" y="129.2129">List&lt;String&gt; equipments;</text><text fill="#000000" font-family="sans-serif" font-size="14" lengthAdjust="spacing" textLength="145" x="246" y="147.834">boolean hasBasement;</text><text fill="#000000" font-family="sans-serif" font-size="14" lengthAdjust="spacing" textLength="106" x="246" y="166.4551">boolean hasLoft;</text><text fill="#000000" font-family="sans-serif" font-size="14" lengthAdjust="spacing" textLength="166" x="246" y="185.0762">boolean hasSunExposure;</text></g><!--class Land--><g id="elem_Land"><rect codeLine="23" fill="#F1F1F1" height="55.2422" id="Land" rx="2.5" ry="2.5" style="stroke:#181818;stroke-width:0.5;" width="41" x="308.5" y="228.5"/><text fill="#000000" font-family="sans-serif" font-size="14" lengthAdjust="spacing" textLength="32" x="313" y="248.6074">Land</text><line style="stroke:#181818;stroke-width:0.5;" x1="309.5" x2="348.5" y1="257.1211" y2="257.1211"/><text fill="#000000" font-family="sans-serif" font-size="14" lengthAdjust="spacing" textLength="29" x="314.5" y="276.2285">area</text></g><!--class Apartment--><g id="elem_Apartment"><rect codeLine="28" fill="#F1F1F1" height="129.7266" id="Apartment" rx="2.5" ry="2.5" style="stroke:#181818;stroke-width:0.5;" width="168" x="245" y="319"/><text fill="#000000" font-family="sans-serif" font-size="14" lengthAdjust="spacing" textLength="65" x="296.5" y="339.1074">Apartment</text><line style="stroke:#181818;stroke-width:0.5;" x1="246" x2="412" y1="347.6211" y2="347.6211"/><text fill="#000000" font-family="sans-serif" font-size="14" lengthAdjust="spacing" textLength="111" x="251" y="366.7285">numberOfRooms;</text><text fill="#000000" font-family="sans-serif" font-size="14" lengthAdjust="spacing" textLength="135" x="251" y="385.3496">numberOfBathrooms;</text><text fill="#000000" font-family="sans-serif" font-size="14" lengthAdjust="spacing" textLength="107" x="251" y="403.9707">numberOfFloors;</text><text fill="#000000" font-family="sans-serif" font-size="14" lengthAdjust="spacing" textLength="122" x="251" y="422.5918">numberOfGarages;</text><text fill="#000000" font-family="sans-serif" font-size="14" lengthAdjust="spacing" textLength="156" x="251" y="441.2129">List&lt;String&gt; equipments;</text></g><!--class User--><g id="elem_User"><rect codeLine="37" fill="#F1F1F1" height="166.9688" id="User" rx="2.5" ry="2.5" style="stroke:#181818;stroke-width:0.5;" width="118" x="270" y="484.5"/><text fill="#000000" font-family="sans-serif" font-size="14" font-style="italic" lengthAdjust="spacing" textLength="30" x="314" y="504.6074">User</text><line style="stroke:#181818;stroke-width:0.5;" x1="271" x2="387" y1="513.1211" y2="513.1211"/><rect fill="none" height="6" style="stroke:#595959;stroke-width:1.0;" width="6" x="278" y="524.9316"/><text fill="#000000" font-family="sans-serif" font-size="14" lengthAdjust="spacing" textLength="35" x="290" y="532.2285">name</text><rect fill="none" height="6" style="stroke:#595959;stroke-width:1.0;" width="6" x="278" y="543.5527"/><text fill="#000000" font-family="sans-serif" font-size="14" lengthAdjust="spacing" textLength="76" x="290" y="550.8496">descriptions</text><rect fill="none" height="6" style="stroke:#595959;stroke-width:1.0;" width="6" x="278" y="562.1738"/><text fill="#000000" font-family="sans-serif" font-size="14" lengthAdjust="spacing" textLength="70" x="290" y="569.4707">tax number</text><rect fill="none" height="6" style="stroke:#595959;stroke-width:1.0;" width="6" x="278" y="580.7949"/><text fill="#000000" font-family="sans-serif" font-size="14" lengthAdjust="spacing" textLength="51" x="290" y="588.0918">address</text><rect fill="none" height="6" style="stroke:#595959;stroke-width:1.0;" width="6" x="278" y="599.416"/><text fill="#000000" font-family="sans-serif" font-size="14" lengthAdjust="spacing" textLength="88" x="290" y="606.7129">email address</text><rect fill="none" height="6" style="stroke:#595959;stroke-width:1.0;" width="6" x="278" y="618.0371"/><text fill="#000000" font-family="sans-serif" font-size="14" lengthAdjust="spacing" textLength="92" x="290" y="625.334">phone number</text><rect fill="none" height="6" style="stroke:#595959;stroke-width:1.0;" width="6" x="278" y="636.6582"/><text fill="#000000" font-family="sans-serif" font-size="14" lengthAdjust="spacing" textLength="60" x="290" y="643.9551">password</text></g><!--class Property--><g id="elem_Property"><rect codeLine="47" fill="#F1F1F1" height="148.3477" id="Property" rx="2.5" ry="2.5" style="stroke:#181818;stroke-width:0.5;" width="85" x="514" y="246"/><text fill="#000000" font-family="sans-serif" font-size="14" font-style="italic" lengthAdjust="spacing" textLength="54" x="529.5" y="266.1074">Property</text><line style="stroke:#181818;stroke-width:0.5;" x1="515" x2="598" y1="274.6211" y2="274.6211"/><text fill="#000000" font-family="sans-serif" font-size="14" lengthAdjust="spacing" textLength="39" x="520" y="293.7285">name;</text><text fill="#000000" font-family="sans-serif" font-size="14" lengthAdjust="spacing" textLength="31" x="520" y="312.3496">type;</text><text fill="#000000" font-family="sans-serif" font-size="14" lengthAdjust="spacing" textLength="55" x="520" y="330.9707">address;</text><text fill="#000000" font-family="sans-serif" font-size="14" lengthAdjust="spacing" textLength="73" x="520" y="349.5918">description;</text><text fill="#000000" font-family="sans-serif" font-size="14" lengthAdjust="spacing" textLength="64" x="520" y="368.2129">isForSale;</text><text fill="#000000" font-family="sans-serif" font-size="14" lengthAdjust="spacing" textLength="66" x="520" y="386.834">isForRent;</text></g><!--class Store--><g id="elem_Store"><rect codeLine="57" fill="#F1F1F1" height="166.9688" id="Store" rx="2.5" ry="2.5" style="stroke:#181818;stroke-width:0.5;" width="146" x="256" y="686.5"/><text fill="#000000" font-family="sans-serif" font-size="14" lengthAdjust="spacing" textLength="34" x="312" y="706.6074">Store</text><line style="stroke:#181818;stroke-width:0.5;" x1="257" x2="401" y1="715.1211" y2="715.1211"/><rect fill="none" height="6" style="stroke:#595959;stroke-width:1.0;" width="6" x="264" y="726.9316"/><text fill="#000000" font-family="sans-serif" font-size="14" lengthAdjust="spacing" textLength="120" x="276" y="734.2285">branchNumber : int</text><rect fill="none" height="6" style="stroke:#595959;stroke-width:1.0;" width="6" x="264" y="745.5527"/><text fill="#000000" font-family="sans-serif" font-size="14" lengthAdjust="spacing" textLength="73" x="276" y="752.8496">designation</text><rect fill="none" height="6" style="stroke:#595959;stroke-width:1.0;" width="6" x="264" y="764.1738"/><text fill="#000000" font-family="sans-serif" font-size="14" lengthAdjust="spacing" textLength="51" x="276" y="771.4707">address</text><rect fill="none" height="6" style="stroke:#595959;stroke-width:1.0;" width="6" x="264" y="782.7949"/><text fill="#000000" font-family="sans-serif" font-size="14" lengthAdjust="spacing" textLength="40" x="276" y="790.0918">phone</text><rect fill="none" height="6" style="stroke:#595959;stroke-width:1.0;" width="6" x="264" y="801.416"/><text fill="#000000" font-family="sans-serif" font-size="14" lengthAdjust="spacing" textLength="33" x="276" y="808.7129">email</text><rect fill="none" height="6" style="stroke:#595959;stroke-width:1.0;" width="6" x="264" y="820.0371"/><text fill="#000000" font-family="sans-serif" font-size="14" lengthAdjust="spacing" textLength="68" x="276" y="827.334">vatNumber</text><rect fill="none" height="6" style="stroke:#595959;stroke-width:1.0;" width="6" x="264" y="838.6582"/><text fill="#000000" font-family="sans-serif" font-size="14" lengthAdjust="spacing" textLength="56" x="276" y="845.9551">manager</text></g><!--class EmployeeProject--><g id="elem_EmployeeProject"><rect codeLine="67" fill="#F1F1F1" height="36.6211" id="EmployeeProject" rx="2.5" ry="2.5" style="stroke:#181818;stroke-width:0.5;" width="112" x="7" y="751.5"/><text fill="#000000" font-family="sans-serif" font-size="14" lengthAdjust="spacing" textLength="106" x="10" y="771.6074">EmployeeProject</text><line style="stroke:#181818;stroke-width:0.5;" x1="8" x2="118" y1="780.1211" y2="780.1211"/></g><!--class ROLE--><g id="elem_ROLE"><rect codeLine="71" fill="#F1F1F1" height="55.2422" id="ROLE" rx="2.5" ry="2.5" style="stroke:#181818;stroke-width:0.5;" width="172" x="243" y="888.5"/><text fill="#000000" font-family="sans-serif" font-size="14" lengthAdjust="spacing" textLength="38" x="310" y="908.6074">ROLE</text><line style="stroke:#181818;stroke-width:0.5;" x1="244" x2="414" y1="917.1211" y2="917.1211"/><rect fill="none" height="6" style="stroke:#595959;stroke-width:1.0;" width="6" x="251" y="928.9316"/><text fill="#000000" font-family="sans-serif" font-size="14" lengthAdjust="spacing" textLength="146" x="263" y="936.2285">NETWORK_MANAGER</text></g><!--link House to Property--><g id="link_House_Property"><path codeLine="75" d="M418.15,186 C445.47,212.65 474.8,241.27 499.32,265.19 " fill="none" id="House-to-Property" style="stroke:#181818;stroke-width:1.0;"/><polygon fill="none" points="504.48,260.44,513.91,279.42,494.7,270.46,504.48,260.44" style="stroke:#181818;stroke-width:1.0;"/></g><!--link Land to Property--><g id="link_Land_Property"><path codeLine="76" d="M349.62,261.57 C381.57,270.64 446.13,288.96 494.48,302.68 " fill="none" id="Land-to-Property" style="stroke:#181818;stroke-width:1.0;"/><polygon fill="none" points="496.41,295.95,513.74,308.15,492.59,309.42,496.41,295.95" style="stroke:#181818;stroke-width:1.0;"/></g><!--link Apartment to Property--><g id="link_Apartment_Property"><path codeLine="77" d="M413.01,360.44 C439.93,352.8 469.28,344.47 494.31,337.37 " fill="none" id="Apartment-to-Property" style="stroke:#181818;stroke-width:1.0;"/><polygon fill="none" points="492.6,330.58,513.75,331.85,496.42,344.04,492.6,330.58" style="stroke:#181818;stroke-width:1.0;"/></g><!--link Store to Property--><g id="link_Store_Property"><path codeLine="79" d="M402.13,692.32 C407.84,684.68 413.23,676.85 418,669 C471.77,580.51 511.79,467.31 534.4,394.23 " fill="none" id="Store-Property" style="stroke:#181818;stroke-width:1.0;"/><polygon fill="#000000" points="455.0279,527.0752,448.673,534.1509,454.0457,536.5349,455.0279,527.0752" style="stroke:#000000;stroke-width:1.0;"/><text fill="#000000" font-family="sans-serif" font-size="13" lengthAdjust="spacing" textLength="21" x="462" y="537.0283">has</text><text fill="#000000" font-family="sans-serif" font-size="13" lengthAdjust="spacing" textLength="7" x="410.0325" y="699.2307">1</text><text fill="#000000" font-family="sans-serif" font-size="13" lengthAdjust="spacing" textLength="5" x="526.9784" y="416.3993">*</text></g><!--link EmployeeProject to User--><g id="link_EmployeeProject_User"><path codeLine="80" d="M88.36,751.36 C125.66,722.82 198.42,667.15 254.03,624.6 " fill="none" id="EmployeeProject-to-User" style="stroke:#181818;stroke-width:1.0;"/><polygon fill="none" points="249.8,619.02,269.94,612.42,258.31,630.14,249.8,619.02" style="stroke:#181818;stroke-width:1.0;"/></g><!--link EmployeeProject to ROLE--><g id="link_EmployeeProject_ROLE"><path codeLine="81" d="M95.22,788.52 C130.2,809.14 188.74,843.21 240,871 C249.07,875.92 258.74,881.01 268.23,885.93 " fill="none" id="EmployeeProject-to-ROLE" style="stroke:#181818;stroke-width:1.0;"/><polygon fill="#181818" points="272.86,888.32,266.6869,880.6458,268.4139,886.0326,263.0271,887.7596,272.86,888.32" style="stroke:#181818;stroke-width:1.0;"/><polygon fill="#000000" points="158.3569,815.0986,151.9171,808.1,149.0333,813.2219,158.3569,815.0986" style="stroke:#000000;stroke-width:1.0;"/><text fill="#000000" font-family="sans-serif" font-size="13" lengthAdjust="spacing" textLength="46" x="163" y="818.0283">has role</text><text fill="#000000" font-family="sans-serif" font-size="13" lengthAdjust="spacing" textLength="7" x="96.2975" y="810.2419">1</text><text fill="#000000" font-family="sans-serif" font-size="13" lengthAdjust="spacing" textLength="7" x="252.8138" y="877.4393">1</text></g><!--link EmployeeProject to Store--><g id="link_EmployeeProject_Store"><path codeLine="82" d="M119.02,770 C157.21,770 208.62,770 250.89,770 " fill="none" id="EmployeeProject-to-Store" style="stroke:#181818;stroke-width:1.0;"/><polygon fill="#181818" points="256,770,247,766,251,770,247,774,256,770" style="stroke:#181818;stroke-width:1.0;"/><polygon fill="#000000" points="163.5,760.6455,154.4549,757.7066,154.4549,763.5844,163.5,760.6455" style="stroke:#000000;stroke-width:1.0;"/><text fill="#000000" font-family="sans-serif" font-size="13" lengthAdjust="spacing" textLength="37" x="167.5" y="766.0283">knows</text><text fill="#000000" font-family="sans-serif" font-size="13" lengthAdjust="spacing" textLength="7" x="127.018" y="785.2155">1</text><text fill="#000000" font-family="sans-serif" font-size="13" lengthAdjust="spacing" textLength="5" x="243.2141" y="784.9215">*</text></g><!--SRC=[nLDDRzim3BthLn0v3l1XrxO8a09f1onDXcJ3ZWDZCxOMI_GeUMdGxRzFicKtN_VvHBqda- -HbDjhsw2W0SEMyqhO47XfIRcHQJ3VOqaRVwm9X7AFjgnFBxWA2pveMy8EQqTArRJpu1b4bvM7GiUVD5kbLAKBWbnB7X9qiI5VSU5KNgDpy8bRHsyAki-sPakosgsPZRk_01_H1x4tYAUQMQxGvo2qf05UQESVDbw2v2dGhrOtXgmVs2rpJMYXGlU8ZY9rpInuTmFTj7R-sh1hXUw3sxyg-LgWBNfRA8Gdn2nqqCSAoVH_y1p5uDPvmTn3h-gR8-a4PM3HK1yLv7BHJHoaKn40Zw-fM7_6eX1oYII3kZw7ceejdVtHX6e7bkA6XY_23Oa_3eq9EWQ3_jYCSIem74z43f1sJomRhEaCM7TJ3MNJ83QUXQ0lbi5MqERLibCATw2jJqJ8hqkBtJRtoBl3UEeifhZhG8f_eryElkFPe0spaVT5c9kcvYDHiFqpl9QtRYmKUWNhrM8-w5hEltvVhJ__U9ajPy_pTRpJFHd8iZ_JiMKghji5D2xQ1QvwuvEFaq1CFan69jWE2mrJTQ6i_pzko1KJacJPDAQAcbC22O_ZHfPqDnJi1Tp15FQM3ovCv1y0]--></g></svg>