<?xml version="1.0" encoding="us-ascii" standalone="no"?><svg xmlns="http://www.w3.org/2000/svg" xmlns:xlink="http://www.w3.org/1999/xlink" contentStyleType="text/css" height="426px" preserveAspectRatio="none" style="width:1256px;height:426px;background:#FFFFFF;" version="1.1" viewBox="0 0 1256 426" width="1256px" zoomAndPan="magnify"><defs/><g><!--class RealEstate--><g id="elem_RealEstate"><rect codeLine="11" fill="#F1F1F1" height="185.5898" id="RealEstate" rx="2.5" ry="2.5" style="stroke:#181818;stroke-width:0.5;" width="115" x="7" y="233.5"/><text fill="#000000" font-family="sans-serif" font-size="14" lengthAdjust="spacing" textLength="69" x="30" y="253.6074">RealEstate</text><line style="stroke:#181818;stroke-width:0.5;" x1="8" x2="121" y1="262.1211" y2="262.1211"/><rect fill="none" height="6" style="stroke:#595959;stroke-width:1.0;" width="6" x="15" y="273.9316"/><text fill="#000000" font-family="sans-serif" font-size="14" lengthAdjust="spacing" textLength="35" x="27" y="281.2285">name</text><rect fill="none" height="6" style="stroke:#595959;stroke-width:1.0;" width="6" x="15" y="292.5527"/><text fill="#000000" font-family="sans-serif" font-size="14" lengthAdjust="spacing" textLength="51" x="27" y="299.8496">address</text><rect fill="none" height="6" style="stroke:#595959;stroke-width:1.0;" width="6" x="15" y="311.1738"/><text fill="#000000" font-family="sans-serif" font-size="14" lengthAdjust="spacing" textLength="76" x="27" y="318.4707">descriptions</text><rect fill="none" height="6" style="stroke:#595959;stroke-width:1.0;" width="6" x="15" y="329.7949"/><text fill="#000000" font-family="sans-serif" font-size="14" lengthAdjust="spacing" textLength="47" x="27" y="337.0918">website</text><rect fill="none" height="6" style="stroke:#595959;stroke-width:1.0;" width="6" x="15" y="348.416"/><text fill="#000000" font-family="sans-serif" font-size="14" lengthAdjust="spacing" textLength="89" x="27" y="355.7129">phoneNumber</text><rect fill="none" height="6" style="stroke:#595959;stroke-width:1.0;" width="6" x="15" y="367.0371"/><text fill="#000000" font-family="sans-serif" font-size="14" lengthAdjust="spacing" textLength="33" x="27" y="374.334">email</text><rect fill="none" height="6" style="stroke:#595959;stroke-width:1.0;" width="6" x="15" y="385.6582"/><text fill="#000000" font-family="sans-serif" font-size="14" lengthAdjust="spacing" textLength="68" x="27" y="392.9551">vatNumber</text><rect fill="none" height="6" style="stroke:#595959;stroke-width:1.0;" width="6" x="15" y="404.2793"/><text fill="#000000" font-family="sans-serif" font-size="14" lengthAdjust="spacing" textLength="27" x="27" y="411.5762">logo</text></g><!--class User--><g id="elem_User"><rect codeLine="22" fill="#F1F1F1" height="166.9688" id="User" rx="2.5" ry="2.5" style="stroke:#181818;stroke-width:0.5;" width="118" x="1077.5" y="7"/><text fill="#000000" font-family="sans-serif" font-size="14" font-style="italic" lengthAdjust="spacing" textLength="30" x="1121.5" y="27.1074">User</text><line style="stroke:#181818;stroke-width:0.5;" x1="1078.5" x2="1194.5" y1="35.6211" y2="35.6211"/><rect fill="none" height="6" style="stroke:#595959;stroke-width:1.0;" width="6" x="1085.5" y="47.4316"/><text fill="#000000" font-family="sans-serif" font-size="14" lengthAdjust="spacing" textLength="35" x="1097.5" y="54.7285">name</text><rect fill="none" height="6" style="stroke:#595959;stroke-width:1.0;" width="6" x="1085.5" y="66.0527"/><text fill="#000000" font-family="sans-serif" font-size="14" lengthAdjust="spacing" textLength="76" x="1097.5" y="73.3496">descriptions</text><rect fill="none" height="6" style="stroke:#595959;stroke-width:1.0;" width="6" x="1085.5" y="84.6738"/><text fill="#000000" font-family="sans-serif" font-size="14" lengthAdjust="spacing" textLength="70" x="1097.5" y="91.9707">tax number</text><rect fill="none" height="6" style="stroke:#595959;stroke-width:1.0;" width="6" x="1085.5" y="103.2949"/><text fill="#000000" font-family="sans-serif" font-size="14" lengthAdjust="spacing" textLength="51" x="1097.5" y="110.5918">address</text><rect fill="none" height="6" style="stroke:#595959;stroke-width:1.0;" width="6" x="1085.5" y="121.916"/><text fill="#000000" font-family="sans-serif" font-size="14" lengthAdjust="spacing" textLength="88" x="1097.5" y="129.2129">email address</text><rect fill="none" height="6" style="stroke:#595959;stroke-width:1.0;" width="6" x="1085.5" y="140.5371"/><text fill="#000000" font-family="sans-serif" font-size="14" lengthAdjust="spacing" textLength="92" x="1097.5" y="147.834">phone number</text><rect fill="none" height="6" style="stroke:#595959;stroke-width:1.0;" width="6" x="1085.5" y="159.1582"/><text fill="#000000" font-family="sans-serif" font-size="14" lengthAdjust="spacing" textLength="60" x="1097.5" y="166.4551">password</text></g><!--class StoreNetwork--><g id="elem_StoreNetwork"><rect codeLine="31" fill="#F1F1F1" height="73.8633" id="StoreNetwork" rx="2.5" ry="2.5" style="stroke:#181818;stroke-width:0.5;" width="90" x="428" y="320.5"/><text fill="#000000" font-family="sans-serif" font-size="14" lengthAdjust="spacing" textLength="84" x="431" y="340.6074">StoreNetwork</text><line style="stroke:#181818;stroke-width:0.5;" x1="429" x2="517" y1="349.1211" y2="349.1211"/><rect fill="none" height="6" style="stroke:#595959;stroke-width:1.0;" width="6" x="436" y="360.9316"/><text fill="#000000" font-family="sans-serif" font-size="14" lengthAdjust="spacing" textLength="35" x="448" y="368.2285">name</text><rect fill="none" height="6" style="stroke:#595959;stroke-width:1.0;" width="6" x="436" y="379.5527"/><text fill="#000000" font-family="sans-serif" font-size="14" lengthAdjust="spacing" textLength="51" x="448" y="386.8496">address</text></g><!--class Store--><g id="elem_Store"><rect codeLine="36" fill="#F1F1F1" height="166.9688" id="Store" rx="2.5" ry="2.5" style="stroke:#181818;stroke-width:0.5;" width="146" x="629" y="232"/><text fill="#000000" font-family="sans-serif" font-size="14" lengthAdjust="spacing" textLength="34" x="685" y="252.1074">Store</text><line style="stroke:#181818;stroke-width:0.5;" x1="630" x2="774" y1="260.6211" y2="260.6211"/><rect fill="none" height="6" style="stroke:#595959;stroke-width:1.0;" width="6" x="637" y="272.4316"/><text fill="#000000" font-family="sans-serif" font-size="14" lengthAdjust="spacing" textLength="120" x="649" y="279.7285">branchNumber : int</text><rect fill="none" height="6" style="stroke:#595959;stroke-width:1.0;" width="6" x="637" y="291.0527"/><text fill="#000000" font-family="sans-serif" font-size="14" lengthAdjust="spacing" textLength="73" x="649" y="298.3496">designation</text><rect fill="none" height="6" style="stroke:#595959;stroke-width:1.0;" width="6" x="637" y="309.6738"/><text fill="#000000" font-family="sans-serif" font-size="14" lengthAdjust="spacing" textLength="51" x="649" y="316.9707">address</text><rect fill="none" height="6" style="stroke:#595959;stroke-width:1.0;" width="6" x="637" y="328.2949"/><text fill="#000000" font-family="sans-serif" font-size="14" lengthAdjust="spacing" textLength="40" x="649" y="335.5918">phone</text><rect fill="none" height="6" style="stroke:#595959;stroke-width:1.0;" width="6" x="637" y="346.916"/><text fill="#000000" font-family="sans-serif" font-size="14" lengthAdjust="spacing" textLength="33" x="649" y="354.2129">email</text><rect fill="none" height="6" style="stroke:#595959;stroke-width:1.0;" width="6" x="637" y="365.5371"/><text fill="#000000" font-family="sans-serif" font-size="14" lengthAdjust="spacing" textLength="68" x="649" y="372.834">vatNumber</text><rect fill="none" height="6" style="stroke:#595959;stroke-width:1.0;" width="6" x="637" y="384.1582"/><text fill="#000000" font-family="sans-serif" font-size="14" lengthAdjust="spacing" textLength="56" x="649" y="391.4551">manager</text></g><!--class Administrator--><g id="elem_Administrator"><rect codeLine="45" fill="#F1F1F1" height="36.6211" id="Administrator" rx="2.5" ry="2.5" style="stroke:#181818;stroke-width:0.5;" width="89" x="218" y="232"/><text fill="#000000" font-family="sans-serif" font-size="14" lengthAdjust="spacing" textLength="83" x="221" y="252.1074">Administrator</text><line style="stroke:#181818;stroke-width:0.5;" x1="219" x2="306" y1="260.6211" y2="260.6211"/></g><!--class Employee--><g id="elem_Employee"><rect codeLine="48" fill="#F1F1F1" height="36.6211" id="Employee" rx="2.5" ry="2.5" style="stroke:#181818;stroke-width:0.5;" width="68" x="871" y="198"/><text fill="#000000" font-family="sans-serif" font-size="14" lengthAdjust="spacing" textLength="62" x="874" y="218.1074">Employee</text><line style="stroke:#181818;stroke-width:0.5;" x1="872" x2="938" y1="226.6211" y2="226.6211"/></g><!--class Role--><g id="elem_Role"><rect codeLine="50" fill="#F1F1F1" height="73.8633" id="Role" rx="2.5" ry="2.5" style="stroke:#181818;stroke-width:0.5;" width="225" x="1024" y="209.5"/><text fill="#000000" font-family="sans-serif" font-size="14" lengthAdjust="spacing" textLength="29" x="1122" y="229.6074">Role</text><line style="stroke:#181818;stroke-width:0.5;" x1="1025" x2="1248" y1="238.1211" y2="238.1211"/><ellipse cx="1035" cy="252.9316" fill="none" rx="3" ry="3" style="stroke:#545454;stroke-width:1.0;"/><text fill="#000000" font-family="sans-serif" font-size="14" lengthAdjust="spacing" textLength="170" x="1044" y="257.2285">ROLE_STORE_MANAGER</text><ellipse cx="1035" cy="271.5527" fill="none" rx="3" ry="3" style="stroke:#545454;stroke-width:1.0;"/><text fill="#000000" font-family="sans-serif" font-size="14" lengthAdjust="spacing" textLength="199" x="1044" y="275.8496">ROLE_REAL_ESTATE_AGENT</text></g><!--link StoreNetwork to Store--><g id="link_StoreNetwork_Store"><path codeLine="54" d="M518.04,349.35 C549.5,343.53 592.52,335.57 628.95,328.83 " fill="none" id="StoreNetwork-Store" style="stroke:#181818;stroke-width:1.0;"/><text fill="#000000" font-family="sans-serif" font-size="13" lengthAdjust="spacing" textLength="21" x="563" y="330.5283">has</text><text fill="#000000" font-family="sans-serif" font-size="13" lengthAdjust="spacing" textLength="7" x="526.0794" y="363.4717">1</text><text fill="#000000" font-family="sans-serif" font-size="13" lengthAdjust="spacing" textLength="5" x="616.1589" y="345.1262">*</text></g><!--link Store to Employee--><g id="link_Store_Employee"><path codeLine="55" d="M775.28,279.9 C807.92,263.82 844.88,245.62 870.8,232.85 " fill="none" id="Store-Employee" style="stroke:#181818;stroke-width:1.0;"/><polygon fill="#000000" points="814.4854,237.9362,805.0726,239.2965,807.6699,244.5694,814.4854,237.9362" style="stroke:#000000;stroke-width:1.0;"/><text fill="#000000" font-family="sans-serif" font-size="13" lengthAdjust="spacing" textLength="21" x="819" y="245.5283">has</text><text fill="#000000" font-family="sans-serif" font-size="13" lengthAdjust="spacing" textLength="7" x="783.1979" y="291.1502">1</text><text fill="#000000" font-family="sans-serif" font-size="13" lengthAdjust="spacing" textLength="20" x="842.9269" y="251.3644">0..*</text></g><!--link Employee to Role--><g id="link_Employee_Role"><path codeLine="56" d="M939.37,220.86 C961.87,223.8 992.98,227.87 1023.79,231.9 " fill="none" id="Employee-Role" style="stroke:#181818;stroke-width:1.0;"/><polygon fill="#000000" points="978.9578,216.7939,970.3702,212.7069,969.608,218.5351,978.9578,216.7939" style="stroke:#000000;stroke-width:1.0;"/><text fill="#000000" font-family="sans-serif" font-size="13" lengthAdjust="spacing" textLength="10" x="983" y="221.5283">is</text><text fill="#000000" font-family="sans-serif" font-size="13" lengthAdjust="spacing" textLength="7" x="947.1807" y="237.6098">1</text><text fill="#000000" font-family="sans-serif" font-size="13" lengthAdjust="spacing" textLength="7" x="1008.9821" y="245.5328">1</text></g><!--link Employee to User--><g id="link_Employee_User"><path codeLine="57" d="M939.37,198.18 C970.71,180.98 1018.72,154.61 1059.4,132.28 " fill="none" id="Employee-to-User" style="stroke:#181818;stroke-width:1.0;"/><polygon fill="none" points="1056.29,126,1077.19,122.51,1063.03,138.27,1056.29,126" style="stroke:#181818;stroke-width:1.0;"/><polygon fill="#000000" points="978.3829,156.7392,969.0398,158.5161,971.8686,163.6685,978.3829,156.7392" style="stroke:#000000;stroke-width:1.0;"/><text fill="#000000" font-family="sans-serif" font-size="13" lengthAdjust="spacing" textLength="10" x="983" y="164.5283">is</text></g><!--link RealEstate to Administrator--><g id="link_RealEstate_Administrator"><path codeLine="59" d="M122.19,304.52 C152.6,292.72 189.51,278.41 217.7,267.48 " fill="none" id="RealEstate-Administrator" style="stroke:#181818;stroke-width:1.0;"/><polygon fill="#000000" points="161.6617,268.3376,152.166,268.868,154.2912,274.3482,161.6617,268.3376" style="stroke:#000000;stroke-width:1.0;"/><text fill="#000000" font-family="sans-serif" font-size="13" lengthAdjust="spacing" textLength="21" x="166" y="275.5283">has</text><text fill="#000000" font-family="sans-serif" font-size="13" lengthAdjust="spacing" textLength="7" x="130.03" y="316.8661">1</text><text fill="#000000" font-family="sans-serif" font-size="13" lengthAdjust="spacing" textLength="7" x="203.0022" y="285.6226">1</text></g><!--link RealEstate to StoreNetwork--><g id="link_RealEstate_StoreNetwork"><path codeLine="60" d="M122.02,330.81 C203.83,337.05 353.54,348.47 427.81,354.13 " fill="none" id="RealEstate-StoreNetwork" style="stroke:#181818;stroke-width:1.0;"/><polygon fill="#000000" points="254.4855,328.5257,245.6901,324.9075,245.2431,330.7683,254.4855,328.5257" style="stroke:#000000;stroke-width:1.0;"/><text fill="#000000" font-family="sans-serif" font-size="13" lengthAdjust="spacing" textLength="21" x="258.5" y="333.5283">has</text><text fill="#000000" font-family="sans-serif" font-size="13" lengthAdjust="spacing" textLength="7" x="129.8382" y="346.5245">1</text><text fill="#000000" font-family="sans-serif" font-size="13" lengthAdjust="spacing" textLength="7" x="413.05" y="369.01">1</text></g><!--link Administrator to Store--><g id="link_Administrator_Store"><path codeLine="61" d="M307.05,256.97 C382.26,268.14 537.23,291.17 628.79,304.77 " fill="none" id="Administrator-Store" style="stroke:#181818;stroke-width:1.0;"/><polygon fill="#000000" points="457.4457,266.8803,448.9307,262.644,448.0669,268.4581,457.4457,266.8803" style="stroke:#000000;stroke-width:1.0;"/><text fill="#000000" font-family="sans-serif" font-size="13" lengthAdjust="spacing" textLength="36" x="461.5" y="271.5283">create</text><text fill="#000000" font-family="sans-serif" font-size="13" lengthAdjust="spacing" textLength="7" x="315.0083" y="273.5332">1</text><text fill="#000000" font-family="sans-serif" font-size="13" lengthAdjust="spacing" textLength="5" x="615.9824" y="318.585">*</text></g><!--link Administrator to StoreNetwork--><g id="link_Administrator_StoreNetwork"><path codeLine="62" d="M292.01,269.05 C305.44,277.5 321.82,287.4 337,295.5 C366.7,311.34 401.2,327.14 427.89,338.83 " fill="none" id="Administrator-StoreNetwork" style="stroke:#181818;stroke-width:1.0;"/><polygon fill="#000000" points="346.4478,288.4296,339.7442,281.6833,337.0591,286.912,346.4478,288.4296" style="stroke:#000000;stroke-width:1.0;"/><text fill="#000000" font-family="sans-serif" font-size="13" lengthAdjust="spacing" textLength="46" x="351" y="291.5283">manage</text><text fill="#000000" font-family="sans-serif" font-size="13" lengthAdjust="spacing" textLength="7" x="292.3253" y="290.7803">1</text><text fill="#000000" font-family="sans-serif" font-size="13" lengthAdjust="spacing" textLength="7" x="413.1428" y="331.5622">1</text></g><!--link Administrator to User--><g id="link_Administrator_User"><path codeLine="63" d="M275.32,231.83 C303.68,189.63 380.06,90.5 472,90.5 C472,90.5 472,90.5 906,90.5 C956.39,90.5 1013,90.5 1057.4,90.5 " fill="none" id="Administrator-to-User" style="stroke:#181818;stroke-width:1.0;"/><polygon fill="none" points="1057.49,83.5,1077.49,90.5,1057.49,97.5,1057.49,83.5" style="stroke:#181818;stroke-width:1.0;"/><text fill="#000000" font-family="sans-serif" font-size="13" lengthAdjust="spacing" textLength="10" x="697" y="86.5283">is</text><text fill="#000000" font-family="sans-serif" font-size="13" lengthAdjust="spacing" textLength="7" x="271.1743" y="220.6401">1</text><text fill="#000000" font-family="sans-serif" font-size="13" lengthAdjust="spacing" textLength="7" x="1062.4809" y="105.638">1</text></g><!--link Administrator to Employee--><g id="link_Administrator_Employee"><path codeLine="64" d="M307.38,244.19 C317.12,242.88 327.4,241.58 337,240.5 C466.47,225.94 498.84,220.28 629,214.5 C693.82,211.62 710.11,214 775,214.5 C807.59,214.75 844.8,215.36 870.86,215.84 " fill="none" id="Administrator-Employee" style="stroke:#181818;stroke-width:1.0;"/><polygon fill="#000000" points="557.9937,206.8943,548.8123,204.4136,549.1077,210.284,557.9937,206.8943" style="stroke:#000000;stroke-width:1.0;"/><text fill="#000000" font-family="sans-serif" font-size="13" lengthAdjust="spacing" textLength="36" x="562" y="212.5283">create</text><text fill="#000000" font-family="sans-serif" font-size="13" lengthAdjust="spacing" textLength="7" x="315.0906" y="238.9114">1</text><text fill="#000000" font-family="sans-serif" font-size="13" lengthAdjust="spacing" textLength="5" x="857.845" y="231.6566">*</text></g><!--SRC=[TL8zR-Cm3DtrAmYFLxYuhXa2U32wz5B0IUU0aLbRY3uCIRrSqUQ_LxPiHqvo6ydtI3u-oHs5xj2Y0cMquQqrYi3R3s9kHZhaHsnewpybWINkKJSo9RWMQtCIke5tb8uOa_JkmHkmecazrA9l4aOpnbfH4t1XUHWmn8fyQsh769Ve75I4idGUFNqn0CX1ew8OOLrRSYucDJbkHTTF7IidEZZXHsxN6asR3tKW6mkaKCWO_aMV8j8qXh4pmuFp5hc7AEJDaRsHSBKr1_3u3_GqBUGNaI4PbYvBWx15HnUsdOojWuIuUUkDfGtvK3mE2X89YGrdbl9XOXuiQjx60s45GliH2Df5et5u1xWsTB9iZ6UthkqAkK8TFeETvHQr4bhqtWKTNnTPfUga-QHUsPbHk1Wg8-EhmWDKho_bVhjxhShzds9JF9TL2bHbyR8ljxjYL-u3jjc54Qaja3rbUPxzoiRZLz2YYumH-ltu6D1Pmq00MBEv4cbFsQ2gDygbQ9v_huSlC27iyZ4lhOlJL_s6zLtUGlh8M_JUtiCjzIFkysv6Zezob_wzxldpBVzRd5WrxVu1]--></g></svg>