<?xml version="1.0" encoding="UTF-8" standalone="no"?><svg xmlns="http://www.w3.org/2000/svg" xmlns:xlink="http://www.w3.org/1999/xlink" contentStyleType="text/css" height="338px" preserveAspectRatio="none" style="width:1181px;height:338px;background:#FFFFFF;" version="1.1" viewBox="0 0 1181 338" width="1181px" zoomAndPan="magnify"><defs/><g><!--class RealEstate--><g id="elem_RealEstate"><rect codeLine="11" fill="#F1F1F1" height="185.5898" id="RealEstate" rx="2.5" ry="2.5" style="stroke:#181818;stroke-width:0.5;" width="115" x="7" y="145.5"/><text fill="#000000" font-family="sans-serif" font-size="14" lengthAdjust="spacing" textLength="69" x="30" y="165.6074">RealEstate</text><line style="stroke:#181818;stroke-width:0.5;" x1="8" x2="121" y1="174.1211" y2="174.1211"/><rect fill="none" height="6" style="stroke:#595959;stroke-width:1.0;" width="6" x="15" y="185.9316"/><text fill="#000000" font-family="sans-serif" font-size="14" lengthAdjust="spacing" textLength="35" x="27" y="193.2285">name</text><rect fill="none" height="6" style="stroke:#595959;stroke-width:1.0;" width="6" x="15" y="204.5527"/><text fill="#000000" font-family="sans-serif" font-size="14" lengthAdjust="spacing" textLength="51" x="27" y="211.8496">address</text><rect fill="none" height="6" style="stroke:#595959;stroke-width:1.0;" width="6" x="15" y="223.1738"/><text fill="#000000" font-family="sans-serif" font-size="14" lengthAdjust="spacing" textLength="76" x="27" y="230.4707">descriptions</text><rect fill="none" height="6" style="stroke:#595959;stroke-width:1.0;" width="6" x="15" y="241.7949"/><text fill="#000000" font-family="sans-serif" font-size="14" lengthAdjust="spacing" textLength="47" x="27" y="249.0918">website</text><rect fill="none" height="6" style="stroke:#595959;stroke-width:1.0;" width="6" x="15" y="260.416"/><text fill="#000000" font-family="sans-serif" font-size="14" lengthAdjust="spacing" textLength="89" x="27" y="267.7129">phoneNumber</text><rect fill="none" height="6" style="stroke:#595959;stroke-width:1.0;" width="6" x="15" y="279.0371"/><text fill="#000000" font-family="sans-serif" font-size="14" lengthAdjust="spacing" textLength="33" x="27" y="286.334">email</text><rect fill="none" height="6" style="stroke:#595959;stroke-width:1.0;" width="6" x="15" y="297.6582"/><text fill="#000000" font-family="sans-serif" font-size="14" lengthAdjust="spacing" textLength="68" x="27" y="304.9551">vatNumber</text><rect fill="none" height="6" style="stroke:#595959;stroke-width:1.0;" width="6" x="15" y="316.2793"/><text fill="#000000" font-family="sans-serif" font-size="14" lengthAdjust="spacing" textLength="27" x="27" y="323.5762">logo</text></g><!--class User--><g id="elem_User"><rect codeLine="22" fill="#F1F1F1" height="166.9688" id="User" rx="2.5" ry="2.5" style="stroke:#181818;stroke-width:0.5;" width="118" x="1002.5" y="7"/><text fill="#000000" font-family="sans-serif" font-size="14" font-style="italic" lengthAdjust="spacing" textLength="30" x="1046.5" y="27.1074">User</text><line style="stroke:#181818;stroke-width:0.5;" x1="1003.5" x2="1119.5" y1="35.6211" y2="35.6211"/><rect fill="none" height="6" style="stroke:#595959;stroke-width:1.0;" width="6" x="1010.5" y="47.4316"/><text fill="#000000" font-family="sans-serif" font-size="14" lengthAdjust="spacing" textLength="35" x="1022.5" y="54.7285">name</text><rect fill="none" height="6" style="stroke:#595959;stroke-width:1.0;" width="6" x="1010.5" y="66.0527"/><text fill="#000000" font-family="sans-serif" font-size="14" lengthAdjust="spacing" textLength="76" x="1022.5" y="73.3496">descriptions</text><rect fill="none" height="6" style="stroke:#595959;stroke-width:1.0;" width="6" x="1010.5" y="84.6738"/><text fill="#000000" font-family="sans-serif" font-size="14" lengthAdjust="spacing" textLength="70" x="1022.5" y="91.9707">tax number</text><rect fill="none" height="6" style="stroke:#595959;stroke-width:1.0;" width="6" x="1010.5" y="103.2949"/><text fill="#000000" font-family="sans-serif" font-size="14" lengthAdjust="spacing" textLength="51" x="1022.5" y="110.5918">address</text><rect fill="none" height="6" style="stroke:#595959;stroke-width:1.0;" width="6" x="1010.5" y="121.916"/><text fill="#000000" font-family="sans-serif" font-size="14" lengthAdjust="spacing" textLength="88" x="1022.5" y="129.2129">email address</text><rect fill="none" height="6" style="stroke:#595959;stroke-width:1.0;" width="6" x="1010.5" y="140.5371"/><text fill="#000000" font-family="sans-serif" font-size="14" lengthAdjust="spacing" textLength="92" x="1022.5" y="147.834">phone number</text><rect fill="none" height="6" style="stroke:#595959;stroke-width:1.0;" width="6" x="1010.5" y="159.1582"/><text fill="#000000" font-family="sans-serif" font-size="14" lengthAdjust="spacing" textLength="60" x="1022.5" y="166.4551">password</text></g><!--class StoreNetwork--><g id="elem_StoreNetwork"><rect codeLine="31" fill="#F1F1F1" height="73.8633" id="StoreNetwork" rx="2.5" ry="2.5" style="stroke:#181818;stroke-width:0.5;" width="90" x="428" y="232.5"/><text fill="#000000" font-family="sans-serif" font-size="14" lengthAdjust="spacing" textLength="84" x="431" y="252.6074">StoreNetwork</text><line style="stroke:#181818;stroke-width:0.5;" x1="429" x2="517" y1="261.1211" y2="261.1211"/><rect fill="none" height="6" style="stroke:#595959;stroke-width:1.0;" width="6" x="436" y="272.9316"/><text fill="#000000" font-family="sans-serif" font-size="14" lengthAdjust="spacing" textLength="35" x="448" y="280.2285">name</text><rect fill="none" height="6" style="stroke:#595959;stroke-width:1.0;" width="6" x="436" y="291.5527"/><text fill="#000000" font-family="sans-serif" font-size="14" lengthAdjust="spacing" textLength="51" x="448" y="298.8496">address</text></g><!--class Store--><g id="elem_Store"><rect codeLine="36" fill="#F1F1F1" height="148.3477" id="Store" rx="2.5" ry="2.5" style="stroke:#181818;stroke-width:0.5;" width="99" x="601" y="166.5"/><text fill="#000000" font-family="sans-serif" font-size="14" lengthAdjust="spacing" textLength="34" x="633.5" y="186.6074">Store</text><line style="stroke:#181818;stroke-width:0.5;" x1="602" x2="699" y1="195.1211" y2="195.1211"/><rect fill="none" height="6" style="stroke:#595959;stroke-width:1.0;" width="6" x="609" y="206.9316"/><text fill="#000000" font-family="sans-serif" font-size="14" lengthAdjust="spacing" textLength="38" x="621" y="214.2285">id : int</text><rect fill="none" height="6" style="stroke:#595959;stroke-width:1.0;" width="6" x="609" y="225.5527"/><text fill="#000000" font-family="sans-serif" font-size="14" lengthAdjust="spacing" textLength="73" x="621" y="232.8496">designation</text><rect fill="none" height="6" style="stroke:#595959;stroke-width:1.0;" width="6" x="609" y="244.1738"/><text fill="#000000" font-family="sans-serif" font-size="14" lengthAdjust="spacing" textLength="49" x="621" y="251.4707">location</text><rect fill="none" height="6" style="stroke:#595959;stroke-width:1.0;" width="6" x="609" y="262.7949"/><text fill="#000000" font-family="sans-serif" font-size="14" lengthAdjust="spacing" textLength="40" x="621" y="270.0918">phone</text><rect fill="none" height="6" style="stroke:#595959;stroke-width:1.0;" width="6" x="609" y="281.416"/><text fill="#000000" font-family="sans-serif" font-size="14" lengthAdjust="spacing" textLength="33" x="621" y="288.7129">email</text><rect fill="none" height="6" style="stroke:#595959;stroke-width:1.0;" width="6" x="609" y="300.0371"/><text fill="#000000" font-family="sans-serif" font-size="14" lengthAdjust="spacing" textLength="56" x="621" y="307.334">manager</text></g><!--class Administrator--><g id="elem_Administrator"><rect codeLine="44" fill="#F1F1F1" height="36.6211" id="Administrator" rx="2.5" ry="2.5" style="stroke:#181818;stroke-width:0.5;" width="89" x="218" y="160"/><text fill="#000000" font-family="sans-serif" font-size="14" lengthAdjust="spacing" textLength="83" x="221" y="180.1074">Administrator</text><line style="stroke:#181818;stroke-width:0.5;" x1="219" x2="306" y1="188.6211" y2="188.6211"/></g><!--class Employee--><g id="elem_Employee"><rect codeLine="47" fill="#F1F1F1" height="36.6211" id="Employee" rx="2.5" ry="2.5" style="stroke:#181818;stroke-width:0.5;" width="68" x="796" y="222"/><text fill="#000000" font-family="sans-serif" font-size="14" lengthAdjust="spacing" textLength="62" x="799" y="242.1074">Employee</text><line style="stroke:#181818;stroke-width:0.5;" x1="797" x2="863" y1="250.6211" y2="250.6211"/></g><!--class Role--><g id="elem_Role"><rect codeLine="49" fill="#F1F1F1" height="73.8633" id="Role" rx="2.5" ry="2.5" style="stroke:#181818;stroke-width:0.5;" width="225" x="949" y="209.5"/><text fill="#000000" font-family="sans-serif" font-size="14" lengthAdjust="spacing" textLength="29" x="1047" y="229.6074">Role</text><line style="stroke:#181818;stroke-width:0.5;" x1="950" x2="1173" y1="238.1211" y2="238.1211"/><ellipse cx="960" cy="252.9316" fill="none" rx="3" ry="3" style="stroke:#545454;stroke-width:1.0;"/><text fill="#000000" font-family="sans-serif" font-size="14" lengthAdjust="spacing" textLength="170" x="969" y="257.2285">ROLE_STORE_MANAGER</text><ellipse cx="960" cy="271.5527" fill="none" rx="3" ry="3" style="stroke:#545454;stroke-width:1.0;"/><text fill="#000000" font-family="sans-serif" font-size="14" lengthAdjust="spacing" textLength="199" x="969" y="275.8496">ROLE_REAL_ESTATE_AGENT</text></g><!--link StoreNetwork to Store--><g id="link_StoreNetwork_Store"><path codeLine="53" d="M518.29,262.18 C543.47,258.02 575.04,252.8 600.9,248.53 " fill="none" id="StoreNetwork-Store" style="stroke:#181818;stroke-width:1.0;"/><text fill="#000000" font-family="sans-serif" font-size="13" lengthAdjust="spacing" textLength="21" x="549" y="249.5283">has</text><text fill="#000000" font-family="sans-serif" font-size="13" lengthAdjust="spacing" textLength="7" x="526.0659" y="276.4305">1</text><text fill="#000000" font-family="sans-serif" font-size="13" lengthAdjust="spacing" textLength="5" x="587.9222" y="265.0851">*</text></g><!--link Store to Employee--><g id="link_Store_Employee"><path codeLine="54" d="M700,240.5 C730.49,240.5 769.01,240.5 795.99,240.5 " fill="none" id="Store-Employee" style="stroke:#181818;stroke-width:1.0;"/><polygon fill="#000000" points="740,231.1455,730.9549,228.2066,730.9549,234.0844,740,231.1455" style="stroke:#000000;stroke-width:1.0;"/><text fill="#000000" font-family="sans-serif" font-size="13" lengthAdjust="spacing" textLength="21" x="744" y="236.5283">has</text><text fill="#000000" font-family="sans-serif" font-size="13" lengthAdjust="spacing" textLength="7" x="708.1156" y="255.8255">1</text><text fill="#000000" font-family="sans-serif" font-size="13" lengthAdjust="spacing" textLength="22" x="765.9726" y="256.102">0..1</text></g><!--link Employee to Role--><g id="link_Employee_Role"><path codeLine="55" d="M864.37,241.37 C886.87,241.96 917.98,242.77 948.79,243.58 " fill="none" id="Employee-Role" style="stroke:#181818;stroke-width:1.0;"/><polygon fill="#000000" points="903.9983,233.2764,895.0332,230.1017,894.8794,235.9776,903.9983,233.2764" style="stroke:#000000;stroke-width:1.0;"/><text fill="#000000" font-family="sans-serif" font-size="13" lengthAdjust="spacing" textLength="10" x="908" y="238.5283">is</text><text fill="#000000" font-family="sans-serif" font-size="13" lengthAdjust="spacing" textLength="7" x="872.1807" y="257.4">1</text><text fill="#000000" font-family="sans-serif" font-size="13" lengthAdjust="spacing" textLength="7" x="933.9821" y="257.9976">1</text></g><!--link Employee to User--><g id="link_Employee_User"><path codeLine="56" d="M859.6,221.81 C890.93,201.33 942.45,167.66 985.47,139.54 " fill="none" id="Employee-to-User" style="stroke:#181818;stroke-width:1.0;"/><polygon fill="none" points="981.82,133.56,1002.39,128.48,989.48,145.28,981.82,133.56" style="stroke:#181818;stroke-width:1.0;"/><polygon fill="#000000" points="903.1853,171.41,894.0061,173.8986,897.2219,178.8187,903.1853,171.41" style="stroke:#000000;stroke-width:1.0;"/><text fill="#000000" font-family="sans-serif" font-size="13" lengthAdjust="spacing" textLength="10" x="908" y="179.5283">is</text></g><!--link RealEstate to Administrator--><g id="link_RealEstate_Administrator"><path codeLine="58" d="M122.19,221.15 C152.6,211.84 189.51,200.54 217.7,191.91 " fill="none" id="RealEstate-Administrator" style="stroke:#181818;stroke-width:1.0;"/><polygon fill="#000000" points="161.781,190.6818,152.2718,190.5195,153.9924,196.1398,161.781,190.6818" style="stroke:#000000;stroke-width:1.0;"/><text fill="#000000" font-family="sans-serif" font-size="13" lengthAdjust="spacing" textLength="21" x="166" y="197.5283">has</text><text fill="#000000" font-family="sans-serif" font-size="13" lengthAdjust="spacing" textLength="7" x="130.03" y="234.0893">1</text><text fill="#000000" font-family="sans-serif" font-size="13" lengthAdjust="spacing" textLength="7" x="203.0022" y="209.4836">1</text></g><!--link RealEstate to StoreNetwork--><g id="link_RealEstate_StoreNetwork"><path codeLine="59" d="M122.02,242.81 C203.83,249.05 353.54,260.47 427.81,266.13 " fill="none" id="RealEstate-StoreNetwork" style="stroke:#181818;stroke-width:1.0;"/><polygon fill="#000000" points="254.4855,241.5257,245.6901,237.9075,245.2431,243.7683,254.4855,241.5257" style="stroke:#000000;stroke-width:1.0;"/><text fill="#000000" font-family="sans-serif" font-size="13" lengthAdjust="spacing" textLength="21" x="258.5" y="246.5283">has</text><text fill="#000000" font-family="sans-serif" font-size="13" lengthAdjust="spacing" textLength="7" x="129.8382" y="258.5245">1</text><text fill="#000000" font-family="sans-serif" font-size="13" lengthAdjust="spacing" textLength="7" x="413.05" y="281.01">1</text></g><!--link Administrator to Store--><g id="link_Administrator_Store"><path codeLine="60" d="M307.28,179.42 C333.66,180.39 367.87,182.39 398,186.5 C469.24,196.21 550.35,215.06 600.73,227.72 " fill="none" id="Administrator-Store" style="stroke:#181818;stroke-width:1.0;"/><polygon fill="#000000" points="457.4336,182.9575,448.9859,178.5886,448.0313,184.3885,457.4336,182.9575" style="stroke:#000000;stroke-width:1.0;"/><text fill="#000000" font-family="sans-serif" font-size="13" lengthAdjust="spacing" textLength="36" x="461.5" y="187.5283">create</text><text fill="#000000" font-family="sans-serif" font-size="13" lengthAdjust="spacing" textLength="7" x="314.9746" y="195.003">1</text><text fill="#000000" font-family="sans-serif" font-size="13" lengthAdjust="spacing" textLength="5" x="588.0528" y="241.1155">*</text></g><!--link Administrator to StoreNetwork--><g id="link_Administrator_StoreNetwork"><path codeLine="61" d="M305.94,197.02 C341.43,212.51 391.86,234.52 427.82,250.22 " fill="none" id="Administrator-StoreNetwork" style="stroke:#181818;stroke-width:1.0;"/><polygon fill="#000000" points="346.5825,206.1457,339.4684,199.8338,337.117,205.2208,346.5825,206.1457" style="stroke:#000000;stroke-width:1.0;"/><text fill="#000000" font-family="sans-serif" font-size="13" lengthAdjust="spacing" textLength="46" x="351" y="209.5283">manage</text><text fill="#000000" font-family="sans-serif" font-size="13" lengthAdjust="spacing" textLength="7" x="310.1731" y="218.7419">1</text><text fill="#000000" font-family="sans-serif" font-size="13" lengthAdjust="spacing" textLength="7" x="413.0616" y="242.855">1</text></g><!--link Administrator to User--><g id="link_Administrator_User"><path codeLine="62" d="M289.02,159.84 C326.93,134.01 401.28,90.5 472,90.5 C472,90.5 472,90.5 831,90.5 C881.39,90.5 938,90.5 982.4,90.5 " fill="none" id="Administrator-to-User" style="stroke:#181818;stroke-width:1.0;"/><polygon fill="none" points="982.49,83.5,1002.49,90.5,982.49,97.5,982.49,83.5" style="stroke:#181818;stroke-width:1.0;"/><text fill="#000000" font-family="sans-serif" font-size="13" lengthAdjust="spacing" textLength="10" x="645.5" y="86.5283">is</text><text fill="#000000" font-family="sans-serif" font-size="13" lengthAdjust="spacing" textLength="7" x="289.0699" y="148.6532">1</text><text fill="#000000" font-family="sans-serif" font-size="13" lengthAdjust="spacing" textLength="7" x="987.4809" y="105.638">1</text></g><!--SRC=[RL9DRzim3BthLn0-Rd2nNdC8u8EnIvS2JdOE68crXUZ3aDHbHPl_FibsR7d9ZUHxudiavS_IzEXGWxR6yivPJH3SEp4_8ptoCxQq3n-Am14FQ5gL4to7mbwaQU4DbIV65Bq521QSRBi0GgP7qXh6M2S50PUEnmP3h2bqLdZ6k4BleI5KjGyOw9C1G0a6DOqH2k78-p4HvBcJVUewLIvqyZ9CtBwpXdRl-aHkB916gSRm3uOSKRQrZ5qPddnmo0ECHdvxSdSM_bCj0GB-1NFh5lF5P4m6qNLfCBPwqKUrYtKYMXYLzy4wsb68nVFW8BEGhU7ASZxSc5B01gG9KneTozRWi7sOvkLvEXYQudb9CTPeuitTxAeIMXgPLXJbFXVrMlVAVb0oS6KK1uF6gl5uy1sQrvVwk3-yDlNnLxMhVjPD3ZHrzNAizuVgK1yZjZl45ldqK3mNPLbyAwOPDz2X7naJzEFfwRbOF0m4W2sRAoCjSfAhj1cVesNvjHqkVKFOyl-MfwlHDqbX-v2tiZxnLc_lv-6EKel7lBkMqr4Uqh-sYJ_FyWy0]--></g></svg>