<?xml version="1.0" encoding="us-ascii" standalone="no"?><svg xmlns="http://www.w3.org/2000/svg" xmlns:xlink="http://www.w3.org/1999/xlink" contentStyleType="text/css" height="1563px" preserveAspectRatio="none" style="width:1830px;height:1563px;background:#FFFFFF;" version="1.1" viewBox="0 0 1830 1563" width="1830px" zoomAndPan="magnify"><defs/><g><rect fill="#FFFFFF" height="1368.457" style="stroke:#181818;stroke-width:1.0;" width="10" x="44.5" y="93.6211"/><rect fill="#FFFFFF" height="31.291" style="stroke:#181818;stroke-width:1.0;" width="10" x="254.5" y="116.9121"/><rect fill="#FFFFFF" height="1282.584" style="stroke:#181818;stroke-width:1.0;" width="10" x="254.5" y="179.4941"/><rect fill="#FFFFFF" height="1228.002" style="stroke:#181818;stroke-width:1.0;" width="10" x="480.5" y="210.7852"/><rect fill="#FFFFFF" height="1186.7109" style="stroke:#181818;stroke-width:1.0;" width="10" x="735" y="252.0762"/><rect fill="#FFFFFF" height="238.4063" style="stroke:#181818;stroke-width:1.0;" width="10" x="871" y="652.8984"/><rect fill="#FFFFFF" height="77.9121" style="stroke:#181818;stroke-width:1.0;" width="10" x="971.5" y="754.1016"/><rect fill="#FFFFFF" height="33.6211" style="stroke:#181818;stroke-width:1.0;" width="10" x="1087.5" y="995.1777"/><rect fill="#FFFFFF" height="33.6211" style="stroke:#181818;stroke-width:1.0;" width="10" x="1160.5" y="1070.0898"/><rect fill="#FFFFFF" height="30" style="stroke:#181818;stroke-width:1.0;" width="10" x="1160.5" y="1209.9141"/><rect fill="#FFFFFF" height="33.6211" style="stroke:#181818;stroke-width:1.0;" width="10" x="1223.5" y="1145.002"/><rect fill="#FFFFFF" height="281.6191" style="stroke:#181818;stroke-width:1.0;" width="10" x="1308" y="329.9883"/><rect fill="#FFFFFF" height="31.291" style="stroke:#181818;stroke-width:1.0;" width="10" x="1467" y="361.2793"/><rect fill="#FFFFFF" height="30" style="stroke:#181818;stroke-width:1.0;" width="10" x="1467" y="1393.7871"/><rect fill="#FFFFFF" height="31.291" style="stroke:#181818;stroke-width:1.0;" width="10" x="1598" y="455.1523"/><rect fill="#FFFFFF" height="30" style="stroke:#181818;stroke-width:1.0;" width="10" x="1598" y="1332.4961"/><rect fill="#FFFFFF" height="31.291" style="stroke:#181818;stroke-width:1.0;" width="10" x="1739" y="549.0254"/><rect fill="#FFFFFF" height="30" style="stroke:#181818;stroke-width:1.0;" width="10" x="1739" y="1271.2051"/><rect fill="none" height="214.0762" style="stroke:#000000;stroke-width:1.5;" width="385" x="684.5" y="670.2285"/><rect fill="none" height="489.1914" style="stroke:#000000;stroke-width:1.5;" width="1139.5" x="684.5" y="942.5957"/><line style="stroke:#181818;stroke-width:0.5;stroke-dasharray:5.0,5.0;" x1="49" x2="49" y1="83.6211" y2="1480.0781"/><line style="stroke:#181818;stroke-width:0.5;stroke-dasharray:5.0,5.0;" x1="259" x2="259" y1="83.6211" y2="1480.0781"/><line style="stroke:#181818;stroke-width:0.5;stroke-dasharray:5.0,5.0;" x1="485" x2="485" y1="83.6211" y2="1480.0781"/><line style="stroke:#181818;stroke-width:0.5;stroke-dasharray:5.0,5.0;" x1="739.5" x2="739.5" y1="250.5957" y2="1480.0781"/><line style="stroke:#181818;stroke-width:0.5;stroke-dasharray:5.0,5.0;" x1="875.5" x2="875.5" y1="651.418" y2="1480.0781"/><line style="stroke:#181818;stroke-width:0.5;stroke-dasharray:5.0,5.0;" x1="976.5" x2="976.5" y1="752.6211" y2="1480.0781"/><line style="stroke:#181818;stroke-width:0.5;stroke-dasharray:5.0,5.0;" x1="1092.5" x2="1092.5" y1="993.6973" y2="1480.0781"/><line style="stroke:#181818;stroke-width:0.5;stroke-dasharray:5.0,5.0;" x1="1165.5" x2="1165.5" y1="1068.6094" y2="1480.0781"/><line style="stroke:#181818;stroke-width:0.5;stroke-dasharray:5.0,5.0;" x1="1228.5" x2="1228.5" y1="1143.5215" y2="1480.0781"/><line style="stroke:#181818;stroke-width:0.5;stroke-dasharray:5.0,5.0;" x1="1312.5" x2="1312.5" y1="83.6211" y2="1480.0781"/><line style="stroke:#181818;stroke-width:0.5;stroke-dasharray:5.0,5.0;" x1="1472" x2="1472" y1="83.6211" y2="1480.0781"/><line style="stroke:#181818;stroke-width:0.5;stroke-dasharray:5.0,5.0;" x1="1603" x2="1603" y1="83.6211" y2="1480.0781"/><line style="stroke:#181818;stroke-width:0.5;stroke-dasharray:5.0,5.0;" x1="1744" x2="1744" y1="83.6211" y2="1480.0781"/><text fill="#000000" font-family="sans-serif" font-size="14" lengthAdjust="spacing" textLength="83" x="5" y="80.1074">Administrator</text><ellipse cx="49.5" cy="13.5" fill="#E3E3E3" rx="8" ry="8" style="stroke:#181818;stroke-width:0.5;"/><path d="M49.5,21.5 L49.5,48.5 M36.5,29.5 L62.5,29.5 M49.5,48.5 L36.5,63.5 M49.5,48.5 L62.5,63.5 " fill="none" style="stroke:#181818;stroke-width:0.5;"/><text fill="#000000" font-family="sans-serif" font-size="14" lengthAdjust="spacing" textLength="83" x="5" y="1494.1855">Administrator</text><ellipse cx="49.5" cy="1506.1992" fill="#E3E3E3" rx="8" ry="8" style="stroke:#181818;stroke-width:0.5;"/><path d="M49.5,1514.1992 L49.5,1541.1992 M36.5,1522.1992 L62.5,1522.1992 M49.5,1541.1992 L36.5,1556.1992 M49.5,1541.1992 L62.5,1556.1992 " fill="none" style="stroke:#181818;stroke-width:0.5;"/><rect fill="#E3E3E3" height="32.6211" rx="2.5" ry="2.5" style="stroke:#181818;stroke-width:0.5;" width="191" x="164" y="50"/><text fill="#000000" font-family="sans-serif" font-size="14" lengthAdjust="spacing" textLength="177" x="171" y="72.1074">:ImportLegacySystemDataUI</text><rect fill="#E3E3E3" height="32.6211" rx="2.5" ry="2.5" style="stroke:#181818;stroke-width:0.5;" width="191" x="164" y="1479.0781"/><text fill="#000000" font-family="sans-serif" font-size="14" lengthAdjust="spacing" textLength="177" x="171" y="1501.1855">:ImportLegacySystemDataUI</text><rect fill="#E3E3E3" height="32.6211" rx="2.5" ry="2.5" style="stroke:#181818;stroke-width:0.5;" width="241" x="365" y="50"/><text fill="#000000" font-family="sans-serif" font-size="14" lengthAdjust="spacing" textLength="227" x="372" y="72.1074">:ImportLegacySystemDataController</text><rect fill="#E3E3E3" height="32.6211" rx="2.5" ry="2.5" style="stroke:#181818;stroke-width:0.5;" width="241" x="365" y="1479.0781"/><text fill="#000000" font-family="sans-serif" font-size="14" lengthAdjust="spacing" textLength="227" x="372" y="1501.1855">:ImportLegacySystemDataController</text><rect fill="#E3E3E3" height="32.6211" rx="2.5" ry="2.5" style="stroke:#181818;stroke-width:0.5;" width="91" x="694.5" y="1479.0781"/><text fill="#000000" font-family="sans-serif" font-size="14" lengthAdjust="spacing" textLength="77" x="701.5" y="1501.1855">:CSVLoader</text><rect fill="#E3E3E3" height="32.6211" rx="2.5" ry="2.5" style="stroke:#181818;stroke-width:0.5;" width="41" x="855.5" y="1479.0781"/><text fill="#000000" font-family="sans-serif" font-size="14" lengthAdjust="spacing" textLength="27" x="862.5" y="1501.1855">:File</text><rect fill="#E3E3E3" height="32.6211" rx="2.5" ry="2.5" style="stroke:#181818;stroke-width:0.5;" width="140" x="906.5" y="1479.0781"/><text fill="#000000" font-family="sans-serif" font-size="14" lengthAdjust="spacing" textLength="126" x="913.5" y="1501.1855">:LegacySystemData</text><rect fill="#E3E3E3" height="32.6211" rx="2.5" ry="2.5" style="stroke:#181818;stroke-width:0.5;" width="72" x="1056.5" y="1479.0781"/><text fill="#000000" font-family="sans-serif" font-size="14" lengthAdjust="spacing" textLength="58" x="1063.5" y="1501.1855">:Property</text><rect fill="#E3E3E3" height="32.6211" rx="2.5" ry="2.5" style="stroke:#181818;stroke-width:0.5;" width="54" x="1138.5" y="1479.0781"/><text fill="#000000" font-family="sans-serif" font-size="14" lengthAdjust="spacing" textLength="40" x="1145.5" y="1501.1855">:Client</text><rect fill="#E3E3E3" height="32.6211" rx="2.5" ry="2.5" style="stroke:#181818;stroke-width:0.5;" width="52" x="1202.5" y="1479.0781"/><text fill="#000000" font-family="sans-serif" font-size="14" lengthAdjust="spacing" textLength="38" x="1209.5" y="1501.1855">:Store</text><rect fill="#E3E3E3" height="32.6211" rx="2.5" ry="2.5" style="stroke:#181818;stroke-width:0.5;" width="97" x="1264.5" y="50"/><text fill="#000000" font-family="sans-serif" font-size="14" lengthAdjust="spacing" textLength="83" x="1271.5" y="72.1074">:Repositories</text><rect fill="#E3E3E3" height="32.6211" rx="2.5" ry="2.5" style="stroke:#181818;stroke-width:0.5;" width="97" x="1264.5" y="1479.0781"/><text fill="#000000" font-family="sans-serif" font-size="14" lengthAdjust="spacing" textLength="83" x="1271.5" y="1501.1855">:Repositories</text><rect fill="#E3E3E3" height="32.6211" rx="2.5" ry="2.5" style="stroke:#181818;stroke-width:0.5;" width="120" x="1412" y="50"/><text fill="#000000" font-family="sans-serif" font-size="14" lengthAdjust="spacing" textLength="106" x="1419" y="72.1074">:StoreRepository</text><rect fill="#E3E3E3" height="32.6211" rx="2.5" ry="2.5" style="stroke:#181818;stroke-width:0.5;" width="120" x="1412" y="1479.0781"/><text fill="#000000" font-family="sans-serif" font-size="14" lengthAdjust="spacing" textLength="106" x="1419" y="1501.1855">:StoreRepository</text><rect fill="#E3E3E3" height="32.6211" rx="2.5" ry="2.5" style="stroke:#181818;stroke-width:0.5;" width="122" x="1542" y="50"/><text fill="#000000" font-family="sans-serif" font-size="14" lengthAdjust="spacing" textLength="108" x="1549" y="72.1074">:ClientRepository</text><rect fill="#E3E3E3" height="32.6211" rx="2.5" ry="2.5" style="stroke:#181818;stroke-width:0.5;" width="122" x="1542" y="1479.0781"/><text fill="#000000" font-family="sans-serif" font-size="14" lengthAdjust="spacing" textLength="108" x="1549" y="1501.1855">:ClientRepository</text><rect fill="#E3E3E3" height="32.6211" rx="2.5" ry="2.5" style="stroke:#181818;stroke-width:0.5;" width="140" x="1674" y="50"/><text fill="#000000" font-family="sans-serif" font-size="14" lengthAdjust="spacing" textLength="126" x="1681" y="72.1074">:PropertyRepository</text><rect fill="#E3E3E3" height="32.6211" rx="2.5" ry="2.5" style="stroke:#181818;stroke-width:0.5;" width="140" x="1674" y="1479.0781"/><text fill="#000000" font-family="sans-serif" font-size="14" lengthAdjust="spacing" textLength="126" x="1681" y="1501.1855">:PropertyRepository</text><rect fill="#FFFFFF" height="1368.457" style="stroke:#181818;stroke-width:1.0;" width="10" x="44.5" y="93.6211"/><rect fill="#FFFFFF" height="31.291" style="stroke:#181818;stroke-width:1.0;" width="10" x="254.5" y="116.9121"/><rect fill="#FFFFFF" height="1282.584" style="stroke:#181818;stroke-width:1.0;" width="10" x="254.5" y="179.4941"/><rect fill="#FFFFFF" height="1228.002" style="stroke:#181818;stroke-width:1.0;" width="10" x="480.5" y="210.7852"/><rect fill="#FFFFFF" height="1186.7109" style="stroke:#181818;stroke-width:1.0;" width="10" x="735" y="252.0762"/><rect fill="#FFFFFF" height="238.4063" style="stroke:#181818;stroke-width:1.0;" width="10" x="871" y="652.8984"/><rect fill="#FFFFFF" height="77.9121" style="stroke:#181818;stroke-width:1.0;" width="10" x="971.5" y="754.1016"/><rect fill="#FFFFFF" height="33.6211" style="stroke:#181818;stroke-width:1.0;" width="10" x="1087.5" y="995.1777"/><rect fill="#FFFFFF" height="33.6211" style="stroke:#181818;stroke-width:1.0;" width="10" x="1160.5" y="1070.0898"/><rect fill="#FFFFFF" height="30" style="stroke:#181818;stroke-width:1.0;" width="10" x="1160.5" y="1209.9141"/><rect fill="#FFFFFF" height="33.6211" style="stroke:#181818;stroke-width:1.0;" width="10" x="1223.5" y="1145.002"/><rect fill="#FFFFFF" height="281.6191" style="stroke:#181818;stroke-width:1.0;" width="10" x="1308" y="329.9883"/><rect fill="#FFFFFF" height="31.291" style="stroke:#181818;stroke-width:1.0;" width="10" x="1467" y="361.2793"/><rect fill="#FFFFFF" height="30" style="stroke:#181818;stroke-width:1.0;" width="10" x="1467" y="1393.7871"/><rect fill="#FFFFFF" height="31.291" style="stroke:#181818;stroke-width:1.0;" width="10" x="1598" y="455.1523"/><rect fill="#FFFFFF" height="30" style="stroke:#181818;stroke-width:1.0;" width="10" x="1598" y="1332.4961"/><rect fill="#FFFFFF" height="31.291" style="stroke:#181818;stroke-width:1.0;" width="10" x="1739" y="549.0254"/><rect fill="#FFFFFF" height="30" style="stroke:#181818;stroke-width:1.0;" width="10" x="1739" y="1271.2051"/><polygon fill="#181818" points="242.5,112.9121,252.5,116.9121,242.5,120.9121,246.5,116.9121" style="stroke:#181818;stroke-width:1.0;"/><line style="stroke:#181818;stroke-width:1.0;" x1="54.5" x2="248.5" y1="116.9121" y2="116.9121"/><text fill="#000000" font-family="sans-serif" font-size="13" font-weight="bold" lengthAdjust="spacing" textLength="7" x="61.5" y="111.6494">1</text><text fill="#000000" font-family="sans-serif" font-size="13" lengthAdjust="spacing" textLength="169" x="72.5" y="111.6494">request to import legacy data</text><polygon fill="#181818" points="65.5,144.2031,55.5,148.2031,65.5,152.2031,61.5,148.2031" style="stroke:#181818;stroke-width:1.0;"/><line style="stroke:#181818;stroke-width:1.0;" x1="59.5" x2="258.5" y1="148.2031" y2="148.2031"/><text fill="#000000" font-family="sans-serif" font-size="13" font-weight="bold" lengthAdjust="spacing" textLength="7" x="71.5" y="142.9404">2</text><text fill="#000000" font-family="sans-serif" font-size="13" lengthAdjust="spacing" textLength="152" x="82.5" y="142.9404">request data (fileDirectory)</text><polygon fill="#181818" points="242.5,175.4941,252.5,179.4941,242.5,183.4941,246.5,179.4941" style="stroke:#181818;stroke-width:1.0;"/><line style="stroke:#181818;stroke-width:1.0;" x1="54.5" x2="248.5" y1="179.4941" y2="179.4941"/><text fill="#000000" font-family="sans-serif" font-size="13" font-weight="bold" lengthAdjust="spacing" textLength="7" x="61.5" y="174.2314">3</text><text fill="#000000" font-family="sans-serif" font-size="13" lengthAdjust="spacing" textLength="118" x="72.5" y="174.2314">input requested data</text><polygon fill="#181818" points="468.5,206.7852,478.5,210.7852,468.5,214.7852,472.5,210.7852" style="stroke:#181818;stroke-width:1.0;"/><line style="stroke:#181818;stroke-width:1.0;" x1="264.5" x2="474.5" y1="210.7852" y2="210.7852"/><text fill="#000000" font-family="sans-serif" font-size="13" font-weight="bold" lengthAdjust="spacing" textLength="7" x="271.5" y="205.5225">4</text><text fill="#000000" font-family="sans-serif" font-size="13" lengthAdjust="spacing" textLength="139" x="282.5" y="205.5225">importData(fileDirectory)</text><polygon fill="#181818" points="682.5,238.0762,692.5,242.0762,682.5,246.0762,686.5,242.0762" style="stroke:#181818;stroke-width:1.0;"/><line style="stroke:#181818;stroke-width:1.0;" x1="490.5" x2="688.5" y1="242.0762" y2="242.0762"/><text fill="#000000" font-family="sans-serif" font-size="13" font-weight="bold" lengthAdjust="spacing" textLength="7" x="497.5" y="236.8135">5</text><text fill="#000000" font-family="sans-serif" font-size="13" lengthAdjust="spacing" textLength="169" x="508.5" y="236.8135">new CSVLoader(fileDirectory)</text><rect fill="#E3E3E3" height="32.6211" rx="2.5" ry="2.5" style="stroke:#181818;stroke-width:0.5;" width="91" x="694.5" y="218.7852"/><text fill="#000000" font-family="sans-serif" font-size="14" lengthAdjust="spacing" textLength="77" x="701.5" y="240.8926">:CSVLoader</text><line style="stroke:#181818;stroke-width:1.0;" x1="745" x2="787" y1="285.6973" y2="285.6973"/><line style="stroke:#181818;stroke-width:1.0;" x1="787" x2="787" y1="285.6973" y2="298.6973"/><line style="stroke:#181818;stroke-width:1.0;" x1="746" x2="787" y1="298.6973" y2="298.6973"/><polygon fill="#181818" points="756,294.6973,746,298.6973,756,302.6973,752,298.6973" style="stroke:#181818;stroke-width:1.0;"/><text fill="#000000" font-family="sans-serif" font-size="13" font-weight="bold" lengthAdjust="spacing" textLength="7" x="752" y="280.4346">6</text><text fill="#000000" font-family="sans-serif" font-size="13" lengthAdjust="spacing" textLength="72" x="763" y="280.4346">validateFile()</text><polygon fill="#181818" points="1296,325.9883,1306,329.9883,1296,333.9883,1300,329.9883" style="stroke:#181818;stroke-width:1.0;"/><line style="stroke:#181818;stroke-width:1.0;" x1="745" x2="1302" y1="329.9883" y2="329.9883"/><text fill="#000000" font-family="sans-serif" font-size="13" font-weight="bold" lengthAdjust="spacing" textLength="7" x="752" y="324.7256">7</text><text fill="#000000" font-family="sans-serif" font-size="13" lengthAdjust="spacing" textLength="75" x="763" y="324.7256">getInstance()</text><polygon fill="#181818" points="1455,357.2793,1465,361.2793,1455,365.2793,1459,361.2793" style="stroke:#181818;stroke-width:1.0;"/><line style="stroke:#181818;stroke-width:1.0;" x1="1318" x2="1461" y1="361.2793" y2="361.2793"/><text fill="#000000" font-family="sans-serif" font-size="13" font-weight="bold" lengthAdjust="spacing" textLength="7" x="1325" y="356.0166">8</text><text fill="#000000" font-family="sans-serif" font-size="13" lengthAdjust="spacing" textLength="119" x="1336" y="356.0166">getStoreRepository()</text><polygon fill="#181818" points="1329,388.5703,1319,392.5703,1329,396.5703,1325,392.5703" style="stroke:#181818;stroke-width:1.0;"/><line style="stroke:#181818;stroke-width:1.0;stroke-dasharray:2.0,2.0;" x1="1323" x2="1471" y1="392.5703" y2="392.5703"/><text fill="#000000" font-family="sans-serif" font-size="13" font-weight="bold" lengthAdjust="spacing" textLength="7" x="1335" y="387.3076">9</text><text fill="#000000" font-family="sans-serif" font-size="13" lengthAdjust="spacing" textLength="91" x="1346" y="387.3076">storeRepository</text><polygon fill="#181818" points="756,419.8613,746,423.8613,756,427.8613,752,423.8613" style="stroke:#181818;stroke-width:1.0;"/><line style="stroke:#181818;stroke-width:1.0;stroke-dasharray:2.0,2.0;" x1="750" x2="1307" y1="423.8613" y2="423.8613"/><text fill="#000000" font-family="sans-serif" font-size="13" font-weight="bold" lengthAdjust="spacing" textLength="14" x="762" y="418.5986">10</text><text fill="#000000" font-family="sans-serif" font-size="13" lengthAdjust="spacing" textLength="91" x="780" y="418.5986">storeRepository</text><polygon fill="#181818" points="1586,451.1523,1596,455.1523,1586,459.1523,1590,455.1523" style="stroke:#181818;stroke-width:1.0;"/><line style="stroke:#181818;stroke-width:1.0;" x1="1318" x2="1592" y1="455.1523" y2="455.1523"/><text fill="#000000" font-family="sans-serif" font-size="13" font-weight="bold" lengthAdjust="spacing" textLength="14" x="1325" y="449.8896">11</text><text fill="#000000" font-family="sans-serif" font-size="13" lengthAdjust="spacing" textLength="119" x="1343" y="449.8896">getStoreRepository()</text><polygon fill="#181818" points="1329,482.4434,1319,486.4434,1329,490.4434,1325,486.4434" style="stroke:#181818;stroke-width:1.0;"/><line style="stroke:#181818;stroke-width:1.0;stroke-dasharray:2.0,2.0;" x1="1323" x2="1602" y1="486.4434" y2="486.4434"/><text fill="#000000" font-family="sans-serif" font-size="13" font-weight="bold" lengthAdjust="spacing" textLength="14" x="1335" y="481.1807">12</text><text fill="#000000" font-family="sans-serif" font-size="13" lengthAdjust="spacing" textLength="93" x="1353" y="481.1807">clientRepository</text><polygon fill="#181818" points="756,513.7344,746,517.7344,756,521.7344,752,517.7344" style="stroke:#181818;stroke-width:1.0;"/><line style="stroke:#181818;stroke-width:1.0;stroke-dasharray:2.0,2.0;" x1="750" x2="1307" y1="517.7344" y2="517.7344"/><text fill="#000000" font-family="sans-serif" font-size="13" font-weight="bold" lengthAdjust="spacing" textLength="14" x="762" y="512.4717">13</text><text fill="#000000" font-family="sans-serif" font-size="13" lengthAdjust="spacing" textLength="95" x="780" y="512.4717">ClientRepository</text><polygon fill="#181818" points="1727,545.0254,1737,549.0254,1727,553.0254,1731,549.0254" style="stroke:#181818;stroke-width:1.0;"/><line style="stroke:#181818;stroke-width:1.0;" x1="1318" x2="1733" y1="549.0254" y2="549.0254"/><text fill="#000000" font-family="sans-serif" font-size="13" font-weight="bold" lengthAdjust="spacing" textLength="14" x="1325" y="543.7627">14</text><text fill="#000000" font-family="sans-serif" font-size="13" lengthAdjust="spacing" textLength="119" x="1343" y="543.7627">getStoreRepository()</text><polygon fill="#181818" points="1329,576.3164,1319,580.3164,1329,584.3164,1325,580.3164" style="stroke:#181818;stroke-width:1.0;"/><line style="stroke:#181818;stroke-width:1.0;stroke-dasharray:2.0,2.0;" x1="1323" x2="1743" y1="580.3164" y2="580.3164"/><text fill="#000000" font-family="sans-serif" font-size="13" font-weight="bold" lengthAdjust="spacing" textLength="14" x="1335" y="575.0537">15</text><text fill="#000000" font-family="sans-serif" font-size="13" lengthAdjust="spacing" textLength="109" x="1353" y="575.0537">propertyRepository</text><polygon fill="#181818" points="756,607.6074,746,611.6074,756,615.6074,752,611.6074" style="stroke:#181818;stroke-width:1.0;"/><line style="stroke:#181818;stroke-width:1.0;stroke-dasharray:2.0,2.0;" x1="750" x2="1312" y1="611.6074" y2="611.6074"/><text fill="#000000" font-family="sans-serif" font-size="13" font-weight="bold" lengthAdjust="spacing" textLength="14" x="762" y="606.3447">16</text><text fill="#000000" font-family="sans-serif" font-size="13" lengthAdjust="spacing" textLength="77" x="780" y="606.3447">propertyRepo</text><polygon fill="#181818" points="843.5,638.8984,853.5,642.8984,843.5,646.8984,847.5,642.8984" style="stroke:#181818;stroke-width:1.0;"/><line style="stroke:#181818;stroke-width:1.0;" x1="745" x2="849.5" y1="642.8984" y2="642.8984"/><text fill="#000000" font-family="sans-serif" font-size="13" font-weight="bold" lengthAdjust="spacing" textLength="14" x="752" y="637.6357">17</text><text fill="#000000" font-family="sans-serif" font-size="13" lengthAdjust="spacing" textLength="53" x="770" y="637.6357">getData()</text><rect fill="#E3E3E3" height="32.6211" rx="2.5" ry="2.5" style="stroke:#181818;stroke-width:0.5;" width="41" x="855.5" y="619.6074"/><text fill="#000000" font-family="sans-serif" font-size="14" lengthAdjust="spacing" textLength="27" x="862.5" y="641.7148">:File</text><path d="M684.5,670.2285 L757.5,670.2285 L757.5,679.5195 L747.5,689.5195 L684.5,689.5195 L684.5,670.2285 " fill="#EEEEEE" style="stroke:#000000;stroke-width:1.5;"/><rect fill="none" height="214.0762" style="stroke:#000000;stroke-width:1.5;" width="385" x="684.5" y="670.2285"/><text fill="#000000" font-family="sans-serif" font-size="13" font-weight="bold" lengthAdjust="spacing" textLength="28" x="699.5" y="685.2568">loop</text><text fill="#000000" font-family="sans-serif" font-size="11" font-weight="bold" lengthAdjust="spacing" textLength="176" x="772.5" y="684.0986">[read all info from the given file]</text><polygon fill="#181818" points="756,708.8105,746,712.8105,756,716.8105,752,712.8105" style="stroke:#181818;stroke-width:1.0;"/><line style="stroke:#181818;stroke-width:1.0;stroke-dasharray:2.0,2.0;" x1="750" x2="870" y1="712.8105" y2="712.8105"/><text fill="#000000" font-family="sans-serif" font-size="13" font-weight="bold" lengthAdjust="spacing" textLength="14" x="762" y="707.5479">18</text><text fill="#000000" font-family="sans-serif" font-size="13" lengthAdjust="spacing" textLength="25" x="780" y="707.5479">data</text><polygon fill="#181818" points="894.5,740.1016,904.5,744.1016,894.5,748.1016,898.5,744.1016" style="stroke:#181818;stroke-width:1.0;"/><line style="stroke:#181818;stroke-width:1.0;" x1="745" x2="900.5" y1="744.1016" y2="744.1016"/><text fill="#000000" font-family="sans-serif" font-size="13" font-weight="bold" lengthAdjust="spacing" textLength="14" x="752" y="738.8389">19</text><text fill="#000000" font-family="sans-serif" font-size="13" lengthAdjust="spacing" textLength="82" x="770" y="738.8389">instance(data)</text><rect fill="#E3E3E3" height="32.6211" rx="2.5" ry="2.5" style="stroke:#181818;stroke-width:0.5;" width="140" x="906.5" y="720.8105"/><text fill="#000000" font-family="sans-serif" font-size="14" lengthAdjust="spacing" textLength="126" x="913.5" y="742.918">:LegacySystemData</text><line style="stroke:#181818;stroke-width:1.0;stroke-dasharray:2.0,2.0;" x1="981.5" x2="1023.5" y1="787.7227" y2="787.7227"/><line style="stroke:#181818;stroke-width:1.0;stroke-dasharray:2.0,2.0;" x1="1023.5" x2="1023.5" y1="787.7227" y2="800.7227"/><line style="stroke:#181818;stroke-width:1.0;stroke-dasharray:2.0,2.0;" x1="982.5" x2="1023.5" y1="800.7227" y2="800.7227"/><polygon fill="#181818" points="992.5,796.7227,982.5,800.7227,992.5,804.7227,988.5,800.7227" style="stroke:#181818;stroke-width:1.0;"/><text fill="#000000" font-family="sans-serif" font-size="13" font-weight="bold" lengthAdjust="spacing" textLength="14" x="988.5" y="782.46">20</text><text fill="#000000" font-family="sans-serif" font-size="13" lengthAdjust="spacing" textLength="51" x="1006.5" y="782.46">validate()</text><polygon fill="#181818" points="756,828.0137,746,832.0137,756,836.0137,752,832.0137" style="stroke:#181818;stroke-width:1.0;"/><line style="stroke:#181818;stroke-width:1.0;stroke-dasharray:2.0,2.0;" x1="750" x2="975.5" y1="832.0137" y2="832.0137"/><text fill="#000000" font-family="sans-serif" font-size="13" font-weight="bold" lengthAdjust="spacing" textLength="14" x="762" y="826.751">21</text><text fill="#000000" font-family="sans-serif" font-size="13" lengthAdjust="spacing" textLength="65" x="780" y="826.751">legacyData</text><line style="stroke:#181818;stroke-width:1.0;" x1="745" x2="787" y1="863.3047" y2="863.3047"/><line style="stroke:#181818;stroke-width:1.0;" x1="787" x2="787" y1="863.3047" y2="876.3047"/><line style="stroke:#181818;stroke-width:1.0;" x1="746" x2="787" y1="876.3047" y2="876.3047"/><polygon fill="#181818" points="756,872.3047,746,876.3047,756,880.3047,752,876.3047" style="stroke:#181818;stroke-width:1.0;"/><text fill="#000000" font-family="sans-serif" font-size="13" font-weight="bold" lengthAdjust="spacing" textLength="14" x="752" y="858.042">22</text><text fill="#000000" font-family="sans-serif" font-size="13" lengthAdjust="spacing" textLength="94" x="770" y="858.042">add(legacyData)</text><line style="stroke:#181818;stroke-width:1.0;stroke-dasharray:2.0,2.0;" x1="745" x2="787" y1="914.5957" y2="914.5957"/><line style="stroke:#181818;stroke-width:1.0;stroke-dasharray:2.0,2.0;" x1="787" x2="787" y1="914.5957" y2="927.5957"/><line style="stroke:#181818;stroke-width:1.0;stroke-dasharray:2.0,2.0;" x1="746" x2="787" y1="927.5957" y2="927.5957"/><polygon fill="#181818" points="756,923.5957,746,927.5957,756,931.5957,752,927.5957" style="stroke:#181818;stroke-width:1.0;"/><text fill="#000000" font-family="sans-serif" font-size="13" font-weight="bold" lengthAdjust="spacing" textLength="14" x="752" y="909.333">23</text><text fill="#000000" font-family="sans-serif" font-size="13" lengthAdjust="spacing" textLength="86" x="770" y="909.333">legacyData list</text><path d="M684.5,942.5957 L757.5,942.5957 L757.5,951.8867 L747.5,961.8867 L684.5,961.8867 L684.5,942.5957 " fill="#EEEEEE" style="stroke:#000000;stroke-width:1.5;"/><rect fill="none" height="489.1914" style="stroke:#000000;stroke-width:1.5;" width="1139.5" x="684.5" y="942.5957"/><text fill="#000000" font-family="sans-serif" font-size="13" font-weight="bold" lengthAdjust="spacing" textLength="28" x="699.5" y="957.624">loop</text><text fill="#000000" font-family="sans-serif" font-size="11" font-weight="bold" lengthAdjust="spacing" textLength="171" x="772.5" y="956.4658">[for all legacyData from the list]</text><polygon fill="#181818" points="1044.5,981.1777,1054.5,985.1777,1044.5,989.1777,1048.5,985.1777" style="stroke:#181818;stroke-width:1.0;"/><line style="stroke:#181818;stroke-width:1.0;" x1="745" x2="1050.5" y1="985.1777" y2="985.1777"/><text fill="#000000" font-family="sans-serif" font-size="13" font-weight="bold" lengthAdjust="spacing" textLength="14" x="752" y="979.915">24</text><text fill="#000000" font-family="sans-serif" font-size="13" lengthAdjust="spacing" textLength="160" x="770" y="979.915">createProperty(propertyInfo)</text><rect fill="#E3E3E3" height="32.6211" rx="2.5" ry="2.5" style="stroke:#181818;stroke-width:0.5;" width="72" x="1056.5" y="961.8867"/><text fill="#000000" font-family="sans-serif" font-size="14" lengthAdjust="spacing" textLength="58" x="1063.5" y="983.9941">:Property</text><polygon fill="#181818" points="756,1024.7988,746,1028.7988,756,1032.7988,752,1028.7988" style="stroke:#181818;stroke-width:1.0;"/><line style="stroke:#181818;stroke-width:1.0;stroke-dasharray:2.0,2.0;" x1="750" x2="1091.5" y1="1028.7988" y2="1028.7988"/><text fill="#000000" font-family="sans-serif" font-size="13" font-weight="bold" lengthAdjust="spacing" textLength="14" x="762" y="1023.5361">25</text><text fill="#000000" font-family="sans-serif" font-size="13" lengthAdjust="spacing" textLength="47" x="780" y="1023.5361">property</text><polygon fill="#181818" points="1126.5,1056.0898,1136.5,1060.0898,1126.5,1064.0898,1130.5,1060.0898" style="stroke:#181818;stroke-width:1.0;"/><line style="stroke:#181818;stroke-width:1.0;" x1="745" x2="1132.5" y1="1060.0898" y2="1060.0898"/><text fill="#000000" font-family="sans-serif" font-size="13" font-weight="bold" lengthAdjust="spacing" textLength="14" x="752" y="1054.8271">26</text><text fill="#000000" font-family="sans-serif" font-size="13" lengthAdjust="spacing" textLength="128" x="770" y="1054.8271">createClient(clientInfo)</text><rect fill="#E3E3E3" height="32.6211" rx="2.5" ry="2.5" style="stroke:#181818;stroke-width:0.5;" width="54" x="1138.5" y="1036.7988"/><text fill="#000000" font-family="sans-serif" font-size="14" lengthAdjust="spacing" textLength="40" x="1145.5" y="1058.9063">:Client</text><polygon fill="#181818" points="756,1099.7109,746,1103.7109,756,1107.7109,752,1103.7109" style="stroke:#181818;stroke-width:1.0;"/><line style="stroke:#181818;stroke-width:1.0;stroke-dasharray:2.0,2.0;" x1="750" x2="1164.5" y1="1103.7109" y2="1103.7109"/><text fill="#000000" font-family="sans-serif" font-size="13" font-weight="bold" lengthAdjust="spacing" textLength="14" x="762" y="1098.4482">27</text><text fill="#000000" font-family="sans-serif" font-size="13" lengthAdjust="spacing" textLength="31" x="780" y="1098.4482">client</text><polygon fill="#181818" points="1190.5,1131.002,1200.5,1135.002,1190.5,1139.002,1194.5,1135.002" style="stroke:#181818;stroke-width:1.0;"/><line style="stroke:#181818;stroke-width:1.0;" x1="745" x2="1196.5" y1="1135.002" y2="1135.002"/><text fill="#000000" font-family="sans-serif" font-size="13" font-weight="bold" lengthAdjust="spacing" textLength="14" x="752" y="1129.7393">28</text><text fill="#000000" font-family="sans-serif" font-size="13" lengthAdjust="spacing" textLength="124" x="770" y="1129.7393">createStore(storeInfo)</text><rect fill="#E3E3E3" height="32.6211" rx="2.5" ry="2.5" style="stroke:#181818;stroke-width:0.5;" width="52" x="1202.5" y="1111.7109"/><text fill="#000000" font-family="sans-serif" font-size="14" lengthAdjust="spacing" textLength="38" x="1209.5" y="1133.8184">:Store</text><polygon fill="#181818" points="756,1174.623,746,1178.623,756,1182.623,752,1178.623" style="stroke:#181818;stroke-width:1.0;"/><line style="stroke:#181818;stroke-width:1.0;stroke-dasharray:2.0,2.0;" x1="750" x2="1227.5" y1="1178.623" y2="1178.623"/><text fill="#000000" font-family="sans-serif" font-size="13" font-weight="bold" lengthAdjust="spacing" textLength="14" x="762" y="1173.3604">29</text><text fill="#000000" font-family="sans-serif" font-size="13" lengthAdjust="spacing" textLength="29" x="780" y="1173.3604">store</text><polygon fill="#181818" points="1148.5,1205.9141,1158.5,1209.9141,1148.5,1213.9141,1152.5,1209.9141" style="stroke:#181818;stroke-width:1.0;"/><line style="stroke:#181818;stroke-width:1.0;" x1="745" x2="1154.5" y1="1209.9141" y2="1209.9141"/><text fill="#000000" font-family="sans-serif" font-size="13" font-weight="bold" lengthAdjust="spacing" textLength="14" x="752" y="1204.6514">30</text><text fill="#000000" font-family="sans-serif" font-size="13" lengthAdjust="spacing" textLength="125" x="770" y="1204.6514">addProperty(property)</text><polygon fill="#181818" points="1727,1267.2051,1737,1271.2051,1727,1275.2051,1731,1271.2051" style="stroke:#181818;stroke-width:1.0;"/><line style="stroke:#181818;stroke-width:1.0;" x1="745" x2="1733" y1="1271.2051" y2="1271.2051"/><text fill="#000000" font-family="sans-serif" font-size="13" font-weight="bold" lengthAdjust="spacing" textLength="14" x="752" y="1265.9424">31</text><text fill="#000000" font-family="sans-serif" font-size="13" lengthAdjust="spacing" textLength="125" x="770" y="1265.9424">addProperty(property)</text><polygon fill="#181818" points="1586,1328.4961,1596,1332.4961,1586,1336.4961,1590,1332.4961" style="stroke:#181818;stroke-width:1.0;"/><line style="stroke:#181818;stroke-width:1.0;" x1="745" x2="1592" y1="1332.4961" y2="1332.4961"/><text fill="#000000" font-family="sans-serif" font-size="13" font-weight="bold" lengthAdjust="spacing" textLength="14" x="752" y="1327.2334">32</text><text fill="#000000" font-family="sans-serif" font-size="13" lengthAdjust="spacing" textLength="93" x="770" y="1327.2334">addClient(client)</text><polygon fill="#181818" points="1455,1389.7871,1465,1393.7871,1455,1397.7871,1459,1393.7871" style="stroke:#181818;stroke-width:1.0;"/><line style="stroke:#181818;stroke-width:1.0;" x1="745" x2="1461" y1="1393.7871" y2="1393.7871"/><text fill="#000000" font-family="sans-serif" font-size="13" font-weight="bold" lengthAdjust="spacing" textLength="14" x="752" y="1388.5244">33</text><text fill="#000000" font-family="sans-serif" font-size="13" lengthAdjust="spacing" textLength="89" x="770" y="1388.5244">addStore(store)</text><polygon fill="#181818" points="60.5,1458.0781,50.5,1462.0781,60.5,1466.0781,56.5,1462.0781" style="stroke:#181818;stroke-width:1.0;"/><line style="stroke:#181818;stroke-width:1.0;stroke-dasharray:2.0,2.0;" x1="54.5" x2="258.5" y1="1462.0781" y2="1462.0781"/><text fill="#000000" font-family="sans-serif" font-size="13" font-weight="bold" lengthAdjust="spacing" textLength="14" x="66.5" y="1456.8154">34</text><text fill="#000000" font-family="sans-serif" font-size="13" lengthAdjust="spacing" textLength="158" x="84.5" y="1456.8154">inform operation successful</text><!--SRC=[dLVDRjmW4Bxp52YNRYBj2-mXKfMeqaevL5sbTsAFTr4nk0OdtRSlu1y6ZErDzX8ppCytmySmqN-uR5ZBQbehgOfBgsgWfks0w6cdOSKVTeQJkGgWBHI6oRF02lh2IlN1vPbMJ6WWX7L6oQv-WvQGRnTU0gsKCc_g7s65KIsz-rxMN79jMcQNTvHfofo4M7-65xnXqj2xmx5kL6jUuCoAw-cg3TJFpB3NepTuFTwa_QIaQPKGq8SffcLY_NJw_Q9OEQW9_vce_E02_6vbFvAzD6plnGlTCj7-sQe6MdFrMismI0493jBqeFrdid-obUlXQFT5akrVq2ZDxGu7xRNQKN3DEPhKhy6basL19Sh595n8Cz5la9WGHmd-pWmC523-3zq_sXEc1mlxRmVQKACezmSyL9MMhgpK_YPxomYtVZtk7tiVmTefqvqxjsVk66oXt7lb4h1v7DhIkpEZ2oZN8mPYEKkFr1ryBcRa0X5ot0kY_MDFn8S7wrJ21vrOkkGtyZsm6E_r8ZewjcxVcU0sCt3itjtdbH5vhCKPp55gsmMAr22AZWYNwY1trlb4jjvtmiTCY2XCe6fEBVZUfsdeE4xM7D5ZEGxE1XLsotzSX729lbG5T0TpUiYxXHYLeKYkz5OTLYB5XHZfCsiQ6vN0xU5BjOZwIqupYf3KevdrhAs2h8PRACasHXG0NQJyzNIzmBS8MolVT5PkfN-xqbsXL6F3i98o8MpVgnIjx2H0pGNecR-3p9ivuSJuG-YFy_uHNaAFau_jmvciW4KFw0pojDKNDYn3IylK8JKRpsCb4Zg9DJmXrz4dAyjTi8YnW2nzrSb2f5czH_ye0Cf5s5cAp4wqigEMEr2aE1rhnc9COEIcFwh2qiB0-9BlnhsZvSZAmKqppTBLozy6SiCrMm3TjoK4kUywkrw-0NSOiF9T4q4zB6dE-kC2Ilyc892-i-syT0DYF-HbdpVywkJLqcUCV3c1eIIUt3DIVBx2juPDteHF1bzjjhTqyZJ_02DYsMR-Mm0Mj1B-XEY8FblKsGeTb3xLfv8H4-SI3xPsedRtQ1pCtHlJrjJLcnck9DLTKO3MLISoSpbQ3Vyak5yg_Gy0]--></g></svg>