<?xml version="1.0" encoding="us-ascii" standalone="no"?><svg xmlns="http://www.w3.org/2000/svg" xmlns:xlink="http://www.w3.org/1999/xlink" contentStyleType="text/css" height="872px" preserveAspectRatio="none" style="width:1290px;height:872px;background:#FFFFFF;" version="1.1" viewBox="0 0 1290 872" width="1290px" zoomAndPan="magnify"><defs/><g><rect fill="#FFFFFF" height="677.5195" style="stroke:#181818;stroke-width:1.0;" width="10" x="31" y="93.6211"/><rect fill="#FFFFFF" height="663.2285" style="stroke:#181818;stroke-width:1.0;" width="10" x="347" y="116.9121"/><rect fill="#FFFFFF" height="581.6465" style="stroke:#181818;stroke-width:1.0;" width="10" x="554" y="158.2031"/><rect fill="#FFFFFF" height="318.9883" style="stroke:#181818;stroke-width:1.0;" width="10" x="776" y="389.5703"/><rect fill="#FFFFFF" height="93.873" style="stroke:#181818;stroke-width:1.0;" width="10" x="986" y="191.8242"/><rect fill="#FFFFFF" height="31.291" style="stroke:#181818;stroke-width:1.0;" width="10" x="1145" y="223.1152"/><rect fill="#FFFFFF" height="31.291" style="stroke:#181818;stroke-width:1.0;" width="10" x="1145" y="316.9883"/><rect fill="#FFFFFF" height="33.6211" style="stroke:#181818;stroke-width:1.0;" width="10" x="1242" y="459.4824"/><rect fill="none" height="94.2031" style="stroke:#000000;stroke-width:1.5;" width="570" x="714" y="406.9004"/><line style="stroke:#181818;stroke-width:0.5;stroke-dasharray:5.0,5.0;" x1="36" x2="36" y1="83.6211" y2="789.1406"/><line style="stroke:#181818;stroke-width:0.5;stroke-dasharray:5.0,5.0;" x1="352" x2="352" y1="83.6211" y2="789.1406"/><line style="stroke:#181818;stroke-width:0.5;stroke-dasharray:5.0,5.0;" x1="559" x2="559" y1="156.7227" y2="789.1406"/><line style="stroke:#181818;stroke-width:0.5;stroke-dasharray:5.0,5.0;" x1="781" x2="781" y1="388.0898" y2="789.1406"/><line style="stroke:#181818;stroke-width:0.5;stroke-dasharray:5.0,5.0;" x1="990.5" x2="990.5" y1="83.6211" y2="789.1406"/><line style="stroke:#181818;stroke-width:0.5;stroke-dasharray:5.0,5.0;" x1="1150" x2="1150" y1="83.6211" y2="789.1406"/><line style="stroke:#181818;stroke-width:0.5;stroke-dasharray:5.0,5.0;" x1="1247" x2="1247" y1="458.002" y2="789.1406"/><text fill="#000000" font-family="sans-serif" font-size="14" lengthAdjust="spacing" textLength="56" x="5" y="80.1074">Manager</text><ellipse cx="36" cy="13.5" fill="#E3E3E3" rx="8" ry="8" style="stroke:#181818;stroke-width:0.5;"/><path d="M36,21.5 L36,48.5 M23,29.5 L49,29.5 M36,48.5 L23,63.5 M36,48.5 L49,63.5 " fill="none" style="stroke:#181818;stroke-width:0.5;"/><text fill="#000000" font-family="sans-serif" font-size="14" lengthAdjust="spacing" textLength="56" x="5" y="803.248">Manager</text><ellipse cx="36" cy="815.2617" fill="#E3E3E3" rx="8" ry="8" style="stroke:#181818;stroke-width:0.5;"/><path d="M36,823.2617 L36,850.2617 M23,831.2617 L49,831.2617 M36,850.2617 L23,865.2617 M36,850.2617 L49,865.2617 " fill="none" style="stroke:#181818;stroke-width:0.5;"/><rect fill="#E3E3E3" height="32.6211" rx="2.5" ry="2.5" style="stroke:#181818;stroke-width:0.5;" width="134" x="285" y="50"/><text fill="#000000" font-family="sans-serif" font-size="14" lengthAdjust="spacing" textLength="120" x="292" y="72.1074">:CalculatePartionUI</text><rect fill="#E3E3E3" height="32.6211" rx="2.5" ry="2.5" style="stroke:#181818;stroke-width:0.5;" width="134" x="285" y="788.1406"/><text fill="#000000" font-family="sans-serif" font-size="14" lengthAdjust="spacing" textLength="120" x="292" y="810.248">:CalculatePartionUI</text><rect fill="#E3E3E3" height="32.6211" rx="2.5" ry="2.5" style="stroke:#181818;stroke-width:0.5;" width="184" x="467" y="788.1406"/><text fill="#000000" font-family="sans-serif" font-size="14" lengthAdjust="spacing" textLength="170" x="474" y="810.248">:CalculatePartionController</text><rect fill="#E3E3E3" height="32.6211" rx="2.5" ry="2.5" style="stroke:#181818;stroke-width:0.5;" width="114" x="724" y="788.1406"/><text fill="#000000" font-family="sans-serif" font-size="14" lengthAdjust="spacing" textLength="100" x="731" y="810.248">:SubsetPartition</text><rect fill="#E3E3E3" height="32.6211" rx="2.5" ry="2.5" style="stroke:#181818;stroke-width:0.5;" width="97" x="942.5" y="50"/><text fill="#000000" font-family="sans-serif" font-size="14" lengthAdjust="spacing" textLength="83" x="949.5" y="72.1074">:Repositories</text><rect fill="#E3E3E3" height="32.6211" rx="2.5" ry="2.5" style="stroke:#181818;stroke-width:0.5;" width="97" x="942.5" y="788.1406"/><text fill="#000000" font-family="sans-serif" font-size="14" lengthAdjust="spacing" textLength="83" x="949.5" y="810.248">:Repositories</text><rect fill="#E3E3E3" height="32.6211" rx="2.5" ry="2.5" style="stroke:#181818;stroke-width:0.5;" width="120" x="1090" y="50"/><text fill="#000000" font-family="sans-serif" font-size="14" lengthAdjust="spacing" textLength="106" x="1097" y="72.1074">:StoreRepository</text><rect fill="#E3E3E3" height="32.6211" rx="2.5" ry="2.5" style="stroke:#181818;stroke-width:0.5;" width="120" x="1090" y="788.1406"/><text fill="#000000" font-family="sans-serif" font-size="14" lengthAdjust="spacing" textLength="106" x="1097" y="810.248">:StoreRepository</text><rect fill="#E3E3E3" height="32.6211" rx="2.5" ry="2.5" style="stroke:#181818;stroke-width:0.5;" width="54" x="1220" y="788.1406"/><text fill="#000000" font-family="sans-serif" font-size="14" lengthAdjust="spacing" textLength="40" x="1227" y="810.248">Tuplet</text><rect fill="#FFFFFF" height="677.5195" style="stroke:#181818;stroke-width:1.0;" width="10" x="31" y="93.6211"/><rect fill="#FFFFFF" height="663.2285" style="stroke:#181818;stroke-width:1.0;" width="10" x="347" y="116.9121"/><rect fill="#FFFFFF" height="581.6465" style="stroke:#181818;stroke-width:1.0;" width="10" x="554" y="158.2031"/><rect fill="#FFFFFF" height="318.9883" style="stroke:#181818;stroke-width:1.0;" width="10" x="776" y="389.5703"/><rect fill="#FFFFFF" height="93.873" style="stroke:#181818;stroke-width:1.0;" width="10" x="986" y="191.8242"/><rect fill="#FFFFFF" height="31.291" style="stroke:#181818;stroke-width:1.0;" width="10" x="1145" y="223.1152"/><rect fill="#FFFFFF" height="31.291" style="stroke:#181818;stroke-width:1.0;" width="10" x="1145" y="316.9883"/><rect fill="#FFFFFF" height="33.6211" style="stroke:#181818;stroke-width:1.0;" width="10" x="1242" y="459.4824"/><polygon fill="#181818" points="335,112.9121,345,116.9121,335,120.9121,339,116.9121" style="stroke:#181818;stroke-width:1.0;"/><line style="stroke:#181818;stroke-width:1.0;" x1="41" x2="341" y1="116.9121" y2="116.9121"/><text fill="#000000" font-family="sans-serif" font-size="13" font-weight="bold" lengthAdjust="spacing" textLength="7" x="48" y="111.6494">1</text><text fill="#000000" font-family="sans-serif" font-size="13" lengthAdjust="spacing" textLength="212" x="59" y="111.6494">request to perform analyses on store</text><polygon fill="#181818" points="455,144.2031,465,148.2031,455,152.2031,459,148.2031" style="stroke:#181818;stroke-width:1.0;"/><line style="stroke:#181818;stroke-width:1.0;" x1="357" x2="461" y1="148.2031" y2="148.2031"/><text fill="#000000" font-family="sans-serif" font-size="13" font-weight="bold" lengthAdjust="spacing" textLength="7" x="364" y="142.9404">2</text><text fill="#000000" font-family="sans-serif" font-size="13" lengthAdjust="spacing" textLength="75" x="375" y="142.9404">calculateAll()</text><rect fill="#E3E3E3" height="32.6211" rx="2.5" ry="2.5" style="stroke:#181818;stroke-width:0.5;" width="184" x="467" y="124.9121"/><text fill="#000000" font-family="sans-serif" font-size="14" lengthAdjust="spacing" textLength="170" x="474" y="147.0195">:CalculatePartionController</text><polygon fill="#181818" points="974,187.8242,984,191.8242,974,195.8242,978,191.8242" style="stroke:#181818;stroke-width:1.0;"/><line style="stroke:#181818;stroke-width:1.0;" x1="564" x2="980" y1="191.8242" y2="191.8242"/><text fill="#000000" font-family="sans-serif" font-size="13" font-weight="bold" lengthAdjust="spacing" textLength="7" x="571" y="186.5615">3</text><text fill="#000000" font-family="sans-serif" font-size="13" lengthAdjust="spacing" textLength="75" x="582" y="186.5615">getInstance()</text><polygon fill="#181818" points="1133,219.1152,1143,223.1152,1133,227.1152,1137,223.1152" style="stroke:#181818;stroke-width:1.0;"/><line style="stroke:#181818;stroke-width:1.0;" x1="996" x2="1139" y1="223.1152" y2="223.1152"/><text fill="#000000" font-family="sans-serif" font-size="13" font-weight="bold" lengthAdjust="spacing" textLength="7" x="1003" y="217.8525">4</text><text fill="#000000" font-family="sans-serif" font-size="13" lengthAdjust="spacing" textLength="119" x="1014" y="217.8525">getStoreRepository()</text><polygon fill="#181818" points="1007,250.4063,997,254.4063,1007,258.4063,1003,254.4063" style="stroke:#181818;stroke-width:1.0;"/><line style="stroke:#181818;stroke-width:1.0;stroke-dasharray:2.0,2.0;" x1="1001" x2="1149" y1="254.4063" y2="254.4063"/><text fill="#000000" font-family="sans-serif" font-size="13" font-weight="bold" lengthAdjust="spacing" textLength="7" x="1013" y="249.1436">5</text><text fill="#000000" font-family="sans-serif" font-size="13" lengthAdjust="spacing" textLength="90" x="1024" y="249.1436">store repository</text><polygon fill="#181818" points="575,281.6973,565,285.6973,575,289.6973,571,285.6973" style="stroke:#181818;stroke-width:1.0;"/><line style="stroke:#181818;stroke-width:1.0;stroke-dasharray:2.0,2.0;" x1="569" x2="990" y1="285.6973" y2="285.6973"/><text fill="#000000" font-family="sans-serif" font-size="13" font-weight="bold" lengthAdjust="spacing" textLength="7" x="581" y="280.4346">6</text><text fill="#000000" font-family="sans-serif" font-size="13" lengthAdjust="spacing" textLength="90" x="592" y="280.4346">store repository</text><polygon fill="#181818" points="1133,312.9883,1143,316.9883,1133,320.9883,1137,316.9883" style="stroke:#181818;stroke-width:1.0;"/><line style="stroke:#181818;stroke-width:1.0;" x1="564" x2="1139" y1="316.9883" y2="316.9883"/><text fill="#000000" font-family="sans-serif" font-size="13" font-weight="bold" lengthAdjust="spacing" textLength="7" x="571" y="311.7256">7</text><text fill="#000000" font-family="sans-serif" font-size="13" lengthAdjust="spacing" textLength="72" x="582" y="311.7256">getAllStore()</text><polygon fill="#181818" points="575,344.2793,565,348.2793,575,352.2793,571,348.2793" style="stroke:#181818;stroke-width:1.0;"/><line style="stroke:#181818;stroke-width:1.0;stroke-dasharray:2.0,2.0;" x1="569" x2="1149" y1="348.2793" y2="348.2793"/><text fill="#000000" font-family="sans-serif" font-size="13" font-weight="bold" lengthAdjust="spacing" textLength="7" x="581" y="343.0166">8</text><text fill="#000000" font-family="sans-serif" font-size="13" lengthAdjust="spacing" textLength="50" x="592" y="343.0166">store list</text><polygon fill="#181818" points="712,375.5703,722,379.5703,712,383.5703,716,379.5703" style="stroke:#181818;stroke-width:1.0;"/><line style="stroke:#181818;stroke-width:1.0;" x1="564" x2="718" y1="379.5703" y2="379.5703"/><text fill="#000000" font-family="sans-serif" font-size="13" font-weight="bold" lengthAdjust="spacing" textLength="7" x="571" y="374.3076">9</text><text fill="#000000" font-family="sans-serif" font-size="13" lengthAdjust="spacing" textLength="125" x="582" y="374.3076">calculateAll(store list)</text><rect fill="#E3E3E3" height="32.6211" rx="2.5" ry="2.5" style="stroke:#181818;stroke-width:0.5;" width="114" x="724" y="356.2793"/><text fill="#000000" font-family="sans-serif" font-size="14" lengthAdjust="spacing" textLength="100" x="731" y="378.3867">:SubsetPartition</text><path d="M714,406.9004 L787,406.9004 L787,416.1914 L777,426.1914 L714,426.1914 L714,406.9004 " fill="#EEEEEE" style="stroke:#000000;stroke-width:1.5;"/><rect fill="none" height="94.2031" style="stroke:#000000;stroke-width:1.5;" width="570" x="714" y="406.9004"/><text fill="#000000" font-family="sans-serif" font-size="13" font-weight="bold" lengthAdjust="spacing" textLength="28" x="729" y="421.9287">loop</text><a href="for" target="_top" title="for" xlink:actuate="onRequest" xlink:href="for" xlink:show="new" xlink:title="for" xlink:type="simple"><text fill="#1D1D1D" font-family="sans-serif" font-size="11" font-weight="bold" lengthAdjust="spacing" text-decoration="underline" textLength="117" x="802" y="420.7705">each store on the list</text></a><polygon fill="#181818" points="1208,445.4824,1218,449.4824,1208,453.4824,1212,449.4824" style="stroke:#181818;stroke-width:1.0;"/><line style="stroke:#181818;stroke-width:1.0;" x1="786" x2="1214" y1="449.4824" y2="449.4824"/><text fill="#000000" font-family="sans-serif" font-size="13" font-weight="bold" lengthAdjust="spacing" textLength="14" x="793" y="444.2197">10</text><text fill="#000000" font-family="sans-serif" font-size="13" lengthAdjust="spacing" textLength="63" x="811" y="444.2197">load Tuplet</text><rect fill="#E3E3E3" height="32.6211" rx="2.5" ry="2.5" style="stroke:#181818;stroke-width:0.5;" width="54" x="1220" y="426.1914"/><text fill="#000000" font-family="sans-serif" font-size="14" lengthAdjust="spacing" textLength="40" x="1227" y="448.2988">Tuplet</text><polygon fill="#181818" points="797,489.1035,787,493.1035,797,497.1035,793,493.1035" style="stroke:#181818;stroke-width:1.0;"/><line style="stroke:#181818;stroke-width:1.0;stroke-dasharray:2.0,2.0;" x1="791" x2="1246" y1="493.1035" y2="493.1035"/><text fill="#000000" font-family="sans-serif" font-size="13" font-weight="bold" lengthAdjust="spacing" textLength="14" x="803" y="487.8408">11</text><text fill="#000000" font-family="sans-serif" font-size="13" lengthAdjust="spacing" textLength="32" x="821" y="487.8408">tuplet</text><line style="stroke:#181818;stroke-width:1.0;stroke-dasharray:2.0,2.0;" x1="786" x2="828" y1="531.3945" y2="531.3945"/><line style="stroke:#181818;stroke-width:1.0;stroke-dasharray:2.0,2.0;" x1="828" x2="828" y1="531.3945" y2="544.3945"/><line style="stroke:#181818;stroke-width:1.0;stroke-dasharray:2.0,2.0;" x1="787" x2="828" y1="544.3945" y2="544.3945"/><polygon fill="#181818" points="797,540.3945,787,544.3945,797,548.3945,793,544.3945" style="stroke:#181818;stroke-width:1.0;"/><text fill="#000000" font-family="sans-serif" font-size="13" font-weight="bold" lengthAdjust="spacing" textLength="14" x="793" y="526.1318">12</text><text fill="#000000" font-family="sans-serif" font-size="13" lengthAdjust="spacing" textLength="67" x="811" y="526.1318">list of tuplet</text><line style="stroke:#181818;stroke-width:1.0;" x1="786" x2="828" y1="575.6855" y2="575.6855"/><line style="stroke:#181818;stroke-width:1.0;" x1="828" x2="828" y1="575.6855" y2="588.6855"/><line style="stroke:#181818;stroke-width:1.0;" x1="787" x2="828" y1="588.6855" y2="588.6855"/><polygon fill="#181818" points="797,584.6855,787,588.6855,797,592.6855,793,588.6855" style="stroke:#181818;stroke-width:1.0;"/><text fill="#000000" font-family="sans-serif" font-size="13" font-weight="bold" lengthAdjust="spacing" textLength="14" x="793" y="570.4229">13</text><text fill="#000000" font-family="sans-serif" font-size="13" lengthAdjust="spacing" textLength="168" x="811" y="570.4229">calculatePartitions(list tuplet)</text><line style="stroke:#181818;stroke-width:1.0;" x1="786" x2="828" y1="619.9766" y2="619.9766"/><line style="stroke:#181818;stroke-width:1.0;" x1="828" x2="828" y1="619.9766" y2="632.9766"/><line style="stroke:#181818;stroke-width:1.0;" x1="787" x2="828" y1="632.9766" y2="632.9766"/><polygon fill="#181818" points="797,628.9766,787,632.9766,797,636.9766,793,632.9766" style="stroke:#181818;stroke-width:1.0;"/><text fill="#000000" font-family="sans-serif" font-size="13" font-weight="bold" lengthAdjust="spacing" textLength="14" x="793" y="614.7139">14</text><text fill="#000000" font-family="sans-serif" font-size="13" lengthAdjust="spacing" textLength="97" x="811" y="614.7139">findMinPartition()</text><line style="stroke:#181818;stroke-width:1.0;" x1="786" x2="828" y1="664.2676" y2="664.2676"/><line style="stroke:#181818;stroke-width:1.0;" x1="828" x2="828" y1="664.2676" y2="677.2676"/><line style="stroke:#181818;stroke-width:1.0;" x1="787" x2="828" y1="677.2676" y2="677.2676"/><polygon fill="#181818" points="797,673.2676,787,677.2676,797,681.2676,793,677.2676" style="stroke:#181818;stroke-width:1.0;"/><text fill="#000000" font-family="sans-serif" font-size="13" font-weight="bold" lengthAdjust="spacing" textLength="14" x="793" y="659.0049">15</text><text fill="#000000" font-family="sans-serif" font-size="13" lengthAdjust="spacing" textLength="140" x="811" y="659.0049">calculateSum(list tuplet)</text><polygon fill="#181818" points="575,704.5586,565,708.5586,575,712.5586,571,708.5586" style="stroke:#181818;stroke-width:1.0;"/><line style="stroke:#181818;stroke-width:1.0;stroke-dasharray:2.0,2.0;" x1="569" x2="780" y1="708.5586" y2="708.5586"/><text fill="#000000" font-family="sans-serif" font-size="13" font-weight="bold" lengthAdjust="spacing" textLength="14" x="581" y="703.2959">16</text><text fill="#000000" font-family="sans-serif" font-size="13" lengthAdjust="spacing" textLength="82" x="599" y="703.2959">subset partion</text><polygon fill="#181818" points="368,735.8496,358,739.8496,368,743.8496,364,739.8496" style="stroke:#181818;stroke-width:1.0;"/><line style="stroke:#181818;stroke-width:1.0;stroke-dasharray:2.0,2.0;" x1="362" x2="558" y1="739.8496" y2="739.8496"/><text fill="#000000" font-family="sans-serif" font-size="13" font-weight="bold" lengthAdjust="spacing" textLength="14" x="374" y="734.5869">17</text><text fill="#000000" font-family="sans-serif" font-size="13" lengthAdjust="spacing" textLength="82" x="392" y="734.5869">subset partion</text><polygon fill="#181818" points="47,767.1406,37,771.1406,47,775.1406,43,771.1406" style="stroke:#181818;stroke-width:1.0;"/><line style="stroke:#181818;stroke-width:1.0;stroke-dasharray:2.0,2.0;" x1="41" x2="346" y1="771.1406" y2="771.1406"/><text fill="#000000" font-family="sans-serif" font-size="13" font-weight="bold" lengthAdjust="spacing" textLength="14" x="53" y="765.8779">18</text><text fill="#000000" font-family="sans-serif" font-size="13" lengthAdjust="spacing" textLength="264" x="71" y="765.8779">display result and inform operation successful</text><!--SRC=[ZPJ1Zfim48RlVefHBarMuWLoY5JjAOULggOvLJquPaYiDHvgcxPv-uuD0SE2ifpm-9_FCpzc_BksZNIoXfeigPkZ6Y6u5eKVTXgftkKLJ-5k41og8EtLv09_aoNzrVOAbJGUXP1j8DlM5tH2VBdf4g4Y2XVw9wGAv63p9YqJtGQaX_vTC2jefHjf0spshzAeriY0tsAOxFcOnEVZ4zqhsU38c1wkXkKixzHUF8QK5DEIs90iOybJvNTio6ikMwDFClS8tETCZk4WloUnVyH4x5t_uKg7ZaN_0iNXV8GzWt-tw0C4WWPTHQu65fYxHmzaEvG0VWOIsn7Nd5qSibvVNfYc7ivyDMQxIxf9RcRDOsyCHTxO9zEk68xMywTNcC4cmCoNV7yC5uV1ZOuuCsm6di177-UIaLdCYqvRQtN5fyGd1sIuOcBnCtf6Nb1CZPwvmjyh6RFcytAbKniM2ZNQ1_7fvgSLTd_6nsirabTgxN-fVCyGDV2J9u83Bk3MLyVtEzmw5FoQwICYLl6ZRGo6L4KCzklrExEotuMJJJrx3s5Pcbcq04DRfcuMooqE0pmrHTNI8MDpWrfD9beSJdwR25twxbb-fMtvfksGlTrz-iHJMpy_wiFjIfCKccx-hjsmsKN8hnS3q_XR0MMGXP4LHny37fDq3wNsZP5t_kjyQm8Fq1AqJREKUAZAYEQJb4BlgzQ8_iaEwL7_0G00]--></g></svg>