<?xml version="1.0" encoding="us-ascii" standalone="no"?><svg xmlns="http://www.w3.org/2000/svg" xmlns:xlink="http://www.w3.org/1999/xlink" contentStyleType="text/css" height="775px" preserveAspectRatio="none" style="width:534px;height:775px;background:#FFFFFF;" version="1.1" viewBox="0 0 534 775" width="534px" zoomAndPan="magnify"><defs/><g><!--class CalculatePartionUI--><g id="elem_CalculatePartionUI"><rect codeLine="7" fill="#F1F1F1" height="48" id="CalculatePartionUI" rx="2.5" ry="2.5" style="stroke:#181818;stroke-width:0.5;" width="148" x="341" y="7"/><ellipse cx="356" cy="23" fill="#ADD1B2" rx="11" ry="11" style="stroke:#181818;stroke-width:1.0;"/><path d="M358.7656,18.875 Q358.9219,18.6563 359.1094,18.5469 Q359.2969,18.4375 359.5156,18.4375 Q359.8906,18.4375 360.125,18.7031 Q360.3594,18.9531 360.3594,19.5625 L360.3594,21.0156 Q360.3594,21.625 360.125,21.8906 Q359.8906,22.1563 359.5156,22.1563 Q359.1719,22.1563 358.9688,21.9531 Q358.7656,21.7656 358.6563,21.25 Q358.6094,20.8906 358.4219,20.7031 Q358.0938,20.3281 357.4844,20.1094 Q356.875,19.8906 356.25,19.8906 Q355.4844,19.8906 354.8438,20.2188 Q354.2188,20.5469 353.7188,21.2969 Q353.2344,22.0469 353.2344,23.0781 L353.2344,24.1719 Q353.2344,25.4063 354.125,26.2344 Q355.0156,27.0469 356.6094,27.0469 Q357.5469,27.0469 358.2031,26.7969 Q358.5938,26.6406 359.0156,26.2031 Q359.2813,25.9375 359.4219,25.8594 Q359.5781,25.7813 359.7813,25.7813 Q360.1094,25.7813 360.3594,26.0469 Q360.625,26.2969 360.625,26.6406 Q360.625,26.9844 360.2813,27.3906 Q359.7813,27.9688 358.9844,28.2969 Q357.9063,28.75 356.6094,28.75 Q355.0938,28.75 353.8906,28.125 Q352.9063,27.625 352.2188,26.5625 Q351.5313,25.4844 351.5313,24.2031 L351.5313,23.0469 Q351.5313,21.7188 352.1406,20.5781 Q352.7656,19.4219 353.8594,18.8125 Q354.9531,18.1875 356.1875,18.1875 Q356.9219,18.1875 357.5625,18.3594 Q358.2188,18.5156 358.7656,18.875 Z " fill="#000000"/><text fill="#000000" font-family="sans-serif" font-size="14" lengthAdjust="spacing" textLength="116" x="370" y="28.7969">CalculatePartionUI</text><line style="stroke:#181818;stroke-width:0.5;" x1="342" x2="488" y1="39" y2="39"/><line style="stroke:#181818;stroke-width:0.5;" x1="342" x2="488" y1="47" y2="47"/></g><!--class CalculatePartionController--><g id="elem_CalculatePartionController"><rect codeLine="10" fill="#F1F1F1" height="103.8633" id="CalculatePartionController" rx="2.5" ry="2.5" style="stroke:#181818;stroke-width:0.5;" width="225" x="302.5" y="116"/><ellipse cx="329.65" cy="132" fill="#ADD1B2" rx="11" ry="11" style="stroke:#181818;stroke-width:1.0;"/><path d="M332.4156,127.875 Q332.5719,127.6563 332.7594,127.5469 Q332.9469,127.4375 333.1656,127.4375 Q333.5406,127.4375 333.775,127.7031 Q334.0094,127.9531 334.0094,128.5625 L334.0094,130.0156 Q334.0094,130.625 333.775,130.8906 Q333.5406,131.1563 333.1656,131.1563 Q332.8219,131.1563 332.6188,130.9531 Q332.4156,130.7656 332.3063,130.25 Q332.2594,129.8906 332.0719,129.7031 Q331.7438,129.3281 331.1344,129.1094 Q330.525,128.8906 329.9,128.8906 Q329.1344,128.8906 328.4938,129.2188 Q327.8688,129.5469 327.3688,130.2969 Q326.8844,131.0469 326.8844,132.0781 L326.8844,133.1719 Q326.8844,134.4063 327.775,135.2344 Q328.6656,136.0469 330.2594,136.0469 Q331.1969,136.0469 331.8531,135.7969 Q332.2438,135.6406 332.6656,135.2031 Q332.9313,134.9375 333.0719,134.8594 Q333.2281,134.7813 333.4313,134.7813 Q333.7594,134.7813 334.0094,135.0469 Q334.275,135.2969 334.275,135.6406 Q334.275,135.9844 333.9313,136.3906 Q333.4313,136.9688 332.6344,137.2969 Q331.5563,137.75 330.2594,137.75 Q328.7438,137.75 327.5406,137.125 Q326.5563,136.625 325.8688,135.5625 Q325.1813,134.4844 325.1813,133.2031 L325.1813,132.0469 Q325.1813,130.7188 325.7906,129.5781 Q326.4156,128.4219 327.5094,127.8125 Q328.6031,127.1875 329.8375,127.1875 Q330.5719,127.1875 331.2125,127.3594 Q331.8688,127.5156 332.4156,127.875 Z " fill="#000000"/><text fill="#000000" font-family="sans-serif" font-size="14" lengthAdjust="spacing" textLength="166" x="346.35" y="137.7969">CalculatePartionController</text><line style="stroke:#181818;stroke-width:0.5;" x1="303.5" x2="526.5" y1="148" y2="148"/><line style="stroke:#181818;stroke-width:0.5;" x1="303.5" x2="526.5" y1="156" y2="156"/><ellipse cx="313.5" cy="170.8105" fill="#84BE84" rx="3" ry="3" style="stroke:#038048;stroke-width:1.0;"/><text fill="#000000" font-family="sans-serif" font-size="14" lengthAdjust="spacing" textLength="169" x="322.5" y="175.1074">calculateWithNstores(int n)</text><ellipse cx="313.5" cy="189.4316" fill="#84BE84" rx="3" ry="3" style="stroke:#038048;stroke-width:1.0;"/><text fill="#000000" font-family="sans-serif" font-size="14" lengthAdjust="spacing" textLength="81" x="322.5" y="193.7285">calculateAll()</text><ellipse cx="313.5" cy="208.0527" fill="#84BE84" rx="3" ry="3" style="stroke:#038048;stroke-width:1.0;"/><text fill="#000000" font-family="sans-serif" font-size="14" lengthAdjust="spacing" textLength="199" x="322.5" y="212.3496">getNstoreFromRepository(int n)</text></g><!--class EmployeeProject--><g id="elem_EmployeeProject"><rect codeLine="17" fill="#F1F1F1" height="48" id="EmployeeProject" rx="2.5" ry="2.5" style="stroke:#181818;stroke-width:0.5;" width="138" x="7" y="144"/><ellipse cx="22" cy="160" fill="#ADD1B2" rx="11" ry="11" style="stroke:#181818;stroke-width:1.0;"/><path d="M24.7656,155.875 Q24.9219,155.6563 25.1094,155.5469 Q25.2969,155.4375 25.5156,155.4375 Q25.8906,155.4375 26.125,155.7031 Q26.3594,155.9531 26.3594,156.5625 L26.3594,158.0156 Q26.3594,158.625 26.125,158.8906 Q25.8906,159.1563 25.5156,159.1563 Q25.1719,159.1563 24.9688,158.9531 Q24.7656,158.7656 24.6563,158.25 Q24.6094,157.8906 24.4219,157.7031 Q24.0938,157.3281 23.4844,157.1094 Q22.875,156.8906 22.25,156.8906 Q21.4844,156.8906 20.8438,157.2188 Q20.2188,157.5469 19.7188,158.2969 Q19.2344,159.0469 19.2344,160.0781 L19.2344,161.1719 Q19.2344,162.4063 20.125,163.2344 Q21.0156,164.0469 22.6094,164.0469 Q23.5469,164.0469 24.2031,163.7969 Q24.5938,163.6406 25.0156,163.2031 Q25.2813,162.9375 25.4219,162.8594 Q25.5781,162.7813 25.7813,162.7813 Q26.1094,162.7813 26.3594,163.0469 Q26.625,163.2969 26.625,163.6406 Q26.625,163.9844 26.2813,164.3906 Q25.7813,164.9688 24.9844,165.2969 Q23.9063,165.75 22.6094,165.75 Q21.0938,165.75 19.8906,165.125 Q18.9063,164.625 18.2188,163.5625 Q17.5313,162.4844 17.5313,161.2031 L17.5313,160.0469 Q17.5313,158.7188 18.1406,157.5781 Q18.7656,156.4219 19.8594,155.8125 Q20.9531,155.1875 22.1875,155.1875 Q22.9219,155.1875 23.5625,155.3594 Q24.2188,155.5156 24.7656,155.875 Z " fill="#000000"/><text fill="#000000" font-family="sans-serif" font-size="14" lengthAdjust="spacing" textLength="106" x="36" y="165.7969">EmployeeProject</text><line style="stroke:#181818;stroke-width:0.5;" x1="8" x2="144" y1="176" y2="176"/><line style="stroke:#181818;stroke-width:0.5;" x1="8" x2="144" y1="184" y2="184"/></g><!--class User--><g id="elem_User"><rect codeLine="19" fill="#F1F1F1" height="48" id="User" rx="2.5" ry="2.5" style="stroke:#181818;stroke-width:0.5;" width="62" x="205" y="144"/><ellipse cx="220" cy="160" fill="#A9DCDF" rx="11" ry="11" style="stroke:#181818;stroke-width:1.0;"/><path d="M222.1875,161.7656 L218.0469,161.7656 L217.625,162.7969 L218.0469,162.7969 Q218.6563,162.7969 218.9219,163.0313 Q219.1875,163.2656 219.1875,163.6563 Q219.1875,164.0313 218.9219,164.2656 Q218.6563,164.5 218.0469,164.5 L215.75,164.5 Q215.1406,164.5 214.8906,164.2656 Q214.625,164.0313 214.625,163.6406 Q214.625,163.2656 214.9063,163.0313 Q215.1719,162.7813 215.7969,162.7969 L218.4688,156.1406 L217.3594,156.1406 Q216.75,156.1406 216.4844,155.9063 Q216.2188,155.6719 216.2188,155.2813 Q216.2188,154.9063 216.4844,154.6719 Q216.75,154.4375 217.3594,154.4375 L221.0313,154.4375 L224.4219,162.7969 Q225.0156,162.7969 225.2031,162.9375 Q225.5938,163.2031 225.5938,163.6563 Q225.5938,164.0313 225.3281,164.2656 Q225.0781,164.5 224.4688,164.5 L222.1719,164.5 Q221.5625,164.5 221.2969,164.2656 Q221.0313,164.0313 221.0313,163.6406 Q221.0313,163.2656 221.2969,163.0313 Q221.5625,162.7969 222.1719,162.7969 L222.5938,162.7969 L222.1875,161.7656 Z M221.4688,160.0625 L220.1094,156.6875 L218.7344,160.0625 L221.4688,160.0625 Z " fill="#000000"/><text fill="#000000" font-family="sans-serif" font-size="14" font-style="italic" lengthAdjust="spacing" textLength="30" x="234" y="165.7969">User</text><line style="stroke:#181818;stroke-width:0.5;" x1="206" x2="266" y1="176" y2="176"/><line style="stroke:#181818;stroke-width:0.5;" x1="206" x2="266" y1="184" y2="184"/></g><!--class Store--><g id="elem_Store"><rect codeLine="23" fill="#F1F1F1" height="66.6211" id="Store" rx="2.5" ry="2.5" style="stroke:#181818;stroke-width:0.5;" width="121" x="354.5" y="565"/><ellipse cx="394.25" cy="581" fill="#ADD1B2" rx="11" ry="11" style="stroke:#181818;stroke-width:1.0;"/><path d="M397.0156,576.875 Q397.1719,576.6563 397.3594,576.5469 Q397.5469,576.4375 397.7656,576.4375 Q398.1406,576.4375 398.375,576.7031 Q398.6094,576.9531 398.6094,577.5625 L398.6094,579.0156 Q398.6094,579.625 398.375,579.8906 Q398.1406,580.1563 397.7656,580.1563 Q397.4219,580.1563 397.2188,579.9531 Q397.0156,579.7656 396.9063,579.25 Q396.8594,578.8906 396.6719,578.7031 Q396.3438,578.3281 395.7344,578.1094 Q395.125,577.8906 394.5,577.8906 Q393.7344,577.8906 393.0938,578.2188 Q392.4688,578.5469 391.9688,579.2969 Q391.4844,580.0469 391.4844,581.0781 L391.4844,582.1719 Q391.4844,583.4063 392.375,584.2344 Q393.2656,585.0469 394.8594,585.0469 Q395.7969,585.0469 396.4531,584.7969 Q396.8438,584.6406 397.2656,584.2031 Q397.5313,583.9375 397.6719,583.8594 Q397.8281,583.7813 398.0313,583.7813 Q398.3594,583.7813 398.6094,584.0469 Q398.875,584.2969 398.875,584.6406 Q398.875,584.9844 398.5313,585.3906 Q398.0313,585.9688 397.2344,586.2969 Q396.1563,586.75 394.8594,586.75 Q393.3438,586.75 392.1406,586.125 Q391.1563,585.625 390.4688,584.5625 Q389.7813,583.4844 389.7813,582.2031 L389.7813,581.0469 Q389.7813,579.7188 390.3906,578.5781 Q391.0156,577.4219 392.1094,576.8125 Q393.2031,576.1875 394.4375,576.1875 Q395.1719,576.1875 395.8125,576.3594 Q396.4688,576.5156 397.0156,576.875 Z " fill="#000000"/><text fill="#000000" font-family="sans-serif" font-size="14" lengthAdjust="spacing" textLength="34" x="413.75" y="586.7969">Store</text><line style="stroke:#181818;stroke-width:0.5;" x1="355.5" x2="474.5" y1="597" y2="597"/><line style="stroke:#181818;stroke-width:0.5;" x1="355.5" x2="474.5" y1="605" y2="605"/><ellipse cx="365.5" cy="619.8105" fill="#84BE84" rx="3" ry="3" style="stroke:#038048;stroke-width:1.0;"/><text fill="#000000" font-family="sans-serif" font-size="14" lengthAdjust="spacing" textLength="95" x="374.5" y="624.1074">getProperties()</text></g><!--class Property--><g id="elem_Property"><rect codeLine="27" fill="#F1F1F1" height="48" id="Property" rx="2.5" ry="2.5" style="stroke:#181818;stroke-width:0.5;" width="86" x="372" y="720"/><ellipse cx="387" cy="736" fill="#ADD1B2" rx="11" ry="11" style="stroke:#181818;stroke-width:1.0;"/><path d="M389.7656,731.875 Q389.9219,731.6563 390.1094,731.5469 Q390.2969,731.4375 390.5156,731.4375 Q390.8906,731.4375 391.125,731.7031 Q391.3594,731.9531 391.3594,732.5625 L391.3594,734.0156 Q391.3594,734.625 391.125,734.8906 Q390.8906,735.1563 390.5156,735.1563 Q390.1719,735.1563 389.9688,734.9531 Q389.7656,734.7656 389.6563,734.25 Q389.6094,733.8906 389.4219,733.7031 Q389.0938,733.3281 388.4844,733.1094 Q387.875,732.8906 387.25,732.8906 Q386.4844,732.8906 385.8438,733.2188 Q385.2188,733.5469 384.7188,734.2969 Q384.2344,735.0469 384.2344,736.0781 L384.2344,737.1719 Q384.2344,738.4063 385.125,739.2344 Q386.0156,740.0469 387.6094,740.0469 Q388.5469,740.0469 389.2031,739.7969 Q389.5938,739.6406 390.0156,739.2031 Q390.2813,738.9375 390.4219,738.8594 Q390.5781,738.7813 390.7813,738.7813 Q391.1094,738.7813 391.3594,739.0469 Q391.625,739.2969 391.625,739.6406 Q391.625,739.9844 391.2813,740.3906 Q390.7813,740.9688 389.9844,741.2969 Q388.9063,741.75 387.6094,741.75 Q386.0938,741.75 384.8906,741.125 Q383.9063,740.625 383.2188,739.5625 Q382.5313,738.4844 382.5313,737.2031 L382.5313,736.0469 Q382.5313,734.7188 383.1406,733.5781 Q383.7656,732.4219 384.8594,731.8125 Q385.9531,731.1875 387.1875,731.1875 Q387.9219,731.1875 388.5625,731.3594 Q389.2188,731.5156 389.7656,731.875 Z " fill="#000000"/><text fill="#000000" font-family="sans-serif" font-size="14" lengthAdjust="spacing" textLength="54" x="401" y="741.7969">Property</text><line style="stroke:#181818;stroke-width:0.5;" x1="373" x2="457" y1="752" y2="752"/><line style="stroke:#181818;stroke-width:0.5;" x1="373" x2="457" y1="760" y2="760"/></g><!--class SubsetPartition--><g id="elem_SubsetPartition"><rect codeLine="30" fill="#F1F1F1" height="178.3477" id="SubsetPartition" rx="2.5" ry="2.5" style="stroke:#181818;stroke-width:0.5;" width="151" x="169.5" y="299"/><ellipse cx="194.85" cy="315" fill="#ADD1B2" rx="11" ry="11" style="stroke:#181818;stroke-width:1.0;"/><path d="M197.6156,310.875 Q197.7719,310.6563 197.9594,310.5469 Q198.1469,310.4375 198.3656,310.4375 Q198.7406,310.4375 198.975,310.7031 Q199.2094,310.9531 199.2094,311.5625 L199.2094,313.0156 Q199.2094,313.625 198.975,313.8906 Q198.7406,314.1563 198.3656,314.1563 Q198.0219,314.1563 197.8188,313.9531 Q197.6156,313.7656 197.5063,313.25 Q197.4594,312.8906 197.2719,312.7031 Q196.9438,312.3281 196.3344,312.1094 Q195.725,311.8906 195.1,311.8906 Q194.3344,311.8906 193.6938,312.2188 Q193.0688,312.5469 192.5688,313.2969 Q192.0844,314.0469 192.0844,315.0781 L192.0844,316.1719 Q192.0844,317.4063 192.975,318.2344 Q193.8656,319.0469 195.4594,319.0469 Q196.3969,319.0469 197.0531,318.7969 Q197.4438,318.6406 197.8656,318.2031 Q198.1313,317.9375 198.2719,317.8594 Q198.4281,317.7813 198.6313,317.7813 Q198.9594,317.7813 199.2094,318.0469 Q199.475,318.2969 199.475,318.6406 Q199.475,318.9844 199.1313,319.3906 Q198.6313,319.9688 197.8344,320.2969 Q196.7563,320.75 195.4594,320.75 Q193.9438,320.75 192.7406,320.125 Q191.7563,319.625 191.0688,318.5625 Q190.3813,317.4844 190.3813,316.2031 L190.3813,315.0469 Q190.3813,313.7188 190.9906,312.5781 Q191.6156,311.4219 192.7094,310.8125 Q193.8031,310.1875 195.0375,310.1875 Q195.7719,310.1875 196.4125,310.3594 Q197.0688,310.5156 197.6156,310.875 Z " fill="#000000"/><text fill="#000000" font-family="sans-serif" font-size="14" lengthAdjust="spacing" textLength="96" x="211.15" y="320.7969">SubsetPartition</text><line style="stroke:#181818;stroke-width:0.5;" x1="170.5" x2="319.5" y1="331" y2="331"/><line style="stroke:#181818;stroke-width:0.5;" x1="170.5" x2="319.5" y1="339" y2="339"/><ellipse cx="180.5" cy="353.8105" fill="#84BE84" rx="3" ry="3" style="stroke:#038048;stroke-width:1.0;"/><text fill="#000000" font-family="sans-serif" font-size="14" lengthAdjust="spacing" textLength="107" x="189.5" y="358.1074">findMinPartition()</text><ellipse cx="180.5" cy="372.4316" fill="#84BE84" rx="3" ry="3" style="stroke:#038048;stroke-width:1.0;"/><text fill="#000000" font-family="sans-serif" font-size="14" lengthAdjust="spacing" textLength="125" x="189.5" y="376.7285">calculatePartitions()</text><ellipse cx="180.5" cy="391.0527" fill="#84BE84" rx="3" ry="3" style="stroke:#038048;stroke-width:1.0;"/><text fill="#000000" font-family="sans-serif" font-size="14" lengthAdjust="spacing" textLength="77" x="189.5" y="395.3496">loadTuplet()</text><ellipse cx="180.5" cy="409.6738" fill="#84BE84" rx="3" ry="3" style="stroke:#038048;stroke-width:1.0;"/><text fill="#000000" font-family="sans-serif" font-size="14" lengthAdjust="spacing" textLength="94" x="189.5" y="413.9707">calculateSum()</text><ellipse cx="180.5" cy="428.2949" fill="#84BE84" rx="3" ry="3" style="stroke:#038048;stroke-width:1.0;"/><text fill="#000000" font-family="sans-serif" font-size="14" lengthAdjust="spacing" textLength="95" x="189.5" y="432.5918">getDifference()</text><ellipse cx="180.5" cy="446.916" fill="#84BE84" rx="3" ry="3" style="stroke:#038048;stroke-width:1.0;"/><text fill="#000000" font-family="sans-serif" font-size="14" lengthAdjust="spacing" textLength="110" x="189.5" y="451.2129">getSumSubset1()</text><ellipse cx="180.5" cy="465.5371" fill="#84BE84" rx="3" ry="3" style="stroke:#038048;stroke-width:1.0;"/><text fill="#000000" font-family="sans-serif" font-size="14" lengthAdjust="spacing" textLength="110" x="189.5" y="469.834">getSumSubset2()</text></g><!--class Tuplet--><g id="elem_Tuplet"><rect codeLine="39" fill="#F1F1F1" height="85.2422" id="Tuplet" rx="2.5" ry="2.5" style="stroke:#181818;stroke-width:0.5;" width="134" x="152" y="556"/><ellipse cx="194.9" cy="572" fill="#ADD1B2" rx="11" ry="11" style="stroke:#181818;stroke-width:1.0;"/><path d="M197.6656,567.875 Q197.8219,567.6563 198.0094,567.5469 Q198.1969,567.4375 198.4156,567.4375 Q198.7906,567.4375 199.025,567.7031 Q199.2594,567.9531 199.2594,568.5625 L199.2594,570.0156 Q199.2594,570.625 199.025,570.8906 Q198.7906,571.1563 198.4156,571.1563 Q198.0719,571.1563 197.8688,570.9531 Q197.6656,570.7656 197.5563,570.25 Q197.5094,569.8906 197.3219,569.7031 Q196.9938,569.3281 196.3844,569.1094 Q195.775,568.8906 195.15,568.8906 Q194.3844,568.8906 193.7438,569.2188 Q193.1188,569.5469 192.6188,570.2969 Q192.1344,571.0469 192.1344,572.0781 L192.1344,573.1719 Q192.1344,574.4063 193.025,575.2344 Q193.9156,576.0469 195.5094,576.0469 Q196.4469,576.0469 197.1031,575.7969 Q197.4938,575.6406 197.9156,575.2031 Q198.1813,574.9375 198.3219,574.8594 Q198.4781,574.7813 198.6813,574.7813 Q199.0094,574.7813 199.2594,575.0469 Q199.525,575.2969 199.525,575.6406 Q199.525,575.9844 199.1813,576.3906 Q198.6813,576.9688 197.8844,577.2969 Q196.8063,577.75 195.5094,577.75 Q193.9938,577.75 192.7906,577.125 Q191.8063,576.625 191.1188,575.5625 Q190.4313,574.4844 190.4313,573.2031 L190.4313,572.0469 Q190.4313,570.7188 191.0406,569.5781 Q191.6656,568.4219 192.7594,567.8125 Q193.8531,567.1875 195.0875,567.1875 Q195.8219,567.1875 196.4625,567.3594 Q197.1188,567.5156 197.6656,567.875 Z " fill="#000000"/><text fill="#000000" font-family="sans-serif" font-size="14" lengthAdjust="spacing" textLength="40" x="215.1" y="577.7969">Tuplet</text><line style="stroke:#181818;stroke-width:0.5;" x1="153" x2="285" y1="588" y2="588"/><line style="stroke:#181818;stroke-width:0.5;" x1="153" x2="285" y1="596" y2="596"/><text fill="#000000" font-family="sans-serif" font-size="14" lengthAdjust="spacing" textLength="122" x="158" y="615.1074">getPropertyCount()</text><text fill="#000000" font-family="sans-serif" font-size="14" lengthAdjust="spacing" textLength="75" x="158" y="633.7285">getStoreId()</text></g><!--class StoreRepository--><g id="elem_StoreRepository"><rect codeLine="43" fill="#F1F1F1" height="66.6211" id="StoreRepository" rx="2.5" ry="2.5" style="stroke:#181818;stroke-width:0.5;" width="134" x="381" y="354.5"/><ellipse cx="396" cy="370.5" fill="#B4A7E5" rx="11" ry="11" style="stroke:#181818;stroke-width:1.0;"/><path d="M396.9531,367.1406 L396.9531,373.7969 L398.6719,373.7969 Q399.2813,373.7969 399.5469,374.0313 Q399.8125,374.2656 399.8125,374.6563 Q399.8125,375.0313 399.5469,375.2656 Q399.2813,375.5 398.6719,375.5 L393.5313,375.5 Q392.9219,375.5 392.6563,375.2656 Q392.3906,375.0313 392.3906,374.6406 Q392.3906,374.2656 392.6563,374.0313 Q392.9219,373.7969 393.5313,373.7969 L395.25,373.7969 L395.25,367.1406 L393.5313,367.1406 Q392.9219,367.1406 392.6563,366.9063 Q392.3906,366.6719 392.3906,366.2813 Q392.3906,365.9063 392.6563,365.6719 Q392.9219,365.4375 393.5313,365.4375 L398.6719,365.4375 Q399.2813,365.4375 399.5469,365.6719 Q399.8125,365.9063 399.8125,366.2813 Q399.8125,366.6719 399.5469,366.9063 Q399.2813,367.1406 398.6719,367.1406 L396.9531,367.1406 Z " fill="#000000"/><text fill="#000000" font-family="sans-serif" font-size="14" font-style="italic" lengthAdjust="spacing" textLength="102" x="410" y="376.2969">StoreRepository</text><line style="stroke:#181818;stroke-width:0.5;" x1="382" x2="514" y1="386.5" y2="386.5"/><line style="stroke:#181818;stroke-width:0.5;" x1="382" x2="514" y1="394.5" y2="394.5"/><ellipse cx="392" cy="409.3105" fill="#84BE84" rx="3" ry="3" style="stroke:#038048;stroke-width:1.0;"/><text fill="#000000" font-family="sans-serif" font-size="14" lengthAdjust="spacing" textLength="86" x="401" y="413.6074">getStoreList()</text></g><!--link StoreRepository to Store--><g id="link_StoreRepository_Store"><path codeLine="46" d="M442.84,421.58 C436.66,460.63 426.36,525.7 420.17,564.81 " fill="none" id="StoreRepository-Store" style="stroke:#181818;stroke-width:1.0;"/><text fill="#000000" font-family="sans-serif" font-size="13" lengthAdjust="spacing" textLength="37" x="429" y="522.0283">knows</text><text fill="#000000" font-family="sans-serif" font-size="13" lengthAdjust="spacing" textLength="7" x="434.2974" y="443.1635">1</text><text fill="#000000" font-family="sans-serif" font-size="13" lengthAdjust="spacing" textLength="5" x="415.679" y="553.8597">*</text></g><!--link Store to Property--><g id="link_Store_Property"><path codeLine="47" d="M415,632.06 C415,658.85 415,696.16 415,719.95 " fill="none" id="Store-Property" style="stroke:#181818;stroke-width:1.0;"/><polygon fill="#000000" points="420,685.6455,422.9389,676.6004,417.0611,676.6004,420,685.6455" style="stroke:#000000;stroke-width:1.0;"/><text fill="#000000" font-family="sans-serif" font-size="13" lengthAdjust="spacing" textLength="21" x="429" y="686.0283">has</text><text fill="#000000" font-family="sans-serif" font-size="13" lengthAdjust="spacing" textLength="7" x="407.3766" y="653.6399">1</text><text fill="#000000" font-family="sans-serif" font-size="13" lengthAdjust="spacing" textLength="5" x="409.3594" y="708.6747">*</text></g><!--link CalculatePartionUI to CalculatePartionController--><g id="link_CalculatePartionUI_CalculatePartionController"><path codeLine="49" d="M415,55.21 C415,70.44 415,91.05 415,110.43 " fill="none" id="CalculatePartionUI-to-CalculatePartionController" style="stroke:#181818;stroke-width:1.0;"/><polygon fill="#181818" points="415,115.86,419,106.86,415,110.86,411,106.86,415,115.86" style="stroke:#181818;stroke-width:1.0;"/></g><!--link CalculatePartionController to SubsetPartition--><g id="link_CalculatePartionController_SubsetPartition"><path codeLine="50" d="M375.14,220.11 C357.82,242.33 336.96,269.07 317.08,294.57 " fill="none" id="CalculatePartionController-to-SubsetPartition" style="stroke:#181818;stroke-width:1.0;"/><polygon fill="#181818" points="313.89,298.65,322.5868,294.0277,316.9715,294.7125,316.2868,289.0972,313.89,298.65" style="stroke:#181818;stroke-width:1.0;"/><text fill="#000000" font-family="sans-serif" font-size="13" lengthAdjust="spacing" textLength="28" x="351" y="265.0283">uses</text></g><!--link EmployeeProject to SubsetPartition--><g id="link_EmployeeProject_SubsetPartition"><path codeLine="51" d="M94.09,192.33 C113.15,216.92 144.39,257.21 173.51,294.79 " fill="none" id="EmployeeProject-to-SubsetPartition" style="stroke:#181818;stroke-width:1.0;"/><polygon fill="#181818" points="176.69,298.88,174.3531,289.3124,173.6332,294.9233,168.0223,294.2033,176.69,298.88" style="stroke:#181818;stroke-width:1.0;"/><text fill="#000000" font-family="sans-serif" font-size="13" lengthAdjust="spacing" textLength="28" x="151" y="265.0283">uses</text></g><!--link SubsetPartition to Store--><g id="link_SubsetPartition_Store"><path codeLine="52" d="M293.99,477.31 C308.7,503.82 321,526 321,526 C321,526 344.53,543.9 368.05,561.79 " fill="none" id="SubsetPartition-to-Store" style="stroke:#181818;stroke-width:1.0;"/><polygon fill="#181818" points="372.13,564.89,367.399,556.2518,368.1542,561.8581,362.5479,562.6132,372.13,564.89" style="stroke:#181818;stroke-width:1.0;"/><text fill="#000000" font-family="sans-serif" font-size="13" lengthAdjust="spacing" textLength="95" x="322" y="522.0283">perform analysis</text></g><!--link EmployeeProject to User--><g id="link_EmployeeProject_User"><path codeLine="53" d="M145.25,168 C158.4,168 171.94,168 184.42,168 " fill="none" id="EmployeeProject-to-User" style="stroke:#181818;stroke-width:1.0;"/><polygon fill="none" points="184.79,161,204.79,168,184.79,175,184.79,161" style="stroke:#181818;stroke-width:1.0;"/><polygon fill="#000000" points="172.5,155.6455,163.4549,152.7066,163.4549,158.5844,172.5,155.6455" style="stroke:#000000;stroke-width:1.0;"/><text fill="#000000" font-family="sans-serif" font-size="13" lengthAdjust="spacing" textLength="10" x="176.5" y="161.0283">is</text></g><!--reverse link SubsetPartition to Tuplet--><g id="link_SubsetPartition_Tuplet"><path codeLine="54" d="M220.16,490.08 C217.65,500.29 216,507 216,507 C216,507 216,526 216,526 C216,526 216.59,540.18 217.25,555.91 " fill="none" id="SubsetPartition-backto-Tuplet" style="stroke:#181818;stroke-width:1.0;"/><polygon fill="#181818" points="223.32,477.22,218.0037,482.092,220.4562,488.8733,225.7725,484.0012,223.32,477.22" style="stroke:#181818;stroke-width:1.0;"/><polygon fill="#000000" points="221.2208,511.6504,217.8853,520.5569,223.7574,520.8164,221.2208,511.6504" style="stroke:#000000;stroke-width:1.0;"/><text fill="#000000" font-family="sans-serif" font-size="13" lengthAdjust="spacing" textLength="37" x="230" y="522.0283">owned</text></g><!--SRC=[VLBBZjim3BphAuXSzc7ai3qMHO0YRO45scBHTD4pLwOJDR9eI3828-s_bvASEl4-VDFCa9oXUHNsndNeiOMM7UkTvvOW-fxKn7IezxYbJHmiWISTqMtjkI3iiEQ3SLjeq8PpnXf7SUW8EhP3UgYh5qZsaPNI5aE0DLhTMupqW3uQTe_tH_NtDNBDBdgsblnHGGNwHFyoSVSzHFOKhesBu6ukw8_MNcTaIx78laZk7zHnCF8QJZNJuCzjPtaWUl3yMnQGBE5JY1vrXA9u3Cc458mLczHMNCbNoHWfx4WyYw6RgUs83cSHD_rJ47dAbn8ULTKOLtypxZya3IfziOY4fhwLPQn_zfsbU27Qz6rwYurFfcd8azCq0aALYNTpu5qsMaoLdYND56POS-_If17EaU_hN2SR9D-WfhA8QRVJIZBnrOIO2sOoMDmjOBbSt2vA0tWFUyU7K7HdxCcB27OOOANKymiIwUgDsr6lKxbozajaKXyegDbDl2MTmrawnXBt3ViMqA4TWdcXxvzLlYxHcXHmtknskHn_a2W-01ySrUeV]--></g></svg>