<?xml version="1.0" encoding="us-ascii" standalone="no"?><svg xmlns="http://www.w3.org/2000/svg" xmlns:xlink="http://www.w3.org/1999/xlink" contentStyleType="text/css" height="738px" preserveAspectRatio="none" style="width:507px;height:738px;background:#FFFFFF;" version="1.1" viewBox="0 0 507 738" width="507px" zoomAndPan="magnify"><defs/><g><!--class CalculatePartionUI--><g id="elem_CalculatePartionUI"><rect codeLine="7" fill="#F1F1F1" height="48" id="CalculatePartionUI" rx="2.5" ry="2.5" style="stroke:#181818;stroke-width:0.5;" width="148" x="327" y="7"/><ellipse cx="342" cy="23" fill="#ADD1B2" rx="11" ry="11" style="stroke:#181818;stroke-width:1.0;"/><path d="M344.7656,18.875 Q344.9219,18.6563 345.1094,18.5469 Q345.2969,18.4375 345.5156,18.4375 Q345.8906,18.4375 346.125,18.7031 Q346.3594,18.9531 346.3594,19.5625 L346.3594,21.0156 Q346.3594,21.625 346.125,21.8906 Q345.8906,22.1563 345.5156,22.1563 Q345.1719,22.1563 344.9688,21.9531 Q344.7656,21.7656 344.6563,21.25 Q344.6094,20.8906 344.4219,20.7031 Q344.0938,20.3281 343.4844,20.1094 Q342.875,19.8906 342.25,19.8906 Q341.4844,19.8906 340.8438,20.2188 Q340.2188,20.5469 339.7188,21.2969 Q339.2344,22.0469 339.2344,23.0781 L339.2344,24.1719 Q339.2344,25.4063 340.125,26.2344 Q341.0156,27.0469 342.6094,27.0469 Q343.5469,27.0469 344.2031,26.7969 Q344.5938,26.6406 345.0156,26.2031 Q345.2813,25.9375 345.4219,25.8594 Q345.5781,25.7813 345.7813,25.7813 Q346.1094,25.7813 346.3594,26.0469 Q346.625,26.2969 346.625,26.6406 Q346.625,26.9844 346.2813,27.3906 Q345.7813,27.9688 344.9844,28.2969 Q343.9063,28.75 342.6094,28.75 Q341.0938,28.75 339.8906,28.125 Q338.9063,27.625 338.2188,26.5625 Q337.5313,25.4844 337.5313,24.2031 L337.5313,23.0469 Q337.5313,21.7188 338.1406,20.5781 Q338.7656,19.4219 339.8594,18.8125 Q340.9531,18.1875 342.1875,18.1875 Q342.9219,18.1875 343.5625,18.3594 Q344.2188,18.5156 344.7656,18.875 Z " fill="#000000"/><text fill="#000000" font-family="sans-serif" font-size="14" lengthAdjust="spacing" textLength="116" x="356" y="28.7969">CalculatePartionUI</text><line style="stroke:#181818;stroke-width:0.5;" x1="328" x2="474" y1="39" y2="39"/><line style="stroke:#181818;stroke-width:0.5;" x1="328" x2="474" y1="47" y2="47"/></g><!--class CalculatePartionController--><g id="elem_CalculatePartionController"><rect codeLine="10" fill="#F1F1F1" height="85.2422" id="CalculatePartionController" rx="2.5" ry="2.5" style="stroke:#181818;stroke-width:0.5;" width="198" x="302" y="116"/><ellipse cx="317" cy="132" fill="#ADD1B2" rx="11" ry="11" style="stroke:#181818;stroke-width:1.0;"/><path d="M319.7656,127.875 Q319.9219,127.6563 320.1094,127.5469 Q320.2969,127.4375 320.5156,127.4375 Q320.8906,127.4375 321.125,127.7031 Q321.3594,127.9531 321.3594,128.5625 L321.3594,130.0156 Q321.3594,130.625 321.125,130.8906 Q320.8906,131.1563 320.5156,131.1563 Q320.1719,131.1563 319.9688,130.9531 Q319.7656,130.7656 319.6563,130.25 Q319.6094,129.8906 319.4219,129.7031 Q319.0938,129.3281 318.4844,129.1094 Q317.875,128.8906 317.25,128.8906 Q316.4844,128.8906 315.8438,129.2188 Q315.2188,129.5469 314.7188,130.2969 Q314.2344,131.0469 314.2344,132.0781 L314.2344,133.1719 Q314.2344,134.4063 315.125,135.2344 Q316.0156,136.0469 317.6094,136.0469 Q318.5469,136.0469 319.2031,135.7969 Q319.5938,135.6406 320.0156,135.2031 Q320.2813,134.9375 320.4219,134.8594 Q320.5781,134.7813 320.7813,134.7813 Q321.1094,134.7813 321.3594,135.0469 Q321.625,135.2969 321.625,135.6406 Q321.625,135.9844 321.2813,136.3906 Q320.7813,136.9688 319.9844,137.2969 Q318.9063,137.75 317.6094,137.75 Q316.0938,137.75 314.8906,137.125 Q313.9063,136.625 313.2188,135.5625 Q312.5313,134.4844 312.5313,133.2031 L312.5313,132.0469 Q312.5313,130.7188 313.1406,129.5781 Q313.7656,128.4219 314.8594,127.8125 Q315.9531,127.1875 317.1875,127.1875 Q317.9219,127.1875 318.5625,127.3594 Q319.2188,127.5156 319.7656,127.875 Z " fill="#000000"/><text fill="#000000" font-family="sans-serif" font-size="14" lengthAdjust="spacing" textLength="166" x="331" y="137.7969">CalculatePartionController</text><line style="stroke:#181818;stroke-width:0.5;" x1="303" x2="499" y1="148" y2="148"/><line style="stroke:#181818;stroke-width:0.5;" x1="303" x2="499" y1="156" y2="156"/><ellipse cx="313" cy="170.8105" fill="#84BE84" rx="3" ry="3" style="stroke:#038048;stroke-width:1.0;"/><text fill="#000000" font-family="sans-serif" font-size="14" lengthAdjust="spacing" textLength="169" x="322" y="175.1074">calculateWithNstores(int n)</text><ellipse cx="313" cy="189.4316" fill="#84BE84" rx="3" ry="3" style="stroke:#038048;stroke-width:1.0;"/><text fill="#000000" font-family="sans-serif" font-size="14" lengthAdjust="spacing" textLength="81" x="322" y="193.7285">calculateAll()</text></g><!--class EmployeeProject--><g id="elem_EmployeeProject"><rect codeLine="16" fill="#F1F1F1" height="48" id="EmployeeProject" rx="2.5" ry="2.5" style="stroke:#181818;stroke-width:0.5;" width="138" x="7" y="134.5"/><ellipse cx="22" cy="150.5" fill="#ADD1B2" rx="11" ry="11" style="stroke:#181818;stroke-width:1.0;"/><path d="M24.7656,146.375 Q24.9219,146.1563 25.1094,146.0469 Q25.2969,145.9375 25.5156,145.9375 Q25.8906,145.9375 26.125,146.2031 Q26.3594,146.4531 26.3594,147.0625 L26.3594,148.5156 Q26.3594,149.125 26.125,149.3906 Q25.8906,149.6563 25.5156,149.6563 Q25.1719,149.6563 24.9688,149.4531 Q24.7656,149.2656 24.6563,148.75 Q24.6094,148.3906 24.4219,148.2031 Q24.0938,147.8281 23.4844,147.6094 Q22.875,147.3906 22.25,147.3906 Q21.4844,147.3906 20.8438,147.7188 Q20.2188,148.0469 19.7188,148.7969 Q19.2344,149.5469 19.2344,150.5781 L19.2344,151.6719 Q19.2344,152.9063 20.125,153.7344 Q21.0156,154.5469 22.6094,154.5469 Q23.5469,154.5469 24.2031,154.2969 Q24.5938,154.1406 25.0156,153.7031 Q25.2813,153.4375 25.4219,153.3594 Q25.5781,153.2813 25.7813,153.2813 Q26.1094,153.2813 26.3594,153.5469 Q26.625,153.7969 26.625,154.1406 Q26.625,154.4844 26.2813,154.8906 Q25.7813,155.4688 24.9844,155.7969 Q23.9063,156.25 22.6094,156.25 Q21.0938,156.25 19.8906,155.625 Q18.9063,155.125 18.2188,154.0625 Q17.5313,152.9844 17.5313,151.7031 L17.5313,150.5469 Q17.5313,149.2188 18.1406,148.0781 Q18.7656,146.9219 19.8594,146.3125 Q20.9531,145.6875 22.1875,145.6875 Q22.9219,145.6875 23.5625,145.8594 Q24.2188,146.0156 24.7656,146.375 Z " fill="#000000"/><text fill="#000000" font-family="sans-serif" font-size="14" lengthAdjust="spacing" textLength="106" x="36" y="156.2969">EmployeeProject</text><line style="stroke:#181818;stroke-width:0.5;" x1="8" x2="144" y1="166.5" y2="166.5"/><line style="stroke:#181818;stroke-width:0.5;" x1="8" x2="144" y1="174.5" y2="174.5"/></g><!--class User--><g id="elem_User"><rect codeLine="18" fill="#F1F1F1" height="48" id="User" rx="2.5" ry="2.5" style="stroke:#181818;stroke-width:0.5;" width="62" x="205" y="134.5"/><ellipse cx="220" cy="150.5" fill="#A9DCDF" rx="11" ry="11" style="stroke:#181818;stroke-width:1.0;"/><path d="M222.1875,152.2656 L218.0469,152.2656 L217.625,153.2969 L218.0469,153.2969 Q218.6563,153.2969 218.9219,153.5313 Q219.1875,153.7656 219.1875,154.1563 Q219.1875,154.5313 218.9219,154.7656 Q218.6563,155 218.0469,155 L215.75,155 Q215.1406,155 214.8906,154.7656 Q214.625,154.5313 214.625,154.1406 Q214.625,153.7656 214.9063,153.5313 Q215.1719,153.2813 215.7969,153.2969 L218.4688,146.6406 L217.3594,146.6406 Q216.75,146.6406 216.4844,146.4063 Q216.2188,146.1719 216.2188,145.7813 Q216.2188,145.4063 216.4844,145.1719 Q216.75,144.9375 217.3594,144.9375 L221.0313,144.9375 L224.4219,153.2969 Q225.0156,153.2969 225.2031,153.4375 Q225.5938,153.7031 225.5938,154.1563 Q225.5938,154.5313 225.3281,154.7656 Q225.0781,155 224.4688,155 L222.1719,155 Q221.5625,155 221.2969,154.7656 Q221.0313,154.5313 221.0313,154.1406 Q221.0313,153.7656 221.2969,153.5313 Q221.5625,153.2969 222.1719,153.2969 L222.5938,153.2969 L222.1875,152.2656 Z M221.4688,150.5625 L220.1094,147.1875 L218.7344,150.5625 L221.4688,150.5625 Z " fill="#000000"/><text fill="#000000" font-family="sans-serif" font-size="14" font-style="italic" lengthAdjust="spacing" textLength="30" x="234" y="156.2969">User</text><line style="stroke:#181818;stroke-width:0.5;" x1="206" x2="266" y1="166.5" y2="166.5"/><line style="stroke:#181818;stroke-width:0.5;" x1="206" x2="266" y1="174.5" y2="174.5"/></g><!--class Store--><g id="elem_Store"><rect codeLine="22" fill="#F1F1F1" height="66.6211" id="Store" rx="2.5" ry="2.5" style="stroke:#181818;stroke-width:0.5;" width="121" x="266.5" y="537"/><ellipse cx="306.25" cy="553" fill="#ADD1B2" rx="11" ry="11" style="stroke:#181818;stroke-width:1.0;"/><path d="M309.0156,548.875 Q309.1719,548.6563 309.3594,548.5469 Q309.5469,548.4375 309.7656,548.4375 Q310.1406,548.4375 310.375,548.7031 Q310.6094,548.9531 310.6094,549.5625 L310.6094,551.0156 Q310.6094,551.625 310.375,551.8906 Q310.1406,552.1563 309.7656,552.1563 Q309.4219,552.1563 309.2188,551.9531 Q309.0156,551.7656 308.9063,551.25 Q308.8594,550.8906 308.6719,550.7031 Q308.3438,550.3281 307.7344,550.1094 Q307.125,549.8906 306.5,549.8906 Q305.7344,549.8906 305.0938,550.2188 Q304.4688,550.5469 303.9688,551.2969 Q303.4844,552.0469 303.4844,553.0781 L303.4844,554.1719 Q303.4844,555.4063 304.375,556.2344 Q305.2656,557.0469 306.8594,557.0469 Q307.7969,557.0469 308.4531,556.7969 Q308.8438,556.6406 309.2656,556.2031 Q309.5313,555.9375 309.6719,555.8594 Q309.8281,555.7813 310.0313,555.7813 Q310.3594,555.7813 310.6094,556.0469 Q310.875,556.2969 310.875,556.6406 Q310.875,556.9844 310.5313,557.3906 Q310.0313,557.9688 309.2344,558.2969 Q308.1563,558.75 306.8594,558.75 Q305.3438,558.75 304.1406,558.125 Q303.1563,557.625 302.4688,556.5625 Q301.7813,555.4844 301.7813,554.2031 L301.7813,553.0469 Q301.7813,551.7188 302.3906,550.5781 Q303.0156,549.4219 304.1094,548.8125 Q305.2031,548.1875 306.4375,548.1875 Q307.1719,548.1875 307.8125,548.3594 Q308.4688,548.5156 309.0156,548.875 Z " fill="#000000"/><text fill="#000000" font-family="sans-serif" font-size="14" lengthAdjust="spacing" textLength="34" x="325.75" y="558.7969">Store</text><line style="stroke:#181818;stroke-width:0.5;" x1="267.5" x2="386.5" y1="569" y2="569"/><line style="stroke:#181818;stroke-width:0.5;" x1="267.5" x2="386.5" y1="577" y2="577"/><ellipse cx="277.5" cy="591.8105" fill="#84BE84" rx="3" ry="3" style="stroke:#038048;stroke-width:1.0;"/><text fill="#000000" font-family="sans-serif" font-size="14" lengthAdjust="spacing" textLength="95" x="286.5" y="596.1074">getProperties()</text></g><!--class Property--><g id="elem_Property"><rect codeLine="26" fill="#F1F1F1" height="48" id="Property" rx="2.5" ry="2.5" style="stroke:#181818;stroke-width:0.5;" width="86" x="284" y="683"/><ellipse cx="299" cy="699" fill="#ADD1B2" rx="11" ry="11" style="stroke:#181818;stroke-width:1.0;"/><path d="M301.7656,694.875 Q301.9219,694.6563 302.1094,694.5469 Q302.2969,694.4375 302.5156,694.4375 Q302.8906,694.4375 303.125,694.7031 Q303.3594,694.9531 303.3594,695.5625 L303.3594,697.0156 Q303.3594,697.625 303.125,697.8906 Q302.8906,698.1563 302.5156,698.1563 Q302.1719,698.1563 301.9688,697.9531 Q301.7656,697.7656 301.6563,697.25 Q301.6094,696.8906 301.4219,696.7031 Q301.0938,696.3281 300.4844,696.1094 Q299.875,695.8906 299.25,695.8906 Q298.4844,695.8906 297.8438,696.2188 Q297.2188,696.5469 296.7188,697.2969 Q296.2344,698.0469 296.2344,699.0781 L296.2344,700.1719 Q296.2344,701.4063 297.125,702.2344 Q298.0156,703.0469 299.6094,703.0469 Q300.5469,703.0469 301.2031,702.7969 Q301.5938,702.6406 302.0156,702.2031 Q302.2813,701.9375 302.4219,701.8594 Q302.5781,701.7813 302.7813,701.7813 Q303.1094,701.7813 303.3594,702.0469 Q303.625,702.2969 303.625,702.6406 Q303.625,702.9844 303.2813,703.3906 Q302.7813,703.9688 301.9844,704.2969 Q300.9063,704.75 299.6094,704.75 Q298.0938,704.75 296.8906,704.125 Q295.9063,703.625 295.2188,702.5625 Q294.5313,701.4844 294.5313,700.2031 L294.5313,699.0469 Q294.5313,697.7188 295.1406,696.5781 Q295.7656,695.4219 296.8594,694.8125 Q297.9531,694.1875 299.1875,694.1875 Q299.9219,694.1875 300.5625,694.3594 Q301.2188,694.5156 301.7656,694.875 Z " fill="#000000"/><text fill="#000000" font-family="sans-serif" font-size="14" lengthAdjust="spacing" textLength="54" x="313" y="704.7969">Property</text><line style="stroke:#181818;stroke-width:0.5;" x1="285" x2="369" y1="715" y2="715"/><line style="stroke:#181818;stroke-width:0.5;" x1="285" x2="369" y1="723" y2="723"/></g><!--class SubsetPartition--><g id="elem_SubsetPartition"><rect codeLine="29" fill="#F1F1F1" height="178.3477" id="SubsetPartition" rx="2.5" ry="2.5" style="stroke:#181818;stroke-width:0.5;" width="151" x="162.5" y="280"/><ellipse cx="187.85" cy="296" fill="#ADD1B2" rx="11" ry="11" style="stroke:#181818;stroke-width:1.0;"/><path d="M190.6156,291.875 Q190.7719,291.6563 190.9594,291.5469 Q191.1469,291.4375 191.3656,291.4375 Q191.7406,291.4375 191.975,291.7031 Q192.2094,291.9531 192.2094,292.5625 L192.2094,294.0156 Q192.2094,294.625 191.975,294.8906 Q191.7406,295.1563 191.3656,295.1563 Q191.0219,295.1563 190.8188,294.9531 Q190.6156,294.7656 190.5063,294.25 Q190.4594,293.8906 190.2719,293.7031 Q189.9438,293.3281 189.3344,293.1094 Q188.725,292.8906 188.1,292.8906 Q187.3344,292.8906 186.6938,293.2188 Q186.0688,293.5469 185.5688,294.2969 Q185.0844,295.0469 185.0844,296.0781 L185.0844,297.1719 Q185.0844,298.4063 185.975,299.2344 Q186.8656,300.0469 188.4594,300.0469 Q189.3969,300.0469 190.0531,299.7969 Q190.4438,299.6406 190.8656,299.2031 Q191.1313,298.9375 191.2719,298.8594 Q191.4281,298.7813 191.6313,298.7813 Q191.9594,298.7813 192.2094,299.0469 Q192.475,299.2969 192.475,299.6406 Q192.475,299.9844 192.1313,300.3906 Q191.6313,300.9688 190.8344,301.2969 Q189.7563,301.75 188.4594,301.75 Q186.9438,301.75 185.7406,301.125 Q184.7563,300.625 184.0688,299.5625 Q183.3813,298.4844 183.3813,297.2031 L183.3813,296.0469 Q183.3813,294.7188 183.9906,293.5781 Q184.6156,292.4219 185.7094,291.8125 Q186.8031,291.1875 188.0375,291.1875 Q188.7719,291.1875 189.4125,291.3594 Q190.0688,291.5156 190.6156,291.875 Z " fill="#000000"/><text fill="#000000" font-family="sans-serif" font-size="14" lengthAdjust="spacing" textLength="96" x="204.15" y="301.7969">SubsetPartition</text><line style="stroke:#181818;stroke-width:0.5;" x1="163.5" x2="312.5" y1="312" y2="312"/><line style="stroke:#181818;stroke-width:0.5;" x1="163.5" x2="312.5" y1="320" y2="320"/><ellipse cx="173.5" cy="334.8105" fill="#84BE84" rx="3" ry="3" style="stroke:#038048;stroke-width:1.0;"/><text fill="#000000" font-family="sans-serif" font-size="14" lengthAdjust="spacing" textLength="107" x="182.5" y="339.1074">findMinPartition()</text><ellipse cx="173.5" cy="353.4316" fill="#84BE84" rx="3" ry="3" style="stroke:#038048;stroke-width:1.0;"/><text fill="#000000" font-family="sans-serif" font-size="14" lengthAdjust="spacing" textLength="125" x="182.5" y="357.7285">calculatePartitions()</text><ellipse cx="173.5" cy="372.0527" fill="#84BE84" rx="3" ry="3" style="stroke:#038048;stroke-width:1.0;"/><text fill="#000000" font-family="sans-serif" font-size="14" lengthAdjust="spacing" textLength="77" x="182.5" y="376.3496">loadTuplet()</text><ellipse cx="173.5" cy="390.6738" fill="#84BE84" rx="3" ry="3" style="stroke:#038048;stroke-width:1.0;"/><text fill="#000000" font-family="sans-serif" font-size="14" lengthAdjust="spacing" textLength="94" x="182.5" y="394.9707">calculateSum()</text><ellipse cx="173.5" cy="409.2949" fill="#84BE84" rx="3" ry="3" style="stroke:#038048;stroke-width:1.0;"/><text fill="#000000" font-family="sans-serif" font-size="14" lengthAdjust="spacing" textLength="95" x="182.5" y="413.5918">getDifference()</text><ellipse cx="173.5" cy="427.916" fill="#84BE84" rx="3" ry="3" style="stroke:#038048;stroke-width:1.0;"/><text fill="#000000" font-family="sans-serif" font-size="14" lengthAdjust="spacing" textLength="110" x="182.5" y="432.2129">getSumSubset1()</text><ellipse cx="173.5" cy="446.5371" fill="#84BE84" rx="3" ry="3" style="stroke:#038048;stroke-width:1.0;"/><text fill="#000000" font-family="sans-serif" font-size="14" lengthAdjust="spacing" textLength="110" x="182.5" y="450.834">getSumSubset2()</text></g><!--class StoreRepository--><g id="elem_StoreRepository"><rect codeLine="39" fill="#F1F1F1" height="66.6211" id="StoreRepository" rx="2.5" ry="2.5" style="stroke:#181818;stroke-width:0.5;" width="134" x="349" y="335.5"/><ellipse cx="364" cy="351.5" fill="#B4A7E5" rx="11" ry="11" style="stroke:#181818;stroke-width:1.0;"/><path d="M364.9531,348.1406 L364.9531,354.7969 L366.6719,354.7969 Q367.2813,354.7969 367.5469,355.0313 Q367.8125,355.2656 367.8125,355.6563 Q367.8125,356.0313 367.5469,356.2656 Q367.2813,356.5 366.6719,356.5 L361.5313,356.5 Q360.9219,356.5 360.6563,356.2656 Q360.3906,356.0313 360.3906,355.6406 Q360.3906,355.2656 360.6563,355.0313 Q360.9219,354.7969 361.5313,354.7969 L363.25,354.7969 L363.25,348.1406 L361.5313,348.1406 Q360.9219,348.1406 360.6563,347.9063 Q360.3906,347.6719 360.3906,347.2813 Q360.3906,346.9063 360.6563,346.6719 Q360.9219,346.4375 361.5313,346.4375 L366.6719,346.4375 Q367.2813,346.4375 367.5469,346.6719 Q367.8125,346.9063 367.8125,347.2813 Q367.8125,347.6719 367.5469,347.9063 Q367.2813,348.1406 366.6719,348.1406 L364.9531,348.1406 Z " fill="#000000"/><text fill="#000000" font-family="sans-serif" font-size="14" font-style="italic" lengthAdjust="spacing" textLength="102" x="378" y="357.2969">StoreRepository</text><line style="stroke:#181818;stroke-width:0.5;" x1="350" x2="482" y1="367.5" y2="367.5"/><line style="stroke:#181818;stroke-width:0.5;" x1="350" x2="482" y1="375.5" y2="375.5"/><ellipse cx="360" cy="390.3105" fill="#84BE84" rx="3" ry="3" style="stroke:#038048;stroke-width:1.0;"/><text fill="#000000" font-family="sans-serif" font-size="14" lengthAdjust="spacing" textLength="86" x="369" y="394.6074">getStoreList()</text></g><!--link StoreRepository to Store--><g id="link_StoreRepository_Store"><path codeLine="42" d="M403.54,402.81 C388.16,443.35 364,507 364,507 C364,507 355.32,521.66 346.37,536.79 " fill="none" id="StoreRepository-Store" style="stroke:#181818;stroke-width:1.0;"/><text fill="#000000" font-family="sans-serif" font-size="13" lengthAdjust="spacing" textLength="37" x="371" y="503.0283">knows</text><text fill="#000000" font-family="sans-serif" font-size="13" lengthAdjust="spacing" textLength="7" x="393.7969" y="424.1679">1</text><text fill="#000000" font-family="sans-serif" font-size="13" lengthAdjust="spacing" textLength="5" x="344.5858" y="525.8359">*</text></g><!--link Store to Property--><g id="link_Store_Property"><path codeLine="43" d="M327,604.06 C327,628.32 327,660.86 327,682.59 " fill="none" id="Store-Property" style="stroke:#181818;stroke-width:1.0;"/><polygon fill="#000000" points="332,648.6455,334.9389,639.6004,329.0611,639.6004,332,648.6455" style="stroke:#000000;stroke-width:1.0;"/><text fill="#000000" font-family="sans-serif" font-size="13" lengthAdjust="spacing" textLength="21" x="341" y="649.0283">has</text><text fill="#000000" font-family="sans-serif" font-size="13" lengthAdjust="spacing" textLength="7" x="319.3766" y="625.6399">1</text><text fill="#000000" font-family="sans-serif" font-size="13" lengthAdjust="spacing" textLength="5" x="321.3906" y="671.632">*</text></g><!--link CalculatePartionUI to CalculatePartionController--><g id="link_CalculatePartionUI_CalculatePartionController"><path codeLine="45" d="M401,55.02 C401,70.54 401,91.58 401,110.55 " fill="none" id="CalculatePartionUI-to-CalculatePartionController" style="stroke:#181818;stroke-width:1.0;"/><polygon fill="#181818" points="401,115.84,405,106.84,401,110.84,397,106.84,401,115.84" style="stroke:#181818;stroke-width:1.0;"/></g><!--link CalculatePartionController to SubsetPartition--><g id="link_CalculatePartionController_SubsetPartition"><path codeLine="46" d="M368.41,201.19 C351.65,222.62 330.52,249.66 310.17,275.68 " fill="none" id="CalculatePartionController-to-SubsetPartition" style="stroke:#181818;stroke-width:1.0;"/><polygon fill="#181818" points="306.91,279.85,315.6149,275.243,309.9985,275.9179,309.3236,270.3015,306.91,279.85" style="stroke:#181818;stroke-width:1.0;"/><text fill="#000000" font-family="sans-serif" font-size="13" lengthAdjust="spacing" textLength="28" x="344" y="246.0283">uses</text></g><!--link EmployeeProject to SubsetPartition--><g id="link_EmployeeProject_SubsetPartition"><path codeLine="47" d="M93.96,182.61 C111.53,205.23 139.47,241.18 166.08,275.43 " fill="none" id="EmployeeProject-to-SubsetPartition" style="stroke:#181818;stroke-width:1.0;"/><polygon fill="#181818" points="169.32,279.6,166.9448,270.0419,166.2473,275.6555,160.6336,274.9581,169.32,279.6" style="stroke:#181818;stroke-width:1.0;"/><text fill="#000000" font-family="sans-serif" font-size="13" lengthAdjust="spacing" textLength="28" x="144" y="246.0283">uses</text></g><!--link SubsetPartition to Store--><g id="link_SubsetPartition_Store"><path codeLine="48" d="M251.54,458.31 C255.6,484.82 259,507 259,507 C259,507 272.56,519.46 287.57,533.26 " fill="none" id="SubsetPartition-to-Store" style="stroke:#181818;stroke-width:1.0;"/><polygon fill="#181818" points="291.41,536.79,287.488,527.7557,287.7278,533.4075,282.076,533.6473,291.41,536.79" style="stroke:#181818;stroke-width:1.0;"/><text fill="#000000" font-family="sans-serif" font-size="13" lengthAdjust="spacing" textLength="95" x="260" y="503.0283">perform analysis</text></g><!--link EmployeeProject to User--><g id="link_EmployeeProject_User"><path codeLine="49" d="M145.25,158.5 C158.4,158.5 171.94,158.5 184.42,158.5 " fill="none" id="EmployeeProject-to-User" style="stroke:#181818;stroke-width:1.0;"/><polygon fill="none" points="184.79,151.5,204.79,158.5,184.79,165.5,184.79,151.5" style="stroke:#181818;stroke-width:1.0;"/><polygon fill="#000000" points="172.5,146.1455,163.4549,143.2066,163.4549,149.0844,172.5,146.1455" style="stroke:#000000;stroke-width:1.0;"/><text fill="#000000" font-family="sans-serif" font-size="13" lengthAdjust="spacing" textLength="10" x="176.5" y="151.5283">is</text></g><!--SRC=[VLB1JiCm3BtdAw9TO5GSnf7390GSa01Db8cpoTmjB8shE1Mg1l-EqmxQbK5FYT_pUtvEJtXhVGK1IbsI9xC9LAAEeKRL8nMOBQmnZur37T14y6it9F06LlHk_LeNu7Y8EEinDXNgYboJBkha24WXabB60RE-1cTg1n4N4A8blxpRgS-_m6loCP1p67PAPzfymoysRXuvKa0-jJvgFps0hvmxdQfUzhQi73M8Yq1l4YyPmYl702RgZh7aP24D-uuyQOkdVDaQepHMA1E9tRINtLURGO2yVcMXf-dJ_3kL5TQl7gp_AOb0PWvYfchIpHp1whck7CO3KbwNwIvZtDYYm83UuBuWKESu6nSkka5bEHWACDWbUiAAsCgfwRErmBtbs7QCQ7eoc-ZpyydPf1FGbthhwPqxtW3zteKGDi1whjJlXnRg_9ydLdz3RUTej-9KCx8QFUv_r76vfUvZoVG5XLA31zUmFQBxCMz_4-7QDk0N]--></g></svg>