<?xml version="1.0" encoding="us-ascii" standalone="no"?><svg xmlns="http://www.w3.org/2000/svg" xmlns:xlink="http://www.w3.org/1999/xlink" contentStyleType="text/css" height="584px" preserveAspectRatio="none" style="width:637px;height:584px;background:#FFFFFF;" version="1.1" viewBox="0 0 637 584" width="637px" zoomAndPan="magnify"><defs/><g><rect fill="#FFFFFF" height="390.4141" style="stroke:#181818;stroke-width:1.0;" width="10" x="56" y="93.6211"/><rect fill="#FFFFFF" height="74.873" style="stroke:#181818;stroke-width:1.0;" width="10" x="372" y="116.9121"/><rect fill="#FFFFFF" height="42.9365" style="stroke:#181818;stroke-width:1.0;" width="10" x="372" y="261.0127"/><rect fill="#FFFFFF" height="31.291" style="stroke:#181818;stroke-width:1.0;" width="10" x="372" y="351.8711"/><rect fill="#FFFFFF" height="42.9365" style="stroke:#181818;stroke-width:1.0;" width="10" x="372" y="426.0986"/><rect fill="none" height="352.123" style="stroke:#000000;stroke-width:1.5;" width="621" x="10" y="131.9121"/><rect fill="none" height="270.25" style="stroke:#000000;stroke-width:1.5;" width="601" x="20" y="206.7852"/><line style="stroke:#181818;stroke-width:0.5;stroke-dasharray:5.0,5.0;" x1="61" x2="61" y1="83.6211" y2="501.0352"/><line style="stroke:#181818;stroke-width:0.5;stroke-dasharray:5.0,5.0;" x1="377" x2="377" y1="83.6211" y2="501.0352"/><text fill="#000000" font-family="sans-serif" font-size="14" lengthAdjust="spacing" textLength="56" x="30" y="80.1074">Manager</text><ellipse cx="61" cy="13.5" fill="#E3E3E3" rx="8" ry="8" style="stroke:#181818;stroke-width:0.5;"/><path d="M61,21.5 L61,48.5 M48,29.5 L74,29.5 M61,48.5 L48,63.5 M61,48.5 L74,63.5 " fill="none" style="stroke:#181818;stroke-width:0.5;"/><text fill="#000000" font-family="sans-serif" font-size="14" lengthAdjust="spacing" textLength="56" x="30" y="515.1426">Manager</text><ellipse cx="61" cy="527.1563" fill="#E3E3E3" rx="8" ry="8" style="stroke:#181818;stroke-width:0.5;"/><path d="M61,535.1563 L61,562.1563 M48,543.1563 L74,543.1563 M61,562.1563 L48,577.1563 M61,562.1563 L74,577.1563 " fill="none" style="stroke:#181818;stroke-width:0.5;"/><rect fill="#E3E3E3" height="32.6211" rx="2.5" ry="2.5" style="stroke:#181818;stroke-width:0.5;" width="134" x="310" y="50"/><text fill="#000000" font-family="sans-serif" font-size="14" lengthAdjust="spacing" textLength="120" x="317" y="72.1074">:CalculatePartionUI</text><rect fill="#E3E3E3" height="32.6211" rx="2.5" ry="2.5" style="stroke:#181818;stroke-width:0.5;" width="134" x="310" y="500.0352"/><text fill="#000000" font-family="sans-serif" font-size="14" lengthAdjust="spacing" textLength="120" x="317" y="522.1426">:CalculatePartionUI</text><rect fill="#FFFFFF" height="390.4141" style="stroke:#181818;stroke-width:1.0;" width="10" x="56" y="93.6211"/><rect fill="#FFFFFF" height="74.873" style="stroke:#181818;stroke-width:1.0;" width="10" x="372" y="116.9121"/><rect fill="#FFFFFF" height="42.9365" style="stroke:#181818;stroke-width:1.0;" width="10" x="372" y="261.0127"/><rect fill="#FFFFFF" height="31.291" style="stroke:#181818;stroke-width:1.0;" width="10" x="372" y="351.8711"/><rect fill="#FFFFFF" height="42.9365" style="stroke:#181818;stroke-width:1.0;" width="10" x="372" y="426.0986"/><polygon fill="#181818" points="360,112.9121,370,116.9121,360,120.9121,364,116.9121" style="stroke:#181818;stroke-width:1.0;"/><line style="stroke:#181818;stroke-width:1.0;" x1="66" x2="366" y1="116.9121" y2="116.9121"/><text fill="#000000" font-family="sans-serif" font-size="13" font-weight="bold" lengthAdjust="spacing" textLength="7" x="73" y="111.6494">1</text><text fill="#000000" font-family="sans-serif" font-size="13" lengthAdjust="spacing" textLength="212" x="84" y="111.6494">request to perform analyses on store</text><path d="M10,131.9121 L83,131.9121 L83,141.2031 L73,151.2031 L10,151.2031 L10,131.9121 " fill="#EEEEEE" style="stroke:#000000;stroke-width:1.5;"/><rect fill="none" height="352.123" style="stroke:#000000;stroke-width:1.5;" width="621" x="10" y="131.9121"/><text fill="#000000" font-family="sans-serif" font-size="13" font-weight="bold" lengthAdjust="spacing" textLength="28" x="25" y="146.9404">loop</text><polygon fill="#181818" points="77,187.7852,67,191.7852,77,195.7852,73,191.7852" style="stroke:#181818;stroke-width:1.0;"/><line style="stroke:#181818;stroke-width:1.0;stroke-dasharray:2.0,2.0;" x1="71" x2="376" y1="191.7852" y2="191.7852"/><text fill="#000000" font-family="sans-serif" font-size="13" font-weight="bold" lengthAdjust="spacing" textLength="7" x="83" y="177.877">2</text><text fill="#000000" font-family="sans-serif" font-size="13" lengthAdjust="spacing" textLength="261" x="94" y="169.2314">show options (calculate all / calculate with N)</text><text fill="#000000" font-family="sans-serif" font-size="13" lengthAdjust="spacing" textLength="147" x="98" y="186.5225">and request to select one</text><path d="M20,206.7852 L81,206.7852 L81,216.0762 L71,226.0762 L20,226.0762 L20,206.7852 " fill="#EEEEEE" style="stroke:#000000;stroke-width:1.5;"/><rect fill="none" height="270.25" style="stroke:#000000;stroke-width:1.5;" width="601" x="20" y="206.7852"/><text fill="#000000" font-family="sans-serif" font-size="13" font-weight="bold" lengthAdjust="spacing" textLength="16" x="35" y="221.8135">alt</text><a href="select" target="_top" title="select" xlink:actuate="onRequest" xlink:href="select" xlink:show="new" xlink:title="select" xlink:type="simple"><text fill="#1D1D1D" font-family="sans-serif" font-size="11" font-weight="bold" lengthAdjust="spacing" text-decoration="underline" textLength="65" x="96" y="220.6553">calculate All</text></a><polygon fill="#181818" points="360,257.0127,370,261.0127,360,265.0127,364,261.0127" style="stroke:#181818;stroke-width:1.0;"/><line style="stroke:#181818;stroke-width:1.0;" x1="66" x2="366" y1="261.0127" y2="261.0127"/><text fill="#000000" font-family="sans-serif" font-size="13" font-weight="bold" lengthAdjust="spacing" textLength="7" x="73" y="255.75">3</text><text fill="#000000" font-family="sans-serif" font-size="13" lengthAdjust="spacing" textLength="110" x="84" y="255.75">select calculate All</text><path d="M387,231.0762 L387,275.0762 L616,275.0762 L616,241.0762 L606,231.0762 L387,231.0762 " fill="#FAFAFA" style="stroke:#181818;stroke-width:0.5;"/><path d="M606,231.0762 L606,241.0762 L616,241.0762 L606,231.0762 " fill="#FAFAFA" style="stroke:#181818;stroke-width:0.5;"/><text fill="#000000" font-family="sans-serif" font-size="13" lengthAdjust="spacing" textLength="208" x="393" y="250.1045">the rest part of sequence diagram is</text><text fill="#000000" font-family="sans-serif" font-size="13" lengthAdjust="spacing" textLength="167" x="397" y="267.3955">demonstrated on file SD_Full</text><polygon fill="#181818" points="77,299.9492,67,303.9492,77,307.9492,73,303.9492" style="stroke:#181818;stroke-width:1.0;"/><line style="stroke:#181818;stroke-width:1.0;stroke-dasharray:2.0,2.0;" x1="71" x2="376" y1="303.9492" y2="303.9492"/><text fill="#000000" font-family="sans-serif" font-size="13" font-weight="bold" lengthAdjust="spacing" textLength="7" x="83" y="298.6865">4</text><text fill="#000000" font-family="sans-serif" font-size="13" lengthAdjust="spacing" textLength="271" x="94" y="298.6865">display results and inform operation successful</text><line style="stroke:#000000;stroke-width:1.0;stroke-dasharray:2.0,2.0;" x1="20" x2="621" y1="312.9492" y2="312.9492"/><a href="Select" target="_top" title="Select" xlink:actuate="onRequest" xlink:href="Select" xlink:show="new" xlink:title="Select" xlink:type="simple"><text fill="#1D1D1D" font-family="sans-serif" font-size="11" font-weight="bold" lengthAdjust="spacing" text-decoration="underline" textLength="85" x="25" y="324.8193">calculate with N</text></a><polygon fill="#181818" points="360,347.8711,370,351.8711,360,355.8711,364,351.8711" style="stroke:#181818;stroke-width:1.0;"/><line style="stroke:#181818;stroke-width:1.0;" x1="66" x2="366" y1="351.8711" y2="351.8711"/><text fill="#000000" font-family="sans-serif" font-size="13" font-weight="bold" lengthAdjust="spacing" textLength="7" x="73" y="346.6084">5</text><text fill="#000000" font-family="sans-serif" font-size="13" lengthAdjust="spacing" textLength="164" x="84" y="346.6084">select calculate with N value</text><polygon fill="#181818" points="77,379.1621,67,383.1621,77,387.1621,73,383.1621" style="stroke:#181818;stroke-width:1.0;"/><line style="stroke:#181818;stroke-width:1.0;stroke-dasharray:2.0,2.0;" x1="71" x2="376" y1="383.1621" y2="383.1621"/><text fill="#000000" font-family="sans-serif" font-size="13" font-weight="bold" lengthAdjust="spacing" textLength="7" x="83" y="377.8994">6</text><text fill="#000000" font-family="sans-serif" font-size="13" lengthAdjust="spacing" textLength="136" x="94" y="377.8994">request to input value N</text><polygon fill="#181818" points="77,422.0986,67,426.0986,77,430.0986,73,426.0986" style="stroke:#181818;stroke-width:1.0;"/><line style="stroke:#181818;stroke-width:1.0;" x1="71" x2="371" y1="426.0986" y2="426.0986"/><text fill="#000000" font-family="sans-serif" font-size="13" font-weight="bold" lengthAdjust="spacing" textLength="7" x="83" y="420.8359">7</text><text fill="#000000" font-family="sans-serif" font-size="13" lengthAdjust="spacing" textLength="118" x="94" y="420.8359">input requested data</text><path d="M387,396.1621 L387,440.1621 L616,440.1621 L616,406.1621 L606,396.1621 L387,396.1621 " fill="#FAFAFA" style="stroke:#181818;stroke-width:0.5;"/><path d="M606,396.1621 L606,406.1621 L616,406.1621 L606,396.1621 " fill="#FAFAFA" style="stroke:#181818;stroke-width:0.5;"/><text fill="#000000" font-family="sans-serif" font-size="13" lengthAdjust="spacing" textLength="208" x="393" y="415.1904">the rest part of sequence diagram is</text><text fill="#000000" font-family="sans-serif" font-size="13" lengthAdjust="spacing" textLength="186" x="397" y="432.4814">demonstrated on file SD_Full_v2</text><polygon fill="#181818" points="77,465.0352,67,469.0352,77,473.0352,73,469.0352" style="stroke:#181818;stroke-width:1.0;"/><line style="stroke:#181818;stroke-width:1.0;stroke-dasharray:2.0,2.0;" x1="71" x2="376" y1="469.0352" y2="469.0352"/><text fill="#000000" font-family="sans-serif" font-size="13" font-weight="bold" lengthAdjust="spacing" textLength="7" x="83" y="463.7725">8</text><text fill="#000000" font-family="sans-serif" font-size="13" lengthAdjust="spacing" textLength="271" x="94" y="463.7725">display results and inform operation successful</text><!--SRC=[lLEnRXin3Dtr5OINfeCHe6E604MB0XuQ130yfKN0IBmx8JhnAafs_FUbpcVd4D_QQgAanyV7HqbUVHmmOGyzHxPTufuWfq96BZS3sbTiQPkFWI2HpHZRC0T8XuuFFhRGO10o1alcMFeNIiPywhmZQ9Zp2xyPj9aJh7vYLCQq0XIOOgDSsLi_OComklk6mPQ0cHxhCSVTPWJlDiPK4h_NgqkgcG9Ot-ysSASY_nII39bXeDHmwa41uIWam154DP01NHScvQtxm3oCWTAir_Vd0aef7H-0Xof5uCQUrG660BVmlZ_utC73vrzHAxgv4A6WrcdvKsL7yzeOCZnDY7Ukho7y_j3Q4cQnayWQ9zzsMSNdhWvETLIFWHiLexgY9N0Uspf2BwhOaJu2oKbfNFMfyJhmxVVd7sKgSkMAyp84F5Ro4hACFViu6ixgF5QxG8gr9DAKiD0vwOE1f-t7jausphk7SRAo38GzXh8yqYlDivde0oxvb0iF2-9gxZprX9y8r2E76V-B-y_xB-OVc5zFA3epExrygRhEzzEwXlq5]--></g></svg>