<?xml version="1.0" encoding="us-ascii" standalone="no"?><svg xmlns="http://www.w3.org/2000/svg" xmlns:xlink="http://www.w3.org/1999/xlink" contentStyleType="text/css" height="934px" preserveAspectRatio="none" style="width:1418px;height:934px;background:#FFFFFF;" version="1.1" viewBox="0 0 1418 934" width="1418px" zoomAndPan="magnify"><defs/><g><rect fill="#FFFFFF" height="740.1016" style="stroke:#181818;stroke-width:1.0;" width="10" x="31" y="93.6211"/><rect fill="#FFFFFF" height="31.291" style="stroke:#181818;stroke-width:1.0;" width="10" x="347" y="116.9121"/><rect fill="#FFFFFF" height="663.2285" style="stroke:#181818;stroke-width:1.0;" width="10" x="347" y="179.4941"/><rect fill="#FFFFFF" height="581.6465" style="stroke:#181818;stroke-width:1.0;" width="10" x="618" y="220.7852"/><rect fill="#FFFFFF" height="318.9883" style="stroke:#181818;stroke-width:1.0;" width="10" x="904" y="452.1523"/><rect fill="#FFFFFF" height="93.873" style="stroke:#181818;stroke-width:1.0;" width="10" x="1114" y="254.4063"/><rect fill="#FFFFFF" height="31.291" style="stroke:#181818;stroke-width:1.0;" width="10" x="1273" y="285.6973"/><rect fill="#FFFFFF" height="31.291" style="stroke:#181818;stroke-width:1.0;" width="10" x="1273" y="379.5703"/><rect fill="#FFFFFF" height="33.6211" style="stroke:#181818;stroke-width:1.0;" width="10" x="1370" y="522.0645"/><rect fill="none" height="94.2031" style="stroke:#000000;stroke-width:1.5;" width="570" x="842" y="469.4824"/><line style="stroke:#181818;stroke-width:0.5;stroke-dasharray:5.0,5.0;" x1="36" x2="36" y1="83.6211" y2="851.7227"/><line style="stroke:#181818;stroke-width:0.5;stroke-dasharray:5.0,5.0;" x1="352" x2="352" y1="83.6211" y2="851.7227"/><line style="stroke:#181818;stroke-width:0.5;stroke-dasharray:5.0,5.0;" x1="623" x2="623" y1="219.3047" y2="851.7227"/><line style="stroke:#181818;stroke-width:0.5;stroke-dasharray:5.0,5.0;" x1="909" x2="909" y1="450.6719" y2="851.7227"/><line style="stroke:#181818;stroke-width:0.5;stroke-dasharray:5.0,5.0;" x1="1118.5" x2="1118.5" y1="83.6211" y2="851.7227"/><line style="stroke:#181818;stroke-width:0.5;stroke-dasharray:5.0,5.0;" x1="1278" x2="1278" y1="83.6211" y2="851.7227"/><line style="stroke:#181818;stroke-width:0.5;stroke-dasharray:5.0,5.0;" x1="1375" x2="1375" y1="520.584" y2="851.7227"/><text fill="#000000" font-family="sans-serif" font-size="14" lengthAdjust="spacing" textLength="56" x="5" y="80.1074">Manager</text><ellipse cx="36" cy="13.5" fill="#E3E3E3" rx="8" ry="8" style="stroke:#181818;stroke-width:0.5;"/><path d="M36,21.5 L36,48.5 M23,29.5 L49,29.5 M36,48.5 L23,63.5 M36,48.5 L49,63.5 " fill="none" style="stroke:#181818;stroke-width:0.5;"/><text fill="#000000" font-family="sans-serif" font-size="14" lengthAdjust="spacing" textLength="56" x="5" y="865.8301">Manager</text><ellipse cx="36" cy="877.8438" fill="#E3E3E3" rx="8" ry="8" style="stroke:#181818;stroke-width:0.5;"/><path d="M36,885.8438 L36,912.8438 M23,893.8438 L49,893.8438 M36,912.8438 L23,927.8438 M36,912.8438 L49,927.8438 " fill="none" style="stroke:#181818;stroke-width:0.5;"/><rect fill="#E3E3E3" height="32.6211" rx="2.5" ry="2.5" style="stroke:#181818;stroke-width:0.5;" width="134" x="285" y="50"/><text fill="#000000" font-family="sans-serif" font-size="14" lengthAdjust="spacing" textLength="120" x="292" y="72.1074">:CalculatePartionUI</text><rect fill="#E3E3E3" height="32.6211" rx="2.5" ry="2.5" style="stroke:#181818;stroke-width:0.5;" width="134" x="285" y="850.7227"/><text fill="#000000" font-family="sans-serif" font-size="14" lengthAdjust="spacing" textLength="120" x="292" y="872.8301">:CalculatePartionUI</text><rect fill="#E3E3E3" height="32.6211" rx="2.5" ry="2.5" style="stroke:#181818;stroke-width:0.5;" width="184" x="531" y="850.7227"/><text fill="#000000" font-family="sans-serif" font-size="14" lengthAdjust="spacing" textLength="170" x="538" y="872.8301">:CalculatePartionController</text><rect fill="#E3E3E3" height="32.6211" rx="2.5" ry="2.5" style="stroke:#181818;stroke-width:0.5;" width="114" x="852" y="850.7227"/><text fill="#000000" font-family="sans-serif" font-size="14" lengthAdjust="spacing" textLength="100" x="859" y="872.8301">:SubsetPartition</text><rect fill="#E3E3E3" height="32.6211" rx="2.5" ry="2.5" style="stroke:#181818;stroke-width:0.5;" width="97" x="1070.5" y="50"/><text fill="#000000" font-family="sans-serif" font-size="14" lengthAdjust="spacing" textLength="83" x="1077.5" y="72.1074">:Repositories</text><rect fill="#E3E3E3" height="32.6211" rx="2.5" ry="2.5" style="stroke:#181818;stroke-width:0.5;" width="97" x="1070.5" y="850.7227"/><text fill="#000000" font-family="sans-serif" font-size="14" lengthAdjust="spacing" textLength="83" x="1077.5" y="872.8301">:Repositories</text><rect fill="#E3E3E3" height="32.6211" rx="2.5" ry="2.5" style="stroke:#181818;stroke-width:0.5;" width="120" x="1218" y="50"/><text fill="#000000" font-family="sans-serif" font-size="14" lengthAdjust="spacing" textLength="106" x="1225" y="72.1074">:StoreRepository</text><rect fill="#E3E3E3" height="32.6211" rx="2.5" ry="2.5" style="stroke:#181818;stroke-width:0.5;" width="120" x="1218" y="850.7227"/><text fill="#000000" font-family="sans-serif" font-size="14" lengthAdjust="spacing" textLength="106" x="1225" y="872.8301">:StoreRepository</text><rect fill="#E3E3E3" height="32.6211" rx="2.5" ry="2.5" style="stroke:#181818;stroke-width:0.5;" width="54" x="1348" y="850.7227"/><text fill="#000000" font-family="sans-serif" font-size="14" lengthAdjust="spacing" textLength="40" x="1355" y="872.8301">Tuplet</text><rect fill="#FFFFFF" height="740.1016" style="stroke:#181818;stroke-width:1.0;" width="10" x="31" y="93.6211"/><rect fill="#FFFFFF" height="31.291" style="stroke:#181818;stroke-width:1.0;" width="10" x="347" y="116.9121"/><rect fill="#FFFFFF" height="663.2285" style="stroke:#181818;stroke-width:1.0;" width="10" x="347" y="179.4941"/><rect fill="#FFFFFF" height="581.6465" style="stroke:#181818;stroke-width:1.0;" width="10" x="618" y="220.7852"/><rect fill="#FFFFFF" height="318.9883" style="stroke:#181818;stroke-width:1.0;" width="10" x="904" y="452.1523"/><rect fill="#FFFFFF" height="93.873" style="stroke:#181818;stroke-width:1.0;" width="10" x="1114" y="254.4063"/><rect fill="#FFFFFF" height="31.291" style="stroke:#181818;stroke-width:1.0;" width="10" x="1273" y="285.6973"/><rect fill="#FFFFFF" height="31.291" style="stroke:#181818;stroke-width:1.0;" width="10" x="1273" y="379.5703"/><rect fill="#FFFFFF" height="33.6211" style="stroke:#181818;stroke-width:1.0;" width="10" x="1370" y="522.0645"/><polygon fill="#181818" points="335,112.9121,345,116.9121,335,120.9121,339,116.9121" style="stroke:#181818;stroke-width:1.0;"/><line style="stroke:#181818;stroke-width:1.0;" x1="41" x2="341" y1="116.9121" y2="116.9121"/><text fill="#000000" font-family="sans-serif" font-size="13" font-weight="bold" lengthAdjust="spacing" textLength="7" x="48" y="111.6494">1</text><text fill="#000000" font-family="sans-serif" font-size="13" lengthAdjust="spacing" textLength="212" x="59" y="111.6494">request to perform analyses on store</text><polygon fill="#181818" points="52,144.2031,42,148.2031,52,152.2031,48,148.2031" style="stroke:#181818;stroke-width:1.0;"/><line style="stroke:#181818;stroke-width:1.0;stroke-dasharray:2.0,2.0;" x1="46" x2="351" y1="148.2031" y2="148.2031"/><text fill="#000000" font-family="sans-serif" font-size="13" font-weight="bold" lengthAdjust="spacing" textLength="7" x="58" y="142.9404">2</text><text fill="#000000" font-family="sans-serif" font-size="13" lengthAdjust="spacing" textLength="136" x="69" y="142.9404">request to input value N</text><polygon fill="#181818" points="335,175.4941,345,179.4941,335,183.4941,339,179.4941" style="stroke:#181818;stroke-width:1.0;"/><line style="stroke:#181818;stroke-width:1.0;" x1="41" x2="341" y1="179.4941" y2="179.4941"/><text fill="#000000" font-family="sans-serif" font-size="13" font-weight="bold" lengthAdjust="spacing" textLength="7" x="48" y="174.2314">3</text><text fill="#000000" font-family="sans-serif" font-size="13" lengthAdjust="spacing" textLength="118" x="59" y="174.2314">input requested data</text><polygon fill="#181818" points="519,206.7852,529,210.7852,519,214.7852,523,210.7852" style="stroke:#181818;stroke-width:1.0;"/><line style="stroke:#181818;stroke-width:1.0;" x1="357" x2="525" y1="210.7852" y2="210.7852"/><text fill="#000000" font-family="sans-serif" font-size="13" font-weight="bold" lengthAdjust="spacing" textLength="7" x="364" y="205.5225">4</text><text fill="#000000" font-family="sans-serif" font-size="13" lengthAdjust="spacing" textLength="139" x="375" y="205.5225">calculateWithNstores(n)</text><rect fill="#E3E3E3" height="32.6211" rx="2.5" ry="2.5" style="stroke:#181818;stroke-width:0.5;" width="184" x="531" y="187.4941"/><text fill="#000000" font-family="sans-serif" font-size="14" lengthAdjust="spacing" textLength="170" x="538" y="209.6016">:CalculatePartionController</text><polygon fill="#181818" points="1102,250.4063,1112,254.4063,1102,258.4063,1106,254.4063" style="stroke:#181818;stroke-width:1.0;"/><line style="stroke:#181818;stroke-width:1.0;" x1="628" x2="1108" y1="254.4063" y2="254.4063"/><text fill="#000000" font-family="sans-serif" font-size="13" font-weight="bold" lengthAdjust="spacing" textLength="7" x="635" y="249.1436">5</text><text fill="#000000" font-family="sans-serif" font-size="13" lengthAdjust="spacing" textLength="75" x="646" y="249.1436">getInstance()</text><polygon fill="#181818" points="1261,281.6973,1271,285.6973,1261,289.6973,1265,285.6973" style="stroke:#181818;stroke-width:1.0;"/><line style="stroke:#181818;stroke-width:1.0;" x1="1124" x2="1267" y1="285.6973" y2="285.6973"/><text fill="#000000" font-family="sans-serif" font-size="13" font-weight="bold" lengthAdjust="spacing" textLength="7" x="1131" y="280.4346">6</text><text fill="#000000" font-family="sans-serif" font-size="13" lengthAdjust="spacing" textLength="119" x="1142" y="280.4346">getStoreRepository()</text><polygon fill="#181818" points="1135,312.9883,1125,316.9883,1135,320.9883,1131,316.9883" style="stroke:#181818;stroke-width:1.0;"/><line style="stroke:#181818;stroke-width:1.0;stroke-dasharray:2.0,2.0;" x1="1129" x2="1277" y1="316.9883" y2="316.9883"/><text fill="#000000" font-family="sans-serif" font-size="13" font-weight="bold" lengthAdjust="spacing" textLength="7" x="1141" y="311.7256">7</text><text fill="#000000" font-family="sans-serif" font-size="13" lengthAdjust="spacing" textLength="90" x="1152" y="311.7256">store repository</text><polygon fill="#181818" points="639,344.2793,629,348.2793,639,352.2793,635,348.2793" style="stroke:#181818;stroke-width:1.0;"/><line style="stroke:#181818;stroke-width:1.0;stroke-dasharray:2.0,2.0;" x1="633" x2="1118" y1="348.2793" y2="348.2793"/><text fill="#000000" font-family="sans-serif" font-size="13" font-weight="bold" lengthAdjust="spacing" textLength="7" x="645" y="343.0166">8</text><text fill="#000000" font-family="sans-serif" font-size="13" lengthAdjust="spacing" textLength="90" x="656" y="343.0166">store repository</text><polygon fill="#181818" points="1261,375.5703,1271,379.5703,1261,383.5703,1265,379.5703" style="stroke:#181818;stroke-width:1.0;"/><line style="stroke:#181818;stroke-width:1.0;" x1="628" x2="1267" y1="379.5703" y2="379.5703"/><text fill="#000000" font-family="sans-serif" font-size="13" font-weight="bold" lengthAdjust="spacing" textLength="7" x="635" y="374.3076">9</text><text fill="#000000" font-family="sans-serif" font-size="13" lengthAdjust="spacing" textLength="163" x="646" y="374.3076">getNstoreFromRepository(n)</text><polygon fill="#181818" points="639,406.8613,629,410.8613,639,414.8613,635,410.8613" style="stroke:#181818;stroke-width:1.0;"/><line style="stroke:#181818;stroke-width:1.0;stroke-dasharray:2.0,2.0;" x1="633" x2="1277" y1="410.8613" y2="410.8613"/><text fill="#000000" font-family="sans-serif" font-size="13" font-weight="bold" lengthAdjust="spacing" textLength="14" x="645" y="405.5986">10</text><text fill="#000000" font-family="sans-serif" font-size="13" lengthAdjust="spacing" textLength="50" x="663" y="405.5986">store list</text><polygon fill="#181818" points="840,438.1523,850,442.1523,840,446.1523,844,442.1523" style="stroke:#181818;stroke-width:1.0;"/><line style="stroke:#181818;stroke-width:1.0;" x1="628" x2="846" y1="442.1523" y2="442.1523"/><text fill="#000000" font-family="sans-serif" font-size="13" font-weight="bold" lengthAdjust="spacing" textLength="14" x="635" y="436.8896">11</text><text fill="#000000" font-family="sans-serif" font-size="13" lengthAdjust="spacing" textLength="182" x="653" y="436.8896">calculateWithNstores(store list)</text><rect fill="#E3E3E3" height="32.6211" rx="2.5" ry="2.5" style="stroke:#181818;stroke-width:0.5;" width="114" x="852" y="418.8613"/><text fill="#000000" font-family="sans-serif" font-size="14" lengthAdjust="spacing" textLength="100" x="859" y="440.9688">:SubsetPartition</text><path d="M842,469.4824 L915,469.4824 L915,478.7734 L905,488.7734 L842,488.7734 L842,469.4824 " fill="#EEEEEE" style="stroke:#000000;stroke-width:1.5;"/><rect fill="none" height="94.2031" style="stroke:#000000;stroke-width:1.5;" width="570" x="842" y="469.4824"/><text fill="#000000" font-family="sans-serif" font-size="13" font-weight="bold" lengthAdjust="spacing" textLength="28" x="857" y="484.5107">loop</text><a href="for" target="_top" title="for" xlink:actuate="onRequest" xlink:href="for" xlink:show="new" xlink:title="for" xlink:type="simple"><text fill="#1D1D1D" font-family="sans-serif" font-size="11" font-weight="bold" lengthAdjust="spacing" text-decoration="underline" textLength="117" x="930" y="483.3525">each store on the list</text></a><polygon fill="#181818" points="1336,508.0645,1346,512.0645,1336,516.0645,1340,512.0645" style="stroke:#181818;stroke-width:1.0;"/><line style="stroke:#181818;stroke-width:1.0;" x1="914" x2="1342" y1="512.0645" y2="512.0645"/><text fill="#000000" font-family="sans-serif" font-size="13" font-weight="bold" lengthAdjust="spacing" textLength="14" x="921" y="506.8018">12</text><text fill="#000000" font-family="sans-serif" font-size="13" lengthAdjust="spacing" textLength="63" x="939" y="506.8018">load Tuplet</text><rect fill="#E3E3E3" height="32.6211" rx="2.5" ry="2.5" style="stroke:#181818;stroke-width:0.5;" width="54" x="1348" y="488.7734"/><text fill="#000000" font-family="sans-serif" font-size="14" lengthAdjust="spacing" textLength="40" x="1355" y="510.8809">Tuplet</text><polygon fill="#181818" points="925,551.6855,915,555.6855,925,559.6855,921,555.6855" style="stroke:#181818;stroke-width:1.0;"/><line style="stroke:#181818;stroke-width:1.0;stroke-dasharray:2.0,2.0;" x1="919" x2="1374" y1="555.6855" y2="555.6855"/><text fill="#000000" font-family="sans-serif" font-size="13" font-weight="bold" lengthAdjust="spacing" textLength="14" x="931" y="550.4229">13</text><text fill="#000000" font-family="sans-serif" font-size="13" lengthAdjust="spacing" textLength="32" x="949" y="550.4229">tuplet</text><line style="stroke:#181818;stroke-width:1.0;stroke-dasharray:2.0,2.0;" x1="914" x2="956" y1="593.9766" y2="593.9766"/><line style="stroke:#181818;stroke-width:1.0;stroke-dasharray:2.0,2.0;" x1="956" x2="956" y1="593.9766" y2="606.9766"/><line style="stroke:#181818;stroke-width:1.0;stroke-dasharray:2.0,2.0;" x1="915" x2="956" y1="606.9766" y2="606.9766"/><polygon fill="#181818" points="925,602.9766,915,606.9766,925,610.9766,921,606.9766" style="stroke:#181818;stroke-width:1.0;"/><text fill="#000000" font-family="sans-serif" font-size="13" font-weight="bold" lengthAdjust="spacing" textLength="14" x="921" y="588.7139">14</text><text fill="#000000" font-family="sans-serif" font-size="13" lengthAdjust="spacing" textLength="67" x="939" y="588.7139">list of tuplet</text><line style="stroke:#181818;stroke-width:1.0;" x1="914" x2="956" y1="638.2676" y2="638.2676"/><line style="stroke:#181818;stroke-width:1.0;" x1="956" x2="956" y1="638.2676" y2="651.2676"/><line style="stroke:#181818;stroke-width:1.0;" x1="915" x2="956" y1="651.2676" y2="651.2676"/><polygon fill="#181818" points="925,647.2676,915,651.2676,925,655.2676,921,651.2676" style="stroke:#181818;stroke-width:1.0;"/><text fill="#000000" font-family="sans-serif" font-size="13" font-weight="bold" lengthAdjust="spacing" textLength="14" x="921" y="633.0049">15</text><text fill="#000000" font-family="sans-serif" font-size="13" lengthAdjust="spacing" textLength="168" x="939" y="633.0049">calculatePartitions(list tuplet)</text><line style="stroke:#181818;stroke-width:1.0;" x1="914" x2="956" y1="682.5586" y2="682.5586"/><line style="stroke:#181818;stroke-width:1.0;" x1="956" x2="956" y1="682.5586" y2="695.5586"/><line style="stroke:#181818;stroke-width:1.0;" x1="915" x2="956" y1="695.5586" y2="695.5586"/><polygon fill="#181818" points="925,691.5586,915,695.5586,925,699.5586,921,695.5586" style="stroke:#181818;stroke-width:1.0;"/><text fill="#000000" font-family="sans-serif" font-size="13" font-weight="bold" lengthAdjust="spacing" textLength="14" x="921" y="677.2959">16</text><text fill="#000000" font-family="sans-serif" font-size="13" lengthAdjust="spacing" textLength="97" x="939" y="677.2959">findMinPartition()</text><line style="stroke:#181818;stroke-width:1.0;" x1="914" x2="956" y1="726.8496" y2="726.8496"/><line style="stroke:#181818;stroke-width:1.0;" x1="956" x2="956" y1="726.8496" y2="739.8496"/><line style="stroke:#181818;stroke-width:1.0;" x1="915" x2="956" y1="739.8496" y2="739.8496"/><polygon fill="#181818" points="925,735.8496,915,739.8496,925,743.8496,921,739.8496" style="stroke:#181818;stroke-width:1.0;"/><text fill="#000000" font-family="sans-serif" font-size="13" font-weight="bold" lengthAdjust="spacing" textLength="14" x="921" y="721.5869">17</text><text fill="#000000" font-family="sans-serif" font-size="13" lengthAdjust="spacing" textLength="140" x="939" y="721.5869">calculateSum(list tuplet)</text><polygon fill="#181818" points="639,767.1406,629,771.1406,639,775.1406,635,771.1406" style="stroke:#181818;stroke-width:1.0;"/><line style="stroke:#181818;stroke-width:1.0;stroke-dasharray:2.0,2.0;" x1="633" x2="908" y1="771.1406" y2="771.1406"/><text fill="#000000" font-family="sans-serif" font-size="13" font-weight="bold" lengthAdjust="spacing" textLength="14" x="645" y="765.8779">18</text><text fill="#000000" font-family="sans-serif" font-size="13" lengthAdjust="spacing" textLength="82" x="663" y="765.8779">subset partion</text><polygon fill="#181818" points="368,798.4316,358,802.4316,368,806.4316,364,802.4316" style="stroke:#181818;stroke-width:1.0;"/><line style="stroke:#181818;stroke-width:1.0;stroke-dasharray:2.0,2.0;" x1="362" x2="622" y1="802.4316" y2="802.4316"/><text fill="#000000" font-family="sans-serif" font-size="13" font-weight="bold" lengthAdjust="spacing" textLength="14" x="374" y="797.1689">19</text><text fill="#000000" font-family="sans-serif" font-size="13" lengthAdjust="spacing" textLength="82" x="392" y="797.1689">subset partion</text><polygon fill="#181818" points="47,829.7227,37,833.7227,47,837.7227,43,833.7227" style="stroke:#181818;stroke-width:1.0;"/><line style="stroke:#181818;stroke-width:1.0;stroke-dasharray:2.0,2.0;" x1="41" x2="346" y1="833.7227" y2="833.7227"/><text fill="#000000" font-family="sans-serif" font-size="13" font-weight="bold" lengthAdjust="spacing" textLength="14" x="53" y="828.46">20</text><text fill="#000000" font-family="sans-serif" font-size="13" lengthAdjust="spacing" textLength="264" x="71" y="828.46">display result and inform operation successful</text><!--SRC=[ZPNDRjim3CVlUWeYboK5_08v-59WG0ujYcN13iCEYap7GcN9qqUtlFre-KlsRAGvsHJvuryapRXtgHjkUGsrqKPKrjG8tWPaRZnfk7ZdDppxkqAmA3pNDvKwk8eNve_KDoYvSiWO3zxeK5_HClQbaWL2QOo_ch-C2syix5wu9gBT0NVGFpDYUIbamxM7tV6PAn4Kz_ZMces-dABpvVJ0xzbeRurIFLoChukuSxWwz36e3OlEol2YbJpt_8QDSP9aItJHpGw6-v99DXpTxz7P3JRMtbr-aDBnngn_W2o_dE18uDy1dGTle45R6bi3EQYxGmT6ToW6z1j9L8xsdQApBEzfCmwrA7Zuu2eWl4RV0jFeIG542Pr_3y022kxvPieyAU_J4qM36BhnG_hgDGfsUts84JDAqfVXR3ArvAd8nBsXFsb7SoTmFy5cmAGfwVbaplAn5HrnqQq5U0QVchXqcPZPKdGysjArwCHwWWINpOhzY9wGLppcXLvKfMlQLze3IMdqHj7NPSzhig9QIUVPfoinbzjzet7QLeTjoh2XkV_8qpDbJ0C_QKTP825LhvA-E5zrAFYry6yHhPhleL7eevhMsBzl3zB6UMUEvUhPH_3hhacfLc2eYtYRLRbPFiBZfKovbcIwtEWjPZksNPTk7mbT-E5HV2bryIBr6Bq_V3hZETIFK_qtPN6tGzFz8snDsc8GqZ4Rjk46A86ixB5k6GzBdYY5T8tYT_eKNL2ULdf1QpPkTqDhdhTeoYG4EbS6nVfVagH7_GC0]--></g></svg>