<?xml version="1.0" encoding="us-ascii" standalone="no"?><svg xmlns="http://www.w3.org/2000/svg" xmlns:xlink="http://www.w3.org/1999/xlink" contentStyleType="text/css" height="559px" preserveAspectRatio="none" style="width:605px;height:559px;background:#FFFFFF;" version="1.1" viewBox="0 0 605 559" width="605px" zoomAndPan="magnify"><defs/><g><text fill="#000000" font-family="sans-serif" font-size="14" font-weight="bold" lengthAdjust="spacing" textLength="228" x="190" y="30.1074">System Sequence Diagram (SSD)</text><rect fill="#FFFFFF" height="333.541" style="stroke:#181818;stroke-width:1.0;" width="10" x="83" y="133.2422"/><rect fill="#FFFFFF" height="57.582" style="stroke:#181818;stroke-width:1.0;" width="10" x="542" y="156.5332"/><rect fill="#FFFFFF" height="31.291" style="stroke:#181818;stroke-width:1.0;" width="10" x="542" y="271.6973"/><rect fill="#FFFFFF" height="31.291" style="stroke:#181818;stroke-width:1.0;" width="10" x="542" y="350.9102"/><rect fill="#FFFFFF" height="31.291" style="stroke:#181818;stroke-width:1.0;" width="10" x="542" y="413.4922"/><rect fill="none" height="288.25" style="stroke:#000000;stroke-width:1.5;" width="589" x="10" y="171.5332"/><rect fill="none" height="223.668" style="stroke:#000000;stroke-width:1.5;" width="569" x="20" y="229.1152"/><line style="stroke:#181818;stroke-width:0.5;stroke-dasharray:5.0,5.0;" x1="88" x2="88" y1="123.2422" y2="476.7832"/><line style="stroke:#181818;stroke-width:0.5;stroke-dasharray:5.0,5.0;" x1="547" x2="547" y1="123.2422" y2="476.7832"/><text fill="#000000" font-family="sans-serif" font-size="14" lengthAdjust="spacing" textLength="110" x="30" y="119.7285">Network Manager</text><ellipse cx="88" cy="53.1211" fill="#E3E3E3" rx="8" ry="8" style="stroke:#181818;stroke-width:0.5;"/><path d="M88,61.1211 L88,88.1211 M75,69.1211 L101,69.1211 M88,88.1211 L75,103.1211 M88,88.1211 L101,103.1211 " fill="none" style="stroke:#181818;stroke-width:0.5;"/><text fill="#000000" font-family="sans-serif" font-size="14" lengthAdjust="spacing" textLength="110" x="30" y="490.8906">Network Manager</text><ellipse cx="88" cy="502.9043" fill="#E3E3E3" rx="8" ry="8" style="stroke:#181818;stroke-width:0.5;"/><path d="M88,510.9043 L88,537.9043 M75,518.9043 L101,518.9043 M88,537.9043 L75,552.9043 M88,537.9043 L101,552.9043 " fill="none" style="stroke:#181818;stroke-width:0.5;"/><rect fill="#E3E3E3" height="32.6211" rx="2.5" ry="2.5" style="stroke:#181818;stroke-width:0.5;" width="64" x="515" y="89.6211"/><text fill="#000000" font-family="sans-serif" font-size="14" lengthAdjust="spacing" textLength="50" x="522" y="111.7285">:System</text><rect fill="#E3E3E3" height="32.6211" rx="2.5" ry="2.5" style="stroke:#181818;stroke-width:0.5;" width="64" x="515" y="475.7832"/><text fill="#000000" font-family="sans-serif" font-size="14" lengthAdjust="spacing" textLength="50" x="522" y="497.8906">:System</text><rect fill="#FFFFFF" height="333.541" style="stroke:#181818;stroke-width:1.0;" width="10" x="83" y="133.2422"/><rect fill="#FFFFFF" height="57.582" style="stroke:#181818;stroke-width:1.0;" width="10" x="542" y="156.5332"/><rect fill="#FFFFFF" height="31.291" style="stroke:#181818;stroke-width:1.0;" width="10" x="542" y="271.6973"/><rect fill="#FFFFFF" height="31.291" style="stroke:#181818;stroke-width:1.0;" width="10" x="542" y="350.9102"/><rect fill="#FFFFFF" height="31.291" style="stroke:#181818;stroke-width:1.0;" width="10" x="542" y="413.4922"/><polygon fill="#181818" points="530,152.5332,540,156.5332,530,160.5332,534,156.5332" style="stroke:#181818;stroke-width:1.0;"/><line style="stroke:#181818;stroke-width:1.0;" x1="93" x2="536" y1="156.5332" y2="156.5332"/><text fill="#000000" font-family="sans-serif" font-size="13" font-weight="bold" lengthAdjust="spacing" textLength="7" x="100" y="151.2705">1</text><text fill="#000000" font-family="sans-serif" font-size="13" lengthAdjust="spacing" textLength="242" x="111" y="151.2705">ask to perform subset partition calculation</text><path d="M10,171.5332 L83,171.5332 L83,180.8242 L73,190.8242 L10,190.8242 L10,171.5332 " fill="#EEEEEE" style="stroke:#000000;stroke-width:1.5;"/><rect fill="none" height="288.25" style="stroke:#000000;stroke-width:1.5;" width="589" x="10" y="171.5332"/><text fill="#000000" font-family="sans-serif" font-size="13" font-weight="bold" lengthAdjust="spacing" textLength="28" x="25" y="186.5615">loop</text><polygon fill="#181818" points="104,210.1152,94,214.1152,104,218.1152,100,214.1152" style="stroke:#181818;stroke-width:1.0;"/><line style="stroke:#181818;stroke-width:1.0;stroke-dasharray:2.0,2.0;" x1="98" x2="546" y1="214.1152" y2="214.1152"/><text fill="#000000" font-family="sans-serif" font-size="13" font-weight="bold" lengthAdjust="spacing" textLength="7" x="110" y="208.8525">2</text><text fill="#000000" font-family="sans-serif" font-size="13" lengthAdjust="spacing" textLength="414" x="121" y="208.8525">Show options (calculate all / calculate with N) and request to select one</text><path d="M20,229.1152 L81,229.1152 L81,238.4063 L71,248.4063 L20,248.4063 L20,229.1152 " fill="#EEEEEE" style="stroke:#000000;stroke-width:1.5;"/><rect fill="none" height="223.668" style="stroke:#000000;stroke-width:1.5;" width="569" x="20" y="229.1152"/><text fill="#000000" font-family="sans-serif" font-size="13" font-weight="bold" lengthAdjust="spacing" textLength="16" x="35" y="244.1436">alt</text><a href="Employee" target="_top" title="Employee" xlink:actuate="onRequest" xlink:href="Employee" xlink:show="new" xlink:title="Employee" xlink:type="simple"><text fill="#1D1D1D" font-family="sans-serif" font-size="11" font-weight="bold" lengthAdjust="spacing" text-decoration="underline" textLength="100" x="96" y="242.9854">select calculate all</text></a><polygon fill="#181818" points="530,267.6973,540,271.6973,530,275.6973,534,271.6973" style="stroke:#181818;stroke-width:1.0;"/><line style="stroke:#181818;stroke-width:1.0;" x1="93" x2="536" y1="271.6973" y2="271.6973"/><text fill="#000000" font-family="sans-serif" font-size="13" font-weight="bold" lengthAdjust="spacing" textLength="7" x="100" y="266.4346">3</text><text fill="#000000" font-family="sans-serif" font-size="13" lengthAdjust="spacing" textLength="110" x="111" y="266.4346">select calculate All</text><polygon fill="#181818" points="104,298.9883,94,302.9883,104,306.9883,100,302.9883" style="stroke:#181818;stroke-width:1.0;"/><line style="stroke:#181818;stroke-width:1.0;stroke-dasharray:2.0,2.0;" x1="98" x2="546" y1="302.9883" y2="302.9883"/><text fill="#000000" font-family="sans-serif" font-size="13" font-weight="bold" lengthAdjust="spacing" textLength="7" x="110" y="297.7256">4</text><text fill="#000000" font-family="sans-serif" font-size="13" lengthAdjust="spacing" textLength="264" x="121" y="297.7256">display result and inform operation successful</text><line style="stroke:#000000;stroke-width:1.0;stroke-dasharray:2.0,2.0;" x1="20" x2="589" y1="311.9883" y2="311.9883"/><a href="Employee" target="_top" title="Employee" xlink:actuate="onRequest" xlink:href="Employee" xlink:show="new" xlink:title="Employee" xlink:type="simple"><text fill="#1D1D1D" font-family="sans-serif" font-size="11" font-weight="bold" lengthAdjust="spacing" text-decoration="underline" textLength="122" x="25" y="323.8584">select calculate with N</text></a><polygon fill="#181818" points="530,346.9102,540,350.9102,530,354.9102,534,350.9102" style="stroke:#181818;stroke-width:1.0;"/><line style="stroke:#181818;stroke-width:1.0;" x1="93" x2="536" y1="350.9102" y2="350.9102"/><text fill="#000000" font-family="sans-serif" font-size="13" font-weight="bold" lengthAdjust="spacing" textLength="7" x="100" y="345.6475">5</text><text fill="#000000" font-family="sans-serif" font-size="13" lengthAdjust="spacing" textLength="131" x="111" y="345.6475">select calculate with N</text><polygon fill="#181818" points="104,378.2012,94,382.2012,104,386.2012,100,382.2012" style="stroke:#181818;stroke-width:1.0;"/><line style="stroke:#181818;stroke-width:1.0;stroke-dasharray:2.0,2.0;" x1="98" x2="546" y1="382.2012" y2="382.2012"/><text fill="#000000" font-family="sans-serif" font-size="13" font-weight="bold" lengthAdjust="spacing" textLength="7" x="110" y="376.9385">6</text><text fill="#000000" font-family="sans-serif" font-size="13" lengthAdjust="spacing" textLength="136" x="121" y="376.9385">request to input value N</text><polygon fill="#181818" points="530,409.4922,540,413.4922,530,417.4922,534,413.4922" style="stroke:#181818;stroke-width:1.0;"/><line style="stroke:#181818;stroke-width:1.0;" x1="93" x2="536" y1="413.4922" y2="413.4922"/><text fill="#000000" font-family="sans-serif" font-size="13" font-weight="bold" lengthAdjust="spacing" textLength="7" x="100" y="408.2295">7</text><text fill="#000000" font-family="sans-serif" font-size="13" lengthAdjust="spacing" textLength="118" x="111" y="408.2295">input requested data</text><polygon fill="#181818" points="104,440.7832,94,444.7832,104,448.7832,100,444.7832" style="stroke:#181818;stroke-width:1.0;"/><line style="stroke:#181818;stroke-width:1.0;stroke-dasharray:2.0,2.0;" x1="98" x2="546" y1="444.7832" y2="444.7832"/><text fill="#000000" font-family="sans-serif" font-size="13" font-weight="bold" lengthAdjust="spacing" textLength="7" x="110" y="439.5205">8</text><text fill="#000000" font-family="sans-serif" font-size="13" lengthAdjust="spacing" textLength="257" x="121" y="439.5205">diplay result and inform operation successful</text><!--SRC=[hLCxRy8m4DxpAqvCCA3k39KgqR4i6QiEXtE05SUNscTG_dql3mAe0HMfMN9ElljUIc9fVOq1AwZOipa4hWWa9ChY-AP6K-AUScaSGI0ZwFVk6X0FMF39-Ztiq4NACh6YqBo9GXNaz9t86uArnNqBd-VvUf5bc8HzghOKT3R20MORaXE74ZxGgs2O0KPuhsh73L6cMcADhT4Bp5OzUOVenux47b7eifA1NkSJB5_FbbQwLe8mr1Hs73H1saOIw2J4iWU3pYI7xToHZDo3MFlCCTVTCB0kLM0KMq5-u1DmtL94c9y92T0vU87B-MJb09i5e2-qNUqgIcijajEgWJrr6WLDMK0dy3bg3YitKb_tE_W5VtFkRjZfZ8MDjSD6VSUaLje8rdUDibRRrQVT6aCnxf9x48JqktcKf2_fcJ3znfDvhlhNZpi97D4b6cYcdK-wwPS7DYgWGC4_MBbfzf-AzSLulq9SVf7i1m00]--></g></svg>