<?xml version="1.0" encoding="us-ascii" standalone="no"?><svg xmlns="http://www.w3.org/2000/svg" xmlns:xlink="http://www.w3.org/1999/xlink" contentStyleType="text/css" height="468px" preserveAspectRatio="none" style="width:877px;height:468px;background:#FFFFFF;" version="1.1" viewBox="0 0 877 468" width="877px" zoomAndPan="magnify"><defs/><g><rect fill="#FFFFFF" height="303.9883" style="stroke:#181818;stroke-width:1.0;" width="10" x="361" y="90.5332"/><rect fill="#FFFFFF" height="130.873" style="stroke:#181818;stroke-width:1.0;" width="10" x="366" y="218.3574"/><rect fill="#FFFFFF" height="42.291" style="stroke:#181818;stroke-width:1.0;" width="10" x="371" y="262.6484"/><rect fill="none" height="258.6973" style="stroke:#000000;stroke-width:1.5;" width="605.5" x="265.5" y="105.5332"/><line style="stroke:#181818;stroke-width:0.5;stroke-dasharray:5.0,5.0;" x1="365.5" x2="365.5" y1="57.2422" y2="412.5215"/><line style="stroke:#181818;stroke-width:0.5;stroke-dasharray:5.0,5.0;" x1="804" x2="804" y1="165.9453" y2="412.5215"/><rect fill="#E3E3E3" height="51.2422" rx="2.5" ry="2.5" style="stroke:#181818;stroke-width:0.5;" width="181" x="275.5" y="5"/><text fill="#000000" font-family="sans-serif" font-size="14" lengthAdjust="spacing" textLength="163" x="284.5" y="27.1074">AnnouncementRepository</text><text fill="#000000" font-family="sans-serif" font-size="14" lengthAdjust="spacing" textLength="167" x="282.5" y="45.7285">:AnnouncementRepository</text><rect fill="#E3E3E3" height="51.2422" rx="2.5" ry="2.5" style="stroke:#181818;stroke-width:0.5;" width="181" x="275.5" y="411.5215"/><text fill="#000000" font-family="sans-serif" font-size="14" lengthAdjust="spacing" textLength="163" x="284.5" y="433.6289">AnnouncementRepository</text><text fill="#000000" font-family="sans-serif" font-size="14" lengthAdjust="spacing" textLength="167" x="282.5" y="452.25">:AnnouncementRepository</text><rect fill="#E3E3E3" height="51.2422" rx="2.5" ry="2.5" style="stroke:#181818;stroke-width:0.5;" width="113" x="748" y="411.5215"/><text fill="#000000" font-family="sans-serif" font-size="14" lengthAdjust="spacing" textLength="95" x="757" y="433.6289">Announcement</text><text fill="#000000" font-family="sans-serif" font-size="14" lengthAdjust="spacing" textLength="99" x="755" y="452.25">:Announcement</text><rect fill="#FFFFFF" height="303.9883" style="stroke:#181818;stroke-width:1.0;" width="10" x="361" y="90.5332"/><rect fill="#FFFFFF" height="130.873" style="stroke:#181818;stroke-width:1.0;" width="10" x="366" y="218.3574"/><rect fill="#FFFFFF" height="42.291" style="stroke:#181818;stroke-width:1.0;" width="10" x="371" y="262.6484"/><polygon fill="#181818" points="349,86.5332,359,90.5332,349,94.5332,353,90.5332" style="stroke:#181818;stroke-width:1.0;"/><line style="stroke:#181818;stroke-width:1.0;" x1="0" x2="355" y1="90.5332" y2="90.5332"/><text fill="#000000" font-family="sans-serif" font-size="13" font-weight="bold" lengthAdjust="spacing" textLength="14" x="7" y="85.2705">16</text><text fill="#000000" font-family="sans-serif" font-size="13" lengthAdjust="spacing" textLength="324" x="25" y="85.2705">createAnnouncement(Property, commission, Employee)</text><path d="M265.5,105.5332 L385.5,105.5332 L385.5,114.8242 L375.5,124.8242 L265.5,124.8242 L265.5,105.5332 " fill="#EEEEEE" style="stroke:#000000;stroke-width:1.5;"/><rect fill="none" height="258.6973" style="stroke:#000000;stroke-width:1.5;" width="605.5" x="265.5" y="105.5332"/><text fill="#000000" font-family="sans-serif" font-size="13" font-weight="bold" lengthAdjust="spacing" textLength="75" x="280.5" y="120.5615">Create Task</text><polygon fill="#181818" points="736,144.1152,746,148.1152,736,152.1152,740,148.1152" style="stroke:#181818;stroke-width:1.0;"/><line style="stroke:#181818;stroke-width:1.0;" x1="371" x2="742" y1="148.1152" y2="148.1152"/><text fill="#000000" font-family="sans-serif" font-size="13" font-weight="bold" lengthAdjust="spacing" textLength="25" x="378" y="142.8525">16.1</text><text fill="#000000" font-family="sans-serif" font-size="13" lengthAdjust="spacing" textLength="324" x="407" y="142.8525">createAnnouncement(Property, commission, Employee)</text><rect fill="#E3E3E3" height="51.2422" rx="2.5" ry="2.5" style="stroke:#181818;stroke-width:0.5;" width="113" x="748" y="124.8242"/><text fill="#000000" font-family="sans-serif" font-size="14" lengthAdjust="spacing" textLength="95" x="757" y="146.9316">Announcement</text><text fill="#000000" font-family="sans-serif" font-size="14" lengthAdjust="spacing" textLength="99" x="755" y="165.5527">:Announcement</text><line style="stroke:#181818;stroke-width:1.0;" x1="371" x2="418" y1="205.3574" y2="205.3574"/><line style="stroke:#181818;stroke-width:1.0;" x1="418" x2="418" y1="205.3574" y2="218.3574"/><line style="stroke:#181818;stroke-width:1.0;" x1="377" x2="418" y1="218.3574" y2="218.3574"/><polygon fill="#181818" points="387,214.3574,377,218.3574,387,222.3574,383,218.3574" style="stroke:#181818;stroke-width:1.0;"/><text fill="#000000" font-family="sans-serif" font-size="13" font-weight="bold" lengthAdjust="spacing" textLength="25" x="383" y="200.0947">16.2</text><text fill="#000000" font-family="sans-serif" font-size="13" lengthAdjust="spacing" textLength="207" x="412" y="200.0947">addAnnouncement (Announcement)</text><line style="stroke:#181818;stroke-width:1.0;" x1="376" x2="423" y1="249.6484" y2="249.6484"/><line style="stroke:#181818;stroke-width:1.0;" x1="423" x2="423" y1="249.6484" y2="262.6484"/><line style="stroke:#181818;stroke-width:1.0;" x1="382" x2="423" y1="262.6484" y2="262.6484"/><polygon fill="#181818" points="392,258.6484,382,262.6484,392,266.6484,388,262.6484" style="stroke:#181818;stroke-width:1.0;"/><text fill="#000000" font-family="sans-serif" font-size="13" font-weight="bold" lengthAdjust="spacing" textLength="25" x="388" y="244.3857">16.3</text><text fill="#000000" font-family="sans-serif" font-size="13" lengthAdjust="spacing" textLength="225" x="417" y="244.3857">validateAnnouncement(Announcement)</text><line style="stroke:#181818;stroke-width:1.0;stroke-dasharray:2.0,2.0;" x1="381" x2="423" y1="303.9395" y2="303.9395"/><line style="stroke:#181818;stroke-width:1.0;stroke-dasharray:2.0,2.0;" x1="423" x2="423" y1="303.9395" y2="316.9395"/><line style="stroke:#181818;stroke-width:1.0;stroke-dasharray:2.0,2.0;" x1="376" x2="423" y1="316.9395" y2="316.9395"/><polygon fill="#181818" points="386,312.9395,376,316.9395,386,320.9395,382,316.9395" style="stroke:#181818;stroke-width:1.0;"/><text fill="#000000" font-family="sans-serif" font-size="13" font-weight="bold" lengthAdjust="spacing" textLength="25" x="388" y="298.6768">16.4</text><text fill="#000000" font-family="sans-serif" font-size="13" lengthAdjust="spacing" textLength="4" x="417" y="298.6768">&#160;</text><line style="stroke:#181818;stroke-width:1.0;stroke-dasharray:2.0,2.0;" x1="376" x2="418" y1="348.2305" y2="348.2305"/><line style="stroke:#181818;stroke-width:1.0;stroke-dasharray:2.0,2.0;" x1="418" x2="418" y1="348.2305" y2="361.2305"/><line style="stroke:#181818;stroke-width:1.0;stroke-dasharray:2.0,2.0;" x1="371" x2="418" y1="361.2305" y2="361.2305"/><polygon fill="#181818" points="381,357.2305,371,361.2305,381,365.2305,377,361.2305" style="stroke:#181818;stroke-width:1.0;"/><text fill="#000000" font-family="sans-serif" font-size="13" font-weight="bold" lengthAdjust="spacing" textLength="25" x="383" y="342.9678">16.5</text><text fill="#000000" font-family="sans-serif" font-size="13" lengthAdjust="spacing" textLength="4" x="412" y="342.9678">&#160;</text><polygon fill="#181818" points="11,390.5215,1,394.5215,11,398.5215,7,394.5215" style="stroke:#181818;stroke-width:1.0;"/><line style="stroke:#181818;stroke-width:1.0;stroke-dasharray:2.0,2.0;" x1="5" x2="365" y1="394.5215" y2="394.5215"/><text fill="#000000" font-family="sans-serif" font-size="13" font-weight="bold" lengthAdjust="spacing" textLength="14" x="17" y="389.2588">17</text><text fill="#000000" font-family="sans-serif" font-size="13" lengthAdjust="spacing" textLength="87" x="35" y="389.2588">Announcement</text><!--SRC=[dP51QyCm38Nl_XMYfxQqWrusA6CGHhVZHjRZBfgZfQQnP6od8_z-YGkTcxKCffkVz3uzuR0txD2Z1IiiUkV54aJVaWgdZaEznvhUOjSGUD8HkMxoWR33IhuCr_29JI2bUZaQRHnoX4d1B2rhiiIn92V1HF7TEwylDoQ00LxAv-kGaJKPjaMvUIgKmZOAj_Q3FAnkrV9X8Ar1Uy98kMdwwiMHZzq2j5XhGZ322zXOrqX7D1kHRbOATJI7dfAoGL-rbzR1OqB35iDU9NceVWJwtSTGy_c_0enOwGwigfm1q_mr-zd_A-ibs04RKurJdGDpwrNcYNi4d_KgEhEflpoZ-K4Yhew-_4FkadA_N2RA6lBOQhpq6m00]--></g></svg>