<?xml version="1.0" encoding="us-ascii" standalone="no"?><svg xmlns="http://www.w3.org/2000/svg" xmlns:xlink="http://www.w3.org/1999/xlink" contentStyleType="text/css" height="1264px" preserveAspectRatio="none" style="width:1509px;height:1264px;background:#FFFFFF;" version="1.1" viewBox="0 0 1509 1264" width="1509px" zoomAndPan="magnify"><defs/><g><rect fill="#FFFFFF" height="1069.457" style="stroke:#181818;stroke-width:1.0;" width="10" x="56" y="93.6211"/><rect fill="#FFFFFF" height="201.707" style="stroke:#181818;stroke-width:1.0;" width="10" x="507" y="116.9121"/><rect fill="#FFFFFF" height="158.0859" style="stroke:#181818;stroke-width:1.0;" width="10" x="507" y="349.9102"/><rect fill="#FFFFFF" height="31.291" style="stroke:#181818;stroke-width:1.0;" width="10" x="507" y="539.2871"/><rect fill="#FFFFFF" height="31.291" style="stroke:#181818;stroke-width:1.0;" width="10" x="507" y="601.8691"/><rect fill="#FFFFFF" height="498.627" style="stroke:#181818;stroke-width:1.0;" width="10" x="507" y="664.4512"/><rect fill="#FFFFFF" height="95.5039" style="stroke:#181818;stroke-width:1.0;" width="10" x="830" y="191.8242"/><rect fill="#FFFFFF" height="95.5039" style="stroke:#181818;stroke-width:1.0;" width="10" x="830" y="381.2012"/><rect fill="#FFFFFF" height="310.8809" style="stroke:#181818;stroke-width:1.0;" width="10" x="830" y="695.7422"/><rect fill="#FFFFFF" height="106.5039" style="stroke:#181818;stroke-width:1.0;" width="10" x="835" y="735.0332"/><rect fill="#FFFFFF" height="93.873" style="stroke:#181818;stroke-width:1.0;" width="10" x="830" y="1037.9141"/><rect fill="#FFFFFF" height="95.5039" style="stroke:#181818;stroke-width:1.0;" width="10" x="1201" y="879.8281"/><rect fill="#FFFFFF" height="31.291" style="stroke:#181818;stroke-width:1.0;" width="10" x="1400" y="1069.2051"/><line style="stroke:#181818;stroke-width:0.5;stroke-dasharray:5.0,5.0;" x1="61" x2="61" y1="83.6211" y2="1181.0781"/><line style="stroke:#181818;stroke-width:0.5;stroke-dasharray:5.0,5.0;" x1="512" x2="512" y1="83.6211" y2="1181.0781"/><line style="stroke:#181818;stroke-width:0.5;stroke-dasharray:5.0,5.0;" x1="835" x2="835" y1="156.7227" y2="1181.0781"/><line style="stroke:#181818;stroke-width:0.5;stroke-dasharray:5.0,5.0;" x1="1205.5" x2="1205.5" y1="83.6211" y2="1181.0781"/><line style="stroke:#181818;stroke-width:0.5;stroke-dasharray:5.0,5.0;" x1="1404.5" x2="1404.5" y1="83.6211" y2="1181.0781"/><text fill="#000000" font-family="sans-serif" font-size="14" lengthAdjust="spacing" textLength="106" x="5" y="80.1074">Real State agent</text><ellipse cx="61" cy="13.5" fill="#E3E3E3" rx="8" ry="8" style="stroke:#181818;stroke-width:0.5;"/><path d="M61,21.5 L61,48.5 M48,29.5 L74,29.5 M61,48.5 L48,63.5 M61,48.5 L74,63.5 " fill="none" style="stroke:#181818;stroke-width:0.5;"/><text fill="#000000" font-family="sans-serif" font-size="14" lengthAdjust="spacing" textLength="106" x="5" y="1195.1855">Real State agent</text><ellipse cx="61" cy="1207.1992" fill="#E3E3E3" rx="8" ry="8" style="stroke:#181818;stroke-width:0.5;"/><path d="M61,1215.1992 L61,1242.1992 M48,1223.1992 L74,1223.1992 M61,1242.1992 L48,1257.1992 M61,1242.1992 L74,1257.1992 " fill="none" style="stroke:#181818;stroke-width:0.5;"/><rect fill="#E3E3E3" height="32.6211" rx="2.5" ry="2.5" style="stroke:#181818;stroke-width:0.5;" width="168" x="428" y="50"/><text fill="#000000" font-family="sans-serif" font-size="14" lengthAdjust="spacing" textLength="154" x="435" y="72.1074">:CreateAnnouncementUI</text><rect fill="#E3E3E3" height="32.6211" rx="2.5" ry="2.5" style="stroke:#181818;stroke-width:0.5;" width="168" x="428" y="1180.0781"/><text fill="#000000" font-family="sans-serif" font-size="14" lengthAdjust="spacing" textLength="154" x="435" y="1202.1855">:CreateAnnouncementUI</text><rect fill="#E3E3E3" height="32.6211" rx="2.5" ry="2.5" style="stroke:#181818;stroke-width:0.5;" width="218" x="726" y="1180.0781"/><text fill="#000000" font-family="sans-serif" font-size="14" lengthAdjust="spacing" textLength="204" x="733" y="1202.1855">:CreateAnnouncementController</text><rect fill="#E3E3E3" height="51.2422" rx="2.5" ry="2.5" style="stroke:#181818;stroke-width:0.5;" width="181" x="1115.5" y="31.3789"/><text fill="#000000" font-family="sans-serif" font-size="14" lengthAdjust="spacing" textLength="163" x="1124.5" y="53.4863">AnnouncementRepository</text><text fill="#000000" font-family="sans-serif" font-size="14" lengthAdjust="spacing" textLength="167" x="1122.5" y="72.1074">:AnnouncementRepository</text><rect fill="#E3E3E3" height="51.2422" rx="2.5" ry="2.5" style="stroke:#181818;stroke-width:0.5;" width="181" x="1115.5" y="1180.0781"/><text fill="#000000" font-family="sans-serif" font-size="14" lengthAdjust="spacing" textLength="163" x="1124.5" y="1202.1855">AnnouncementRepository</text><text fill="#000000" font-family="sans-serif" font-size="14" lengthAdjust="spacing" textLength="167" x="1122.5" y="1220.8066">:AnnouncementRepository</text><rect fill="#E3E3E3" height="51.2422" rx="2.5" ry="2.5" style="stroke:#181818;stroke-width:0.5;" width="197" x="1306.5" y="31.3789"/><text fill="#000000" font-family="sans-serif" font-size="14" lengthAdjust="spacing" textLength="183" x="1313.5" y="53.4863">MessagesOfClientRepository</text><text fill="#000000" font-family="sans-serif" font-size="14" lengthAdjust="spacing" textLength="183" x="1313.5" y="72.1074">MessagesOfClientRepository</text><rect fill="#E3E3E3" height="51.2422" rx="2.5" ry="2.5" style="stroke:#181818;stroke-width:0.5;" width="197" x="1306.5" y="1180.0781"/><text fill="#000000" font-family="sans-serif" font-size="14" lengthAdjust="spacing" textLength="183" x="1313.5" y="1202.1855">MessagesOfClientRepository</text><text fill="#000000" font-family="sans-serif" font-size="14" lengthAdjust="spacing" textLength="183" x="1313.5" y="1220.8066">MessagesOfClientRepository</text><rect fill="#FFFFFF" height="1069.457" style="stroke:#181818;stroke-width:1.0;" width="10" x="56" y="93.6211"/><rect fill="#FFFFFF" height="201.707" style="stroke:#181818;stroke-width:1.0;" width="10" x="507" y="116.9121"/><rect fill="#FFFFFF" height="158.0859" style="stroke:#181818;stroke-width:1.0;" width="10" x="507" y="349.9102"/><rect fill="#FFFFFF" height="31.291" style="stroke:#181818;stroke-width:1.0;" width="10" x="507" y="539.2871"/><rect fill="#FFFFFF" height="31.291" style="stroke:#181818;stroke-width:1.0;" width="10" x="507" y="601.8691"/><rect fill="#FFFFFF" height="498.627" style="stroke:#181818;stroke-width:1.0;" width="10" x="507" y="664.4512"/><rect fill="#FFFFFF" height="95.5039" style="stroke:#181818;stroke-width:1.0;" width="10" x="830" y="191.8242"/><rect fill="#FFFFFF" height="95.5039" style="stroke:#181818;stroke-width:1.0;" width="10" x="830" y="381.2012"/><rect fill="#FFFFFF" height="310.8809" style="stroke:#181818;stroke-width:1.0;" width="10" x="830" y="695.7422"/><rect fill="#FFFFFF" height="106.5039" style="stroke:#181818;stroke-width:1.0;" width="10" x="835" y="735.0332"/><rect fill="#FFFFFF" height="93.873" style="stroke:#181818;stroke-width:1.0;" width="10" x="830" y="1037.9141"/><rect fill="#FFFFFF" height="95.5039" style="stroke:#181818;stroke-width:1.0;" width="10" x="1201" y="879.8281"/><rect fill="#FFFFFF" height="31.291" style="stroke:#181818;stroke-width:1.0;" width="10" x="1400" y="1069.2051"/><polygon fill="#181818" points="495,112.9121,505,116.9121,495,120.9121,499,116.9121" style="stroke:#181818;stroke-width:1.0;"/><line style="stroke:#181818;stroke-width:1.0;" x1="66" x2="501" y1="116.9121" y2="116.9121"/><text fill="#000000" font-family="sans-serif" font-size="13" font-weight="bold" lengthAdjust="spacing" textLength="7" x="73" y="111.6494">1</text><text fill="#000000" font-family="sans-serif" font-size="13" lengthAdjust="spacing" textLength="210" x="84" y="111.6494">asks to create a new announcement</text><polygon fill="#181818" points="714,144.2031,724,148.2031,714,152.2031,718,148.2031" style="stroke:#181818;stroke-width:1.0;"/><line style="stroke:#181818;stroke-width:1.0;" x1="517" x2="720" y1="148.2031" y2="148.2031"/><text fill="#000000" font-family="sans-serif" font-size="13" font-weight="bold" lengthAdjust="spacing" textLength="7" x="524" y="142.9404">2</text><text fill="#000000" font-family="sans-serif" font-size="13" lengthAdjust="spacing" textLength="36" x="535" y="142.9404">create</text><rect fill="#E3E3E3" height="32.6211" rx="2.5" ry="2.5" style="stroke:#181818;stroke-width:0.5;" width="218" x="726" y="124.9121"/><text fill="#000000" font-family="sans-serif" font-size="14" lengthAdjust="spacing" textLength="204" x="733" y="147.0195">:CreateAnnouncementController</text><polygon fill="#181818" points="818,187.8242,828,191.8242,818,195.8242,822,191.8242" style="stroke:#181818;stroke-width:1.0;"/><line style="stroke:#181818;stroke-width:1.0;" x1="517" x2="824" y1="191.8242" y2="191.8242"/><text fill="#000000" font-family="sans-serif" font-size="13" font-weight="bold" lengthAdjust="spacing" textLength="7" x="524" y="186.5615">3</text><text fill="#000000" font-family="sans-serif" font-size="13" lengthAdjust="spacing" textLength="59" x="535" y="186.5615">getClient()</text><rect fill="none" height="59.2129" style="stroke:#000000;stroke-width:1.5;" width="224" x="723" y="199.8242"/><path d="M723,199.8242 L785,199.8242 L785,208.8242 L775,218.8242 L723,218.8242 L723,199.8242 " fill="#EEEEEE" style="stroke:#000000;stroke-width:2.0;"/><text fill="#000000" font-family="sans-serif" font-size="13" font-weight="bold" lengthAdjust="spacing" textLength="17" x="736" y="215.8525">ref</text><text fill="#000000" font-family="sans-serif" font-size="12" lengthAdjust="spacing" textLength="97" x="786.5" y="235.7734">Get List of Clients</text><text fill="#000000" font-family="sans-serif" font-size="12" lengthAdjust="spacing" textLength="3" x="833.5" y="251.7344">&#160;</text><polygon fill="#181818" points="528,283.3281,518,287.3281,528,291.3281,524,287.3281" style="stroke:#181818;stroke-width:1.0;"/><line style="stroke:#181818;stroke-width:1.0;stroke-dasharray:2.0,2.0;" x1="522" x2="834" y1="287.3281" y2="287.3281"/><text fill="#000000" font-family="sans-serif" font-size="13" font-weight="bold" lengthAdjust="spacing" textLength="7" x="534" y="282.0654">4</text><text fill="#000000" font-family="sans-serif" font-size="13" lengthAdjust="spacing" textLength="54" x="545" y="282.0654">ClientList</text><polygon fill="#181818" points="77,314.6191,67,318.6191,77,322.6191,73,318.6191" style="stroke:#181818;stroke-width:1.0;"/><line style="stroke:#181818;stroke-width:1.0;stroke-dasharray:2.0,2.0;" x1="71" x2="511" y1="318.6191" y2="318.6191"/><text fill="#000000" font-family="sans-serif" font-size="13" font-weight="bold" lengthAdjust="spacing" textLength="7" x="83" y="313.3564">5</text><text fill="#000000" font-family="sans-serif" font-size="13" lengthAdjust="spacing" textLength="238" x="94" y="313.3564">shows Clients list and asks to select one</text><polygon fill="#181818" points="495,345.9102,505,349.9102,495,353.9102,499,349.9102" style="stroke:#181818;stroke-width:1.0;"/><line style="stroke:#181818;stroke-width:1.0;" x1="66" x2="501" y1="349.9102" y2="349.9102"/><text fill="#000000" font-family="sans-serif" font-size="13" font-weight="bold" lengthAdjust="spacing" textLength="7" x="73" y="344.6475">6</text><text fill="#000000" font-family="sans-serif" font-size="13" lengthAdjust="spacing" textLength="79" x="84" y="344.6475">selects Client</text><polygon fill="#181818" points="818,377.2012,828,381.2012,818,385.2012,822,381.2012" style="stroke:#181818;stroke-width:1.0;"/><line style="stroke:#181818;stroke-width:1.0;" x1="517" x2="824" y1="381.2012" y2="381.2012"/><text fill="#000000" font-family="sans-serif" font-size="13" font-weight="bold" lengthAdjust="spacing" textLength="7" x="524" y="375.9385">7</text><text fill="#000000" font-family="sans-serif" font-size="13" lengthAdjust="spacing" textLength="85" x="535" y="375.9385">getProperties()</text><rect fill="none" height="59.2129" style="stroke:#000000;stroke-width:1.5;" width="224" x="723" y="389.2012"/><path d="M723,389.2012 L785,389.2012 L785,398.2012 L775,408.2012 L723,408.2012 L723,389.2012 " fill="#EEEEEE" style="stroke:#000000;stroke-width:2.0;"/><text fill="#000000" font-family="sans-serif" font-size="13" font-weight="bold" lengthAdjust="spacing" textLength="17" x="736" y="405.2295">ref</text><text fill="#000000" font-family="sans-serif" font-size="12" lengthAdjust="spacing" textLength="115" x="777.5" y="425.1504">Get List of Properties</text><text fill="#000000" font-family="sans-serif" font-size="12" lengthAdjust="spacing" textLength="3" x="833.5" y="441.1113">&#160;</text><polygon fill="#181818" points="528,472.7051,518,476.7051,528,480.7051,524,476.7051" style="stroke:#181818;stroke-width:1.0;"/><line style="stroke:#181818;stroke-width:1.0;stroke-dasharray:2.0,2.0;" x1="522" x2="834" y1="476.7051" y2="476.7051"/><text fill="#000000" font-family="sans-serif" font-size="13" font-weight="bold" lengthAdjust="spacing" textLength="7" x="534" y="471.4424">8</text><text fill="#000000" font-family="sans-serif" font-size="13" lengthAdjust="spacing" textLength="80" x="545" y="471.4424">ListProperties</text><polygon fill="#181818" points="77,503.9961,67,507.9961,77,511.9961,73,507.9961" style="stroke:#181818;stroke-width:1.0;"/><line style="stroke:#181818;stroke-width:1.0;stroke-dasharray:2.0,2.0;" x1="71" x2="511" y1="507.9961" y2="507.9961"/><text fill="#000000" font-family="sans-serif" font-size="13" font-weight="bold" lengthAdjust="spacing" textLength="7" x="83" y="502.7334">9</text><text fill="#000000" font-family="sans-serif" font-size="13" lengthAdjust="spacing" textLength="286" x="94" y="502.7334">shows task Properties list and asks to select one</text><polygon fill="#181818" points="495,535.2871,505,539.2871,495,543.2871,499,539.2871" style="stroke:#181818;stroke-width:1.0;"/><line style="stroke:#181818;stroke-width:1.0;" x1="66" x2="501" y1="539.2871" y2="539.2871"/><text fill="#000000" font-family="sans-serif" font-size="13" font-weight="bold" lengthAdjust="spacing" textLength="14" x="73" y="534.0244">10</text><text fill="#000000" font-family="sans-serif" font-size="13" lengthAdjust="spacing" textLength="95" x="91" y="534.0244">selects Property</text><polygon fill="#181818" points="77,566.5781,67,570.5781,77,574.5781,73,570.5781" style="stroke:#181818;stroke-width:1.0;"/><line style="stroke:#181818;stroke-width:1.0;stroke-dasharray:2.0,2.0;" x1="71" x2="511" y1="570.5781" y2="570.5781"/><text fill="#000000" font-family="sans-serif" font-size="13" font-weight="bold" lengthAdjust="spacing" textLength="14" x="83" y="565.3154">11</text><text fill="#000000" font-family="sans-serif" font-size="13" lengthAdjust="spacing" textLength="79" x="101" y="565.3154">requests data</text><polygon fill="#181818" points="495,597.8691,505,601.8691,495,605.8691,499,601.8691" style="stroke:#181818;stroke-width:1.0;"/><line style="stroke:#181818;stroke-width:1.0;" x1="66" x2="501" y1="601.8691" y2="601.8691"/><text fill="#000000" font-family="sans-serif" font-size="13" font-weight="bold" lengthAdjust="spacing" textLength="14" x="73" y="596.6064">12</text><text fill="#000000" font-family="sans-serif" font-size="13" lengthAdjust="spacing" textLength="261" x="91" y="596.6064">types requested data (Property, commission)</text><polygon fill="#181818" points="77,629.1602,67,633.1602,77,637.1602,73,633.1602" style="stroke:#181818;stroke-width:1.0;"/><line style="stroke:#181818;stroke-width:1.0;stroke-dasharray:2.0,2.0;" x1="71" x2="511" y1="633.1602" y2="633.1602"/><text fill="#000000" font-family="sans-serif" font-size="13" font-weight="bold" lengthAdjust="spacing" textLength="14" x="83" y="627.8975">13</text><text fill="#000000" font-family="sans-serif" font-size="13" lengthAdjust="spacing" textLength="256" x="101" y="627.8975">shows selected property and requested data</text><polygon fill="#181818" points="495,660.4512,505,664.4512,495,668.4512,499,664.4512" style="stroke:#181818;stroke-width:1.0;"/><line style="stroke:#181818;stroke-width:1.0;" x1="66" x2="501" y1="664.4512" y2="664.4512"/><text fill="#000000" font-family="sans-serif" font-size="13" font-weight="bold" lengthAdjust="spacing" textLength="14" x="73" y="659.1885">14</text><text fill="#000000" font-family="sans-serif" font-size="13" lengthAdjust="spacing" textLength="75" x="91" y="659.1885">submits data</text><polygon fill="#181818" points="818,691.7422,828,695.7422,818,699.7422,822,695.7422" style="stroke:#181818;stroke-width:1.0;"/><line style="stroke:#181818;stroke-width:1.0;" x1="517" x2="824" y1="695.7422" y2="695.7422"/><text fill="#000000" font-family="sans-serif" font-size="13" font-weight="bold" lengthAdjust="spacing" textLength="14" x="524" y="690.4795">15</text><text fill="#000000" font-family="sans-serif" font-size="13" lengthAdjust="spacing" textLength="258" x="542" y="690.4795">createAnnouncement(Property, commission)</text><line style="stroke:#181818;stroke-width:1.0;" x1="840" x2="887" y1="722.0332" y2="722.0332"/><line style="stroke:#181818;stroke-width:1.0;" x1="887" x2="887" y1="722.0332" y2="735.0332"/><line style="stroke:#181818;stroke-width:1.0;" x1="846" x2="887" y1="735.0332" y2="735.0332"/><polygon fill="#181818" points="856,731.0332,846,735.0332,856,739.0332,852,735.0332" style="stroke:#181818;stroke-width:1.0;"/><text fill="#000000" font-family="sans-serif" font-size="13" font-weight="bold" lengthAdjust="spacing" textLength="14" x="852" y="716.7705">16</text><text fill="#000000" font-family="sans-serif" font-size="13" lengthAdjust="spacing" textLength="161" x="870" y="716.7705">getEmployeeFromSession()</text><rect fill="none" height="59.2129" style="stroke:#000000;stroke-width:1.5;" width="224" x="723" y="748.0332"/><path d="M723,748.0332 L785,748.0332 L785,757.0332 L775,767.0332 L723,767.0332 L723,748.0332 " fill="#EEEEEE" style="stroke:#000000;stroke-width:2.0;"/><text fill="#000000" font-family="sans-serif" font-size="13" font-weight="bold" lengthAdjust="spacing" textLength="17" x="736" y="764.0615">ref</text><text fill="#000000" font-family="sans-serif" font-size="12" lengthAdjust="spacing" textLength="77" x="796.5" y="783.9824">Get Employee</text><text fill="#000000" font-family="sans-serif" font-size="12" lengthAdjust="spacing" textLength="3" x="833.5" y="799.9434">&#160;</text><line style="stroke:#181818;stroke-width:1.0;" x1="845" x2="887" y1="840.5371" y2="840.5371"/><line style="stroke:#181818;stroke-width:1.0;" x1="887" x2="887" y1="840.5371" y2="853.5371"/><line style="stroke:#181818;stroke-width:1.0;" x1="840" x2="887" y1="853.5371" y2="853.5371"/><polygon fill="#181818" points="850,849.5371,840,853.5371,850,857.5371,846,853.5371" style="stroke:#181818;stroke-width:1.0;"/><text fill="#000000" font-family="sans-serif" font-size="13" font-weight="bold" lengthAdjust="spacing" textLength="14" x="852" y="835.2744">17</text><text fill="#000000" font-family="sans-serif" font-size="13" lengthAdjust="spacing" textLength="56" x="870" y="835.2744">employee</text><polygon fill="#181818" points="1189,875.8281,1199,879.8281,1189,883.8281,1193,879.8281" style="stroke:#181818;stroke-width:1.0;"/><line style="stroke:#181818;stroke-width:1.0;" x1="840" x2="1195" y1="879.8281" y2="879.8281"/><text fill="#000000" font-family="sans-serif" font-size="13" font-weight="bold" lengthAdjust="spacing" textLength="14" x="847" y="874.5654">18</text><text fill="#000000" font-family="sans-serif" font-size="13" lengthAdjust="spacing" textLength="324" x="865" y="874.5654">createAnnouncement(Property, commission, Employee)</text><rect fill="none" height="59.2129" style="stroke:#000000;stroke-width:1.5;" width="187" x="1112.5" y="887.8281"/><path d="M1112.5,887.8281 L1174.5,887.8281 L1174.5,896.8281 L1164.5,906.8281 L1112.5,906.8281 L1112.5,887.8281 " fill="#EEEEEE" style="stroke:#000000;stroke-width:2.0;"/><text fill="#000000" font-family="sans-serif" font-size="13" font-weight="bold" lengthAdjust="spacing" textLength="17" x="1125.5" y="903.8564">ref</text><text fill="#000000" font-family="sans-serif" font-size="12" lengthAdjust="spacing" textLength="123" x="1144.5" y="923.7773">Create Announcement</text><text fill="#000000" font-family="sans-serif" font-size="12" lengthAdjust="spacing" textLength="3" x="1204.5" y="939.7383">&#160;</text><polygon fill="#181818" points="851,971.332,841,975.332,851,979.332,847,975.332" style="stroke:#181818;stroke-width:1.0;"/><line style="stroke:#181818;stroke-width:1.0;stroke-dasharray:2.0,2.0;" x1="845" x2="1205" y1="975.332" y2="975.332"/><text fill="#000000" font-family="sans-serif" font-size="13" font-weight="bold" lengthAdjust="spacing" textLength="14" x="857" y="970.0693">19</text><text fill="#000000" font-family="sans-serif" font-size="13" lengthAdjust="spacing" textLength="87" x="875" y="970.0693">Announcement</text><polygon fill="#181818" points="528,1002.623,518,1006.623,528,1010.623,524,1006.623" style="stroke:#181818;stroke-width:1.0;"/><line style="stroke:#181818;stroke-width:1.0;stroke-dasharray:2.0,2.0;" x1="522" x2="834" y1="1006.623" y2="1006.623"/><text fill="#000000" font-family="sans-serif" font-size="13" font-weight="bold" lengthAdjust="spacing" textLength="14" x="534" y="1001.3604">20</text><text fill="#000000" font-family="sans-serif" font-size="13" lengthAdjust="spacing" textLength="87" x="552" y="1001.3604">Announcement</text><polygon fill="#181818" points="818,1033.9141,828,1037.9141,818,1041.9141,822,1037.9141" style="stroke:#181818;stroke-width:1.0;"/><line style="stroke:#181818;stroke-width:1.0;" x1="517" x2="824" y1="1037.9141" y2="1037.9141"/><text fill="#000000" font-family="sans-serif" font-size="13" font-weight="bold" lengthAdjust="spacing" textLength="14" x="524" y="1032.6514">21</text><text fill="#000000" font-family="sans-serif" font-size="13" lengthAdjust="spacing" textLength="276" x="542" y="1032.6514">messageAnnouncement(Announcement, Client)</text><polygon fill="#181818" points="1388,1065.2051,1398,1069.2051,1388,1073.2051,1392,1069.2051" style="stroke:#181818;stroke-width:1.0;"/><line style="stroke:#181818;stroke-width:1.0;" x1="840" x2="1394" y1="1069.2051" y2="1069.2051"/><text fill="#000000" font-family="sans-serif" font-size="13" font-weight="bold" lengthAdjust="spacing" textLength="14" x="847" y="1063.9424">22</text><text fill="#000000" font-family="sans-serif" font-size="13" lengthAdjust="spacing" textLength="193" x="865" y="1063.9424">addMessageOfVisit(String,String)</text><polygon fill="#181818" points="851,1096.4961,841,1100.4961,851,1104.4961,847,1100.4961" style="stroke:#181818;stroke-width:1.0;"/><line style="stroke:#181818;stroke-width:1.0;stroke-dasharray:2.0,2.0;" x1="845" x2="1404" y1="1100.4961" y2="1100.4961"/><text fill="#000000" font-family="sans-serif" font-size="13" font-weight="bold" lengthAdjust="spacing" textLength="14" x="857" y="1095.2334">23</text><text fill="#000000" font-family="sans-serif" font-size="13" lengthAdjust="spacing" textLength="198" x="875" y="1095.2334">Sends message to property owner</text><polygon fill="#181818" points="528,1127.7871,518,1131.7871,528,1135.7871,524,1131.7871" style="stroke:#181818;stroke-width:1.0;"/><line style="stroke:#181818;stroke-width:1.0;stroke-dasharray:2.0,2.0;" x1="522" x2="834" y1="1131.7871" y2="1131.7871"/><text fill="#000000" font-family="sans-serif" font-size="13" font-weight="bold" lengthAdjust="spacing" textLength="14" x="534" y="1126.5244">24</text><text fill="#000000" font-family="sans-serif" font-size="13" lengthAdjust="spacing" textLength="198" x="552" y="1126.5244">Sends message to property owner</text><polygon fill="#181818" points="72,1159.0781,62,1163.0781,72,1167.0781,68,1163.0781" style="stroke:#181818;stroke-width:1.0;"/><line style="stroke:#181818;stroke-width:1.0;stroke-dasharray:2.0,2.0;" x1="66" x2="511" y1="1163.0781" y2="1163.0781"/><text fill="#000000" font-family="sans-serif" font-size="13" font-weight="bold" lengthAdjust="spacing" textLength="14" x="78" y="1157.8154">25</text><text fill="#000000" font-family="sans-serif" font-size="13" lengthAdjust="spacing" textLength="399" x="96" y="1157.8154">Display confirmation message and sends message to property owner</text><!--SRC=[bPRDRk8m4CVlUOeHbwKLVG4EAo7weKgjg62xfxsOP08MYPsrJLdUViSnDav28Cq54i_yFVFBU2PwnqN552kXb4AcMoLB1AFscEYmKh5qnpQuCiS2GM5gcDWKiO7UiamUkDX0pWgDISBsHefzkKQL93-sF4F8fJHh-IzXgP4AHaja1QmCCmYaBCm8c8RPutj2WeQdl6B2m6WwLqWcCo7aNgHOak7dQstw-NhJSYw5KR8eKDKUyr_BjwPFRBp4IcfEeHt_YEdbXLfbiNnfYhoZrfI1NkJpWhU4-jTgBRkyVFfO91OA_x8iB844wA8_yF2JqeGfcUuq60bfdI8m47W05iNeN888iQaVs8i4ICRcVdzFKaxYmYgjRT2uCCTtmK1X3l8BbQC7qVM21jwuDY1pS6xwl2kApBgU7uJOQfs6KBtxWy_LILdXO9HXZxUDdlmigYcLe3ne7maKDZ96KNXs6WkgMv329HzfUbenSMVjvQxWlGJnGyaAgK9GHo2lmsm3FKiqj-fmlS6sozVk4Ad7XhsSUrWROXj5UfDv3_S-zYVbOxU6slKTubBuTu-QV3Dcs93tR8uL1NvomwpsWx7VUGAfB4kkDPVYBXaMWaFZSY31wYHLSsdkCwWEz-kIn_dSEEFXXCSTx4e-WuvcNDjFPLN88-8pZOaLragj8hzHZTVFW3y7Vfkklpy1bwiyX8fUO721Um5gy8CXJaAWFGpijEX7O5Sl4N2Z36QT3jy2qNr8YdKjdYWq57f8T4AC-iKmXJFBHY6MRlWr8COtarDtRPsiK1V-XVWfINCmoquJTP7_vZH8nokZwADZudvQGkVfQX_xknZFYXXg7wTjME6qoeEWBvTMda6mG-cRGY75S-UOmYFNLS6EL5qYvwfaXkehIDhkeR-tYMqGqQtziFWF]--></g></svg>