<?xml version="1.0" encoding="us-ascii" standalone="no"?><svg xmlns="http://www.w3.org/2000/svg" xmlns:xlink="http://www.w3.org/1999/xlink" contentStyleType="text/css" height="1557px" preserveAspectRatio="none" style="width:2271px;height:1557px;background:#FFFFFF;" version="1.1" viewBox="0 0 2271 1557" width="2271px" zoomAndPan="magnify"><defs/><g><rect fill="#FFFFFF" height="1362.5039" style="stroke:#181818;stroke-width:1.0;" width="10" x="63.5" y="93.6211"/><rect fill="#FFFFFF" height="342.5313" style="stroke:#181818;stroke-width:1.0;" width="10" x="514.5" y="116.9121"/><rect fill="#FFFFFF" height="298.9102" style="stroke:#181818;stroke-width:1.0;" width="10" x="514.5" y="490.7344"/><rect fill="#FFFFFF" height="31.291" style="stroke:#181818;stroke-width:1.0;" width="10" x="514.5" y="820.9355"/><rect fill="#FFFFFF" height="31.291" style="stroke:#181818;stroke-width:1.0;" width="10" x="514.5" y="883.5176"/><rect fill="#FFFFFF" height="510.0254" style="stroke:#181818;stroke-width:1.0;" width="10" x="514.5" y="946.0996"/><rect fill="#FFFFFF" height="219.0371" style="stroke:#181818;stroke-width:1.0;" width="10" x="837.5" y="191.8242"/><rect fill="#FFFFFF" height="219.0371" style="stroke:#181818;stroke-width:1.0;" width="10" x="837.5" y="522.0254"/><rect fill="#FFFFFF" height="322.2793" style="stroke:#181818;stroke-width:1.0;" width="10" x="837.5" y="977.3906"/><rect fill="#FFFFFF" height="93.873" style="stroke:#181818;stroke-width:1.0;" width="10" x="837.5" y="1330.9609"/><rect fill="#FFFFFF" height="31.291" style="stroke:#181818;stroke-width:1.0;" width="10" x="1005" y="223.1152"/><rect fill="#FFFFFF" height="31.291" style="stroke:#181818;stroke-width:1.0;" width="10" x="1005" y="553.3164"/><rect fill="#FFFFFF" height="31.291" style="stroke:#181818;stroke-width:1.0;" width="10" x="1112" y="285.6973"/><rect fill="#FFFFFF" height="31.291" style="stroke:#181818;stroke-width:1.0;" width="10" x="1112" y="615.8984"/><rect fill="#FFFFFF" height="31.291" style="stroke:#181818;stroke-width:1.0;" width="10" x="1231.5" y="348.2793"/><rect fill="#FFFFFF" height="31.291" style="stroke:#181818;stroke-width:1.0;" width="10" x="1372.5" y="678.4805"/><rect fill="#FFFFFF" height="259.6973" style="stroke:#181818;stroke-width:1.0;" width="10" x="1543" y="1008.6816"/><rect fill="#FFFFFF" height="42.291" style="stroke:#181818;stroke-width:1.0;" width="10" x="1548" y="1136.5059"/><rect fill="#FFFFFF" height="42.291" style="stroke:#181818;stroke-width:1.0;" width="10" x="1904.5" y="1180.7969"/><rect fill="#FFFFFF" height="31.291" style="stroke:#181818;stroke-width:1.0;" width="10" x="2161.5" y="1362.252"/><rect fill="none" height="214.4063" style="stroke:#000000;stroke-width:1.5;" width="729" x="1447.5" y="1023.6816"/><line style="stroke:#181818;stroke-width:0.5;stroke-dasharray:5.0,5.0;" x1="68" x2="68" y1="83.6211" y2="1474.125"/><line style="stroke:#181818;stroke-width:0.5;stroke-dasharray:5.0,5.0;" x1="519.5" x2="519.5" y1="83.6211" y2="1474.125"/><line style="stroke:#181818;stroke-width:0.5;stroke-dasharray:5.0,5.0;" x1="842.5" x2="842.5" y1="156.7227" y2="1474.125"/><line style="stroke:#181818;stroke-width:0.5;stroke-dasharray:5.0,5.0;" x1="1009.5" x2="1009.5" y1="83.6211" y2="1474.125"/><line style="stroke:#181818;stroke-width:0.5;stroke-dasharray:5.0,5.0;" x1="1116.5" x2="1116.5" y1="83.6211" y2="1474.125"/><line style="stroke:#181818;stroke-width:0.5;stroke-dasharray:5.0,5.0;" x1="1236.5" x2="1236.5" y1="83.6211" y2="1474.125"/><line style="stroke:#181818;stroke-width:0.5;stroke-dasharray:5.0,5.0;" x1="1377.5" x2="1377.5" y1="83.6211" y2="1474.125"/><line style="stroke:#181818;stroke-width:0.5;stroke-dasharray:5.0,5.0;" x1="1547.5" x2="1547.5" y1="83.6211" y2="1474.125"/><line style="stroke:#181818;stroke-width:0.5;stroke-dasharray:5.0,5.0;" x1="1909" x2="1909" y1="1084.0938" y2="1474.125"/><line style="stroke:#181818;stroke-width:0.5;stroke-dasharray:5.0,5.0;" x1="2166" x2="2166" y1="83.6211" y2="1474.125"/><text fill="#000000" font-family="sans-serif" font-size="14" lengthAdjust="spacing" textLength="121" x="5" y="80.1074">Organization Agent</text><ellipse cx="68.5" cy="13.5" fill="#E3E3E3" rx="8" ry="8" style="stroke:#181818;stroke-width:0.5;"/><path d="M68.5,21.5 L68.5,48.5 M55.5,29.5 L81.5,29.5 M68.5,48.5 L55.5,63.5 M68.5,48.5 L81.5,63.5 " fill="none" style="stroke:#181818;stroke-width:0.5;"/><text fill="#000000" font-family="sans-serif" font-size="14" lengthAdjust="spacing" textLength="121" x="5" y="1488.2324">Organization Agent</text><ellipse cx="68.5" cy="1500.2461" fill="#E3E3E3" rx="8" ry="8" style="stroke:#181818;stroke-width:0.5;"/><path d="M68.5,1508.2461 L68.5,1535.2461 M55.5,1516.2461 L81.5,1516.2461 M68.5,1535.2461 L55.5,1550.2461 M68.5,1535.2461 L81.5,1550.2461 " fill="none" style="stroke:#181818;stroke-width:0.5;"/><rect fill="#E3E3E3" height="32.6211" rx="2.5" ry="2.5" style="stroke:#181818;stroke-width:0.5;" width="168" x="435.5" y="50"/><text fill="#000000" font-family="sans-serif" font-size="14" lengthAdjust="spacing" textLength="154" x="442.5" y="72.1074">:CreateAnnouncementUI</text><rect fill="#E3E3E3" height="32.6211" rx="2.5" ry="2.5" style="stroke:#181818;stroke-width:0.5;" width="168" x="435.5" y="1473.125"/><text fill="#000000" font-family="sans-serif" font-size="14" lengthAdjust="spacing" textLength="154" x="442.5" y="1495.2324">:CreateAnnouncementUI</text><rect fill="#E3E3E3" height="32.6211" rx="2.5" ry="2.5" style="stroke:#181818;stroke-width:0.5;" width="218" x="733.5" y="1473.125"/><text fill="#000000" font-family="sans-serif" font-size="14" lengthAdjust="spacing" textLength="204" x="740.5" y="1495.2324">:CreateAnnouncementController</text><rect fill="#E3E3E3" height="32.6211" rx="2.5" ry="2.5" style="stroke:#181818;stroke-width:0.5;" width="97" x="961.5" y="50"/><text fill="#000000" font-family="sans-serif" font-size="14" lengthAdjust="spacing" textLength="83" x="968.5" y="72.1074">:Repositories</text><rect fill="#E3E3E3" height="32.6211" rx="2.5" ry="2.5" style="stroke:#181818;stroke-width:0.5;" width="97" x="961.5" y="1473.125"/><text fill="#000000" font-family="sans-serif" font-size="14" lengthAdjust="spacing" textLength="83" x="968.5" y="1495.2324">:Repositories</text><rect fill="#E3E3E3" height="51.2422" rx="2.5" ry="2.5" style="stroke:#181818;stroke-width:0.5;" width="97" x="1068.5" y="31.3789"/><text fill="#000000" font-family="sans-serif" font-size="14" lengthAdjust="spacing" textLength="74" x="1080" y="53.4863">repositories</text><text fill="#000000" font-family="sans-serif" font-size="14" lengthAdjust="spacing" textLength="83" x="1075.5" y="72.1074">:Repositories</text><rect fill="#E3E3E3" height="51.2422" rx="2.5" ry="2.5" style="stroke:#181818;stroke-width:0.5;" width="97" x="1068.5" y="1473.125"/><text fill="#000000" font-family="sans-serif" font-size="14" lengthAdjust="spacing" textLength="74" x="1080" y="1495.2324">repositories</text><text fill="#000000" font-family="sans-serif" font-size="14" lengthAdjust="spacing" textLength="83" x="1075.5" y="1513.8535">:Repositories</text><rect fill="#E3E3E3" height="51.2422" rx="2.5" ry="2.5" style="stroke:#181818;stroke-width:0.5;" width="122" x="1175.5" y="31.3789"/><text fill="#000000" font-family="sans-serif" font-size="14" lengthAdjust="spacing" textLength="108" x="1182.5" y="53.4863">ClientRepository:</text><text fill="#000000" font-family="sans-serif" font-size="14" lengthAdjust="spacing" textLength="104" x="1184.5" y="72.1074">ClientRepository</text><rect fill="#E3E3E3" height="51.2422" rx="2.5" ry="2.5" style="stroke:#181818;stroke-width:0.5;" width="122" x="1175.5" y="1473.125"/><text fill="#000000" font-family="sans-serif" font-size="14" lengthAdjust="spacing" textLength="108" x="1182.5" y="1495.2324">ClientRepository:</text><text fill="#000000" font-family="sans-serif" font-size="14" lengthAdjust="spacing" textLength="104" x="1184.5" y="1513.8535">ClientRepository</text><rect fill="#E3E3E3" height="51.2422" rx="2.5" ry="2.5" style="stroke:#181818;stroke-width:0.5;" width="140" x="1307.5" y="31.3789"/><text fill="#000000" font-family="sans-serif" font-size="14" lengthAdjust="spacing" textLength="126" x="1314.5" y="53.4863">PropertyRepository:</text><text fill="#000000" font-family="sans-serif" font-size="14" lengthAdjust="spacing" textLength="122" x="1316.5" y="72.1074">PropertyRepository</text><rect fill="#E3E3E3" height="51.2422" rx="2.5" ry="2.5" style="stroke:#181818;stroke-width:0.5;" width="140" x="1307.5" y="1473.125"/><text fill="#000000" font-family="sans-serif" font-size="14" lengthAdjust="spacing" textLength="126" x="1314.5" y="1495.2324">PropertyRepository:</text><text fill="#000000" font-family="sans-serif" font-size="14" lengthAdjust="spacing" textLength="122" x="1316.5" y="1513.8535">PropertyRepository</text><rect fill="#E3E3E3" height="51.2422" rx="2.5" ry="2.5" style="stroke:#181818;stroke-width:0.5;" width="181" x="1457.5" y="31.3789"/><text fill="#000000" font-family="sans-serif" font-size="14" lengthAdjust="spacing" textLength="163" x="1466.5" y="53.4863">AnnouncementRepository</text><text fill="#000000" font-family="sans-serif" font-size="14" lengthAdjust="spacing" textLength="167" x="1464.5" y="72.1074">:AnnouncementRepository</text><rect fill="#E3E3E3" height="51.2422" rx="2.5" ry="2.5" style="stroke:#181818;stroke-width:0.5;" width="181" x="1457.5" y="1473.125"/><text fill="#000000" font-family="sans-serif" font-size="14" lengthAdjust="spacing" textLength="163" x="1466.5" y="1495.2324">AnnouncementRepository</text><text fill="#000000" font-family="sans-serif" font-size="14" lengthAdjust="spacing" textLength="167" x="1464.5" y="1513.8535">:AnnouncementRepository</text><rect fill="#E3E3E3" height="51.2422" rx="2.5" ry="2.5" style="stroke:#181818;stroke-width:0.5;" width="113" x="1853" y="1473.125"/><text fill="#000000" font-family="sans-serif" font-size="14" lengthAdjust="spacing" textLength="95" x="1862" y="1495.2324">Announcement</text><text fill="#000000" font-family="sans-serif" font-size="14" lengthAdjust="spacing" textLength="99" x="1860" y="1513.8535">:Announcement</text><rect fill="#E3E3E3" height="51.2422" rx="2.5" ry="2.5" style="stroke:#181818;stroke-width:0.5;" width="197" x="2068" y="31.3789"/><text fill="#000000" font-family="sans-serif" font-size="14" lengthAdjust="spacing" textLength="183" x="2075" y="53.4863">MessagesOfClientRepository</text><text fill="#000000" font-family="sans-serif" font-size="14" lengthAdjust="spacing" textLength="183" x="2075" y="72.1074">MessagesOfClientRepository</text><rect fill="#E3E3E3" height="51.2422" rx="2.5" ry="2.5" style="stroke:#181818;stroke-width:0.5;" width="197" x="2068" y="1473.125"/><text fill="#000000" font-family="sans-serif" font-size="14" lengthAdjust="spacing" textLength="183" x="2075" y="1495.2324">MessagesOfClientRepository</text><text fill="#000000" font-family="sans-serif" font-size="14" lengthAdjust="spacing" textLength="183" x="2075" y="1513.8535">MessagesOfClientRepository</text><rect fill="#FFFFFF" height="1362.5039" style="stroke:#181818;stroke-width:1.0;" width="10" x="63.5" y="93.6211"/><rect fill="#FFFFFF" height="342.5313" style="stroke:#181818;stroke-width:1.0;" width="10" x="514.5" y="116.9121"/><rect fill="#FFFFFF" height="298.9102" style="stroke:#181818;stroke-width:1.0;" width="10" x="514.5" y="490.7344"/><rect fill="#FFFFFF" height="31.291" style="stroke:#181818;stroke-width:1.0;" width="10" x="514.5" y="820.9355"/><rect fill="#FFFFFF" height="31.291" style="stroke:#181818;stroke-width:1.0;" width="10" x="514.5" y="883.5176"/><rect fill="#FFFFFF" height="510.0254" style="stroke:#181818;stroke-width:1.0;" width="10" x="514.5" y="946.0996"/><rect fill="#FFFFFF" height="219.0371" style="stroke:#181818;stroke-width:1.0;" width="10" x="837.5" y="191.8242"/><rect fill="#FFFFFF" height="219.0371" style="stroke:#181818;stroke-width:1.0;" width="10" x="837.5" y="522.0254"/><rect fill="#FFFFFF" height="322.2793" style="stroke:#181818;stroke-width:1.0;" width="10" x="837.5" y="977.3906"/><rect fill="#FFFFFF" height="93.873" style="stroke:#181818;stroke-width:1.0;" width="10" x="837.5" y="1330.9609"/><rect fill="#FFFFFF" height="31.291" style="stroke:#181818;stroke-width:1.0;" width="10" x="1005" y="223.1152"/><rect fill="#FFFFFF" height="31.291" style="stroke:#181818;stroke-width:1.0;" width="10" x="1005" y="553.3164"/><rect fill="#FFFFFF" height="31.291" style="stroke:#181818;stroke-width:1.0;" width="10" x="1112" y="285.6973"/><rect fill="#FFFFFF" height="31.291" style="stroke:#181818;stroke-width:1.0;" width="10" x="1112" y="615.8984"/><rect fill="#FFFFFF" height="31.291" style="stroke:#181818;stroke-width:1.0;" width="10" x="1231.5" y="348.2793"/><rect fill="#FFFFFF" height="31.291" style="stroke:#181818;stroke-width:1.0;" width="10" x="1372.5" y="678.4805"/><rect fill="#FFFFFF" height="259.6973" style="stroke:#181818;stroke-width:1.0;" width="10" x="1543" y="1008.6816"/><rect fill="#FFFFFF" height="42.291" style="stroke:#181818;stroke-width:1.0;" width="10" x="1548" y="1136.5059"/><rect fill="#FFFFFF" height="42.291" style="stroke:#181818;stroke-width:1.0;" width="10" x="1904.5" y="1180.7969"/><rect fill="#FFFFFF" height="31.291" style="stroke:#181818;stroke-width:1.0;" width="10" x="2161.5" y="1362.252"/><polygon fill="#181818" points="502.5,112.9121,512.5,116.9121,502.5,120.9121,506.5,116.9121" style="stroke:#181818;stroke-width:1.0;"/><line style="stroke:#181818;stroke-width:1.0;" x1="73.5" x2="508.5" y1="116.9121" y2="116.9121"/><text fill="#000000" font-family="sans-serif" font-size="13" font-weight="bold" lengthAdjust="spacing" textLength="7" x="80.5" y="111.6494">1</text><text fill="#000000" font-family="sans-serif" font-size="13" lengthAdjust="spacing" textLength="212" x="91.5" y="111.6494">asks to create a new Announcement</text><polygon fill="#181818" points="721.5,144.2031,731.5,148.2031,721.5,152.2031,725.5,148.2031" style="stroke:#181818;stroke-width:1.0;"/><line style="stroke:#181818;stroke-width:1.0;" x1="524.5" x2="727.5" y1="148.2031" y2="148.2031"/><text fill="#000000" font-family="sans-serif" font-size="13" font-weight="bold" lengthAdjust="spacing" textLength="7" x="531.5" y="142.9404">2</text><text fill="#000000" font-family="sans-serif" font-size="13" lengthAdjust="spacing" textLength="36" x="542.5" y="142.9404">create</text><rect fill="#E3E3E3" height="32.6211" rx="2.5" ry="2.5" style="stroke:#181818;stroke-width:0.5;" width="218" x="733.5" y="124.9121"/><text fill="#000000" font-family="sans-serif" font-size="14" lengthAdjust="spacing" textLength="204" x="740.5" y="147.0195">:CreateAnnouncementController</text><polygon fill="#181818" points="825.5,187.8242,835.5,191.8242,825.5,195.8242,829.5,191.8242" style="stroke:#181818;stroke-width:1.0;"/><line style="stroke:#181818;stroke-width:1.0;" x1="524.5" x2="831.5" y1="191.8242" y2="191.8242"/><text fill="#000000" font-family="sans-serif" font-size="13" font-weight="bold" lengthAdjust="spacing" textLength="7" x="531.5" y="186.5615">3</text><text fill="#000000" font-family="sans-serif" font-size="13" lengthAdjust="spacing" textLength="66" x="542.5" y="186.5615">getClients()</text><polygon fill="#181818" points="993,219.1152,1003,223.1152,993,227.1152,997,223.1152" style="stroke:#181818;stroke-width:1.0;"/><line style="stroke:#181818;stroke-width:1.0;" x1="847.5" x2="999" y1="223.1152" y2="223.1152"/><text fill="#000000" font-family="sans-serif" font-size="13" font-weight="bold" lengthAdjust="spacing" textLength="7" x="854.5" y="217.8525">4</text><text fill="#000000" font-family="sans-serif" font-size="13" lengthAdjust="spacing" textLength="75" x="865.5" y="217.8525">getInstance()</text><polygon fill="#181818" points="858.5,250.4063,848.5,254.4063,858.5,258.4063,854.5,254.4063" style="stroke:#181818;stroke-width:1.0;"/><line style="stroke:#181818;stroke-width:1.0;stroke-dasharray:2.0,2.0;" x1="852.5" x2="1009" y1="254.4063" y2="254.4063"/><text fill="#000000" font-family="sans-serif" font-size="13" font-weight="bold" lengthAdjust="spacing" textLength="7" x="864.5" y="249.1436">5</text><text fill="#000000" font-family="sans-serif" font-size="13" lengthAdjust="spacing" textLength="67" x="875.5" y="249.1436">repositories</text><polygon fill="#181818" points="1100,281.6973,1110,285.6973,1100,289.6973,1104,285.6973" style="stroke:#181818;stroke-width:1.0;"/><line style="stroke:#181818;stroke-width:1.0;" x1="847.5" x2="1106" y1="285.6973" y2="285.6973"/><text fill="#000000" font-family="sans-serif" font-size="13" font-weight="bold" lengthAdjust="spacing" textLength="7" x="854.5" y="280.4346">6</text><text fill="#000000" font-family="sans-serif" font-size="13" lengthAdjust="spacing" textLength="121" x="865.5" y="280.4346">getClientRepository()</text><polygon fill="#181818" points="858.5,312.9883,848.5,316.9883,858.5,320.9883,854.5,316.9883" style="stroke:#181818;stroke-width:1.0;"/><line style="stroke:#181818;stroke-width:1.0;stroke-dasharray:2.0,2.0;" x1="852.5" x2="1116" y1="316.9883" y2="316.9883"/><text fill="#000000" font-family="sans-serif" font-size="13" font-weight="bold" lengthAdjust="spacing" textLength="7" x="864.5" y="311.7256">7</text><text fill="#000000" font-family="sans-serif" font-size="13" lengthAdjust="spacing" textLength="95" x="875.5" y="311.7256">ClientRepository</text><polygon fill="#181818" points="1219.5,344.2793,1229.5,348.2793,1219.5,352.2793,1223.5,348.2793" style="stroke:#181818;stroke-width:1.0;"/><line style="stroke:#181818;stroke-width:1.0;" x1="847.5" x2="1225.5" y1="348.2793" y2="348.2793"/><text fill="#000000" font-family="sans-serif" font-size="13" font-weight="bold" lengthAdjust="spacing" textLength="7" x="854.5" y="343.0166">8</text><text fill="#000000" font-family="sans-serif" font-size="13" lengthAdjust="spacing" textLength="80" x="865.5" y="343.0166">getClientList()</text><polygon fill="#181818" points="858.5,375.5703,848.5,379.5703,858.5,383.5703,854.5,379.5703" style="stroke:#181818;stroke-width:1.0;"/><line style="stroke:#181818;stroke-width:1.0;stroke-dasharray:2.0,2.0;" x1="852.5" x2="1235.5" y1="379.5703" y2="379.5703"/><text fill="#000000" font-family="sans-serif" font-size="13" font-weight="bold" lengthAdjust="spacing" textLength="7" x="864.5" y="374.3076">9</text><text fill="#000000" font-family="sans-serif" font-size="13" lengthAdjust="spacing" textLength="54" x="875.5" y="374.3076">ClientList</text><polygon fill="#181818" points="535.5,406.8613,525.5,410.8613,535.5,414.8613,531.5,410.8613" style="stroke:#181818;stroke-width:1.0;"/><line style="stroke:#181818;stroke-width:1.0;stroke-dasharray:2.0,2.0;" x1="529.5" x2="841.5" y1="410.8613" y2="410.8613"/><text fill="#000000" font-family="sans-serif" font-size="13" font-weight="bold" lengthAdjust="spacing" textLength="14" x="541.5" y="405.5986">10</text><text fill="#000000" font-family="sans-serif" font-size="13" lengthAdjust="spacing" textLength="58" x="559.5" y="405.5986">Client List</text><polygon fill="#181818" points="84.5,455.4434,74.5,459.4434,84.5,463.4434,80.5,459.4434" style="stroke:#181818;stroke-width:1.0;"/><line style="stroke:#181818;stroke-width:1.0;stroke-dasharray:2.0,2.0;" x1="78.5" x2="518.5" y1="459.4434" y2="459.4434"/><text fill="#000000" font-family="sans-serif" font-size="13" font-weight="bold" lengthAdjust="spacing" textLength="14" x="90.5" y="445.5352">11</text><text fill="#000000" font-family="sans-serif" font-size="13" lengthAdjust="spacing" textLength="100" x="108.5" y="436.8896">shows clients list</text><text fill="#000000" font-family="sans-serif" font-size="13" lengthAdjust="spacing" textLength="132" x="112.5" y="454.1807">and asks to select one</text><polygon fill="#181818" points="502.5,486.7344,512.5,490.7344,502.5,494.7344,506.5,490.7344" style="stroke:#181818;stroke-width:1.0;"/><line style="stroke:#181818;stroke-width:1.0;" x1="73.5" x2="508.5" y1="490.7344" y2="490.7344"/><text fill="#000000" font-family="sans-serif" font-size="13" font-weight="bold" lengthAdjust="spacing" textLength="14" x="80.5" y="485.4717">12</text><text fill="#000000" font-family="sans-serif" font-size="13" lengthAdjust="spacing" textLength="90" x="98.5" y="485.4717">selects a Client</text><polygon fill="#181818" points="825.5,518.0254,835.5,522.0254,825.5,526.0254,829.5,522.0254" style="stroke:#181818;stroke-width:1.0;"/><line style="stroke:#181818;stroke-width:1.0;" x1="524.5" x2="831.5" y1="522.0254" y2="522.0254"/><text fill="#000000" font-family="sans-serif" font-size="13" font-weight="bold" lengthAdjust="spacing" textLength="14" x="531.5" y="516.7627">13</text><text fill="#000000" font-family="sans-serif" font-size="13" lengthAdjust="spacing" textLength="75" x="549.5" y="516.7627">getProperty()</text><polygon fill="#181818" points="993,549.3164,1003,553.3164,993,557.3164,997,553.3164" style="stroke:#181818;stroke-width:1.0;"/><line style="stroke:#181818;stroke-width:1.0;" x1="847.5" x2="999" y1="553.3164" y2="553.3164"/><text fill="#000000" font-family="sans-serif" font-size="13" font-weight="bold" lengthAdjust="spacing" textLength="14" x="854.5" y="548.0537">14</text><text fill="#000000" font-family="sans-serif" font-size="13" lengthAdjust="spacing" textLength="75" x="872.5" y="548.0537">getInstance()</text><polygon fill="#181818" points="858.5,580.6074,848.5,584.6074,858.5,588.6074,854.5,584.6074" style="stroke:#181818;stroke-width:1.0;"/><line style="stroke:#181818;stroke-width:1.0;stroke-dasharray:2.0,2.0;" x1="852.5" x2="1009" y1="584.6074" y2="584.6074"/><text fill="#000000" font-family="sans-serif" font-size="13" font-weight="bold" lengthAdjust="spacing" textLength="14" x="864.5" y="579.3447">15</text><text fill="#000000" font-family="sans-serif" font-size="13" lengthAdjust="spacing" textLength="67" x="882.5" y="579.3447">repositories</text><polygon fill="#181818" points="1100,611.8984,1110,615.8984,1100,619.8984,1104,615.8984" style="stroke:#181818;stroke-width:1.0;"/><line style="stroke:#181818;stroke-width:1.0;" x1="847.5" x2="1106" y1="615.8984" y2="615.8984"/><text fill="#000000" font-family="sans-serif" font-size="13" font-weight="bold" lengthAdjust="spacing" textLength="14" x="854.5" y="610.6357">16</text><text fill="#000000" font-family="sans-serif" font-size="13" lengthAdjust="spacing" textLength="137" x="872.5" y="610.6357">getPropertyRepository()</text><polygon fill="#181818" points="858.5,643.1895,848.5,647.1895,858.5,651.1895,854.5,647.1895" style="stroke:#181818;stroke-width:1.0;"/><line style="stroke:#181818;stroke-width:1.0;stroke-dasharray:2.0,2.0;" x1="852.5" x2="1116" y1="647.1895" y2="647.1895"/><text fill="#000000" font-family="sans-serif" font-size="13" font-weight="bold" lengthAdjust="spacing" textLength="14" x="864.5" y="641.9268">17</text><text fill="#000000" font-family="sans-serif" font-size="13" lengthAdjust="spacing" textLength="111" x="882.5" y="641.9268">PropertyRepository</text><polygon fill="#181818" points="1360.5,674.4805,1370.5,678.4805,1360.5,682.4805,1364.5,678.4805" style="stroke:#181818;stroke-width:1.0;"/><line style="stroke:#181818;stroke-width:1.0;" x1="847.5" x2="1366.5" y1="678.4805" y2="678.4805"/><text fill="#000000" font-family="sans-serif" font-size="13" font-weight="bold" lengthAdjust="spacing" textLength="14" x="854.5" y="673.2178">18</text><text fill="#000000" font-family="sans-serif" font-size="13" lengthAdjust="spacing" textLength="96" x="872.5" y="673.2178">getPropertyList()</text><polygon fill="#181818" points="858.5,705.7715,848.5,709.7715,858.5,713.7715,854.5,709.7715" style="stroke:#181818;stroke-width:1.0;"/><line style="stroke:#181818;stroke-width:1.0;stroke-dasharray:2.0,2.0;" x1="852.5" x2="1376.5" y1="709.7715" y2="709.7715"/><text fill="#000000" font-family="sans-serif" font-size="13" font-weight="bold" lengthAdjust="spacing" textLength="14" x="864.5" y="704.5088">19</text><text fill="#000000" font-family="sans-serif" font-size="13" lengthAdjust="spacing" textLength="70" x="882.5" y="704.5088">PropertyList</text><polygon fill="#181818" points="535.5,737.0625,525.5,741.0625,535.5,745.0625,531.5,741.0625" style="stroke:#181818;stroke-width:1.0;"/><line style="stroke:#181818;stroke-width:1.0;stroke-dasharray:2.0,2.0;" x1="529.5" x2="841.5" y1="741.0625" y2="741.0625"/><text fill="#000000" font-family="sans-serif" font-size="13" font-weight="bold" lengthAdjust="spacing" textLength="14" x="541.5" y="735.7998">20</text><text fill="#000000" font-family="sans-serif" font-size="13" lengthAdjust="spacing" textLength="70" x="559.5" y="735.7998">PropertyList</text><polygon fill="#181818" points="84.5,785.6445,74.5,789.6445,84.5,793.6445,80.5,789.6445" style="stroke:#181818;stroke-width:1.0;"/><line style="stroke:#181818;stroke-width:1.0;stroke-dasharray:2.0,2.0;" x1="78.5" x2="518.5" y1="789.6445" y2="789.6445"/><text fill="#000000" font-family="sans-serif" font-size="13" font-weight="bold" lengthAdjust="spacing" textLength="14" x="90.5" y="775.7363">21</text><text fill="#000000" font-family="sans-serif" font-size="13" lengthAdjust="spacing" textLength="109" x="108.5" y="767.0908">shows property list</text><text fill="#000000" font-family="sans-serif" font-size="13" lengthAdjust="spacing" textLength="132" x="112.5" y="784.3818">and asks to select one</text><polygon fill="#181818" points="502.5,816.9355,512.5,820.9355,502.5,824.9355,506.5,820.9355" style="stroke:#181818;stroke-width:1.0;"/><line style="stroke:#181818;stroke-width:1.0;" x1="73.5" x2="508.5" y1="820.9355" y2="820.9355"/><text fill="#000000" font-family="sans-serif" font-size="13" font-weight="bold" lengthAdjust="spacing" textLength="14" x="80.5" y="815.6729">22</text><text fill="#000000" font-family="sans-serif" font-size="13" lengthAdjust="spacing" textLength="104" x="98.5" y="815.6729">selects a property</text><polygon fill="#181818" points="84.5,848.2266,74.5,852.2266,84.5,856.2266,80.5,852.2266" style="stroke:#181818;stroke-width:1.0;"/><line style="stroke:#181818;stroke-width:1.0;stroke-dasharray:2.0,2.0;" x1="78.5" x2="518.5" y1="852.2266" y2="852.2266"/><text fill="#000000" font-family="sans-serif" font-size="13" font-weight="bold" lengthAdjust="spacing" textLength="14" x="90.5" y="846.9639">23</text><text fill="#000000" font-family="sans-serif" font-size="13" lengthAdjust="spacing" textLength="79" x="108.5" y="846.9639">requests data</text><polygon fill="#181818" points="502.5,879.5176,512.5,883.5176,502.5,887.5176,506.5,883.5176" style="stroke:#181818;stroke-width:1.0;"/><line style="stroke:#181818;stroke-width:1.0;" x1="73.5" x2="508.5" y1="883.5176" y2="883.5176"/><text fill="#000000" font-family="sans-serif" font-size="13" font-weight="bold" lengthAdjust="spacing" textLength="14" x="80.5" y="878.2549">24</text><text fill="#000000" font-family="sans-serif" font-size="13" lengthAdjust="spacing" textLength="204" x="98.5" y="878.2549">types requested data (commission)</text><polygon fill="#181818" points="84.5,910.8086,74.5,914.8086,84.5,918.8086,80.5,914.8086" style="stroke:#181818;stroke-width:1.0;"/><line style="stroke:#181818;stroke-width:1.0;stroke-dasharray:2.0,2.0;" x1="78.5" x2="518.5" y1="914.8086" y2="914.8086"/><text fill="#000000" font-family="sans-serif" font-size="13" font-weight="bold" lengthAdjust="spacing" textLength="14" x="90.5" y="909.5459">25</text><text fill="#000000" font-family="sans-serif" font-size="13" lengthAdjust="spacing" textLength="283" x="108.5" y="909.5459">shows selected Property, Client and commission</text><polygon fill="#181818" points="502.5,942.0996,512.5,946.0996,502.5,950.0996,506.5,946.0996" style="stroke:#181818;stroke-width:1.0;"/><line style="stroke:#181818;stroke-width:1.0;" x1="73.5" x2="508.5" y1="946.0996" y2="946.0996"/><text fill="#000000" font-family="sans-serif" font-size="13" font-weight="bold" lengthAdjust="spacing" textLength="14" x="80.5" y="940.8369">26</text><text fill="#000000" font-family="sans-serif" font-size="13" lengthAdjust="spacing" textLength="75" x="98.5" y="940.8369">submits data</text><polygon fill="#181818" points="825.5,973.3906,835.5,977.3906,825.5,981.3906,829.5,977.3906" style="stroke:#181818;stroke-width:1.0;"/><line style="stroke:#181818;stroke-width:1.0;" x1="524.5" x2="831.5" y1="977.3906" y2="977.3906"/><text fill="#000000" font-family="sans-serif" font-size="13" font-weight="bold" lengthAdjust="spacing" textLength="14" x="531.5" y="972.1279">27</text><text fill="#000000" font-family="sans-serif" font-size="13" lengthAdjust="spacing" textLength="258" x="549.5" y="972.1279">createAnnouncement(Property, commission)</text><polygon fill="#181818" points="1531,1004.6816,1541,1008.6816,1531,1012.6816,1535,1008.6816" style="stroke:#181818;stroke-width:1.0;"/><line style="stroke:#181818;stroke-width:1.0;" x1="847.5" x2="1537" y1="1008.6816" y2="1008.6816"/><text fill="#000000" font-family="sans-serif" font-size="13" font-weight="bold" lengthAdjust="spacing" textLength="14" x="854.5" y="1003.4189">28</text><text fill="#000000" font-family="sans-serif" font-size="13" lengthAdjust="spacing" textLength="258" x="872.5" y="1003.4189">createAnnouncement(Property, commission)</text><path d="M1447.5,1023.6816 L1634.5,1023.6816 L1634.5,1032.9727 L1624.5,1042.9727 L1447.5,1042.9727 L1447.5,1023.6816 " fill="#EEEEEE" style="stroke:#000000;stroke-width:1.5;"/><rect fill="none" height="214.4063" style="stroke:#000000;stroke-width:1.5;" width="729" x="1447.5" y="1023.6816"/><text fill="#000000" font-family="sans-serif" font-size="13" font-weight="bold" lengthAdjust="spacing" textLength="142" x="1462.5" y="1038.71">Create Announcement</text><polygon fill="#181818" points="1841,1062.2637,1851,1066.2637,1841,1070.2637,1845,1066.2637" style="stroke:#181818;stroke-width:1.0;"/><line style="stroke:#181818;stroke-width:1.0;" x1="1553" x2="1847" y1="1066.2637" y2="1066.2637"/><text fill="#000000" font-family="sans-serif" font-size="13" font-weight="bold" lengthAdjust="spacing" textLength="14" x="1560" y="1061.001">29</text><text fill="#000000" font-family="sans-serif" font-size="13" lengthAdjust="spacing" textLength="258" x="1578" y="1061.001">createAnnouncement(Property, commission)</text><rect fill="#E3E3E3" height="51.2422" rx="2.5" ry="2.5" style="stroke:#181818;stroke-width:0.5;" width="113" x="1853" y="1042.9727"/><text fill="#000000" font-family="sans-serif" font-size="14" lengthAdjust="spacing" textLength="95" x="1862" y="1065.0801">Announcement</text><text fill="#000000" font-family="sans-serif" font-size="14" lengthAdjust="spacing" textLength="99" x="1860" y="1083.7012">:Announcement</text><line style="stroke:#181818;stroke-width:1.0;" x1="1553" x2="1600" y1="1123.5059" y2="1123.5059"/><line style="stroke:#181818;stroke-width:1.0;" x1="1600" x2="1600" y1="1123.5059" y2="1136.5059"/><line style="stroke:#181818;stroke-width:1.0;" x1="1559" x2="1600" y1="1136.5059" y2="1136.5059"/><polygon fill="#181818" points="1569,1132.5059,1559,1136.5059,1569,1140.5059,1565,1136.5059" style="stroke:#181818;stroke-width:1.0;"/><text fill="#000000" font-family="sans-serif" font-size="13" font-weight="bold" lengthAdjust="spacing" textLength="14" x="1565" y="1118.2432">30</text><text fill="#000000" font-family="sans-serif" font-size="13" lengthAdjust="spacing" textLength="207" x="1583" y="1118.2432">addAnnouncement (Announcement)</text><line style="stroke:#181818;stroke-width:1.0;" x1="1914.5" x2="1956.5" y1="1172.7969" y2="1172.7969"/><line style="stroke:#181818;stroke-width:1.0;" x1="1956.5" x2="1956.5" y1="1172.7969" y2="1185.7969"/><line style="stroke:#181818;stroke-width:1.0;" x1="1915.5" x2="1956.5" y1="1185.7969" y2="1185.7969"/><polygon fill="#181818" points="1925.5,1181.7969,1915.5,1185.7969,1925.5,1189.7969,1921.5,1185.7969" style="stroke:#181818;stroke-width:1.0;"/><text fill="#000000" font-family="sans-serif" font-size="13" font-weight="bold" lengthAdjust="spacing" textLength="14" x="1921.5" y="1167.5342">31</text><text fill="#000000" font-family="sans-serif" font-size="13" lengthAdjust="spacing" textLength="225" x="1939.5" y="1167.5342">validateAnnouncement(Announcement)</text><line style="stroke:#181818;stroke-width:1.0;stroke-dasharray:2.0,2.0;" x1="1914.5" x2="1956.5" y1="1222.0879" y2="1222.0879"/><line style="stroke:#181818;stroke-width:1.0;stroke-dasharray:2.0,2.0;" x1="1956.5" x2="1956.5" y1="1222.0879" y2="1235.0879"/><line style="stroke:#181818;stroke-width:1.0;stroke-dasharray:2.0,2.0;" x1="1909.5" x2="1956.5" y1="1235.0879" y2="1235.0879"/><polygon fill="#181818" points="1919.5,1231.0879,1909.5,1235.0879,1919.5,1239.0879,1915.5,1235.0879" style="stroke:#181818;stroke-width:1.0;"/><text fill="#000000" font-family="sans-serif" font-size="13" font-weight="bold" lengthAdjust="spacing" textLength="14" x="1921.5" y="1216.8252">32</text><text fill="#000000" font-family="sans-serif" font-size="13" lengthAdjust="spacing" textLength="4" x="1939.5" y="1216.8252">&#160;</text><polygon fill="#181818" points="858.5,1264.3789,848.5,1268.3789,858.5,1272.3789,854.5,1268.3789" style="stroke:#181818;stroke-width:1.0;"/><line style="stroke:#181818;stroke-width:1.0;stroke-dasharray:2.0,2.0;" x1="852.5" x2="1547" y1="1268.3789" y2="1268.3789"/><text fill="#000000" font-family="sans-serif" font-size="13" font-weight="bold" lengthAdjust="spacing" textLength="14" x="864.5" y="1263.1162">33</text><text fill="#000000" font-family="sans-serif" font-size="13" lengthAdjust="spacing" textLength="87" x="882.5" y="1263.1162">Announcement</text><polygon fill="#181818" points="535.5,1295.6699,525.5,1299.6699,535.5,1303.6699,531.5,1299.6699" style="stroke:#181818;stroke-width:1.0;"/><line style="stroke:#181818;stroke-width:1.0;stroke-dasharray:2.0,2.0;" x1="529.5" x2="841.5" y1="1299.6699" y2="1299.6699"/><text fill="#000000" font-family="sans-serif" font-size="13" font-weight="bold" lengthAdjust="spacing" textLength="14" x="541.5" y="1294.4072">34</text><text fill="#000000" font-family="sans-serif" font-size="13" lengthAdjust="spacing" textLength="87" x="559.5" y="1294.4072">Announcement</text><polygon fill="#181818" points="825.5,1326.9609,835.5,1330.9609,825.5,1334.9609,829.5,1330.9609" style="stroke:#181818;stroke-width:1.0;"/><line style="stroke:#181818;stroke-width:1.0;" x1="524.5" x2="831.5" y1="1330.9609" y2="1330.9609"/><text fill="#000000" font-family="sans-serif" font-size="13" font-weight="bold" lengthAdjust="spacing" textLength="14" x="531.5" y="1325.6982">35</text><text fill="#000000" font-family="sans-serif" font-size="13" lengthAdjust="spacing" textLength="276" x="549.5" y="1325.6982">messageAnnouncement(Announcement, Client)</text><polygon fill="#181818" points="2149.5,1358.252,2159.5,1362.252,2149.5,1366.252,2153.5,1362.252" style="stroke:#181818;stroke-width:1.0;"/><line style="stroke:#181818;stroke-width:1.0;" x1="847.5" x2="2155.5" y1="1362.252" y2="1362.252"/><text fill="#000000" font-family="sans-serif" font-size="13" font-weight="bold" lengthAdjust="spacing" textLength="14" x="854.5" y="1356.9893">36</text><text fill="#000000" font-family="sans-serif" font-size="13" lengthAdjust="spacing" textLength="193" x="872.5" y="1356.9893">addMessageOfVisit(String,String)</text><polygon fill="#181818" points="858.5,1389.543,848.5,1393.543,858.5,1397.543,854.5,1393.543" style="stroke:#181818;stroke-width:1.0;"/><line style="stroke:#181818;stroke-width:1.0;stroke-dasharray:2.0,2.0;" x1="852.5" x2="2165.5" y1="1393.543" y2="1393.543"/><text fill="#000000" font-family="sans-serif" font-size="13" font-weight="bold" lengthAdjust="spacing" textLength="14" x="864.5" y="1388.2803">37</text><text fill="#000000" font-family="sans-serif" font-size="13" lengthAdjust="spacing" textLength="198" x="882.5" y="1388.2803">Sends message to property owner</text><polygon fill="#181818" points="535.5,1420.834,525.5,1424.834,535.5,1428.834,531.5,1424.834" style="stroke:#181818;stroke-width:1.0;"/><line style="stroke:#181818;stroke-width:1.0;stroke-dasharray:2.0,2.0;" x1="529.5" x2="841.5" y1="1424.834" y2="1424.834"/><text fill="#000000" font-family="sans-serif" font-size="13" font-weight="bold" lengthAdjust="spacing" textLength="14" x="541.5" y="1419.5713">38</text><text fill="#000000" font-family="sans-serif" font-size="13" lengthAdjust="spacing" textLength="198" x="559.5" y="1419.5713">Sends message to property owner</text><polygon fill="#181818" points="79.5,1452.125,69.5,1456.125,79.5,1460.125,75.5,1456.125" style="stroke:#181818;stroke-width:1.0;"/><line style="stroke:#181818;stroke-width:1.0;stroke-dasharray:2.0,2.0;" x1="73.5" x2="518.5" y1="1456.125" y2="1456.125"/><text fill="#000000" font-family="sans-serif" font-size="13" font-weight="bold" lengthAdjust="spacing" textLength="14" x="85.5" y="1450.8623">39</text><text fill="#000000" font-family="sans-serif" font-size="13" lengthAdjust="spacing" textLength="399" x="103.5" y="1450.8623">Display confirmation message and sends message to property owner</text><!--SRC=[fLXDJ-Cm4BtxLuouK13yWHwGgkw7a415XTqJ5vEuhKLYPsqNjllhTs8tYPtOQO1SQ6pFctcJUMCR_Sf5HHKjePH2PZibImP6xHdHxKn5irUwPO_cK31GB3DKR0j_WTxHNBvpiOKDBJGZXEwD5FloXIb2pdSyPx2Hqhp8luHcHYeuMwaj5VmVDLmAM6oPC6T0DIo-tHE4D3pZ5HK6pkPBnQXX2o7aNcIin8M_RktINxSdLowbC4eM1LFMOlcqlklPh5abDSU8EDDsJJjmUEGrIQGHcYZFubaC0Hxk5a-XnRBW64i7F7yM_I5h-KJrwn8PR76Wcmgn7fIic3A706quw28P38TOVgQwDSWfFc4nL-kVQP2UgIErM7__iGXjxfdMM4vwjUdduLcavonSFRt-_h0YTHtnDyoMBHa2nmTVuFe6QmFckFnLWv6GsRe02eAzWnzWPzQ2OL6HS_0UHBf6m1ftZgN_Py-qqP1JGs6cs8OfXc1Na3ETALxLrNm5mCL6gf8My2p26SEodU0PpWJ3-LvHzokJsbmGFu3pO_YsUFkHtTZXoqkCpIqZYIMuOCkCIwcUXHvQyjP5C5K_rXnX8ifmgBT2OqF8M0ysW8x9Qh2wVc9UheyawW_GgMrWdhEFkMk8rOhryzCPZp6oEezIi7XTp7tGiRZZe4sWyGRXXtx7jHaBEj5YeZGItgwxYkfyZd6QwjEnRCJhi640xW4FopKGgzx9TmsPAtae40ZLI4NUzWND2jpAG0f68kXr9-Xt56UXiPMuyCYWT_H9zHNOzEInZnINuLUb-3avVb6Idv5bN9h3pUmKnxH08oADx9KdkAJXs-07c26LX5X34iEuqfI6_Zon-bvFSfleDPJig8THtIQqMnq19uet8U2qY1ly-37Wz0c0J6WPvb0ntPYn_7Xoo6HPSgrnoxyWqnoxZBZO4QR9zLNJAElSTAXJ8jFxbvBxJ4QRMT38ii59UzO5rEVsmMC6dZ0_wI1mKXzKepMxLN9VWRihXAV1bAuGokw-zYHxUVc5w7g8bYhDSny9PlxR1KdBFQ0A8uyBlACmXpTQyBnF8VIR0lEAAfdYyCZXBW1J0cmZdEBzk38U0HDvVC9clYlaqUz_YghN_QOZsU8Fn5Iw6q_oMpGIlo0XI2EOvafaI-buVLfjVdDitBD7et2ZlN9_F83k6jNyyhFoYEdJJLnrisqRiNmNUAFtwBH0GJ8-0D3cmtMwENpZkYhe0NKaDXmlKVOV10rKtUNqTF2wYNclzKtnFm00]--></g></svg>