<?xml version="1.0" encoding="us-ascii" standalone="no"?><svg xmlns="http://www.w3.org/2000/svg" xmlns:xlink="http://www.w3.org/1999/xlink" contentStyleType="text/css" height="510px" preserveAspectRatio="none" style="width:643px;height:510px;background:#FFFFFF;" version="1.1" viewBox="0 0 643 510" width="643px" zoomAndPan="magnify"><defs/><g><text fill="#000000" font-family="sans-serif" font-size="14" font-weight="bold" lengthAdjust="spacing" textLength="228" x="209.5" y="30.1074">System Sequence Diagram (SSD)</text><rect fill="#FFFFFF" height="285.0371" style="stroke:#181818;stroke-width:1.0;" width="10" x="58" y="133.2422"/><rect fill="#FFFFFF" height="252.7461" style="stroke:#181818;stroke-width:1.0;" width="10" x="369" y="156.5332"/><line style="stroke:#181818;stroke-width:0.5;stroke-dasharray:5.0,5.0;" x1="63" x2="63" y1="123.2422" y2="427.2793"/><line style="stroke:#181818;stroke-width:0.5;stroke-dasharray:5.0,5.0;" x1="374" x2="374" y1="123.2422" y2="427.2793"/><text fill="#000000" font-family="sans-serif" font-size="14" lengthAdjust="spacing" textLength="110" x="5" y="119.7285">Network Manager</text><ellipse cx="63" cy="53.1211" fill="#E3E3E3" rx="8" ry="8" style="stroke:#181818;stroke-width:0.5;"/><path d="M63,61.1211 L63,88.1211 M50,69.1211 L76,69.1211 M63,88.1211 L50,103.1211 M63,88.1211 L76,103.1211 " fill="none" style="stroke:#181818;stroke-width:0.5;"/><text fill="#000000" font-family="sans-serif" font-size="14" lengthAdjust="spacing" textLength="110" x="5" y="441.3867">Network Manager</text><ellipse cx="63" cy="453.4004" fill="#E3E3E3" rx="8" ry="8" style="stroke:#181818;stroke-width:0.5;"/><path d="M63,461.4004 L63,488.4004 M50,469.4004 L76,469.4004 M63,488.4004 L50,503.4004 M63,488.4004 L76,503.4004 " fill="none" style="stroke:#181818;stroke-width:0.5;"/><rect fill="#E3E3E3" height="32.6211" rx="2.5" ry="2.5" style="stroke:#181818;stroke-width:0.5;" width="64" x="342" y="89.6211"/><text fill="#000000" font-family="sans-serif" font-size="14" lengthAdjust="spacing" textLength="50" x="349" y="111.7285">:System</text><rect fill="#E3E3E3" height="32.6211" rx="2.5" ry="2.5" style="stroke:#181818;stroke-width:0.5;" width="64" x="342" y="426.2793"/><text fill="#000000" font-family="sans-serif" font-size="14" lengthAdjust="spacing" textLength="50" x="349" y="448.3867">:System</text><rect fill="#FFFFFF" height="285.0371" style="stroke:#181818;stroke-width:1.0;" width="10" x="58" y="133.2422"/><rect fill="#FFFFFF" height="252.7461" style="stroke:#181818;stroke-width:1.0;" width="10" x="369" y="156.5332"/><polygon fill="#181818" points="357,152.5332,367,156.5332,357,160.5332,361,156.5332" style="stroke:#181818;stroke-width:1.0;"/><line style="stroke:#181818;stroke-width:1.0;" x1="68" x2="363" y1="156.5332" y2="156.5332"/><text fill="#000000" font-family="sans-serif" font-size="13" font-weight="bold" lengthAdjust="spacing" textLength="7" x="75" y="151.2705">1</text><text fill="#000000" font-family="sans-serif" font-size="13" lengthAdjust="spacing" textLength="168" x="86" y="151.2705">Request to list all employees</text><line style="stroke:#181818;stroke-width:1.0;" x1="379" x2="421" y1="187.8242" y2="187.8242"/><line style="stroke:#181818;stroke-width:1.0;" x1="421" x2="421" y1="187.8242" y2="200.8242"/><line style="stroke:#181818;stroke-width:1.0;" x1="380" x2="421" y1="200.8242" y2="200.8242"/><polygon fill="#181818" points="390,196.8242,380,200.8242,390,204.8242,386,200.8242" style="stroke:#181818;stroke-width:1.0;"/><text fill="#000000" font-family="sans-serif" font-size="13" font-weight="bold" lengthAdjust="spacing" textLength="7" x="386" y="182.5615">2</text><text fill="#000000" font-family="sans-serif" font-size="13" lengthAdjust="spacing" textLength="217" x="397" y="182.5615">Retrieve property listings for all stores</text><line style="stroke:#181818;stroke-width:1.0;" x1="379" x2="421" y1="232.1152" y2="232.1152"/><line style="stroke:#181818;stroke-width:1.0;" x1="421" x2="421" y1="232.1152" y2="245.1152"/><line style="stroke:#181818;stroke-width:1.0;" x1="380" x2="421" y1="245.1152" y2="245.1152"/><polygon fill="#181818" points="390,241.1152,380,245.1152,390,249.1152,386,245.1152" style="stroke:#181818;stroke-width:1.0;"/><text fill="#000000" font-family="sans-serif" font-size="13" font-weight="bold" lengthAdjust="spacing" textLength="7" x="386" y="226.8525">3</text><text fill="#000000" font-family="sans-serif" font-size="13" lengthAdjust="spacing" textLength="221" x="397" y="226.8525">Retrieve employee data from all stores</text><line style="stroke:#181818;stroke-width:1.0;" x1="379" x2="421" y1="276.4063" y2="276.4063"/><line style="stroke:#181818;stroke-width:1.0;" x1="421" x2="421" y1="276.4063" y2="289.4063"/><line style="stroke:#181818;stroke-width:1.0;" x1="380" x2="421" y1="289.4063" y2="289.4063"/><polygon fill="#181818" points="390,285.4063,380,289.4063,390,293.4063,386,289.4063" style="stroke:#181818;stroke-width:1.0;"/><text fill="#000000" font-family="sans-serif" font-size="13" font-weight="bold" lengthAdjust="spacing" textLength="7" x="386" y="271.1436">4</text><text fill="#000000" font-family="sans-serif" font-size="13" lengthAdjust="spacing" textLength="239" x="397" y="271.1436">Sort stores by number of property listings</text><line style="stroke:#181818;stroke-width:1.0;" x1="379" x2="421" y1="320.6973" y2="320.6973"/><line style="stroke:#181818;stroke-width:1.0;" x1="421" x2="421" y1="320.6973" y2="333.6973"/><line style="stroke:#181818;stroke-width:1.0;" x1="380" x2="421" y1="333.6973" y2="333.6973"/><polygon fill="#181818" points="390,329.6973,380,333.6973,390,337.6973,386,333.6973" style="stroke:#181818;stroke-width:1.0;"/><text fill="#000000" font-family="sans-serif" font-size="13" font-weight="bold" lengthAdjust="spacing" textLength="7" x="386" y="315.4346">5</text><text fill="#000000" font-family="sans-serif" font-size="13" lengthAdjust="spacing" textLength="153" x="397" y="315.4346">Group employees by store</text><line style="stroke:#181818;stroke-width:1.0;" x1="379" x2="421" y1="364.9883" y2="364.9883"/><line style="stroke:#181818;stroke-width:1.0;" x1="421" x2="421" y1="364.9883" y2="377.9883"/><line style="stroke:#181818;stroke-width:1.0;" x1="380" x2="421" y1="377.9883" y2="377.9883"/><polygon fill="#181818" points="390,373.9883,380,377.9883,390,381.9883,386,377.9883" style="stroke:#181818;stroke-width:1.0;"/><text fill="#000000" font-family="sans-serif" font-size="13" font-weight="bold" lengthAdjust="spacing" textLength="7" x="386" y="359.7256">6</text><text fill="#000000" font-family="sans-serif" font-size="13" lengthAdjust="spacing" textLength="225" x="397" y="359.7256">Sort employees alphabetically by store</text><polygon fill="#181818" points="79,405.2793,69,409.2793,79,413.2793,75,409.2793" style="stroke:#181818;stroke-width:1.0;"/><line style="stroke:#181818;stroke-width:1.0;stroke-dasharray:2.0,2.0;" x1="73" x2="373" y1="409.2793" y2="409.2793"/><text fill="#000000" font-family="sans-serif" font-size="13" font-weight="bold" lengthAdjust="spacing" textLength="7" x="85" y="404.0166">7</text><text fill="#000000" font-family="sans-serif" font-size="13" lengthAdjust="spacing" textLength="266" x="96" y="404.0166">Display list of employees and property listings</text><!--SRC=[ZP4zRiCm38LtdOB8r0wzG8PC1ZgrGtq2ngPj8PAeKdG2txwIxVoqGPjoaG0-Vdmaqy66Y88UF0Tk1c5Fe3AIIPTCnEQ0FTKwEGAXHZ7qxbQG1cpvP4CF7Rf4ngZLBAsdfEIXfi-HGaDGMUoB_AckgsTZS5GEez-J66oK1JRlf2UM0xnXoFra0vWWU9ERg6rinA2msIxKERTyJIctHrGgOWCvWeUNtRd_5ZwAWwIW3Cxc5vq3yj7nH9JcWWlXZ8GrLiPtcegb8q4KZYGwpT0yVO8kJr7WAO-paXz1pZwWHKNeylx_IQXPT9N1Ve9bay3TlQs_AA_2Oxmkev1cviFErn9qSS0zvHDbuzELSB_430a5KDaK7Iu6Y-CRLcX_yT_Ipnjz0G00]--></g></svg>