<?xml version="1.0" encoding="UTF-8" standalone="no"?><svg xmlns="http://www.w3.org/2000/svg" xmlns:xlink="http://www.w3.org/1999/xlink" contentStyleType="text/css" height="271px" preserveAspectRatio="none" style="width:930px;height:271px;background:#FFFFFF;" version="1.1" viewBox="0 0 930 271" width="930px" zoomAndPan="magnify"><defs/><g><!--class RealEstate--><g id="elem_RealEstate"><rect codeLine="11" fill="#F1F1F1" height="36.6211" id="RealEstate" rx="2.5" ry="2.5" style="stroke:#181818;stroke-width:0.5;" width="75" x="7" y="145"/><text fill="#000000" font-family="sans-serif" font-size="14" lengthAdjust="spacing" textLength="69" x="10" y="165.1074">RealEstate</text><line style="stroke:#181818;stroke-width:0.5;" x1="8" x2="81" y1="173.6211" y2="173.6211"/></g><!--class User--><g id="elem_User"><rect codeLine="14" fill="#F1F1F1" height="166.9688" id="User" rx="2.5" ry="2.5" style="stroke:#181818;stroke-width:0.5;" width="118" x="766" y="7"/><text fill="#000000" font-family="sans-serif" font-size="14" font-style="italic" lengthAdjust="spacing" textLength="30" x="810" y="27.1074">User</text><line style="stroke:#181818;stroke-width:0.5;" x1="767" x2="883" y1="35.6211" y2="35.6211"/><rect fill="none" height="6" style="stroke:#595959;stroke-width:1.0;" width="6" x="774" y="47.4316"/><text fill="#000000" font-family="sans-serif" font-size="14" lengthAdjust="spacing" textLength="35" x="786" y="54.7285">name</text><rect fill="none" height="6" style="stroke:#595959;stroke-width:1.0;" width="6" x="774" y="66.0527"/><text fill="#000000" font-family="sans-serif" font-size="14" lengthAdjust="spacing" textLength="76" x="786" y="73.3496">descriptions</text><rect fill="none" height="6" style="stroke:#595959;stroke-width:1.0;" width="6" x="774" y="84.6738"/><text fill="#000000" font-family="sans-serif" font-size="14" lengthAdjust="spacing" textLength="70" x="786" y="91.9707">tax number</text><rect fill="none" height="6" style="stroke:#595959;stroke-width:1.0;" width="6" x="774" y="103.2949"/><text fill="#000000" font-family="sans-serif" font-size="14" lengthAdjust="spacing" textLength="51" x="786" y="110.5918">address</text><rect fill="none" height="6" style="stroke:#595959;stroke-width:1.0;" width="6" x="774" y="121.916"/><text fill="#000000" font-family="sans-serif" font-size="14" lengthAdjust="spacing" textLength="88" x="786" y="129.2129">email address</text><rect fill="none" height="6" style="stroke:#595959;stroke-width:1.0;" width="6" x="774" y="140.5371"/><text fill="#000000" font-family="sans-serif" font-size="14" lengthAdjust="spacing" textLength="92" x="786" y="147.834">phone number</text><rect fill="none" height="6" style="stroke:#595959;stroke-width:1.0;" width="6" x="774" y="159.1582"/><text fill="#000000" font-family="sans-serif" font-size="14" lengthAdjust="spacing" textLength="60" x="786" y="166.4551">password</text></g><!--class StoreNetwork--><g id="elem_StoreNetwork"><rect codeLine="23" fill="#F1F1F1" height="36.6211" id="StoreNetwork" rx="2.5" ry="2.5" style="stroke:#181818;stroke-width:0.5;" width="90" x="178" y="108"/><text fill="#000000" font-family="sans-serif" font-size="14" lengthAdjust="spacing" textLength="84" x="181" y="128.1074">StoreNetwork</text><line style="stroke:#181818;stroke-width:0.5;" x1="179" x2="267" y1="136.6211" y2="136.6211"/></g><!--class Store--><g id="elem_Store"><rect codeLine="26" fill="#F1F1F1" height="129.7266" id="Store" rx="2.5" ry="2.5" style="stroke:#181818;stroke-width:0.5;" width="99" x="379" y="98.5"/><text fill="#000000" font-family="sans-serif" font-size="14" lengthAdjust="spacing" textLength="34" x="411.5" y="118.6074">Store</text><line style="stroke:#181818;stroke-width:0.5;" x1="380" x2="477" y1="127.1211" y2="127.1211"/><rect fill="none" height="6" style="stroke:#595959;stroke-width:1.0;" width="6" x="387" y="138.9316"/><text fill="#000000" font-family="sans-serif" font-size="14" lengthAdjust="spacing" textLength="38" x="399" y="146.2285">id : int</text><rect fill="none" height="6" style="stroke:#595959;stroke-width:1.0;" width="6" x="387" y="157.5527"/><text fill="#000000" font-family="sans-serif" font-size="14" lengthAdjust="spacing" textLength="73" x="399" y="164.8496">designation</text><rect fill="none" height="6" style="stroke:#595959;stroke-width:1.0;" width="6" x="387" y="176.1738"/><text fill="#000000" font-family="sans-serif" font-size="14" lengthAdjust="spacing" textLength="49" x="399" y="183.4707">location</text><rect fill="none" height="6" style="stroke:#595959;stroke-width:1.0;" width="6" x="387" y="194.7949"/><text fill="#000000" font-family="sans-serif" font-size="14" lengthAdjust="spacing" textLength="40" x="399" y="202.0918">phone</text><rect fill="none" height="6" style="stroke:#595959;stroke-width:1.0;" width="6" x="387" y="213.416"/><text fill="#000000" font-family="sans-serif" font-size="14" lengthAdjust="spacing" textLength="33" x="399" y="220.7129">email</text></g><!--class Administrator--><g id="elem_Administrator"><rect codeLine="33" fill="#F1F1F1" height="36.6211" id="Administrator" rx="2.5" ry="2.5" style="stroke:#181818;stroke-width:0.5;" width="89" x="178.5" y="180"/><text fill="#000000" font-family="sans-serif" font-size="14" lengthAdjust="spacing" textLength="83" x="181.5" y="200.1074">Administrator</text><line style="stroke:#181818;stroke-width:0.5;" x1="179.5" x2="266.5" y1="208.6211" y2="208.6211"/></g><!--class Employee--><g id="elem_Employee"><rect codeLine="36" fill="#F1F1F1" height="36.6211" id="Employee" rx="2.5" ry="2.5" style="stroke:#181818;stroke-width:0.5;" width="68" x="574" y="145"/><text fill="#000000" font-family="sans-serif" font-size="14" lengthAdjust="spacing" textLength="62" x="577" y="165.1074">Employee</text><line style="stroke:#181818;stroke-width:0.5;" x1="575" x2="641" y1="173.6211" y2="173.6211"/></g><!--class Role--><g id="elem_Role"><rect codeLine="38" fill="#F1F1F1" height="55.2422" id="Role" rx="2.5" ry="2.5" style="stroke:#181818;stroke-width:0.5;" width="196" x="727" y="209"/><text fill="#000000" font-family="sans-serif" font-size="14" lengthAdjust="spacing" textLength="29" x="810.5" y="229.1074">Role</text><line style="stroke:#181818;stroke-width:0.5;" x1="728" x2="922" y1="237.6211" y2="237.6211"/><ellipse cx="738" cy="252.4316" fill="none" rx="3" ry="3" style="stroke:#545454;stroke-width:1.0;"/><text fill="#000000" font-family="sans-serif" font-size="14" lengthAdjust="spacing" textLength="170" x="747" y="256.7285">ROLE_STORE_MANAGER</text></g><!--link StoreNetwork to Store--><g id="link_StoreNetwork_Store"><path codeLine="41" d="M268.16,134.53 C300.77,140.46 345.16,148.53 378.8,154.65 " fill="none" id="StoreNetwork-Store" style="stroke:#181818;stroke-width:1.0;"/><text fill="#000000" font-family="sans-serif" font-size="13" lengthAdjust="spacing" textLength="21" x="313" y="137.5283">has</text><text fill="#000000" font-family="sans-serif" font-size="13" lengthAdjust="spacing" textLength="7" x="275.9152" y="151.2462">1</text><text fill="#000000" font-family="sans-serif" font-size="13" lengthAdjust="spacing" textLength="5" x="366.1331" y="168.6684">*</text></g><!--link Store to Employee--><g id="link_Store_Employee"><path codeLine="42" d="M478,163.5 C508.49,163.5 547.01,163.5 573.99,163.5 " fill="none" id="Store-Employee" style="stroke:#181818;stroke-width:1.0;"/><polygon fill="#000000" points="518,154.1455,508.9549,151.2066,508.9549,157.0844,518,154.1455" style="stroke:#000000;stroke-width:1.0;"/><text fill="#000000" font-family="sans-serif" font-size="13" lengthAdjust="spacing" textLength="21" x="522" y="159.5283">has</text><text fill="#000000" font-family="sans-serif" font-size="13" lengthAdjust="spacing" textLength="7" x="486.1156" y="178.8731">1</text><text fill="#000000" font-family="sans-serif" font-size="13" lengthAdjust="spacing" textLength="22" x="543.9726" y="179.102">0..1</text></g><!--link Employee to Role--><g id="link_Employee_Role"><path codeLine="43" d="M642.12,174.75 C668.98,183.86 707.98,197.11 742.99,208.99 " fill="none" id="Employee-Role" style="stroke:#181818;stroke-width:1.0;"/><polygon fill="#000000" points="681.7347,177.7527,674.1142,172.0623,672.2249,177.6282,681.7347,177.7527" style="stroke:#000000;stroke-width:1.0;"/><text fill="#000000" font-family="sans-serif" font-size="13" lengthAdjust="spacing" textLength="10" x="686" y="181.5283">is</text><text fill="#000000" font-family="sans-serif" font-size="13" lengthAdjust="spacing" textLength="7" x="649.8791" y="192.9208">1</text><text fill="#000000" font-family="sans-serif" font-size="13" lengthAdjust="spacing" textLength="7" x="716.2158" y="197.6967">1</text></g><!--link Employee to User--><g id="link_Employee_User"><path codeLine="44" d="M642.12,152.25 C669.85,142.84 710.53,129.03 746.39,116.85 " fill="none" id="Employee-to-User" style="stroke:#181818;stroke-width:1.0;"/><polygon fill="none" points="744.51,110.1,765.7,110.29,749.01,123.35,744.51,110.1" style="stroke:#181818;stroke-width:1.0;"/><polygon fill="#000000" points="681.7346,125.5381,672.2248,125.663,674.1145,131.2288,681.7346,125.5381" style="stroke:#000000;stroke-width:1.0;"/><text fill="#000000" font-family="sans-serif" font-size="13" lengthAdjust="spacing" textLength="10" x="686" y="132.5283">is</text></g><!--link RealEstate to Administrator--><g id="link_RealEstate_Administrator"><path codeLine="46" d="M81.63,182.03 C91.26,186.19 101.83,190.09 112,192.5 C133.49,197.6 157.98,199.32 178.39,199.67 " fill="none" id="RealEstate-Administrator" style="stroke:#181818;stroke-width:1.0;"/><polygon fill="#000000" points="121.9189,184.0423,113.5476,179.5287,112.4934,185.3113,121.9189,184.0423" style="stroke:#000000;stroke-width:1.0;"/><text fill="#000000" font-family="sans-serif" font-size="13" lengthAdjust="spacing" textLength="21" x="126" y="188.5283">has</text><text fill="#000000" font-family="sans-serif" font-size="13" lengthAdjust="spacing" textLength="7" x="84.0884" y="203.7547">1</text><text fill="#000000" font-family="sans-serif" font-size="13" lengthAdjust="spacing" textLength="7" x="163.4218" y="215.3554">1</text></g><!--link RealEstate to StoreNetwork--><g id="link_RealEstate_StoreNetwork"><path codeLine="47" d="M82.07,155.83 C109.94,149.99 148.42,141.92 177.98,135.73 " fill="none" id="RealEstate-StoreNetwork" style="stroke:#181818;stroke-width:1.0;"/><polygon fill="#000000" points="121.8937,133.1199,112.4381,132.0988,113.6437,137.8517,121.8937,133.1199" style="stroke:#000000;stroke-width:1.0;"/><text fill="#000000" font-family="sans-serif" font-size="13" lengthAdjust="spacing" textLength="21" x="126" y="139.5283">has</text><text fill="#000000" font-family="sans-serif" font-size="13" lengthAdjust="spacing" textLength="7" x="89.899" y="170.0804">1</text><text fill="#000000" font-family="sans-serif" font-size="13" lengthAdjust="spacing" textLength="7" x="162.9439" y="152.7503">1</text></g><!--link Administrator to Store--><g id="link_Administrator_Store"><path codeLine="48" d="M267.5,199.65 C291.72,199.49 322.28,197.94 349,192.5 C358.82,190.5 369.05,187.47 378.76,184.11 " fill="none" id="Administrator-Store" style="stroke:#181818;stroke-width:1.0;"/><polygon fill="#000000" points="307.9519,182.4539,298.5873,180.7944,299.4003,186.6157,307.9519,182.4539" style="stroke:#000000;stroke-width:1.0;"/><text fill="#000000" font-family="sans-serif" font-size="13" lengthAdjust="spacing" textLength="36" x="312" y="188.5283">create</text><text fill="#000000" font-family="sans-serif" font-size="13" lengthAdjust="spacing" textLength="7" x="275.45" y="215.3321">1</text><text fill="#000000" font-family="sans-serif" font-size="13" lengthAdjust="spacing" textLength="5" x="366.0873" y="202.4553">*</text></g><!--SRC=[RP5FRy8m3CNl-HHMZvkAnfK34eTgbmsaifsHIKmRaJzL4iGGuxilQJfejTtiv-VydXL_bAP3XngqDPQtpcg2u4x4_7tI8JzYGzjmKGIEU43JgB71joZiMPe63gWyCQRe421OSB9f0mYPbgGrZB5M2W8k7OyFzBMcq5hX6UCAlOUQK5K-OA0hOpU6UnySyW1v-kd9NHa0b61GKwu4UUvabm2U9G42Ve4vwJsvtACGZlmm98rIJQMkjOOc6rsadQqJCK8cRuDrjAOGnUCrgcCP-aXnJGfOW3HXQ6CmsHZiBy-AidpSzjoXxcFTSIkXfP7fzWWOyIhTANkXXBmnYecXjeeo_ndgpLkrstviwchtlbglNgiwkiR9ePWNPLay5KFm1RJeisCOlSncy-A1wGq0ItPNiYrw4ZYTwyVJilnUzh_qEs6F3tsiJgvR9CBoNzya-k2RxFwzXpjAJon_0000]--></g></svg>