<?xml version="1.0" encoding="us-ascii" standalone="no"?><svg xmlns="http://www.w3.org/2000/svg" xmlns:xlink="http://www.w3.org/1999/xlink" contentStyleType="text/css" height="380px" preserveAspectRatio="none" style="width:575px;height:380px;background:#FFFFFF;" version="1.1" viewBox="0 0 575 380" width="575px" zoomAndPan="magnify"><defs/><g><rect fill="#FFFFFF" height="230.1875" style="stroke:#181818;stroke-width:1.0;" width="10" x="112" y="81.8047"/><rect fill="#FFFFFF" height="28.5234" style="stroke:#181818;stroke-width:1.0;" width="10" x="249" y="133.8516"/><rect fill="#FFFFFF" height="28.5234" style="stroke:#181818;stroke-width:1.0;" width="10" x="356" y="190.8984"/><rect fill="#FFFFFF" height="28.5234" style="stroke:#181818;stroke-width:1.0;" width="10" x="484.5" y="247.9453"/><rect fill="none" height="187.6641" style="stroke:#000000;stroke-width:1.5;" width="541" x="28.5" y="96.8047"/><line style="stroke:#181818;stroke-width:0.5;stroke-dasharray:5.0,5.0;" x1="116.5" x2="116.5" y1="51.2813" y2="329.9922"/><line style="stroke:#181818;stroke-width:0.5;stroke-dasharray:5.0,5.0;" x1="253.5" x2="253.5" y1="51.2813" y2="329.9922"/><line style="stroke:#181818;stroke-width:0.5;stroke-dasharray:5.0,5.0;" x1="360.5" x2="360.5" y1="51.2813" y2="329.9922"/><line style="stroke:#181818;stroke-width:0.5;stroke-dasharray:5.0,5.0;" x1="489.5" x2="489.5" y1="51.2813" y2="329.9922"/><rect fill="#E3E3E3" height="29.6406" rx="2.5" ry="2.5" style="stroke:#181818;stroke-width:0.5;" width="157" x="38.5" y="20.6406"/><text fill="#000000" font-family="sans-serif" font-size="14" lengthAdjust="spacing" textLength="143" x="45.5" y="40.3145">:CreateStoreController</text><rect fill="#E3E3E3" height="29.6406" rx="2.5" ry="2.5" style="stroke:#181818;stroke-width:0.5;" width="157" x="38.5" y="328.9922"/><text fill="#000000" font-family="sans-serif" font-size="14" lengthAdjust="spacing" textLength="143" x="45.5" y="348.666">:CreateStoreController</text><rect fill="#E3E3E3" height="29.6406" rx="2.5" ry="2.5" style="stroke:#181818;stroke-width:0.5;" width="97" x="205.5" y="20.6406"/><text fill="#000000" font-family="sans-serif" font-size="14" lengthAdjust="spacing" textLength="83" x="212.5" y="40.3145">:Repositories</text><rect fill="#E3E3E3" height="29.6406" rx="2.5" ry="2.5" style="stroke:#181818;stroke-width:0.5;" width="97" x="205.5" y="328.9922"/><text fill="#000000" font-family="sans-serif" font-size="14" lengthAdjust="spacing" textLength="83" x="212.5" y="348.666">:Repositories</text><rect fill="#E3E3E3" height="45.2813" rx="2.5" ry="2.5" style="stroke:#181818;stroke-width:0.5;" width="97" x="312.5" y="5"/><text fill="#000000" font-family="sans-serif" font-size="14" lengthAdjust="spacing" textLength="74" x="324" y="24.6738">repositories</text><text fill="#000000" font-family="sans-serif" font-size="14" lengthAdjust="spacing" textLength="83" x="319.5" y="40.3145">:Repositories</text><rect fill="#E3E3E3" height="45.2813" rx="2.5" ry="2.5" style="stroke:#181818;stroke-width:0.5;" width="97" x="312.5" y="328.9922"/><text fill="#000000" font-family="sans-serif" font-size="14" lengthAdjust="spacing" textLength="74" x="324" y="348.666">repositories</text><text fill="#000000" font-family="sans-serif" font-size="14" lengthAdjust="spacing" textLength="83" x="319.5" y="364.3066">:Repositories</text><rect fill="#E3E3E3" height="45.2813" rx="2.5" ry="2.5" style="stroke:#181818;stroke-width:0.5;" width="140" x="419.5" y="5"/><text fill="#000000" font-family="sans-serif" font-size="14" lengthAdjust="spacing" textLength="126" x="426.5" y="24.6738">PropertyRepository:</text><text fill="#000000" font-family="sans-serif" font-size="14" lengthAdjust="spacing" textLength="122" x="428.5" y="40.3145">PropertyRepository</text><rect fill="#E3E3E3" height="45.2813" rx="2.5" ry="2.5" style="stroke:#181818;stroke-width:0.5;" width="140" x="419.5" y="328.9922"/><text fill="#000000" font-family="sans-serif" font-size="14" lengthAdjust="spacing" textLength="126" x="426.5" y="348.666">PropertyRepository:</text><text fill="#000000" font-family="sans-serif" font-size="14" lengthAdjust="spacing" textLength="122" x="428.5" y="364.3066">PropertyRepository</text><rect fill="#FFFFFF" height="230.1875" style="stroke:#181818;stroke-width:1.0;" width="10" x="112" y="81.8047"/><rect fill="#FFFFFF" height="28.5234" style="stroke:#181818;stroke-width:1.0;" width="10" x="249" y="133.8516"/><rect fill="#FFFFFF" height="28.5234" style="stroke:#181818;stroke-width:1.0;" width="10" x="356" y="190.8984"/><rect fill="#FFFFFF" height="28.5234" style="stroke:#181818;stroke-width:1.0;" width="10" x="484.5" y="247.9453"/><polygon fill="#181818" points="100,77.8047,110,81.8047,100,85.8047,104,81.8047" style="stroke:#181818;stroke-width:1.0;"/><line style="stroke:#181818;stroke-width:1.0;" x1="0" x2="106" y1="81.8047" y2="81.8047"/><text fill="#000000" font-family="sans-serif" font-size="13" font-weight="bold" lengthAdjust="spacing" textLength="14" x="7" y="77.0498">15</text><text fill="#000000" font-family="sans-serif" font-size="13" lengthAdjust="spacing" textLength="75" x="25" y="77.0498">getProperty()</text><path d="M28.5,96.8047 L179.5,96.8047 L179.5,103.3281 L169.5,113.3281 L28.5,113.3281 L28.5,96.8047 " fill="#EEEEEE" style="stroke:#000000;stroke-width:1.5;"/><rect fill="none" height="187.6641" style="stroke:#000000;stroke-width:1.5;" width="541" x="28.5" y="96.8047"/><text fill="#000000" font-family="sans-serif" font-size="13" font-weight="bold" lengthAdjust="spacing" textLength="106" x="43.5" y="109.5732">Get Property List</text><polygon fill="#181818" points="237,129.8516,247,133.8516,237,137.8516,241,133.8516" style="stroke:#181818;stroke-width:1.0;"/><line style="stroke:#181818;stroke-width:1.0;" x1="122" x2="243" y1="133.8516" y2="133.8516"/><text fill="#000000" font-family="sans-serif" font-size="13" font-weight="bold" lengthAdjust="spacing" textLength="25" x="129" y="129.0967">15.1</text><text fill="#000000" font-family="sans-serif" font-size="13" lengthAdjust="spacing" textLength="75" x="158" y="129.0967">getInstance()</text><polygon fill="#181818" points="133,158.375,123,162.375,133,166.375,129,162.375" style="stroke:#181818;stroke-width:1.0;"/><line style="stroke:#181818;stroke-width:1.0;stroke-dasharray:2.0,2.0;" x1="127" x2="253" y1="162.375" y2="162.375"/><text fill="#000000" font-family="sans-serif" font-size="13" font-weight="bold" lengthAdjust="spacing" textLength="25" x="139" y="157.6201">15.2</text><text fill="#000000" font-family="sans-serif" font-size="13" lengthAdjust="spacing" textLength="67" x="168" y="157.6201">repositories</text><polygon fill="#181818" points="344,186.8984,354,190.8984,344,194.8984,348,190.8984" style="stroke:#181818;stroke-width:1.0;"/><line style="stroke:#181818;stroke-width:1.0;" x1="122" x2="350" y1="190.8984" y2="190.8984"/><text fill="#000000" font-family="sans-serif" font-size="13" font-weight="bold" lengthAdjust="spacing" textLength="25" x="129" y="186.1436">15.3</text><text fill="#000000" font-family="sans-serif" font-size="13" lengthAdjust="spacing" textLength="137" x="158" y="186.1436">getPropertyRepository()</text><polygon fill="#181818" points="133,215.4219,123,219.4219,133,223.4219,129,219.4219" style="stroke:#181818;stroke-width:1.0;"/><line style="stroke:#181818;stroke-width:1.0;stroke-dasharray:2.0,2.0;" x1="127" x2="360" y1="219.4219" y2="219.4219"/><text fill="#000000" font-family="sans-serif" font-size="13" font-weight="bold" lengthAdjust="spacing" textLength="25" x="139" y="214.667">15.4</text><text fill="#000000" font-family="sans-serif" font-size="13" lengthAdjust="spacing" textLength="111" x="168" y="214.667">PropertyRepository</text><polygon fill="#181818" points="472.5,243.9453,482.5,247.9453,472.5,251.9453,476.5,247.9453" style="stroke:#181818;stroke-width:1.0;"/><line style="stroke:#181818;stroke-width:1.0;" x1="122" x2="478.5" y1="247.9453" y2="247.9453"/><text fill="#000000" font-family="sans-serif" font-size="13" font-weight="bold" lengthAdjust="spacing" textLength="25" x="129" y="243.1904">15.5</text><text fill="#000000" font-family="sans-serif" font-size="13" lengthAdjust="spacing" textLength="75" x="158" y="243.1904">getProperty()</text><polygon fill="#181818" points="133,272.4688,123,276.4688,133,280.4688,129,276.4688" style="stroke:#181818;stroke-width:1.0;"/><line style="stroke:#181818;stroke-width:1.0;stroke-dasharray:2.0,2.0;" x1="127" x2="488.5" y1="276.4688" y2="276.4688"/><text fill="#000000" font-family="sans-serif" font-size="13" font-weight="bold" lengthAdjust="spacing" textLength="25" x="139" y="271.7139">15.6</text><text fill="#000000" font-family="sans-serif" font-size="13" lengthAdjust="spacing" textLength="70" x="168" y="271.7139">PropertyList</text><polygon fill="#181818" points="11,307.9922,1,311.9922,11,315.9922,7,311.9922" style="stroke:#181818;stroke-width:1.0;"/><line style="stroke:#181818;stroke-width:1.0;stroke-dasharray:2.0,2.0;" x1="5" x2="116" y1="311.9922" y2="311.9922"/><text fill="#000000" font-family="sans-serif" font-size="13" font-weight="bold" lengthAdjust="spacing" textLength="14" x="17" y="307.2373">16</text><text fill="#000000" font-family="sans-serif" font-size="13" lengthAdjust="spacing" textLength="70" x="35" y="307.2373">PropertyList</text><!--SRC=[ZL8xQyCm4DxrAuuiRGSNChI3AOMI8HGoX2HZ5iM-E2AspaZdjldtLUJQbYC7gaLmTz_Z7lQiT2sDhA0YJTd9K8N0fa5X-qmjixCiSCkN4i5Wnb8NPLXWJpAdRwKBEChIeX2oOT9DTK0ZnCD9vGX78ZxGZn0EmIfJjTGCitHXKB9Z9eCBqcoeBD7CG5fOx3Qhc-8DrcILgrLeVKqVk6pLrP8J7KDCWDZhc62z-jYD4Mj3DHg-3DJfNiV15Xs5myvX_Y849E- -4qYXGEu0Zq_ZkkUva1chBpUAjczmhp3KrB14xdLWfImBuRFTy-HEP68KhUQdjcvV6JhD4DVhJSrmL7bzK-p9NsifX5CUGNFylqpNo7KbusaDq7iz-3L6fZtJu79YMtUyndIzkOWZMkoqmObBYUp6tCbmFLtMdy0ztnCglXPrxl_mw5vzv2r9MeLRYO3MNwJu1G00]--></g></svg>
