<?xml version="1.0" encoding="us-ascii" standalone="no"?><svg xmlns="http://www.w3.org/2000/svg" xmlns:xlink="http://www.w3.org/1999/xlink" contentStyleType="text/css" height="1011px" preserveAspectRatio="none" style="width:1300px;height:1011px;background:#FFFFFF;" version="1.1" viewBox="0 0 1300 1011" width="1300px" zoomAndPan="magnify"><defs/><g><rect fill="#FFFFFF" height="816.1797" style="stroke:#181818;stroke-width:1.0;" width="10" x="36" y="90.6406"/><rect fill="#FFFFFF" height="313.7578" style="stroke:#181818;stroke-width:1.0;" width="10" x="358" y="111.1641"/><rect fill="#FFFFFF" height="28.5234" style="stroke:#181818;stroke-width:1.0;" width="10" x="358" y="453.4453"/><rect fill="#FFFFFF" height="28.5234" style="stroke:#181818;stroke-width:1.0;" width="10" x="358" y="510.4922"/><rect fill="#FFFFFF" height="339.2813" style="stroke:#181818;stroke-width:1.0;" width="10" x="358" y="567.5391"/><rect fill="#FFFFFF" height="256.7109" style="stroke:#181818;stroke-width:1.0;" width="10" x="664" y="139.6875"/><rect fill="#FFFFFF" height="85.5703" style="stroke:#181818;stroke-width:1.0;" width="10" x="664" y="619.5859"/><rect fill="#FFFFFF" height="85.5703" style="stroke:#181818;stroke-width:1.0;" width="10" x="664" y="792.7266"/><rect fill="#FFFFFF" height="142.6172" style="stroke:#181818;stroke-width:1.0;" width="10" x="801" y="168.2109"/><rect fill="#FFFFFF" height="28.5234" style="stroke:#181818;stroke-width:1.0;" width="10" x="1016" y="196.7344"/><rect fill="#FFFFFF" height="28.5234" style="stroke:#181818;stroke-width:1.0;" width="10" x="1016" y="339.3516"/><rect fill="#FFFFFF" height="28.5234" style="stroke:#181818;stroke-width:1.0;" width="10" x="1197.5" y="253.7813"/><rect fill="#FFFFFF" height="28.5234" style="stroke:#181818;stroke-width:1.0;" width="10" x="1197.5" y="648.1094"/><rect fill="#FFFFFF" height="28.5234" style="stroke:#181818;stroke-width:1.0;" width="10" x="1197.5" y="821.25"/><rect fill="none" height="159.1406" style="stroke:#000000;stroke-width:1.5;" width="1284" x="10" y="582.5391"/><rect fill="none" height="159.1406" style="stroke:#000000;stroke-width:1.5;" width="1284" x="10" y="755.6797"/><line style="stroke:#181818;stroke-width:0.5;stroke-dasharray:5.0,5.0;" x1="41" x2="41" y1="80.6406" y2="931.8203"/><line style="stroke:#181818;stroke-width:0.5;stroke-dasharray:5.0,5.0;" x1="362.5" x2="362.5" y1="80.6406" y2="931.8203"/><line style="stroke:#181818;stroke-width:0.5;stroke-dasharray:5.0,5.0;" x1="668.5" x2="668.5" y1="80.6406" y2="931.8203"/><line style="stroke:#181818;stroke-width:0.5;stroke-dasharray:5.0,5.0;" x1="805.5" x2="805.5" y1="80.6406" y2="931.8203"/><line style="stroke:#181818;stroke-width:0.5;stroke-dasharray:5.0,5.0;" x1="1021" x2="1021" y1="80.6406" y2="931.8203"/><line style="stroke:#181818;stroke-width:0.5;stroke-dasharray:5.0,5.0;" x1="1202" x2="1202" y1="80.6406" y2="931.8203"/><text fill="#000000" font-family="sans-serif" font-size="14" lengthAdjust="spacing" textLength="36" x="20" y="77.6738">Client</text><ellipse cx="41" cy="13.5" fill="#E3E3E3" rx="8" ry="8" style="stroke:#181818;stroke-width:0.5;"/><path d="M41,21.5 L41,48.5 M28,29.5 L54,29.5 M41,48.5 L28,63.5 M41,48.5 L54,63.5 " fill="none" style="stroke:#181818;stroke-width:0.5;"/><text fill="#000000" font-family="sans-serif" font-size="14" lengthAdjust="spacing" textLength="36" x="20" y="943.4941">Client</text><ellipse cx="41" cy="954.9609" fill="#E3E3E3" rx="8" ry="8" style="stroke:#181818;stroke-width:0.5;"/><path d="M41,962.9609 L41,989.9609 M28,970.9609 L54,970.9609 M41,989.9609 L28,1004.9609 M41,989.9609 L54,1004.9609 " fill="none" style="stroke:#181818;stroke-width:0.5;"/><rect fill="#E3E3E3" height="29.6406" rx="2.5" ry="2.5" style="stroke:#181818;stroke-width:0.5;" width="107" x="309.5" y="50"/><text fill="#000000" font-family="sans-serif" font-size="14" lengthAdjust="spacing" textLength="93" x="316.5" y="69.6738">:visitRequestUI</text><rect fill="#E3E3E3" height="29.6406" rx="2.5" ry="2.5" style="stroke:#181818;stroke-width:0.5;" width="107" x="309.5" y="930.8203"/><text fill="#000000" font-family="sans-serif" font-size="14" lengthAdjust="spacing" textLength="93" x="316.5" y="950.4941">:visitRequestUI</text><rect fill="#E3E3E3" height="29.6406" rx="2.5" ry="2.5" style="stroke:#181818;stroke-width:0.5;" width="157" x="590.5" y="50"/><text fill="#000000" font-family="sans-serif" font-size="14" lengthAdjust="spacing" textLength="143" x="597.5" y="69.6738">:visitRequestController</text><rect fill="#E3E3E3" height="29.6406" rx="2.5" ry="2.5" style="stroke:#181818;stroke-width:0.5;" width="157" x="590.5" y="930.8203"/><text fill="#000000" font-family="sans-serif" font-size="14" lengthAdjust="spacing" textLength="143" x="597.5" y="950.4941">:visitRequestController</text><rect fill="#E3E3E3" height="29.6406" rx="2.5" ry="2.5" style="stroke:#181818;stroke-width:0.5;" width="97" x="757.5" y="50"/><text fill="#000000" font-family="sans-serif" font-size="14" lengthAdjust="spacing" textLength="83" x="764.5" y="69.6738">:Repositories</text><rect fill="#E3E3E3" height="29.6406" rx="2.5" ry="2.5" style="stroke:#181818;stroke-width:0.5;" width="97" x="757.5" y="930.8203"/><text fill="#000000" font-family="sans-serif" font-size="14" lengthAdjust="spacing" textLength="83" x="764.5" y="950.4941">:Repositories</text><rect fill="#E3E3E3" height="29.6406" rx="2.5" ry="2.5" style="stroke:#181818;stroke-width:0.5;" width="180" x="931" y="50"/><text fill="#000000" font-family="sans-serif" font-size="14" lengthAdjust="spacing" textLength="166" x="938" y="69.6738">:announcementRepository</text><rect fill="#E3E3E3" height="29.6406" rx="2.5" ry="2.5" style="stroke:#181818;stroke-width:0.5;" width="180" x="931" y="930.8203"/><text fill="#000000" font-family="sans-serif" font-size="14" lengthAdjust="spacing" textLength="166" x="938" y="950.4941">:announcementRepository</text><rect fill="#E3E3E3" height="29.6406" rx="2.5" ry="2.5" style="stroke:#181818;stroke-width:0.5;" width="163" x="1121" y="50"/><text fill="#000000" font-family="sans-serif" font-size="14" lengthAdjust="spacing" textLength="149" x="1128" y="69.6738">:visitRequestRepository</text><rect fill="#E3E3E3" height="29.6406" rx="2.5" ry="2.5" style="stroke:#181818;stroke-width:0.5;" width="163" x="1121" y="930.8203"/><text fill="#000000" font-family="sans-serif" font-size="14" lengthAdjust="spacing" textLength="149" x="1128" y="950.4941">:visitRequestRepository</text><rect fill="#FFFFFF" height="816.1797" style="stroke:#181818;stroke-width:1.0;" width="10" x="36" y="90.6406"/><rect fill="#FFFFFF" height="313.7578" style="stroke:#181818;stroke-width:1.0;" width="10" x="358" y="111.1641"/><rect fill="#FFFFFF" height="28.5234" style="stroke:#181818;stroke-width:1.0;" width="10" x="358" y="453.4453"/><rect fill="#FFFFFF" height="28.5234" style="stroke:#181818;stroke-width:1.0;" width="10" x="358" y="510.4922"/><rect fill="#FFFFFF" height="339.2813" style="stroke:#181818;stroke-width:1.0;" width="10" x="358" y="567.5391"/><rect fill="#FFFFFF" height="256.7109" style="stroke:#181818;stroke-width:1.0;" width="10" x="664" y="139.6875"/><rect fill="#FFFFFF" height="85.5703" style="stroke:#181818;stroke-width:1.0;" width="10" x="664" y="619.5859"/><rect fill="#FFFFFF" height="85.5703" style="stroke:#181818;stroke-width:1.0;" width="10" x="664" y="792.7266"/><rect fill="#FFFFFF" height="142.6172" style="stroke:#181818;stroke-width:1.0;" width="10" x="801" y="168.2109"/><rect fill="#FFFFFF" height="28.5234" style="stroke:#181818;stroke-width:1.0;" width="10" x="1016" y="196.7344"/><rect fill="#FFFFFF" height="28.5234" style="stroke:#181818;stroke-width:1.0;" width="10" x="1016" y="339.3516"/><rect fill="#FFFFFF" height="28.5234" style="stroke:#181818;stroke-width:1.0;" width="10" x="1197.5" y="253.7813"/><rect fill="#FFFFFF" height="28.5234" style="stroke:#181818;stroke-width:1.0;" width="10" x="1197.5" y="648.1094"/><rect fill="#FFFFFF" height="28.5234" style="stroke:#181818;stroke-width:1.0;" width="10" x="1197.5" y="821.25"/><polygon fill="#181818" points="346,107.1641,356,111.1641,346,115.1641,350,111.1641" style="stroke:#181818;stroke-width:1.0;"/><line style="stroke:#181818;stroke-width:1.0;" x1="46" x2="352" y1="111.1641" y2="111.1641"/><text fill="#000000" font-family="sans-serif" font-size="13" font-weight="bold" lengthAdjust="spacing" textLength="7" x="53" y="106.4092">1</text><text fill="#000000" font-family="sans-serif" font-size="13" lengthAdjust="spacing" textLength="136" x="64" y="106.4092">asks to schedule a visit</text><polygon fill="#181818" points="652,135.6875,662,139.6875,652,143.6875,656,139.6875" style="stroke:#181818;stroke-width:1.0;"/><line style="stroke:#181818;stroke-width:1.0;" x1="368" x2="658" y1="139.6875" y2="139.6875"/><text fill="#000000" font-family="sans-serif" font-size="13" font-weight="bold" lengthAdjust="spacing" textLength="7" x="375" y="134.9326">2</text><text fill="#000000" font-family="sans-serif" font-size="13" lengthAdjust="spacing" textLength="118" x="386" y="134.9326">createVisitRequest()</text><polygon fill="#181818" points="789,164.2109,799,168.2109,789,172.2109,793,168.2109" style="stroke:#181818;stroke-width:1.0;"/><line style="stroke:#181818;stroke-width:1.0;" x1="674" x2="795" y1="168.2109" y2="168.2109"/><text fill="#000000" font-family="sans-serif" font-size="13" font-weight="bold" lengthAdjust="spacing" textLength="7" x="681" y="163.4561">3</text><text fill="#000000" font-family="sans-serif" font-size="13" lengthAdjust="spacing" textLength="75" x="692" y="163.4561">getInstance()</text><polygon fill="#181818" points="1004,192.7344,1014,196.7344,1004,200.7344,1008,196.7344" style="stroke:#181818;stroke-width:1.0;"/><line style="stroke:#181818;stroke-width:1.0;" x1="811" x2="1010" y1="196.7344" y2="196.7344"/><text fill="#000000" font-family="sans-serif" font-size="13" font-weight="bold" lengthAdjust="spacing" textLength="7" x="818" y="191.9795">4</text><text fill="#000000" font-family="sans-serif" font-size="13" lengthAdjust="spacing" textLength="175" x="829" y="191.9795">getAnnouncementRepository()</text><polygon fill="#181818" points="822,221.2578,812,225.2578,822,229.2578,818,225.2578" style="stroke:#181818;stroke-width:1.0;"/><line style="stroke:#181818;stroke-width:1.0;stroke-dasharray:2.0,2.0;" x1="816" x2="1020" y1="225.2578" y2="225.2578"/><text fill="#000000" font-family="sans-serif" font-size="13" font-weight="bold" lengthAdjust="spacing" textLength="7" x="828" y="220.5029">5</text><text fill="#000000" font-family="sans-serif" font-size="13" lengthAdjust="spacing" textLength="155" x="839" y="220.5029">announcementRepository()</text><polygon fill="#181818" points="1185.5,249.7813,1195.5,253.7813,1185.5,257.7813,1189.5,253.7813" style="stroke:#181818;stroke-width:1.0;"/><line style="stroke:#181818;stroke-width:1.0;" x1="811" x2="1191.5" y1="253.7813" y2="253.7813"/><text fill="#000000" font-family="sans-serif" font-size="13" font-weight="bold" lengthAdjust="spacing" textLength="7" x="818" y="249.0264">6</text><text fill="#000000" font-family="sans-serif" font-size="13" lengthAdjust="spacing" textLength="162" x="829" y="249.0264">getVisitRequestRepository()</text><polygon fill="#181818" points="822,278.3047,812,282.3047,822,286.3047,818,282.3047" style="stroke:#181818;stroke-width:1.0;"/><line style="stroke:#181818;stroke-width:1.0;stroke-dasharray:2.0,2.0;" x1="816" x2="1201.5" y1="282.3047" y2="282.3047"/><text fill="#000000" font-family="sans-serif" font-size="13" font-weight="bold" lengthAdjust="spacing" textLength="7" x="828" y="277.5498">7</text><text fill="#000000" font-family="sans-serif" font-size="13" lengthAdjust="spacing" textLength="140" x="839" y="277.5498">visitRequestRepository()</text><polygon fill="#181818" points="685,306.8281,675,310.8281,685,314.8281,681,310.8281" style="stroke:#181818;stroke-width:1.0;"/><line style="stroke:#181818;stroke-width:1.0;stroke-dasharray:2.0,2.0;" x1="679" x2="805" y1="310.8281" y2="310.8281"/><text fill="#000000" font-family="sans-serif" font-size="13" font-weight="bold" lengthAdjust="spacing" textLength="7" x="691" y="306.0732">8</text><text fill="#000000" font-family="sans-serif" font-size="13" lengthAdjust="spacing" textLength="80" x="702" y="306.0732">Repositories()</text><polygon fill="#181818" points="1004,335.3516,1014,339.3516,1004,343.3516,1008,339.3516" style="stroke:#181818;stroke-width:1.0;"/><line style="stroke:#181818;stroke-width:1.0;" x1="674" x2="1010" y1="339.3516" y2="339.3516"/><text fill="#000000" font-family="sans-serif" font-size="13" font-weight="bold" lengthAdjust="spacing" textLength="7" x="681" y="334.5967">9</text><text fill="#000000" font-family="sans-serif" font-size="13" lengthAdjust="spacing" textLength="134" x="692" y="334.5967">getAnnouncementList()</text><polygon fill="#181818" points="685,363.875,675,367.875,685,371.875,681,367.875" style="stroke:#181818;stroke-width:1.0;"/><line style="stroke:#181818;stroke-width:1.0;stroke-dasharray:2.0,2.0;" x1="679" x2="1020" y1="367.875" y2="367.875"/><text fill="#000000" font-family="sans-serif" font-size="13" font-weight="bold" lengthAdjust="spacing" textLength="14" x="691" y="363.1201">10</text><text fill="#000000" font-family="sans-serif" font-size="13" lengthAdjust="spacing" textLength="106" x="709" y="363.1201">announcementList</text><polygon fill="#181818" points="379,392.3984,369,396.3984,379,400.3984,375,396.3984" style="stroke:#181818;stroke-width:1.0;"/><line style="stroke:#181818;stroke-width:1.0;stroke-dasharray:2.0,2.0;" x1="373" x2="668" y1="396.3984" y2="396.3984"/><text fill="#000000" font-family="sans-serif" font-size="13" font-weight="bold" lengthAdjust="spacing" textLength="14" x="385" y="391.6436">11</text><text fill="#000000" font-family="sans-serif" font-size="13" lengthAdjust="spacing" textLength="106" x="403" y="391.6436">announcementList</text><polygon fill="#181818" points="57,420.9219,47,424.9219,57,428.9219,53,424.9219" style="stroke:#181818;stroke-width:1.0;"/><line style="stroke:#181818;stroke-width:1.0;stroke-dasharray:2.0,2.0;" x1="51" x2="362" y1="424.9219" y2="424.9219"/><text fill="#000000" font-family="sans-serif" font-size="13" font-weight="bold" lengthAdjust="spacing" textLength="14" x="63" y="420.167">12</text><text fill="#000000" font-family="sans-serif" font-size="13" lengthAdjust="spacing" textLength="270" x="81" y="420.167">displayAnnouncementList(anncouncementList)</text><polygon fill="#181818" points="346,449.4453,356,453.4453,346,457.4453,350,453.4453" style="stroke:#181818;stroke-width:1.0;"/><line style="stroke:#181818;stroke-width:1.0;" x1="46" x2="352" y1="453.4453" y2="453.4453"/><text fill="#000000" font-family="sans-serif" font-size="13" font-weight="bold" lengthAdjust="spacing" textLength="14" x="53" y="448.6904">13</text><text fill="#000000" font-family="sans-serif" font-size="13" lengthAdjust="spacing" textLength="215" x="71" y="448.6904">selectAnnouncement(announcement)</text><polygon fill="#181818" points="57,477.9688,47,481.9688,57,485.9688,53,481.9688" style="stroke:#181818;stroke-width:1.0;"/><line style="stroke:#181818;stroke-width:1.0;stroke-dasharray:2.0,2.0;" x1="51" x2="362" y1="481.9688" y2="481.9688"/><text fill="#000000" font-family="sans-serif" font-size="13" font-weight="bold" lengthAdjust="spacing" textLength="14" x="63" y="477.2139">14</text><text fill="#000000" font-family="sans-serif" font-size="13" lengthAdjust="spacing" textLength="163" x="81" y="477.2139">requestData(announcement)</text><polygon fill="#181818" points="346,506.4922,356,510.4922,346,514.4922,350,510.4922" style="stroke:#181818;stroke-width:1.0;"/><line style="stroke:#181818;stroke-width:1.0;" x1="46" x2="352" y1="510.4922" y2="510.4922"/><text fill="#000000" font-family="sans-serif" font-size="13" font-weight="bold" lengthAdjust="spacing" textLength="14" x="53" y="505.7373">15</text><text fill="#000000" font-family="sans-serif" font-size="13" lengthAdjust="spacing" textLength="143" x="71" y="505.7373">types request Data(data)</text><polygon fill="#181818" points="57,535.0156,47,539.0156,57,543.0156,53,539.0156" style="stroke:#181818;stroke-width:1.0;"/><line style="stroke:#181818;stroke-width:1.0;stroke-dasharray:2.0,2.0;" x1="51" x2="362" y1="539.0156" y2="539.0156"/><text fill="#000000" font-family="sans-serif" font-size="13" font-weight="bold" lengthAdjust="spacing" textLength="14" x="63" y="534.2607">16</text><text fill="#000000" font-family="sans-serif" font-size="13" lengthAdjust="spacing" textLength="233" x="81" y="534.2607">display request Data and announcement</text><polygon fill="#181818" points="346,563.5391,356,567.5391,346,571.5391,350,567.5391" style="stroke:#181818;stroke-width:1.0;"/><line style="stroke:#181818;stroke-width:1.0;" x1="46" x2="352" y1="567.5391" y2="567.5391"/><text fill="#000000" font-family="sans-serif" font-size="13" font-weight="bold" lengthAdjust="spacing" textLength="14" x="53" y="562.7842">17</text><text fill="#000000" font-family="sans-serif" font-size="13" lengthAdjust="spacing" textLength="98" x="71" y="562.7842">confirmRequest()</text><path d="M10,582.5391 L71,582.5391 L71,589.0625 L61,599.0625 L10,599.0625 L10,582.5391 " fill="#EEEEEE" style="stroke:#000000;stroke-width:1.5;"/><rect fill="none" height="159.1406" style="stroke:#000000;stroke-width:1.5;" width="1284" x="10" y="582.5391"/><text fill="#000000" font-family="sans-serif" font-size="13" font-weight="bold" lengthAdjust="spacing" textLength="16" x="25" y="595.3076">alt</text><text fill="#000000" font-family="sans-serif" font-size="11" font-weight="bold" lengthAdjust="spacing" textLength="148" x="86" y="594.4971">[in case of date is avaiable]</text><polygon fill="#181818" points="652,615.5859,662,619.5859,652,623.5859,656,619.5859" style="stroke:#181818;stroke-width:1.0;"/><line style="stroke:#181818;stroke-width:1.0;" x1="368" x2="658" y1="619.5859" y2="619.5859"/><text fill="#000000" font-family="sans-serif" font-size="13" font-weight="bold" lengthAdjust="spacing" textLength="14" x="375" y="614.8311">18</text><text fill="#000000" font-family="sans-serif" font-size="13" lengthAdjust="spacing" textLength="211" x="393" y="614.8311">AddVisit(name, emaial, phone, date)</text><polygon fill="#181818" points="1185.5,644.1094,1195.5,648.1094,1185.5,652.1094,1189.5,648.1094" style="stroke:#181818;stroke-width:1.0;"/><line style="stroke:#181818;stroke-width:1.0;" x1="674" x2="1191.5" y1="648.1094" y2="648.1094"/><text fill="#000000" font-family="sans-serif" font-size="13" font-weight="bold" lengthAdjust="spacing" textLength="14" x="681" y="643.3545">19</text><text fill="#000000" font-family="sans-serif" font-size="13" lengthAdjust="spacing" textLength="238" x="699" y="643.3545">AddVisitData(name, emaial, phone, date)</text><polygon fill="#181818" points="685,672.6328,675,676.6328,685,680.6328,681,676.6328" style="stroke:#181818;stroke-width:1.0;"/><line style="stroke:#181818;stroke-width:1.0;stroke-dasharray:2.0,2.0;" x1="679" x2="1201.5" y1="676.6328" y2="676.6328"/><text fill="#000000" font-family="sans-serif" font-size="13" font-weight="bold" lengthAdjust="spacing" textLength="14" x="691" y="671.8779">20</text><text fill="#000000" font-family="sans-serif" font-size="13" lengthAdjust="spacing" textLength="53" x="709" y="671.8779">VisitData</text><polygon fill="#181818" points="379,701.1563,369,705.1563,379,709.1563,375,705.1563" style="stroke:#181818;stroke-width:1.0;"/><line style="stroke:#181818;stroke-width:1.0;stroke-dasharray:2.0,2.0;" x1="373" x2="668" y1="705.1563" y2="705.1563"/><text fill="#000000" font-family="sans-serif" font-size="13" font-weight="bold" lengthAdjust="spacing" textLength="14" x="385" y="700.4014">21</text><text fill="#000000" font-family="sans-serif" font-size="13" lengthAdjust="spacing" textLength="53" x="403" y="700.4014">VisitData</text><polygon fill="#181818" points="57,729.6797,47,733.6797,57,737.6797,53,733.6797" style="stroke:#181818;stroke-width:1.0;"/><line style="stroke:#181818;stroke-width:1.0;stroke-dasharray:2.0,2.0;" x1="51" x2="357" y1="733.6797" y2="733.6797"/><text fill="#000000" font-family="sans-serif" font-size="13" font-weight="bold" lengthAdjust="spacing" textLength="14" x="63" y="728.9248">22</text><text fill="#000000" font-family="sans-serif" font-size="13" lengthAdjust="spacing" textLength="151" x="81" y="728.9248">displays sucess message</text><path d="M10,755.6797 L71,755.6797 L71,762.2031 L61,772.2031 L10,772.2031 L10,755.6797 " fill="#EEEEEE" style="stroke:#000000;stroke-width:1.5;"/><rect fill="none" height="159.1406" style="stroke:#000000;stroke-width:1.5;" width="1284" x="10" y="755.6797"/><text fill="#000000" font-family="sans-serif" font-size="13" font-weight="bold" lengthAdjust="spacing" textLength="16" x="25" y="768.4482">alt</text><text fill="#000000" font-family="sans-serif" font-size="11" font-weight="bold" lengthAdjust="spacing" textLength="196" x="86" y="767.6377">[else in case of date is not avaiable]</text><polygon fill="#181818" points="652,788.7266,662,792.7266,652,796.7266,656,792.7266" style="stroke:#181818;stroke-width:1.0;"/><line style="stroke:#181818;stroke-width:1.0;" x1="368" x2="658" y1="792.7266" y2="792.7266"/><text fill="#000000" font-family="sans-serif" font-size="13" font-weight="bold" lengthAdjust="spacing" textLength="14" x="375" y="787.9717">23</text><text fill="#000000" font-family="sans-serif" font-size="13" lengthAdjust="spacing" textLength="259" x="393" y="787.9717">AddVisitRequest(name, emaial, phone, date)</text><polygon fill="#181818" points="1185.5,817.25,1195.5,821.25,1185.5,825.25,1189.5,821.25" style="stroke:#181818;stroke-width:1.0;"/><line style="stroke:#181818;stroke-width:1.0;" x1="674" x2="1191.5" y1="821.25" y2="821.25"/><text fill="#000000" font-family="sans-serif" font-size="13" font-weight="bold" lengthAdjust="spacing" textLength="14" x="681" y="816.4951">24</text><text fill="#000000" font-family="sans-serif" font-size="13" lengthAdjust="spacing" textLength="286" x="699" y="816.4951">AddVisitRequestData(name, emaial, phone, date)</text><polygon fill="#181818" points="685,845.7734,675,849.7734,685,853.7734,681,849.7734" style="stroke:#181818;stroke-width:1.0;"/><line style="stroke:#181818;stroke-width:1.0;stroke-dasharray:2.0,2.0;" x1="679" x2="1201.5" y1="849.7734" y2="849.7734"/><text fill="#000000" font-family="sans-serif" font-size="13" font-weight="bold" lengthAdjust="spacing" textLength="14" x="691" y="845.0186">25</text><text fill="#000000" font-family="sans-serif" font-size="13" lengthAdjust="spacing" textLength="101" x="709" y="845.0186">VisitRequestData</text><polygon fill="#181818" points="379,874.2969,369,878.2969,379,882.2969,375,878.2969" style="stroke:#181818;stroke-width:1.0;"/><line style="stroke:#181818;stroke-width:1.0;stroke-dasharray:2.0,2.0;" x1="373" x2="668" y1="878.2969" y2="878.2969"/><text fill="#000000" font-family="sans-serif" font-size="13" font-weight="bold" lengthAdjust="spacing" textLength="14" x="385" y="873.542">26</text><text fill="#000000" font-family="sans-serif" font-size="13" lengthAdjust="spacing" textLength="101" x="403" y="873.542">VisitRequestData</text><polygon fill="#181818" points="52,902.8203,42,906.8203,52,910.8203,48,906.8203" style="stroke:#181818;stroke-width:1.0;"/><line style="stroke:#181818;stroke-width:1.0;stroke-dasharray:2.0,2.0;" x1="46" x2="362" y1="906.8203" y2="906.8203"/><text fill="#000000" font-family="sans-serif" font-size="13" font-weight="bold" lengthAdjust="spacing" textLength="14" x="58" y="902.0654">27</text><text fill="#000000" font-family="sans-serif" font-size="13" lengthAdjust="spacing" textLength="151" x="76" y="902.0654">displays sucess message</text><!--SRC=[nLPDRzim3BthLn2zD07QFv33WABhW00zfLZlZCmaGcp9a-Hi-VUZxJQL5Sbn0spDmK14wl7ZFL5oUwLhj5X1PRIHEsig0cyR4kvagL7kSKil_bWIM98UzROC7TmE2_DRwIrii7Ga13RUwAPQanNYTgSAWeqnVct-29JUMBXvB1LfVmFee77inJXUILMZzd2pE2Yd_8f-DUJypsNdDLmQyNyqsbjJbcJFzdsOelqhgWsx6Ql8TRl2XSWNjJQDbbHn_YUtOxShRHh9DTgVDecsP-g0dlfMjH-u_nPr11QCi7VW3JYvew9Xgh3t2G2YBaOG4UX7knXSMcA0ry0ycsU0WpQB31v72blC-5loI-rOMP8O-8Gx848CzZ16kk4zsaFI5c9dw18PrFlpf34NGnHqCKnSJ9hzlfZNf2qi9gUT36gYc4CkHb1BBigmbZ4TXPvHemPSvuKpbVHd5Mdq2hwpPM0KQ1BZkPgIXpaEa64XTzZQuyoutR1OGA5SNUBnh3qSHGvMXen4uo8_UXoLV2s4yBEmW7b-18qaRVl5x-WnHhicHt-iMPnleD2X5lovBhUtXWxWcBDYmDjrUKgZDyfMbwPiYo5kbp_ON7fG6YGw0hE1elLKV1iTKE6Qxsa1_Fl4g7yeYcxUp3HMT0TKCKvv1_NEQFxRmizxp4k2ZECEpt5stht7xoWQoI6RGdZcuXoc7l1J1Xt2vH4uLckAvKdu8xrCoj61QoGv1nL_-CKc9YPFkcZ5zFJyyjJBYVWLbzAKDZxGrHMQUbVr5qjh5OoMBrLOaCY_5Dh4CFzBRoDUFDOYQ_VeRHNw5m00]--></g></svg>
