<?xml version="1.0" encoding="us-ascii" standalone="no"?><svg xmlns="http://www.w3.org/2000/svg" xmlns:xlink="http://www.w3.org/1999/xlink" contentStyleType="text/css" height="596px" preserveAspectRatio="none" style="width:756px;height:596px;background:#FFFFFF;" version="1.1" viewBox="0 0 756 596" width="756px" zoomAndPan="magnify"><defs/><g><rect fill="#FFFFFF" height="400.7344" style="stroke:#181818;stroke-width:1.0;" width="10" x="36" y="90.6406"/><rect fill="#FFFFFF" height="128.5" style="stroke:#181818;stroke-width:1.0;" width="10" x="351" y="111.1641"/><rect fill="#FFFFFF" height="28.5234" style="stroke:#181818;stroke-width:1.0;" width="10" x="351" y="268.1875"/><rect fill="#FFFFFF" height="28.5234" style="stroke:#181818;stroke-width:1.0;" width="10" x="351" y="325.2344"/><rect fill="#FFFFFF" height="109.0938" style="stroke:#181818;stroke-width:1.0;" width="10" x="351" y="382.2813"/><rect fill="#FFFFFF" height="71.4531" style="stroke:#181818;stroke-width:1.0;" width="10" x="657" y="139.6875"/><rect fill="#FFFFFF" height="28.5234" style="stroke:#181818;stroke-width:1.0;" width="10" x="657" y="434.3281"/><rect fill="none" height="102.0938" style="stroke:#000000;stroke-width:1.5;" width="740.5" x="10" y="397.2813"/><line style="stroke:#181818;stroke-width:0.5;stroke-dasharray:5.0,5.0;" x1="41" x2="41" y1="80.6406" y2="516.375"/><line style="stroke:#181818;stroke-width:0.5;stroke-dasharray:5.0,5.0;" x1="355.5" x2="355.5" y1="80.6406" y2="516.375"/><line style="stroke:#181818;stroke-width:0.5;stroke-dasharray:5.0,5.0;" x1="661.5" x2="661.5" y1="80.6406" y2="516.375"/><text fill="#000000" font-family="sans-serif" font-size="14" lengthAdjust="spacing" textLength="36" x="20" y="77.6738">Client</text><ellipse cx="41" cy="13.5" fill="#E3E3E3" rx="8" ry="8" style="stroke:#181818;stroke-width:0.5;"/><path d="M41,21.5 L41,48.5 M28,29.5 L54,29.5 M41,48.5 L28,63.5 M41,48.5 L54,63.5 " fill="none" style="stroke:#181818;stroke-width:0.5;"/><text fill="#000000" font-family="sans-serif" font-size="14" lengthAdjust="spacing" textLength="36" x="20" y="528.0488">Client</text><ellipse cx="41" cy="539.5156" fill="#E3E3E3" rx="8" ry="8" style="stroke:#181818;stroke-width:0.5;"/><path d="M41,547.5156 L41,574.5156 M28,555.5156 L54,555.5156 M41,574.5156 L28,589.5156 M41,574.5156 L54,589.5156 " fill="none" style="stroke:#181818;stroke-width:0.5;"/><rect fill="#E3E3E3" height="29.6406" rx="2.5" ry="2.5" style="stroke:#181818;stroke-width:0.5;" width="107" x="302.5" y="50"/><text fill="#000000" font-family="sans-serif" font-size="14" lengthAdjust="spacing" textLength="93" x="309.5" y="69.6738">:visitRequestUI</text><rect fill="#E3E3E3" height="29.6406" rx="2.5" ry="2.5" style="stroke:#181818;stroke-width:0.5;" width="107" x="302.5" y="515.375"/><text fill="#000000" font-family="sans-serif" font-size="14" lengthAdjust="spacing" textLength="93" x="309.5" y="535.0488">:visitRequestUI</text><rect fill="#E3E3E3" height="29.6406" rx="2.5" ry="2.5" style="stroke:#181818;stroke-width:0.5;" width="157" x="583.5" y="50"/><text fill="#000000" font-family="sans-serif" font-size="14" lengthAdjust="spacing" textLength="143" x="590.5" y="69.6738">:visitRequestController</text><rect fill="#E3E3E3" height="29.6406" rx="2.5" ry="2.5" style="stroke:#181818;stroke-width:0.5;" width="157" x="583.5" y="515.375"/><text fill="#000000" font-family="sans-serif" font-size="14" lengthAdjust="spacing" textLength="143" x="590.5" y="535.0488">:visitRequestController</text><rect fill="#FFFFFF" height="400.7344" style="stroke:#181818;stroke-width:1.0;" width="10" x="36" y="90.6406"/><rect fill="#FFFFFF" height="128.5" style="stroke:#181818;stroke-width:1.0;" width="10" x="351" y="111.1641"/><rect fill="#FFFFFF" height="28.5234" style="stroke:#181818;stroke-width:1.0;" width="10" x="351" y="268.1875"/><rect fill="#FFFFFF" height="28.5234" style="stroke:#181818;stroke-width:1.0;" width="10" x="351" y="325.2344"/><rect fill="#FFFFFF" height="109.0938" style="stroke:#181818;stroke-width:1.0;" width="10" x="351" y="382.2813"/><rect fill="#FFFFFF" height="71.4531" style="stroke:#181818;stroke-width:1.0;" width="10" x="657" y="139.6875"/><rect fill="#FFFFFF" height="28.5234" style="stroke:#181818;stroke-width:1.0;" width="10" x="657" y="434.3281"/><polygon fill="#181818" points="339,107.1641,349,111.1641,339,115.1641,343,111.1641" style="stroke:#181818;stroke-width:1.0;"/><line style="stroke:#181818;stroke-width:1.0;" x1="46" x2="345" y1="111.1641" y2="111.1641"/><text fill="#000000" font-family="sans-serif" font-size="13" font-weight="bold" lengthAdjust="spacing" textLength="7" x="53" y="106.4092">1</text><text fill="#000000" font-family="sans-serif" font-size="13" lengthAdjust="spacing" textLength="136" x="64" y="106.4092">asks to schedule a visit</text><polygon fill="#181818" points="645,135.6875,655,139.6875,645,143.6875,649,139.6875" style="stroke:#181818;stroke-width:1.0;"/><line style="stroke:#181818;stroke-width:1.0;" x1="361" x2="651" y1="139.6875" y2="139.6875"/><text fill="#000000" font-family="sans-serif" font-size="13" font-weight="bold" lengthAdjust="spacing" textLength="7" x="368" y="134.9326">2</text><text fill="#000000" font-family="sans-serif" font-size="13" lengthAdjust="spacing" textLength="118" x="379" y="134.9326">createVisitRequest()</text><rect fill="none" height="37.9297" style="stroke:#000000;stroke-width:1.5;" width="163" x="580.5" y="147.6875"/><path d="M580.5,147.6875 L642.5,147.6875 L642.5,153.6875 L632.5,163.6875 L580.5,163.6875 L580.5,147.6875 " fill="#EEEEEE" style="stroke:#000000;stroke-width:2.0;"/><text fill="#000000" font-family="sans-serif" font-size="13" font-weight="bold" lengthAdjust="spacing" textLength="17" x="593.5" y="161.4561">ref</text><text fill="#000000" font-family="sans-serif" font-size="12" lengthAdjust="spacing" textLength="125" x="599.5" y="178.5508">Get announcementList</text><polygon fill="#181818" points="372,207.1406,362,211.1406,372,215.1406,368,211.1406" style="stroke:#181818;stroke-width:1.0;"/><line style="stroke:#181818;stroke-width:1.0;stroke-dasharray:2.0,2.0;" x1="366" x2="661" y1="211.1406" y2="211.1406"/><text fill="#000000" font-family="sans-serif" font-size="13" font-weight="bold" lengthAdjust="spacing" textLength="7" x="378" y="206.3857">3</text><text fill="#000000" font-family="sans-serif" font-size="13" lengthAdjust="spacing" textLength="106" x="389" y="206.3857">announcementList</text><polygon fill="#181818" points="57,235.6641,47,239.6641,57,243.6641,53,239.6641" style="stroke:#181818;stroke-width:1.0;"/><line style="stroke:#181818;stroke-width:1.0;stroke-dasharray:2.0,2.0;" x1="51" x2="355" y1="239.6641" y2="239.6641"/><text fill="#000000" font-family="sans-serif" font-size="13" font-weight="bold" lengthAdjust="spacing" textLength="7" x="63" y="234.9092">4</text><text fill="#000000" font-family="sans-serif" font-size="13" lengthAdjust="spacing" textLength="270" x="74" y="234.9092">displayAnnouncementList(anncouncementList)</text><polygon fill="#181818" points="339,264.1875,349,268.1875,339,272.1875,343,268.1875" style="stroke:#181818;stroke-width:1.0;"/><line style="stroke:#181818;stroke-width:1.0;" x1="46" x2="345" y1="268.1875" y2="268.1875"/><text fill="#000000" font-family="sans-serif" font-size="13" font-weight="bold" lengthAdjust="spacing" textLength="7" x="53" y="263.4326">5</text><text fill="#000000" font-family="sans-serif" font-size="13" lengthAdjust="spacing" textLength="215" x="64" y="263.4326">selectAnnouncement(announcement)</text><polygon fill="#181818" points="57,292.7109,47,296.7109,57,300.7109,53,296.7109" style="stroke:#181818;stroke-width:1.0;"/><line style="stroke:#181818;stroke-width:1.0;stroke-dasharray:2.0,2.0;" x1="51" x2="355" y1="296.7109" y2="296.7109"/><text fill="#000000" font-family="sans-serif" font-size="13" font-weight="bold" lengthAdjust="spacing" textLength="7" x="63" y="291.9561">6</text><text fill="#000000" font-family="sans-serif" font-size="13" lengthAdjust="spacing" textLength="163" x="74" y="291.9561">requestData(announcement)</text><polygon fill="#181818" points="339,321.2344,349,325.2344,339,329.2344,343,325.2344" style="stroke:#181818;stroke-width:1.0;"/><line style="stroke:#181818;stroke-width:1.0;" x1="46" x2="345" y1="325.2344" y2="325.2344"/><text fill="#000000" font-family="sans-serif" font-size="13" font-weight="bold" lengthAdjust="spacing" textLength="7" x="53" y="320.4795">7</text><text fill="#000000" font-family="sans-serif" font-size="13" lengthAdjust="spacing" textLength="143" x="64" y="320.4795">types request Data(data)</text><polygon fill="#181818" points="57,349.7578,47,353.7578,57,357.7578,53,353.7578" style="stroke:#181818;stroke-width:1.0;"/><line style="stroke:#181818;stroke-width:1.0;stroke-dasharray:2.0,2.0;" x1="51" x2="355" y1="353.7578" y2="353.7578"/><text fill="#000000" font-family="sans-serif" font-size="13" font-weight="bold" lengthAdjust="spacing" textLength="7" x="63" y="349.0029">8</text><text fill="#000000" font-family="sans-serif" font-size="13" lengthAdjust="spacing" textLength="233" x="74" y="349.0029">display request Data and announcement</text><polygon fill="#181818" points="339,378.2813,349,382.2813,339,386.2813,343,382.2813" style="stroke:#181818;stroke-width:1.0;"/><line style="stroke:#181818;stroke-width:1.0;" x1="46" x2="345" y1="382.2813" y2="382.2813"/><text fill="#000000" font-family="sans-serif" font-size="13" font-weight="bold" lengthAdjust="spacing" textLength="7" x="53" y="377.5264">9</text><text fill="#000000" font-family="sans-serif" font-size="13" lengthAdjust="spacing" textLength="98" x="64" y="377.5264">confirmRequest()</text><path d="M10,397.2813 L71,397.2813 L71,403.8047 L61,413.8047 L10,413.8047 L10,397.2813 " fill="#EEEEEE" style="stroke:#000000;stroke-width:1.5;"/><rect fill="none" height="102.0938" style="stroke:#000000;stroke-width:1.5;" width="740.5" x="10" y="397.2813"/><text fill="#000000" font-family="sans-serif" font-size="13" font-weight="bold" lengthAdjust="spacing" textLength="16" x="25" y="410.0498">alt</text><polygon fill="#181818" points="645,430.3281,655,434.3281,645,438.3281,649,434.3281" style="stroke:#181818;stroke-width:1.0;"/><line style="stroke:#181818;stroke-width:1.0;" x1="361" x2="651" y1="434.3281" y2="434.3281"/><text fill="#000000" font-family="sans-serif" font-size="13" font-weight="bold" lengthAdjust="spacing" textLength="14" x="368" y="429.5732">10</text><text fill="#000000" font-family="sans-serif" font-size="13" lengthAdjust="spacing" textLength="259" x="386" y="429.5732">AddVisitRequest(name, emaial, phone, date)</text><polygon fill="#181818" points="372,458.8516,362,462.8516,372,466.8516,368,462.8516" style="stroke:#181818;stroke-width:1.0;"/><line style="stroke:#181818;stroke-width:1.0;stroke-dasharray:2.0,2.0;" x1="366" x2="661" y1="462.8516" y2="462.8516"/><text fill="#000000" font-family="sans-serif" font-size="13" font-weight="bold" lengthAdjust="spacing" textLength="14" x="378" y="458.0967">11</text><text fill="#000000" font-family="sans-serif" font-size="13" lengthAdjust="spacing" textLength="101" x="396" y="458.0967">VisitRequestData</text><polygon fill="#181818" points="52,487.375,42,491.375,52,495.375,48,491.375" style="stroke:#181818;stroke-width:1.0;"/><line style="stroke:#181818;stroke-width:1.0;stroke-dasharray:2.0,2.0;" x1="46" x2="355" y1="491.375" y2="491.375"/><text fill="#000000" font-family="sans-serif" font-size="13" font-weight="bold" lengthAdjust="spacing" textLength="14" x="58" y="486.6201">12</text><text fill="#000000" font-family="sans-serif" font-size="13" lengthAdjust="spacing" textLength="151" x="76" y="486.6201">displays sucess message</text><!--SRC=[dPJFRjim3CRlUWeYboL0-m8v32XQe2ZGquhkpafCB4H_F95EcxSVxNIhhTO96Xy4MAH__FoH4kzyQh5WX9XJjat9aK1AHuR_HrgqEzpIanm2GI4hcBPXdC0DklpgqnOs69YCmKvowk8B5MD-DDuHR7AMb_ncq4ekiBWDdf8i01awrYpbYBU-nIImMEyzU_b5VpfYUNuOigPR9_9lSvAIGw3owRkFaEbr-3qA7Slt2rp_hAh0MWax1id0jY7NwU_ZCMS4g9HLY0hw8K7Xjf02Ve_2ozKCU2mTz2cqWRnNoamIl3_t980fvIvPYkhuesSPWfHS3p5cHjtrbsxK94TdrTP-A7TmUmtESnlmS5D1brh5JdRKb9b2wlTyxvY2pkeOlnp_m6g-XoT4b-Fc7GhMj4iqog4b_WU5WUfqkKpRkw4JdFRCJVfscKwRqyQNU6vCUmO6CTyv1JVEJOv0maXNG14zXYjecvpqLKsXrN7qpqrSd_ETeHuNxnqR0ES7koxpPIiOkBF4354NlK9FiTMxAZfSJNfGpLy0]--></g></svg>

