<?xml version="1.0" encoding="us-ascii" standalone="no"?><svg xmlns="http://www.w3.org/2000/svg" xmlns:xlink="http://www.w3.org/1999/xlink" contentStyleType="text/css" height="431px" preserveAspectRatio="none" style="width:444px;height:431px;background:#FFFFFF;" version="1.1" viewBox="0 0 444 431" width="444px" zoomAndPan="magnify"><defs/><g><text fill="#000000" font-family="sans-serif" font-size="14" font-weight="bold" lengthAdjust="spacing" textLength="228" x="107.25" y="30.1074">System Sequence Diagram (SSD)</text><rect fill="#FFFFFF" height="206.0371" style="stroke:#181818;stroke-width:1.0;" width="10" x="69.5" y="133.2422"/><rect fill="#FFFFFF" height="31.291" style="stroke:#181818;stroke-width:1.0;" width="10" x="401.5" y="156.5332"/><rect fill="#FFFFFF" height="31.291" style="stroke:#181818;stroke-width:1.0;" width="10" x="401.5" y="236.4063"/><rect fill="#FFFFFF" height="31.291" style="stroke:#181818;stroke-width:1.0;" width="10" x="401.5" y="298.9883"/><line style="stroke:#181818;stroke-width:0.5;stroke-dasharray:5.0,5.0;" x1="74" x2="74" y1="123.2422" y2="348.2793"/><line style="stroke:#181818;stroke-width:0.5;stroke-dasharray:5.0,5.0;" x1="406.5" x2="406.5" y1="123.2422" y2="348.2793"/><text fill="#000000" font-family="sans-serif" font-size="14" lengthAdjust="spacing" textLength="133" x="5" y="119.7285">System Administartor</text><ellipse cx="74.5" cy="53.1211" fill="#E3E3E3" rx="8" ry="8" style="stroke:#181818;stroke-width:0.5;"/><path d="M74.5,61.1211 L74.5,88.1211 M61.5,69.1211 L87.5,69.1211 M74.5,88.1211 L61.5,103.1211 M74.5,88.1211 L87.5,103.1211 " fill="none" style="stroke:#181818;stroke-width:0.5;"/><text fill="#000000" font-family="sans-serif" font-size="14" lengthAdjust="spacing" textLength="133" x="5" y="362.3867">System Administartor</text><ellipse cx="74.5" cy="374.4004" fill="#E3E3E3" rx="8" ry="8" style="stroke:#181818;stroke-width:0.5;"/><path d="M74.5,382.4004 L74.5,409.4004 M61.5,390.4004 L87.5,390.4004 M74.5,409.4004 L61.5,424.4004 M74.5,409.4004 L87.5,424.4004 " fill="none" style="stroke:#181818;stroke-width:0.5;"/><rect fill="#E3E3E3" height="32.6211" rx="2.5" ry="2.5" style="stroke:#181818;stroke-width:0.5;" width="64" x="374.5" y="89.6211"/><text fill="#000000" font-family="sans-serif" font-size="14" lengthAdjust="spacing" textLength="50" x="381.5" y="111.7285">:System</text><rect fill="#E3E3E3" height="32.6211" rx="2.5" ry="2.5" style="stroke:#181818;stroke-width:0.5;" width="64" x="374.5" y="347.2793"/><text fill="#000000" font-family="sans-serif" font-size="14" lengthAdjust="spacing" textLength="50" x="381.5" y="369.3867">:System</text><rect fill="#FFFFFF" height="206.0371" style="stroke:#181818;stroke-width:1.0;" width="10" x="69.5" y="133.2422"/><rect fill="#FFFFFF" height="31.291" style="stroke:#181818;stroke-width:1.0;" width="10" x="401.5" y="156.5332"/><rect fill="#FFFFFF" height="31.291" style="stroke:#181818;stroke-width:1.0;" width="10" x="401.5" y="236.4063"/><rect fill="#FFFFFF" height="31.291" style="stroke:#181818;stroke-width:1.0;" width="10" x="401.5" y="298.9883"/><polygon fill="#181818" points="389.5,152.5332,399.5,156.5332,389.5,160.5332,393.5,156.5332" style="stroke:#181818;stroke-width:1.0;"/><line style="stroke:#181818;stroke-width:1.0;" x1="79.5" x2="395.5" y1="156.5332" y2="156.5332"/><text fill="#000000" font-family="sans-serif" font-size="13" font-weight="bold" lengthAdjust="spacing" textLength="7" x="86.5" y="151.2705">1</text><text fill="#000000" font-family="sans-serif" font-size="13" lengthAdjust="spacing" textLength="134" x="97.5" y="151.2705">asks to register a store</text><polygon fill="#181818" points="90.5,183.8242,80.5,187.8242,90.5,191.8242,86.5,187.8242" style="stroke:#181818;stroke-width:1.0;"/><line style="stroke:#181818;stroke-width:1.0;stroke-dasharray:2.0,2.0;" x1="84.5" x2="405.5" y1="187.8242" y2="187.8242"/><text fill="#000000" font-family="sans-serif" font-size="13" font-weight="bold" lengthAdjust="spacing" textLength="7" x="96.5" y="182.5615">2</text><text fill="#000000" font-family="sans-serif" font-size="13" lengthAdjust="spacing" textLength="79" x="107.5" y="182.5615">requests data</text><polygon fill="#181818" points="389.5,232.4063,399.5,236.4063,389.5,240.4063,393.5,236.4063" style="stroke:#181818;stroke-width:1.0;"/><line style="stroke:#181818;stroke-width:1.0;" x1="79.5" x2="395.5" y1="236.4063" y2="236.4063"/><text fill="#000000" font-family="sans-serif" font-size="13" font-weight="bold" lengthAdjust="spacing" textLength="7" x="86.5" y="222.498">3</text><text fill="#000000" font-family="sans-serif" font-size="13" lengthAdjust="spacing" textLength="288" x="97.5" y="213.8525">types requested data (designation, phoneNumber,</text><text fill="#000000" font-family="sans-serif" font-size="13" lengthAdjust="spacing" textLength="250" x="101.5" y="231.1436">e-mail, vatNumber, address,branchNumber)</text><polygon fill="#181818" points="90.5,263.6973,80.5,267.6973,90.5,271.6973,86.5,267.6973" style="stroke:#181818;stroke-width:1.0;"/><line style="stroke:#181818;stroke-width:1.0;stroke-dasharray:2.0,2.0;" x1="84.5" x2="405.5" y1="267.6973" y2="267.6973"/><text fill="#000000" font-family="sans-serif" font-size="13" font-weight="bold" lengthAdjust="spacing" textLength="7" x="96.5" y="262.4346">4</text><text fill="#000000" font-family="sans-serif" font-size="13" lengthAdjust="spacing" textLength="282" x="107.5" y="262.4346">shows typed information and ask for confirmation</text><polygon fill="#181818" points="389.5,294.9883,399.5,298.9883,389.5,302.9883,393.5,298.9883" style="stroke:#181818;stroke-width:1.0;"/><line style="stroke:#181818;stroke-width:1.0;" x1="79.5" x2="395.5" y1="298.9883" y2="298.9883"/><text fill="#000000" font-family="sans-serif" font-size="13" font-weight="bold" lengthAdjust="spacing" textLength="7" x="86.5" y="293.7256">5</text><text fill="#000000" font-family="sans-serif" font-size="13" lengthAdjust="spacing" textLength="153" x="97.5" y="293.7256">confirms and submits data</text><polygon fill="#181818" points="90.5,326.2793,80.5,330.2793,90.5,334.2793,86.5,330.2793" style="stroke:#181818;stroke-width:1.0;"/><line style="stroke:#181818;stroke-width:1.0;stroke-dasharray:2.0,2.0;" x1="84.5" x2="405.5" y1="330.2793" y2="330.2793"/><text fill="#000000" font-family="sans-serif" font-size="13" font-weight="bold" lengthAdjust="spacing" textLength="7" x="96.5" y="325.0166">6</text><text fill="#000000" font-family="sans-serif" font-size="13" lengthAdjust="spacing" textLength="158" x="107.5" y="325.0166">displays operation success</text><!--SRC=[VP4zRiCm38LtduB8b0391J8KA92kNRnsOIJ65c9HgaWtyEsho3_944UJJ3r-V8-Mg-E82JtumC6qANW2JJrLihn4D5TigDQX8qXa5BdfdWNIeWqtnmrSi1EgAdMQfVKWIXvg-ks93S79ONENR-lwjAigx3Lmxy-KyjreIB2PEZwjT-n4CUNg1b3WoySk34HL7gZEk8Yii3cE-g8OhuNa_b3fqL91FlCN73vcNyVSTXNGa3CrUHebG90yaKh70fh9C9sf_P192_MO6Jcbg815nQArz1BnqeaEaMHca2qGs5eIrp2g2xo7s0QcxxAlFVmmqC6Zw_QG1ynLj3QHoFwSa4qxLdVLwpIFF2k1f0qtASOiEBw4v8iHGBRtnK6kW0bySTF3mbl9lPfzWaWXIt_sxdcBRt_5kdlh97Ou28H8QJGklJ5vEszy_WC0]--></g></svg>