<?xml version="1.0" encoding="us-ascii" standalone="no"?><svg xmlns="http://www.w3.org/2000/svg" xmlns:xlink="http://www.w3.org/1999/xlink" contentStyleType="text/css" height="911px" preserveAspectRatio="none" style="width:1577px;height:911px;background:#FFFFFF;" version="1.1" viewBox="0 0 1577 911" width="1577px" zoomAndPan="magnify"><defs/><g><rect fill="#FFFFFF" height="716.5762" style="stroke:#181818;stroke-width:1.0;" width="10" x="76" y="93.6211"/><rect fill="#FFFFFF" height="201.707" style="stroke:#181818;stroke-width:1.0;" width="10" x="563" y="116.9121"/><rect fill="#FFFFFF" height="31.291" style="stroke:#181818;stroke-width:1.0;" width="10" x="563" y="349.9102"/><rect fill="#FFFFFF" height="31.291" style="stroke:#181818;stroke-width:1.0;" width="10" x="563" y="412.4922"/><rect fill="#FFFFFF" height="31.291" style="stroke:#181818;stroke-width:1.0;" width="10" x="563" y="492.3652"/><rect fill="#FFFFFF" height="255.25" style="stroke:#181818;stroke-width:1.0;" width="10" x="563" y="554.9473"/><rect fill="#FFFFFF" height="95.5039" style="stroke:#181818;stroke-width:1.0;" width="10" x="1033" y="191.8242"/><rect fill="#FFFFFF" height="175.377" style="stroke:#181818;stroke-width:1.0;" width="10" x="1033" y="603.5293"/><rect fill="#FFFFFF" height="95.5039" style="stroke:#181818;stroke-width:1.0;" width="10" x="1503" y="652.1113"/><line style="stroke:#181818;stroke-width:0.5;stroke-dasharray:5.0,5.0;" x1="81" x2="81" y1="83.6211" y2="828.1973"/><line style="stroke:#181818;stroke-width:0.5;stroke-dasharray:5.0,5.0;" x1="567.5" x2="567.5" y1="83.6211" y2="828.1973"/><line style="stroke:#181818;stroke-width:0.5;stroke-dasharray:5.0,5.0;" x1="1037.5" x2="1037.5" y1="156.7227" y2="828.1973"/><line style="stroke:#181818;stroke-width:0.5;stroke-dasharray:5.0,5.0;" x1="1508" x2="1508" y1="83.6211" y2="828.1973"/><text fill="#000000" font-family="sans-serif" font-size="14" lengthAdjust="spacing" textLength="146" x="5" y="80.1074">Organization Employee</text><ellipse cx="81" cy="13.5" fill="#E3E3E3" rx="8" ry="8" style="stroke:#181818;stroke-width:0.5;"/><path d="M81,21.5 L81,48.5 M68,29.5 L94,29.5 M81,48.5 L68,63.5 M81,48.5 L94,63.5 " fill="none" style="stroke:#181818;stroke-width:0.5;"/><text fill="#000000" font-family="sans-serif" font-size="14" lengthAdjust="spacing" textLength="146" x="5" y="842.3047">Organization Employee</text><ellipse cx="81" cy="854.3184" fill="#E3E3E3" rx="8" ry="8" style="stroke:#181818;stroke-width:0.5;"/><path d="M81,862.3184 L81,889.3184 M68,870.3184 L94,870.3184 M81,889.3184 L68,904.3184 M81,889.3184 L94,904.3184 " fill="none" style="stroke:#181818;stroke-width:0.5;"/><rect fill="#E3E3E3" height="32.6211" rx="2.5" ry="2.5" style="stroke:#181818;stroke-width:0.5;" width="135" x="500.5" y="50"/><text fill="#000000" font-family="sans-serif" font-size="14" lengthAdjust="spacing" textLength="121" x="507.5" y="72.1074">:CreateEmployeeUI</text><rect fill="#E3E3E3" height="32.6211" rx="2.5" ry="2.5" style="stroke:#181818;stroke-width:0.5;" width="135" x="500.5" y="827.1973"/><text fill="#000000" font-family="sans-serif" font-size="14" lengthAdjust="spacing" textLength="121" x="507.5" y="849.3047">:CreateEmployeeUI</text><rect fill="#E3E3E3" height="32.6211" rx="2.5" ry="2.5" style="stroke:#181818;stroke-width:0.5;" width="185" x="945.5" y="827.1973"/><text fill="#000000" font-family="sans-serif" font-size="14" lengthAdjust="spacing" textLength="171" x="952.5" y="849.3047">:CreateEmployeeController</text><rect fill="#E3E3E3" height="51.2422" rx="2.5" ry="2.5" style="stroke:#181818;stroke-width:0.5;" width="120" x="1448" y="31.3789"/><text fill="#000000" font-family="sans-serif" font-size="14" lengthAdjust="spacing" textLength="100" x="1458" y="53.4863">storeRepository</text><text fill="#000000" font-family="sans-serif" font-size="14" lengthAdjust="spacing" textLength="106" x="1455" y="72.1074">:StoreRepository</text><rect fill="#E3E3E3" height="51.2422" rx="2.5" ry="2.5" style="stroke:#181818;stroke-width:0.5;" width="120" x="1448" y="827.1973"/><text fill="#000000" font-family="sans-serif" font-size="14" lengthAdjust="spacing" textLength="100" x="1458" y="849.3047">storeRepository</text><text fill="#000000" font-family="sans-serif" font-size="14" lengthAdjust="spacing" textLength="106" x="1455" y="867.9258">:StoreRepository</text><rect fill="#FFFFFF" height="716.5762" style="stroke:#181818;stroke-width:1.0;" width="10" x="76" y="93.6211"/><rect fill="#FFFFFF" height="201.707" style="stroke:#181818;stroke-width:1.0;" width="10" x="563" y="116.9121"/><rect fill="#FFFFFF" height="31.291" style="stroke:#181818;stroke-width:1.0;" width="10" x="563" y="349.9102"/><rect fill="#FFFFFF" height="31.291" style="stroke:#181818;stroke-width:1.0;" width="10" x="563" y="412.4922"/><rect fill="#FFFFFF" height="31.291" style="stroke:#181818;stroke-width:1.0;" width="10" x="563" y="492.3652"/><rect fill="#FFFFFF" height="255.25" style="stroke:#181818;stroke-width:1.0;" width="10" x="563" y="554.9473"/><rect fill="#FFFFFF" height="95.5039" style="stroke:#181818;stroke-width:1.0;" width="10" x="1033" y="191.8242"/><rect fill="#FFFFFF" height="175.377" style="stroke:#181818;stroke-width:1.0;" width="10" x="1033" y="603.5293"/><rect fill="#FFFFFF" height="95.5039" style="stroke:#181818;stroke-width:1.0;" width="10" x="1503" y="652.1113"/><polygon fill="#181818" points="551,112.9121,561,116.9121,551,120.9121,555,116.9121" style="stroke:#181818;stroke-width:1.0;"/><line style="stroke:#181818;stroke-width:1.0;" x1="86" x2="557" y1="116.9121" y2="116.9121"/><text fill="#000000" font-family="sans-serif" font-size="13" font-weight="bold" lengthAdjust="spacing" textLength="7" x="93" y="111.6494">1</text><text fill="#000000" font-family="sans-serif" font-size="13" lengthAdjust="spacing" textLength="154" x="104" y="111.6494">asks to create a employee</text><polygon fill="#181818" points="933.5,144.2031,943.5,148.2031,933.5,152.2031,937.5,148.2031" style="stroke:#181818;stroke-width:1.0;"/><line style="stroke:#181818;stroke-width:1.0;" x1="573" x2="939.5" y1="148.2031" y2="148.2031"/><text fill="#000000" font-family="sans-serif" font-size="13" font-weight="bold" lengthAdjust="spacing" textLength="7" x="580" y="142.9404">2</text><text fill="#000000" font-family="sans-serif" font-size="13" lengthAdjust="spacing" textLength="36" x="591" y="142.9404">create</text><rect fill="#E3E3E3" height="32.6211" rx="2.5" ry="2.5" style="stroke:#181818;stroke-width:0.5;" width="185" x="945.5" y="124.9121"/><text fill="#000000" font-family="sans-serif" font-size="14" lengthAdjust="spacing" textLength="171" x="952.5" y="147.0195">:CreateEmployeeController</text><polygon fill="#181818" points="1021,187.8242,1031,191.8242,1021,195.8242,1025,191.8242" style="stroke:#181818;stroke-width:1.0;"/><line style="stroke:#181818;stroke-width:1.0;" x1="573" x2="1027" y1="191.8242" y2="191.8242"/><text fill="#000000" font-family="sans-serif" font-size="13" font-weight="bold" lengthAdjust="spacing" textLength="7" x="580" y="186.5615">3</text><text fill="#000000" font-family="sans-serif" font-size="13" lengthAdjust="spacing" textLength="56" x="591" y="186.5615">getStores</text><rect fill="none" height="59.2129" style="stroke:#000000;stroke-width:1.5;" width="191" x="942.5" y="199.8242"/><path d="M942.5,199.8242 L1004.5,199.8242 L1004.5,208.8242 L994.5,218.8242 L942.5,218.8242 L942.5,199.8242 " fill="#EEEEEE" style="stroke:#000000;stroke-width:2.0;"/><text fill="#000000" font-family="sans-serif" font-size="13" font-weight="bold" lengthAdjust="spacing" textLength="17" x="955.5" y="215.8525">ref</text><text fill="#000000" font-family="sans-serif" font-size="12" lengthAdjust="spacing" textLength="89" x="993.5" y="235.7734">Get list of stores</text><text fill="#000000" font-family="sans-serif" font-size="12" lengthAdjust="spacing" textLength="3" x="1036.5" y="251.7344">&#160;</text><polygon fill="#181818" points="584,283.3281,574,287.3281,584,291.3281,580,287.3281" style="stroke:#181818;stroke-width:1.0;"/><line style="stroke:#181818;stroke-width:1.0;stroke-dasharray:2.0,2.0;" x1="578" x2="1037" y1="287.3281" y2="287.3281"/><text fill="#000000" font-family="sans-serif" font-size="13" font-weight="bold" lengthAdjust="spacing" textLength="7" x="590" y="282.0654">4</text><text fill="#000000" font-family="sans-serif" font-size="13" lengthAdjust="spacing" textLength="59" x="601" y="282.0654">StoresList</text><polygon fill="#181818" points="97,314.6191,87,318.6191,97,322.6191,93,318.6191" style="stroke:#181818;stroke-width:1.0;"/><line style="stroke:#181818;stroke-width:1.0;stroke-dasharray:2.0,2.0;" x1="91" x2="567" y1="318.6191" y2="318.6191"/><text fill="#000000" font-family="sans-serif" font-size="13" font-weight="bold" lengthAdjust="spacing" textLength="7" x="103" y="313.3564">5</text><text fill="#000000" font-family="sans-serif" font-size="13" lengthAdjust="spacing" textLength="238" x="114" y="313.3564">shows  stores list and asks to select one</text><polygon fill="#181818" points="551,345.9102,561,349.9102,551,353.9102,555,349.9102" style="stroke:#181818;stroke-width:1.0;"/><line style="stroke:#181818;stroke-width:1.0;" x1="86" x2="557" y1="349.9102" y2="349.9102"/><text fill="#000000" font-family="sans-serif" font-size="13" font-weight="bold" lengthAdjust="spacing" textLength="7" x="93" y="344.6475">6</text><text fill="#000000" font-family="sans-serif" font-size="13" lengthAdjust="spacing" textLength="93" x="104" y="344.6475">selects a stores</text><polygon fill="#181818" points="97,377.2012,87,381.2012,97,385.2012,93,381.2012" style="stroke:#181818;stroke-width:1.0;"/><line style="stroke:#181818;stroke-width:1.0;stroke-dasharray:2.0,2.0;" x1="91" x2="567" y1="381.2012" y2="381.2012"/><text fill="#000000" font-family="sans-serif" font-size="13" font-weight="bold" lengthAdjust="spacing" textLength="7" x="103" y="375.9385">7</text><text fill="#000000" font-family="sans-serif" font-size="13" lengthAdjust="spacing" textLength="240" x="114" y="375.9385">shows list of roles and asks to select one</text><polygon fill="#181818" points="551,408.4922,561,412.4922,551,416.4922,555,412.4922" style="stroke:#181818;stroke-width:1.0;"/><line style="stroke:#181818;stroke-width:1.0;" x1="86" x2="557" y1="412.4922" y2="412.4922"/><text fill="#000000" font-family="sans-serif" font-size="13" font-weight="bold" lengthAdjust="spacing" textLength="7" x="93" y="407.2295">8</text><text fill="#000000" font-family="sans-serif" font-size="13" lengthAdjust="spacing" textLength="74" x="104" y="407.2295">selects roles</text><polygon fill="#181818" points="97,439.7832,87,443.7832,97,447.7832,93,443.7832" style="stroke:#181818;stroke-width:1.0;"/><line style="stroke:#181818;stroke-width:1.0;stroke-dasharray:2.0,2.0;" x1="91" x2="567" y1="443.7832" y2="443.7832"/><text fill="#000000" font-family="sans-serif" font-size="13" font-weight="bold" lengthAdjust="spacing" textLength="7" x="103" y="438.5205">9</text><text fill="#000000" font-family="sans-serif" font-size="13" lengthAdjust="spacing" textLength="79" x="114" y="438.5205">requests data</text><polygon fill="#181818" points="551,488.3652,561,492.3652,551,496.3652,555,492.3652" style="stroke:#181818;stroke-width:1.0;"/><line style="stroke:#181818;stroke-width:1.0;" x1="86" x2="557" y1="492.3652" y2="492.3652"/><text fill="#000000" font-family="sans-serif" font-size="13" font-weight="bold" lengthAdjust="spacing" textLength="14" x="93" y="478.457">10</text><text fill="#000000" font-family="sans-serif" font-size="13" lengthAdjust="spacing" textLength="440" x="111" y="469.8115">types requested data (name,descriptions,tax number,address,email address</text><text fill="#000000" font-family="sans-serif" font-size="13" lengthAdjust="spacing" textLength="149" x="111" y="487.1025">,phone number,password)</text><polygon fill="#181818" points="97,519.6563,87,523.6563,97,527.6563,93,523.6563" style="stroke:#181818;stroke-width:1.0;"/><line style="stroke:#181818;stroke-width:1.0;stroke-dasharray:2.0,2.0;" x1="91" x2="567" y1="523.6563" y2="523.6563"/><text fill="#000000" font-family="sans-serif" font-size="13" font-weight="bold" lengthAdjust="spacing" textLength="14" x="103" y="518.3936">11</text><text fill="#000000" font-family="sans-serif" font-size="13" lengthAdjust="spacing" textLength="274" x="121" y="518.3936">shows selected store, roles and requested data</text><polygon fill="#181818" points="551,550.9473,561,554.9473,551,558.9473,555,554.9473" style="stroke:#181818;stroke-width:1.0;"/><line style="stroke:#181818;stroke-width:1.0;" x1="86" x2="557" y1="554.9473" y2="554.9473"/><text fill="#000000" font-family="sans-serif" font-size="13" font-weight="bold" lengthAdjust="spacing" textLength="14" x="93" y="549.6846">12</text><text fill="#000000" font-family="sans-serif" font-size="13" lengthAdjust="spacing" textLength="75" x="111" y="549.6846">submits data</text><polygon fill="#181818" points="1021,599.5293,1031,603.5293,1021,607.5293,1025,603.5293" style="stroke:#181818;stroke-width:1.0;"/><line style="stroke:#181818;stroke-width:1.0;" x1="573" x2="1027" y1="603.5293" y2="603.5293"/><text fill="#000000" font-family="sans-serif" font-size="13" font-weight="bold" lengthAdjust="spacing" textLength="14" x="580" y="589.6211">13</text><text fill="#000000" font-family="sans-serif" font-size="13" lengthAdjust="spacing" textLength="423" x="598" y="580.9756">createEMPLOYEE(name,descriptions,tax number,address,email address</text><text fill="#000000" font-family="sans-serif" font-size="13" lengthAdjust="spacing" textLength="214" x="598" y="598.2666">,phone number,password,store,roles)</text><polygon fill="#181818" points="1491,648.1113,1501,652.1113,1491,656.1113,1495,652.1113" style="stroke:#181818;stroke-width:1.0;"/><line style="stroke:#181818;stroke-width:1.0;" x1="1043" x2="1497" y1="652.1113" y2="652.1113"/><text fill="#000000" font-family="sans-serif" font-size="13" font-weight="bold" lengthAdjust="spacing" textLength="14" x="1050" y="638.2031">14</text><text fill="#000000" font-family="sans-serif" font-size="13" lengthAdjust="spacing" textLength="423" x="1068" y="629.5576">createEMPLOYEE(name,descriptions,tax number,address,email address</text><text fill="#000000" font-family="sans-serif" font-size="13" lengthAdjust="spacing" textLength="214" x="1068" y="646.8486">,phone number,password,store,roles)</text><rect fill="none" height="59.2129" style="stroke:#000000;stroke-width:1.5;" width="126" x="1445" y="660.1113"/><path d="M1445,660.1113 L1507,660.1113 L1507,669.1113 L1497,679.1113 L1445,679.1113 L1445,660.1113 " fill="#EEEEEE" style="stroke:#000000;stroke-width:2.0;"/><text fill="#000000" font-family="sans-serif" font-size="13" font-weight="bold" lengthAdjust="spacing" textLength="17" x="1458" y="676.1396">ref</text><text fill="#000000" font-family="sans-serif" font-size="12" lengthAdjust="spacing" textLength="95" x="1460.5" y="696.0605">Create Employee</text><text fill="#000000" font-family="sans-serif" font-size="12" lengthAdjust="spacing" textLength="3" x="1506.5" y="712.0215">&#160;</text><polygon fill="#181818" points="1054,743.6152,1044,747.6152,1054,751.6152,1050,747.6152" style="stroke:#181818;stroke-width:1.0;"/><line style="stroke:#181818;stroke-width:1.0;stroke-dasharray:2.0,2.0;" x1="1048" x2="1507" y1="747.6152" y2="747.6152"/><text fill="#000000" font-family="sans-serif" font-size="13" font-weight="bold" lengthAdjust="spacing" textLength="14" x="1060" y="742.3525">15</text><text fill="#000000" font-family="sans-serif" font-size="13" lengthAdjust="spacing" textLength="58" x="1078" y="742.3525">Employee</text><polygon fill="#181818" points="584,774.9063,574,778.9063,584,782.9063,580,778.9063" style="stroke:#181818;stroke-width:1.0;"/><line style="stroke:#181818;stroke-width:1.0;stroke-dasharray:2.0,2.0;" x1="578" x2="1037" y1="778.9063" y2="778.9063"/><text fill="#000000" font-family="sans-serif" font-size="13" font-weight="bold" lengthAdjust="spacing" textLength="14" x="590" y="773.6436">16</text><text fill="#000000" font-family="sans-serif" font-size="13" lengthAdjust="spacing" textLength="58" x="608" y="773.6436">Employee</text><polygon fill="#181818" points="92,806.1973,82,810.1973,92,814.1973,88,810.1973" style="stroke:#181818;stroke-width:1.0;"/><line style="stroke:#181818;stroke-width:1.0;stroke-dasharray:2.0,2.0;" x1="86" x2="567" y1="810.1973" y2="810.1973"/><text fill="#000000" font-family="sans-serif" font-size="13" font-weight="bold" lengthAdjust="spacing" textLength="14" x="98" y="804.9346">17</text><text fill="#000000" font-family="sans-serif" font-size="13" lengthAdjust="spacing" textLength="158" x="116" y="804.9346">displays operation success</text><!--SRC=[lLN1Rjim3BthAuXSjXRk3-HGOCY2ea2A3Ebw6D0BOpE945loHBbfzlMZ9SUn4xj0WM4ysT9xrECpHVDUcn8T5b1OOzETimM1TnKfRdTAJFUufMT_p0aSfHxDDky2U8UPFMYpXGtcJ4fXvQsfYZKvfRxiT4QmiTQlxRl2r5i7awNRej5_q6jhO5wKkJqIJG0Pldr_KfBLwrINQ3nCfZD7wEa4UdaCi9V73r4pQxopUKuke6S_Lui-daK6hQYqhENf-6gcp_sLm5kk7bGjMRz9xY1DWOGymDszQ82feFOCta8QpWS4QYH4Q4iMmM6X3Y4AlHPrUoif8dLWL_Qsv8CmFhCTRS2-aOjLGISUo4EksOFT05-mo6GryxpGAWjfUdd2sNUd2kFv2ydRWZ8QOTVQXLSRD9Msi0U6HaaKXgBYv1XJBhq4riJIEpd5gqkR8vZ5tsvXL-uEd7yoHDf1L8m8K9-G419TszZzm5TI7FskY8MSeSSX6vlpBi_qnr94DspA0Xs-6YmeoOXJfylw1d7YyHtYXKimoyGVJgX0dKFpzcgISYU5da0bCX-iosu-hcF0pkY2I0dV8UdOsbVvYIAvMXUwvysrcDwbY1Tc_lHZiVmrd_z3Ev9OLAZfHetUadW_xklny5_5zA9L5eOK34KxAMe8Z4MSdEqK7iabysDaHvA7Bca-Jfld2jZfX4j1dOapck5owFHtpwqwXKnpcUEHmPRauZ-6gpGLhzLGJtRUwX7_5m00]--></g></svg>
