<?xml version="1.0" encoding="us-ascii" standalone="no"?><svg xmlns="http://www.w3.org/2000/svg" xmlns:xlink="http://www.w3.org/1999/xlink" contentStyleType="text/css" height="1276px" preserveAspectRatio="none" style="width:1989px;height:1276px;background:#FFFFFF;" version="1.1" viewBox="0 0 1989 1276" width="1989px" zoomAndPan="magnify"><defs/><g><rect fill="#FFFFFF" height="1081.8848" style="stroke:#181818;stroke-width:1.0;" width="10" x="76" y="93.6211"/><rect fill="#FFFFFF" height="358.5313" style="stroke:#181818;stroke-width:1.0;" width="10" x="563" y="116.9121"/><rect fill="#FFFFFF" height="31.291" style="stroke:#181818;stroke-width:1.0;" width="10" x="563" y="506.7344"/><rect fill="#FFFFFF" height="31.291" style="stroke:#181818;stroke-width:1.0;" width="10" x="563" y="569.3164"/><rect fill="#FFFFFF" height="31.291" style="stroke:#181818;stroke-width:1.0;" width="10" x="563" y="649.1895"/><rect fill="#FFFFFF" height="463.7344" style="stroke:#181818;stroke-width:1.0;" width="10" x="563" y="711.7715"/><rect fill="#FFFFFF" height="350.5313" style="stroke:#181818;stroke-width:1.0;" width="10" x="1033" y="93.6211"/><rect fill="#FFFFFF" height="383.8613" style="stroke:#181818;stroke-width:1.0;" width="10" x="1033" y="760.3535"/><rect fill="#FFFFFF" height="31.291" style="stroke:#181818;stroke-width:1.0;" width="10" x="1184" y="249.4063"/><rect fill="#FFFFFF" height="31.291" style="stroke:#181818;stroke-width:1.0;" width="10" x="1291" y="311.9883"/><rect fill="#FFFFFF" height="31.291" style="stroke:#181818;stroke-width:1.0;" width="10" x="1503" y="374.5703"/><rect fill="#FFFFFF" height="303.9883" style="stroke:#181818;stroke-width:1.0;" width="10" x="1503" y="808.9355"/><rect fill="#FFFFFF" height="130.873" style="stroke:#181818;stroke-width:1.0;" width="10" x="1508" y="936.7598"/><rect fill="#FFFFFF" height="42.291" style="stroke:#181818;stroke-width:1.0;" width="10" x="1513" y="981.0508"/><rect fill="none" height="207.0371" style="stroke:#000000;stroke-width:1.5;" width="695.5" x="935.5" y="206.8242"/><rect fill="none" height="258.6973" style="stroke:#000000;stroke-width:1.5;" width="598" x="1385" y="823.9355"/><line style="stroke:#181818;stroke-width:0.5;stroke-dasharray:5.0,5.0;" x1="81" x2="81" y1="83.6211" y2="1193.5059"/><line style="stroke:#181818;stroke-width:0.5;stroke-dasharray:5.0,5.0;" x1="567.5" x2="567.5" y1="83.6211" y2="1193.5059"/><line style="stroke:#181818;stroke-width:0.5;stroke-dasharray:5.0,5.0;" x1="1037.5" x2="1037.5" y1="156.7227" y2="1193.5059"/><line style="stroke:#181818;stroke-width:0.5;stroke-dasharray:5.0,5.0;" x1="1188.5" x2="1188.5" y1="83.6211" y2="1193.5059"/><line style="stroke:#181818;stroke-width:0.5;stroke-dasharray:5.0,5.0;" x1="1295.5" x2="1295.5" y1="83.6211" y2="1193.5059"/><line style="stroke:#181818;stroke-width:0.5;stroke-dasharray:5.0,5.0;" x1="1508" x2="1508" y1="83.6211" y2="1193.5059"/><line style="stroke:#181818;stroke-width:0.5;stroke-dasharray:5.0,5.0;" x1="1933" x2="1933" y1="884.3477" y2="1193.5059"/><text fill="#000000" font-family="sans-serif" font-size="14" lengthAdjust="spacing" textLength="146" x="5" y="80.1074">Organization Employee</text><ellipse cx="81" cy="13.5" fill="#E3E3E3" rx="8" ry="8" style="stroke:#181818;stroke-width:0.5;"/><path d="M81,21.5 L81,48.5 M68,29.5 L94,29.5 M81,48.5 L68,63.5 M81,48.5 L94,63.5 " fill="none" style="stroke:#181818;stroke-width:0.5;"/><text fill="#000000" font-family="sans-serif" font-size="14" lengthAdjust="spacing" textLength="146" x="5" y="1207.6133">Organization Employee</text><ellipse cx="81" cy="1219.627" fill="#E3E3E3" rx="8" ry="8" style="stroke:#181818;stroke-width:0.5;"/><path d="M81,1227.627 L81,1254.627 M68,1235.627 L94,1235.627 M81,1254.627 L68,1269.627 M81,1254.627 L94,1269.627 " fill="none" style="stroke:#181818;stroke-width:0.5;"/><rect fill="#E3E3E3" height="32.6211" rx="2.5" ry="2.5" style="stroke:#181818;stroke-width:0.5;" width="135" x="500.5" y="50"/><text fill="#000000" font-family="sans-serif" font-size="14" lengthAdjust="spacing" textLength="121" x="507.5" y="72.1074">:CreateEmployeeUI</text><rect fill="#E3E3E3" height="32.6211" rx="2.5" ry="2.5" style="stroke:#181818;stroke-width:0.5;" width="135" x="500.5" y="1192.5059"/><text fill="#000000" font-family="sans-serif" font-size="14" lengthAdjust="spacing" textLength="121" x="507.5" y="1214.6133">:CreateEmployeeUI</text><rect fill="#E3E3E3" height="32.6211" rx="2.5" ry="2.5" style="stroke:#181818;stroke-width:0.5;" width="185" x="945.5" y="1192.5059"/><text fill="#000000" font-family="sans-serif" font-size="14" lengthAdjust="spacing" textLength="171" x="952.5" y="1214.6133">:CreateEmployeeController</text><rect fill="#E3E3E3" height="32.6211" rx="2.5" ry="2.5" style="stroke:#181818;stroke-width:0.5;" width="97" x="1140.5" y="50"/><text fill="#000000" font-family="sans-serif" font-size="14" lengthAdjust="spacing" textLength="83" x="1147.5" y="72.1074">:Repositories</text><rect fill="#E3E3E3" height="32.6211" rx="2.5" ry="2.5" style="stroke:#181818;stroke-width:0.5;" width="97" x="1140.5" y="1192.5059"/><text fill="#000000" font-family="sans-serif" font-size="14" lengthAdjust="spacing" textLength="83" x="1147.5" y="1214.6133">:Repositories</text><rect fill="#E3E3E3" height="51.2422" rx="2.5" ry="2.5" style="stroke:#181818;stroke-width:0.5;" width="97" x="1247.5" y="31.3789"/><text fill="#000000" font-family="sans-serif" font-size="14" lengthAdjust="spacing" textLength="74" x="1259" y="53.4863">repositories</text><text fill="#000000" font-family="sans-serif" font-size="14" lengthAdjust="spacing" textLength="83" x="1254.5" y="72.1074">:Repositories</text><rect fill="#E3E3E3" height="51.2422" rx="2.5" ry="2.5" style="stroke:#181818;stroke-width:0.5;" width="97" x="1247.5" y="1192.5059"/><text fill="#000000" font-family="sans-serif" font-size="14" lengthAdjust="spacing" textLength="74" x="1259" y="1214.6133">repositories</text><text fill="#000000" font-family="sans-serif" font-size="14" lengthAdjust="spacing" textLength="83" x="1254.5" y="1233.2344">:Repositories</text><rect fill="#E3E3E3" height="32.6211" rx="2.5" ry="2.5" style="stroke:#181818;stroke-width:0.5;" width="226" x="1395" y="50"/><text fill="#000000" font-family="sans-serif" font-size="14" lengthAdjust="spacing" textLength="212" x="1402" y="72.1074">StoreRepository:\StoreRepository</text><rect fill="#E3E3E3" height="32.6211" rx="2.5" ry="2.5" style="stroke:#181818;stroke-width:0.5;" width="226" x="1395" y="1192.5059"/><text fill="#000000" font-family="sans-serif" font-size="14" lengthAdjust="spacing" textLength="212" x="1402" y="1214.6133">StoreRepository:\StoreRepository</text><rect fill="#E3E3E3" height="51.2422" rx="2.5" ry="2.5" style="stroke:#181818;stroke-width:0.5;" width="80" x="1893" y="1192.5059"/><text fill="#000000" font-family="sans-serif" font-size="14" lengthAdjust="spacing" textLength="62" x="1902" y="1214.6133">Employee</text><text fill="#000000" font-family="sans-serif" font-size="14" lengthAdjust="spacing" textLength="66" x="1900" y="1233.2344">:Employee</text><rect fill="#FFFFFF" height="1081.8848" style="stroke:#181818;stroke-width:1.0;" width="10" x="76" y="93.6211"/><rect fill="#FFFFFF" height="358.5313" style="stroke:#181818;stroke-width:1.0;" width="10" x="563" y="116.9121"/><rect fill="#FFFFFF" height="31.291" style="stroke:#181818;stroke-width:1.0;" width="10" x="563" y="506.7344"/><rect fill="#FFFFFF" height="31.291" style="stroke:#181818;stroke-width:1.0;" width="10" x="563" y="569.3164"/><rect fill="#FFFFFF" height="31.291" style="stroke:#181818;stroke-width:1.0;" width="10" x="563" y="649.1895"/><rect fill="#FFFFFF" height="463.7344" style="stroke:#181818;stroke-width:1.0;" width="10" x="563" y="711.7715"/><rect fill="#FFFFFF" height="350.5313" style="stroke:#181818;stroke-width:1.0;" width="10" x="1033" y="93.6211"/><rect fill="#FFFFFF" height="383.8613" style="stroke:#181818;stroke-width:1.0;" width="10" x="1033" y="760.3535"/><rect fill="#FFFFFF" height="31.291" style="stroke:#181818;stroke-width:1.0;" width="10" x="1184" y="249.4063"/><rect fill="#FFFFFF" height="31.291" style="stroke:#181818;stroke-width:1.0;" width="10" x="1291" y="311.9883"/><rect fill="#FFFFFF" height="31.291" style="stroke:#181818;stroke-width:1.0;" width="10" x="1503" y="374.5703"/><rect fill="#FFFFFF" height="303.9883" style="stroke:#181818;stroke-width:1.0;" width="10" x="1503" y="808.9355"/><rect fill="#FFFFFF" height="130.873" style="stroke:#181818;stroke-width:1.0;" width="10" x="1508" y="936.7598"/><rect fill="#FFFFFF" height="42.291" style="stroke:#181818;stroke-width:1.0;" width="10" x="1513" y="981.0508"/><polygon fill="#181818" points="551,112.9121,561,116.9121,551,120.9121,555,116.9121" style="stroke:#181818;stroke-width:1.0;"/><line style="stroke:#181818;stroke-width:1.0;" x1="86" x2="557" y1="116.9121" y2="116.9121"/><text fill="#000000" font-family="sans-serif" font-size="13" font-weight="bold" lengthAdjust="spacing" textLength="7" x="93" y="111.6494">1</text><text fill="#000000" font-family="sans-serif" font-size="13" lengthAdjust="spacing" textLength="154" x="104" y="111.6494">asks to create a employee</text><polygon fill="#181818" points="928.5,144.2031,938.5,148.2031,928.5,152.2031,932.5,148.2031" style="stroke:#181818;stroke-width:1.0;"/><line style="stroke:#181818;stroke-width:1.0;" x1="573" x2="934.5" y1="148.2031" y2="148.2031"/><text fill="#000000" font-family="sans-serif" font-size="13" font-weight="bold" lengthAdjust="spacing" textLength="7" x="580" y="142.9404">2</text><text fill="#000000" font-family="sans-serif" font-size="13" lengthAdjust="spacing" textLength="36" x="591" y="142.9404">create</text><rect fill="#E3E3E3" height="32.6211" rx="2.5" ry="2.5" style="stroke:#181818;stroke-width:0.5;" width="185" x="945.5" y="124.9121"/><text fill="#000000" font-family="sans-serif" font-size="14" lengthAdjust="spacing" textLength="171" x="952.5" y="147.0195">:CreateEmployeeController</text><polygon fill="#181818" points="1021,187.8242,1031,191.8242,1021,195.8242,1025,191.8242" style="stroke:#181818;stroke-width:1.0;"/><line style="stroke:#181818;stroke-width:1.0;" x1="573" x2="1027" y1="191.8242" y2="191.8242"/><text fill="#000000" font-family="sans-serif" font-size="13" font-weight="bold" lengthAdjust="spacing" textLength="7" x="580" y="186.5615">3</text><text fill="#000000" font-family="sans-serif" font-size="13" lengthAdjust="spacing" textLength="56" x="591" y="186.5615">getStores</text><path d="M935.5,206.8242 L1122.5,206.8242 L1122.5,216.1152 L1112.5,226.1152 L935.5,226.1152 L935.5,206.8242 " fill="#EEEEEE" style="stroke:#000000;stroke-width:1.5;"/><rect fill="none" height="207.0371" style="stroke:#000000;stroke-width:1.5;" width="695.5" x="935.5" y="206.8242"/><text fill="#000000" font-family="sans-serif" font-size="13" font-weight="bold" lengthAdjust="spacing" textLength="142" x="950.5" y="221.8525">Get Task Category List</text><polygon fill="#181818" points="1172,245.4063,1182,249.4063,1172,253.4063,1176,249.4063" style="stroke:#181818;stroke-width:1.0;"/><line style="stroke:#181818;stroke-width:1.0;" x1="1043" x2="1178" y1="249.4063" y2="249.4063"/><text fill="#000000" font-family="sans-serif" font-size="13" font-weight="bold" lengthAdjust="spacing" textLength="7" x="1050" y="244.1436">4</text><text fill="#000000" font-family="sans-serif" font-size="13" lengthAdjust="spacing" textLength="75" x="1061" y="244.1436">getInstance()</text><polygon fill="#181818" points="1054,276.6973,1044,280.6973,1054,284.6973,1050,280.6973" style="stroke:#181818;stroke-width:1.0;"/><line style="stroke:#181818;stroke-width:1.0;stroke-dasharray:2.0,2.0;" x1="1048" x2="1188" y1="280.6973" y2="280.6973"/><text fill="#000000" font-family="sans-serif" font-size="13" font-weight="bold" lengthAdjust="spacing" textLength="7" x="1060" y="275.4346">5</text><text fill="#000000" font-family="sans-serif" font-size="13" lengthAdjust="spacing" textLength="67" x="1071" y="275.4346">repositories</text><polygon fill="#181818" points="1279,307.9883,1289,311.9883,1279,315.9883,1283,311.9883" style="stroke:#181818;stroke-width:1.0;"/><line style="stroke:#181818;stroke-width:1.0;" x1="1043" x2="1285" y1="311.9883" y2="311.9883"/><text fill="#000000" font-family="sans-serif" font-size="13" font-weight="bold" lengthAdjust="spacing" textLength="7" x="1050" y="306.7256">6</text><text fill="#000000" font-family="sans-serif" font-size="13" lengthAdjust="spacing" textLength="119" x="1061" y="306.7256">getStoreRepository()</text><polygon fill="#181818" points="1054,339.2793,1044,343.2793,1054,347.2793,1050,343.2793" style="stroke:#181818;stroke-width:1.0;"/><line style="stroke:#181818;stroke-width:1.0;stroke-dasharray:2.0,2.0;" x1="1048" x2="1295" y1="343.2793" y2="343.2793"/><text fill="#000000" font-family="sans-serif" font-size="13" font-weight="bold" lengthAdjust="spacing" textLength="7" x="1060" y="338.0166">7</text><text fill="#000000" font-family="sans-serif" font-size="13" lengthAdjust="spacing" textLength="93" x="1071" y="338.0166">StoreRepository</text><polygon fill="#181818" points="1491,370.5703,1501,374.5703,1491,378.5703,1495,374.5703" style="stroke:#181818;stroke-width:1.0;"/><line style="stroke:#181818;stroke-width:1.0;" x1="1043" x2="1497" y1="374.5703" y2="374.5703"/><text fill="#000000" font-family="sans-serif" font-size="13" font-weight="bold" lengthAdjust="spacing" textLength="7" x="1050" y="369.3076">8</text><text fill="#000000" font-family="sans-serif" font-size="13" lengthAdjust="spacing" textLength="78" x="1061" y="369.3076">getStoreList()</text><polygon fill="#181818" points="1054,401.8613,1044,405.8613,1054,409.8613,1050,405.8613" style="stroke:#181818;stroke-width:1.0;"/><line style="stroke:#181818;stroke-width:1.0;stroke-dasharray:2.0,2.0;" x1="1048" x2="1507" y1="405.8613" y2="405.8613"/><text fill="#000000" font-family="sans-serif" font-size="13" font-weight="bold" lengthAdjust="spacing" textLength="7" x="1060" y="400.5986">9</text><text fill="#000000" font-family="sans-serif" font-size="13" lengthAdjust="spacing" textLength="52" x="1071" y="400.5986">StoreList</text><polygon fill="#181818" points="584,440.1523,574,444.1523,584,448.1523,580,444.1523" style="stroke:#181818;stroke-width:1.0;"/><line style="stroke:#181818;stroke-width:1.0;stroke-dasharray:2.0,2.0;" x1="578" x2="1037" y1="444.1523" y2="444.1523"/><text fill="#000000" font-family="sans-serif" font-size="13" font-weight="bold" lengthAdjust="spacing" textLength="14" x="590" y="438.8896">10</text><text fill="#000000" font-family="sans-serif" font-size="13" lengthAdjust="spacing" textLength="59" x="608" y="438.8896">StoresList</text><polygon fill="#181818" points="97,471.4434,87,475.4434,97,479.4434,93,475.4434" style="stroke:#181818;stroke-width:1.0;"/><line style="stroke:#181818;stroke-width:1.0;stroke-dasharray:2.0,2.0;" x1="91" x2="567" y1="475.4434" y2="475.4434"/><text fill="#000000" font-family="sans-serif" font-size="13" font-weight="bold" lengthAdjust="spacing" textLength="14" x="103" y="470.1807">11</text><text fill="#000000" font-family="sans-serif" font-size="13" lengthAdjust="spacing" textLength="238" x="121" y="470.1807">shows  stores list and asks to select one</text><polygon fill="#181818" points="551,502.7344,561,506.7344,551,510.7344,555,506.7344" style="stroke:#181818;stroke-width:1.0;"/><line style="stroke:#181818;stroke-width:1.0;" x1="86" x2="557" y1="506.7344" y2="506.7344"/><text fill="#000000" font-family="sans-serif" font-size="13" font-weight="bold" lengthAdjust="spacing" textLength="14" x="93" y="501.4717">12</text><text fill="#000000" font-family="sans-serif" font-size="13" lengthAdjust="spacing" textLength="93" x="111" y="501.4717">selects a stores</text><polygon fill="#181818" points="97,534.0254,87,538.0254,97,542.0254,93,538.0254" style="stroke:#181818;stroke-width:1.0;"/><line style="stroke:#181818;stroke-width:1.0;stroke-dasharray:2.0,2.0;" x1="91" x2="567" y1="538.0254" y2="538.0254"/><text fill="#000000" font-family="sans-serif" font-size="13" font-weight="bold" lengthAdjust="spacing" textLength="14" x="103" y="532.7627">13</text><text fill="#000000" font-family="sans-serif" font-size="13" lengthAdjust="spacing" textLength="240" x="121" y="532.7627">shows list of roles and asks to select one</text><polygon fill="#181818" points="551,565.3164,561,569.3164,551,573.3164,555,569.3164" style="stroke:#181818;stroke-width:1.0;"/><line style="stroke:#181818;stroke-width:1.0;" x1="86" x2="557" y1="569.3164" y2="569.3164"/><text fill="#000000" font-family="sans-serif" font-size="13" font-weight="bold" lengthAdjust="spacing" textLength="14" x="93" y="564.0537">14</text><text fill="#000000" font-family="sans-serif" font-size="13" lengthAdjust="spacing" textLength="74" x="111" y="564.0537">selects roles</text><polygon fill="#181818" points="97,596.6074,87,600.6074,97,604.6074,93,600.6074" style="stroke:#181818;stroke-width:1.0;"/><line style="stroke:#181818;stroke-width:1.0;stroke-dasharray:2.0,2.0;" x1="91" x2="567" y1="600.6074" y2="600.6074"/><text fill="#000000" font-family="sans-serif" font-size="13" font-weight="bold" lengthAdjust="spacing" textLength="14" x="103" y="595.3447">15</text><text fill="#000000" font-family="sans-serif" font-size="13" lengthAdjust="spacing" textLength="79" x="121" y="595.3447">requests data</text><polygon fill="#181818" points="551,645.1895,561,649.1895,551,653.1895,555,649.1895" style="stroke:#181818;stroke-width:1.0;"/><line style="stroke:#181818;stroke-width:1.0;" x1="86" x2="557" y1="649.1895" y2="649.1895"/><text fill="#000000" font-family="sans-serif" font-size="13" font-weight="bold" lengthAdjust="spacing" textLength="14" x="93" y="635.2813">16</text><text fill="#000000" font-family="sans-serif" font-size="13" lengthAdjust="spacing" textLength="440" x="111" y="626.6357">types requested data (name,descriptions,tax number,address,email address</text><text fill="#000000" font-family="sans-serif" font-size="13" lengthAdjust="spacing" textLength="149" x="111" y="643.9268">,phone number,password)</text><polygon fill="#181818" points="97,676.4805,87,680.4805,97,684.4805,93,680.4805" style="stroke:#181818;stroke-width:1.0;"/><line style="stroke:#181818;stroke-width:1.0;stroke-dasharray:2.0,2.0;" x1="91" x2="567" y1="680.4805" y2="680.4805"/><text fill="#000000" font-family="sans-serif" font-size="13" font-weight="bold" lengthAdjust="spacing" textLength="14" x="103" y="675.2178">17</text><text fill="#000000" font-family="sans-serif" font-size="13" lengthAdjust="spacing" textLength="274" x="121" y="675.2178">shows selected store, roles and requested data</text><polygon fill="#181818" points="551,707.7715,561,711.7715,551,715.7715,555,711.7715" style="stroke:#181818;stroke-width:1.0;"/><line style="stroke:#181818;stroke-width:1.0;" x1="86" x2="557" y1="711.7715" y2="711.7715"/><text fill="#000000" font-family="sans-serif" font-size="13" font-weight="bold" lengthAdjust="spacing" textLength="14" x="93" y="706.5088">18</text><text fill="#000000" font-family="sans-serif" font-size="13" lengthAdjust="spacing" textLength="75" x="111" y="706.5088">submits data</text><polygon fill="#181818" points="1021,756.3535,1031,760.3535,1021,764.3535,1025,760.3535" style="stroke:#181818;stroke-width:1.0;"/><line style="stroke:#181818;stroke-width:1.0;" x1="573" x2="1027" y1="760.3535" y2="760.3535"/><text fill="#000000" font-family="sans-serif" font-size="13" font-weight="bold" lengthAdjust="spacing" textLength="14" x="580" y="746.4453">19</text><text fill="#000000" font-family="sans-serif" font-size="13" lengthAdjust="spacing" textLength="423" x="598" y="737.7998">createEMPLOYEE(name,descriptions,tax number,address,email address</text><text fill="#000000" font-family="sans-serif" font-size="13" lengthAdjust="spacing" textLength="214" x="598" y="755.0908">,phone number,password,store,roles)</text><polygon fill="#181818" points="1491,804.9355,1501,808.9355,1491,812.9355,1495,808.9355" style="stroke:#181818;stroke-width:1.0;"/><line style="stroke:#181818;stroke-width:1.0;" x1="1043" x2="1497" y1="808.9355" y2="808.9355"/><text fill="#000000" font-family="sans-serif" font-size="13" font-weight="bold" lengthAdjust="spacing" textLength="14" x="1050" y="795.0273">20</text><text fill="#000000" font-family="sans-serif" font-size="13" lengthAdjust="spacing" textLength="423" x="1068" y="786.3818">createEMPLOYEE(name,descriptions,tax number,address,email address</text><text fill="#000000" font-family="sans-serif" font-size="13" lengthAdjust="spacing" textLength="214" x="1068" y="803.6729">,phone number,password,store,roles)</text><path d="M1385,823.9355 L1539,823.9355 L1539,833.2266 L1529,843.2266 L1385,843.2266 L1385,823.9355 " fill="#EEEEEE" style="stroke:#000000;stroke-width:1.5;"/><rect fill="none" height="258.6973" style="stroke:#000000;stroke-width:1.5;" width="598" x="1385" y="823.9355"/><text fill="#000000" font-family="sans-serif" font-size="13" font-weight="bold" lengthAdjust="spacing" textLength="109" x="1400" y="838.9639">Create Employee</text><polygon fill="#181818" points="1881,879.8086,1891,883.8086,1881,887.8086,1885,883.8086" style="stroke:#181818;stroke-width:1.0;"/><line style="stroke:#181818;stroke-width:1.0;" x1="1513" x2="1887" y1="883.8086" y2="883.8086"/><text fill="#000000" font-family="sans-serif" font-size="13" font-weight="bold" lengthAdjust="spacing" textLength="14" x="1520" y="869.9004">21</text><text fill="#000000" font-family="sans-serif" font-size="13" lengthAdjust="spacing" textLength="338" x="1538" y="861.2549">createEMPLOYEE(name,descriptions,tax number,address</text><text fill="#000000" font-family="sans-serif" font-size="13" lengthAdjust="spacing" textLength="299" x="1538" y="878.5459">,email address,phone number,password,store,roles)</text><rect fill="#E3E3E3" height="51.2422" rx="2.5" ry="2.5" style="stroke:#181818;stroke-width:0.5;" width="80" x="1893" y="843.2266"/><text fill="#000000" font-family="sans-serif" font-size="14" lengthAdjust="spacing" textLength="62" x="1902" y="865.334">Employee</text><text fill="#000000" font-family="sans-serif" font-size="14" lengthAdjust="spacing" textLength="66" x="1900" y="883.9551">:Employee</text><line style="stroke:#181818;stroke-width:1.0;" x1="1513" x2="1560" y1="923.7598" y2="923.7598"/><line style="stroke:#181818;stroke-width:1.0;" x1="1560" x2="1560" y1="923.7598" y2="936.7598"/><line style="stroke:#181818;stroke-width:1.0;" x1="1519" x2="1560" y1="936.7598" y2="936.7598"/><polygon fill="#181818" points="1529,932.7598,1519,936.7598,1529,940.7598,1525,936.7598" style="stroke:#181818;stroke-width:1.0;"/><text fill="#000000" font-family="sans-serif" font-size="13" font-weight="bold" lengthAdjust="spacing" textLength="14" x="1525" y="918.4971">22</text><text fill="#000000" font-family="sans-serif" font-size="13" lengthAdjust="spacing" textLength="149" x="1543" y="918.4971">addEmployee (Employee)</text><line style="stroke:#181818;stroke-width:1.0;" x1="1518" x2="1565" y1="968.0508" y2="968.0508"/><line style="stroke:#181818;stroke-width:1.0;" x1="1565" x2="1565" y1="968.0508" y2="981.0508"/><line style="stroke:#181818;stroke-width:1.0;" x1="1524" x2="1565" y1="981.0508" y2="981.0508"/><polygon fill="#181818" points="1534,977.0508,1524,981.0508,1534,985.0508,1530,981.0508" style="stroke:#181818;stroke-width:1.0;"/><text fill="#000000" font-family="sans-serif" font-size="13" font-weight="bold" lengthAdjust="spacing" textLength="14" x="1530" y="962.7881">23</text><text fill="#000000" font-family="sans-serif" font-size="13" lengthAdjust="spacing" textLength="167" x="1548" y="962.7881">validateEmployee(Employee)</text><line style="stroke:#181818;stroke-width:1.0;stroke-dasharray:2.0,2.0;" x1="1523" x2="1565" y1="1022.3418" y2="1022.3418"/><line style="stroke:#181818;stroke-width:1.0;stroke-dasharray:2.0,2.0;" x1="1565" x2="1565" y1="1022.3418" y2="1035.3418"/><line style="stroke:#181818;stroke-width:1.0;stroke-dasharray:2.0,2.0;" x1="1518" x2="1565" y1="1035.3418" y2="1035.3418"/><polygon fill="#181818" points="1528,1031.3418,1518,1035.3418,1528,1039.3418,1524,1035.3418" style="stroke:#181818;stroke-width:1.0;"/><text fill="#000000" font-family="sans-serif" font-size="13" font-weight="bold" lengthAdjust="spacing" textLength="14" x="1530" y="1017.0791">24</text><text fill="#000000" font-family="sans-serif" font-size="13" lengthAdjust="spacing" textLength="4" x="1548" y="1017.0791">&#160;</text><line style="stroke:#181818;stroke-width:1.0;stroke-dasharray:2.0,2.0;" x1="1518" x2="1560" y1="1066.6328" y2="1066.6328"/><line style="stroke:#181818;stroke-width:1.0;stroke-dasharray:2.0,2.0;" x1="1560" x2="1560" y1="1066.6328" y2="1079.6328"/><line style="stroke:#181818;stroke-width:1.0;stroke-dasharray:2.0,2.0;" x1="1513" x2="1560" y1="1079.6328" y2="1079.6328"/><polygon fill="#181818" points="1523,1075.6328,1513,1079.6328,1523,1083.6328,1519,1079.6328" style="stroke:#181818;stroke-width:1.0;"/><text fill="#000000" font-family="sans-serif" font-size="13" font-weight="bold" lengthAdjust="spacing" textLength="14" x="1525" y="1061.3701">25</text><text fill="#000000" font-family="sans-serif" font-size="13" lengthAdjust="spacing" textLength="4" x="1543" y="1061.3701">&#160;</text><polygon fill="#181818" points="1054,1108.9238,1044,1112.9238,1054,1116.9238,1050,1112.9238" style="stroke:#181818;stroke-width:1.0;"/><line style="stroke:#181818;stroke-width:1.0;stroke-dasharray:2.0,2.0;" x1="1048" x2="1507" y1="1112.9238" y2="1112.9238"/><text fill="#000000" font-family="sans-serif" font-size="13" font-weight="bold" lengthAdjust="spacing" textLength="14" x="1060" y="1107.6611">26</text><text fill="#000000" font-family="sans-serif" font-size="13" lengthAdjust="spacing" textLength="58" x="1078" y="1107.6611">Employee</text><polygon fill="#181818" points="584,1140.2148,574,1144.2148,584,1148.2148,580,1144.2148" style="stroke:#181818;stroke-width:1.0;"/><line style="stroke:#181818;stroke-width:1.0;stroke-dasharray:2.0,2.0;" x1="578" x2="1037" y1="1144.2148" y2="1144.2148"/><text fill="#000000" font-family="sans-serif" font-size="13" font-weight="bold" lengthAdjust="spacing" textLength="14" x="590" y="1138.9521">27</text><text fill="#000000" font-family="sans-serif" font-size="13" lengthAdjust="spacing" textLength="58" x="608" y="1138.9521">Employee</text><polygon fill="#181818" points="92,1171.5059,82,1175.5059,92,1179.5059,88,1175.5059" style="stroke:#181818;stroke-width:1.0;"/><line style="stroke:#181818;stroke-width:1.0;stroke-dasharray:2.0,2.0;" x1="86" x2="567" y1="1175.5059" y2="1175.5059"/><text fill="#000000" font-family="sans-serif" font-size="13" font-weight="bold" lengthAdjust="spacing" textLength="14" x="98" y="1170.2432">28</text><text fill="#000000" font-family="sans-serif" font-size="13" lengthAdjust="spacing" textLength="158" x="116" y="1170.2432">displays operation success</text><!--SRC=[lLRRJkCm47ttLunuMLg57-W3KjNjhf2AG50ULkB594DgaTXPsm6wNxyJv-fSMkXU_9J4SywS6NjcObw4pBZcAQHAgd2dLOfWTOxCD3iP3rzuZFTsdo1e32sNST8rC3iUgJSXOtZcYK76U6wLpDCdr8nzsOa8uLaf-wJU6G-jqd1sesCknIzkXPAmJhD4xH7FW1jOVhrcn6f5A38kBPmjLXgvnTheuSgPFLmTj5efQRLA4jJEUhMzs_Jixp1JHf0OWSRPD1_szwA8ZoBm8Rg3U9H3WjlDSkiZxcaNMzx5O- -3W_M- -GnrFEJFoz9sURV-jcH5EiKhnUtIne0MFS359UK75cJuOi0g25rkW0DM7ALf0wPakW_58Y31YuJDvqHHGaTsQIz6wyGRncAjyWo-euKjEOKLOM8A1ZR2MDQI5yk1YMGatoNdbJHqmq8ydtcuHktOGNcMnHfZlwYaBw1xb1uqme-xgGCfphsJZHOt5O2xA0F5ZgQLsByM4og7NBMi7a57ON4eKzhwRWSo-xGNxNreoAV43iYT8SgeTTFOkf8T2Qo-s-NDyxnrFFdeujOIhYYD1JKhzMO0ZCD3GWJ0PTJKYi64EXmeMLxw3YTLIR_0IcD3bMMgGXYjgn7_pgzw1cfIf6920Fk414SqJ6Etj0TIDFxCqH0uufQFfR7or_Tfznc9hj0OEJYSIvvY4A49jSYAlcu2oz-X70C1ZoBAZmamvIA1wkrH1jcE0gsDCcxCczBHx70S8-aiiq1It3a4dRJwAZyHfCcVKk7bPYZ6QuTbgrnVtsvkVgpNVp4TGHcKYsd69gjael3_gp0uhQbKgvmYvIHl_WechIVwqMKr7EVpaoAdMBtOJuhyYC312P6lEbmuhvzcHoAVJ2ySMn-HzCeJ4NN-g3goZlAVhcngmdoQwD3K-VSA3dYVn7XZyACZjocIFv7G6QoJZFtPwk-s7Na1aJ1PmlS6L8Qw_C4tUHXIAR6nriiwhyLFx6y0]--></g></svg>
