<?xml version="1.0" encoding="us-ascii" standalone="no"?><svg xmlns="http://www.w3.org/2000/svg" xmlns:xlink="http://www.w3.org/1999/xlink" contentStyleType="text/css" height="1637px" preserveAspectRatio="none" style="width:2966px;height:1637px;background:#FFFFFF;" version="1.1" viewBox="0 0 2966 1637" width="2966px" zoomAndPan="magnify"><defs/><g><rect fill="#FFFFFF" height="1442.7949" style="stroke:#181818;stroke-width:1.0;" width="10" x="52.5" y="93.6211"/><rect fill="#FFFFFF" height="509.9863" style="stroke:#181818;stroke-width:1.0;" width="10" x="407.5" y="116.9121"/><rect fill="#FFFFFF" height="31.291" style="stroke:#181818;stroke-width:1.0;" width="10" x="407.5" y="658.1895"/><rect fill="#FFFFFF" height="31.291" style="stroke:#181818;stroke-width:1.0;" width="10" x="407.5" y="720.7715"/><rect fill="#FFFFFF" height="753.0625" style="stroke:#181818;stroke-width:1.0;" width="10" x="407.5" y="783.3535"/><rect fill="#FFFFFF" height="403.7832" style="stroke:#181818;stroke-width:1.0;" width="10" x="660.5" y="191.8242"/><rect fill="#FFFFFF" height="690.4805" style="stroke:#181818;stroke-width:1.0;" width="10" x="660.5" y="814.6445"/><rect fill="#FFFFFF" height="355.2012" style="stroke:#181818;stroke-width:1.0;" width="10" x="665.5" y="853.9355"/><rect fill="#FFFFFF" height="297.9883" style="stroke:#181818;stroke-width:1.0;" width="10" x="1010" y="1247.4277"/><rect fill="#FFFFFF" height="185.1152" style="stroke:#181818;stroke-width:1.0;" width="10" x="1015" y="1288.7188"/><rect fill="#FFFFFF" height="42.291" style="stroke:#181818;stroke-width:1.0;" width="10" x="1020" y="1348.9609"/><rect fill="#FFFFFF" height="31.291" style="stroke:#181818;stroke-width:1.0;" width="10" x="1467" y="1140.5547"/><rect fill="#FFFFFF" height="93.873" style="stroke:#181818;stroke-width:1.0;" width="10" x="1692" y="432.1523"/><rect fill="#FFFFFF" height="31.291" style="stroke:#181818;stroke-width:1.0;" width="10" x="1924.5" y="890.2266"/><rect fill="#FFFFFF" height="31.291" style="stroke:#181818;stroke-width:1.0;" width="10" x="2071.5" y="952.8086"/><rect fill="#FFFFFF" height="31.291" style="stroke:#181818;stroke-width:1.0;" width="10" x="2204.5" y="1015.3906"/><rect fill="#FFFFFF" height="31.291" style="stroke:#181818;stroke-width:1.0;" width="10" x="2405" y="463.4434"/><rect fill="#FFFFFF" height="31.291" style="stroke:#181818;stroke-width:1.0;" width="10" x="2621.5" y="249.4063"/><rect fill="#FFFFFF" height="31.291" style="stroke:#181818;stroke-width:1.0;" width="10" x="2726.5" y="311.9883"/><rect fill="#FFFFFF" height="31.291" style="stroke:#181818;stroke-width:1.0;" width="10" x="2726.5" y="1077.9727"/><rect fill="#FFFFFF" height="189.7461" style="stroke:#181818;stroke-width:1.0;" width="10" x="2853" y="374.5703"/><rect fill="none" height="144.4551" style="stroke:#000000;stroke-width:1.5;" width="1427" x="1533" y="389.5703"/><line style="stroke:#181818;stroke-width:0.5;stroke-dasharray:5.0,5.0;" x1="57" x2="57" y1="83.6211" y2="1554.416"/><line style="stroke:#181818;stroke-width:0.5;stroke-dasharray:5.0,5.0;" x1="412.5" x2="412.5" y1="83.6211" y2="1554.416"/><line style="stroke:#181818;stroke-width:0.5;stroke-dasharray:5.0,5.0;" x1="665.5" x2="665.5" y1="156.7227" y2="1554.416"/><line style="stroke:#181818;stroke-width:0.5;stroke-dasharray:5.0,5.0;" x1="849.5" x2="849.5" y1="83.6211" y2="1554.416"/><line style="stroke:#181818;stroke-width:0.5;stroke-dasharray:5.0,5.0;" x1="1014.5" x2="1014.5" y1="83.6211" y2="1554.416"/><line style="stroke:#181818;stroke-width:0.5;stroke-dasharray:5.0,5.0;" x1="1373" x2="1373" y1="1296.5488" y2="1554.416"/><line style="stroke:#181818;stroke-width:0.5;stroke-dasharray:5.0,5.0;" x1="1472" x2="1472" y1="83.6211" y2="1554.416"/><line style="stroke:#181818;stroke-width:0.5;stroke-dasharray:5.0,5.0;" x1="1697" x2="1697" y1="83.6211" y2="1554.416"/><line style="stroke:#181818;stroke-width:0.5;stroke-dasharray:5.0,5.0;" x1="1929" x2="1929" y1="83.6211" y2="1554.416"/><line style="stroke:#181818;stroke-width:0.5;stroke-dasharray:5.0,5.0;" x1="2076" x2="2076" y1="83.6211" y2="1554.416"/><line style="stroke:#181818;stroke-width:0.5;stroke-dasharray:5.0,5.0;" x1="2209" x2="2209" y1="83.6211" y2="1554.416"/><line style="stroke:#181818;stroke-width:0.5;stroke-dasharray:5.0,5.0;" x1="2410" x2="2410" y1="83.6211" y2="1554.416"/><line style="stroke:#181818;stroke-width:0.5;stroke-dasharray:5.0,5.0;" x1="2626" x2="2626" y1="83.6211" y2="1554.416"/><line style="stroke:#181818;stroke-width:0.5;stroke-dasharray:5.0,5.0;" x1="2731" x2="2731" y1="83.6211" y2="1554.416"/><line style="stroke:#181818;stroke-width:0.5;stroke-dasharray:5.0,5.0;" x1="2858" x2="2858" y1="83.6211" y2="1554.416"/><text fill="#000000" font-family="sans-serif" font-size="14" lengthAdjust="spacing" textLength="69" x="20" y="80.1074">Client:User</text><ellipse cx="57.5" cy="13.5" fill="#E3E3E3" rx="8" ry="8" style="stroke:#181818;stroke-width:0.5;"/><path d="M57.5,21.5 L57.5,48.5 M44.5,29.5 L70.5,29.5 M57.5,48.5 L44.5,63.5 M57.5,48.5 L70.5,63.5 " fill="none" style="stroke:#181818;stroke-width:0.5;"/><text fill="#000000" font-family="sans-serif" font-size="14" lengthAdjust="spacing" textLength="69" x="20" y="1568.5234">Client:User</text><ellipse cx="57.5" cy="1580.5371" fill="#E3E3E3" rx="8" ry="8" style="stroke:#181818;stroke-width:0.5;"/><path d="M57.5,1588.5371 L57.5,1615.5371 M44.5,1596.5371 L70.5,1596.5371 M57.5,1615.5371 L44.5,1630.5371 M57.5,1615.5371 L70.5,1630.5371 " fill="none" style="stroke:#181818;stroke-width:0.5;"/><rect fill="#E3E3E3" height="32.6211" rx="2.5" ry="2.5" style="stroke:#181818;stroke-width:0.5;" width="110" x="357.5" y="50"/><text fill="#000000" font-family="sans-serif" font-size="14" lengthAdjust="spacing" textLength="96" x="364.5" y="72.1074">:CreateOrderUI</text><rect fill="#E3E3E3" height="32.6211" rx="2.5" ry="2.5" style="stroke:#181818;stroke-width:0.5;" width="110" x="357.5" y="1553.416"/><text fill="#000000" font-family="sans-serif" font-size="14" lengthAdjust="spacing" textLength="96" x="364.5" y="1575.5234">:CreateOrderUI</text><rect fill="#E3E3E3" height="32.6211" rx="2.5" ry="2.5" style="stroke:#181818;stroke-width:0.5;" width="160" x="585.5" y="1553.416"/><text fill="#000000" font-family="sans-serif" font-size="14" lengthAdjust="spacing" textLength="146" x="592.5" y="1575.5234">:CreateOrderController</text><rect fill="#E3E3E3" height="51.2422" rx="2.5" ry="2.5" style="stroke:#181818;stroke-width:0.5;" width="188" x="755.5" y="31.3789"/><text fill="#000000" font-family="sans-serif" font-size="14" lengthAdjust="spacing" textLength="170" x="764.5" y="53.4863">AnnouncementsRepository</text><text fill="#000000" font-family="sans-serif" font-size="14" lengthAdjust="spacing" textLength="174" x="762.5" y="72.1074">:AnnouncementsRepository</text><rect fill="#E3E3E3" height="51.2422" rx="2.5" ry="2.5" style="stroke:#181818;stroke-width:0.5;" width="188" x="755.5" y="1553.416"/><text fill="#000000" font-family="sans-serif" font-size="14" lengthAdjust="spacing" textLength="170" x="764.5" y="1575.5234">AnnouncementsRepository</text><text fill="#000000" font-family="sans-serif" font-size="14" lengthAdjust="spacing" textLength="174" x="762.5" y="1594.1445">:AnnouncementsRepository</text><rect fill="#E3E3E3" height="51.2422" rx="2.5" ry="2.5" style="stroke:#181818;stroke-width:0.5;" width="123" x="953.5" y="31.3789"/><text fill="#000000" font-family="sans-serif" font-size="14" lengthAdjust="spacing" textLength="105" x="962.5" y="53.4863">OrderRepository</text><text fill="#000000" font-family="sans-serif" font-size="14" lengthAdjust="spacing" textLength="109" x="960.5" y="72.1074">:OrderRepository</text><rect fill="#E3E3E3" height="51.2422" rx="2.5" ry="2.5" style="stroke:#181818;stroke-width:0.5;" width="123" x="953.5" y="1553.416"/><text fill="#000000" font-family="sans-serif" font-size="14" lengthAdjust="spacing" textLength="105" x="962.5" y="1575.5234">OrderRepository</text><text fill="#000000" font-family="sans-serif" font-size="14" lengthAdjust="spacing" textLength="109" x="960.5" y="1594.1445">:OrderRepository</text><rect fill="#E3E3E3" height="51.2422" rx="2.5" ry="2.5" style="stroke:#181818;stroke-width:0.5;" width="55" x="1346" y="1553.416"/><text fill="#000000" font-family="sans-serif" font-size="14" lengthAdjust="spacing" textLength="37" x="1355" y="1575.5234">Order</text><text fill="#000000" font-family="sans-serif" font-size="14" lengthAdjust="spacing" textLength="41" x="1353" y="1594.1445">:Order</text><rect fill="#E3E3E3" height="51.2422" rx="2.5" ry="2.5" style="stroke:#181818;stroke-width:0.5;" width="122" x="1411" y="31.3789"/><text fill="#000000" font-family="sans-serif" font-size="14" lengthAdjust="spacing" textLength="108" x="1418" y="53.4863">ClientRepository:</text><text fill="#000000" font-family="sans-serif" font-size="14" lengthAdjust="spacing" textLength="104" x="1420" y="72.1074">ClientRepository</text><rect fill="#E3E3E3" height="51.2422" rx="2.5" ry="2.5" style="stroke:#181818;stroke-width:0.5;" width="122" x="1411" y="1553.416"/><text fill="#000000" font-family="sans-serif" font-size="14" lengthAdjust="spacing" textLength="108" x="1418" y="1575.5234">ClientRepository:</text><text fill="#000000" font-family="sans-serif" font-size="14" lengthAdjust="spacing" textLength="104" x="1420" y="1594.1445">ClientRepository</text><rect fill="#E3E3E3" height="32.6211" rx="2.5" ry="2.5" style="stroke:#181818;stroke-width:0.5;" width="308" x="1543" y="50"/><text fill="#000000" font-family="sans-serif" font-size="14" lengthAdjust="spacing" textLength="294" x="1550" y="72.1074">AnnouncementMapper:\AnnouncementMapper</text><rect fill="#E3E3E3" height="32.6211" rx="2.5" ry="2.5" style="stroke:#181818;stroke-width:0.5;" width="308" x="1543" y="1553.416"/><text fill="#000000" font-family="sans-serif" font-size="14" lengthAdjust="spacing" textLength="294" x="1550" y="1575.5234">AnnouncementMapper:\AnnouncementMapper</text><rect fill="#E3E3E3" height="32.6211" rx="2.5" ry="2.5" style="stroke:#181818;stroke-width:0.5;" width="137" x="1861" y="50"/><text fill="#000000" font-family="sans-serif" font-size="14" lengthAdjust="spacing" textLength="123" x="1868" y="72.1074">:ApplicationSession</text><rect fill="#E3E3E3" height="32.6211" rx="2.5" ry="2.5" style="stroke:#181818;stroke-width:0.5;" width="137" x="1861" y="1553.416"/><text fill="#000000" font-family="sans-serif" font-size="14" lengthAdjust="spacing" textLength="123" x="1868" y="1575.5234">:ApplicationSession</text><rect fill="#E3E3E3" height="51.2422" rx="2.5" ry="2.5" style="stroke:#181818;stroke-width:0.5;" width="137" x="2008" y="31.3789"/><text fill="#000000" font-family="sans-serif" font-size="14" lengthAdjust="spacing" textLength="74" x="2039.5" y="53.4863">appSession</text><text fill="#000000" font-family="sans-serif" font-size="14" lengthAdjust="spacing" textLength="123" x="2015" y="72.1074">:ApplicationSession</text><rect fill="#E3E3E3" height="51.2422" rx="2.5" ry="2.5" style="stroke:#181818;stroke-width:0.5;" width="137" x="2008" y="1553.416"/><text fill="#000000" font-family="sans-serif" font-size="14" lengthAdjust="spacing" textLength="74" x="2039.5" y="1575.5234">appSession</text><text fill="#000000" font-family="sans-serif" font-size="14" lengthAdjust="spacing" textLength="123" x="2015" y="1594.1445">:ApplicationSession</text><rect fill="#E3E3E3" height="51.2422" rx="2.5" ry="2.5" style="stroke:#181818;stroke-width:0.5;" width="109" x="2155" y="31.3789"/><text fill="#000000" font-family="sans-serif" font-size="14" lengthAdjust="spacing" textLength="95" x="2162" y="53.4863">currentSession</text><text fill="#000000" font-family="sans-serif" font-size="14" lengthAdjust="spacing" textLength="83" x="2168" y="72.1074">:UserSession</text><rect fill="#E3E3E3" height="51.2422" rx="2.5" ry="2.5" style="stroke:#181818;stroke-width:0.5;" width="109" x="2155" y="1553.416"/><text fill="#000000" font-family="sans-serif" font-size="14" lengthAdjust="spacing" textLength="95" x="2162" y="1575.5234">currentSession</text><text fill="#000000" font-family="sans-serif" font-size="14" lengthAdjust="spacing" textLength="83" x="2168" y="1594.1445">:UserSession</text><rect fill="#E3E3E3" height="32.6211" rx="2.5" ry="2.5" style="stroke:#181818;stroke-width:0.5;" width="272" x="2274" y="50"/><text fill="#000000" font-family="sans-serif" font-size="14" lengthAdjust="spacing" textLength="258" x="2281" y="72.1074">AnnouncementDTO:\AnnouncementDTO</text><rect fill="#E3E3E3" height="32.6211" rx="2.5" ry="2.5" style="stroke:#181818;stroke-width:0.5;" width="272" x="2274" y="1553.416"/><text fill="#000000" font-family="sans-serif" font-size="14" lengthAdjust="spacing" textLength="258" x="2281" y="1575.5234">AnnouncementDTO:\AnnouncementDTO</text><rect fill="#E3E3E3" height="32.6211" rx="2.5" ry="2.5" style="stroke:#181818;stroke-width:0.5;" width="141" x="2556" y="50"/><text fill="#000000" font-family="sans-serif" font-size="14" lengthAdjust="spacing" textLength="127" x="2563" y="72.1074">RepositorySingleton</text><rect fill="#E3E3E3" height="32.6211" rx="2.5" ry="2.5" style="stroke:#181818;stroke-width:0.5;" width="141" x="2556" y="1553.416"/><text fill="#000000" font-family="sans-serif" font-size="14" lengthAdjust="spacing" textLength="127" x="2563" y="1575.5234">RepositorySingleton</text><rect fill="#E3E3E3" height="32.6211" rx="2.5" ry="2.5" style="stroke:#181818;stroke-width:0.5;" width="49" x="2707" y="50"/><text fill="#000000" font-family="sans-serif" font-size="14" lengthAdjust="spacing" textLength="35" x="2714" y="72.1074">PLAT</text><rect fill="#E3E3E3" height="32.6211" rx="2.5" ry="2.5" style="stroke:#181818;stroke-width:0.5;" width="49" x="2707" y="1553.416"/><text fill="#000000" font-family="sans-serif" font-size="14" lengthAdjust="spacing" textLength="35" x="2714" y="1575.5234">PLAT</text><rect fill="#E3E3E3" height="32.6211" rx="2.5" ry="2.5" style="stroke:#181818;stroke-width:0.5;" width="184" x="2766" y="50"/><text fill="#000000" font-family="sans-serif" font-size="14" lengthAdjust="spacing" textLength="170" x="2773" y="72.1074">AnnouncementsRepository</text><rect fill="#E3E3E3" height="32.6211" rx="2.5" ry="2.5" style="stroke:#181818;stroke-width:0.5;" width="184" x="2766" y="1553.416"/><text fill="#000000" font-family="sans-serif" font-size="14" lengthAdjust="spacing" textLength="170" x="2773" y="1575.5234">AnnouncementsRepository</text><rect fill="#FFFFFF" height="1442.7949" style="stroke:#181818;stroke-width:1.0;" width="10" x="52.5" y="93.6211"/><rect fill="#FFFFFF" height="509.9863" style="stroke:#181818;stroke-width:1.0;" width="10" x="407.5" y="116.9121"/><rect fill="#FFFFFF" height="31.291" style="stroke:#181818;stroke-width:1.0;" width="10" x="407.5" y="658.1895"/><rect fill="#FFFFFF" height="31.291" style="stroke:#181818;stroke-width:1.0;" width="10" x="407.5" y="720.7715"/><rect fill="#FFFFFF" height="753.0625" style="stroke:#181818;stroke-width:1.0;" width="10" x="407.5" y="783.3535"/><rect fill="#FFFFFF" height="403.7832" style="stroke:#181818;stroke-width:1.0;" width="10" x="660.5" y="191.8242"/><rect fill="#FFFFFF" height="690.4805" style="stroke:#181818;stroke-width:1.0;" width="10" x="660.5" y="814.6445"/><rect fill="#FFFFFF" height="355.2012" style="stroke:#181818;stroke-width:1.0;" width="10" x="665.5" y="853.9355"/><rect fill="#FFFFFF" height="297.9883" style="stroke:#181818;stroke-width:1.0;" width="10" x="1010" y="1247.4277"/><rect fill="#FFFFFF" height="185.1152" style="stroke:#181818;stroke-width:1.0;" width="10" x="1015" y="1288.7188"/><rect fill="#FFFFFF" height="42.291" style="stroke:#181818;stroke-width:1.0;" width="10" x="1020" y="1348.9609"/><rect fill="#FFFFFF" height="31.291" style="stroke:#181818;stroke-width:1.0;" width="10" x="1467" y="1140.5547"/><rect fill="#FFFFFF" height="93.873" style="stroke:#181818;stroke-width:1.0;" width="10" x="1692" y="432.1523"/><rect fill="#FFFFFF" height="31.291" style="stroke:#181818;stroke-width:1.0;" width="10" x="1924.5" y="890.2266"/><rect fill="#FFFFFF" height="31.291" style="stroke:#181818;stroke-width:1.0;" width="10" x="2071.5" y="952.8086"/><rect fill="#FFFFFF" height="31.291" style="stroke:#181818;stroke-width:1.0;" width="10" x="2204.5" y="1015.3906"/><rect fill="#FFFFFF" height="31.291" style="stroke:#181818;stroke-width:1.0;" width="10" x="2405" y="463.4434"/><rect fill="#FFFFFF" height="31.291" style="stroke:#181818;stroke-width:1.0;" width="10" x="2621.5" y="249.4063"/><rect fill="#FFFFFF" height="31.291" style="stroke:#181818;stroke-width:1.0;" width="10" x="2726.5" y="311.9883"/><rect fill="#FFFFFF" height="31.291" style="stroke:#181818;stroke-width:1.0;" width="10" x="2726.5" y="1077.9727"/><rect fill="#FFFFFF" height="189.7461" style="stroke:#181818;stroke-width:1.0;" width="10" x="2853" y="374.5703"/><polygon fill="#181818" points="395.5,112.9121,405.5,116.9121,395.5,120.9121,399.5,116.9121" style="stroke:#181818;stroke-width:1.0;"/><line style="stroke:#181818;stroke-width:1.0;" x1="62.5" x2="401.5" y1="116.9121" y2="116.9121"/><text fill="#000000" font-family="sans-serif" font-size="13" font-weight="bold" lengthAdjust="spacing" textLength="7" x="69.5" y="111.6494">1</text><text fill="#000000" font-family="sans-serif" font-size="13" lengthAdjust="spacing" textLength="102" x="80.5" y="111.6494">to Buy a Property</text><polygon fill="#181818" points="573.5,144.2031,583.5,148.2031,573.5,152.2031,577.5,148.2031" style="stroke:#181818;stroke-width:1.0;"/><line style="stroke:#181818;stroke-width:1.0;" x1="417.5" x2="579.5" y1="148.2031" y2="148.2031"/><text fill="#000000" font-family="sans-serif" font-size="13" font-weight="bold" lengthAdjust="spacing" textLength="7" x="424.5" y="142.9404">2</text><text fill="#000000" font-family="sans-serif" font-size="13" lengthAdjust="spacing" textLength="36" x="435.5" y="142.9404">create</text><rect fill="#E3E3E3" height="32.6211" rx="2.5" ry="2.5" style="stroke:#181818;stroke-width:0.5;" width="160" x="585.5" y="124.9121"/><text fill="#000000" font-family="sans-serif" font-size="14" lengthAdjust="spacing" textLength="146" x="592.5" y="147.0195">:CreateOrderController</text><polygon fill="#181818" points="648.5,187.8242,658.5,191.8242,648.5,195.8242,652.5,191.8242" style="stroke:#181818;stroke-width:1.0;"/><line style="stroke:#181818;stroke-width:1.0;" x1="417.5" x2="654.5" y1="191.8242" y2="191.8242"/><text fill="#000000" font-family="sans-serif" font-size="13" font-weight="bold" lengthAdjust="spacing" textLength="7" x="424.5" y="186.5615">3</text><text fill="#000000" font-family="sans-serif" font-size="13" lengthAdjust="spacing" textLength="139" x="435.5" y="186.5615">getAnnouncementDTO()</text><polygon fill="#181818" points="2609.5,245.4063,2619.5,249.4063,2609.5,253.4063,2613.5,249.4063" style="stroke:#181818;stroke-width:1.0;"/><line style="stroke:#181818;stroke-width:1.0;" x1="670.5" x2="2615.5" y1="249.4063" y2="249.4063"/><text fill="#000000" font-family="sans-serif" font-size="13" font-weight="bold" lengthAdjust="spacing" textLength="7" x="677.5" y="244.1436">4</text><text fill="#000000" font-family="sans-serif" font-size="13" lengthAdjust="spacing" textLength="75" x="688.5" y="244.1436">getInstance()</text><polygon fill="#181818" points="681.5,276.6973,671.5,280.6973,681.5,284.6973,677.5,280.6973" style="stroke:#181818;stroke-width:1.0;"/><line style="stroke:#181818;stroke-width:1.0;stroke-dasharray:2.0,2.0;" x1="675.5" x2="2625.5" y1="280.6973" y2="280.6973"/><text fill="#000000" font-family="sans-serif" font-size="13" font-weight="bold" lengthAdjust="spacing" textLength="7" x="687.5" y="275.4346">5</text><text fill="#000000" font-family="sans-serif" font-size="13" lengthAdjust="spacing" textLength="67" x="698.5" y="275.4346">repositories</text><polygon fill="#181818" points="2714.5,307.9883,2724.5,311.9883,2714.5,315.9883,2718.5,311.9883" style="stroke:#181818;stroke-width:1.0;"/><line style="stroke:#181818;stroke-width:1.0;" x1="670.5" x2="2720.5" y1="311.9883" y2="311.9883"/><text fill="#000000" font-family="sans-serif" font-size="13" font-weight="bold" lengthAdjust="spacing" textLength="7" x="677.5" y="306.7256">6</text><text fill="#000000" font-family="sans-serif" font-size="13" lengthAdjust="spacing" textLength="182" x="688.5" y="306.7256">getAnnouncementsRepository()</text><polygon fill="#181818" points="681.5,339.2793,671.5,343.2793,681.5,347.2793,677.5,343.2793" style="stroke:#181818;stroke-width:1.0;"/><line style="stroke:#181818;stroke-width:1.0;stroke-dasharray:2.0,2.0;" x1="675.5" x2="2730.5" y1="343.2793" y2="343.2793"/><text fill="#000000" font-family="sans-serif" font-size="13" font-weight="bold" lengthAdjust="spacing" textLength="7" x="687.5" y="338.0166">7</text><text fill="#000000" font-family="sans-serif" font-size="13" lengthAdjust="spacing" textLength="156" x="698.5" y="338.0166">AnnouncementsRepository</text><polygon fill="#181818" points="2841,370.5703,2851,374.5703,2841,378.5703,2845,374.5703" style="stroke:#181818;stroke-width:1.0;"/><line style="stroke:#181818;stroke-width:1.0;" x1="670.5" x2="2847" y1="374.5703" y2="374.5703"/><text fill="#000000" font-family="sans-serif" font-size="13" font-weight="bold" lengthAdjust="spacing" textLength="7" x="677.5" y="369.3076">8</text><text fill="#000000" font-family="sans-serif" font-size="13" lengthAdjust="spacing" textLength="146" x="688.5" y="369.3076">getAnnouncementsDTO()</text><path d="M1533,389.5703 L1606,389.5703 L1606,398.8613 L1596,408.8613 L1533,408.8613 L1533,389.5703 " fill="#EEEEEE" style="stroke:#000000;stroke-width:1.5;"/><rect fill="none" height="144.4551" style="stroke:#000000;stroke-width:1.5;" width="1427" x="1533" y="389.5703"/><text fill="#000000" font-family="sans-serif" font-size="13" font-weight="bold" lengthAdjust="spacing" textLength="28" x="1548" y="404.5986">loop</text><text fill="#000000" font-family="sans-serif" font-size="11" font-weight="bold" lengthAdjust="spacing" textLength="175" x="1621" y="403.4404">[get list of announcementsDTO]</text><polygon fill="#181818" points="1713,428.1523,1703,432.1523,1713,436.1523,1709,432.1523" style="stroke:#181818;stroke-width:1.0;"/><line style="stroke:#181818;stroke-width:1.0;" x1="1707" x2="2852" y1="432.1523" y2="432.1523"/><text fill="#000000" font-family="sans-serif" font-size="13" font-weight="bold" lengthAdjust="spacing" textLength="7" x="1719" y="426.8896">9</text><text fill="#000000" font-family="sans-serif" font-size="13" lengthAdjust="spacing" textLength="139" x="1730" y="426.8896">getAnnouncementDTO()</text><polygon fill="#181818" points="2393,459.4434,2403,463.4434,2393,467.4434,2397,463.4434" style="stroke:#181818;stroke-width:1.0;"/><line style="stroke:#181818;stroke-width:1.0;" x1="1702" x2="2399" y1="463.4434" y2="463.4434"/><text fill="#000000" font-family="sans-serif" font-size="13" font-weight="bold" lengthAdjust="spacing" textLength="14" x="1709" y="458.1807">10</text><text fill="#000000" font-family="sans-serif" font-size="13" lengthAdjust="spacing" textLength="159" x="1727" y="458.1807">CreateAnnouncementDTO()</text><polygon fill="#181818" points="1713,490.7344,1703,494.7344,1713,498.7344,1709,494.7344" style="stroke:#181818;stroke-width:1.0;"/><line style="stroke:#181818;stroke-width:1.0;stroke-dasharray:2.0,2.0;" x1="1707" x2="2409" y1="494.7344" y2="494.7344"/><text fill="#000000" font-family="sans-serif" font-size="13" font-weight="bold" lengthAdjust="spacing" textLength="14" x="1719" y="489.4717">11</text><text fill="#000000" font-family="sans-serif" font-size="13" lengthAdjust="spacing" textLength="113" x="1737" y="489.4717">AnnouncementDTO</text><polygon fill="#181818" points="2841,522.0254,2851,526.0254,2841,530.0254,2845,526.0254" style="stroke:#181818;stroke-width:1.0;"/><line style="stroke:#181818;stroke-width:1.0;stroke-dasharray:2.0,2.0;" x1="1697" x2="2847" y1="526.0254" y2="526.0254"/><text fill="#000000" font-family="sans-serif" font-size="13" font-weight="bold" lengthAdjust="spacing" textLength="14" x="1704" y="520.7627">12</text><text fill="#000000" font-family="sans-serif" font-size="13" lengthAdjust="spacing" textLength="113" x="1722" y="520.7627">AnnouncementDTO</text><polygon fill="#181818" points="681.5,560.3164,671.5,564.3164,681.5,568.3164,677.5,564.3164" style="stroke:#181818;stroke-width:1.0;"/><line style="stroke:#181818;stroke-width:1.0;stroke-dasharray:2.0,2.0;" x1="675.5" x2="2857" y1="564.3164" y2="564.3164"/><text fill="#000000" font-family="sans-serif" font-size="13" font-weight="bold" lengthAdjust="spacing" textLength="14" x="687.5" y="559.0537">13</text><text fill="#000000" font-family="sans-serif" font-size="13" lengthAdjust="spacing" textLength="108" x="705.5" y="559.0537">AnnouncementList</text><polygon fill="#181818" points="428.5,591.6074,418.5,595.6074,428.5,599.6074,424.5,595.6074" style="stroke:#181818;stroke-width:1.0;"/><line style="stroke:#181818;stroke-width:1.0;stroke-dasharray:2.0,2.0;" x1="422.5" x2="664.5" y1="595.6074" y2="595.6074"/><text fill="#000000" font-family="sans-serif" font-size="13" font-weight="bold" lengthAdjust="spacing" textLength="14" x="434.5" y="590.3447">14</text><text fill="#000000" font-family="sans-serif" font-size="13" lengthAdjust="spacing" textLength="108" x="452.5" y="590.3447">AnnouncementList</text><polygon fill="#181818" points="73.5,622.8984,63.5,626.8984,73.5,630.8984,69.5,626.8984" style="stroke:#181818;stroke-width:1.0;"/><line style="stroke:#181818;stroke-width:1.0;stroke-dasharray:2.0,2.0;" x1="67.5" x2="411.5" y1="626.8984" y2="626.8984"/><text fill="#000000" font-family="sans-serif" font-size="13" font-weight="bold" lengthAdjust="spacing" textLength="14" x="79.5" y="621.6357">15</text><text fill="#000000" font-family="sans-serif" font-size="13" lengthAdjust="spacing" textLength="160" x="97.5" y="621.6357">displays AnnouncementList</text><polygon fill="#181818" points="395.5,654.1895,405.5,658.1895,395.5,662.1895,399.5,658.1895" style="stroke:#181818;stroke-width:1.0;"/><line style="stroke:#181818;stroke-width:1.0;" x1="62.5" x2="401.5" y1="658.1895" y2="658.1895"/><text fill="#000000" font-family="sans-serif" font-size="13" font-weight="bold" lengthAdjust="spacing" textLength="14" x="69.5" y="652.9268">16</text><text fill="#000000" font-family="sans-serif" font-size="13" lengthAdjust="spacing" textLength="158" x="87.5" y="652.9268">selects an Announcements</text><polygon fill="#181818" points="73.5,685.4805,63.5,689.4805,73.5,693.4805,69.5,689.4805" style="stroke:#181818;stroke-width:1.0;"/><line style="stroke:#181818;stroke-width:1.0;stroke-dasharray:2.0,2.0;" x1="67.5" x2="411.5" y1="689.4805" y2="689.4805"/><text fill="#000000" font-family="sans-serif" font-size="13" font-weight="bold" lengthAdjust="spacing" textLength="14" x="79.5" y="684.2178">17</text><text fill="#000000" font-family="sans-serif" font-size="13" lengthAdjust="spacing" textLength="79" x="97.5" y="684.2178">requests data</text><polygon fill="#181818" points="395.5,716.7715,405.5,720.7715,395.5,724.7715,399.5,720.7715" style="stroke:#181818;stroke-width:1.0;"/><line style="stroke:#181818;stroke-width:1.0;" x1="62.5" x2="401.5" y1="720.7715" y2="720.7715"/><text fill="#000000" font-family="sans-serif" font-size="13" font-weight="bold" lengthAdjust="spacing" textLength="14" x="69.5" y="715.5088">18</text><text fill="#000000" font-family="sans-serif" font-size="13" lengthAdjust="spacing" textLength="264" x="87.5" y="715.5088">types requested data (Announcements, price)</text><polygon fill="#181818" points="73.5,748.0625,63.5,752.0625,73.5,756.0625,69.5,752.0625" style="stroke:#181818;stroke-width:1.0;"/><line style="stroke:#181818;stroke-width:1.0;stroke-dasharray:2.0,2.0;" x1="67.5" x2="411.5" y1="752.0625" y2="752.0625"/><text fill="#000000" font-family="sans-serif" font-size="13" font-weight="bold" lengthAdjust="spacing" textLength="14" x="79.5" y="746.7998">19</text><text fill="#000000" font-family="sans-serif" font-size="13" lengthAdjust="spacing" textLength="303" x="97.5" y="746.7998">shows selected Announcements and requested data</text><polygon fill="#181818" points="395.5,779.3535,405.5,783.3535,395.5,787.3535,399.5,783.3535" style="stroke:#181818;stroke-width:1.0;"/><line style="stroke:#181818;stroke-width:1.0;" x1="62.5" x2="401.5" y1="783.3535" y2="783.3535"/><text fill="#000000" font-family="sans-serif" font-size="13" font-weight="bold" lengthAdjust="spacing" textLength="14" x="69.5" y="778.0908">20</text><text fill="#000000" font-family="sans-serif" font-size="13" lengthAdjust="spacing" textLength="75" x="87.5" y="778.0908">submits data</text><polygon fill="#181818" points="648.5,810.6445,658.5,814.6445,648.5,818.6445,652.5,814.6445" style="stroke:#181818;stroke-width:1.0;"/><line style="stroke:#181818;stroke-width:1.0;" x1="417.5" x2="654.5" y1="814.6445" y2="814.6445"/><text fill="#000000" font-family="sans-serif" font-size="13" font-weight="bold" lengthAdjust="spacing" textLength="14" x="424.5" y="809.3818">21</text><text fill="#000000" font-family="sans-serif" font-size="13" lengthAdjust="spacing" textLength="206" x="442.5" y="809.3818">createOrder(Announcements, price)</text><line style="stroke:#181818;stroke-width:1.0;" x1="670.5" x2="717.5" y1="840.9355" y2="840.9355"/><line style="stroke:#181818;stroke-width:1.0;" x1="717.5" x2="717.5" y1="840.9355" y2="853.9355"/><line style="stroke:#181818;stroke-width:1.0;" x1="676.5" x2="717.5" y1="853.9355" y2="853.9355"/><polygon fill="#181818" points="686.5,849.9355,676.5,853.9355,686.5,857.9355,682.5,853.9355" style="stroke:#181818;stroke-width:1.0;"/><text fill="#000000" font-family="sans-serif" font-size="13" font-weight="bold" lengthAdjust="spacing" textLength="14" x="682.5" y="835.6729">22</text><text fill="#000000" font-family="sans-serif" font-size="13" lengthAdjust="spacing" textLength="136" x="700.5" y="835.6729">getClientFromSession()</text><polygon fill="#181818" points="1912.5,886.2266,1922.5,890.2266,1912.5,894.2266,1916.5,890.2266" style="stroke:#181818;stroke-width:1.0;"/><line style="stroke:#181818;stroke-width:1.0;" x1="675.5" x2="1918.5" y1="890.2266" y2="890.2266"/><text fill="#000000" font-family="sans-serif" font-size="13" font-weight="bold" lengthAdjust="spacing" textLength="14" x="682.5" y="884.9639">23</text><text fill="#000000" font-family="sans-serif" font-size="13" lengthAdjust="spacing" textLength="75" x="700.5" y="884.9639">getInstance()</text><polygon fill="#181818" points="686.5,917.5176,676.5,921.5176,686.5,925.5176,682.5,921.5176" style="stroke:#181818;stroke-width:1.0;"/><line style="stroke:#181818;stroke-width:1.0;" x1="680.5" x2="1928.5" y1="921.5176" y2="921.5176"/><text fill="#000000" font-family="sans-serif" font-size="13" font-weight="bold" lengthAdjust="spacing" textLength="14" x="692.5" y="916.2549">24</text><text fill="#000000" font-family="sans-serif" font-size="13" lengthAdjust="spacing" textLength="68" x="710.5" y="916.2549">appSession</text><polygon fill="#181818" points="2059.5,948.8086,2069.5,952.8086,2059.5,956.8086,2063.5,952.8086" style="stroke:#181818;stroke-width:1.0;"/><line style="stroke:#181818;stroke-width:1.0;" x1="675.5" x2="2065.5" y1="952.8086" y2="952.8086"/><text fill="#000000" font-family="sans-serif" font-size="13" font-weight="bold" lengthAdjust="spacing" textLength="14" x="682.5" y="947.5459">25</text><text fill="#000000" font-family="sans-serif" font-size="13" lengthAdjust="spacing" textLength="115" x="700.5" y="947.5459">getCurrentSession()</text><polygon fill="#181818" points="686.5,980.0996,676.5,984.0996,686.5,988.0996,682.5,984.0996" style="stroke:#181818;stroke-width:1.0;"/><line style="stroke:#181818;stroke-width:1.0;stroke-dasharray:2.0,2.0;" x1="680.5" x2="2075.5" y1="984.0996" y2="984.0996"/><text fill="#000000" font-family="sans-serif" font-size="13" font-weight="bold" lengthAdjust="spacing" textLength="14" x="692.5" y="978.8369">26</text><text fill="#000000" font-family="sans-serif" font-size="13" lengthAdjust="spacing" textLength="87" x="710.5" y="978.8369">currentSession</text><polygon fill="#181818" points="2192.5,1011.3906,2202.5,1015.3906,2192.5,1019.3906,2196.5,1015.3906" style="stroke:#181818;stroke-width:1.0;"/><line style="stroke:#181818;stroke-width:1.0;" x1="675.5" x2="2198.5" y1="1015.3906" y2="1015.3906"/><text fill="#000000" font-family="sans-serif" font-size="13" font-weight="bold" lengthAdjust="spacing" textLength="14" x="682.5" y="1010.1279">27</text><text fill="#000000" font-family="sans-serif" font-size="13" lengthAdjust="spacing" textLength="135" x="700.5" y="1010.1279">name = getUserName()</text><polygon fill="#181818" points="686.5,1042.6816,676.5,1046.6816,686.5,1050.6816,682.5,1046.6816" style="stroke:#181818;stroke-width:1.0;"/><line style="stroke:#181818;stroke-width:1.0;stroke-dasharray:2.0,2.0;" x1="680.5" x2="2208.5" y1="1046.6816" y2="1046.6816"/><text fill="#000000" font-family="sans-serif" font-size="13" font-weight="bold" lengthAdjust="spacing" textLength="14" x="692.5" y="1041.4189">28</text><text fill="#000000" font-family="sans-serif" font-size="13" lengthAdjust="spacing" textLength="32" x="710.5" y="1041.4189">name</text><polygon fill="#181818" points="2714.5,1073.9727,2724.5,1077.9727,2714.5,1081.9727,2718.5,1077.9727" style="stroke:#181818;stroke-width:1.0;"/><line style="stroke:#181818;stroke-width:1.0;" x1="675.5" x2="2720.5" y1="1077.9727" y2="1077.9727"/><text fill="#000000" font-family="sans-serif" font-size="13" font-weight="bold" lengthAdjust="spacing" textLength="14" x="682.5" y="1072.71">29</text><text fill="#000000" font-family="sans-serif" font-size="13" lengthAdjust="spacing" textLength="121" x="700.5" y="1072.71">getClientRepository()</text><polygon fill="#181818" points="686.5,1105.2637,676.5,1109.2637,686.5,1113.2637,682.5,1109.2637" style="stroke:#181818;stroke-width:1.0;"/><line style="stroke:#181818;stroke-width:1.0;stroke-dasharray:2.0,2.0;" x1="680.5" x2="2730.5" y1="1109.2637" y2="1109.2637"/><text fill="#000000" font-family="sans-serif" font-size="13" font-weight="bold" lengthAdjust="spacing" textLength="14" x="692.5" y="1104.001">30</text><text fill="#000000" font-family="sans-serif" font-size="13" lengthAdjust="spacing" textLength="95" x="710.5" y="1104.001">ClientRepository</text><polygon fill="#181818" points="1455,1136.5547,1465,1140.5547,1455,1144.5547,1459,1140.5547" style="stroke:#181818;stroke-width:1.0;"/><line style="stroke:#181818;stroke-width:1.0;" x1="675.5" x2="1461" y1="1140.5547" y2="1140.5547"/><text fill="#000000" font-family="sans-serif" font-size="13" font-weight="bold" lengthAdjust="spacing" textLength="14" x="682.5" y="1135.292">31</text><text fill="#000000" font-family="sans-serif" font-size="13" lengthAdjust="spacing" textLength="167" x="700.5" y="1135.292">getClientByUserName(email)</text><polygon fill="#181818" points="686.5,1167.8457,676.5,1171.8457,686.5,1175.8457,682.5,1171.8457" style="stroke:#181818;stroke-width:1.0;"/><line style="stroke:#181818;stroke-width:1.0;stroke-dasharray:2.0,2.0;" x1="680.5" x2="1471" y1="1171.8457" y2="1171.8457"/><text fill="#000000" font-family="sans-serif" font-size="13" font-weight="bold" lengthAdjust="spacing" textLength="14" x="692.5" y="1166.583">32</text><text fill="#000000" font-family="sans-serif" font-size="13" lengthAdjust="spacing" textLength="59" x="710.5" y="1166.583">ClientDTO</text><line style="stroke:#181818;stroke-width:1.0;stroke-dasharray:2.0,2.0;" x1="633.5" x2="675.5" y1="1208.1367" y2="1208.1367"/><line style="stroke:#181818;stroke-width:1.0;stroke-dasharray:2.0,2.0;" x1="633.5" x2="633.5" y1="1208.1367" y2="1221.1367"/><line style="stroke:#181818;stroke-width:1.0;stroke-dasharray:2.0,2.0;" x1="633.5" x2="680.5" y1="1221.1367" y2="1221.1367"/><polygon fill="#181818" points="660.5,1217.1367,670.5,1221.1367,660.5,1225.1367,664.5,1221.1367" style="stroke:#181818;stroke-width:1.0;"/><text fill="#000000" font-family="sans-serif" font-size="13" font-weight="bold" lengthAdjust="spacing" textLength="14" x="624.5" y="1202.874">33</text><text fill="#000000" font-family="sans-serif" font-size="13" lengthAdjust="spacing" textLength="33" x="642.5" y="1202.874">Client</text><polygon fill="#181818" points="998,1243.4277,1008,1247.4277,998,1251.4277,1002,1247.4277" style="stroke:#181818;stroke-width:1.0;"/><line style="stroke:#181818;stroke-width:1.0;" x1="670.5" x2="1004" y1="1247.4277" y2="1247.4277"/><text fill="#000000" font-family="sans-serif" font-size="13" font-weight="bold" lengthAdjust="spacing" textLength="14" x="677.5" y="1242.165">34</text><text fill="#000000" font-family="sans-serif" font-size="13" lengthAdjust="spacing" textLength="293" x="695.5" y="1242.165">createOrder(AnnouncementsDTO, price,clientDTO)</text><polygon fill="#181818" points="1334,1274.7188,1344,1278.7188,1334,1282.7188,1338,1278.7188" style="stroke:#181818;stroke-width:1.0;"/><line style="stroke:#181818;stroke-width:1.0;" x1="1020" x2="1340" y1="1278.7188" y2="1278.7188"/><text fill="#000000" font-family="sans-serif" font-size="13" font-weight="bold" lengthAdjust="spacing" textLength="14" x="1027" y="1273.4561">35</text><text fill="#000000" font-family="sans-serif" font-size="13" lengthAdjust="spacing" textLength="284" x="1045" y="1273.4561">createOrder(AnnouncementDTO,price,ClientDTO)</text><rect fill="#E3E3E3" height="51.2422" rx="2.5" ry="2.5" style="stroke:#181818;stroke-width:0.5;" width="55" x="1346" y="1255.4277"/><text fill="#000000" font-family="sans-serif" font-size="14" lengthAdjust="spacing" textLength="37" x="1355" y="1277.5352">Order</text><text fill="#000000" font-family="sans-serif" font-size="14" lengthAdjust="spacing" textLength="41" x="1353" y="1296.1563">:Order</text><line style="stroke:#181818;stroke-width:1.0;" x1="1025" x2="1072" y1="1335.9609" y2="1335.9609"/><line style="stroke:#181818;stroke-width:1.0;" x1="1072" x2="1072" y1="1335.9609" y2="1348.9609"/><line style="stroke:#181818;stroke-width:1.0;" x1="1031" x2="1072" y1="1348.9609" y2="1348.9609"/><polygon fill="#181818" points="1041,1344.9609,1031,1348.9609,1041,1352.9609,1037,1348.9609" style="stroke:#181818;stroke-width:1.0;"/><text fill="#000000" font-family="sans-serif" font-size="13" font-weight="bold" lengthAdjust="spacing" textLength="14" x="1037" y="1330.6982">36</text><text fill="#000000" font-family="sans-serif" font-size="13" lengthAdjust="spacing" textLength="115" x="1055" y="1330.6982">validateOrder(Order)</text><line style="stroke:#181818;stroke-width:1.0;stroke-dasharray:2.0,2.0;" x1="1030" x2="1072" y1="1390.252" y2="1390.252"/><line style="stroke:#181818;stroke-width:1.0;stroke-dasharray:2.0,2.0;" x1="1072" x2="1072" y1="1390.252" y2="1403.252"/><line style="stroke:#181818;stroke-width:1.0;stroke-dasharray:2.0,2.0;" x1="1025" x2="1072" y1="1403.252" y2="1403.252"/><polygon fill="#181818" points="1035,1399.252,1025,1403.252,1035,1407.252,1031,1403.252" style="stroke:#181818;stroke-width:1.0;"/><text fill="#000000" font-family="sans-serif" font-size="13" font-weight="bold" lengthAdjust="spacing" textLength="14" x="1037" y="1384.9893">37</text><text fill="#000000" font-family="sans-serif" font-size="13" lengthAdjust="spacing" textLength="4" x="1055" y="1384.9893">&#160;</text><line style="stroke:#181818;stroke-width:1.0;stroke-dasharray:2.0,2.0;" x1="1025" x2="1067" y1="1429.543" y2="1429.543"/><line style="stroke:#181818;stroke-width:1.0;stroke-dasharray:2.0,2.0;" x1="1067" x2="1067" y1="1429.543" y2="1442.543"/><line style="stroke:#181818;stroke-width:1.0;stroke-dasharray:2.0,2.0;" x1="1026" x2="1067" y1="1442.543" y2="1442.543"/><polygon fill="#181818" points="1036,1438.543,1026,1442.543,1036,1446.543,1032,1442.543" style="stroke:#181818;stroke-width:1.0;"/><text fill="#000000" font-family="sans-serif" font-size="13" font-weight="bold" lengthAdjust="spacing" textLength="14" x="1032" y="1424.2803">38</text><text fill="#000000" font-family="sans-serif" font-size="13" lengthAdjust="spacing" textLength="4" x="1050" y="1424.2803">&#160;</text><polygon fill="#181818" points="681.5,1469.834,671.5,1473.834,681.5,1477.834,677.5,1473.834" style="stroke:#181818;stroke-width:1.0;"/><line style="stroke:#181818;stroke-width:1.0;stroke-dasharray:2.0,2.0;" x1="675.5" x2="1009" y1="1473.834" y2="1473.834"/><text fill="#000000" font-family="sans-serif" font-size="13" font-weight="bold" lengthAdjust="spacing" textLength="14" x="687.5" y="1468.5713">39</text><text fill="#000000" font-family="sans-serif" font-size="13" lengthAdjust="spacing" textLength="58" x="705.5" y="1468.5713">OrderDTO</text><polygon fill="#181818" points="428.5,1501.125,418.5,1505.125,428.5,1509.125,424.5,1505.125" style="stroke:#181818;stroke-width:1.0;"/><line style="stroke:#181818;stroke-width:1.0;stroke-dasharray:2.0,2.0;" x1="422.5" x2="664.5" y1="1505.125" y2="1505.125"/><text fill="#000000" font-family="sans-serif" font-size="13" font-weight="bold" lengthAdjust="spacing" textLength="14" x="434.5" y="1499.8623">40</text><text fill="#000000" font-family="sans-serif" font-size="13" lengthAdjust="spacing" textLength="58" x="452.5" y="1499.8623">OrderDTO</text><polygon fill="#181818" points="68.5,1532.416,58.5,1536.416,68.5,1540.416,64.5,1536.416" style="stroke:#181818;stroke-width:1.0;"/><line style="stroke:#181818;stroke-width:1.0;stroke-dasharray:2.0,2.0;" x1="62.5" x2="411.5" y1="1536.416" y2="1536.416"/><text fill="#000000" font-family="sans-serif" font-size="13" font-weight="bold" lengthAdjust="spacing" textLength="14" x="74.5" y="1531.1533">41</text><text fill="#000000" font-family="sans-serif" font-size="13" lengthAdjust="spacing" textLength="158" x="92.5" y="1531.1533">displays operation success</text><!--SRC=[bLVRJXin47tVhx1uAI3s1w8sKhgKAb8AY2HlI9NPDOd5njxQNjhyVSUNx7fzeMaUWDWpPyvuhiWtoZeiy04TEEFrNl03GKhqf933JOVhDxmZQtLi2HAaLfZjMbz0xd73VrEsGw-ubQGeSAyuwmylH1J5fprj27hbNBtmFmMk5HVeecefOMgsbKHS82nHjIe0Ij6QTfWfT36h1C6AF8Y6YEtIY6oNUP6ACoLusvxGDay1te8nthEQ7C2gV28TbnHu79_PB7DZS1RtzrCOOsoY7fmOjOUdsuJQITY8R1PFt-uMKodx9YFMx9c5HzQxu33lwG_STKJCdkCp0sJ_35vrqNKjhR6YdAs9bF3BoFvSF3vE9K7P2UXNJ6j5IdKl190O5NK6-1hhR-lruY7lqktcOUeF71X5-5texABla1Gwdme4dsg5oZca3feXf3ZwsXyHHe-2Wz_gQ4K67KWmSw0_e05wEe-khq6tDga6rzkbEuR37L41aSihZu7EGGsr4xplq7UYq0RBDrJ1vGwYXbPKgcAqQDXgO30mndPDTQb1CLbxIoQX-6e2XdozmMX2SMf1VrBefNDh1lNjRYcH4zM6d6_cvCZZQh69NyehivmZMh4eOku6S2IRGStnjgWfeXcW17SRPX-ZvRpJOgY5Y2B-Yd0WdtRn7Eue9rNENMqdap1fprNxvDAUbNDTLRQTnc1fjD0j-5uEf0AGN3Z2AyUcd6USFXVNUUhV4jP4kPIBUJcMk2zYwZLZCHTBby7RvUUoj9WfK0zew1hGQCfv1IdUKDcr-2ZJN3nLQ5z1nvEaXM4j8H-d1CUG9dlVgV_fPz2F8CYldaZ0QR32HS9xPpcmheuTaITbqXXjT3aXSeCwGMjozJ4VdulSyz_IEGQO4pJmimdidSzMzYy7El4nvZ8EXM4ac8d-WLDnOFKVanbYn_aTB5vk3bwcL9DTIm_bi-Q2cTvX_kj3DBJISPpdajo0fBkder5DfdkEJ0HZYb5p6SXCruHirUNus2LYXXY6PVQBPgRNZ7lubkFarew8bZttc6d879yKY3y9lN2VEm7_CV-YLV2_1r-qT8uSlnw7LoC7JDiCqOX3p3eKyLkilJFRMuPyte2165hh2IjiZ7xzdDo65Vs34WOsheflwXEzgyYhyGdqmZzSmnTjmMxurzUmUERiQ3FMIXLRcO3xLXs-yU0TjxGPiCtFJ9H2b079GkNUFcayeH89k8WOIk6e_fSH6oJJcRC8gPcP65_U_DGxl_a71NfzNKDdALAZmSTT5Ny1]--></g></svg>
