<?xml version="1.0" encoding="us-ascii" standalone="no"?><svg xmlns="http://www.w3.org/2000/svg" xmlns:xlink="http://www.w3.org/1999/xlink" contentStyleType="text/css" height="825px" preserveAspectRatio="none" style="width:1002px;height:825px;background:#FFFFFF;" version="1.1" viewBox="0 0 1002 825" width="1002px" zoomAndPan="magnify"><defs/><g><rect fill="#FFFFFF" height="630.4512" style="stroke:#181818;stroke-width:1.0;" width="10" x="37.5" y="93.6211"/><rect fill="#FFFFFF" height="201.707" style="stroke:#181818;stroke-width:1.0;" width="10" x="385.5" y="116.9121"/><rect fill="#FFFFFF" height="31.291" style="stroke:#181818;stroke-width:1.0;" width="10" x="385.5" y="349.9102"/><rect fill="#FFFFFF" height="31.291" style="stroke:#181818;stroke-width:1.0;" width="10" x="385.5" y="412.4922"/><rect fill="#FFFFFF" height="248.998" style="stroke:#181818;stroke-width:1.0;" width="10" x="385.5" y="475.0742"/><rect fill="#FFFFFF" height="95.5039" style="stroke:#181818;stroke-width:1.0;" width="10" x="638.5" y="191.8242"/><rect fill="#FFFFFF" height="186.416" style="stroke:#181818;stroke-width:1.0;" width="10" x="638.5" y="506.3652"/><rect fill="#FFFFFF" height="79.543" style="stroke:#181818;stroke-width:1.0;" width="10" x="926.5" y="581.9473"/><line style="stroke:#181818;stroke-width:0.5;stroke-dasharray:5.0,5.0;" x1="42" x2="42" y1="83.6211" y2="742.0723"/><line style="stroke:#181818;stroke-width:0.5;stroke-dasharray:5.0,5.0;" x1="390.5" x2="390.5" y1="83.6211" y2="742.0723"/><line style="stroke:#181818;stroke-width:0.5;stroke-dasharray:5.0,5.0;" x1="643.5" x2="643.5" y1="156.7227" y2="742.0723"/><line style="stroke:#181818;stroke-width:0.5;stroke-dasharray:5.0,5.0;" x1="931" x2="931" y1="83.6211" y2="742.0723"/><text fill="#000000" font-family="sans-serif" font-size="14" lengthAdjust="spacing" textLength="69" x="5" y="80.1074">Client:User</text><ellipse cx="42.5" cy="13.5" fill="#E3E3E3" rx="8" ry="8" style="stroke:#181818;stroke-width:0.5;"/><path d="M42.5,21.5 L42.5,48.5 M29.5,29.5 L55.5,29.5 M42.5,48.5 L29.5,63.5 M42.5,48.5 L55.5,63.5 " fill="none" style="stroke:#181818;stroke-width:0.5;"/><text fill="#000000" font-family="sans-serif" font-size="14" lengthAdjust="spacing" textLength="69" x="5" y="756.1797">Client:User</text><ellipse cx="42.5" cy="768.1934" fill="#E3E3E3" rx="8" ry="8" style="stroke:#181818;stroke-width:0.5;"/><path d="M42.5,776.1934 L42.5,803.1934 M29.5,784.1934 L55.5,784.1934 M42.5,803.1934 L29.5,818.1934 M42.5,803.1934 L55.5,818.1934 " fill="none" style="stroke:#181818;stroke-width:0.5;"/><rect fill="#E3E3E3" height="32.6211" rx="2.5" ry="2.5" style="stroke:#181818;stroke-width:0.5;" width="110" x="335.5" y="50"/><text fill="#000000" font-family="sans-serif" font-size="14" lengthAdjust="spacing" textLength="96" x="342.5" y="72.1074">:CreateOrderUI</text><rect fill="#E3E3E3" height="32.6211" rx="2.5" ry="2.5" style="stroke:#181818;stroke-width:0.5;" width="110" x="335.5" y="741.0723"/><text fill="#000000" font-family="sans-serif" font-size="14" lengthAdjust="spacing" textLength="96" x="342.5" y="763.1797">:CreateOrderUI</text><rect fill="#E3E3E3" height="32.6211" rx="2.5" ry="2.5" style="stroke:#181818;stroke-width:0.5;" width="160" x="563.5" y="741.0723"/><text fill="#000000" font-family="sans-serif" font-size="14" lengthAdjust="spacing" textLength="146" x="570.5" y="763.1797">:CreateOrderController</text><rect fill="#E3E3E3" height="51.2422" rx="2.5" ry="2.5" style="stroke:#181818;stroke-width:0.5;" width="123" x="870" y="31.3789"/><text fill="#000000" font-family="sans-serif" font-size="14" lengthAdjust="spacing" textLength="105" x="879" y="53.4863">OrderRepository</text><text fill="#000000" font-family="sans-serif" font-size="14" lengthAdjust="spacing" textLength="109" x="877" y="72.1074">:OrderRepository</text><rect fill="#E3E3E3" height="51.2422" rx="2.5" ry="2.5" style="stroke:#181818;stroke-width:0.5;" width="123" x="870" y="741.0723"/><text fill="#000000" font-family="sans-serif" font-size="14" lengthAdjust="spacing" textLength="105" x="879" y="763.1797">OrderRepository</text><text fill="#000000" font-family="sans-serif" font-size="14" lengthAdjust="spacing" textLength="109" x="877" y="781.8008">:OrderRepository</text><rect fill="#FFFFFF" height="630.4512" style="stroke:#181818;stroke-width:1.0;" width="10" x="37.5" y="93.6211"/><rect fill="#FFFFFF" height="201.707" style="stroke:#181818;stroke-width:1.0;" width="10" x="385.5" y="116.9121"/><rect fill="#FFFFFF" height="31.291" style="stroke:#181818;stroke-width:1.0;" width="10" x="385.5" y="349.9102"/><rect fill="#FFFFFF" height="31.291" style="stroke:#181818;stroke-width:1.0;" width="10" x="385.5" y="412.4922"/><rect fill="#FFFFFF" height="248.998" style="stroke:#181818;stroke-width:1.0;" width="10" x="385.5" y="475.0742"/><rect fill="#FFFFFF" height="95.5039" style="stroke:#181818;stroke-width:1.0;" width="10" x="638.5" y="191.8242"/><rect fill="#FFFFFF" height="186.416" style="stroke:#181818;stroke-width:1.0;" width="10" x="638.5" y="506.3652"/><rect fill="#FFFFFF" height="79.543" style="stroke:#181818;stroke-width:1.0;" width="10" x="926.5" y="581.9473"/><polygon fill="#181818" points="373.5,112.9121,383.5,116.9121,373.5,120.9121,377.5,116.9121" style="stroke:#181818;stroke-width:1.0;"/><line style="stroke:#181818;stroke-width:1.0;" x1="47.5" x2="379.5" y1="116.9121" y2="116.9121"/><text fill="#000000" font-family="sans-serif" font-size="13" font-weight="bold" lengthAdjust="spacing" textLength="7" x="54.5" y="111.6494">1</text><text fill="#000000" font-family="sans-serif" font-size="13" lengthAdjust="spacing" textLength="102" x="65.5" y="111.6494">to Buy a Property</text><polygon fill="#181818" points="551.5,144.2031,561.5,148.2031,551.5,152.2031,555.5,148.2031" style="stroke:#181818;stroke-width:1.0;"/><line style="stroke:#181818;stroke-width:1.0;" x1="395.5" x2="557.5" y1="148.2031" y2="148.2031"/><text fill="#000000" font-family="sans-serif" font-size="13" font-weight="bold" lengthAdjust="spacing" textLength="7" x="402.5" y="142.9404">2</text><text fill="#000000" font-family="sans-serif" font-size="13" lengthAdjust="spacing" textLength="36" x="413.5" y="142.9404">create</text><rect fill="#E3E3E3" height="32.6211" rx="2.5" ry="2.5" style="stroke:#181818;stroke-width:0.5;" width="160" x="563.5" y="124.9121"/><text fill="#000000" font-family="sans-serif" font-size="14" lengthAdjust="spacing" textLength="146" x="570.5" y="147.0195">:CreateOrderController</text><polygon fill="#181818" points="626.5,187.8242,636.5,191.8242,626.5,195.8242,630.5,191.8242" style="stroke:#181818;stroke-width:1.0;"/><line style="stroke:#181818;stroke-width:1.0;" x1="395.5" x2="632.5" y1="191.8242" y2="191.8242"/><text fill="#000000" font-family="sans-serif" font-size="13" font-weight="bold" lengthAdjust="spacing" textLength="7" x="402.5" y="186.5615">3</text><text fill="#000000" font-family="sans-serif" font-size="13" lengthAdjust="spacing" textLength="138" x="413.5" y="186.5615">getAnnouncementsDTO</text><rect fill="none" height="59.2129" style="stroke:#000000;stroke-width:1.5;" width="166" x="560.5" y="199.8242"/><path d="M560.5,199.8242 L622.5,199.8242 L622.5,208.8242 L612.5,218.8242 L560.5,218.8242 L560.5,199.8242 " fill="#EEEEEE" style="stroke:#000000;stroke-width:2.0;"/><text fill="#000000" font-family="sans-serif" font-size="13" font-weight="bold" lengthAdjust="spacing" textLength="17" x="573.5" y="215.8525">ref</text><text fill="#000000" font-family="sans-serif" font-size="12" lengthAdjust="spacing" textLength="144" x="571.5" y="235.7734">Get list of Announcements</text><text fill="#000000" font-family="sans-serif" font-size="12" lengthAdjust="spacing" textLength="3" x="642" y="251.7344">&#160;</text><polygon fill="#181818" points="406.5,283.3281,396.5,287.3281,406.5,291.3281,402.5,287.3281" style="stroke:#181818;stroke-width:1.0;"/><line style="stroke:#181818;stroke-width:1.0;stroke-dasharray:2.0,2.0;" x1="400.5" x2="642.5" y1="287.3281" y2="287.3281"/><text fill="#000000" font-family="sans-serif" font-size="13" font-weight="bold" lengthAdjust="spacing" textLength="7" x="412.5" y="282.0654">4</text><text fill="#000000" font-family="sans-serif" font-size="13" lengthAdjust="spacing" textLength="115" x="423.5" y="282.0654">AnnouncementsList</text><polygon fill="#181818" points="58.5,314.6191,48.5,318.6191,58.5,322.6191,54.5,318.6191" style="stroke:#181818;stroke-width:1.0;"/><line style="stroke:#181818;stroke-width:1.0;stroke-dasharray:2.0,2.0;" x1="52.5" x2="389.5" y1="318.6191" y2="318.6191"/><text fill="#000000" font-family="sans-serif" font-size="13" font-weight="bold" lengthAdjust="spacing" textLength="7" x="64.5" y="313.3564">5</text><text fill="#000000" font-family="sans-serif" font-size="13" lengthAdjust="spacing" textLength="296" x="75.5" y="313.3564">shows  Announcements list and asks to select one</text><polygon fill="#181818" points="373.5,345.9102,383.5,349.9102,373.5,353.9102,377.5,349.9102" style="stroke:#181818;stroke-width:1.0;"/><line style="stroke:#181818;stroke-width:1.0;" x1="47.5" x2="379.5" y1="349.9102" y2="349.9102"/><text fill="#000000" font-family="sans-serif" font-size="13" font-weight="bold" lengthAdjust="spacing" textLength="7" x="54.5" y="344.6475">6</text><text fill="#000000" font-family="sans-serif" font-size="13" lengthAdjust="spacing" textLength="158" x="65.5" y="344.6475">selects an Announcements</text><polygon fill="#181818" points="58.5,377.2012,48.5,381.2012,58.5,385.2012,54.5,381.2012" style="stroke:#181818;stroke-width:1.0;"/><line style="stroke:#181818;stroke-width:1.0;stroke-dasharray:2.0,2.0;" x1="52.5" x2="389.5" y1="381.2012" y2="381.2012"/><text fill="#000000" font-family="sans-serif" font-size="13" font-weight="bold" lengthAdjust="spacing" textLength="7" x="64.5" y="375.9385">7</text><text fill="#000000" font-family="sans-serif" font-size="13" lengthAdjust="spacing" textLength="79" x="75.5" y="375.9385">requests data</text><polygon fill="#181818" points="373.5,408.4922,383.5,412.4922,373.5,416.4922,377.5,412.4922" style="stroke:#181818;stroke-width:1.0;"/><line style="stroke:#181818;stroke-width:1.0;" x1="47.5" x2="379.5" y1="412.4922" y2="412.4922"/><text fill="#000000" font-family="sans-serif" font-size="13" font-weight="bold" lengthAdjust="spacing" textLength="7" x="54.5" y="407.2295">8</text><text fill="#000000" font-family="sans-serif" font-size="13" lengthAdjust="spacing" textLength="264" x="65.5" y="407.2295">types requested data (Announcements, price)</text><polygon fill="#181818" points="58.5,439.7832,48.5,443.7832,58.5,447.7832,54.5,443.7832" style="stroke:#181818;stroke-width:1.0;"/><line style="stroke:#181818;stroke-width:1.0;stroke-dasharray:2.0,2.0;" x1="52.5" x2="389.5" y1="443.7832" y2="443.7832"/><text fill="#000000" font-family="sans-serif" font-size="13" font-weight="bold" lengthAdjust="spacing" textLength="7" x="64.5" y="438.5205">9</text><text fill="#000000" font-family="sans-serif" font-size="13" lengthAdjust="spacing" textLength="303" x="75.5" y="438.5205">shows selected Announcements and requested data</text><polygon fill="#181818" points="373.5,471.0742,383.5,475.0742,373.5,479.0742,377.5,475.0742" style="stroke:#181818;stroke-width:1.0;"/><line style="stroke:#181818;stroke-width:1.0;" x1="47.5" x2="379.5" y1="475.0742" y2="475.0742"/><text fill="#000000" font-family="sans-serif" font-size="13" font-weight="bold" lengthAdjust="spacing" textLength="14" x="54.5" y="469.8115">10</text><text fill="#000000" font-family="sans-serif" font-size="13" lengthAdjust="spacing" textLength="75" x="72.5" y="469.8115">submits data</text><polygon fill="#181818" points="626.5,502.3652,636.5,506.3652,626.5,510.3652,630.5,506.3652" style="stroke:#181818;stroke-width:1.0;"/><line style="stroke:#181818;stroke-width:1.0;" x1="395.5" x2="632.5" y1="506.3652" y2="506.3652"/><text fill="#000000" font-family="sans-serif" font-size="13" font-weight="bold" lengthAdjust="spacing" textLength="14" x="402.5" y="501.1025">11</text><text fill="#000000" font-family="sans-serif" font-size="13" lengthAdjust="spacing" textLength="206" x="420.5" y="501.1025">createOrder(Announcements, price)</text><line style="stroke:#181818;stroke-width:1.0;" x1="648.5" x2="690.5" y1="537.6563" y2="537.6563"/><line style="stroke:#181818;stroke-width:1.0;" x1="690.5" x2="690.5" y1="537.6563" y2="550.6563"/><line style="stroke:#181818;stroke-width:1.0;" x1="649.5" x2="690.5" y1="550.6563" y2="550.6563"/><polygon fill="#181818" points="659.5,546.6563,649.5,550.6563,659.5,554.6563,655.5,550.6563" style="stroke:#181818;stroke-width:1.0;"/><text fill="#000000" font-family="sans-serif" font-size="13" font-weight="bold" lengthAdjust="spacing" textLength="14" x="655.5" y="532.3936">12</text><text fill="#000000" font-family="sans-serif" font-size="13" lengthAdjust="spacing" textLength="158" x="673.5" y="532.3936">getClient from user session</text><polygon fill="#181818" points="914.5,577.9473,924.5,581.9473,914.5,585.9473,918.5,581.9473" style="stroke:#181818;stroke-width:1.0;"/><line style="stroke:#181818;stroke-width:1.0;" x1="648.5" x2="920.5" y1="581.9473" y2="581.9473"/><text fill="#000000" font-family="sans-serif" font-size="13" font-weight="bold" lengthAdjust="spacing" textLength="14" x="655.5" y="576.6846">13</text><text fill="#000000" font-family="sans-serif" font-size="13" lengthAdjust="spacing" textLength="241" x="673.5" y="576.6846">createOrder(Announcements, price,client)</text><rect fill="none" height="43.252" style="stroke:#000000;stroke-width:1.5;" width="129" x="867" y="589.9473"/><path d="M867,589.9473 L929,589.9473 L929,598.9473 L919,608.9473 L867,608.9473 L867,589.9473 " fill="#EEEEEE" style="stroke:#000000;stroke-width:2.0;"/><text fill="#000000" font-family="sans-serif" font-size="13" font-weight="bold" lengthAdjust="spacing" textLength="17" x="880" y="605.9756">ref</text><text fill="#000000" font-family="sans-serif" font-size="12" lengthAdjust="spacing" textLength="71" x="896" y="625.8965">Create Order</text><polygon fill="#181818" points="659.5,657.4902,649.5,661.4902,659.5,665.4902,655.5,661.4902" style="stroke:#181818;stroke-width:1.0;"/><line style="stroke:#181818;stroke-width:1.0;stroke-dasharray:2.0,2.0;" x1="653.5" x2="930.5" y1="661.4902" y2="661.4902"/><text fill="#000000" font-family="sans-serif" font-size="13" font-weight="bold" lengthAdjust="spacing" textLength="14" x="665.5" y="656.2275">14</text><text fill="#000000" font-family="sans-serif" font-size="13" lengthAdjust="spacing" textLength="32" x="683.5" y="656.2275">Order</text><polygon fill="#181818" points="406.5,688.7813,396.5,692.7813,406.5,696.7813,402.5,692.7813" style="stroke:#181818;stroke-width:1.0;"/><line style="stroke:#181818;stroke-width:1.0;stroke-dasharray:2.0,2.0;" x1="400.5" x2="642.5" y1="692.7813" y2="692.7813"/><text fill="#000000" font-family="sans-serif" font-size="13" font-weight="bold" lengthAdjust="spacing" textLength="14" x="412.5" y="687.5186">15</text><text fill="#000000" font-family="sans-serif" font-size="13" lengthAdjust="spacing" textLength="32" x="430.5" y="687.5186">Order</text><polygon fill="#181818" points="53.5,720.0723,43.5,724.0723,53.5,728.0723,49.5,724.0723" style="stroke:#181818;stroke-width:1.0;"/><line style="stroke:#181818;stroke-width:1.0;stroke-dasharray:2.0,2.0;" x1="47.5" x2="389.5" y1="724.0723" y2="724.0723"/><text fill="#000000" font-family="sans-serif" font-size="13" font-weight="bold" lengthAdjust="spacing" textLength="14" x="59.5" y="718.8096">16</text><text fill="#000000" font-family="sans-serif" font-size="13" lengthAdjust="spacing" textLength="158" x="77.5" y="718.8096">displays operation success</text><!--SRC=[ZLJBRjim4BppAnQ-j0cI7z2XGEi0HG033fpurWjDhMp24gbogQJw-owfwa55IieZkJCxim_ILPjQEbb1POrL5sSh1EyQ53Iyr59TvHcVVLiYE5HUcdCv3Q2BpEsRDcSeP4aeX6oyDKrrGYV4bulE4Gfh_Sd-4L9vws2pBJKQdnq9tGOamNOdcCfhfMjfF6oohKFfSUzoTCV7679yN0_PMkETBSkUxUKmuujH1wmjQSxV_ZBPx2RYzeS74HJgLoOEcWJmsUxW_XkdXmp0M_ZHj23XoTaQdM-xa0738kD5E8nWND1oUyjO5UKklFBR6VrtOsnZ55PS5tfusOyy3Wkmh-WwMp0vFz53gSc3BI31Zs0qUI0OBqPxWIsXYsBkUwy9uOwp3B4vhf04Jy5Ki4GN-qQGidHY9KkITALGJCAIvmciwGepOUPApehVnHBZrymkjc4kpE7l1ebvSkdbagT_cMVPVLiZzM3C8ng-9aBke7PQuSt7UjuNgJF6d6cnP6pTDD__gwNcLEd4utijoGIgSPa-C9NsVPoPwI1tgmq5_oJGy7wpFI9jJL-17i7BzddQEnNPRf9kfdx2qiBI6VPcDIBAYGeWIbYEuXLQVc3UhfMTznMAIQ_cGYOBjmoVRrhwEanI1hcckfGjGVYLfEToymWenPKNInCpvTs9lm00]--></g></svg>
