<?xml version="1.0" encoding="us-ascii" standalone="no"?><svg xmlns="http://www.w3.org/2000/svg" xmlns:xlink="http://www.w3.org/1999/xlink" contentStyleType="text/css" height="424px" preserveAspectRatio="none" style="width:635px;height:424px;background:#FFFFFF;" version="1.1" viewBox="0 0 635 424" width="635px" zoomAndPan="magnify"><defs/><g><rect fill="#FFFFFF" height="259.6973" style="stroke:#181818;stroke-width:1.0;" width="10" x="269" y="90.5332"/><rect fill="#FFFFFF" height="146.8242" style="stroke:#181818;stroke-width:1.0;" width="10" x="274" y="158.1152"/><rect fill="#FFFFFF" height="42.291" style="stroke:#181818;stroke-width:1.0;" width="10" x="279" y="218.3574"/><rect fill="none" height="214.4063" style="stroke:#000000;stroke-width:1.5;" width="426.5" x="202.5" y="105.5332"/><line style="stroke:#181818;stroke-width:0.5;stroke-dasharray:5.0,5.0;" x1="273.5" x2="273.5" y1="57.2422" y2="368.2305"/><line style="stroke:#181818;stroke-width:0.5;stroke-dasharray:5.0,5.0;" x1="591" x2="591" y1="165.9453" y2="368.2305"/><rect fill="#E3E3E3" height="51.2422" rx="2.5" ry="2.5" style="stroke:#181818;stroke-width:0.5;" width="123" x="212.5" y="5"/><text fill="#000000" font-family="sans-serif" font-size="14" lengthAdjust="spacing" textLength="105" x="221.5" y="27.1074">OrderRepository</text><text fill="#000000" font-family="sans-serif" font-size="14" lengthAdjust="spacing" textLength="109" x="219.5" y="45.7285">:OrderRepository</text><rect fill="#E3E3E3" height="51.2422" rx="2.5" ry="2.5" style="stroke:#181818;stroke-width:0.5;" width="123" x="212.5" y="367.2305"/><text fill="#000000" font-family="sans-serif" font-size="14" lengthAdjust="spacing" textLength="105" x="221.5" y="389.3379">OrderRepository</text><text fill="#000000" font-family="sans-serif" font-size="14" lengthAdjust="spacing" textLength="109" x="219.5" y="407.959">:OrderRepository</text><rect fill="#E3E3E3" height="51.2422" rx="2.5" ry="2.5" style="stroke:#181818;stroke-width:0.5;" width="55" x="564" y="367.2305"/><text fill="#000000" font-family="sans-serif" font-size="14" lengthAdjust="spacing" textLength="37" x="573" y="389.3379">Order</text><text fill="#000000" font-family="sans-serif" font-size="14" lengthAdjust="spacing" textLength="41" x="571" y="407.959">:Order</text><rect fill="#FFFFFF" height="259.6973" style="stroke:#181818;stroke-width:1.0;" width="10" x="269" y="90.5332"/><rect fill="#FFFFFF" height="146.8242" style="stroke:#181818;stroke-width:1.0;" width="10" x="274" y="158.1152"/><rect fill="#FFFFFF" height="42.291" style="stroke:#181818;stroke-width:1.0;" width="10" x="279" y="218.3574"/><polygon fill="#181818" points="257,86.5332,267,90.5332,257,94.5332,261,90.5332" style="stroke:#181818;stroke-width:1.0;"/><line style="stroke:#181818;stroke-width:1.0;" x1="0" x2="263" y1="90.5332" y2="90.5332"/><text fill="#000000" font-family="sans-serif" font-size="13" font-weight="bold" lengthAdjust="spacing" textLength="14" x="7" y="85.2705">14</text><text fill="#000000" font-family="sans-serif" font-size="13" lengthAdjust="spacing" textLength="232" x="25" y="85.2705">createOrder(Announcement,price,Client)</text><path d="M202.5,105.5332 L356.5,105.5332 L356.5,114.8242 L346.5,124.8242 L202.5,124.8242 L202.5,105.5332 " fill="#EEEEEE" style="stroke:#000000;stroke-width:1.5;"/><rect fill="none" height="214.4063" style="stroke:#000000;stroke-width:1.5;" width="426.5" x="202.5" y="105.5332"/><text fill="#000000" font-family="sans-serif" font-size="13" font-weight="bold" lengthAdjust="spacing" textLength="109" x="217.5" y="120.5615">Create Employee</text><polygon fill="#181818" points="552,144.1152,562,148.1152,552,152.1152,556,148.1152" style="stroke:#181818;stroke-width:1.0;"/><line style="stroke:#181818;stroke-width:1.0;" x1="279" x2="558" y1="148.1152" y2="148.1152"/><text fill="#000000" font-family="sans-serif" font-size="13" font-weight="bold" lengthAdjust="spacing" textLength="25" x="286" y="142.8525">14.1</text><text fill="#000000" font-family="sans-serif" font-size="13" lengthAdjust="spacing" textLength="232" x="315" y="142.8525">createOrder(Announcement,price,Client)</text><rect fill="#E3E3E3" height="51.2422" rx="2.5" ry="2.5" style="stroke:#181818;stroke-width:0.5;" width="55" x="564" y="124.8242"/><text fill="#000000" font-family="sans-serif" font-size="14" lengthAdjust="spacing" textLength="37" x="573" y="146.9316">Order</text><text fill="#000000" font-family="sans-serif" font-size="14" lengthAdjust="spacing" textLength="41" x="571" y="165.5527">:Order</text><line style="stroke:#181818;stroke-width:1.0;" x1="284" x2="331" y1="205.3574" y2="205.3574"/><line style="stroke:#181818;stroke-width:1.0;" x1="331" x2="331" y1="205.3574" y2="218.3574"/><line style="stroke:#181818;stroke-width:1.0;" x1="290" x2="331" y1="218.3574" y2="218.3574"/><polygon fill="#181818" points="300,214.3574,290,218.3574,300,222.3574,296,218.3574" style="stroke:#181818;stroke-width:1.0;"/><text fill="#000000" font-family="sans-serif" font-size="13" font-weight="bold" lengthAdjust="spacing" textLength="25" x="296" y="200.0947">14.2</text><text fill="#000000" font-family="sans-serif" font-size="13" lengthAdjust="spacing" textLength="115" x="325" y="200.0947">validateOrder(Order)</text><line style="stroke:#181818;stroke-width:1.0;stroke-dasharray:2.0,2.0;" x1="289" x2="331" y1="259.6484" y2="259.6484"/><line style="stroke:#181818;stroke-width:1.0;stroke-dasharray:2.0,2.0;" x1="331" x2="331" y1="259.6484" y2="272.6484"/><line style="stroke:#181818;stroke-width:1.0;stroke-dasharray:2.0,2.0;" x1="284" x2="331" y1="272.6484" y2="272.6484"/><polygon fill="#181818" points="294,268.6484,284,272.6484,294,276.6484,290,272.6484" style="stroke:#181818;stroke-width:1.0;"/><text fill="#000000" font-family="sans-serif" font-size="13" font-weight="bold" lengthAdjust="spacing" textLength="25" x="296" y="254.3857">14.3</text><text fill="#000000" font-family="sans-serif" font-size="13" lengthAdjust="spacing" textLength="4" x="325" y="254.3857">&#160;</text><line style="stroke:#181818;stroke-width:1.0;stroke-dasharray:2.0,2.0;" x1="284" x2="326" y1="303.9395" y2="303.9395"/><line style="stroke:#181818;stroke-width:1.0;stroke-dasharray:2.0,2.0;" x1="326" x2="326" y1="303.9395" y2="316.9395"/><line style="stroke:#181818;stroke-width:1.0;stroke-dasharray:2.0,2.0;" x1="279" x2="326" y1="316.9395" y2="316.9395"/><polygon fill="#181818" points="289,312.9395,279,316.9395,289,320.9395,285,316.9395" style="stroke:#181818;stroke-width:1.0;"/><text fill="#000000" font-family="sans-serif" font-size="13" font-weight="bold" lengthAdjust="spacing" textLength="25" x="291" y="298.6768">14.4</text><text fill="#000000" font-family="sans-serif" font-size="13" lengthAdjust="spacing" textLength="4" x="320" y="298.6768">&#160;</text><polygon fill="#181818" points="11,346.2305,1,350.2305,11,354.2305,7,350.2305" style="stroke:#181818;stroke-width:1.0;"/><line style="stroke:#181818;stroke-width:1.0;stroke-dasharray:2.0,2.0;" x1="5" x2="273" y1="350.2305" y2="350.2305"/><text fill="#000000" font-family="sans-serif" font-size="13" font-weight="bold" lengthAdjust="spacing" textLength="14" x="17" y="344.9678">15</text><text fill="#000000" font-family="sans-serif" font-size="13" lengthAdjust="spacing" textLength="32" x="35" y="344.9678">Order</text><!--SRC=[bP11ImCn48Nl-HL3JxPqXO9U5X6Mqdeih1wzZDbn6vfCGfAjxBytpTgbNHKnXq3UlFVDJC91iKEF1enbA_VU6eBeEn9Xh3YK1spfEVQQm9ECoAs-D8GzDlP3SGllg0C9aUIef7B84MOxtv2loTcWelNzAvSJPGOOO5S__H0xcxFbfQetsqe8xABbphoHXzMTA1vFsH90Ui98sNvJCTkE9HdYk7HUILgkjKgF-IH-kn8eepgcP1u1qcczxHoiCmusncdRKreAlawoGMewJBDO_AFpcV2jumITzpcYLis8pVVyolmhPIGDgAjQGrSnyLTcuZz9nCsGk_p8-wmy54Mcb93d5TDkdm00]--></g></svg>
