<?xml version="1.0" encoding="us-ascii" standalone="no"?><svg xmlns="http://www.w3.org/2000/svg" xmlns:xlink="http://www.w3.org/1999/xlink" contentStyleType="text/css" height="1355px" preserveAspectRatio="none" style="width:2790px;height:1355px;background:#FFFFFF;" version="1.1" viewBox="0 0 2790 1355" width="2790px" zoomAndPan="magnify"><defs/><g><!--class Repositories--><g id="elem_Repositories"><rect codeLine="11" fill="#F1F1F1" height="252.832" id="Repositories" rx="2.5" ry="2.5" style="stroke:#181818;stroke-width:0.5;" width="359" x="1156" y="7"/><ellipse cx="1291.75" cy="23" fill="#ADD1B2" rx="11" ry="11" style="stroke:#181818;stroke-width:1.0;"/><path d="M1294.5156,18.875 Q1294.6719,18.6563 1294.8594,18.5469 Q1295.0469,18.4375 1295.2656,18.4375 Q1295.6406,18.4375 1295.875,18.7031 Q1296.1094,18.9531 1296.1094,19.5625 L1296.1094,21.0156 Q1296.1094,21.625 1295.875,21.8906 Q1295.6406,22.1563 1295.2656,22.1563 Q1294.9219,22.1563 1294.7188,21.9531 Q1294.5156,21.7656 1294.4063,21.25 Q1294.3594,20.8906 1294.1719,20.7031 Q1293.8438,20.3281 1293.2344,20.1094 Q1292.625,19.8906 1292,19.8906 Q1291.2344,19.8906 1290.5938,20.2188 Q1289.9688,20.5469 1289.4688,21.2969 Q1288.9844,22.0469 1288.9844,23.0781 L1288.9844,24.1719 Q1288.9844,25.4063 1289.875,26.2344 Q1290.7656,27.0469 1292.3594,27.0469 Q1293.2969,27.0469 1293.9531,26.7969 Q1294.3438,26.6406 1294.7656,26.2031 Q1295.0313,25.9375 1295.1719,25.8594 Q1295.3281,25.7813 1295.5313,25.7813 Q1295.8594,25.7813 1296.1094,26.0469 Q1296.375,26.2969 1296.375,26.6406 Q1296.375,26.9844 1296.0313,27.3906 Q1295.5313,27.9688 1294.7344,28.2969 Q1293.6563,28.75 1292.3594,28.75 Q1290.8438,28.75 1289.6406,28.125 Q1288.6563,27.625 1287.9688,26.5625 Q1287.2813,25.4844 1287.2813,24.2031 L1287.2813,23.0469 Q1287.2813,21.7188 1287.8906,20.5781 Q1288.5156,19.4219 1289.6094,18.8125 Q1290.7031,18.1875 1291.9375,18.1875 Q1292.6719,18.1875 1293.3125,18.3594 Q1293.9688,18.5156 1294.5156,18.875 Z " fill="#000000"/><text fill="#000000" font-family="sans-serif" font-size="14" lengthAdjust="spacing" textLength="79" x="1312.25" y="28.7969">Repositories</text><line style="stroke:#181818;stroke-width:0.5;" x1="1157" x2="1514" y1="39" y2="39"/><polygon fill="none" points="1167,49.8105,1163,55.8105,1171,55.8105" style="stroke:#1963A0;stroke-width:1.0;"/><text fill="#000000" font-family="sans-serif" font-size="14" lengthAdjust="spacing" textLength="251" x="1176" y="58.1074">propertyRepository: PropertyRepository</text><polygon fill="none" points="1167,68.4316,1163,74.4316,1171,74.4316" style="stroke:#1963A0;stroke-width:1.0;"/><text fill="#000000" font-family="sans-serif" font-size="14" lengthAdjust="spacing" textLength="323" x="1176" y="76.7285">authenticationRepository: AuthenticationRepository</text><polygon fill="none" points="1167,87.0527,1163,93.0527,1171,93.0527" style="stroke:#1963A0;stroke-width:1.0;"/><text fill="#000000" font-family="sans-serif" font-size="14" lengthAdjust="spacing" textLength="213" x="1176" y="95.3496">clientRepository: ClientRepository</text><rect fill="none" height="6" style="stroke:#C82930;stroke-width:1.0;" width="6" x="1164" y="106.6738"/><text fill="#000000" font-family="sans-serif" font-size="14" lengthAdjust="spacing" textLength="140" x="1176" y="113.9707">instance: Repositories</text><polygon fill="none" points="1167,124.2949,1163,130.2949,1171,130.2949" style="stroke:#1963A0;stroke-width:1.0;"/><text fill="#000000" font-family="sans-serif" font-size="14" lengthAdjust="spacing" textLength="333" x="1176" y="132.5918">announcementRepository: AnnouncementRepository</text><text fill="#000000" font-family="sans-serif" font-size="14" lengthAdjust="spacing" textLength="333" x="1176" y="151.2129">announcementRepository: AnnouncementRepository</text><text fill="#000000" font-family="sans-serif" font-size="14" lengthAdjust="spacing" textLength="218" x="1176" y="169.834">OrderRepository: OrderRepository</text><text fill="#000000" font-family="sans-serif" font-size="14" lengthAdjust="spacing" textLength="140" x="1176" y="188.4551">instance: Repositories</text><text fill="#000000" font-family="sans-serif" font-size="14" lengthAdjust="spacing" textLength="213" x="1176" y="207.0762">clientRepository: ClientRepository</text><text fill="#000000" font-family="sans-serif" font-size="14" lengthAdjust="spacing" textLength="323" x="1176" y="225.6973">authenticationRepository: AuthenticationRepository</text><line style="stroke:#181818;stroke-width:0.5;" x1="1157" x2="1514" y1="233.2109" y2="233.2109"/><rect fill="#F24D5C" height="6" style="stroke:#C82930;stroke-width:1.0;" width="6" x="1164" y="245.0215"/><text fill="#000000" font-family="sans-serif" font-size="14" lengthAdjust="spacing" textLength="93" x="1176" y="252.3184">Repositories():</text></g><!--class User--><g id="elem_User"><rect codeLine="26" fill="#F1F1F1" height="383.1797" id="User" rx="2.5" ry="2.5" style="stroke:#181818;stroke-width:0.5;" width="398" x="1157.5" y="671"/><ellipse cx="1337.75" cy="687" fill="#ADD1B2" rx="11" ry="11" style="stroke:#181818;stroke-width:1.0;"/><path d="M1340.5156,682.875 Q1340.6719,682.6563 1340.8594,682.5469 Q1341.0469,682.4375 1341.2656,682.4375 Q1341.6406,682.4375 1341.875,682.7031 Q1342.1094,682.9531 1342.1094,683.5625 L1342.1094,685.0156 Q1342.1094,685.625 1341.875,685.8906 Q1341.6406,686.1563 1341.2656,686.1563 Q1340.9219,686.1563 1340.7188,685.9531 Q1340.5156,685.7656 1340.4063,685.25 Q1340.3594,684.8906 1340.1719,684.7031 Q1339.8438,684.3281 1339.2344,684.1094 Q1338.625,683.8906 1338,683.8906 Q1337.2344,683.8906 1336.5938,684.2188 Q1335.9688,684.5469 1335.4688,685.2969 Q1334.9844,686.0469 1334.9844,687.0781 L1334.9844,688.1719 Q1334.9844,689.4063 1335.875,690.2344 Q1336.7656,691.0469 1338.3594,691.0469 Q1339.2969,691.0469 1339.9531,690.7969 Q1340.3438,690.6406 1340.7656,690.2031 Q1341.0313,689.9375 1341.1719,689.8594 Q1341.3281,689.7813 1341.5313,689.7813 Q1341.8594,689.7813 1342.1094,690.0469 Q1342.375,690.2969 1342.375,690.6406 Q1342.375,690.9844 1342.0313,691.3906 Q1341.5313,691.9688 1340.7344,692.2969 Q1339.6563,692.75 1338.3594,692.75 Q1336.8438,692.75 1335.6406,692.125 Q1334.6563,691.625 1333.9688,690.5625 Q1333.2813,689.4844 1333.2813,688.2031 L1333.2813,687.0469 Q1333.2813,685.7188 1333.8906,684.5781 Q1334.5156,683.4219 1335.6094,682.8125 Q1336.7031,682.1875 1337.9375,682.1875 Q1338.6719,682.1875 1339.3125,682.3594 Q1339.9688,682.5156 1340.5156,682.875 Z " fill="#000000"/><text fill="#000000" font-family="sans-serif" font-size="14" lengthAdjust="spacing" textLength="29" x="1358.25" y="692.7969">User</text><line style="stroke:#181818;stroke-width:0.5;" x1="1158.5" x2="1554.5" y1="703" y2="703"/><rect fill="none" height="6" style="stroke:#C82930;stroke-width:1.0;" width="6" x="1165.5" y="714.8105"/><text fill="#000000" font-family="sans-serif" font-size="14" lengthAdjust="spacing" textLength="85" x="1177.5" y="722.1074">phone: String</text><rect fill="none" height="6" style="stroke:#C82930;stroke-width:1.0;" width="6" x="1165.5" y="733.4316"/><text fill="#000000" font-family="sans-serif" font-size="14" lengthAdjust="spacing" textLength="80" x="1177.5" y="740.7285">name: String</text><rect fill="none" height="6" style="stroke:#C82930;stroke-width:1.0;" width="6" x="1165.5" y="752.0527"/><text fill="#000000" font-family="sans-serif" font-size="14" lengthAdjust="spacing" textLength="78" x="1177.5" y="759.3496">email: String</text><rect fill="none" height="6" style="stroke:#C82930;stroke-width:1.0;" width="6" x="1165.5" y="770.6738"/><text fill="#000000" font-family="sans-serif" font-size="14" lengthAdjust="spacing" textLength="96" x="1177.5" y="777.9707">address: String</text><rect fill="none" height="6" style="stroke:#C82930;stroke-width:1.0;" width="6" x="1165.5" y="789.2949"/><text fill="#000000" font-family="sans-serif" font-size="14" lengthAdjust="spacing" textLength="90" x="1177.5" y="796.5918">taxNumber: int</text><rect fill="none" height="6" style="stroke:#C82930;stroke-width:1.0;" width="6" x="1165.5" y="807.916"/><text fill="#000000" font-family="sans-serif" font-size="14" lengthAdjust="spacing" textLength="113" x="1177.5" y="815.2129">descptions: String</text><rect fill="none" height="6" style="stroke:#C82930;stroke-width:1.0;" width="6" x="1165.5" y="826.5371"/><text fill="#000000" font-family="sans-serif" font-size="14" lengthAdjust="spacing" textLength="75" x="1177.5" y="833.834">roles: Roles</text><rect fill="none" height="6" style="stroke:#C82930;stroke-width:1.0;" width="6" x="1165.5" y="845.1582"/><text fill="#000000" font-family="sans-serif" font-size="14" lengthAdjust="spacing" textLength="105" x="1177.5" y="852.4551">password: String</text><text fill="#000000" font-family="sans-serif" font-size="14" lengthAdjust="spacing" textLength="80" x="1177.5" y="871.0762">name: String</text><text fill="#000000" font-family="sans-serif" font-size="14" lengthAdjust="spacing" textLength="105" x="1177.5" y="889.6973">password: String</text><text fill="#000000" font-family="sans-serif" font-size="14" lengthAdjust="spacing" textLength="113" x="1177.5" y="908.3184">descptions: String</text><text fill="#000000" font-family="sans-serif" font-size="14" lengthAdjust="spacing" textLength="78" x="1177.5" y="926.9395">email: String</text><text fill="#000000" font-family="sans-serif" font-size="14" lengthAdjust="spacing" textLength="85" x="1177.5" y="945.5605">phone: String</text><text fill="#000000" font-family="sans-serif" font-size="14" lengthAdjust="spacing" textLength="96" x="1177.5" y="964.1816">address: String</text><text fill="#000000" font-family="sans-serif" font-size="14" lengthAdjust="spacing" textLength="75" x="1177.5" y="982.8027">roles: Roles</text><text fill="#000000" font-family="sans-serif" font-size="14" lengthAdjust="spacing" textLength="90" x="1177.5" y="1001.4238">taxNumber: int</text><line style="stroke:#181818;stroke-width:0.5;" x1="1158.5" x2="1554.5" y1="1008.9375" y2="1008.9375"/><ellipse cx="1168.5" cy="1023.748" fill="#84BE84" rx="3" ry="3" style="stroke:#038048;stroke-width:1.0;"/><text fill="#000000" font-family="sans-serif" font-size="14" lengthAdjust="spacing" textLength="372" x="1177.5" y="1028.0449">User(String, String, int, String, String, String, String, Roles):</text><ellipse cx="1168.5" cy="1042.3691" fill="#84BE84" rx="3" ry="3" style="stroke:#038048;stroke-width:1.0;"/><text fill="#000000" font-family="sans-serif" font-size="14" lengthAdjust="spacing" textLength="104" x="1177.5" y="1046.666">toString(): String</text></g><!--class Roles--><g id="elem_Roles"><rect codeLine="46" fill="#F1F1F1" height="116.4453" id="Roles" rx="2.5" ry="2.5" style="stroke:#181818;stroke-width:0.5;" width="166" x="1326.5" y="1183"/><ellipse cx="1365.8" cy="1205.291" fill="#EB937F" rx="11" ry="11" style="stroke:#181818;stroke-width:1.0;"/><path d="M1364.6594,1206.0879 L1364.6594,1208.5879 L1368.9875,1208.5879 L1368.9875,1207.666 Q1368.9875,1207.0566 1369.2219,1206.791 Q1369.4719,1206.5254 1369.8469,1206.5254 Q1370.2219,1206.5254 1370.4563,1206.791 Q1370.6906,1207.0566 1370.6906,1207.666 L1370.6906,1210.291 L1362.6906,1210.291 Q1362.0656,1210.291 1361.8,1210.0566 Q1361.55,1209.8223 1361.55,1209.4316 Q1361.55,1209.0566 1361.8156,1208.8223 Q1362.0813,1208.5879 1362.6906,1208.5879 L1362.9563,1208.5879 L1362.9563,1201.9316 L1362.6906,1201.9316 Q1362.0656,1201.9316 1361.8,1201.6973 Q1361.55,1201.4629 1361.55,1201.0723 Q1361.55,1200.6973 1361.8,1200.4629 Q1362.0656,1200.2285 1362.6906,1200.2285 L1370.3156,1200.2285 L1370.3156,1202.8223 Q1370.3156,1203.4316 1370.0813,1203.6973 Q1369.8625,1203.9473 1369.4719,1203.9473 Q1369.0969,1203.9473 1368.8625,1203.6973 Q1368.6281,1203.4316 1368.6281,1202.8223 L1368.6281,1201.9316 L1364.6594,1201.9316 L1364.6594,1204.3848 L1366.1438,1204.3848 Q1366.1438,1203.7285 1366.2688,1203.541 Q1366.5344,1203.1348 1367.0031,1203.1348 Q1367.3781,1203.1348 1367.6125,1203.4004 Q1367.8469,1203.6504 1367.8469,1204.2598 L1367.8469,1206.2285 Q1367.8469,1206.7754 1367.7219,1206.9629 Q1367.4563,1207.3535 1367.0031,1207.3535 Q1366.5344,1207.3535 1366.2688,1206.9473 Q1366.1438,1206.7598 1366.1438,1206.0879 L1364.6594,1206.0879 Z " fill="#000000"/><text fill="#000000" font-family="sans-serif" font-size="12" font-style="italic" lengthAdjust="spacing" textLength="84" x="1383.2" y="1200.9492">&#171;enumeration&#187;</text><text fill="#000000" font-family="sans-serif" font-size="14" lengthAdjust="spacing" textLength="36" x="1407.2" y="1219.0684">Roles</text><line style="stroke:#181818;stroke-width:0.5;" x1="1327.5" x2="1491.5" y1="1227.582" y2="1227.582"/><line style="stroke:#181818;stroke-width:0.5;" x1="1327.5" x2="1491.5" y1="1235.582" y2="1235.582"/><ellipse cx="1337.5" cy="1250.3926" fill="#84BE84" rx="3" ry="3" style="stroke:#038048;stroke-width:1.0;"/><text fill="#000000" font-family="sans-serif" font-size="14" lengthAdjust="spacing" textLength="50" x="1346.5" y="1254.6895">Roles():</text><ellipse cx="1337.5" cy="1269.0137" fill="#84BE84" rx="3" ry="3" style="stroke:#038048;stroke-width:1.0;"/><text fill="#000000" font-family="sans-serif" font-size="14" lengthAdjust="spacing" textLength="103" x="1346.5" y="1273.3105">values(): Roles[]</text><ellipse cx="1337.5" cy="1287.6348" fill="#84BE84" rx="3" ry="3" style="stroke:#038048;stroke-width:1.0;"/><text fill="#000000" font-family="sans-serif" font-size="14" lengthAdjust="spacing" textLength="140" x="1346.5" y="1291.9316">valueOf(String): Roles</text></g><!--class CreateOrderUI--><g id="elem_CreateOrderUI"><rect codeLine="52" fill="#F1F1F1" height="141.1055" id="CreateOrderUI" rx="2.5" ry="2.5" style="stroke:#181818;stroke-width:0.5;" width="421" x="173" y="63"/><ellipse cx="333.25" cy="79" fill="#ADD1B2" rx="11" ry="11" style="stroke:#181818;stroke-width:1.0;"/><path d="M336.0156,74.875 Q336.1719,74.6563 336.3594,74.5469 Q336.5469,74.4375 336.7656,74.4375 Q337.1406,74.4375 337.375,74.7031 Q337.6094,74.9531 337.6094,75.5625 L337.6094,77.0156 Q337.6094,77.625 337.375,77.8906 Q337.1406,78.1563 336.7656,78.1563 Q336.4219,78.1563 336.2188,77.9531 Q336.0156,77.7656 335.9063,77.25 Q335.8594,76.8906 335.6719,76.7031 Q335.3438,76.3281 334.7344,76.1094 Q334.125,75.8906 333.5,75.8906 Q332.7344,75.8906 332.0938,76.2188 Q331.4688,76.5469 330.9688,77.2969 Q330.4844,78.0469 330.4844,79.0781 L330.4844,80.1719 Q330.4844,81.4063 331.375,82.2344 Q332.2656,83.0469 333.8594,83.0469 Q334.7969,83.0469 335.4531,82.7969 Q335.8438,82.6406 336.2656,82.2031 Q336.5313,81.9375 336.6719,81.8594 Q336.8281,81.7813 337.0313,81.7813 Q337.3594,81.7813 337.6094,82.0469 Q337.875,82.2969 337.875,82.6406 Q337.875,82.9844 337.5313,83.3906 Q337.0313,83.9688 336.2344,84.2969 Q335.1563,84.75 333.8594,84.75 Q332.3438,84.75 331.1406,84.125 Q330.1563,83.625 329.4688,82.5625 Q328.7813,81.4844 328.7813,80.2031 L328.7813,79.0469 Q328.7813,77.7188 329.3906,76.5781 Q330.0156,75.4219 331.1094,74.8125 Q332.2031,74.1875 333.4375,74.1875 Q334.1719,74.1875 334.8125,74.3594 Q335.4688,74.5156 336.0156,74.875 Z " fill="#000000"/><text fill="#000000" font-family="sans-serif" font-size="14" lengthAdjust="spacing" textLength="92" x="353.75" y="84.7969">CreateOrderUI</text><line style="stroke:#181818;stroke-width:0.5;" x1="174" x2="593" y1="95" y2="95"/><line style="stroke:#181818;stroke-width:0.5;" x1="174" x2="593" y1="103" y2="103"/><ellipse cx="184" cy="117.8105" fill="#84BE84" rx="3" ry="3" style="stroke:#038048;stroke-width:1.0;"/><text fill="#000000" font-family="sans-serif" font-size="14" lengthAdjust="spacing" textLength="106" x="193" y="122.1074">CreateOrderUI():</text><rect fill="#F24D5C" height="6" style="stroke:#C82930;stroke-width:1.0;" width="6" x="181" y="133.4316"/><text fill="#000000" font-family="sans-serif" font-size="14" lengthAdjust="spacing" textLength="354" x="193" y="140.7285">displayAndSelectAnnouncement(): AnnouncementDTO?</text><ellipse cx="184" cy="155.0527" fill="#84BE84" rx="3" ry="3" style="stroke:#038048;stroke-width:1.0;"/><text fill="#000000" font-family="sans-serif" font-size="14" lengthAdjust="spacing" textLength="65" x="193" y="159.3496">run(): void</text><rect fill="#F24D5C" height="6" style="stroke:#C82930;stroke-width:1.0;" width="6" x="181" y="170.6738"/><text fill="#000000" font-family="sans-serif" font-size="14" lengthAdjust="spacing" textLength="115" x="193" y="177.9707">submitData(): void</text><rect fill="#F24D5C" height="6" style="stroke:#C82930;stroke-width:1.0;" width="6" x="181" y="189.2949"/><text fill="#000000" font-family="sans-serif" font-size="14" lengthAdjust="spacing" textLength="395" x="193" y="196.5918">displayAnnouncementOptions(List&lt;AnnouncementDTO&gt;): void</text></g><!--class CreateOrderController--><g id="elem_CreateOrderController"><rect codeLine="59" fill="#F1F1F1" height="215.5898" id="CreateOrderController" rx="2.5" ry="2.5" style="stroke:#181818;stroke-width:0.5;" width="423" x="629" y="25.5"/><ellipse cx="765.25" cy="41.5" fill="#ADD1B2" rx="11" ry="11" style="stroke:#181818;stroke-width:1.0;"/><path d="M768.0156,37.375 Q768.1719,37.1563 768.3594,37.0469 Q768.5469,36.9375 768.7656,36.9375 Q769.1406,36.9375 769.375,37.2031 Q769.6094,37.4531 769.6094,38.0625 L769.6094,39.5156 Q769.6094,40.125 769.375,40.3906 Q769.1406,40.6563 768.7656,40.6563 Q768.4219,40.6563 768.2188,40.4531 Q768.0156,40.2656 767.9063,39.75 Q767.8594,39.3906 767.6719,39.2031 Q767.3438,38.8281 766.7344,38.6094 Q766.125,38.3906 765.5,38.3906 Q764.7344,38.3906 764.0938,38.7188 Q763.4688,39.0469 762.9688,39.7969 Q762.4844,40.5469 762.4844,41.5781 L762.4844,42.6719 Q762.4844,43.9063 763.375,44.7344 Q764.2656,45.5469 765.8594,45.5469 Q766.7969,45.5469 767.4531,45.2969 Q767.8438,45.1406 768.2656,44.7031 Q768.5313,44.4375 768.6719,44.3594 Q768.8281,44.2813 769.0313,44.2813 Q769.3594,44.2813 769.6094,44.5469 Q769.875,44.7969 769.875,45.1406 Q769.875,45.4844 769.5313,45.8906 Q769.0313,46.4688 768.2344,46.7969 Q767.1563,47.25 765.8594,47.25 Q764.3438,47.25 763.1406,46.625 Q762.1563,46.125 761.4688,45.0625 Q760.7813,43.9844 760.7813,42.7031 L760.7813,41.5469 Q760.7813,40.2188 761.3906,39.0781 Q762.0156,37.9219 763.1094,37.3125 Q764.2031,36.6875 765.4375,36.6875 Q766.1719,36.6875 766.8125,36.8594 Q767.4688,37.0156 768.0156,37.375 Z " fill="#000000"/><text fill="#000000" font-family="sans-serif" font-size="14" lengthAdjust="spacing" textLength="142" x="785.75" y="47.2969">CreateOrderController</text><line style="stroke:#181818;stroke-width:0.5;" x1="630" x2="1051" y1="57.5" y2="57.5"/><text fill="#000000" font-family="sans-serif" font-size="14" lengthAdjust="spacing" textLength="215" x="635" y="76.6074">orderRepository: OrderRepository</text><text fill="#000000" font-family="sans-serif" font-size="14" lengthAdjust="spacing" textLength="213" x="635" y="95.2285">clientRepository: ClientRepository</text><text fill="#000000" font-family="sans-serif" font-size="14" lengthAdjust="spacing" textLength="323" x="635" y="113.8496">authenticationRepository: AuthenticationRepository</text><text fill="#000000" font-family="sans-serif" font-size="14" lengthAdjust="spacing" textLength="333" x="635" y="132.4707">announcementRepository: AnnouncementRepository</text><text fill="#000000" font-family="sans-serif" font-size="14" lengthAdjust="spacing" textLength="272" x="635" y="151.0918">announcements: List&lt;AnnouncementDTO&gt;</text><line style="stroke:#181818;stroke-width:0.5;" x1="630" x2="1051" y1="158.6055" y2="158.6055"/><ellipse cx="640" cy="173.416" fill="#84BE84" rx="3" ry="3" style="stroke:#038048;stroke-width:1.0;"/><text fill="#000000" font-family="sans-serif" font-size="14" lengthAdjust="spacing" textLength="156" x="649" y="177.7129">CreateOrderController():</text><ellipse cx="640" cy="192.0371" fill="#84BE84" rx="3" ry="3" style="stroke:#038048;stroke-width:1.0;"/><text fill="#000000" font-family="sans-serif" font-size="14" lengthAdjust="spacing" textLength="397" x="649" y="196.334">addOrderToTest(AnnouncementDTO, int, ClientDTO): boolean</text><ellipse cx="640" cy="210.6582" fill="#84BE84" rx="3" ry="3" style="stroke:#038048;stroke-width:1.0;"/><text fill="#000000" font-family="sans-serif" font-size="14" lengthAdjust="spacing" textLength="278" x="649" y="214.9551">addOrder(AnnouncementDTO, int): boolean</text><rect fill="#F24D5C" height="6" style="stroke:#C82930;stroke-width:1.0;" width="6" x="637" y="226.2793"/><text fill="#000000" font-family="sans-serif" font-size="14" lengthAdjust="spacing" textLength="256" x="649" y="233.5762">getClientByUserEmail(String): ClientDTO</text></g><!--class OrderRepository--><g id="elem_OrderRepository"><rect codeLine="70" fill="#F1F1F1" height="252.832" id="OrderRepository" rx="2.5" ry="2.5" style="stroke:#181818;stroke-width:0.5;" width="479" x="765" y="339"/><ellipse cx="947.75" cy="355" fill="#ADD1B2" rx="11" ry="11" style="stroke:#181818;stroke-width:1.0;"/><path d="M950.5156,350.875 Q950.6719,350.6563 950.8594,350.5469 Q951.0469,350.4375 951.2656,350.4375 Q951.6406,350.4375 951.875,350.7031 Q952.1094,350.9531 952.1094,351.5625 L952.1094,353.0156 Q952.1094,353.625 951.875,353.8906 Q951.6406,354.1563 951.2656,354.1563 Q950.9219,354.1563 950.7188,353.9531 Q950.5156,353.7656 950.4063,353.25 Q950.3594,352.8906 950.1719,352.7031 Q949.8438,352.3281 949.2344,352.1094 Q948.625,351.8906 948,351.8906 Q947.2344,351.8906 946.5938,352.2188 Q945.9688,352.5469 945.4688,353.2969 Q944.9844,354.0469 944.9844,355.0781 L944.9844,356.1719 Q944.9844,357.4063 945.875,358.2344 Q946.7656,359.0469 948.3594,359.0469 Q949.2969,359.0469 949.9531,358.7969 Q950.3438,358.6406 950.7656,358.2031 Q951.0313,357.9375 951.1719,357.8594 Q951.3281,357.7813 951.5313,357.7813 Q951.8594,357.7813 952.1094,358.0469 Q952.375,358.2969 952.375,358.6406 Q952.375,358.9844 952.0313,359.3906 Q951.5313,359.9688 950.7344,360.2969 Q949.6563,360.75 948.3594,360.75 Q946.8438,360.75 945.6406,360.125 Q944.6563,359.625 943.9688,358.5625 Q943.2813,357.4844 943.2813,356.2031 L943.2813,355.0469 Q943.2813,353.7188 943.8906,352.5781 Q944.5156,351.4219 945.6094,350.8125 Q946.7031,350.1875 947.9375,350.1875 Q948.6719,350.1875 949.3125,350.3594 Q949.9688,350.5156 950.5156,350.875 Z " fill="#000000"/><text fill="#000000" font-family="sans-serif" font-size="14" lengthAdjust="spacing" textLength="105" x="968.25" y="360.7969">OrderRepository</text><line style="stroke:#181818;stroke-width:0.5;" x1="766" x2="1243" y1="371" y2="371"/><text fill="#000000" font-family="sans-serif" font-size="14" lengthAdjust="spacing" textLength="154" x="771" y="390.1074">orders: List&lt;OrderDTO&gt;</text><line style="stroke:#181818;stroke-width:0.5;" x1="766" x2="1243" y1="397.6211" y2="397.6211"/><ellipse cx="776" cy="412.4316" fill="#84BE84" rx="3" ry="3" style="stroke:#038048;stroke-width:1.0;"/><text fill="#000000" font-family="sans-serif" font-size="14" lengthAdjust="spacing" textLength="119" x="785" y="416.7285">OrderRepository():</text><ellipse cx="776" cy="431.0527" fill="#84BE84" rx="3" ry="3" style="stroke:#038048;stroke-width:1.0;"/><text fill="#000000" font-family="sans-serif" font-size="14" lengthAdjust="spacing" textLength="453" x="785" y="435.3496">createOrder(AnnouncementDTO, int, ClientDTO): Optional&lt;OrderDTO&gt;</text><rect fill="#F24D5C" height="6" style="stroke:#C82930;stroke-width:1.0;" width="6" x="773" y="446.6738"/><text fill="#000000" font-family="sans-serif" font-size="14" lengthAdjust="spacing" textLength="139" x="785" y="453.9707">addOrder(order): void</text><rect fill="#F24D5C" height="6" style="stroke:#C82930;stroke-width:1.0;" width="6" x="773" y="465.2949"/><text fill="#000000" font-family="sans-serif" font-size="14" lengthAdjust="spacing" textLength="121" x="785" y="472.5918">PutPerorder(): void</text><rect fill="#F24D5C" height="6" style="stroke:#C82930;stroke-width:1.0;" width="6" x="773" y="483.916"/><text fill="#000000" font-family="sans-serif" font-size="14" lengthAdjust="spacing" textLength="187" x="785" y="491.2129">findOrder(OrderDTO): order?</text><ellipse cx="776" cy="505.5371" fill="#84BE84" rx="3" ry="3" style="stroke:#038048;stroke-width:1.0;"/><text fill="#000000" font-family="sans-serif" font-size="14" lengthAdjust="spacing" textLength="374" x="785" y="509.834">rejectOrder(OrderDTO, MessagesOfClientRepository): void</text><ellipse cx="776" cy="524.1582" fill="#84BE84" rx="3" ry="3" style="stroke:#038048;stroke-width:1.0;"/><text fill="#000000" font-family="sans-serif" font-size="14" lengthAdjust="spacing" textLength="381" x="785" y="528.4551">acceptOrder(OrderDTO, MessagesOfClientRepository): void</text><ellipse cx="776" cy="542.7793" fill="#84BE84" rx="3" ry="3" style="stroke:#038048;stroke-width:1.0;"/><text fill="#000000" font-family="sans-serif" font-size="14" lengthAdjust="spacing" textLength="362" x="785" y="547.0762">OrderOfTheAgent(AnnouncementDTO): List&lt;OrderDTO&gt;</text><rect fill="#F24D5C" height="6" style="stroke:#C82930;stroke-width:1.0;" width="6" x="773" y="558.4004"/><text fill="#000000" font-family="sans-serif" font-size="14" lengthAdjust="spacing" textLength="335" x="785" y="565.6973">valueAlreadyExists(int, AnnouncementDTO): boolean</text><rect fill="#F24D5C" height="6" style="stroke:#C82930;stroke-width:1.0;" width="6" x="773" y="577.0215"/><text fill="#000000" font-family="sans-serif" font-size="14" lengthAdjust="spacing" textLength="385" x="785" y="584.3184">clientAlreadyExists(ClientDTO, AnnouncementDTO): boolean</text></g><!--class Order--><g id="elem_Order"><rect codeLine="83" fill="#F1F1F1" height="178.3477" id="Order" rx="2.5" ry="2.5" style="stroke:#181818;stroke-width:0.5;" width="236" x="886.5" y="773.5"/><ellipse cx="981.75" cy="789.5" fill="#ADD1B2" rx="11" ry="11" style="stroke:#181818;stroke-width:1.0;"/><path d="M984.5156,785.375 Q984.6719,785.1563 984.8594,785.0469 Q985.0469,784.9375 985.2656,784.9375 Q985.6406,784.9375 985.875,785.2031 Q986.1094,785.4531 986.1094,786.0625 L986.1094,787.5156 Q986.1094,788.125 985.875,788.3906 Q985.6406,788.6563 985.2656,788.6563 Q984.9219,788.6563 984.7188,788.4531 Q984.5156,788.2656 984.4063,787.75 Q984.3594,787.3906 984.1719,787.2031 Q983.8438,786.8281 983.2344,786.6094 Q982.625,786.3906 982,786.3906 Q981.2344,786.3906 980.5938,786.7188 Q979.9688,787.0469 979.4688,787.7969 Q978.9844,788.5469 978.9844,789.5781 L978.9844,790.6719 Q978.9844,791.9063 979.875,792.7344 Q980.7656,793.5469 982.3594,793.5469 Q983.2969,793.5469 983.9531,793.2969 Q984.3438,793.1406 984.7656,792.7031 Q985.0313,792.4375 985.1719,792.3594 Q985.3281,792.2813 985.5313,792.2813 Q985.8594,792.2813 986.1094,792.5469 Q986.375,792.7969 986.375,793.1406 Q986.375,793.4844 986.0313,793.8906 Q985.5313,794.4688 984.7344,794.7969 Q983.6563,795.25 982.3594,795.25 Q980.8438,795.25 979.6406,794.625 Q978.6563,794.125 977.9688,793.0625 Q977.2813,791.9844 977.2813,790.7031 L977.2813,789.5469 Q977.2813,788.2188 977.8906,787.0781 Q978.5156,785.9219 979.6094,785.3125 Q980.7031,784.6875 981.9375,784.6875 Q982.6719,784.6875 983.3125,784.8594 Q983.9688,785.0156 984.5156,785.375 Z " fill="#000000"/><text fill="#000000" font-family="sans-serif" font-size="14" lengthAdjust="spacing" textLength="37" x="1002.25" y="795.2969">Order</text><line style="stroke:#181818;stroke-width:0.5;" x1="887.5" x2="1121.5" y1="805.5" y2="805.5"/><text fill="#000000" font-family="sans-serif" font-size="14" lengthAdjust="spacing" textLength="57" x="892.5" y="824.6074">value: int</text><text fill="#000000" font-family="sans-serif" font-size="14" lengthAdjust="spacing" textLength="77" x="892.5" y="843.2285">client: Client</text><text fill="#000000" font-family="sans-serif" font-size="14" lengthAdjust="spacing" textLength="190" x="892.5" y="861.8496">statusOfOrder: StatusOfOrder</text><text fill="#000000" font-family="sans-serif" font-size="14" lengthAdjust="spacing" textLength="197" x="892.5" y="880.4707">announcement: Announcement</text><line style="stroke:#181818;stroke-width:0.5;" x1="887.5" x2="1121.5" y1="887.9844" y2="887.9844"/><ellipse cx="897.5" cy="902.7949" fill="#84BE84" rx="3" ry="3" style="stroke:#038048;stroke-width:1.0;"/><text fill="#000000" font-family="sans-serif" font-size="14" lengthAdjust="spacing" textLength="210" x="906.5" y="907.0918">order(Announcement, int, Client):</text><ellipse cx="897.5" cy="921.416" fill="#84BE84" rx="3" ry="3" style="stroke:#038048;stroke-width:1.0;"/><text fill="#000000" font-family="sans-serif" font-size="14" lengthAdjust="spacing" textLength="104" x="906.5" y="925.7129">toString(): String</text><ellipse cx="897.5" cy="940.0371" fill="#84BE84" rx="3" ry="3" style="stroke:#038048;stroke-width:1.0;"/><text fill="#000000" font-family="sans-serif" font-size="14" lengthAdjust="spacing" textLength="164" x="906.5" y="944.334">validateOrder(order): void</text></g><!--class OrderDTO--><g id="elem_OrderDTO"><rect codeLine="92" fill="#F1F1F1" height="141.1055" id="OrderDTO" rx="2.5" ry="2.5" style="stroke:#181818;stroke-width:0.5;" width="429" x="7" y="1170.5"/><ellipse cx="183.75" cy="1186.5" fill="#ADD1B2" rx="11" ry="11" style="stroke:#181818;stroke-width:1.0;"/><path d="M186.5156,1182.375 Q186.6719,1182.1563 186.8594,1182.0469 Q187.0469,1181.9375 187.2656,1181.9375 Q187.6406,1181.9375 187.875,1182.2031 Q188.1094,1182.4531 188.1094,1183.0625 L188.1094,1184.5156 Q188.1094,1185.125 187.875,1185.3906 Q187.6406,1185.6563 187.2656,1185.6563 Q186.9219,1185.6563 186.7188,1185.4531 Q186.5156,1185.2656 186.4063,1184.75 Q186.3594,1184.3906 186.1719,1184.2031 Q185.8438,1183.8281 185.2344,1183.6094 Q184.625,1183.3906 184,1183.3906 Q183.2344,1183.3906 182.5938,1183.7188 Q181.9688,1184.0469 181.4688,1184.7969 Q180.9844,1185.5469 180.9844,1186.5781 L180.9844,1187.6719 Q180.9844,1188.9063 181.875,1189.7344 Q182.7656,1190.5469 184.3594,1190.5469 Q185.2969,1190.5469 185.9531,1190.2969 Q186.3438,1190.1406 186.7656,1189.7031 Q187.0313,1189.4375 187.1719,1189.3594 Q187.3281,1189.2813 187.5313,1189.2813 Q187.8594,1189.2813 188.1094,1189.5469 Q188.375,1189.7969 188.375,1190.1406 Q188.375,1190.4844 188.0313,1190.8906 Q187.5313,1191.4688 186.7344,1191.7969 Q185.6563,1192.25 184.3594,1192.25 Q182.8438,1192.25 181.6406,1191.625 Q180.6563,1191.125 179.9688,1190.0625 Q179.2813,1188.9844 179.2813,1187.7031 L179.2813,1186.5469 Q179.2813,1185.2188 179.8906,1184.0781 Q180.5156,1182.9219 181.6094,1182.3125 Q182.7031,1181.6875 183.9375,1181.6875 Q184.6719,1181.6875 185.3125,1181.8594 Q185.9688,1182.0156 186.5156,1182.375 Z " fill="#000000"/><text fill="#000000" font-family="sans-serif" font-size="14" lengthAdjust="spacing" textLength="67" x="204.25" y="1192.2969">OrderDTO</text><line style="stroke:#181818;stroke-width:0.5;" x1="8" x2="435" y1="1202.5" y2="1202.5"/><text fill="#000000" font-family="sans-serif" font-size="14" lengthAdjust="spacing" textLength="57" x="13" y="1221.6074">value: int</text><text fill="#000000" font-family="sans-serif" font-size="14" lengthAdjust="spacing" textLength="190" x="13" y="1240.2285">statusOfOrder: StatusOfOrder</text><text fill="#000000" font-family="sans-serif" font-size="14" lengthAdjust="spacing" textLength="227" x="13" y="1258.8496">announcement: AnnouncementDTO</text><text fill="#000000" font-family="sans-serif" font-size="14" lengthAdjust="spacing" textLength="107" x="13" y="1277.4707">client: ClientDTO</text><line style="stroke:#181818;stroke-width:0.5;" x1="8" x2="435" y1="1284.9844" y2="1284.9844"/><ellipse cx="18" cy="1299.7949" fill="#84BE84" rx="3" ry="3" style="stroke:#038048;stroke-width:1.0;"/><text fill="#000000" font-family="sans-serif" font-size="14" lengthAdjust="spacing" textLength="403" x="27" y="1304.0918">OrderDTO(AnnouncementDTO, int, ClientDTO, StatusOfOrder):</text></g><!--class OrderMapper--><g id="elem_OrderMapper"><rect codeLine="99" fill="#F1F1F1" height="103.8633" id="OrderMapper" rx="2.5" ry="2.5" style="stroke:#181818;stroke-width:0.5;" width="192" x="485.5" y="810.5"/><ellipse cx="534.75" cy="826.5" fill="#ADD1B2" rx="11" ry="11" style="stroke:#181818;stroke-width:1.0;"/><path d="M537.5156,822.375 Q537.6719,822.1563 537.8594,822.0469 Q538.0469,821.9375 538.2656,821.9375 Q538.6406,821.9375 538.875,822.2031 Q539.1094,822.4531 539.1094,823.0625 L539.1094,824.5156 Q539.1094,825.125 538.875,825.3906 Q538.6406,825.6563 538.2656,825.6563 Q537.9219,825.6563 537.7188,825.4531 Q537.5156,825.2656 537.4063,824.75 Q537.3594,824.3906 537.1719,824.2031 Q536.8438,823.8281 536.2344,823.6094 Q535.625,823.3906 535,823.3906 Q534.2344,823.3906 533.5938,823.7188 Q532.9688,824.0469 532.4688,824.7969 Q531.9844,825.5469 531.9844,826.5781 L531.9844,827.6719 Q531.9844,828.9063 532.875,829.7344 Q533.7656,830.5469 535.3594,830.5469 Q536.2969,830.5469 536.9531,830.2969 Q537.3438,830.1406 537.7656,829.7031 Q538.0313,829.4375 538.1719,829.3594 Q538.3281,829.2813 538.5313,829.2813 Q538.8594,829.2813 539.1094,829.5469 Q539.375,829.7969 539.375,830.1406 Q539.375,830.4844 539.0313,830.8906 Q538.5313,831.4688 537.7344,831.7969 Q536.6563,832.25 535.3594,832.25 Q533.8438,832.25 532.6406,831.625 Q531.6563,831.125 530.9688,830.0625 Q530.2813,828.9844 530.2813,827.7031 L530.2813,826.5469 Q530.2813,825.2188 530.8906,824.0781 Q531.5156,822.9219 532.6094,822.3125 Q533.7031,821.6875 534.9375,821.6875 Q535.6719,821.6875 536.3125,821.8594 Q536.9688,822.0156 537.5156,822.375 Z " fill="#000000"/><text fill="#000000" font-family="sans-serif" font-size="14" lengthAdjust="spacing" textLength="85" x="555.25" y="832.2969">OrderMapper</text><line style="stroke:#181818;stroke-width:0.5;" x1="486.5" x2="676.5" y1="842.5" y2="842.5"/><line style="stroke:#181818;stroke-width:0.5;" x1="486.5" x2="676.5" y1="850.5" y2="850.5"/><ellipse cx="496.5" cy="865.3105" fill="#84BE84" rx="3" ry="3" style="stroke:#038048;stroke-width:1.0;"/><text fill="#000000" font-family="sans-serif" font-size="14" lengthAdjust="spacing" textLength="99" x="505.5" y="869.6074">OrderMapper():</text><ellipse cx="496.5" cy="883.9316" fill="#84BE84" rx="3" ry="3" style="stroke:#038048;stroke-width:1.0;"/><text fill="#000000" font-family="sans-serif" font-size="14" lengthAdjust="spacing" textLength="166" x="505.5" y="888.2285">toEntity(OrderDTO): order</text><ellipse cx="496.5" cy="902.5527" fill="#84BE84" rx="3" ry="3" style="stroke:#038048;stroke-width:1.0;"/><text fill="#000000" font-family="sans-serif" font-size="14" lengthAdjust="spacing" textLength="161" x="505.5" y="906.8496">toDTO(order): OrderDTO</text></g><!--class StatusOfOrder--><g id="elem_StatusOfOrder"><rect codeLine="104" fill="#F1F1F1" height="116.4453" id="StatusOfOrder" rx="2.5" ry="2.5" style="stroke:#181818;stroke-width:0.5;" width="222" x="550.5" y="1183"/><ellipse cx="611.25" cy="1205.291" fill="#EB937F" rx="11" ry="11" style="stroke:#181818;stroke-width:1.0;"/><path d="M610.1094,1206.0879 L610.1094,1208.5879 L614.4375,1208.5879 L614.4375,1207.666 Q614.4375,1207.0566 614.6719,1206.791 Q614.9219,1206.5254 615.2969,1206.5254 Q615.6719,1206.5254 615.9063,1206.791 Q616.1406,1207.0566 616.1406,1207.666 L616.1406,1210.291 L608.1406,1210.291 Q607.5156,1210.291 607.25,1210.0566 Q607,1209.8223 607,1209.4316 Q607,1209.0566 607.2656,1208.8223 Q607.5313,1208.5879 608.1406,1208.5879 L608.4063,1208.5879 L608.4063,1201.9316 L608.1406,1201.9316 Q607.5156,1201.9316 607.25,1201.6973 Q607,1201.4629 607,1201.0723 Q607,1200.6973 607.25,1200.4629 Q607.5156,1200.2285 608.1406,1200.2285 L615.7656,1200.2285 L615.7656,1202.8223 Q615.7656,1203.4316 615.5313,1203.6973 Q615.3125,1203.9473 614.9219,1203.9473 Q614.5469,1203.9473 614.3125,1203.6973 Q614.0781,1203.4316 614.0781,1202.8223 L614.0781,1201.9316 L610.1094,1201.9316 L610.1094,1204.3848 L611.5938,1204.3848 Q611.5938,1203.7285 611.7188,1203.541 Q611.9844,1203.1348 612.4531,1203.1348 Q612.8281,1203.1348 613.0625,1203.4004 Q613.2969,1203.6504 613.2969,1204.2598 L613.2969,1206.2285 Q613.2969,1206.7754 613.1719,1206.9629 Q612.9063,1207.3535 612.4531,1207.3535 Q611.9844,1207.3535 611.7188,1206.9473 Q611.5938,1206.7598 611.5938,1206.0879 L610.1094,1206.0879 Z " fill="#000000"/><text fill="#000000" font-family="sans-serif" font-size="12" font-style="italic" lengthAdjust="spacing" textLength="84" x="635.75" y="1200.9492">&#171;enumeration&#187;</text><text fill="#000000" font-family="sans-serif" font-size="14" lengthAdjust="spacing" textLength="92" x="631.75" y="1219.0684">StatusOfOrder</text><line style="stroke:#181818;stroke-width:0.5;" x1="551.5" x2="771.5" y1="1227.582" y2="1227.582"/><line style="stroke:#181818;stroke-width:0.5;" x1="551.5" x2="771.5" y1="1235.582" y2="1235.582"/><ellipse cx="561.5" cy="1250.3926" fill="#84BE84" rx="3" ry="3" style="stroke:#038048;stroke-width:1.0;"/><text fill="#000000" font-family="sans-serif" font-size="14" lengthAdjust="spacing" textLength="106" x="570.5" y="1254.6895">StatusOfOrder():</text><ellipse cx="561.5" cy="1269.0137" fill="#84BE84" rx="3" ry="3" style="stroke:#038048;stroke-width:1.0;"/><text fill="#000000" font-family="sans-serif" font-size="14" lengthAdjust="spacing" textLength="159" x="570.5" y="1273.3105">values(): StatusOfOrder[]</text><ellipse cx="561.5" cy="1287.6348" fill="#84BE84" rx="3" ry="3" style="stroke:#038048;stroke-width:1.0;"/><text fill="#000000" font-family="sans-serif" font-size="14" lengthAdjust="spacing" textLength="196" x="570.5" y="1291.9316">valueOf(String): StatusOfOrder</text></g><!--class Announcement--><g id="elem_Announcement"><rect codeLine="109" fill="#F1F1F1" height="215.5898" id="Announcement" rx="2.5" ry="2.5" style="stroke:#181818;stroke-width:0.5;" width="326" x="1527.5" y="1133"/><ellipse cx="1638.75" cy="1149" fill="#ADD1B2" rx="11" ry="11" style="stroke:#181818;stroke-width:1.0;"/><path d="M1641.5156,1144.875 Q1641.6719,1144.6563 1641.8594,1144.5469 Q1642.0469,1144.4375 1642.2656,1144.4375 Q1642.6406,1144.4375 1642.875,1144.7031 Q1643.1094,1144.9531 1643.1094,1145.5625 L1643.1094,1147.0156 Q1643.1094,1147.625 1642.875,1147.8906 Q1642.6406,1148.1563 1642.2656,1148.1563 Q1641.9219,1148.1563 1641.7188,1147.9531 Q1641.5156,1147.7656 1641.4063,1147.25 Q1641.3594,1146.8906 1641.1719,1146.7031 Q1640.8438,1146.3281 1640.2344,1146.1094 Q1639.625,1145.8906 1639,1145.8906 Q1638.2344,1145.8906 1637.5938,1146.2188 Q1636.9688,1146.5469 1636.4688,1147.2969 Q1635.9844,1148.0469 1635.9844,1149.0781 L1635.9844,1150.1719 Q1635.9844,1151.4063 1636.875,1152.2344 Q1637.7656,1153.0469 1639.3594,1153.0469 Q1640.2969,1153.0469 1640.9531,1152.7969 Q1641.3438,1152.6406 1641.7656,1152.2031 Q1642.0313,1151.9375 1642.1719,1151.8594 Q1642.3281,1151.7813 1642.5313,1151.7813 Q1642.8594,1151.7813 1643.1094,1152.0469 Q1643.375,1152.2969 1643.375,1152.6406 Q1643.375,1152.9844 1643.0313,1153.3906 Q1642.5313,1153.9688 1641.7344,1154.2969 Q1640.6563,1154.75 1639.3594,1154.75 Q1637.8438,1154.75 1636.6406,1154.125 Q1635.6563,1153.625 1634.9688,1152.5625 Q1634.2813,1151.4844 1634.2813,1150.2031 L1634.2813,1149.0469 Q1634.2813,1147.7188 1634.8906,1146.5781 Q1635.5156,1145.4219 1636.6094,1144.8125 Q1637.7031,1144.1875 1638.9375,1144.1875 Q1639.6719,1144.1875 1640.3125,1144.3594 Q1640.9688,1144.5156 1641.5156,1144.875 Z " fill="#000000"/><text fill="#000000" font-family="sans-serif" font-size="14" lengthAdjust="spacing" textLength="95" x="1659.25" y="1154.7969">Announcement</text><line style="stroke:#181818;stroke-width:0.5;" x1="1528.5" x2="1852.5" y1="1165" y2="1165"/><text fill="#000000" font-family="sans-serif" font-size="14" lengthAdjust="spacing" textLength="219" x="1533.5" y="1184.1074">employeeProject: EmployeeProject</text><text fill="#000000" font-family="sans-serif" font-size="14" lengthAdjust="spacing" textLength="263" x="1533.5" y="1202.7285">announcementState: AnnouncementState</text><text fill="#000000" font-family="sans-serif" font-size="14" lengthAdjust="spacing" textLength="126" x="1533.5" y="1221.3496">valueOfProperty: int</text><text fill="#000000" font-family="sans-serif" font-size="14" lengthAdjust="spacing" textLength="115" x="1533.5" y="1239.9707">property: Property</text><text fill="#000000" font-family="sans-serif" font-size="14" lengthAdjust="spacing" textLength="96" x="1533.5" y="1258.5918">commission: int</text><text fill="#000000" font-family="sans-serif" font-size="14" lengthAdjust="spacing" textLength="184" x="1533.5" y="1277.2129">creationDate: LocalDateTime</text><line style="stroke:#181818;stroke-width:0.5;" x1="1528.5" x2="1852.5" y1="1284.7266" y2="1284.7266"/><ellipse cx="1538.5" cy="1299.5371" fill="#84BE84" rx="3" ry="3" style="stroke:#038048;stroke-width:1.0;"/><text fill="#000000" font-family="sans-serif" font-size="14" lengthAdjust="spacing" textLength="300" x="1547.5" y="1303.834">Announcement(Property, int, EmployeeProject):</text><ellipse cx="1538.5" cy="1318.1582" fill="#84BE84" rx="3" ry="3" style="stroke:#038048;stroke-width:1.0;"/><text fill="#000000" font-family="sans-serif" font-size="14" lengthAdjust="spacing" textLength="104" x="1547.5" y="1322.4551">toString(): String</text><ellipse cx="1538.5" cy="1336.7793" fill="#84BE84" rx="3" ry="3" style="stroke:#038048;stroke-width:1.0;"/><text fill="#000000" font-family="sans-serif" font-size="14" lengthAdjust="spacing" textLength="283" x="1547.5" y="1341.0762">validateAnnouncement(Announcement): void</text></g><!--class AnnouncementRepository--><g id="elem_AnnouncementRepository"><rect codeLine="120" fill="#F1F1F1" height="252.832" id="AnnouncementRepository" rx="2.5" ry="2.5" style="stroke:#181818;stroke-width:0.5;" width="543" x="1377" y="339"/><ellipse cx="1562.75" cy="355" fill="#ADD1B2" rx="11" ry="11" style="stroke:#181818;stroke-width:1.0;"/><path d="M1565.5156,350.875 Q1565.6719,350.6563 1565.8594,350.5469 Q1566.0469,350.4375 1566.2656,350.4375 Q1566.6406,350.4375 1566.875,350.7031 Q1567.1094,350.9531 1567.1094,351.5625 L1567.1094,353.0156 Q1567.1094,353.625 1566.875,353.8906 Q1566.6406,354.1563 1566.2656,354.1563 Q1565.9219,354.1563 1565.7188,353.9531 Q1565.5156,353.7656 1565.4063,353.25 Q1565.3594,352.8906 1565.1719,352.7031 Q1564.8438,352.3281 1564.2344,352.1094 Q1563.625,351.8906 1563,351.8906 Q1562.2344,351.8906 1561.5938,352.2188 Q1560.9688,352.5469 1560.4688,353.2969 Q1559.9844,354.0469 1559.9844,355.0781 L1559.9844,356.1719 Q1559.9844,357.4063 1560.875,358.2344 Q1561.7656,359.0469 1563.3594,359.0469 Q1564.2969,359.0469 1564.9531,358.7969 Q1565.3438,358.6406 1565.7656,358.2031 Q1566.0313,357.9375 1566.1719,357.8594 Q1566.3281,357.7813 1566.5313,357.7813 Q1566.8594,357.7813 1567.1094,358.0469 Q1567.375,358.2969 1567.375,358.6406 Q1567.375,358.9844 1567.0313,359.3906 Q1566.5313,359.9688 1565.7344,360.2969 Q1564.6563,360.75 1563.3594,360.75 Q1561.8438,360.75 1560.6406,360.125 Q1559.6563,359.625 1558.9688,358.5625 Q1558.2813,357.4844 1558.2813,356.2031 L1558.2813,355.0469 Q1558.2813,353.7188 1558.8906,352.5781 Q1559.5156,351.4219 1560.6094,350.8125 Q1561.7031,350.1875 1562.9375,350.1875 Q1563.6719,350.1875 1564.3125,350.3594 Q1564.9688,350.5156 1565.5156,350.875 Z " fill="#000000"/><text fill="#000000" font-family="sans-serif" font-size="14" lengthAdjust="spacing" textLength="163" x="1583.25" y="360.7969">AnnouncementRepository</text><line style="stroke:#181818;stroke-width:0.5;" x1="1378" x2="1919" y1="371" y2="371"/><text fill="#000000" font-family="sans-serif" font-size="14" lengthAdjust="spacing" textLength="242" x="1383" y="390.1074">announcements: List&lt;Announcement&gt;</text><text fill="#000000" font-family="sans-serif" font-size="14" lengthAdjust="spacing" textLength="302" x="1383" y="408.7285">announcementsDTO: List&lt;AnnouncementDTO&gt;</text><text fill="#000000" font-family="sans-serif" font-size="14" lengthAdjust="spacing" textLength="361" x="1383" y="427.3496">announcementsDTOAccepted: List&lt;AnnouncementDTO&gt;</text><line style="stroke:#181818;stroke-width:0.5;" x1="1378" x2="1919" y1="434.8633" y2="434.8633"/><ellipse cx="1388" cy="449.6738" fill="#84BE84" rx="3" ry="3" style="stroke:#038048;stroke-width:1.0;"/><text fill="#000000" font-family="sans-serif" font-size="14" lengthAdjust="spacing" textLength="177" x="1397" y="453.9707">AnnouncementRepository():</text><rect fill="#F24D5C" height="6" style="stroke:#C82930;stroke-width:1.0;" width="6" x="1385" y="465.2949"/><text fill="#000000" font-family="sans-serif" font-size="14" lengthAdjust="spacing" textLength="364" x="1397" y="472.5918">findAnnouncement(AnnouncementDTO): Announcement?</text><ellipse cx="1388" cy="486.916" fill="#84BE84" rx="3" ry="3" style="stroke:#038048;stroke-width:1.0;"/><text fill="#000000" font-family="sans-serif" font-size="14" lengthAdjust="spacing" textLength="306" x="1397" y="491.2129">removeAnnouncement(Announcement): boolean</text><ellipse cx="1388" cy="505.5371" fill="#84BE84" rx="3" ry="3" style="stroke:#038048;stroke-width:1.0;"/><text fill="#000000" font-family="sans-serif" font-size="14" lengthAdjust="spacing" textLength="517" x="1397" y="509.834">getAnnouncementsByEmployee(EmployeeProjectDTO): List&lt;AnnouncementDTO&gt;</text><ellipse cx="1388" cy="524.1582" fill="#84BE84" rx="3" ry="3" style="stroke:#038048;stroke-width:1.0;"/><text fill="#000000" font-family="sans-serif" font-size="14" lengthAdjust="spacing" textLength="258" x="1397" y="528.4551">addAnnouncement(Announcement): void</text><ellipse cx="1388" cy="542.7793" fill="#84BE84" rx="3" ry="3" style="stroke:#038048;stroke-width:1.0;"/><text fill="#000000" font-family="sans-serif" font-size="14" lengthAdjust="spacing" textLength="508" x="1397" y="547.0762">createAnnouncement(Property, int, EmployeeProject): Optional&lt;Announcement&gt;</text><ellipse cx="1388" cy="561.4004" fill="#84BE84" rx="3" ry="3" style="stroke:#038048;stroke-width:1.0;"/><text fill="#000000" font-family="sans-serif" font-size="14" lengthAdjust="spacing" textLength="438" x="1397" y="565.6973">getPendingAnnouncementsByDate(String): List&lt;AnnouncementDTO&gt;</text><ellipse cx="1388" cy="580.0215" fill="#84BE84" rx="3" ry="3" style="stroke:#038048;stroke-width:1.0;"/><text fill="#000000" font-family="sans-serif" font-size="14" lengthAdjust="spacing" textLength="480" x="1397" y="584.3184">changeAnnouncementState(AnnouncementDTO, AnnouncementState): void</text></g><!--class AnnouncementState--><g id="elem_AnnouncementState"><rect codeLine="133" fill="#F1F1F1" height="116.4453" id="AnnouncementState" rx="2.5" ry="2.5" style="stroke:#181818;stroke-width:0.5;" width="258" x="2525.5" y="1183"/><ellipse cx="2586.25" cy="1205.291" fill="#EB937F" rx="11" ry="11" style="stroke:#181818;stroke-width:1.0;"/><path d="M2585.1094,1206.0879 L2585.1094,1208.5879 L2589.4375,1208.5879 L2589.4375,1207.666 Q2589.4375,1207.0566 2589.6719,1206.791 Q2589.9219,1206.5254 2590.2969,1206.5254 Q2590.6719,1206.5254 2590.9063,1206.791 Q2591.1406,1207.0566 2591.1406,1207.666 L2591.1406,1210.291 L2583.1406,1210.291 Q2582.5156,1210.291 2582.25,1210.0566 Q2582,1209.8223 2582,1209.4316 Q2582,1209.0566 2582.2656,1208.8223 Q2582.5313,1208.5879 2583.1406,1208.5879 L2583.4063,1208.5879 L2583.4063,1201.9316 L2583.1406,1201.9316 Q2582.5156,1201.9316 2582.25,1201.6973 Q2582,1201.4629 2582,1201.0723 Q2582,1200.6973 2582.25,1200.4629 Q2582.5156,1200.2285 2583.1406,1200.2285 L2590.7656,1200.2285 L2590.7656,1202.8223 Q2590.7656,1203.4316 2590.5313,1203.6973 Q2590.3125,1203.9473 2589.9219,1203.9473 Q2589.5469,1203.9473 2589.3125,1203.6973 Q2589.0781,1203.4316 2589.0781,1202.8223 L2589.0781,1201.9316 L2585.1094,1201.9316 L2585.1094,1204.3848 L2586.5938,1204.3848 Q2586.5938,1203.7285 2586.7188,1203.541 Q2586.9844,1203.1348 2587.4531,1203.1348 Q2587.8281,1203.1348 2588.0625,1203.4004 Q2588.2969,1203.6504 2588.2969,1204.2598 L2588.2969,1206.2285 Q2588.2969,1206.7754 2588.1719,1206.9629 Q2587.9063,1207.3535 2587.4531,1207.3535 Q2586.9844,1207.3535 2586.7188,1206.9473 Q2586.5938,1206.7598 2586.5938,1206.0879 L2585.1094,1206.0879 Z " fill="#000000"/><text fill="#000000" font-family="sans-serif" font-size="12" font-style="italic" lengthAdjust="spacing" textLength="84" x="2628.75" y="1200.9492">&#171;enumeration&#187;</text><text fill="#000000" font-family="sans-serif" font-size="14" lengthAdjust="spacing" textLength="128" x="2606.75" y="1219.0684">AnnouncementState</text><line style="stroke:#181818;stroke-width:0.5;" x1="2526.5" x2="2782.5" y1="1227.582" y2="1227.582"/><line style="stroke:#181818;stroke-width:0.5;" x1="2526.5" x2="2782.5" y1="1235.582" y2="1235.582"/><ellipse cx="2536.5" cy="1250.3926" fill="#84BE84" rx="3" ry="3" style="stroke:#038048;stroke-width:1.0;"/><text fill="#000000" font-family="sans-serif" font-size="14" lengthAdjust="spacing" textLength="142" x="2545.5" y="1254.6895">AnnouncementState():</text><ellipse cx="2536.5" cy="1269.0137" fill="#84BE84" rx="3" ry="3" style="stroke:#038048;stroke-width:1.0;"/><text fill="#000000" font-family="sans-serif" font-size="14" lengthAdjust="spacing" textLength="195" x="2545.5" y="1273.3105">values(): AnnouncementState[]</text><ellipse cx="2536.5" cy="1287.6348" fill="#84BE84" rx="3" ry="3" style="stroke:#038048;stroke-width:1.0;"/><text fill="#000000" font-family="sans-serif" font-size="14" lengthAdjust="spacing" textLength="232" x="2545.5" y="1291.9316">valueOf(String): AnnouncementState</text></g><!--class AnnouncementDTO--><g id="elem_AnnouncementDTO"><rect codeLine="138" fill="#F1F1F1" height="178.3477" id="AnnouncementDTO" rx="2.5" ry="2.5" style="stroke:#181818;stroke-width:0.5;" width="522" x="1888.5" y="1152"/><ellipse cx="2082.75" cy="1168" fill="#ADD1B2" rx="11" ry="11" style="stroke:#181818;stroke-width:1.0;"/><path d="M2085.5156,1163.875 Q2085.6719,1163.6563 2085.8594,1163.5469 Q2086.0469,1163.4375 2086.2656,1163.4375 Q2086.6406,1163.4375 2086.875,1163.7031 Q2087.1094,1163.9531 2087.1094,1164.5625 L2087.1094,1166.0156 Q2087.1094,1166.625 2086.875,1166.8906 Q2086.6406,1167.1563 2086.2656,1167.1563 Q2085.9219,1167.1563 2085.7188,1166.9531 Q2085.5156,1166.7656 2085.4063,1166.25 Q2085.3594,1165.8906 2085.1719,1165.7031 Q2084.8438,1165.3281 2084.2344,1165.1094 Q2083.625,1164.8906 2083,1164.8906 Q2082.2344,1164.8906 2081.5938,1165.2188 Q2080.9688,1165.5469 2080.4688,1166.2969 Q2079.9844,1167.0469 2079.9844,1168.0781 L2079.9844,1169.1719 Q2079.9844,1170.4063 2080.875,1171.2344 Q2081.7656,1172.0469 2083.3594,1172.0469 Q2084.2969,1172.0469 2084.9531,1171.7969 Q2085.3438,1171.6406 2085.7656,1171.2031 Q2086.0313,1170.9375 2086.1719,1170.8594 Q2086.3281,1170.7813 2086.5313,1170.7813 Q2086.8594,1170.7813 2087.1094,1171.0469 Q2087.375,1171.2969 2087.375,1171.6406 Q2087.375,1171.9844 2087.0313,1172.3906 Q2086.5313,1172.9688 2085.7344,1173.2969 Q2084.6563,1173.75 2083.3594,1173.75 Q2081.8438,1173.75 2080.6406,1173.125 Q2079.6563,1172.625 2078.9688,1171.5625 Q2078.2813,1170.4844 2078.2813,1169.2031 L2078.2813,1168.0469 Q2078.2813,1166.7188 2078.8906,1165.5781 Q2079.5156,1164.4219 2080.6094,1163.8125 Q2081.7031,1163.1875 2082.9375,1163.1875 Q2083.6719,1163.1875 2084.3125,1163.3594 Q2084.9688,1163.5156 2085.5156,1163.875 Z " fill="#000000"/><text fill="#000000" font-family="sans-serif" font-size="14" lengthAdjust="spacing" textLength="125" x="2103.25" y="1173.7969">AnnouncementDTO</text><line style="stroke:#181818;stroke-width:0.5;" x1="1889.5" x2="2409.5" y1="1184" y2="1184"/><text fill="#000000" font-family="sans-serif" font-size="14" lengthAdjust="spacing" textLength="263" x="1894.5" y="1203.1074">announcementState: AnnouncementState</text><text fill="#000000" font-family="sans-serif" font-size="14" lengthAdjust="spacing" textLength="249" x="1894.5" y="1221.7285">employeeProject: EmployeeProjectDTO</text><text fill="#000000" font-family="sans-serif" font-size="14" lengthAdjust="spacing" textLength="126" x="1894.5" y="1240.3496">valueOfProperty: int</text><text fill="#000000" font-family="sans-serif" font-size="14" lengthAdjust="spacing" textLength="115" x="1894.5" y="1258.9707">property: Property</text><text fill="#000000" font-family="sans-serif" font-size="14" lengthAdjust="spacing" textLength="184" x="1894.5" y="1277.5918">creationDate: LocalDateTime</text><line style="stroke:#181818;stroke-width:0.5;" x1="1889.5" x2="2409.5" y1="1285.1055" y2="1285.1055"/><ellipse cx="1899.5" cy="1299.916" fill="#84BE84" rx="3" ry="3" style="stroke:#038048;stroke-width:1.0;"/><text fill="#000000" font-family="sans-serif" font-size="14" lengthAdjust="spacing" textLength="496" x="1908.5" y="1304.2129">AnnouncementDTO(Property, int, EmployeeProjectDTO, AnnouncementState):</text><ellipse cx="1899.5" cy="1318.5371" fill="#84BE84" rx="3" ry="3" style="stroke:#038048;stroke-width:1.0;"/><text fill="#000000" font-family="sans-serif" font-size="14" lengthAdjust="spacing" textLength="104" x="1908.5" y="1322.834">toString(): String</text></g><!--class AnnouncementMapper--><g id="elem_AnnouncementMapper"><rect codeLine="147" fill="#F1F1F1" height="103.8633" id="AnnouncementMapper" rx="2.5" ry="2.5" style="stroke:#181818;stroke-width:0.5;" width="311" x="1591" y="810.5"/><ellipse cx="1670.75" cy="826.5" fill="#ADD1B2" rx="11" ry="11" style="stroke:#181818;stroke-width:1.0;"/><path d="M1673.5156,822.375 Q1673.6719,822.1563 1673.8594,822.0469 Q1674.0469,821.9375 1674.2656,821.9375 Q1674.6406,821.9375 1674.875,822.2031 Q1675.1094,822.4531 1675.1094,823.0625 L1675.1094,824.5156 Q1675.1094,825.125 1674.875,825.3906 Q1674.6406,825.6563 1674.2656,825.6563 Q1673.9219,825.6563 1673.7188,825.4531 Q1673.5156,825.2656 1673.4063,824.75 Q1673.3594,824.3906 1673.1719,824.2031 Q1672.8438,823.8281 1672.2344,823.6094 Q1671.625,823.3906 1671,823.3906 Q1670.2344,823.3906 1669.5938,823.7188 Q1668.9688,824.0469 1668.4688,824.7969 Q1667.9844,825.5469 1667.9844,826.5781 L1667.9844,827.6719 Q1667.9844,828.9063 1668.875,829.7344 Q1669.7656,830.5469 1671.3594,830.5469 Q1672.2969,830.5469 1672.9531,830.2969 Q1673.3438,830.1406 1673.7656,829.7031 Q1674.0313,829.4375 1674.1719,829.3594 Q1674.3281,829.2813 1674.5313,829.2813 Q1674.8594,829.2813 1675.1094,829.5469 Q1675.375,829.7969 1675.375,830.1406 Q1675.375,830.4844 1675.0313,830.8906 Q1674.5313,831.4688 1673.7344,831.7969 Q1672.6563,832.25 1671.3594,832.25 Q1669.8438,832.25 1668.6406,831.625 Q1667.6563,831.125 1666.9688,830.0625 Q1666.2813,828.9844 1666.2813,827.7031 L1666.2813,826.5469 Q1666.2813,825.2188 1666.8906,824.0781 Q1667.5156,822.9219 1668.6094,822.3125 Q1669.7031,821.6875 1670.9375,821.6875 Q1671.6719,821.6875 1672.3125,821.8594 Q1672.9688,822.0156 1673.5156,822.375 Z " fill="#000000"/><text fill="#000000" font-family="sans-serif" font-size="14" lengthAdjust="spacing" textLength="143" x="1691.25" y="832.2969">AnnouncementMapper</text><line style="stroke:#181818;stroke-width:0.5;" x1="1592" x2="1901" y1="842.5" y2="842.5"/><line style="stroke:#181818;stroke-width:0.5;" x1="1592" x2="1901" y1="850.5" y2="850.5"/><ellipse cx="1602" cy="865.3105" fill="#84BE84" rx="3" ry="3" style="stroke:#038048;stroke-width:1.0;"/><text fill="#000000" font-family="sans-serif" font-size="14" lengthAdjust="spacing" textLength="157" x="1611" y="869.6074">AnnouncementMapper():</text><ellipse cx="1602" cy="883.9316" fill="#84BE84" rx="3" ry="3" style="stroke:#038048;stroke-width:1.0;"/><text fill="#000000" font-family="sans-serif" font-size="14" lengthAdjust="spacing" textLength="280" x="1611" y="888.2285">toDTO(Announcement): AnnouncementDTO</text><ellipse cx="1602" cy="902.5527" fill="#84BE84" rx="3" ry="3" style="stroke:#038048;stroke-width:1.0;"/><text fill="#000000" font-family="sans-serif" font-size="14" lengthAdjust="spacing" textLength="285" x="1611" y="906.8496">toEntity(AnnouncementDTO): Announcement</text></g><!--class Client--><g id="elem_Client"><rect codeLine="153" fill="#F1F1F1" height="141.1055" id="Client" rx="2.5" ry="2.5" style="stroke:#181818;stroke-width:0.5;" width="484" x="807.5" y="1170.5"/><ellipse cx="1027.25" cy="1186.5" fill="#ADD1B2" rx="11" ry="11" style="stroke:#181818;stroke-width:1.0;"/><path d="M1030.0156,1182.375 Q1030.1719,1182.1563 1030.3594,1182.0469 Q1030.5469,1181.9375 1030.7656,1181.9375 Q1031.1406,1181.9375 1031.375,1182.2031 Q1031.6094,1182.4531 1031.6094,1183.0625 L1031.6094,1184.5156 Q1031.6094,1185.125 1031.375,1185.3906 Q1031.1406,1185.6563 1030.7656,1185.6563 Q1030.4219,1185.6563 1030.2188,1185.4531 Q1030.0156,1185.2656 1029.9063,1184.75 Q1029.8594,1184.3906 1029.6719,1184.2031 Q1029.3438,1183.8281 1028.7344,1183.6094 Q1028.125,1183.3906 1027.5,1183.3906 Q1026.7344,1183.3906 1026.0938,1183.7188 Q1025.4688,1184.0469 1024.9688,1184.7969 Q1024.4844,1185.5469 1024.4844,1186.5781 L1024.4844,1187.6719 Q1024.4844,1188.9063 1025.375,1189.7344 Q1026.2656,1190.5469 1027.8594,1190.5469 Q1028.7969,1190.5469 1029.4531,1190.2969 Q1029.8438,1190.1406 1030.2656,1189.7031 Q1030.5313,1189.4375 1030.6719,1189.3594 Q1030.8281,1189.2813 1031.0313,1189.2813 Q1031.3594,1189.2813 1031.6094,1189.5469 Q1031.875,1189.7969 1031.875,1190.1406 Q1031.875,1190.4844 1031.5313,1190.8906 Q1031.0313,1191.4688 1030.2344,1191.7969 Q1029.1563,1192.25 1027.8594,1192.25 Q1026.3438,1192.25 1025.1406,1191.625 Q1024.1563,1191.125 1023.4688,1190.0625 Q1022.7813,1188.9844 1022.7813,1187.7031 L1022.7813,1186.5469 Q1022.7813,1185.2188 1023.3906,1184.0781 Q1024.0156,1182.9219 1025.1094,1182.3125 Q1026.2031,1181.6875 1027.4375,1181.6875 Q1028.1719,1181.6875 1028.8125,1181.8594 Q1029.4688,1182.0156 1030.0156,1182.375 Z " fill="#000000"/><text fill="#000000" font-family="sans-serif" font-size="14" lengthAdjust="spacing" textLength="36" x="1047.75" y="1192.2969">Client</text><line style="stroke:#181818;stroke-width:0.5;" x1="808.5" x2="1290.5" y1="1202.5" y2="1202.5"/><text fill="#000000" font-family="sans-serif" font-size="14" lengthAdjust="spacing" textLength="164" x="813.5" y="1221.6074">properties: List&lt;Property&gt;</text><line style="stroke:#181818;stroke-width:0.5;" x1="808.5" x2="1290.5" y1="1229.1211" y2="1229.1211"/><ellipse cx="818.5" cy="1243.9316" fill="#84BE84" rx="3" ry="3" style="stroke:#038048;stroke-width:1.0;"/><text fill="#000000" font-family="sans-serif" font-size="14" lengthAdjust="spacing" textLength="379" x="827.5" y="1248.2285">Client(String, String, int, String, String, String, String, Roles):</text><rect fill="#F24D5C" height="6" style="stroke:#C82930;stroke-width:1.0;" width="6" x="815.5" y="1259.5527"/><text fill="#000000" font-family="sans-serif" font-size="14" lengthAdjust="spacing" textLength="180" x="827.5" y="1266.8496">validateTaxNumber(int): void</text><rect fill="#F24D5C" height="6" style="stroke:#C82930;stroke-width:1.0;" width="6" x="815.5" y="1278.1738"/><text fill="#000000" font-family="sans-serif" font-size="14" lengthAdjust="spacing" textLength="458" x="827.5" y="1285.4707">validateClient(String, String, int, String, String, String, String, Roles): void</text><ellipse cx="818.5" cy="1299.7949" fill="#84BE84" rx="3" ry="3" style="stroke:#038048;stroke-width:1.0;"/><text fill="#000000" font-family="sans-serif" font-size="14" lengthAdjust="spacing" textLength="176" x="827.5" y="1304.0918">addProperty(Property): void</text></g><!--reverse link User to Client--><g id="link_User_Client"><path d="M1323.95,1074.21 C1321.23,1091.78 1319.5,1103 1319.5,1103 C1319.5,1103 1253.31,1136.58 1186.48,1170.5 " fill="none" id="User-backto-Client" style="stroke:#181818;stroke-width:1.0;"/><polygon fill="none" points="1317.06,1072.94,1327.03,1054.24,1330.9,1075.08,1317.06,1072.94" style="stroke:#181818;stroke-width:1.0;"/></g><!--link User to Roles--><g id="link_User_Roles"><path codeLine="161" d="M1383.35,1054.23 C1389.97,1101.24 1396.56,1148.04 1401.46,1182.91 " fill="none" id="User-Roles" style="stroke:#181818;stroke-width:1.0;"/><polygon fill="#000000" points="1394.1968,1098.5967,1395.8465,1089.2303,1390.026,1090.0495,1394.1968,1098.5967" style="stroke:#000000;stroke-width:1.0;"/><text fill="#000000" font-family="sans-serif" font-size="13" lengthAdjust="spacing" textLength="21" x="1402.5" y="1099.0283">has</text><text fill="#000000" font-family="sans-serif" font-size="13" lengthAdjust="spacing" textLength="7" x="1377.2621" y="1076.082">1</text><text fill="#000000" font-family="sans-serif" font-size="13" lengthAdjust="spacing" textLength="16" x="1383.5051" y="1171.8133">1.*</text></g><!--link CreateOrderController to Repositories--><g id="link_CreateOrderController_Repositories"><path codeLine="162" d="M1052.22,133.5 C1085,133.5 1118.63,133.5 1150.75,133.5 " fill="none" id="CreateOrderController-to-Repositories" style="stroke:#181818;stroke-width:1.0;stroke-dasharray:7.0,7.0;"/><polygon fill="#181818" points="1155.89,133.5,1146.89,129.5,1150.89,133.5,1146.89,137.5,1155.89,133.5" style="stroke:#181818;stroke-width:1.0;"/><text fill="#000000" font-family="sans-serif" font-size="13" lengthAdjust="spacing" textLength="67" x="1070.5" y="126.5283">repositories</text></g><!--link CreateOrderUI to CreateOrderController--><g id="link_CreateOrderUI_CreateOrderController"><path codeLine="163" d="M594.29,133.5 C603.94,133.5 613.99,133.5 623.77,133.5 " fill="none" id="CreateOrderUI-to-CreateOrderController" style="stroke:#181818;stroke-width:1.0;stroke-dasharray:7.0,7.0;"/><polygon fill="#181818" points="628.85,133.5,619.85,129.5,623.85,133.5,619.85,137.5,628.85,133.5" style="stroke:#181818;stroke-width:1.0;"/></g><!--link Repositories to OrderRepository--><g id="link_Repositories_OrderRepository"><path codeLine="165" d="M1209.42,260.2 C1184.78,284.77 1158.9,310.56 1134.15,335.24 " fill="none" id="Repositories-to-OrderRepository" style="stroke:#181818;stroke-width:1.0;"/><polygon fill="#181818" points="1130.5,338.88,1139.6995,335.363,1134.0427,335.3516,1134.0541,329.6948,1130.5,338.88" style="stroke:#181818;stroke-width:1.0;"/><polygon fill="#000000" points="1171.9591,303.1756,1180.4396,298.8709,1176.2897,294.7083,1171.9591,303.1756" style="stroke:#000000;stroke-width:1.0;"/><text fill="#000000" font-family="sans-serif" font-size="13" lengthAdjust="spacing" textLength="21" x="1184.5" y="305.0283">has</text><text fill="#000000" font-family="sans-serif" font-size="13" lengthAdjust="spacing" textLength="7" x="1194.9287" y="282.0578">1</text><text fill="#000000" font-family="sans-serif" font-size="13" lengthAdjust="spacing" textLength="5" x="1133.0258" y="327.6884">*</text></g><!--link Repositories to AnnouncementRepository--><g id="link_Repositories_AnnouncementRepository"><path codeLine="166" d="M1454.72,260.2 C1478.02,284.77 1502.49,310.56 1525.9,335.24 " fill="none" id="Repositories-to-AnnouncementRepository" style="stroke:#181818;stroke-width:1.0;"/><polygon fill="#181818" points="1529.35,338.88,1526.057,329.598,1525.9085,335.2529,1520.2536,335.1044,1529.35,338.88" style="stroke:#181818;stroke-width:1.0;"/><polygon fill="#000000" points="1499.941,303.2731,1495.8484,294.6881,1491.5839,298.7333,1499.941,303.2731" style="stroke:#000000;stroke-width:1.0;"/><text fill="#000000" font-family="sans-serif" font-size="13" lengthAdjust="spacing" textLength="21" x="1505.5" y="305.0283">has</text><text fill="#000000" font-family="sans-serif" font-size="13" lengthAdjust="spacing" textLength="7" x="1454.4101" y="282.0578">1</text><text fill="#000000" font-family="sans-serif" font-size="13" lengthAdjust="spacing" textLength="5" x="1516.937" y="327.6884">*</text></g><!--link OrderRepository to OrderMapper--><g id="link_OrderRepository_OrderMapper"><path codeLine="167" d="M870.08,592.02 C792.67,664.31 699.31,751.49 640.16,806.72 " fill="none" id="OrderRepository-to-OrderMapper" style="stroke:#181818;stroke-width:1.0;"/><polygon fill="#181818" points="636.32,810.31,645.6283,807.0921,639.9748,806.8979,640.169,801.2444,636.32,810.31" style="stroke:#181818;stroke-width:1.0;"/><polygon fill="#000000" points="832.8456,635.058,841.4623,631.0327,837.4507,626.7367,832.8456,635.058" style="stroke:#000000;stroke-width:1.0;"/><text fill="#000000" font-family="sans-serif" font-size="13" lengthAdjust="spacing" textLength="30" x="845.5" y="637.0283">Uses</text><text fill="#000000" font-family="sans-serif" font-size="13" lengthAdjust="spacing" textLength="7" x="855.1065" y="613.8674">1</text><text fill="#000000" font-family="sans-serif" font-size="13" lengthAdjust="spacing" textLength="5" x="638.3505" y="799.2118">*</text></g><!--link OrderMapper to OrderDTO--><g id="link_OrderMapper_OrderDTO"><path codeLine="168" d="M532.57,914.67 C470.44,979.65 362.78,1092.24 291.84,1166.43 " fill="none" id="OrderMapper-to-OrderDTO" style="stroke:#181818;stroke-width:1.0;"/><polygon fill="#181818" points="288.07,1170.38,297.1816,1166.6411,291.5261,1166.7668,291.4004,1161.1113,288.07,1170.38" style="stroke:#181818;stroke-width:1.0;"/><polygon fill="#000000" points="371.0445,1097.2593,379.4197,1092.753,375.1714,1088.6908,371.0445,1097.2593" style="stroke:#000000;stroke-width:1.0;"/><text fill="#000000" font-family="sans-serif" font-size="13" lengthAdjust="spacing" textLength="43" x="383.5" y="1099.0283">creates</text><text fill="#000000" font-family="sans-serif" font-size="13" lengthAdjust="spacing" textLength="7" x="518.8524" y="936.4991">1</text><text fill="#000000" font-family="sans-serif" font-size="13" lengthAdjust="spacing" textLength="5" x="289.6772" y="1159.2586">*</text></g><!--link AnnouncementRepository to AnnouncementMapper--><g id="link_AnnouncementRepository_AnnouncementMapper"><path codeLine="169" d="M1679.64,592.02 C1697.43,663.73 1718.86,750.1 1732.58,805.39 " fill="none" id="AnnouncementRepository-to-AnnouncementMapper" style="stroke:#181818;stroke-width:1.0;"/><polygon fill="#181818" points="1733.8,810.31,1735.518,800.6121,1732.5974,805.4568,1727.7528,802.5362,1733.8,810.31" style="stroke:#181818;stroke-width:1.0;"/><polygon fill="#000000" points="1697.7041,636.4984,1698.3783,627.0117,1692.6735,628.4272,1697.7041,636.4984" style="stroke:#000000;stroke-width:1.0;"/><text fill="#000000" font-family="sans-serif" font-size="13" lengthAdjust="spacing" textLength="30" x="1705.5" y="637.0283">Uses</text><text fill="#000000" font-family="sans-serif" font-size="13" lengthAdjust="spacing" textLength="7" x="1674.2379" y="613.8674">1</text><text fill="#000000" font-family="sans-serif" font-size="13" lengthAdjust="spacing" textLength="5" x="1726.7575" y="799.2118">*</text></g><!--link AnnouncementMapper to AnnouncementDTO--><g id="link_AnnouncementMapper_AnnouncementDTO"><path codeLine="170" d="M1801.27,914.67 C1865.35,974.54 1972.68,1074.81 2051.28,1148.24 " fill="none" id="AnnouncementMapper-to-AnnouncementDTO" style="stroke:#181818;stroke-width:1.0;"/><polygon fill="#181818" points="2055,1151.72,2051.151,1142.6544,2051.3452,1148.3079,2045.6917,1148.5021,2055,1151.72" style="stroke:#181818;stroke-width:1.0;"/><polygon fill="#000000" points="2004.1536,1097.0589,1999.5505,1088.7365,1995.5378,1093.0316,2004.1536,1097.0589" style="stroke:#000000;stroke-width:1.0;"/><text fill="#000000" font-family="sans-serif" font-size="13" lengthAdjust="spacing" textLength="43" x="2009.5" y="1099.0283">creates</text><text fill="#000000" font-family="sans-serif" font-size="13" lengthAdjust="spacing" textLength="7" x="1800.839" y="936.4991">1</text><text fill="#000000" font-family="sans-serif" font-size="13" lengthAdjust="spacing" textLength="5" x="2041.9672" y="1140.6486">*</text></g><!--link AnnouncementMapper to Announcement--><g id="link_AnnouncementMapper_Announcement"><path codeLine="171" d="M1738.89,914.67 C1730.79,969.15 1717.7,1057.1 1707.18,1127.83 " fill="none" id="AnnouncementMapper-to-Announcement" style="stroke:#181818;stroke-width:1.0;"/><polygon fill="#181818" points="1706.43,1132.89,1711.6997,1124.5695,1707.1591,1127.9434,1703.7852,1123.4029,1706.43,1132.89" style="stroke:#181818;stroke-width:1.0;"/><text fill="#000000" font-family="sans-serif" font-size="13" lengthAdjust="spacing" textLength="149" x="1713.5" y="1099.0283">transformsDTO to object&gt;</text><text fill="#000000" font-family="sans-serif" font-size="13" lengthAdjust="spacing" textLength="7" x="1730.4665" y="936.4991">1</text><text fill="#000000" font-family="sans-serif" font-size="13" lengthAdjust="spacing" textLength="5" x="1702.3743" y="1121.7438">*</text></g><!--link OrderRepository to Order--><g id="link_OrderRepository_Order"><path codeLine="172" d="M1004.5,592.02 C1004.5,649.14 1004.5,715.56 1004.5,768.17 " fill="none" id="OrderRepository-to-Order" style="stroke:#181818;stroke-width:1.0;"/><polygon fill="#181818" points="1004.5,773.22,1008.5,764.22,1004.5,768.22,1000.5,764.22,1004.5,773.22" style="stroke:#181818;stroke-width:1.0;"/><polygon fill="#000000" points="1009.5,636.6455,1012.4389,627.6004,1006.5611,627.6004,1009.5,636.6455" style="stroke:#000000;stroke-width:1.0;"/><text fill="#000000" font-family="sans-serif" font-size="13" lengthAdjust="spacing" textLength="21" x="1018.5" y="637.0283">has</text><text fill="#000000" font-family="sans-serif" font-size="13" lengthAdjust="spacing" textLength="7" x="997.2977" y="613.8674">1</text><text fill="#000000" font-family="sans-serif" font-size="13" lengthAdjust="spacing" textLength="5" x="999.293" y="762.1486">*</text></g><!--link Order to Announcement--><g id="link_Order_Announcement"><path codeLine="173" d="M1066.86,951.5 C1102.24,1001.42 1139.5,1054 1139.5,1054 C1139.5,1054 1243.5,1103 1243.5,1103 C1243.5,1103 1510.5,1133 1510.5,1133 C1510.5,1133 1515.1,1135.73 1522.83,1140.33 " fill="none" id="Order-to-Announcement" style="stroke:#181818;stroke-width:1.0;"/><polygon fill="#181818" points="1527.43,1143.07,1521.739,1135.0318,1523.1325,1140.5143,1517.65,1141.9078,1527.43,1143.07" style="stroke:#181818;stroke-width:1.0;"/><polygon fill="#000000" points="1253.1195,1095.5586,1245.8872,1089.3825,1243.6382,1094.8131,1253.1195,1095.5586" style="stroke:#000000;stroke-width:1.0;"/><text fill="#000000" font-family="sans-serif" font-size="13" lengthAdjust="spacing" textLength="121" x="1257.5" y="1099.0283">has a announcement</text><text fill="#000000" font-family="sans-serif" font-size="13" lengthAdjust="spacing" textLength="5" x="1067.0042" y="973.9048">*</text><text fill="#000000" font-family="sans-serif" font-size="13" lengthAdjust="spacing" textLength="7" x="1512.3618" y="1134.9601">1</text></g><!--link Order to Client--><g id="link_Order_Client"><path codeLine="174" d="M1015.05,951.77 C1022.81,1016.67 1033.23,1103.91 1040.58,1165.35 " fill="none" id="Order-to-Client" style="stroke:#181818;stroke-width:1.0;"/><polygon fill="#181818" points="1041.19,1170.47,1044.0796,1161.0546,1040.5892,1165.5062,1036.1375,1162.0159,1041.19,1170.47" style="stroke:#181818;stroke-width:1.0;"/><polygon fill="#000000" points="1038.0934,1098.6102,1039.938,1089.2802,1034.1017,1089.9778,1038.0934,1098.6102" style="stroke:#000000;stroke-width:1.0;"/><text fill="#000000" font-family="sans-serif" font-size="13" lengthAdjust="spacing" textLength="67" x="1046.5" y="1099.0283">has a client</text><text fill="#000000" font-family="sans-serif" font-size="13" lengthAdjust="spacing" textLength="7" x="1008.6338" y="973.8926">1</text><text fill="#000000" font-family="sans-serif" font-size="13" lengthAdjust="spacing" textLength="5" x="1035.0752" y="1159.3579">*</text></g><!--link Announcement to AnnouncementState--><g id="link_Announcement_AnnouncementState"><path codeLine="175" d="M1853.82,1143.55 C1864.73,1137.04 1871.5,1133 1871.5,1133 C1871.5,1133 2271.5,1108 2271.5,1108 C2271.5,1108 2351.5,1108 2351.5,1108 C2351.5,1108 2428.5,1133 2428.5,1133 C2428.5,1133 2476.47,1155.92 2528.21,1180.65 " fill="none" id="Announcement-to-AnnouncementState" style="stroke:#181818;stroke-width:1.0;"/><polygon fill="#181818" points="2532.9,1182.89,2526.5133,1175.3926,2528.3913,1180.7287,2523.0552,1182.6066,2532.9,1182.89" style="stroke:#181818;stroke-width:1.0;"/><polygon fill="#000000" points="2281.4925,1093.9202,2272.6225,1090.4888,2272.2996,1096.3578,2281.4925,1093.9202" style="stroke:#000000;stroke-width:1.0;"/><text fill="#000000" font-family="sans-serif" font-size="13" lengthAdjust="spacing" textLength="65" x="2285.5" y="1099.0283">has a state</text><text fill="#000000" font-family="sans-serif" font-size="13" lengthAdjust="spacing" textLength="5" x="1861.3337" y="1135.7933">*</text><text fill="#000000" font-family="sans-serif" font-size="13" lengthAdjust="spacing" textLength="7" x="2510.6534" y="1171.7908">1</text></g><!--link AnnouncementDTO to AnnouncementState--><g id="link_AnnouncementDTO_AnnouncementState"><path codeLine="176" d="M2410.51,1241 C2448.35,1241 2485.95,1241 2519.88,1241 " fill="none" id="AnnouncementDTO-to-AnnouncementState" style="stroke:#181818;stroke-width:1.0;"/><polygon fill="#181818" points="2525.29,1241,2516.29,1237,2520.29,1241,2516.29,1245,2525.29,1241" style="stroke:#181818;stroke-width:1.0;"/><polygon fill="#000000" points="2438,1228.6455,2428.9549,1225.7066,2428.9549,1231.5844,2438,1228.6455" style="stroke:#000000;stroke-width:1.0;"/><text fill="#000000" font-family="sans-serif" font-size="13" lengthAdjust="spacing" textLength="65" x="2442" y="1234.0283">has a state</text><text fill="#000000" font-family="sans-serif" font-size="13" lengthAdjust="spacing" textLength="5" x="2418.333" y="1237.7751">*</text><text fill="#000000" font-family="sans-serif" font-size="13" lengthAdjust="spacing" textLength="7" x="2510.6177" y="1237.5325">1</text></g><!--link OrderDTO to StatusOfOrder--><g id="link_OrderDTO_StatusOfOrder"><path codeLine="177" d="M436.02,1241 C473.64,1241 511.47,1241 545.11,1241 " fill="none" id="OrderDTO-to-StatusOfOrder" style="stroke:#181818;stroke-width:1.0;"/><polygon fill="#181818" points="550.48,1241,541.48,1237,545.48,1241,541.48,1245,550.48,1241" style="stroke:#181818;stroke-width:1.0;"/><polygon fill="#000000" points="463.25,1228.6455,454.2049,1225.7066,454.2049,1231.5844,463.25,1228.6455" style="stroke:#000000;stroke-width:1.0;"/><text fill="#000000" font-family="sans-serif" font-size="13" lengthAdjust="spacing" textLength="65" x="467.25" y="1234.0283">has a state</text><text fill="#000000" font-family="sans-serif" font-size="13" lengthAdjust="spacing" textLength="5" x="443.8192" y="1237.7262">*</text><text fill="#000000" font-family="sans-serif" font-size="13" lengthAdjust="spacing" textLength="7" x="535.4278" y="1237.4252">1</text></g><!--link Order to StatusOfOrder--><g id="link_Order_StatusOfOrder"><path codeLine="178" d="M924.08,951.77 C860.43,1021.64 773.21,1117.38 717.09,1178.98 " fill="none" id="Order-to-StatusOfOrder" style="stroke:#181818;stroke-width:1.0;"/><polygon fill="#181818" points="713.44,1182.98,722.466,1179.039,716.8147,1179.2907,716.5631,1173.6394,713.44,1182.98" style="stroke:#181818;stroke-width:1.0;"/><polygon fill="#000000" points="804.1328,1097.3417,812.3967,1092.6345,808.0516,1088.676,804.1328,1097.3417" style="stroke:#000000;stroke-width:1.0;"/><text fill="#000000" font-family="sans-serif" font-size="13" lengthAdjust="spacing" textLength="65" x="816.5" y="1099.0283">has a state</text><text fill="#000000" font-family="sans-serif" font-size="13" lengthAdjust="spacing" textLength="5" x="912.2132" y="973.8926">*</text><text fill="#000000" font-family="sans-serif" font-size="13" lengthAdjust="spacing" textLength="7" x="712.3436" y="1171.8918">1</text></g><!--SRC=[jLXBR-Cs4BxhLn2-n6dY1TAZ4RZm9Zaii5i76- -fw86HnZQx4YcGL3PgaVxsaXGfyI75JjgU4ixxyN56z9duJcYDEQvGnIZB3vnLW2Hl81iuDSw_upqyoBO4n26NcEvBNq0SSC5-4Bf7ErmAdrCI2hAj0TMiRFKXEnjXCYvPvcdb9HPYBIKdZus4JpcZ3-HFGBEVPzbP2Jk994ESx0yI5KJ7GnZDiineeQzGCq4aumG4-Yj3Q16GvkTBHViRrPpLm6NRyzebkazeHXGtyW1KaXnhHxx2Ue9ZrFAIA9ulVXDHJ7242bNF79P1c9rZIbcZM5LaPprALohlqDZm0hWl6X6qp6I8f-NudWA-zFty9e2RFbwOV-SF2XLqVudSNqBbS9Zw-vML84pd5wW-CAfIwLY6Gd4L4g32f0mek2Wu217G97x-jQaUWIzr48PKWCXhdKeeoRNxPHT55uFAx0VZXITreK3T7HH41t8St9ZgkDiaYoJpaQpYKECaNpAWJTMnqVKrqYVWfdjejR9zCjpkebsW9rmsvjIHV_jze6vsjfkEgTlUTVs60vPWiFZjapKRqEQscmKHTOdRDIqUe5IZm4UwTkgVRxURNumbtb3DUsAaC4P4yrWHUOib3iYzxS74fYlp_3CHyZgolNAwBsaIDunALTgon_8epzLCzSLmjcmBGiuZFnRptKrJP-NsaQdoOHeeZwe5iWkq1zcP-TZgotMd4JFqfFUWWS1E61J_spXursZpDHIaHrlMzohAndOfehh-v4FpJcXEXnbSNXi5uzMEbCw2gQoFk_j6tWCtv02FEqAjYhEak4RCmXh-K3SWbBX4NzGDLzjRR7PnCmRR2ZLv3lKxTOtyPhSzm7glhrrKadDR-p1zCm7MfQfaqTuzAxwOcygboZvWEuI5QdsjNrVkAYMIO084sBwpfBL1NoqCHWUscMsawF4HTRVBssqCcu-x9vgYLgriLC6DjhRh7MDKX-WFCr6v-I1MnsDGlGoTcIIZSDyVd9qYORwQ60Jz1TTrtmIFCkyhVgV6WsoJ2s2vEajNS2VYTbOGxEJk2gJI7HQmftPPM1QNe5yDwonOLkxhqxRbhgfBrW8eihxLfq4kCEWVF012Q7WPUuhxgBE1i9c6rADZitEXzpYfUu9ZcUQpgY92g7eF-DUJL15kZO_FBCUb_dTBAXWjN3AXnvdkwq1FpCcQTF3nAMwCLkpfrLBwwrQjK9yhFhQkdlEeiDueJDQGNTmdzCzjdpTXPzX1ljhA9N0Fj51GYlBGZHX0FHrtVb3lGKZmaOwRHCH3vR5blKg4bCdfg1BHjTblK4n_1vWXaOGuEIZIV9DXaOXC3OpqRerXVvZe4VL8-wTg_ygZuzJxVsoMsAd_nZ7nnfaGB8sKCUoEU0UUZwqeRycyFYoynufPPWYUfRf7mOkru_pxDwkRxrlt6fiJVoOC0l-1G- -Ri2XSNtg8ULVMTe-0kwzEHj-cp5HXTZLRB6PN7twQsIVZ4XsmGAji_6dqOHN-VBDKizZxmI5y52hXKIjP5jXG8Q35OeLcAeRu8zz5CwamiNgSNcmlyMMXkTIOw1KiCH7MztjffxiMdd0-5L_iQuGtfVgQvoEgIazoJCMEyKhFMVtJ77lKT_-4yeI5D7J3lqfyQ34SZAL1oxDgRwAJxxuseuGwDwcNRjmxLM5EeQPExqtAVLizhV0pT5H3YozMnuN_0G00]--></g></svg>
