<?xml version="1.0" encoding="us-ascii" standalone="no"?><svg xmlns="http://www.w3.org/2000/svg" xmlns:xlink="http://www.w3.org/1999/xlink" contentStyleType="text/css" height="978px" preserveAspectRatio="none" style="width:1755px;height:978px;background:#FFFFFF;" version="1.1" viewBox="0 0 1755 978" width="1755px" zoomAndPan="magnify"><defs><filter height="300%" id="f1qatyrzsu8bc8" width="300%" x="-1" y="-1"><feGaussianBlur result="blurOut" stdDeviation="2.0"/><feColorMatrix in="blurOut" result="blurOut2" type="matrix" values="0 0 0 0 0 0 0 0 0 0 0 0 0 0 0 0 0 0 .4 0"/><feOffset dx="4.0" dy="4.0" in="blurOut2" result="blurOut3"/><feBlend in="SourceGraphic" in2="blurOut3" mode="normal"/></filter></defs><g><!--class CreateStoreUI--><g id="elem_CreateStoreUI"><rect codeLine="8" fill="#F1F1F1" filter="url(#f1qatyrzsu8bc8)" height="48" id="CreateStoreUI" rx="2.5" ry="2.5" style="stroke:#181818;stroke-width:0.5;" width="121" x="231.5" y="304.5"/><ellipse cx="246.5" cy="320.5" fill="#ADD1B2" rx="11" ry="11" style="stroke:#181818;stroke-width:1.0;"/><path d="M249.2656,316.375 Q249.4219,316.1563 249.6094,316.0469 Q249.7969,315.9375 250.0156,315.9375 Q250.3906,315.9375 250.625,316.2031 Q250.8594,316.4531 250.8594,317.0625 L250.8594,318.5156 Q250.8594,319.125 250.625,319.3906 Q250.3906,319.6563 250.0156,319.6563 Q249.6719,319.6563 249.4688,319.4531 Q249.2656,319.2656 249.1563,318.75 Q249.1094,318.3906 248.9219,318.2031 Q248.5938,317.8281 247.9844,317.6094 Q247.375,317.3906 246.75,317.3906 Q245.9844,317.3906 245.3438,317.7188 Q244.7188,318.0469 244.2188,318.7969 Q243.7344,319.5469 243.7344,320.5781 L243.7344,321.6719 Q243.7344,322.9063 244.625,323.7344 Q245.5156,324.5469 247.1094,324.5469 Q248.0469,324.5469 248.7031,324.2969 Q249.0938,324.1406 249.5156,323.7031 Q249.7813,323.4375 249.9219,323.3594 Q250.0781,323.2813 250.2813,323.2813 Q250.6094,323.2813 250.8594,323.5469 Q251.125,323.7969 251.125,324.1406 Q251.125,324.4844 250.7813,324.8906 Q250.2813,325.4688 249.4844,325.7969 Q248.4063,326.25 247.1094,326.25 Q245.5938,326.25 244.3906,325.625 Q243.4063,325.125 242.7188,324.0625 Q242.0313,322.9844 242.0313,321.7031 L242.0313,320.5469 Q242.0313,319.2188 242.6406,318.0781 Q243.2656,316.9219 244.3594,316.3125 Q245.4531,315.6875 246.6875,315.6875 Q247.4219,315.6875 248.0625,315.8594 Q248.7188,316.0156 249.2656,316.375 Z " fill="#000000"/><text fill="#000000" font-family="sans-serif" font-size="14" lengthAdjust="spacing" textLength="89" x="260.5" y="325.3535">CreateStoreUI</text><line style="stroke:#181818;stroke-width:0.5;" x1="232.5" x2="351.5" y1="336.5" y2="336.5"/><line style="stroke:#181818;stroke-width:0.5;" x1="232.5" x2="351.5" y1="344.5" y2="344.5"/></g><!--class CreateStoreController--><g id="elem_CreateStoreController"><rect codeLine="11" fill="#F1F1F1" filter="url(#f1qatyrzsu8bc8)" height="94.9219" id="CreateStoreController" rx="2.5" ry="2.5" style="stroke:#181818;stroke-width:0.5;" width="570" x="7" y="388"/><ellipse cx="218.25" cy="404" fill="#ADD1B2" rx="11" ry="11" style="stroke:#181818;stroke-width:1.0;"/><path d="M221.0156,399.875 Q221.1719,399.6563 221.3594,399.5469 Q221.5469,399.4375 221.7656,399.4375 Q222.1406,399.4375 222.375,399.7031 Q222.6094,399.9531 222.6094,400.5625 L222.6094,402.0156 Q222.6094,402.625 222.375,402.8906 Q222.1406,403.1563 221.7656,403.1563 Q221.4219,403.1563 221.2188,402.9531 Q221.0156,402.7656 220.9063,402.25 Q220.8594,401.8906 220.6719,401.7031 Q220.3438,401.3281 219.7344,401.1094 Q219.125,400.8906 218.5,400.8906 Q217.7344,400.8906 217.0938,401.2188 Q216.4688,401.5469 215.9688,402.2969 Q215.4844,403.0469 215.4844,404.0781 L215.4844,405.1719 Q215.4844,406.4063 216.375,407.2344 Q217.2656,408.0469 218.8594,408.0469 Q219.7969,408.0469 220.4531,407.7969 Q220.8438,407.6406 221.2656,407.2031 Q221.5313,406.9375 221.6719,406.8594 Q221.8281,406.7813 222.0313,406.7813 Q222.3594,406.7813 222.6094,407.0469 Q222.875,407.2969 222.875,407.6406 Q222.875,407.9844 222.5313,408.3906 Q222.0313,408.9688 221.2344,409.2969 Q220.1563,409.75 218.8594,409.75 Q217.3438,409.75 216.1406,409.125 Q215.1563,408.625 214.4688,407.5625 Q213.7813,406.4844 213.7813,405.2031 L213.7813,404.0469 Q213.7813,402.7188 214.3906,401.5781 Q215.0156,400.4219 216.1094,399.8125 Q217.2031,399.1875 218.4375,399.1875 Q219.1719,399.1875 219.8125,399.3594 Q220.4688,399.5156 221.0156,399.875 Z " fill="#000000"/><text fill="#000000" font-family="sans-serif" font-size="14" lengthAdjust="spacing" textLength="139" x="238.75" y="408.8535">CreateStoreController</text><line style="stroke:#181818;stroke-width:0.5;" x1="8" x2="576" y1="420" y2="420"/><line style="stroke:#181818;stroke-width:0.5;" x1="8" x2="576" y1="428" y2="428"/><ellipse cx="18" cy="441.3203" fill="#84BE84" rx="3" ry="3" style="stroke:#038048;stroke-width:1.0;"/><text fill="#000000" font-family="sans-serif" font-size="14" lengthAdjust="spacing" textLength="92" x="27" y="444.6738">getEmployee()</text><ellipse cx="18" cy="456.9609" fill="#84BE84" rx="3" ry="3" style="stroke:#038048;stroke-width:1.0;"/><text fill="#000000" font-family="sans-serif" font-size="14" lengthAdjust="spacing" textLength="140" x="27" y="460.3145">getOwnerOfProperty()</text><ellipse cx="18" cy="472.6016" fill="#84BE84" rx="3" ry="3" style="stroke:#038048;stroke-width:1.0;"/><text fill="#000000" font-family="sans-serif" font-size="14" lengthAdjust="spacing" textLength="544" x="27" y="475.9551">createProperty(Owner, type, address, description, cost, vender, render, PropertyData)</text></g><!--class user--><g id="elem_user"><rect codeLine="17" fill="#F1F1F1" filter="url(#f1qatyrzsu8bc8)" height="173.125" id="user" rx="2.5" ry="2.5" style="stroke:#181818;stroke-width:0.5;" width="118" x="758" y="710"/><ellipse cx="799.1" cy="726" fill="#ADD1B2" rx="11" ry="11" style="stroke:#181818;stroke-width:1.0;"/><path d="M801.8656,721.875 Q802.0219,721.6563 802.2094,721.5469 Q802.3969,721.4375 802.6156,721.4375 Q802.9906,721.4375 803.225,721.7031 Q803.4594,721.9531 803.4594,722.5625 L803.4594,724.0156 Q803.4594,724.625 803.225,724.8906 Q802.9906,725.1563 802.6156,725.1563 Q802.2719,725.1563 802.0688,724.9531 Q801.8656,724.7656 801.7563,724.25 Q801.7094,723.8906 801.5219,723.7031 Q801.1938,723.3281 800.5844,723.1094 Q799.975,722.8906 799.35,722.8906 Q798.5844,722.8906 797.9438,723.2188 Q797.3188,723.5469 796.8188,724.2969 Q796.3344,725.0469 796.3344,726.0781 L796.3344,727.1719 Q796.3344,728.4063 797.225,729.2344 Q798.1156,730.0469 799.7094,730.0469 Q800.6469,730.0469 801.3031,729.7969 Q801.6938,729.6406 802.1156,729.2031 Q802.3813,728.9375 802.5219,728.8594 Q802.6781,728.7813 802.8813,728.7813 Q803.2094,728.7813 803.4594,729.0469 Q803.725,729.2969 803.725,729.6406 Q803.725,729.9844 803.3813,730.3906 Q802.8813,730.9688 802.0844,731.2969 Q801.0063,731.75 799.7094,731.75 Q798.1938,731.75 796.9906,731.125 Q796.0063,730.625 795.3188,729.5625 Q794.6313,728.4844 794.6313,727.2031 L794.6313,726.0469 Q794.6313,724.7188 795.2406,723.5781 Q795.8656,722.4219 796.9594,721.8125 Q798.0531,721.1875 799.2875,721.1875 Q800.0219,721.1875 800.6625,721.3594 Q801.3188,721.5156 801.8656,721.875 Z " fill="#000000"/><text fill="#000000" font-family="sans-serif" font-size="14" lengthAdjust="spacing" textLength="28" x="818.9" y="730.8535">user</text><line style="stroke:#181818;stroke-width:0.5;" x1="759" x2="875" y1="742" y2="742"/><rect fill="none" height="6" style="stroke:#C82930;stroke-width:1.0;" width="6" x="766" y="752.3203"/><text fill="#000000" font-family="sans-serif" font-size="14" lengthAdjust="spacing" textLength="35" x="778" y="758.6738">name</text><rect fill="none" height="6" style="stroke:#C82930;stroke-width:1.0;" width="6" x="766" y="767.9609"/><text fill="#000000" font-family="sans-serif" font-size="14" lengthAdjust="spacing" textLength="76" x="778" y="774.3145">descriptions</text><rect fill="none" height="6" style="stroke:#C82930;stroke-width:1.0;" width="6" x="766" y="783.6016"/><text fill="#000000" font-family="sans-serif" font-size="14" lengthAdjust="spacing" textLength="70" x="778" y="789.9551">tax number</text><rect fill="none" height="6" style="stroke:#C82930;stroke-width:1.0;" width="6" x="766" y="799.2422"/><text fill="#000000" font-family="sans-serif" font-size="14" lengthAdjust="spacing" textLength="51" x="778" y="805.5957">address</text><rect fill="none" height="6" style="stroke:#C82930;stroke-width:1.0;" width="6" x="766" y="814.8828"/><text fill="#000000" font-family="sans-serif" font-size="14" lengthAdjust="spacing" textLength="88" x="778" y="821.2363">email address</text><rect fill="none" height="6" style="stroke:#C82930;stroke-width:1.0;" width="6" x="766" y="830.5234"/><text fill="#000000" font-family="sans-serif" font-size="14" lengthAdjust="spacing" textLength="92" x="778" y="836.877">phone number</text><rect fill="none" height="6" style="stroke:#C82930;stroke-width:1.0;" width="6" x="766" y="846.1641"/><text fill="#000000" font-family="sans-serif" font-size="14" lengthAdjust="spacing" textLength="60" x="778" y="852.5176">password</text><rect fill="none" height="6" style="stroke:#C82930;stroke-width:1.0;" width="6" x="766" y="861.8047"/><text fill="#000000" font-family="sans-serif" font-size="14" lengthAdjust="spacing" textLength="31" x="778" y="868.1582">roles</text><line style="stroke:#181818;stroke-width:0.5;" x1="759" x2="875" y1="875.125" y2="875.125"/></g><!--class roles--><g id="elem_roles"><rect codeLine="29" fill="#F1F1F1" filter="url(#f1qatyrzsu8bc8)" height="48" id="roles" rx="2.5" ry="2.5" style="stroke:#181818;stroke-width:0.5;" width="63" x="1404.5" y="835.5"/><ellipse cx="1419.5" cy="851.5" fill="#EB937F" rx="11" ry="11" style="stroke:#181818;stroke-width:1.0;"/><path d="M1418.3594,852.2969 L1418.3594,854.7969 L1422.6875,854.7969 L1422.6875,853.875 Q1422.6875,853.2656 1422.9219,853 Q1423.1719,852.7344 1423.5469,852.7344 Q1423.9219,852.7344 1424.1563,853 Q1424.3906,853.2656 1424.3906,853.875 L1424.3906,856.5 L1416.3906,856.5 Q1415.7656,856.5 1415.5,856.2656 Q1415.25,856.0313 1415.25,855.6406 Q1415.25,855.2656 1415.5156,855.0313 Q1415.7813,854.7969 1416.3906,854.7969 L1416.6563,854.7969 L1416.6563,848.1406 L1416.3906,848.1406 Q1415.7656,848.1406 1415.5,847.9063 Q1415.25,847.6719 1415.25,847.2813 Q1415.25,846.9063 1415.5,846.6719 Q1415.7656,846.4375 1416.3906,846.4375 L1424.0156,846.4375 L1424.0156,849.0313 Q1424.0156,849.6406 1423.7813,849.9063 Q1423.5625,850.1563 1423.1719,850.1563 Q1422.7969,850.1563 1422.5625,849.9063 Q1422.3281,849.6406 1422.3281,849.0313 L1422.3281,848.1406 L1418.3594,848.1406 L1418.3594,850.5938 L1419.8438,850.5938 Q1419.8438,849.9375 1419.9688,849.75 Q1420.2344,849.3438 1420.7031,849.3438 Q1421.0781,849.3438 1421.3125,849.6094 Q1421.5469,849.8594 1421.5469,850.4688 L1421.5469,852.4375 Q1421.5469,852.9844 1421.4219,853.1719 Q1421.1563,853.5625 1420.7031,853.5625 Q1420.2344,853.5625 1419.9688,853.1563 Q1419.8438,852.9688 1419.8438,852.2969 L1418.3594,852.2969 Z " fill="#000000"/><text fill="#000000" font-family="sans-serif" font-size="14" lengthAdjust="spacing" textLength="31" x="1433.5" y="856.3535">roles</text><line style="stroke:#181818;stroke-width:0.5;" x1="1405.5" x2="1466.5" y1="867.5" y2="867.5"/><line style="stroke:#181818;stroke-width:0.5;" x1="1405.5" x2="1466.5" y1="875.5" y2="875.5"/></g><!--class Client--><g id="elem_Client"><rect codeLine="33" fill="#F1F1F1" filter="url(#f1qatyrzsu8bc8)" height="48" id="Client" rx="2.5" ry="2.5" style="stroke:#181818;stroke-width:0.5;" width="68" x="1402" y="572.5"/><ellipse cx="1417" cy="588.5" fill="#ADD1B2" rx="11" ry="11" style="stroke:#181818;stroke-width:1.0;"/><path d="M1419.7656,584.375 Q1419.9219,584.1563 1420.1094,584.0469 Q1420.2969,583.9375 1420.5156,583.9375 Q1420.8906,583.9375 1421.125,584.2031 Q1421.3594,584.4531 1421.3594,585.0625 L1421.3594,586.5156 Q1421.3594,587.125 1421.125,587.3906 Q1420.8906,587.6563 1420.5156,587.6563 Q1420.1719,587.6563 1419.9688,587.4531 Q1419.7656,587.2656 1419.6563,586.75 Q1419.6094,586.3906 1419.4219,586.2031 Q1419.0938,585.8281 1418.4844,585.6094 Q1417.875,585.3906 1417.25,585.3906 Q1416.4844,585.3906 1415.8438,585.7188 Q1415.2188,586.0469 1414.7188,586.7969 Q1414.2344,587.5469 1414.2344,588.5781 L1414.2344,589.6719 Q1414.2344,590.9063 1415.125,591.7344 Q1416.0156,592.5469 1417.6094,592.5469 Q1418.5469,592.5469 1419.2031,592.2969 Q1419.5938,592.1406 1420.0156,591.7031 Q1420.2813,591.4375 1420.4219,591.3594 Q1420.5781,591.2813 1420.7813,591.2813 Q1421.1094,591.2813 1421.3594,591.5469 Q1421.625,591.7969 1421.625,592.1406 Q1421.625,592.4844 1421.2813,592.8906 Q1420.7813,593.4688 1419.9844,593.7969 Q1418.9063,594.25 1417.6094,594.25 Q1416.0938,594.25 1414.8906,593.625 Q1413.9063,593.125 1413.2188,592.0625 Q1412.5313,590.9844 1412.5313,589.7031 L1412.5313,588.5469 Q1412.5313,587.2188 1413.1406,586.0781 Q1413.7656,584.9219 1414.8594,584.3125 Q1415.9531,583.6875 1417.1875,583.6875 Q1417.9219,583.6875 1418.5625,583.8594 Q1419.2188,584.0156 1419.7656,584.375 Z " fill="#000000"/><text fill="#000000" font-family="sans-serif" font-size="14" lengthAdjust="spacing" textLength="36" x="1431" y="593.3535">Client</text><line style="stroke:#181818;stroke-width:0.5;" x1="1403" x2="1469" y1="604.5" y2="604.5"/><line style="stroke:#181818;stroke-width:0.5;" x1="1403" x2="1469" y1="612.5" y2="612.5"/></g><!--class Employee--><g id="elem_Employee"><rect codeLine="36" fill="#F1F1F1" filter="url(#f1qatyrzsu8bc8)" height="63.6406" id="Employee" rx="2.5" ry="2.5" style="stroke:#181818;stroke-width:0.5;" width="94" x="1633.5" y="799.5"/><ellipse cx="1648.5" cy="815.5" fill="#ADD1B2" rx="11" ry="11" style="stroke:#181818;stroke-width:1.0;"/><path d="M1651.2656,811.375 Q1651.4219,811.1563 1651.6094,811.0469 Q1651.7969,810.9375 1652.0156,810.9375 Q1652.3906,810.9375 1652.625,811.2031 Q1652.8594,811.4531 1652.8594,812.0625 L1652.8594,813.5156 Q1652.8594,814.125 1652.625,814.3906 Q1652.3906,814.6563 1652.0156,814.6563 Q1651.6719,814.6563 1651.4688,814.4531 Q1651.2656,814.2656 1651.1563,813.75 Q1651.1094,813.3906 1650.9219,813.2031 Q1650.5938,812.8281 1649.9844,812.6094 Q1649.375,812.3906 1648.75,812.3906 Q1647.9844,812.3906 1647.3438,812.7188 Q1646.7188,813.0469 1646.2188,813.7969 Q1645.7344,814.5469 1645.7344,815.5781 L1645.7344,816.6719 Q1645.7344,817.9063 1646.625,818.7344 Q1647.5156,819.5469 1649.1094,819.5469 Q1650.0469,819.5469 1650.7031,819.2969 Q1651.0938,819.1406 1651.5156,818.7031 Q1651.7813,818.4375 1651.9219,818.3594 Q1652.0781,818.2813 1652.2813,818.2813 Q1652.6094,818.2813 1652.8594,818.5469 Q1653.125,818.7969 1653.125,819.1406 Q1653.125,819.4844 1652.7813,819.8906 Q1652.2813,820.4688 1651.4844,820.7969 Q1650.4063,821.25 1649.1094,821.25 Q1647.5938,821.25 1646.3906,820.625 Q1645.4063,820.125 1644.7188,819.0625 Q1644.0313,817.9844 1644.0313,816.7031 L1644.0313,815.5469 Q1644.0313,814.2188 1644.6406,813.0781 Q1645.2656,811.9219 1646.3594,811.3125 Q1647.4531,810.6875 1648.6875,810.6875 Q1649.4219,810.6875 1650.0625,810.8594 Q1650.7188,811.0156 1651.2656,811.375 Z " fill="#000000"/><text fill="#000000" font-family="sans-serif" font-size="14" lengthAdjust="spacing" textLength="62" x="1662.5" y="820.3535">Employee</text><line style="stroke:#181818;stroke-width:0.5;" x1="1634.5" x2="1726.5" y1="831.5" y2="831.5"/><rect fill="none" height="6" style="stroke:#C82930;stroke-width:1.0;" width="6" x="1641.5" y="841.8203"/><text fill="#000000" font-family="sans-serif" font-size="14" lengthAdjust="spacing" textLength="38" x="1653.5" y="848.1738">salary</text><line style="stroke:#181818;stroke-width:0.5;" x1="1634.5" x2="1726.5" y1="855.1406" y2="855.1406"/></g><!--class Property--><g id="elem_Property"><rect codeLine="40" fill="#F1F1F1" filter="url(#f1qatyrzsu8bc8)" height="141.8438" id="Property" rx="2.5" ry="2.5" style="stroke:#181818;stroke-width:0.5;" width="125" x="1618" y="337.5"/><ellipse cx="1650.55" cy="353.5" fill="#A9DCDF" rx="11" ry="11" style="stroke:#181818;stroke-width:1.0;"/><path d="M1652.7375,355.2656 L1648.5969,355.2656 L1648.175,356.2969 L1648.5969,356.2969 Q1649.2063,356.2969 1649.4719,356.5313 Q1649.7375,356.7656 1649.7375,357.1563 Q1649.7375,357.5313 1649.4719,357.7656 Q1649.2063,358 1648.5969,358 L1646.3,358 Q1645.6906,358 1645.4406,357.7656 Q1645.175,357.5313 1645.175,357.1406 Q1645.175,356.7656 1645.4563,356.5313 Q1645.7219,356.2813 1646.3469,356.2969 L1649.0188,349.6406 L1647.9094,349.6406 Q1647.3,349.6406 1647.0344,349.4063 Q1646.7688,349.1719 1646.7688,348.7813 Q1646.7688,348.4063 1647.0344,348.1719 Q1647.3,347.9375 1647.9094,347.9375 L1651.5813,347.9375 L1654.9719,356.2969 Q1655.5656,356.2969 1655.7531,356.4375 Q1656.1438,356.7031 1656.1438,357.1563 Q1656.1438,357.5313 1655.8781,357.7656 Q1655.6281,358 1655.0188,358 L1652.7219,358 Q1652.1125,358 1651.8469,357.7656 Q1651.5813,357.5313 1651.5813,357.1406 Q1651.5813,356.7656 1651.8469,356.5313 Q1652.1125,356.2969 1652.7219,356.2969 L1653.1438,356.2969 L1652.7375,355.2656 Z M1652.0188,353.5625 L1650.6594,350.1875 L1649.2844,353.5625 L1652.0188,353.5625 Z " fill="#000000"/><text fill="#000000" font-family="sans-serif" font-size="14" font-style="italic" lengthAdjust="spacing" textLength="54" x="1668.45" y="358.3535">Property</text><line style="stroke:#181818;stroke-width:0.5;" x1="1619" x2="1742" y1="369.5" y2="369.5"/><rect fill="none" height="6" style="stroke:#C82930;stroke-width:1.0;" width="6" x="1626" y="379.8203"/><text fill="#000000" font-family="sans-serif" font-size="14" lengthAdjust="spacing" textLength="35" x="1638" y="386.1738">name</text><rect fill="none" height="6" style="stroke:#C82930;stroke-width:1.0;" width="6" x="1626" y="395.4609"/><text fill="#000000" font-family="sans-serif" font-size="14" lengthAdjust="spacing" textLength="28" x="1638" y="401.8145">Tipo</text><rect fill="none" height="6" style="stroke:#C82930;stroke-width:1.0;" width="6" x="1626" y="411.1016"/><text fill="#000000" font-family="sans-serif" font-size="14" lengthAdjust="spacing" textLength="51" x="1638" y="417.4551">address</text><rect fill="none" height="6" style="stroke:#C82930;stroke-width:1.0;" width="6" x="1626" y="426.7422"/><text fill="#000000" font-family="sans-serif" font-size="14" lengthAdjust="spacing" textLength="76" x="1638" y="433.0957">descriptions</text><rect fill="none" height="6" style="stroke:#C82930;stroke-width:1.0;" width="6" x="1626" y="442.3828"/><text fill="#000000" font-family="sans-serif" font-size="14" lengthAdjust="spacing" textLength="99" x="1638" y="448.7363">vender:boolean</text><rect fill="none" height="6" style="stroke:#C82930;stroke-width:1.0;" width="6" x="1626" y="458.0234"/><text fill="#000000" font-family="sans-serif" font-size="14" lengthAdjust="spacing" textLength="97" x="1638" y="464.377">render:boolean</text><line style="stroke:#181818;stroke-width:0.5;" x1="1619" x2="1742" y1="471.3438" y2="471.3438"/></g><!--class Repositories--><g id="elem_Repositories"><rect codeLine="49" fill="#F1F1F1" filter="url(#f1qatyrzsu8bc8)" height="126.2031" id="Repositories" rx="2.5" ry="2.5" style="stroke:#181818;stroke-width:0.5;" width="200" x="192" y="533.5"/><ellipse cx="248.25" cy="549.5" fill="#ADD1B2" rx="11" ry="11" style="stroke:#181818;stroke-width:1.0;"/><path d="M251.0156,545.375 Q251.1719,545.1563 251.3594,545.0469 Q251.5469,544.9375 251.7656,544.9375 Q252.1406,544.9375 252.375,545.2031 Q252.6094,545.4531 252.6094,546.0625 L252.6094,547.5156 Q252.6094,548.125 252.375,548.3906 Q252.1406,548.6563 251.7656,548.6563 Q251.4219,548.6563 251.2188,548.4531 Q251.0156,548.2656 250.9063,547.75 Q250.8594,547.3906 250.6719,547.2031 Q250.3438,546.8281 249.7344,546.6094 Q249.125,546.3906 248.5,546.3906 Q247.7344,546.3906 247.0938,546.7188 Q246.4688,547.0469 245.9688,547.7969 Q245.4844,548.5469 245.4844,549.5781 L245.4844,550.6719 Q245.4844,551.9063 246.375,552.7344 Q247.2656,553.5469 248.8594,553.5469 Q249.7969,553.5469 250.4531,553.2969 Q250.8438,553.1406 251.2656,552.7031 Q251.5313,552.4375 251.6719,552.3594 Q251.8281,552.2813 252.0313,552.2813 Q252.3594,552.2813 252.6094,552.5469 Q252.875,552.7969 252.875,553.1406 Q252.875,553.4844 252.5313,553.8906 Q252.0313,554.4688 251.2344,554.7969 Q250.1563,555.25 248.8594,555.25 Q247.3438,555.25 246.1406,554.625 Q245.1563,554.125 244.4688,553.0625 Q243.7813,551.9844 243.7813,550.7031 L243.7813,549.5469 Q243.7813,548.2188 244.3906,547.0781 Q245.0156,545.9219 246.1094,545.3125 Q247.2031,544.6875 248.4375,544.6875 Q249.1719,544.6875 249.8125,544.8594 Q250.4688,545.0156 251.0156,545.375 Z " fill="#000000"/><text fill="#000000" font-family="sans-serif" font-size="14" lengthAdjust="spacing" textLength="79" x="268.75" y="554.3535">Repositories</text><line style="stroke:#181818;stroke-width:0.5;" x1="193" x2="391" y1="565.5" y2="565.5"/><line style="stroke:#181818;stroke-width:0.5;" x1="193" x2="391" y1="573.5" y2="573.5"/><rect fill="#F24D5C" height="6" style="stroke:#C82930;stroke-width:1.0;" width="6" x="200" y="583.8203"/><text fill="#000000" font-family="sans-serif" font-size="14" lengthAdjust="spacing" textLength="89" x="212" y="590.1738">Repositories()</text><ellipse cx="203" cy="602.4609" fill="#84BE84" rx="3" ry="3" style="stroke:#038048;stroke-width:1.0;"/><text fill="#000000" font-family="sans-serif" font-size="14" lengthAdjust="spacing" textLength="174" x="212" y="605.8145">getInstance() : Repositories</text><ellipse cx="203" cy="618.1016" fill="#84BE84" rx="3" ry="3" style="stroke:#038048;stroke-width:1.0;"/><text fill="#000000" font-family="sans-serif" font-size="14" lengthAdjust="spacing" textLength="152" x="212" y="621.4551">getPropertyRepository()</text><ellipse cx="203" cy="633.7422" fill="#84BE84" rx="3" ry="3" style="stroke:#038048;stroke-width:1.0;"/><text fill="#000000" font-family="sans-serif" font-size="14" lengthAdjust="spacing" textLength="139" x="212" y="637.0957">getOwnerRepository()</text><ellipse cx="203" cy="649.3828" fill="#84BE84" rx="3" ry="3" style="stroke:#038048;stroke-width:1.0;"/><text fill="#000000" font-family="sans-serif" font-size="14" lengthAdjust="spacing" textLength="160" x="212" y="652.7363">getEmployeeRepository()</text></g><!--class PropertyRepository--><g id="elem_PropertyRepository"><rect codeLine="58" fill="#F1F1F1" filter="url(#f1qatyrzsu8bc8)" height="157.4844" id="PropertyRepository" rx="2.5" ry="2.5" style="stroke:#181818;stroke-width:0.5;" width="329" x="991" y="402"/><ellipse cx="1090.25" cy="418" fill="#ADD1B2" rx="11" ry="11" style="stroke:#181818;stroke-width:1.0;"/><path d="M1093.0156,413.875 Q1093.1719,413.6563 1093.3594,413.5469 Q1093.5469,413.4375 1093.7656,413.4375 Q1094.1406,413.4375 1094.375,413.7031 Q1094.6094,413.9531 1094.6094,414.5625 L1094.6094,416.0156 Q1094.6094,416.625 1094.375,416.8906 Q1094.1406,417.1563 1093.7656,417.1563 Q1093.4219,417.1563 1093.2188,416.9531 Q1093.0156,416.7656 1092.9063,416.25 Q1092.8594,415.8906 1092.6719,415.7031 Q1092.3438,415.3281 1091.7344,415.1094 Q1091.125,414.8906 1090.5,414.8906 Q1089.7344,414.8906 1089.0938,415.2188 Q1088.4688,415.5469 1087.9688,416.2969 Q1087.4844,417.0469 1087.4844,418.0781 L1087.4844,419.1719 Q1087.4844,420.4063 1088.375,421.2344 Q1089.2656,422.0469 1090.8594,422.0469 Q1091.7969,422.0469 1092.4531,421.7969 Q1092.8438,421.6406 1093.2656,421.2031 Q1093.5313,420.9375 1093.6719,420.8594 Q1093.8281,420.7813 1094.0313,420.7813 Q1094.3594,420.7813 1094.6094,421.0469 Q1094.875,421.2969 1094.875,421.6406 Q1094.875,421.9844 1094.5313,422.3906 Q1094.0313,422.9688 1093.2344,423.2969 Q1092.1563,423.75 1090.8594,423.75 Q1089.3438,423.75 1088.1406,423.125 Q1087.1563,422.625 1086.4688,421.5625 Q1085.7813,420.4844 1085.7813,419.2031 L1085.7813,418.0469 Q1085.7813,416.7188 1086.3906,415.5781 Q1087.0156,414.4219 1088.1094,413.8125 Q1089.2031,413.1875 1090.4375,413.1875 Q1091.1719,413.1875 1091.8125,413.3594 Q1092.4688,413.5156 1093.0156,413.875 Z " fill="#000000"/><text fill="#000000" font-family="sans-serif" font-size="14" lengthAdjust="spacing" textLength="122" x="1110.75" y="422.8535">PropertyRepository</text><line style="stroke:#181818;stroke-width:0.5;" x1="992" x2="1319" y1="434" y2="434"/><line style="stroke:#181818;stroke-width:0.5;" x1="992" x2="1319" y1="442" y2="442"/><rect fill="#F24D5C" height="6" style="stroke:#C82930;stroke-width:1.0;" width="6" x="999" y="452.3203"/><text fill="#000000" font-family="sans-serif" font-size="14" lengthAdjust="spacing" textLength="132" x="1011" y="458.6738">PropertyRepository()</text><ellipse cx="1002" cy="470.9609" fill="#84BE84" rx="3" ry="3" style="stroke:#038048;stroke-width:1.0;"/><text fill="#000000" font-family="sans-serif" font-size="14" lengthAdjust="spacing" textLength="217" x="1011" y="474.3145">getInstance() : PropertyRepository</text><ellipse cx="1002" cy="486.6016" fill="#84BE84" rx="3" ry="3" style="stroke:#038048;stroke-width:1.0;"/><text fill="#000000" font-family="sans-serif" font-size="14" lengthAdjust="spacing" textLength="199" x="1011" y="489.9551">addProperty(Property property)</text><ellipse cx="1002" cy="502.2422" fill="#84BE84" rx="3" ry="3" style="stroke:#038048;stroke-width:1.0;"/><text fill="#000000" font-family="sans-serif" font-size="14" lengthAdjust="spacing" textLength="160" x="1011" y="505.5957">getProperty(String name)</text><ellipse cx="1002" cy="517.8828" fill="#84BE84" rx="3" ry="3" style="stroke:#038048;stroke-width:1.0;"/><text fill="#000000" font-family="sans-serif" font-size="14" lengthAdjust="spacing" textLength="95" x="1011" y="521.2363">getProperties()</text><ellipse cx="1002" cy="533.5234" fill="#84BE84" rx="3" ry="3" style="stroke:#038048;stroke-width:1.0;"/><text fill="#000000" font-family="sans-serif" font-size="14" lengthAdjust="spacing" textLength="187" x="1011" y="536.877">removeProperty(String name)</text><ellipse cx="1002" cy="549.1641" fill="#84BE84" rx="3" ry="3" style="stroke:#038048;stroke-width:1.0;"/><text fill="#000000" font-family="sans-serif" font-size="14" lengthAdjust="spacing" textLength="303" x="1011" y="552.5176">updateProperty(String name, Property property)</text></g><!--class ClientRepository--><g id="elem_ClientRepository"><rect codeLine="68" fill="#F1F1F1" filter="url(#f1qatyrzsu8bc8)" height="157.4844" id="ClientRepository" rx="2.5" ry="2.5" style="stroke:#181818;stroke-width:0.5;" width="288" x="673" y="518"/><ellipse cx="760.75" cy="534" fill="#ADD1B2" rx="11" ry="11" style="stroke:#181818;stroke-width:1.0;"/><path d="M763.5156,529.875 Q763.6719,529.6563 763.8594,529.5469 Q764.0469,529.4375 764.2656,529.4375 Q764.6406,529.4375 764.875,529.7031 Q765.1094,529.9531 765.1094,530.5625 L765.1094,532.0156 Q765.1094,532.625 764.875,532.8906 Q764.6406,533.1563 764.2656,533.1563 Q763.9219,533.1563 763.7188,532.9531 Q763.5156,532.7656 763.4063,532.25 Q763.3594,531.8906 763.1719,531.7031 Q762.8438,531.3281 762.2344,531.1094 Q761.625,530.8906 761,530.8906 Q760.2344,530.8906 759.5938,531.2188 Q758.9688,531.5469 758.4688,532.2969 Q757.9844,533.0469 757.9844,534.0781 L757.9844,535.1719 Q757.9844,536.4063 758.875,537.2344 Q759.7656,538.0469 761.3594,538.0469 Q762.2969,538.0469 762.9531,537.7969 Q763.3438,537.6406 763.7656,537.2031 Q764.0313,536.9375 764.1719,536.8594 Q764.3281,536.7813 764.5313,536.7813 Q764.8594,536.7813 765.1094,537.0469 Q765.375,537.2969 765.375,537.6406 Q765.375,537.9844 765.0313,538.3906 Q764.5313,538.9688 763.7344,539.2969 Q762.6563,539.75 761.3594,539.75 Q759.8438,539.75 758.6406,539.125 Q757.6563,538.625 756.9688,537.5625 Q756.2813,536.4844 756.2813,535.2031 L756.2813,534.0469 Q756.2813,532.7188 756.8906,531.5781 Q757.5156,530.4219 758.6094,529.8125 Q759.7031,529.1875 760.9375,529.1875 Q761.6719,529.1875 762.3125,529.3594 Q762.9688,529.5156 763.5156,529.875 Z " fill="#000000"/><text fill="#000000" font-family="sans-serif" font-size="14" lengthAdjust="spacing" textLength="104" x="781.25" y="538.8535">ClientRepository</text><line style="stroke:#181818;stroke-width:0.5;" x1="674" x2="960" y1="550" y2="550"/><line style="stroke:#181818;stroke-width:0.5;" x1="674" x2="960" y1="558" y2="558"/><rect fill="#F24D5C" height="6" style="stroke:#C82930;stroke-width:1.0;" width="6" x="681" y="568.3203"/><text fill="#000000" font-family="sans-serif" font-size="14" lengthAdjust="spacing" textLength="119" x="693" y="574.6738">OwnerRepository()</text><ellipse cx="684" cy="586.9609" fill="#84BE84" rx="3" ry="3" style="stroke:#038048;stroke-width:1.0;"/><text fill="#000000" font-family="sans-serif" font-size="14" lengthAdjust="spacing" textLength="204" x="693" y="590.3145">getInstance() : OwnerRepository</text><ellipse cx="684" cy="602.6016" fill="#84BE84" rx="3" ry="3" style="stroke:#038048;stroke-width:1.0;"/><text fill="#000000" font-family="sans-serif" font-size="14" lengthAdjust="spacing" textLength="158" x="693" y="605.9551">addOwner(Owner owner)</text><ellipse cx="684" cy="618.2422" fill="#84BE84" rx="3" ry="3" style="stroke:#038048;stroke-width:1.0;"/><text fill="#000000" font-family="sans-serif" font-size="14" lengthAdjust="spacing" textLength="147" x="693" y="621.5957">getOwner(String name)</text><ellipse cx="684" cy="633.8828" fill="#84BE84" rx="3" ry="3" style="stroke:#038048;stroke-width:1.0;"/><text fill="#000000" font-family="sans-serif" font-size="14" lengthAdjust="spacing" textLength="78" x="693" y="637.2363">getOwners()</text><ellipse cx="684" cy="649.5234" fill="#84BE84" rx="3" ry="3" style="stroke:#038048;stroke-width:1.0;"/><text fill="#000000" font-family="sans-serif" font-size="14" lengthAdjust="spacing" textLength="174" x="693" y="652.877">removeOwner(String name)</text><ellipse cx="684" cy="665.1641" fill="#84BE84" rx="3" ry="3" style="stroke:#038048;stroke-width:1.0;"/><text fill="#000000" font-family="sans-serif" font-size="14" lengthAdjust="spacing" textLength="262" x="693" y="668.5176">updateOwner(String name, Owner owner)</text></g><!--class StoreRepository--><g id="elem_StoreRepository"><rect codeLine="78" fill="#F1F1F1" filter="url(#f1qatyrzsu8bc8)" height="48" id="StoreRepository" rx="2.5" ry="2.5" style="stroke:#181818;stroke-width:0.5;" width="134" x="750" y="918.5"/><ellipse cx="765" cy="934.5" fill="#ADD1B2" rx="11" ry="11" style="stroke:#181818;stroke-width:1.0;"/><path d="M767.7656,930.375 Q767.9219,930.1563 768.1094,930.0469 Q768.2969,929.9375 768.5156,929.9375 Q768.8906,929.9375 769.125,930.2031 Q769.3594,930.4531 769.3594,931.0625 L769.3594,932.5156 Q769.3594,933.125 769.125,933.3906 Q768.8906,933.6563 768.5156,933.6563 Q768.1719,933.6563 767.9688,933.4531 Q767.7656,933.2656 767.6563,932.75 Q767.6094,932.3906 767.4219,932.2031 Q767.0938,931.8281 766.4844,931.6094 Q765.875,931.3906 765.25,931.3906 Q764.4844,931.3906 763.8438,931.7188 Q763.2188,932.0469 762.7188,932.7969 Q762.2344,933.5469 762.2344,934.5781 L762.2344,935.6719 Q762.2344,936.9063 763.125,937.7344 Q764.0156,938.5469 765.6094,938.5469 Q766.5469,938.5469 767.2031,938.2969 Q767.5938,938.1406 768.0156,937.7031 Q768.2813,937.4375 768.4219,937.3594 Q768.5781,937.2813 768.7813,937.2813 Q769.1094,937.2813 769.3594,937.5469 Q769.625,937.7969 769.625,938.1406 Q769.625,938.4844 769.2813,938.8906 Q768.7813,939.4688 767.9844,939.7969 Q766.9063,940.25 765.6094,940.25 Q764.0938,940.25 762.8906,939.625 Q761.9063,939.125 761.2188,938.0625 Q760.5313,936.9844 760.5313,935.7031 L760.5313,934.5469 Q760.5313,933.2188 761.1406,932.0781 Q761.7656,930.9219 762.8594,930.3125 Q763.9531,929.6875 765.1875,929.6875 Q765.9219,929.6875 766.5625,929.8594 Q767.2188,930.0156 767.7656,930.375 Z " fill="#000000"/><text fill="#000000" font-family="sans-serif" font-size="14" lengthAdjust="spacing" textLength="102" x="779" y="939.3535">StoreRepository</text><line style="stroke:#181818;stroke-width:0.5;" x1="751" x2="883" y1="950.5" y2="950.5"/><line style="stroke:#181818;stroke-width:0.5;" x1="751" x2="883" y1="958.5" y2="958.5"/></g><!--class House--><g id="elem_House"><rect codeLine="82" fill="#F1F1F1" filter="url(#f1qatyrzsu8bc8)" height="173.125" id="House" rx="2.5" ry="2.5" style="stroke:#181818;stroke-width:0.5;" width="172" x="1350" y="7"/><ellipse cx="1411.75" cy="23" fill="#ADD1B2" rx="11" ry="11" style="stroke:#181818;stroke-width:1.0;"/><path d="M1414.5156,18.875 Q1414.6719,18.6563 1414.8594,18.5469 Q1415.0469,18.4375 1415.2656,18.4375 Q1415.6406,18.4375 1415.875,18.7031 Q1416.1094,18.9531 1416.1094,19.5625 L1416.1094,21.0156 Q1416.1094,21.625 1415.875,21.8906 Q1415.6406,22.1563 1415.2656,22.1563 Q1414.9219,22.1563 1414.7188,21.9531 Q1414.5156,21.7656 1414.4063,21.25 Q1414.3594,20.8906 1414.1719,20.7031 Q1413.8438,20.3281 1413.2344,20.1094 Q1412.625,19.8906 1412,19.8906 Q1411.2344,19.8906 1410.5938,20.2188 Q1409.9688,20.5469 1409.4688,21.2969 Q1408.9844,22.0469 1408.9844,23.0781 L1408.9844,24.1719 Q1408.9844,25.4063 1409.875,26.2344 Q1410.7656,27.0469 1412.3594,27.0469 Q1413.2969,27.0469 1413.9531,26.7969 Q1414.3438,26.6406 1414.7656,26.2031 Q1415.0313,25.9375 1415.1719,25.8594 Q1415.3281,25.7813 1415.5313,25.7813 Q1415.8594,25.7813 1416.1094,26.0469 Q1416.375,26.2969 1416.375,26.6406 Q1416.375,26.9844 1416.0313,27.3906 Q1415.5313,27.9688 1414.7344,28.2969 Q1413.6563,28.75 1412.3594,28.75 Q1410.8438,28.75 1409.6406,28.125 Q1408.6563,27.625 1407.9688,26.5625 Q1407.2813,25.4844 1407.2813,24.2031 L1407.2813,23.0469 Q1407.2813,21.7188 1407.8906,20.5781 Q1408.5156,19.4219 1409.6094,18.8125 Q1410.7031,18.1875 1411.9375,18.1875 Q1412.6719,18.1875 1413.3125,18.3594 Q1413.9688,18.5156 1414.5156,18.875 Z " fill="#000000"/><text fill="#000000" font-family="sans-serif" font-size="14" lengthAdjust="spacing" textLength="40" x="1432.25" y="27.8535">House</text><line style="stroke:#181818;stroke-width:0.5;" x1="1351" x2="1521" y1="39" y2="39"/><rect fill="none" height="6" style="stroke:#C82930;stroke-width:1.0;" width="6" x="1358" y="49.3203"/><text fill="#000000" font-family="sans-serif" font-size="14" lengthAdjust="spacing" textLength="107" x="1370" y="55.6738">numberOfRooms</text><rect fill="none" height="6" style="stroke:#C82930;stroke-width:1.0;" width="6" x="1358" y="64.9609"/><text fill="#000000" font-family="sans-serif" font-size="14" lengthAdjust="spacing" textLength="131" x="1370" y="71.3145">numberOfBathrooms</text><rect fill="none" height="6" style="stroke:#C82930;stroke-width:1.0;" width="6" x="1358" y="80.6016"/><text fill="#000000" font-family="sans-serif" font-size="14" lengthAdjust="spacing" textLength="103" x="1370" y="86.9551">numberOfFloors</text><rect fill="none" height="6" style="stroke:#C82930;stroke-width:1.0;" width="6" x="1358" y="96.2422"/><text fill="#000000" font-family="sans-serif" font-size="14" lengthAdjust="spacing" textLength="118" x="1370" y="102.5957">numberOfGarages</text><rect fill="none" height="6" style="stroke:#C82930;stroke-width:1.0;" width="6" x="1358" y="111.8828"/><text fill="#000000" font-family="sans-serif" font-size="14" lengthAdjust="spacing" textLength="82" x="1370" y="118.2363">Equipaments</text><rect fill="none" height="6" style="stroke:#C82930;stroke-width:1.0;" width="6" x="1358" y="127.5234"/><text fill="#000000" font-family="sans-serif" font-size="14" lengthAdjust="spacing" textLength="122" x="1370" y="133.877">Basement: boolean</text><rect fill="none" height="6" style="stroke:#C82930;stroke-width:1.0;" width="6" x="1358" y="143.1641"/><text fill="#000000" font-family="sans-serif" font-size="14" lengthAdjust="spacing" textLength="144" x="1370" y="149.5176">inhabited  loft: boolean</text><rect fill="none" height="6" style="stroke:#C82930;stroke-width:1.0;" width="6" x="1358" y="158.8047"/><text fill="#000000" font-family="sans-serif" font-size="14" lengthAdjust="spacing" textLength="146" x="1370" y="165.1582">Sun exposure: boolean</text><line style="stroke:#181818;stroke-width:0.5;" x1="1351" x2="1521" y1="172.125" y2="172.125"/></g><!--class Apartment--><g id="elem_Apartment"><rect codeLine="93" fill="#F1F1F1" filter="url(#f1qatyrzsu8bc8)" height="126.2031" id="Apartment" rx="2.5" ry="2.5" style="stroke:#181818;stroke-width:0.5;" width="157" x="1357.5" y="215.5"/><ellipse cx="1399.5" cy="231.5" fill="#ADD1B2" rx="11" ry="11" style="stroke:#181818;stroke-width:1.0;"/><path d="M1402.2656,227.375 Q1402.4219,227.1563 1402.6094,227.0469 Q1402.7969,226.9375 1403.0156,226.9375 Q1403.3906,226.9375 1403.625,227.2031 Q1403.8594,227.4531 1403.8594,228.0625 L1403.8594,229.5156 Q1403.8594,230.125 1403.625,230.3906 Q1403.3906,230.6563 1403.0156,230.6563 Q1402.6719,230.6563 1402.4688,230.4531 Q1402.2656,230.2656 1402.1563,229.75 Q1402.1094,229.3906 1401.9219,229.2031 Q1401.5938,228.8281 1400.9844,228.6094 Q1400.375,228.3906 1399.75,228.3906 Q1398.9844,228.3906 1398.3438,228.7188 Q1397.7188,229.0469 1397.2188,229.7969 Q1396.7344,230.5469 1396.7344,231.5781 L1396.7344,232.6719 Q1396.7344,233.9063 1397.625,234.7344 Q1398.5156,235.5469 1400.1094,235.5469 Q1401.0469,235.5469 1401.7031,235.2969 Q1402.0938,235.1406 1402.5156,234.7031 Q1402.7813,234.4375 1402.9219,234.3594 Q1403.0781,234.2813 1403.2813,234.2813 Q1403.6094,234.2813 1403.8594,234.5469 Q1404.125,234.7969 1404.125,235.1406 Q1404.125,235.4844 1403.7813,235.8906 Q1403.2813,236.4688 1402.4844,236.7969 Q1401.4063,237.25 1400.1094,237.25 Q1398.5938,237.25 1397.3906,236.625 Q1396.4063,236.125 1395.7188,235.0625 Q1395.0313,233.9844 1395.0313,232.7031 L1395.0313,231.5469 Q1395.0313,230.2188 1395.6406,229.0781 Q1396.2656,227.9219 1397.3594,227.3125 Q1398.4531,226.6875 1399.6875,226.6875 Q1400.4219,226.6875 1401.0625,226.8594 Q1401.7188,227.0156 1402.2656,227.375 Z " fill="#000000"/><text fill="#000000" font-family="sans-serif" font-size="14" lengthAdjust="spacing" textLength="65" x="1419.5" y="236.3535">Apartment</text><line style="stroke:#181818;stroke-width:0.5;" x1="1358.5" x2="1513.5" y1="247.5" y2="247.5"/><rect fill="none" height="6" style="stroke:#C82930;stroke-width:1.0;" width="6" x="1365.5" y="257.8203"/><text fill="#000000" font-family="sans-serif" font-size="14" lengthAdjust="spacing" textLength="107" x="1377.5" y="264.1738">numberOfRooms</text><rect fill="none" height="6" style="stroke:#C82930;stroke-width:1.0;" width="6" x="1365.5" y="273.4609"/><text fill="#000000" font-family="sans-serif" font-size="14" lengthAdjust="spacing" textLength="131" x="1377.5" y="279.8145">numberOfBathrooms</text><rect fill="none" height="6" style="stroke:#C82930;stroke-width:1.0;" width="6" x="1365.5" y="289.1016"/><text fill="#000000" font-family="sans-serif" font-size="14" lengthAdjust="spacing" textLength="103" x="1377.5" y="295.4551">numberOfFloors</text><rect fill="none" height="6" style="stroke:#C82930;stroke-width:1.0;" width="6" x="1365.5" y="304.7422"/><text fill="#000000" font-family="sans-serif" font-size="14" lengthAdjust="spacing" textLength="118" x="1377.5" y="311.0957">numberOfGarages</text><rect fill="none" height="6" style="stroke:#C82930;stroke-width:1.0;" width="6" x="1365.5" y="320.3828"/><text fill="#000000" font-family="sans-serif" font-size="14" lengthAdjust="spacing" textLength="82" x="1377.5" y="326.7363">Equipaments</text><line style="stroke:#181818;stroke-width:0.5;" x1="1358.5" x2="1513.5" y1="333.7031" y2="333.7031"/></g><!--class Land--><g id="elem_Land"><rect codeLine="101" fill="#F1F1F1" filter="url(#f1qatyrzsu8bc8)" height="63.6406" id="Land" rx="2.5" ry="2.5" style="stroke:#181818;stroke-width:0.5;" width="64" x="1404" y="376.5"/><ellipse cx="1419" cy="392.5" fill="#ADD1B2" rx="11" ry="11" style="stroke:#181818;stroke-width:1.0;"/><path d="M1421.7656,388.375 Q1421.9219,388.1563 1422.1094,388.0469 Q1422.2969,387.9375 1422.5156,387.9375 Q1422.8906,387.9375 1423.125,388.2031 Q1423.3594,388.4531 1423.3594,389.0625 L1423.3594,390.5156 Q1423.3594,391.125 1423.125,391.3906 Q1422.8906,391.6563 1422.5156,391.6563 Q1422.1719,391.6563 1421.9688,391.4531 Q1421.7656,391.2656 1421.6563,390.75 Q1421.6094,390.3906 1421.4219,390.2031 Q1421.0938,389.8281 1420.4844,389.6094 Q1419.875,389.3906 1419.25,389.3906 Q1418.4844,389.3906 1417.8438,389.7188 Q1417.2188,390.0469 1416.7188,390.7969 Q1416.2344,391.5469 1416.2344,392.5781 L1416.2344,393.6719 Q1416.2344,394.9063 1417.125,395.7344 Q1418.0156,396.5469 1419.6094,396.5469 Q1420.5469,396.5469 1421.2031,396.2969 Q1421.5938,396.1406 1422.0156,395.7031 Q1422.2813,395.4375 1422.4219,395.3594 Q1422.5781,395.2813 1422.7813,395.2813 Q1423.1094,395.2813 1423.3594,395.5469 Q1423.625,395.7969 1423.625,396.1406 Q1423.625,396.4844 1423.2813,396.8906 Q1422.7813,397.4688 1421.9844,397.7969 Q1420.9063,398.25 1419.6094,398.25 Q1418.0938,398.25 1416.8906,397.625 Q1415.9063,397.125 1415.2188,396.0625 Q1414.5313,394.9844 1414.5313,393.7031 L1414.5313,392.5469 Q1414.5313,391.2188 1415.1406,390.0781 Q1415.7656,388.9219 1416.8594,388.3125 Q1417.9531,387.6875 1419.1875,387.6875 Q1419.9219,387.6875 1420.5625,387.8594 Q1421.2188,388.0156 1421.7656,388.375 Z " fill="#000000"/><text fill="#000000" font-family="sans-serif" font-size="14" lengthAdjust="spacing" textLength="32" x="1433" y="397.3535">Land</text><line style="stroke:#181818;stroke-width:0.5;" x1="1405" x2="1467" y1="408.5" y2="408.5"/><rect fill="none" height="6" style="stroke:#C82930;stroke-width:1.0;" width="6" x="1412" y="418.8203"/><text fill="#000000" font-family="sans-serif" font-size="14" lengthAdjust="spacing" textLength="29" x="1424" y="425.1738">area</text><line style="stroke:#181818;stroke-width:0.5;" x1="1405" x2="1467" y1="432.1406" y2="432.1406"/></g><!--class Store--><g id="elem_Store"><rect fill="#F1F1F1" filter="url(#f1qatyrzsu8bc8)" height="48" id="Store" rx="2.5" ry="2.5" style="stroke:#181818;stroke-width:0.5;" width="66" x="1403" y="918.5"/><ellipse cx="1418" cy="934.5" fill="#ADD1B2" rx="11" ry="11" style="stroke:#181818;stroke-width:1.0;"/><path d="M1420.7656,930.375 Q1420.9219,930.1563 1421.1094,930.0469 Q1421.2969,929.9375 1421.5156,929.9375 Q1421.8906,929.9375 1422.125,930.2031 Q1422.3594,930.4531 1422.3594,931.0625 L1422.3594,932.5156 Q1422.3594,933.125 1422.125,933.3906 Q1421.8906,933.6563 1421.5156,933.6563 Q1421.1719,933.6563 1420.9688,933.4531 Q1420.7656,933.2656 1420.6563,932.75 Q1420.6094,932.3906 1420.4219,932.2031 Q1420.0938,931.8281 1419.4844,931.6094 Q1418.875,931.3906 1418.25,931.3906 Q1417.4844,931.3906 1416.8438,931.7188 Q1416.2188,932.0469 1415.7188,932.7969 Q1415.2344,933.5469 1415.2344,934.5781 L1415.2344,935.6719 Q1415.2344,936.9063 1416.125,937.7344 Q1417.0156,938.5469 1418.6094,938.5469 Q1419.5469,938.5469 1420.2031,938.2969 Q1420.5938,938.1406 1421.0156,937.7031 Q1421.2813,937.4375 1421.4219,937.3594 Q1421.5781,937.2813 1421.7813,937.2813 Q1422.1094,937.2813 1422.3594,937.5469 Q1422.625,937.7969 1422.625,938.1406 Q1422.625,938.4844 1422.2813,938.8906 Q1421.7813,939.4688 1420.9844,939.7969 Q1419.9063,940.25 1418.6094,940.25 Q1417.0938,940.25 1415.8906,939.625 Q1414.9063,939.125 1414.2188,938.0625 Q1413.5313,936.9844 1413.5313,935.7031 L1413.5313,934.5469 Q1413.5313,933.2188 1414.1406,932.0781 Q1414.7656,930.9219 1415.8594,930.3125 Q1416.9531,929.6875 1418.1875,929.6875 Q1418.9219,929.6875 1419.5625,929.8594 Q1420.2188,930.0156 1420.7656,930.375 Z " fill="#000000"/><text fill="#000000" font-family="sans-serif" font-size="14" lengthAdjust="spacing" textLength="34" x="1432" y="939.3535">Store</text><line style="stroke:#181818;stroke-width:0.5;" x1="1404" x2="1468" y1="950.5" y2="950.5"/><line style="stroke:#181818;stroke-width:0.5;" x1="1404" x2="1468" y1="958.5" y2="958.5"/></g><!--reverse link user to Client--><g id="link_user_Client"><path d="M895.4,771.41 C1031.08,727.43 1306.47,638.16 1401.71,607.29 " fill="none" id="user-backto-Client" style="stroke:#181818;stroke-width:1.0;"/><polygon fill="none" points="897.23,778.18,876.05,777.68,892.91,764.86,897.23,778.18" style="stroke:#181818;stroke-width:1.0;"/></g><!--reverse link user to Employee--><g id="link_user_Employee"><path d="M896.18,796.46 C994.95,796.7 1170.15,798.12 1320,804.5 C1409.91,808.33 1432.27,811.69 1522,818.5 C1559.48,821.35 1601.95,824.87 1633.34,827.53 " fill="none" id="user-backto-Employee" style="stroke:#181818;stroke-width:1.0;"/><polygon fill="none" points="895.99,803.46,876,796.42,896.02,789.46,895.99,803.46" style="stroke:#181818;stroke-width:1.0;"/></g><!--link CreateStoreUI to CreateStoreController--><g id="link_CreateStoreUI_CreateStoreController"><path codeLine="106" d="M292,352.61 C292,362.61 292,372.62 292,382.62 " fill="none" id="CreateStoreUI-to-CreateStoreController" style="stroke:#181818;stroke-width:1.0;stroke-dasharray:7.0,7.0;"/><polygon fill="#181818" points="292,387.85,296,378.85,292,382.85,288,378.85,292,387.85" style="stroke:#181818;stroke-width:1.0;"/></g><!--link CreateStoreController to Repositories--><g id="link_CreateStoreController_Repositories"><path codeLine="107" d="M292,483.05 C292,497.2 292,513 292,528.2 " fill="none" id="CreateStoreController-to-Repositories" style="stroke:#181818;stroke-width:1.0;stroke-dasharray:7.0,7.0;"/><polygon fill="#181818" points="292,533.33,296,524.33,292,528.33,288,524.33,292,533.33" style="stroke:#181818;stroke-width:1.0;"/><polygon fill="#000000" points="245,513.5117,247.9389,504.4666,242.0611,504.4666,245,513.5117" style="stroke:#000000;stroke-width:1.0;"/><text fill="#000000" font-family="sans-serif" font-size="13" lengthAdjust="spacing" textLength="67" x="254" y="513.0186">repositories</text></g><!--link Repositories to PropertyRepository--><g id="link_Repositories_PropertyRepository"><path codeLine="108" d="M392.28,565.44 C468.3,543.12 576.2,514.58 673,500.5 C776.1,485.5 892.82,480.36 985.52,479.04 " fill="none" id="Repositories-to-PropertyRepository" style="stroke:#181818;stroke-width:1.0;"/><polygon fill="#181818" points="990.75,478.97,981.6938,475.099,985.7505,479.0414,981.8081,483.0982,990.75,478.97" style="stroke:#181818;stroke-width:1.0;"/><polygon fill="#000000" points="616.9478,498.0411,607.5736,496.4365,608.4207,502.2529,616.9478,498.0411" style="stroke:#000000;stroke-width:1.0;"/><text fill="#000000" font-family="sans-serif" font-size="13" lengthAdjust="spacing" textLength="21" x="621" y="503.2686">has</text><text fill="#000000" font-family="sans-serif" font-size="13" lengthAdjust="spacing" textLength="7" x="399.9013" y="575.4534">1</text><text fill="#000000" font-family="sans-serif" font-size="13" lengthAdjust="spacing" textLength="5" x="978.1715" y="490.9873">*</text></g><!--link Repositories to ClientRepository--><g id="link_Repositories_ClientRepository"><path codeLine="109" d="M392.3,596.5 C470,596.5 579.27,596.5 667.39,596.5 " fill="none" id="Repositories-to-ClientRepository" style="stroke:#181818;stroke-width:1.0;"/><polygon fill="#181818" points="672.63,596.5,663.63,592.5,667.63,596.5,663.63,600.5,672.63,596.5" style="stroke:#181818;stroke-width:1.0;"/><polygon fill="#000000" points="617,588.7617,607.9549,585.8228,607.9549,591.7006,617,588.7617" style="stroke:#000000;stroke-width:1.0;"/><text fill="#000000" font-family="sans-serif" font-size="13" lengthAdjust="spacing" textLength="21" x="621" y="593.2686">has</text><text fill="#000000" font-family="sans-serif" font-size="13" lengthAdjust="spacing" textLength="7" x="399.9228" y="608.7944">1</text><text fill="#000000" font-family="sans-serif" font-size="13" lengthAdjust="spacing" textLength="5" x="660.057" y="608.6305">*</text></g><!--link Repositories to StoreRepository--><g id="link_Repositories_StoreRepository"><path codeLine="110" d="M355.72,659.71 C426.87,728.1 549.18,836 673,900.5 C695.28,912.11 721.23,920.95 744.86,927.46 " fill="none" id="Repositories-to-StoreRepository" style="stroke:#181818;stroke-width:1.0;"/><polygon fill="#181818" points="749.87,928.81,742.2412,922.581,745.0465,927.4932,740.1343,930.2986,749.87,928.81" style="stroke:#181818;stroke-width:1.0;"/><polygon fill="#000000" points="616.1191,862.5959,610.3334,855.0476,607.0016,859.89,616.1191,862.5959" style="stroke:#000000;stroke-width:1.0;"/><text fill="#000000" font-family="sans-serif" font-size="13" lengthAdjust="spacing" textLength="21" x="621" y="864.2686">has</text><text fill="#000000" font-family="sans-serif" font-size="13" lengthAdjust="spacing" textLength="7" x="355.6829" y="679.6151">1</text><text fill="#000000" font-family="sans-serif" font-size="13" lengthAdjust="spacing" textLength="5" x="736.819" y="939.8353">*</text></g><!--link PropertyRepository to Property--><g id="link_PropertyRepository_Property"><path codeLine="111" d="M1320.34,490.25 C1383.9,490.68 1456.91,487.05 1522,473.5 C1553.07,467.03 1585.76,454.57 1613.26,442.27 " fill="none" id="PropertyRepository-to-Property" style="stroke:#181818;stroke-width:1.0;"/><polygon fill="#181818" points="1617.98,440.14,1608.1313,440.1971,1613.4228,442.1972,1611.4228,447.4887,1617.98,440.14" style="stroke:#181818;stroke-width:1.0;"/><polygon fill="#000000" points="1427.9342,464.9535,1418.533,463.5153,1419.4832,469.3159,1427.9342,464.9535" style="stroke:#000000;stroke-width:1.0;"/><text fill="#000000" font-family="sans-serif" font-size="13" lengthAdjust="spacing" textLength="21" x="1432" y="470.2686">has</text><text fill="#000000" font-family="sans-serif" font-size="13" lengthAdjust="spacing" textLength="7" x="1327.9679" y="502.7784">1</text><text fill="#000000" font-family="sans-serif" font-size="13" lengthAdjust="spacing" textLength="5" x="1605.0557" y="456.6592">*</text></g><!--link ClientRepository to Client--><g id="link_ClientRepository_Client"><path codeLine="112" d="M961.1,596.5 C1103.19,596.5 1311.75,596.5 1396.79,596.5 " fill="none" id="ClientRepository-to-Client" style="stroke:#181818;stroke-width:1.0;"/><polygon fill="#181818" points="1401.96,596.5,1392.96,592.5,1396.96,596.5,1392.96,600.5,1401.96,596.5" style="stroke:#181818;stroke-width:1.0;"/><polygon fill="#000000" points="1147.5,588.7617,1138.4549,585.8228,1138.4549,591.7006,1147.5,588.7617" style="stroke:#000000;stroke-width:1.0;"/><text fill="#000000" font-family="sans-serif" font-size="13" lengthAdjust="spacing" textLength="21" x="1151.5" y="593.2686">has</text><text fill="#000000" font-family="sans-serif" font-size="13" lengthAdjust="spacing" textLength="7" x="969.1719" y="608.6524">1</text><text fill="#000000" font-family="sans-serif" font-size="13" lengthAdjust="spacing" textLength="5" x="1388.9669" y="609.8571">*</text></g><!--link StoreRepository to Store--><g id="link_StoreRepository_Store"><path codeLine="113" d="M884.03,942.5 C1013.22,942.5 1295.66,942.5 1397.47,942.5 " fill="none" id="StoreRepository-to-Store" style="stroke:#181818;stroke-width:1.0;"/><polygon fill="#181818" points="1402.76,942.5,1393.76,938.5,1397.76,942.5,1393.76,946.5,1402.76,942.5" style="stroke:#181818;stroke-width:1.0;"/><polygon fill="#000000" points="1147.5,934.7617,1138.4549,931.8228,1138.4549,937.7006,1147.5,934.7617" style="stroke:#000000;stroke-width:1.0;"/><text fill="#000000" font-family="sans-serif" font-size="13" lengthAdjust="spacing" textLength="21" x="1151.5" y="939.2686">has</text><text fill="#000000" font-family="sans-serif" font-size="13" lengthAdjust="spacing" textLength="7" x="892.185" y="955.1082">1</text><text fill="#000000" font-family="sans-serif" font-size="13" lengthAdjust="spacing" textLength="5" x="1389.9419" y="955.8571">*</text></g><!--link Store to Employee--><g id="link_Store_Employee"><path codeLine="114" d="M1469.2,927.76 C1511.33,908.48 1585.43,874.56 1633.47,852.57 " fill="none" id="Store-Employee" style="stroke:#181818;stroke-width:1.0;"/><polygon fill="#000000" points="1561.5464,863.6807,1552.0987,864.773,1554.5451,870.1176,1561.5464,863.6807" style="stroke:#000000;stroke-width:1.0;"/><text fill="#000000" font-family="sans-serif" font-size="13" lengthAdjust="spacing" textLength="21" x="1566" y="870.2686">has</text><text fill="#000000" font-family="sans-serif" font-size="13" lengthAdjust="spacing" textLength="7" x="1477.2281" y="937.8927">1</text><text fill="#000000" font-family="sans-serif" font-size="13" lengthAdjust="spacing" textLength="20" x="1605.4502" y="868.348">1..*</text></g><!--link user to roles--><g id="link_user_roles"><path codeLine="115" d="M876.29,807.15 C909.76,812.96 952.64,819.89 991,824.5 C1145.69,843.08 1331.94,854.1 1404.23,857.94 " fill="none" id="user-roles" style="stroke:#181818;stroke-width:1.0;"/><polygon fill="#000000" points="1147.477,817.2405,1138.7549,813.4489,1138.1921,819.2998,1147.477,817.2405" style="stroke:#000000;stroke-width:1.0;"/><text fill="#000000" font-family="sans-serif" font-size="13" lengthAdjust="spacing" textLength="21" x="1151.5" y="821.2686">has</text><text fill="#000000" font-family="sans-serif" font-size="13" lengthAdjust="spacing" textLength="7" x="883.9425" y="821.0939">1</text><text fill="#000000" font-family="sans-serif" font-size="13" lengthAdjust="spacing" textLength="20" x="1376.5287" y="870.7598">1..*</text></g><!--link House to Property--><g id="link_House_Property"><path codeLine="116" d="M1508.25,180.09 C1512.93,185.96 1517.55,191.8 1522,197.5 C1553.33,237.6 1587.19,282.72 1615.46,320.91 " fill="none" id="House-to-Property" style="stroke:#181818;stroke-width:1.0;"/><polygon fill="none" points="1621.16,316.85,1627.41,337.1,1609.9,325.17,1621.16,316.85" style="stroke:#181818;stroke-width:1.0;"/><text fill="#000000" font-family="sans-serif" font-size="13" lengthAdjust="spacing" textLength="10" x="1565" y="234.2686">is</text></g><!--link Apartment to Property--><g id="link_Apartment_Property"><path codeLine="117" d="M1514.73,320.17 C1541.99,334.78 1572.63,351.21 1600.03,365.9 " fill="none" id="Apartment-to-Property" style="stroke:#181818;stroke-width:1.0;"/><polygon fill="none" points="1603.62,359.88,1617.94,375.5,1597.01,372.22,1603.62,359.88" style="stroke:#181818;stroke-width:1.0;"/><text fill="#000000" font-family="sans-serif" font-size="13" lengthAdjust="spacing" textLength="10" x="1565" y="340.2686">is</text></g><!--link Land to Property--><g id="link_Land_Property"><path codeLine="118" d="M1468.21,408.5 C1500.75,408.5 1553.11,408.5 1597.56,408.5 " fill="none" id="Land-to-Property" style="stroke:#181818;stroke-width:1.0;"/><polygon fill="none" points="1597.66,401.5,1617.66,408.5,1597.66,415.5,1597.66,401.5" style="stroke:#181818;stroke-width:1.0;"/><text fill="#000000" font-family="sans-serif" font-size="13" lengthAdjust="spacing" textLength="10" x="1565" y="405.2686">is</text></g><!--link Client to Property--><g id="link_Client_Property"><path codeLine="119" d="M1470.02,588.34 C1502.55,579.09 1552.41,561.53 1588,533.5 C1601.52,522.86 1613.99,509.73 1625.1,496.02 " fill="none" id="Client-to-Property" style="stroke:#181818;stroke-width:1.0;"/><polygon fill="none" points="1619.8,491.43,1637.49,479.77,1630.93,499.92,1619.8,491.43" style="stroke:#181818;stroke-width:1.0;"/><text fill="#000000" font-family="sans-serif" font-size="13" lengthAdjust="spacing" textLength="21" x="1559.5" y="530.2686">has</text></g><!--SRC=[lLLDRzim3BtxLn2vhDsI5Btc463jkgt0W0xjzWCKct64og8cqMs3RlzzaZ_apsQtNHABxr5yf4ZftO7PkCt5XL52SrceTKh5HQg4SwjCYjoA8d6FKXlXlw0WJUd1Ke6m5yfX3p8YVHGvFl1H8LXCMUXSzGdk839wbZe7jYKcJ0QOO4VCL40cWuiadIZSSm2ip0_SioUL9hYsADX78Oi_Rr-JFpFsQz9iIIcqhma0V80S-QOmYew8P-VHTFUiqTxjlrioQFdO8ccrKRHMh2NmqU0IH9PPT6u96RhKIXE4BI4bnqjuGfq5fct-snq-2HRddSxIDR9W1LeKs7psDdIDYSKBwBBOeMqCJVHcXOMGQcGp1z8uT38-w3FPh5dwkg1BWXpqj7hvclJAg2Hg1dnXdqQhDg9j5KTujRKJIjXZu8gTOojIXjgfBGJCfFr36fhDRgOUTO4tE_AQXMxp6HgZqdiqvAJl1eak1kuRw-EkE-5MEz-jgMyEs0n87QLD8gB7_WPLayn3RSa6QATpkczKUphaGFEKsX1zKMCdntCmpSVvDBsp1xPXGiCHJU5-sImMz8Id_4gJzGUfn-Y6ewTbr88p1JbHvK4rHhok51LGJpHG-1qVuHlfLzWuzJSTwhmdy186WMEwrPNLgUqFurVoynMdffhgk_qzKU56jYl1_bAUsZyh8ZisVl6tSOwjzUPNAOsNfxcrN0c7ORs1uQX9VH0xoPW1ADfFu8TI-sl1fr5QxB2OoqV_273OzZ_cuwFNmRy9dRLnXR_VWwnay9B0UZl_X2Ipra0VN34RtnMzvJOPe8lB1QnMMrYyNynD_0OEugJFP2J-wJ7ggkWm4trENEHF8azbHUuuvaJFa1dmrMfnkLvxFBuiBIMyB0D6zLH5k1eDVvohtrleL7jOkYIssWIluD0CyqYJJmKDAv4aVm40]--></g></svg>
