<?xml version="1.0" encoding="us-ascii" standalone="no"?><svg xmlns="http://www.w3.org/2000/svg" xmlns:xlink="http://www.w3.org/1999/xlink" contentStyleType="text/css" height="1032px" preserveAspectRatio="none" style="width:1584px;height:1032px;background:#FFFFFF;" version="1.1" viewBox="0 0 1584 1032" width="1584px" zoomAndPan="magnify"><defs><filter height="300%" id="f1mwfz88smvlsx" width="300%" x="-1" y="-1"><feGaussianBlur result="blurOut" stdDeviation="2.0"/><feColorMatrix in="blurOut" result="blurOut2" type="matrix" values="0 0 0 0 0 0 0 0 0 0 0 0 0 0 0 0 0 0 .4 0"/><feOffset dx="4.0" dy="4.0" in="blurOut2" result="blurOut3"/><feBlend in="SourceGraphic" in2="blurOut3" mode="normal"/></filter></defs><g><!--class CreateStoreUI--><g id="elem_CreateStoreUI"><rect codeLine="7" fill="#F1F1F1" filter="url(#f1mwfz88smvlsx)" height="48" id="CreateStoreUI" rx="2.5" ry="2.5" style="stroke:#181818;stroke-width:0.5;" width="121" x="7" y="61.5"/><ellipse cx="22" cy="77.5" fill="#ADD1B2" rx="11" ry="11" style="stroke:#181818;stroke-width:1.0;"/><path d="M24.7656,73.375 Q24.9219,73.1563 25.1094,73.0469 Q25.2969,72.9375 25.5156,72.9375 Q25.8906,72.9375 26.125,73.2031 Q26.3594,73.4531 26.3594,74.0625 L26.3594,75.5156 Q26.3594,76.125 26.125,76.3906 Q25.8906,76.6563 25.5156,76.6563 Q25.1719,76.6563 24.9688,76.4531 Q24.7656,76.2656 24.6563,75.75 Q24.6094,75.3906 24.4219,75.2031 Q24.0938,74.8281 23.4844,74.6094 Q22.875,74.3906 22.25,74.3906 Q21.4844,74.3906 20.8438,74.7188 Q20.2188,75.0469 19.7188,75.7969 Q19.2344,76.5469 19.2344,77.5781 L19.2344,78.6719 Q19.2344,79.9063 20.125,80.7344 Q21.0156,81.5469 22.6094,81.5469 Q23.5469,81.5469 24.2031,81.2969 Q24.5938,81.1406 25.0156,80.7031 Q25.2813,80.4375 25.4219,80.3594 Q25.5781,80.2813 25.7813,80.2813 Q26.1094,80.2813 26.3594,80.5469 Q26.625,80.7969 26.625,81.1406 Q26.625,81.4844 26.2813,81.8906 Q25.7813,82.4688 24.9844,82.7969 Q23.9063,83.25 22.6094,83.25 Q21.0938,83.25 19.8906,82.625 Q18.9063,82.125 18.2188,81.0625 Q17.5313,79.9844 17.5313,78.7031 L17.5313,77.5469 Q17.5313,76.2188 18.1406,75.0781 Q18.7656,73.9219 19.8594,73.3125 Q20.9531,72.6875 22.1875,72.6875 Q22.9219,72.6875 23.5625,72.8594 Q24.2188,73.0156 24.7656,73.375 Z " fill="#000000"/><text fill="#000000" font-family="sans-serif" font-size="14" lengthAdjust="spacing" textLength="89" x="36" y="82.3535">CreateStoreUI</text><line style="stroke:#181818;stroke-width:0.5;" x1="8" x2="127" y1="93.5" y2="93.5"/><line style="stroke:#181818;stroke-width:0.5;" x1="8" x2="127" y1="101.5" y2="101.5"/></g><!--class CreateStoreController--><g id="elem_CreateStoreController"><rect codeLine="10" fill="#F1F1F1" filter="url(#f1mwfz88smvlsx)" height="94.9219" id="CreateStoreController" rx="2.5" ry="2.5" style="stroke:#181818;stroke-width:0.5;" width="570" x="163.5" y="38"/><ellipse cx="374.75" cy="54" fill="#ADD1B2" rx="11" ry="11" style="stroke:#181818;stroke-width:1.0;"/><path d="M377.5156,49.875 Q377.6719,49.6563 377.8594,49.5469 Q378.0469,49.4375 378.2656,49.4375 Q378.6406,49.4375 378.875,49.7031 Q379.1094,49.9531 379.1094,50.5625 L379.1094,52.0156 Q379.1094,52.625 378.875,52.8906 Q378.6406,53.1563 378.2656,53.1563 Q377.9219,53.1563 377.7188,52.9531 Q377.5156,52.7656 377.4063,52.25 Q377.3594,51.8906 377.1719,51.7031 Q376.8438,51.3281 376.2344,51.1094 Q375.625,50.8906 375,50.8906 Q374.2344,50.8906 373.5938,51.2188 Q372.9688,51.5469 372.4688,52.2969 Q371.9844,53.0469 371.9844,54.0781 L371.9844,55.1719 Q371.9844,56.4063 372.875,57.2344 Q373.7656,58.0469 375.3594,58.0469 Q376.2969,58.0469 376.9531,57.7969 Q377.3438,57.6406 377.7656,57.2031 Q378.0313,56.9375 378.1719,56.8594 Q378.3281,56.7813 378.5313,56.7813 Q378.8594,56.7813 379.1094,57.0469 Q379.375,57.2969 379.375,57.6406 Q379.375,57.9844 379.0313,58.3906 Q378.5313,58.9688 377.7344,59.2969 Q376.6563,59.75 375.3594,59.75 Q373.8438,59.75 372.6406,59.125 Q371.6563,58.625 370.9688,57.5625 Q370.2813,56.4844 370.2813,55.2031 L370.2813,54.0469 Q370.2813,52.7188 370.8906,51.5781 Q371.5156,50.4219 372.6094,49.8125 Q373.7031,49.1875 374.9375,49.1875 Q375.6719,49.1875 376.3125,49.3594 Q376.9688,49.5156 377.5156,49.875 Z " fill="#000000"/><text fill="#000000" font-family="sans-serif" font-size="14" lengthAdjust="spacing" textLength="139" x="395.25" y="58.8535">CreateStoreController</text><line style="stroke:#181818;stroke-width:0.5;" x1="164.5" x2="732.5" y1="70" y2="70"/><line style="stroke:#181818;stroke-width:0.5;" x1="164.5" x2="732.5" y1="78" y2="78"/><ellipse cx="174.5" cy="91.3203" fill="#84BE84" rx="3" ry="3" style="stroke:#038048;stroke-width:1.0;"/><text fill="#000000" font-family="sans-serif" font-size="14" lengthAdjust="spacing" textLength="92" x="183.5" y="94.6738">getEmployee()</text><ellipse cx="174.5" cy="106.9609" fill="#84BE84" rx="3" ry="3" style="stroke:#038048;stroke-width:1.0;"/><text fill="#000000" font-family="sans-serif" font-size="14" lengthAdjust="spacing" textLength="140" x="183.5" y="110.3145">getOwnerOfProperty()</text><ellipse cx="174.5" cy="122.6016" fill="#84BE84" rx="3" ry="3" style="stroke:#038048;stroke-width:1.0;"/><text fill="#000000" font-family="sans-serif" font-size="14" lengthAdjust="spacing" textLength="544" x="183.5" y="125.9551">createProperty(Owner, type, address, description, cost, vender, render, PropertyData)</text></g><!--class user--><g id="elem_user"><rect codeLine="16" fill="#F1F1F1" filter="url(#f1mwfz88smvlsx)" height="173.125" id="user" rx="2.5" ry="2.5" style="stroke:#181818;stroke-width:0.5;" width="118" x="1444.5" y="240"/><ellipse cx="1485.6" cy="256" fill="#ADD1B2" rx="11" ry="11" style="stroke:#181818;stroke-width:1.0;"/><path d="M1488.3656,251.875 Q1488.5219,251.6563 1488.7094,251.5469 Q1488.8969,251.4375 1489.1156,251.4375 Q1489.4906,251.4375 1489.725,251.7031 Q1489.9594,251.9531 1489.9594,252.5625 L1489.9594,254.0156 Q1489.9594,254.625 1489.725,254.8906 Q1489.4906,255.1563 1489.1156,255.1563 Q1488.7719,255.1563 1488.5688,254.9531 Q1488.3656,254.7656 1488.2563,254.25 Q1488.2094,253.8906 1488.0219,253.7031 Q1487.6938,253.3281 1487.0844,253.1094 Q1486.475,252.8906 1485.85,252.8906 Q1485.0844,252.8906 1484.4438,253.2188 Q1483.8188,253.5469 1483.3188,254.2969 Q1482.8344,255.0469 1482.8344,256.0781 L1482.8344,257.1719 Q1482.8344,258.4063 1483.725,259.2344 Q1484.6156,260.0469 1486.2094,260.0469 Q1487.1469,260.0469 1487.8031,259.7969 Q1488.1938,259.6406 1488.6156,259.2031 Q1488.8813,258.9375 1489.0219,258.8594 Q1489.1781,258.7813 1489.3813,258.7813 Q1489.7094,258.7813 1489.9594,259.0469 Q1490.225,259.2969 1490.225,259.6406 Q1490.225,259.9844 1489.8813,260.3906 Q1489.3813,260.9688 1488.5844,261.2969 Q1487.5063,261.75 1486.2094,261.75 Q1484.6938,261.75 1483.4906,261.125 Q1482.5063,260.625 1481.8188,259.5625 Q1481.1313,258.4844 1481.1313,257.2031 L1481.1313,256.0469 Q1481.1313,254.7188 1481.7406,253.5781 Q1482.3656,252.4219 1483.4594,251.8125 Q1484.5531,251.1875 1485.7875,251.1875 Q1486.5219,251.1875 1487.1625,251.3594 Q1487.8188,251.5156 1488.3656,251.875 Z " fill="#000000"/><text fill="#000000" font-family="sans-serif" font-size="14" lengthAdjust="spacing" textLength="28" x="1505.4" y="260.8535">user</text><line style="stroke:#181818;stroke-width:0.5;" x1="1445.5" x2="1561.5" y1="272" y2="272"/><rect fill="none" height="6" style="stroke:#C82930;stroke-width:1.0;" width="6" x="1452.5" y="282.3203"/><text fill="#000000" font-family="sans-serif" font-size="14" lengthAdjust="spacing" textLength="35" x="1464.5" y="288.6738">name</text><rect fill="none" height="6" style="stroke:#C82930;stroke-width:1.0;" width="6" x="1452.5" y="297.9609"/><text fill="#000000" font-family="sans-serif" font-size="14" lengthAdjust="spacing" textLength="76" x="1464.5" y="304.3145">descriptions</text><rect fill="none" height="6" style="stroke:#C82930;stroke-width:1.0;" width="6" x="1452.5" y="313.6016"/><text fill="#000000" font-family="sans-serif" font-size="14" lengthAdjust="spacing" textLength="70" x="1464.5" y="319.9551">tax number</text><rect fill="none" height="6" style="stroke:#C82930;stroke-width:1.0;" width="6" x="1452.5" y="329.2422"/><text fill="#000000" font-family="sans-serif" font-size="14" lengthAdjust="spacing" textLength="51" x="1464.5" y="335.5957">address</text><rect fill="none" height="6" style="stroke:#C82930;stroke-width:1.0;" width="6" x="1452.5" y="344.8828"/><text fill="#000000" font-family="sans-serif" font-size="14" lengthAdjust="spacing" textLength="88" x="1464.5" y="351.2363">email address</text><rect fill="none" height="6" style="stroke:#C82930;stroke-width:1.0;" width="6" x="1452.5" y="360.5234"/><text fill="#000000" font-family="sans-serif" font-size="14" lengthAdjust="spacing" textLength="92" x="1464.5" y="366.877">phone number</text><rect fill="none" height="6" style="stroke:#C82930;stroke-width:1.0;" width="6" x="1452.5" y="376.1641"/><text fill="#000000" font-family="sans-serif" font-size="14" lengthAdjust="spacing" textLength="60" x="1464.5" y="382.5176">password</text><rect fill="none" height="6" style="stroke:#C82930;stroke-width:1.0;" width="6" x="1452.5" y="391.8047"/><text fill="#000000" font-family="sans-serif" font-size="14" lengthAdjust="spacing" textLength="31" x="1464.5" y="398.1582">roles</text><line style="stroke:#181818;stroke-width:0.5;" x1="1445.5" x2="1561.5" y1="405.125" y2="405.125"/></g><!--class roles--><g id="elem_roles"><rect codeLine="28" fill="#F1F1F1" filter="url(#f1mwfz88smvlsx)" height="48" id="roles" rx="2.5" ry="2.5" style="stroke:#181818;stroke-width:0.5;" width="63" x="1406" y="692.5"/><ellipse cx="1421" cy="708.5" fill="#EB937F" rx="11" ry="11" style="stroke:#181818;stroke-width:1.0;"/><path d="M1419.8594,709.2969 L1419.8594,711.7969 L1424.1875,711.7969 L1424.1875,710.875 Q1424.1875,710.2656 1424.4219,710 Q1424.6719,709.7344 1425.0469,709.7344 Q1425.4219,709.7344 1425.6563,710 Q1425.8906,710.2656 1425.8906,710.875 L1425.8906,713.5 L1417.8906,713.5 Q1417.2656,713.5 1417,713.2656 Q1416.75,713.0313 1416.75,712.6406 Q1416.75,712.2656 1417.0156,712.0313 Q1417.2813,711.7969 1417.8906,711.7969 L1418.1563,711.7969 L1418.1563,705.1406 L1417.8906,705.1406 Q1417.2656,705.1406 1417,704.9063 Q1416.75,704.6719 1416.75,704.2813 Q1416.75,703.9063 1417,703.6719 Q1417.2656,703.4375 1417.8906,703.4375 L1425.5156,703.4375 L1425.5156,706.0313 Q1425.5156,706.6406 1425.2813,706.9063 Q1425.0625,707.1563 1424.6719,707.1563 Q1424.2969,707.1563 1424.0625,706.9063 Q1423.8281,706.6406 1423.8281,706.0313 L1423.8281,705.1406 L1419.8594,705.1406 L1419.8594,707.5938 L1421.3438,707.5938 Q1421.3438,706.9375 1421.4688,706.75 Q1421.7344,706.3438 1422.2031,706.3438 Q1422.5781,706.3438 1422.8125,706.6094 Q1423.0469,706.8594 1423.0469,707.4688 L1423.0469,709.4375 Q1423.0469,709.9844 1422.9219,710.1719 Q1422.6563,710.5625 1422.2031,710.5625 Q1421.7344,710.5625 1421.4688,710.1563 Q1421.3438,709.9688 1421.3438,709.2969 L1419.8594,709.2969 Z " fill="#000000"/><text fill="#000000" font-family="sans-serif" font-size="14" lengthAdjust="spacing" textLength="31" x="1435" y="713.3535">roles</text><line style="stroke:#181818;stroke-width:0.5;" x1="1407" x2="1468" y1="724.5" y2="724.5"/><line style="stroke:#181818;stroke-width:0.5;" x1="1407" x2="1468" y1="732.5" y2="732.5"/></g><!--class Client--><g id="elem_Client"><rect codeLine="32" fill="#F1F1F1" filter="url(#f1mwfz88smvlsx)" height="48" id="Client" rx="2.5" ry="2.5" style="stroke:#181818;stroke-width:0.5;" width="68" x="1504.5" y="692.5"/><ellipse cx="1519.5" cy="708.5" fill="#ADD1B2" rx="11" ry="11" style="stroke:#181818;stroke-width:1.0;"/><path d="M1522.2656,704.375 Q1522.4219,704.1563 1522.6094,704.0469 Q1522.7969,703.9375 1523.0156,703.9375 Q1523.3906,703.9375 1523.625,704.2031 Q1523.8594,704.4531 1523.8594,705.0625 L1523.8594,706.5156 Q1523.8594,707.125 1523.625,707.3906 Q1523.3906,707.6563 1523.0156,707.6563 Q1522.6719,707.6563 1522.4688,707.4531 Q1522.2656,707.2656 1522.1563,706.75 Q1522.1094,706.3906 1521.9219,706.2031 Q1521.5938,705.8281 1520.9844,705.6094 Q1520.375,705.3906 1519.75,705.3906 Q1518.9844,705.3906 1518.3438,705.7188 Q1517.7188,706.0469 1517.2188,706.7969 Q1516.7344,707.5469 1516.7344,708.5781 L1516.7344,709.6719 Q1516.7344,710.9063 1517.625,711.7344 Q1518.5156,712.5469 1520.1094,712.5469 Q1521.0469,712.5469 1521.7031,712.2969 Q1522.0938,712.1406 1522.5156,711.7031 Q1522.7813,711.4375 1522.9219,711.3594 Q1523.0781,711.2813 1523.2813,711.2813 Q1523.6094,711.2813 1523.8594,711.5469 Q1524.125,711.7969 1524.125,712.1406 Q1524.125,712.4844 1523.7813,712.8906 Q1523.2813,713.4688 1522.4844,713.7969 Q1521.4063,714.25 1520.1094,714.25 Q1518.5938,714.25 1517.3906,713.625 Q1516.4063,713.125 1515.7188,712.0625 Q1515.0313,710.9844 1515.0313,709.7031 L1515.0313,708.5469 Q1515.0313,707.2188 1515.6406,706.0781 Q1516.2656,704.9219 1517.3594,704.3125 Q1518.4531,703.6875 1519.6875,703.6875 Q1520.4219,703.6875 1521.0625,703.8594 Q1521.7188,704.0156 1522.2656,704.375 Z " fill="#000000"/><text fill="#000000" font-family="sans-serif" font-size="14" lengthAdjust="spacing" textLength="36" x="1533.5" y="713.3535">Client</text><line style="stroke:#181818;stroke-width:0.5;" x1="1505.5" x2="1571.5" y1="724.5" y2="724.5"/><line style="stroke:#181818;stroke-width:0.5;" x1="1505.5" x2="1571.5" y1="732.5" y2="732.5"/></g><!--class Employee--><g id="elem_Employee"><rect codeLine="35" fill="#F1F1F1" filter="url(#f1mwfz88smvlsx)" height="63.6406" id="Employee" rx="2.5" ry="2.5" style="stroke:#181818;stroke-width:0.5;" width="94" x="1248.5" y="684.5"/><ellipse cx="1263.5" cy="700.5" fill="#ADD1B2" rx="11" ry="11" style="stroke:#181818;stroke-width:1.0;"/><path d="M1266.2656,696.375 Q1266.4219,696.1563 1266.6094,696.0469 Q1266.7969,695.9375 1267.0156,695.9375 Q1267.3906,695.9375 1267.625,696.2031 Q1267.8594,696.4531 1267.8594,697.0625 L1267.8594,698.5156 Q1267.8594,699.125 1267.625,699.3906 Q1267.3906,699.6563 1267.0156,699.6563 Q1266.6719,699.6563 1266.4688,699.4531 Q1266.2656,699.2656 1266.1563,698.75 Q1266.1094,698.3906 1265.9219,698.2031 Q1265.5938,697.8281 1264.9844,697.6094 Q1264.375,697.3906 1263.75,697.3906 Q1262.9844,697.3906 1262.3438,697.7188 Q1261.7188,698.0469 1261.2188,698.7969 Q1260.7344,699.5469 1260.7344,700.5781 L1260.7344,701.6719 Q1260.7344,702.9063 1261.625,703.7344 Q1262.5156,704.5469 1264.1094,704.5469 Q1265.0469,704.5469 1265.7031,704.2969 Q1266.0938,704.1406 1266.5156,703.7031 Q1266.7813,703.4375 1266.9219,703.3594 Q1267.0781,703.2813 1267.2813,703.2813 Q1267.6094,703.2813 1267.8594,703.5469 Q1268.125,703.7969 1268.125,704.1406 Q1268.125,704.4844 1267.7813,704.8906 Q1267.2813,705.4688 1266.4844,705.7969 Q1265.4063,706.25 1264.1094,706.25 Q1262.5938,706.25 1261.3906,705.625 Q1260.4063,705.125 1259.7188,704.0625 Q1259.0313,702.9844 1259.0313,701.7031 L1259.0313,700.5469 Q1259.0313,699.2188 1259.6406,698.0781 Q1260.2656,696.9219 1261.3594,696.3125 Q1262.4531,695.6875 1263.6875,695.6875 Q1264.4219,695.6875 1265.0625,695.8594 Q1265.7188,696.0156 1266.2656,696.375 Z " fill="#000000"/><text fill="#000000" font-family="sans-serif" font-size="14" lengthAdjust="spacing" textLength="62" x="1277.5" y="705.3535">Employee</text><line style="stroke:#181818;stroke-width:0.5;" x1="1249.5" x2="1341.5" y1="716.5" y2="716.5"/><rect fill="none" height="6" style="stroke:#C82930;stroke-width:1.0;" width="6" x="1256.5" y="726.8203"/><text fill="#000000" font-family="sans-serif" font-size="14" lengthAdjust="spacing" textLength="38" x="1268.5" y="733.1738">salary</text><line style="stroke:#181818;stroke-width:0.5;" x1="1249.5" x2="1341.5" y1="740.1406" y2="740.1406"/></g><!--class Property--><g id="elem_Property"><rect codeLine="39" fill="#F1F1F1" filter="url(#f1mwfz88smvlsx)" height="141.8438" id="Property" rx="2.5" ry="2.5" style="stroke:#181818;stroke-width:0.5;" width="125" x="806" y="879"/><ellipse cx="838.55" cy="895" fill="#A9DCDF" rx="11" ry="11" style="stroke:#181818;stroke-width:1.0;"/><path d="M840.7375,896.7656 L836.5969,896.7656 L836.175,897.7969 L836.5969,897.7969 Q837.2063,897.7969 837.4719,898.0313 Q837.7375,898.2656 837.7375,898.6563 Q837.7375,899.0313 837.4719,899.2656 Q837.2063,899.5 836.5969,899.5 L834.3,899.5 Q833.6906,899.5 833.4406,899.2656 Q833.175,899.0313 833.175,898.6406 Q833.175,898.2656 833.4563,898.0313 Q833.7219,897.7813 834.3469,897.7969 L837.0188,891.1406 L835.9094,891.1406 Q835.3,891.1406 835.0344,890.9063 Q834.7688,890.6719 834.7688,890.2813 Q834.7688,889.9063 835.0344,889.6719 Q835.3,889.4375 835.9094,889.4375 L839.5813,889.4375 L842.9719,897.7969 Q843.5656,897.7969 843.7531,897.9375 Q844.1438,898.2031 844.1438,898.6563 Q844.1438,899.0313 843.8781,899.2656 Q843.6281,899.5 843.0188,899.5 L840.7219,899.5 Q840.1125,899.5 839.8469,899.2656 Q839.5813,899.0313 839.5813,898.6406 Q839.5813,898.2656 839.8469,898.0313 Q840.1125,897.7969 840.7219,897.7969 L841.1438,897.7969 L840.7375,896.7656 Z M840.0188,895.0625 L838.6594,891.6875 L837.2844,895.0625 L840.0188,895.0625 Z " fill="#000000"/><text fill="#000000" font-family="sans-serif" font-size="14" font-style="italic" lengthAdjust="spacing" textLength="54" x="856.45" y="899.8535">Property</text><line style="stroke:#181818;stroke-width:0.5;" x1="807" x2="930" y1="911" y2="911"/><rect fill="none" height="6" style="stroke:#C82930;stroke-width:1.0;" width="6" x="814" y="921.3203"/><text fill="#000000" font-family="sans-serif" font-size="14" lengthAdjust="spacing" textLength="35" x="826" y="927.6738">name</text><rect fill="none" height="6" style="stroke:#C82930;stroke-width:1.0;" width="6" x="814" y="936.9609"/><text fill="#000000" font-family="sans-serif" font-size="14" lengthAdjust="spacing" textLength="28" x="826" y="943.3145">Tipo</text><rect fill="none" height="6" style="stroke:#C82930;stroke-width:1.0;" width="6" x="814" y="952.6016"/><text fill="#000000" font-family="sans-serif" font-size="14" lengthAdjust="spacing" textLength="51" x="826" y="958.9551">address</text><rect fill="none" height="6" style="stroke:#C82930;stroke-width:1.0;" width="6" x="814" y="968.2422"/><text fill="#000000" font-family="sans-serif" font-size="14" lengthAdjust="spacing" textLength="76" x="826" y="974.5957">descriptions</text><rect fill="none" height="6" style="stroke:#C82930;stroke-width:1.0;" width="6" x="814" y="983.8828"/><text fill="#000000" font-family="sans-serif" font-size="14" lengthAdjust="spacing" textLength="99" x="826" y="990.2363">vender:boolean</text><rect fill="none" height="6" style="stroke:#C82930;stroke-width:1.0;" width="6" x="814" y="999.5234"/><text fill="#000000" font-family="sans-serif" font-size="14" lengthAdjust="spacing" textLength="97" x="826" y="1005.877">render:boolean</text><line style="stroke:#181818;stroke-width:0.5;" x1="807" x2="930" y1="1012.8438" y2="1012.8438"/></g><!--class Repositories--><g id="elem_Repositories"><rect codeLine="48" fill="#F1F1F1" filter="url(#f1mwfz88smvlsx)" height="126.2031" id="Repositories" rx="2.5" ry="2.5" style="stroke:#181818;stroke-width:0.5;" width="200" x="850.5" y="22.5"/><ellipse cx="906.75" cy="38.5" fill="#ADD1B2" rx="11" ry="11" style="stroke:#181818;stroke-width:1.0;"/><path d="M909.5156,34.375 Q909.6719,34.1563 909.8594,34.0469 Q910.0469,33.9375 910.2656,33.9375 Q910.6406,33.9375 910.875,34.2031 Q911.1094,34.4531 911.1094,35.0625 L911.1094,36.5156 Q911.1094,37.125 910.875,37.3906 Q910.6406,37.6563 910.2656,37.6563 Q909.9219,37.6563 909.7188,37.4531 Q909.5156,37.2656 909.4063,36.75 Q909.3594,36.3906 909.1719,36.2031 Q908.8438,35.8281 908.2344,35.6094 Q907.625,35.3906 907,35.3906 Q906.2344,35.3906 905.5938,35.7188 Q904.9688,36.0469 904.4688,36.7969 Q903.9844,37.5469 903.9844,38.5781 L903.9844,39.6719 Q903.9844,40.9063 904.875,41.7344 Q905.7656,42.5469 907.3594,42.5469 Q908.2969,42.5469 908.9531,42.2969 Q909.3438,42.1406 909.7656,41.7031 Q910.0313,41.4375 910.1719,41.3594 Q910.3281,41.2813 910.5313,41.2813 Q910.8594,41.2813 911.1094,41.5469 Q911.375,41.7969 911.375,42.1406 Q911.375,42.4844 911.0313,42.8906 Q910.5313,43.4688 909.7344,43.7969 Q908.6563,44.25 907.3594,44.25 Q905.8438,44.25 904.6406,43.625 Q903.6563,43.125 902.9688,42.0625 Q902.2813,40.9844 902.2813,39.7031 L902.2813,38.5469 Q902.2813,37.2188 902.8906,36.0781 Q903.5156,34.9219 904.6094,34.3125 Q905.7031,33.6875 906.9375,33.6875 Q907.6719,33.6875 908.3125,33.8594 Q908.9688,34.0156 909.5156,34.375 Z " fill="#000000"/><text fill="#000000" font-family="sans-serif" font-size="14" lengthAdjust="spacing" textLength="79" x="927.25" y="43.3535">Repositories</text><line style="stroke:#181818;stroke-width:0.5;" x1="851.5" x2="1049.5" y1="54.5" y2="54.5"/><line style="stroke:#181818;stroke-width:0.5;" x1="851.5" x2="1049.5" y1="62.5" y2="62.5"/><rect fill="#F24D5C" height="6" style="stroke:#C82930;stroke-width:1.0;" width="6" x="858.5" y="72.8203"/><text fill="#000000" font-family="sans-serif" font-size="14" lengthAdjust="spacing" textLength="89" x="870.5" y="79.1738">Repositories()</text><ellipse cx="861.5" cy="91.4609" fill="#84BE84" rx="3" ry="3" style="stroke:#038048;stroke-width:1.0;"/><text fill="#000000" font-family="sans-serif" font-size="14" lengthAdjust="spacing" textLength="174" x="870.5" y="94.8145">getInstance() : Repositories</text><ellipse cx="861.5" cy="107.1016" fill="#84BE84" rx="3" ry="3" style="stroke:#038048;stroke-width:1.0;"/><text fill="#000000" font-family="sans-serif" font-size="14" lengthAdjust="spacing" textLength="152" x="870.5" y="110.4551">getPropertyRepository()</text><ellipse cx="861.5" cy="122.7422" fill="#84BE84" rx="3" ry="3" style="stroke:#038048;stroke-width:1.0;"/><text fill="#000000" font-family="sans-serif" font-size="14" lengthAdjust="spacing" textLength="139" x="870.5" y="126.0957">getOwnerRepository()</text><ellipse cx="861.5" cy="138.3828" fill="#84BE84" rx="3" ry="3" style="stroke:#038048;stroke-width:1.0;"/><text fill="#000000" font-family="sans-serif" font-size="14" lengthAdjust="spacing" textLength="160" x="870.5" y="141.7363">getEmployeeRepository()</text></g><!--class PropertyRepository--><g id="elem_PropertyRepository"><rect codeLine="57" fill="#F1F1F1" filter="url(#f1mwfz88smvlsx)" height="157.4844" id="PropertyRepository" rx="2.5" ry="2.5" style="stroke:#181818;stroke-width:0.5;" width="329" x="464" y="443"/><ellipse cx="563.25" cy="459" fill="#ADD1B2" rx="11" ry="11" style="stroke:#181818;stroke-width:1.0;"/><path d="M566.0156,454.875 Q566.1719,454.6563 566.3594,454.5469 Q566.5469,454.4375 566.7656,454.4375 Q567.1406,454.4375 567.375,454.7031 Q567.6094,454.9531 567.6094,455.5625 L567.6094,457.0156 Q567.6094,457.625 567.375,457.8906 Q567.1406,458.1563 566.7656,458.1563 Q566.4219,458.1563 566.2188,457.9531 Q566.0156,457.7656 565.9063,457.25 Q565.8594,456.8906 565.6719,456.7031 Q565.3438,456.3281 564.7344,456.1094 Q564.125,455.8906 563.5,455.8906 Q562.7344,455.8906 562.0938,456.2188 Q561.4688,456.5469 560.9688,457.2969 Q560.4844,458.0469 560.4844,459.0781 L560.4844,460.1719 Q560.4844,461.4063 561.375,462.2344 Q562.2656,463.0469 563.8594,463.0469 Q564.7969,463.0469 565.4531,462.7969 Q565.8438,462.6406 566.2656,462.2031 Q566.5313,461.9375 566.6719,461.8594 Q566.8281,461.7813 567.0313,461.7813 Q567.3594,461.7813 567.6094,462.0469 Q567.875,462.2969 567.875,462.6406 Q567.875,462.9844 567.5313,463.3906 Q567.0313,463.9688 566.2344,464.2969 Q565.1563,464.75 563.8594,464.75 Q562.3438,464.75 561.1406,464.125 Q560.1563,463.625 559.4688,462.5625 Q558.7813,461.4844 558.7813,460.2031 L558.7813,459.0469 Q558.7813,457.7188 559.3906,456.5781 Q560.0156,455.4219 561.1094,454.8125 Q562.2031,454.1875 563.4375,454.1875 Q564.1719,454.1875 564.8125,454.3594 Q565.4688,454.5156 566.0156,454.875 Z " fill="#000000"/><text fill="#000000" font-family="sans-serif" font-size="14" lengthAdjust="spacing" textLength="122" x="583.75" y="463.8535">PropertyRepository</text><line style="stroke:#181818;stroke-width:0.5;" x1="465" x2="792" y1="475" y2="475"/><line style="stroke:#181818;stroke-width:0.5;" x1="465" x2="792" y1="483" y2="483"/><rect fill="#F24D5C" height="6" style="stroke:#C82930;stroke-width:1.0;" width="6" x="472" y="493.3203"/><text fill="#000000" font-family="sans-serif" font-size="14" lengthAdjust="spacing" textLength="132" x="484" y="499.6738">PropertyRepository()</text><ellipse cx="475" cy="511.9609" fill="#84BE84" rx="3" ry="3" style="stroke:#038048;stroke-width:1.0;"/><text fill="#000000" font-family="sans-serif" font-size="14" lengthAdjust="spacing" textLength="217" x="484" y="515.3145">getInstance() : PropertyRepository</text><ellipse cx="475" cy="527.6016" fill="#84BE84" rx="3" ry="3" style="stroke:#038048;stroke-width:1.0;"/><text fill="#000000" font-family="sans-serif" font-size="14" lengthAdjust="spacing" textLength="199" x="484" y="530.9551">addProperty(Property property)</text><ellipse cx="475" cy="543.2422" fill="#84BE84" rx="3" ry="3" style="stroke:#038048;stroke-width:1.0;"/><text fill="#000000" font-family="sans-serif" font-size="14" lengthAdjust="spacing" textLength="160" x="484" y="546.5957">getProperty(String name)</text><ellipse cx="475" cy="558.8828" fill="#84BE84" rx="3" ry="3" style="stroke:#038048;stroke-width:1.0;"/><text fill="#000000" font-family="sans-serif" font-size="14" lengthAdjust="spacing" textLength="95" x="484" y="562.2363">getProperties()</text><ellipse cx="475" cy="574.5234" fill="#84BE84" rx="3" ry="3" style="stroke:#038048;stroke-width:1.0;"/><text fill="#000000" font-family="sans-serif" font-size="14" lengthAdjust="spacing" textLength="187" x="484" y="577.877">removeProperty(String name)</text><ellipse cx="475" cy="590.1641" fill="#84BE84" rx="3" ry="3" style="stroke:#038048;stroke-width:1.0;"/><text fill="#000000" font-family="sans-serif" font-size="14" lengthAdjust="spacing" textLength="303" x="484" y="593.5176">updateProperty(String name, Property property)</text></g><!--class ClientRepository--><g id="elem_ClientRepository"><rect codeLine="67" fill="#F1F1F1" filter="url(#f1mwfz88smvlsx)" height="157.4844" id="ClientRepository" rx="2.5" ry="2.5" style="stroke:#181818;stroke-width:0.5;" width="288" x="1085.5" y="7"/><ellipse cx="1173.25" cy="23" fill="#ADD1B2" rx="11" ry="11" style="stroke:#181818;stroke-width:1.0;"/><path d="M1176.0156,18.875 Q1176.1719,18.6563 1176.3594,18.5469 Q1176.5469,18.4375 1176.7656,18.4375 Q1177.1406,18.4375 1177.375,18.7031 Q1177.6094,18.9531 1177.6094,19.5625 L1177.6094,21.0156 Q1177.6094,21.625 1177.375,21.8906 Q1177.1406,22.1563 1176.7656,22.1563 Q1176.4219,22.1563 1176.2188,21.9531 Q1176.0156,21.7656 1175.9063,21.25 Q1175.8594,20.8906 1175.6719,20.7031 Q1175.3438,20.3281 1174.7344,20.1094 Q1174.125,19.8906 1173.5,19.8906 Q1172.7344,19.8906 1172.0938,20.2188 Q1171.4688,20.5469 1170.9688,21.2969 Q1170.4844,22.0469 1170.4844,23.0781 L1170.4844,24.1719 Q1170.4844,25.4063 1171.375,26.2344 Q1172.2656,27.0469 1173.8594,27.0469 Q1174.7969,27.0469 1175.4531,26.7969 Q1175.8438,26.6406 1176.2656,26.2031 Q1176.5313,25.9375 1176.6719,25.8594 Q1176.8281,25.7813 1177.0313,25.7813 Q1177.3594,25.7813 1177.6094,26.0469 Q1177.875,26.2969 1177.875,26.6406 Q1177.875,26.9844 1177.5313,27.3906 Q1177.0313,27.9688 1176.2344,28.2969 Q1175.1563,28.75 1173.8594,28.75 Q1172.3438,28.75 1171.1406,28.125 Q1170.1563,27.625 1169.4688,26.5625 Q1168.7813,25.4844 1168.7813,24.2031 L1168.7813,23.0469 Q1168.7813,21.7188 1169.3906,20.5781 Q1170.0156,19.4219 1171.1094,18.8125 Q1172.2031,18.1875 1173.4375,18.1875 Q1174.1719,18.1875 1174.8125,18.3594 Q1175.4688,18.5156 1176.0156,18.875 Z " fill="#000000"/><text fill="#000000" font-family="sans-serif" font-size="14" lengthAdjust="spacing" textLength="104" x="1193.75" y="27.8535">ClientRepository</text><line style="stroke:#181818;stroke-width:0.5;" x1="1086.5" x2="1372.5" y1="39" y2="39"/><line style="stroke:#181818;stroke-width:0.5;" x1="1086.5" x2="1372.5" y1="47" y2="47"/><rect fill="#F24D5C" height="6" style="stroke:#C82930;stroke-width:1.0;" width="6" x="1093.5" y="57.3203"/><text fill="#000000" font-family="sans-serif" font-size="14" lengthAdjust="spacing" textLength="119" x="1105.5" y="63.6738">OwnerRepository()</text><ellipse cx="1096.5" cy="75.9609" fill="#84BE84" rx="3" ry="3" style="stroke:#038048;stroke-width:1.0;"/><text fill="#000000" font-family="sans-serif" font-size="14" lengthAdjust="spacing" textLength="204" x="1105.5" y="79.3145">getInstance() : OwnerRepository</text><ellipse cx="1096.5" cy="91.6016" fill="#84BE84" rx="3" ry="3" style="stroke:#038048;stroke-width:1.0;"/><text fill="#000000" font-family="sans-serif" font-size="14" lengthAdjust="spacing" textLength="158" x="1105.5" y="94.9551">addOwner(Owner owner)</text><ellipse cx="1096.5" cy="107.2422" fill="#84BE84" rx="3" ry="3" style="stroke:#038048;stroke-width:1.0;"/><text fill="#000000" font-family="sans-serif" font-size="14" lengthAdjust="spacing" textLength="147" x="1105.5" y="110.5957">getOwner(String name)</text><ellipse cx="1096.5" cy="122.8828" fill="#84BE84" rx="3" ry="3" style="stroke:#038048;stroke-width:1.0;"/><text fill="#000000" font-family="sans-serif" font-size="14" lengthAdjust="spacing" textLength="78" x="1105.5" y="126.2363">getOwners()</text><ellipse cx="1096.5" cy="138.5234" fill="#84BE84" rx="3" ry="3" style="stroke:#038048;stroke-width:1.0;"/><text fill="#000000" font-family="sans-serif" font-size="14" lengthAdjust="spacing" textLength="174" x="1105.5" y="141.877">removeOwner(String name)</text><ellipse cx="1096.5" cy="154.1641" fill="#84BE84" rx="3" ry="3" style="stroke:#038048;stroke-width:1.0;"/><text fill="#000000" font-family="sans-serif" font-size="14" lengthAdjust="spacing" textLength="262" x="1105.5" y="157.5176">updateOwner(String name, Owner owner)</text></g><!--class EmployeeRepository--><g id="elem_EmployeeRepository"><rect codeLine="77" fill="#F1F1F1" filter="url(#f1mwfz88smvlsx)" height="157.4844" id="EmployeeRepository" rx="2.5" ry="2.5" style="stroke:#181818;stroke-width:0.5;" width="353" x="1056" y="248"/><ellipse cx="1163.25" cy="264" fill="#ADD1B2" rx="11" ry="11" style="stroke:#181818;stroke-width:1.0;"/><path d="M1166.0156,259.875 Q1166.1719,259.6563 1166.3594,259.5469 Q1166.5469,259.4375 1166.7656,259.4375 Q1167.1406,259.4375 1167.375,259.7031 Q1167.6094,259.9531 1167.6094,260.5625 L1167.6094,262.0156 Q1167.6094,262.625 1167.375,262.8906 Q1167.1406,263.1563 1166.7656,263.1563 Q1166.4219,263.1563 1166.2188,262.9531 Q1166.0156,262.7656 1165.9063,262.25 Q1165.8594,261.8906 1165.6719,261.7031 Q1165.3438,261.3281 1164.7344,261.1094 Q1164.125,260.8906 1163.5,260.8906 Q1162.7344,260.8906 1162.0938,261.2188 Q1161.4688,261.5469 1160.9688,262.2969 Q1160.4844,263.0469 1160.4844,264.0781 L1160.4844,265.1719 Q1160.4844,266.4063 1161.375,267.2344 Q1162.2656,268.0469 1163.8594,268.0469 Q1164.7969,268.0469 1165.4531,267.7969 Q1165.8438,267.6406 1166.2656,267.2031 Q1166.5313,266.9375 1166.6719,266.8594 Q1166.8281,266.7813 1167.0313,266.7813 Q1167.3594,266.7813 1167.6094,267.0469 Q1167.875,267.2969 1167.875,267.6406 Q1167.875,267.9844 1167.5313,268.3906 Q1167.0313,268.9688 1166.2344,269.2969 Q1165.1563,269.75 1163.8594,269.75 Q1162.3438,269.75 1161.1406,269.125 Q1160.1563,268.625 1159.4688,267.5625 Q1158.7813,266.4844 1158.7813,265.2031 L1158.7813,264.0469 Q1158.7813,262.7188 1159.3906,261.5781 Q1160.0156,260.4219 1161.1094,259.8125 Q1162.2031,259.1875 1163.4375,259.1875 Q1164.1719,259.1875 1164.8125,259.3594 Q1165.4688,259.5156 1166.0156,259.875 Z " fill="#000000"/><text fill="#000000" font-family="sans-serif" font-size="14" lengthAdjust="spacing" textLength="130" x="1183.75" y="268.8535">EmployeeRepository</text><line style="stroke:#181818;stroke-width:0.5;" x1="1057" x2="1408" y1="280" y2="280"/><line style="stroke:#181818;stroke-width:0.5;" x1="1057" x2="1408" y1="288" y2="288"/><rect fill="#F24D5C" height="6" style="stroke:#C82930;stroke-width:1.0;" width="6" x="1064" y="298.3203"/><text fill="#000000" font-family="sans-serif" font-size="14" lengthAdjust="spacing" textLength="140" x="1076" y="304.6738">EmployeeRepository()</text><ellipse cx="1067" cy="316.9609" fill="#84BE84" rx="3" ry="3" style="stroke:#038048;stroke-width:1.0;"/><text fill="#000000" font-family="sans-serif" font-size="14" lengthAdjust="spacing" textLength="225" x="1076" y="320.3145">getInstance() : EmployeeRepository</text><ellipse cx="1067" cy="332.6016" fill="#84BE84" rx="3" ry="3" style="stroke:#038048;stroke-width:1.0;"/><text fill="#000000" font-family="sans-serif" font-size="14" lengthAdjust="spacing" textLength="223" x="1076" y="335.9551">addEmployee(Employee employee)</text><ellipse cx="1067" cy="348.2422" fill="#84BE84" rx="3" ry="3" style="stroke:#038048;stroke-width:1.0;"/><text fill="#000000" font-family="sans-serif" font-size="14" lengthAdjust="spacing" textLength="168" x="1076" y="351.5957">getEmployee(String name)</text><ellipse cx="1067" cy="363.8828" fill="#84BE84" rx="3" ry="3" style="stroke:#038048;stroke-width:1.0;"/><text fill="#000000" font-family="sans-serif" font-size="14" lengthAdjust="spacing" textLength="99" x="1076" y="367.2363">getEmployees()</text><ellipse cx="1067" cy="379.5234" fill="#84BE84" rx="3" ry="3" style="stroke:#038048;stroke-width:1.0;"/><text fill="#000000" font-family="sans-serif" font-size="14" lengthAdjust="spacing" textLength="195" x="1076" y="382.877">removeEmployee(String name)</text><ellipse cx="1067" cy="395.1641" fill="#84BE84" rx="3" ry="3" style="stroke:#038048;stroke-width:1.0;"/><text fill="#000000" font-family="sans-serif" font-size="14" lengthAdjust="spacing" textLength="327" x="1076" y="398.5176">updateEmployee(String name, Employee employee)</text></g><!--class House--><g id="elem_House"><rect codeLine="87" fill="#F1F1F1" filter="url(#f1mwfz88smvlsx)" height="173.125" id="House" rx="2.5" ry="2.5" style="stroke:#181818;stroke-width:0.5;" width="172" x="582.5" y="630"/><ellipse cx="644.25" cy="646" fill="#ADD1B2" rx="11" ry="11" style="stroke:#181818;stroke-width:1.0;"/><path d="M647.0156,641.875 Q647.1719,641.6563 647.3594,641.5469 Q647.5469,641.4375 647.7656,641.4375 Q648.1406,641.4375 648.375,641.7031 Q648.6094,641.9531 648.6094,642.5625 L648.6094,644.0156 Q648.6094,644.625 648.375,644.8906 Q648.1406,645.1563 647.7656,645.1563 Q647.4219,645.1563 647.2188,644.9531 Q647.0156,644.7656 646.9063,644.25 Q646.8594,643.8906 646.6719,643.7031 Q646.3438,643.3281 645.7344,643.1094 Q645.125,642.8906 644.5,642.8906 Q643.7344,642.8906 643.0938,643.2188 Q642.4688,643.5469 641.9688,644.2969 Q641.4844,645.0469 641.4844,646.0781 L641.4844,647.1719 Q641.4844,648.4063 642.375,649.2344 Q643.2656,650.0469 644.8594,650.0469 Q645.7969,650.0469 646.4531,649.7969 Q646.8438,649.6406 647.2656,649.2031 Q647.5313,648.9375 647.6719,648.8594 Q647.8281,648.7813 648.0313,648.7813 Q648.3594,648.7813 648.6094,649.0469 Q648.875,649.2969 648.875,649.6406 Q648.875,649.9844 648.5313,650.3906 Q648.0313,650.9688 647.2344,651.2969 Q646.1563,651.75 644.8594,651.75 Q643.3438,651.75 642.1406,651.125 Q641.1563,650.625 640.4688,649.5625 Q639.7813,648.4844 639.7813,647.2031 L639.7813,646.0469 Q639.7813,644.7188 640.3906,643.5781 Q641.0156,642.4219 642.1094,641.8125 Q643.2031,641.1875 644.4375,641.1875 Q645.1719,641.1875 645.8125,641.3594 Q646.4688,641.5156 647.0156,641.875 Z " fill="#000000"/><text fill="#000000" font-family="sans-serif" font-size="14" lengthAdjust="spacing" textLength="40" x="664.75" y="650.8535">House</text><line style="stroke:#181818;stroke-width:0.5;" x1="583.5" x2="753.5" y1="662" y2="662"/><rect fill="none" height="6" style="stroke:#C82930;stroke-width:1.0;" width="6" x="590.5" y="672.3203"/><text fill="#000000" font-family="sans-serif" font-size="14" lengthAdjust="spacing" textLength="107" x="602.5" y="678.6738">numberOfRooms</text><rect fill="none" height="6" style="stroke:#C82930;stroke-width:1.0;" width="6" x="590.5" y="687.9609"/><text fill="#000000" font-family="sans-serif" font-size="14" lengthAdjust="spacing" textLength="131" x="602.5" y="694.3145">numberOfBathrooms</text><rect fill="none" height="6" style="stroke:#C82930;stroke-width:1.0;" width="6" x="590.5" y="703.6016"/><text fill="#000000" font-family="sans-serif" font-size="14" lengthAdjust="spacing" textLength="103" x="602.5" y="709.9551">numberOfFloors</text><rect fill="none" height="6" style="stroke:#C82930;stroke-width:1.0;" width="6" x="590.5" y="719.2422"/><text fill="#000000" font-family="sans-serif" font-size="14" lengthAdjust="spacing" textLength="118" x="602.5" y="725.5957">numberOfGarages</text><rect fill="none" height="6" style="stroke:#C82930;stroke-width:1.0;" width="6" x="590.5" y="734.8828"/><text fill="#000000" font-family="sans-serif" font-size="14" lengthAdjust="spacing" textLength="82" x="602.5" y="741.2363">Equipaments</text><rect fill="none" height="6" style="stroke:#C82930;stroke-width:1.0;" width="6" x="590.5" y="750.5234"/><text fill="#000000" font-family="sans-serif" font-size="14" lengthAdjust="spacing" textLength="122" x="602.5" y="756.877">Basement: boolean</text><rect fill="none" height="6" style="stroke:#C82930;stroke-width:1.0;" width="6" x="590.5" y="766.1641"/><text fill="#000000" font-family="sans-serif" font-size="14" lengthAdjust="spacing" textLength="144" x="602.5" y="772.5176">inhabited  loft: boolean</text><rect fill="none" height="6" style="stroke:#C82930;stroke-width:1.0;" width="6" x="590.5" y="781.8047"/><text fill="#000000" font-family="sans-serif" font-size="14" lengthAdjust="spacing" textLength="146" x="602.5" y="788.1582">Sun exposure: boolean</text><line style="stroke:#181818;stroke-width:0.5;" x1="583.5" x2="753.5" y1="795.125" y2="795.125"/></g><!--class Apartment--><g id="elem_Apartment"><rect codeLine="97" fill="#F1F1F1" filter="url(#f1mwfz88smvlsx)" height="126.2031" id="Apartment" rx="2.5" ry="2.5" style="stroke:#181818;stroke-width:0.5;" width="157" x="790" y="653.5"/><ellipse cx="832" cy="669.5" fill="#ADD1B2" rx="11" ry="11" style="stroke:#181818;stroke-width:1.0;"/><path d="M834.7656,665.375 Q834.9219,665.1563 835.1094,665.0469 Q835.2969,664.9375 835.5156,664.9375 Q835.8906,664.9375 836.125,665.2031 Q836.3594,665.4531 836.3594,666.0625 L836.3594,667.5156 Q836.3594,668.125 836.125,668.3906 Q835.8906,668.6563 835.5156,668.6563 Q835.1719,668.6563 834.9688,668.4531 Q834.7656,668.2656 834.6563,667.75 Q834.6094,667.3906 834.4219,667.2031 Q834.0938,666.8281 833.4844,666.6094 Q832.875,666.3906 832.25,666.3906 Q831.4844,666.3906 830.8438,666.7188 Q830.2188,667.0469 829.7188,667.7969 Q829.2344,668.5469 829.2344,669.5781 L829.2344,670.6719 Q829.2344,671.9063 830.125,672.7344 Q831.0156,673.5469 832.6094,673.5469 Q833.5469,673.5469 834.2031,673.2969 Q834.5938,673.1406 835.0156,672.7031 Q835.2813,672.4375 835.4219,672.3594 Q835.5781,672.2813 835.7813,672.2813 Q836.1094,672.2813 836.3594,672.5469 Q836.625,672.7969 836.625,673.1406 Q836.625,673.4844 836.2813,673.8906 Q835.7813,674.4688 834.9844,674.7969 Q833.9063,675.25 832.6094,675.25 Q831.0938,675.25 829.8906,674.625 Q828.9063,674.125 828.2188,673.0625 Q827.5313,671.9844 827.5313,670.7031 L827.5313,669.5469 Q827.5313,668.2188 828.1406,667.0781 Q828.7656,665.9219 829.8594,665.3125 Q830.9531,664.6875 832.1875,664.6875 Q832.9219,664.6875 833.5625,664.8594 Q834.2188,665.0156 834.7656,665.375 Z " fill="#000000"/><text fill="#000000" font-family="sans-serif" font-size="14" lengthAdjust="spacing" textLength="65" x="852" y="674.3535">Apartment</text><line style="stroke:#181818;stroke-width:0.5;" x1="791" x2="946" y1="685.5" y2="685.5"/><rect fill="none" height="6" style="stroke:#C82930;stroke-width:1.0;" width="6" x="798" y="695.8203"/><text fill="#000000" font-family="sans-serif" font-size="14" lengthAdjust="spacing" textLength="107" x="810" y="702.1738">numberOfRooms</text><rect fill="none" height="6" style="stroke:#C82930;stroke-width:1.0;" width="6" x="798" y="711.4609"/><text fill="#000000" font-family="sans-serif" font-size="14" lengthAdjust="spacing" textLength="131" x="810" y="717.8145">numberOfBathrooms</text><rect fill="none" height="6" style="stroke:#C82930;stroke-width:1.0;" width="6" x="798" y="727.1016"/><text fill="#000000" font-family="sans-serif" font-size="14" lengthAdjust="spacing" textLength="103" x="810" y="733.4551">numberOfFloors</text><rect fill="none" height="6" style="stroke:#C82930;stroke-width:1.0;" width="6" x="798" y="742.7422"/><text fill="#000000" font-family="sans-serif" font-size="14" lengthAdjust="spacing" textLength="118" x="810" y="749.0957">numberOfGarages</text><rect fill="none" height="6" style="stroke:#C82930;stroke-width:1.0;" width="6" x="798" y="758.3828"/><text fill="#000000" font-family="sans-serif" font-size="14" lengthAdjust="spacing" textLength="82" x="810" y="764.7363">Equipaments</text><line style="stroke:#181818;stroke-width:0.5;" x1="791" x2="946" y1="771.7031" y2="771.7031"/></g><!--class Land--><g id="elem_Land"><rect codeLine="105" fill="#F1F1F1" filter="url(#f1mwfz88smvlsx)" height="63.6406" id="Land" rx="2.5" ry="2.5" style="stroke:#181818;stroke-width:0.5;" width="64" x="982.5" y="684.5"/><ellipse cx="997.5" cy="700.5" fill="#ADD1B2" rx="11" ry="11" style="stroke:#181818;stroke-width:1.0;"/><path d="M1000.2656,696.375 Q1000.4219,696.1563 1000.6094,696.0469 Q1000.7969,695.9375 1001.0156,695.9375 Q1001.3906,695.9375 1001.625,696.2031 Q1001.8594,696.4531 1001.8594,697.0625 L1001.8594,698.5156 Q1001.8594,699.125 1001.625,699.3906 Q1001.3906,699.6563 1001.0156,699.6563 Q1000.6719,699.6563 1000.4688,699.4531 Q1000.2656,699.2656 1000.1563,698.75 Q1000.1094,698.3906 999.9219,698.2031 Q999.5938,697.8281 998.9844,697.6094 Q998.375,697.3906 997.75,697.3906 Q996.9844,697.3906 996.3438,697.7188 Q995.7188,698.0469 995.2188,698.7969 Q994.7344,699.5469 994.7344,700.5781 L994.7344,701.6719 Q994.7344,702.9063 995.625,703.7344 Q996.5156,704.5469 998.1094,704.5469 Q999.0469,704.5469 999.7031,704.2969 Q1000.0938,704.1406 1000.5156,703.7031 Q1000.7813,703.4375 1000.9219,703.3594 Q1001.0781,703.2813 1001.2813,703.2813 Q1001.6094,703.2813 1001.8594,703.5469 Q1002.125,703.7969 1002.125,704.1406 Q1002.125,704.4844 1001.7813,704.8906 Q1001.2813,705.4688 1000.4844,705.7969 Q999.4063,706.25 998.1094,706.25 Q996.5938,706.25 995.3906,705.625 Q994.4063,705.125 993.7188,704.0625 Q993.0313,702.9844 993.0313,701.7031 L993.0313,700.5469 Q993.0313,699.2188 993.6406,698.0781 Q994.2656,696.9219 995.3594,696.3125 Q996.4531,695.6875 997.6875,695.6875 Q998.4219,695.6875 999.0625,695.8594 Q999.7188,696.0156 1000.2656,696.375 Z " fill="#000000"/><text fill="#000000" font-family="sans-serif" font-size="14" lengthAdjust="spacing" textLength="32" x="1011.5" y="705.3535">Land</text><line style="stroke:#181818;stroke-width:0.5;" x1="983.5" x2="1045.5" y1="716.5" y2="716.5"/><rect fill="none" height="6" style="stroke:#C82930;stroke-width:1.0;" width="6" x="990.5" y="726.8203"/><text fill="#000000" font-family="sans-serif" font-size="14" lengthAdjust="spacing" textLength="29" x="1002.5" y="733.1738">area</text><line style="stroke:#181818;stroke-width:0.5;" x1="983.5" x2="1045.5" y1="740.1406" y2="740.1406"/></g><!--class OwnerRepository--><g id="elem_OwnerRepository"><rect fill="#F1F1F1" filter="url(#f1mwfz88smvlsx)" height="48" id="OwnerRepository" rx="2.5" ry="2.5" style="stroke:#181818;stroke-width:0.5;" width="141" x="880" y="302.5"/><ellipse cx="895" cy="318.5" fill="#ADD1B2" rx="11" ry="11" style="stroke:#181818;stroke-width:1.0;"/><path d="M897.7656,314.375 Q897.9219,314.1563 898.1094,314.0469 Q898.2969,313.9375 898.5156,313.9375 Q898.8906,313.9375 899.125,314.2031 Q899.3594,314.4531 899.3594,315.0625 L899.3594,316.5156 Q899.3594,317.125 899.125,317.3906 Q898.8906,317.6563 898.5156,317.6563 Q898.1719,317.6563 897.9688,317.4531 Q897.7656,317.2656 897.6563,316.75 Q897.6094,316.3906 897.4219,316.2031 Q897.0938,315.8281 896.4844,315.6094 Q895.875,315.3906 895.25,315.3906 Q894.4844,315.3906 893.8438,315.7188 Q893.2188,316.0469 892.7188,316.7969 Q892.2344,317.5469 892.2344,318.5781 L892.2344,319.6719 Q892.2344,320.9063 893.125,321.7344 Q894.0156,322.5469 895.6094,322.5469 Q896.5469,322.5469 897.2031,322.2969 Q897.5938,322.1406 898.0156,321.7031 Q898.2813,321.4375 898.4219,321.3594 Q898.5781,321.2813 898.7813,321.2813 Q899.1094,321.2813 899.3594,321.5469 Q899.625,321.7969 899.625,322.1406 Q899.625,322.4844 899.2813,322.8906 Q898.7813,323.4688 897.9844,323.7969 Q896.9063,324.25 895.6094,324.25 Q894.0938,324.25 892.8906,323.625 Q891.9063,323.125 891.2188,322.0625 Q890.5313,320.9844 890.5313,319.7031 L890.5313,318.5469 Q890.5313,317.2188 891.1406,316.0781 Q891.7656,314.9219 892.8594,314.3125 Q893.9531,313.6875 895.1875,313.6875 Q895.9219,313.6875 896.5625,313.8594 Q897.2188,314.0156 897.7656,314.375 Z " fill="#000000"/><text fill="#000000" font-family="sans-serif" font-size="14" lengthAdjust="spacing" textLength="109" x="909" y="323.3535">OwnerRepository</text><line style="stroke:#181818;stroke-width:0.5;" x1="881" x2="1020" y1="334.5" y2="334.5"/><line style="stroke:#181818;stroke-width:0.5;" x1="881" x2="1020" y1="342.5" y2="342.5"/></g><!--class Owner--><g id="elem_Owner"><rect fill="#F1F1F1" filter="url(#f1mwfz88smvlsx)" height="48" id="Owner" rx="2.5" ry="2.5" style="stroke:#181818;stroke-width:0.5;" width="73" x="1082" y="692.5"/><ellipse cx="1097" cy="708.5" fill="#ADD1B2" rx="11" ry="11" style="stroke:#181818;stroke-width:1.0;"/><path d="M1099.7656,704.375 Q1099.9219,704.1563 1100.1094,704.0469 Q1100.2969,703.9375 1100.5156,703.9375 Q1100.8906,703.9375 1101.125,704.2031 Q1101.3594,704.4531 1101.3594,705.0625 L1101.3594,706.5156 Q1101.3594,707.125 1101.125,707.3906 Q1100.8906,707.6563 1100.5156,707.6563 Q1100.1719,707.6563 1099.9688,707.4531 Q1099.7656,707.2656 1099.6563,706.75 Q1099.6094,706.3906 1099.4219,706.2031 Q1099.0938,705.8281 1098.4844,705.6094 Q1097.875,705.3906 1097.25,705.3906 Q1096.4844,705.3906 1095.8438,705.7188 Q1095.2188,706.0469 1094.7188,706.7969 Q1094.2344,707.5469 1094.2344,708.5781 L1094.2344,709.6719 Q1094.2344,710.9063 1095.125,711.7344 Q1096.0156,712.5469 1097.6094,712.5469 Q1098.5469,712.5469 1099.2031,712.2969 Q1099.5938,712.1406 1100.0156,711.7031 Q1100.2813,711.4375 1100.4219,711.3594 Q1100.5781,711.2813 1100.7813,711.2813 Q1101.1094,711.2813 1101.3594,711.5469 Q1101.625,711.7969 1101.625,712.1406 Q1101.625,712.4844 1101.2813,712.8906 Q1100.7813,713.4688 1099.9844,713.7969 Q1098.9063,714.25 1097.6094,714.25 Q1096.0938,714.25 1094.8906,713.625 Q1093.9063,713.125 1093.2188,712.0625 Q1092.5313,710.9844 1092.5313,709.7031 L1092.5313,708.5469 Q1092.5313,707.2188 1093.1406,706.0781 Q1093.7656,704.9219 1094.8594,704.3125 Q1095.9531,703.6875 1097.1875,703.6875 Q1097.9219,703.6875 1098.5625,703.8594 Q1099.2188,704.0156 1099.7656,704.375 Z " fill="#000000"/><text fill="#000000" font-family="sans-serif" font-size="14" lengthAdjust="spacing" textLength="41" x="1111" y="713.3535">Owner</text><line style="stroke:#181818;stroke-width:0.5;" x1="1083" x2="1154" y1="724.5" y2="724.5"/><line style="stroke:#181818;stroke-width:0.5;" x1="1083" x2="1154" y1="732.5" y2="732.5"/></g><!--reverse link user to Client--><g id="link_user_Client"><path d="M1513.04,433.3 C1521.07,522.25 1531.93,642.63 1536.42,692.45 " fill="none" id="user-backto-Client" style="stroke:#181818;stroke-width:1.0;"/><polygon fill="none" points="1506.05,433.68,1511.22,413.13,1519.99,432.42,1506.05,433.68" style="stroke:#181818;stroke-width:1.0;"/></g><!--reverse link user to Employee--><g id="link_user_Employee"><path d="M1446.95,431.05 C1444.77,435.08 1442.61,439.08 1440.5,443 C1393.48,530.28 1338.69,633.72 1311.92,684.39 " fill="none" id="user-backto-Employee" style="stroke:#181818;stroke-width:1.0;"/><polygon fill="none" points="1440.93,427.47,1456.61,413.23,1453.24,434.14,1440.93,427.47" style="stroke:#181818;stroke-width:1.0;"/></g><!--link CreateStoreUI to CreateStoreController--><g id="link_CreateStoreUI_CreateStoreController"><path codeLine="110" d="M128.15,85.5 C138.18,85.5 148.22,85.5 158.25,85.5 " fill="none" id="CreateStoreUI-to-CreateStoreController" style="stroke:#181818;stroke-width:1.0;stroke-dasharray:7.0,7.0;"/><polygon fill="#181818" points="163.5,85.5,154.5,81.5,158.5,85.5,154.5,89.5,163.5,85.5" style="stroke:#181818;stroke-width:1.0;"/></g><!--link CreateStoreController to Repositories--><g id="link_CreateStoreController_Repositories"><path codeLine="111" d="M733.6,85.5 C773.25,85.5 811.75,85.5 845.03,85.5 " fill="none" id="CreateStoreController-to-Repositories" style="stroke:#181818;stroke-width:1.0;stroke-dasharray:7.0,7.0;"/><polygon fill="#181818" points="850.32,85.5,841.32,81.5,845.32,85.5,841.32,89.5,850.32,85.5" style="stroke:#181818;stroke-width:1.0;"/><polygon fill="#000000" points="761,74.7617,751.9549,71.8228,751.9549,77.7006,761,74.7617" style="stroke:#000000;stroke-width:1.0;"/><text fill="#000000" font-family="sans-serif" font-size="13" lengthAdjust="spacing" textLength="67" x="765" y="79.2686">repositories</text></g><!--link Repositories to PropertyRepository--><g id="link_Repositories_PropertyRepository"><path codeLine="112" d="M904.37,148.68 C847.85,224.86 751.92,354.15 689.39,438.43 " fill="none" id="Repositories-to-PropertyRepository" style="stroke:#181818;stroke-width:1.0;"/><polygon fill="#181818" points="686.25,442.66,694.8196,437.806,689.2248,438.6412,688.3895,433.0463,686.25,442.66" style="stroke:#181818;stroke-width:1.0;"/><polygon fill="#000000" points="871.5207,206.2772,879.2705,200.7643,874.5501,197.262,871.5207,206.2772" style="stroke:#000000;stroke-width:1.0;"/><text fill="#000000" font-family="sans-serif" font-size="13" lengthAdjust="spacing" textLength="21" x="883.5" y="206.7686">has</text><text fill="#000000" font-family="sans-serif" font-size="13" lengthAdjust="spacing" textLength="7" x="891.6315" y="168.5816">1</text><text fill="#000000" font-family="sans-serif" font-size="13" lengthAdjust="spacing" textLength="5" x="686.516" y="432.2488">*</text></g><!--link Repositories to OwnerRepository--><g id="link_Repositories_OwnerRepository"><path codeLine="113" d="M950.5,148.67 C950.5,196.66 950.5,260.8 950.5,297.18 " fill="none" id="Repositories-to-OwnerRepository" style="stroke:#181818;stroke-width:1.0;"/><polygon fill="#181818" points="950.5,302.34,954.5,293.34,950.5,297.34,946.5,293.34,950.5,302.34" style="stroke:#181818;stroke-width:1.0;"/><polygon fill="#000000" points="955.5,207.2617,958.4389,198.2166,952.5611,198.2166,955.5,207.2617" style="stroke:#000000;stroke-width:1.0;"/><text fill="#000000" font-family="sans-serif" font-size="13" lengthAdjust="spacing" textLength="21" x="964.5" y="206.7686">has</text><text fill="#000000" font-family="sans-serif" font-size="13" lengthAdjust="spacing" textLength="7" x="943.0953" y="168.5705">1</text><text fill="#000000" font-family="sans-serif" font-size="13" lengthAdjust="spacing" textLength="5" x="944.8281" y="291.8046">*</text></g><!--link Repositories to EmployeeRepository--><g id="link_Repositories_EmployeeRepository"><path codeLine="114" d="M1023.86,148.67 C1058.34,177.9 1099.9,213.12 1136.81,244.41 " fill="none" id="Repositories-to-EmployeeRepository" style="stroke:#181818;stroke-width:1.0;"/><polygon fill="#181818" points="1140.83,247.81,1136.5448,238.9423,1137.0136,244.5796,1131.3762,245.0485,1140.83,247.81" style="stroke:#181818;stroke-width:1.0;"/><polygon fill="#000000" points="1100.3142,205.4947,1095.3146,197.4043,1091.514,201.8881,1100.3142,205.4947" style="stroke:#000000;stroke-width:1.0;"/><text fill="#000000" font-family="sans-serif" font-size="13" lengthAdjust="spacing" textLength="21" x="1105.5" y="206.7686">has</text><text fill="#000000" font-family="sans-serif" font-size="13" lengthAdjust="spacing" textLength="7" x="1024.9376" y="168.5705">1</text><text fill="#000000" font-family="sans-serif" font-size="13" lengthAdjust="spacing" textLength="5" x="1126.5601" y="237.1454">*</text></g><!--link PropertyRepository to Property--><g id="link_PropertyRepository_Property"><path codeLine="115" d="M544.79,600.09 C538.25,609.54 532.6,619.56 528.5,630 C500.36,701.56 486.2,738.79 528.5,803 C588.85,894.6 719.95,928.96 800.58,941.68 " fill="none" id="PropertyRepository-to-Property" style="stroke:#181818;stroke-width:1.0;"/><polygon fill="#181818" points="805.81,942.49,797.5194,937.1734,800.8676,941.7329,796.3081,945.0812,805.81,942.49" style="stroke:#181818;stroke-width:1.0;"/><polygon fill="#000000" points="536.497,720.764,533.4279,711.7622,528.7229,715.2854,536.497,720.764" style="stroke:#000000;stroke-width:1.0;"/><text fill="#000000" font-family="sans-serif" font-size="13" lengthAdjust="spacing" textLength="21" x="542.5" y="721.2686">has</text><text fill="#000000" font-family="sans-serif" font-size="13" lengthAdjust="spacing" textLength="7" x="529.2053" y="620.2857">1</text><text fill="#000000" font-family="sans-serif" font-size="13" lengthAdjust="spacing" textLength="5" x="792.865" y="938.5316">*</text></g><!--link OwnerRepository to Owner--><g id="link_OwnerRepository_Owner"><path codeLine="116" d="M960.51,350.61 C989.68,417.98 1074.56,614.03 1106.32,687.37 " fill="none" id="OwnerRepository-to-Owner" style="stroke:#181818;stroke-width:1.0;"/><polygon fill="#181818" points="1108.33,692.02,1108.4243,682.1716,1106.3432,687.4317,1101.0831,685.3505,1108.33,692.02" style="stroke:#181818;stroke-width:1.0;"/><polygon fill="#000000" points="1071.4867,526.3501,1070.5897,516.8819,1065.1958,519.2174,1071.4867,526.3501" style="stroke:#000000;stroke-width:1.0;"/><text fill="#000000" font-family="sans-serif" font-size="13" lengthAdjust="spacing" textLength="21" x="1078.5" y="526.2686">has</text><text fill="#000000" font-family="sans-serif" font-size="13" lengthAdjust="spacing" textLength="7" x="955.1782" y="370.4176">1</text><text fill="#000000" font-family="sans-serif" font-size="13" lengthAdjust="spacing" textLength="5" x="1100.0833" y="681.7889">*</text></g><!--link EmployeeRepository to Employee--><g id="link_EmployeeRepository_Employee"><path codeLine="117" d="M1240.69,405.05 C1246.97,459.75 1256.57,534.63 1268.5,600 C1273.38,626.74 1280.41,656.62 1286.07,679.29 " fill="none" id="EmployeeRepository-to-Employee" style="stroke:#181818;stroke-width:1.0;"/><polygon fill="#181818" points="1287.33,684.3,1289.0009,674.5939,1286.1039,679.4527,1281.2452,676.5557,1287.33,684.3" style="stroke:#181818;stroke-width:1.0;"/><polygon fill="#000000" points="1274.3163,526.6946,1275.7391,517.2911,1269.9401,518.2507,1274.3163,526.6946" style="stroke:#000000;stroke-width:1.0;"/><text fill="#000000" font-family="sans-serif" font-size="13" lengthAdjust="spacing" textLength="21" x="1282.5" y="526.2686">has</text><text fill="#000000" font-family="sans-serif" font-size="13" lengthAdjust="spacing" textLength="7" x="1234.1517" y="425.2418">1</text><text fill="#000000" font-family="sans-serif" font-size="13" lengthAdjust="spacing" textLength="5" x="1279.9959" y="673.5901">*</text></g><!--link user to roles--><g id="link_user_roles"><path codeLine="118" d="M1477.39,413.22 C1474.83,423.21 1472.46,433.29 1470.5,443 C1452.05,534.32 1442.53,645.08 1439.07,692.34 " fill="none" id="user-roles" style="stroke:#181818;stroke-width:1.0;"/><polygon fill="#000000" points="1474.8199,526.7153,1478.9618,518.154,1473.1386,517.3545,1474.8199,526.7153" style="stroke:#000000;stroke-width:1.0;"/><text fill="#000000" font-family="sans-serif" font-size="13" lengthAdjust="spacing" textLength="21" x="1484.5" y="526.2686">has</text><text fill="#000000" font-family="sans-serif" font-size="13" lengthAdjust="spacing" textLength="7" x="1467.9379" y="432.7662">1</text><text fill="#000000" font-family="sans-serif" font-size="13" lengthAdjust="spacing" textLength="20" x="1416.8044" y="681.8046">1..*</text></g><!--link Owner to Property--><g id="link_Owner_Property"><path codeLine="119" d="M1106.49,740.85 C1096.48,758.99 1081.06,784.14 1063.5,803 C1024.3,845.09 971.72,883.66 931.03,910.58 " fill="none" id="Owner-Property" style="stroke:#181818;stroke-width:1.0;"/><polygon fill="#000000" points="1031.9063,844.7381,1040.4507,840.5616,1036.364,836.3369,1031.9063,844.7381" style="stroke:#000000;stroke-width:1.0;"/><text fill="#000000" font-family="sans-serif" font-size="13" lengthAdjust="spacing" textLength="21" x="1044.5" y="845.7686">has</text><text fill="#000000" font-family="sans-serif" font-size="13" lengthAdjust="spacing" textLength="7" x="1095.7094" y="760.3239">1</text><text fill="#000000" font-family="sans-serif" font-size="13" lengthAdjust="spacing" textLength="20" x="938.963" y="903.3085">1..*</text></g><!--link House to Property--><g id="link_House_Property"><path codeLine="120" d="M742.4,803.04 C759.52,822.86 777.74,843.94 794.84,863.74 " fill="none" id="House-to-Property" style="stroke:#181818;stroke-width:1.0;"/><polygon fill="none" points="800.2,859.24,807.98,878.95,789.61,868.39,800.2,859.24" style="stroke:#181818;stroke-width:1.0;"/><text fill="#000000" font-family="sans-serif" font-size="13" lengthAdjust="spacing" textLength="10" x="781.5" y="845.7686">is</text></g><!--link Apartment to Property--><g id="link_Apartment_Property"><path codeLine="121" d="M868.5,779.54 C868.5,803.75 868.5,832 868.5,858.4 " fill="none" id="Apartment-to-Property" style="stroke:#181818;stroke-width:1.0;"/><polygon fill="none" points="875.5,858.61,868.5,878.61,861.5,858.61,875.5,858.61" style="stroke:#181818;stroke-width:1.0;"/><text fill="#000000" font-family="sans-serif" font-size="13" lengthAdjust="spacing" textLength="10" x="869.5" y="845.7686">is</text></g><!--link Land to Property--><g id="link_Land_Property"><path codeLine="122" d="M996.84,748.6 C987.44,764.92 975.56,785.17 964.5,803 C952.56,822.24 939.42,842.67 926.8,861.97 " fill="none" id="Land-to-Property" style="stroke:#181818;stroke-width:1.0;"/><polygon fill="none" points="932.48,866.07,915.64,878.93,920.78,858.38,932.48,866.07" style="stroke:#181818;stroke-width:1.0;"/><text fill="#000000" font-family="sans-serif" font-size="13" lengthAdjust="spacing" textLength="10" x="945.5" y="845.7686">is</text></g><!--SRC=[lLLDRzim3BtxLn2vhDtY5Btc463jkgt0W0xjzWCKcqc4og8coMs3RlzzaZzaorQpstf8BRv7aNmYfNS7QvLPNrmemQIjAx4ggBee13CcBpdRQrPbvf5BnTmNL2IfE6Yg47PC61n1YXMFR8yFzYWGD1QMoRqO4yo1bVJCvHwihZ6pfC0IRCbQgg3ateMJpB8cDbnhPDRjHXf_thvcVnBsQv9Man2eNpC0-01xj3UL4dH4F3iFfhjdYVfkzrsJGcsFFL8q6mLhmrg2FIfS0YjBZSOieKHJQAvyOaieoDWbFA4iFLDt__iTFZ7BpeSyQzEb1Jb8Lc7tEThGT2RBNa3MrHPrP-YYToki61SJcpgGnDX9kQ3FfCjkwNH1a_bqqD7QvMisab5mb1RmnReo-cm3sgiumPkj3HDC7psNROtLhB3GElL2GABi7rnHihg47gt0wosvd9diwucD8TDxL6IuwmQE9WGU6zlZRZlXLXhNbOLh3bX7f87I5n7GutY3fadIK2zPX0vvplSDsPuE6UKyftP49shev70EgliudvTtzc2rdqH_H7DuB9l6Yfxmb5-jol4WZHZ3S8nocRHWGf0JAaTgJ7Y350tGJZIG_vqUuHlbDzYqz3STshfdy1AYmBEPIXISx9rqpNFgK7Qu-uRnxJuIVVg613qyLU6KMoj4Yh64H2f1aQ_ahfLmMJINsTtkdgWo4ziLi-xDcTi_2o8zDNvnZyqUU-lDhvehbucqlUMA6VJhDSGt39S7jkKMIm11kndyK4jt6phHQuq3zgShvQDxugpVzJ-M4u9_OxBiupBtgdc5i-ZzXDKc_N1cIQkdHnVhsdN1QBd98dHnkO0yty3Y_I9rpwtXm4xwJERutmw9KUfz4l5JwGN-DFOihy1C14tb5FZ-oVICF5zShbQEqRp1SU08d-NMp8SxrFpt1WRKmTnaeU5cU0FxbaWZqTzV]--></g></svg>
