<?xml version="1.0" encoding="us-ascii" standalone="no"?><svg xmlns="http://www.w3.org/2000/svg" xmlns:xlink="http://www.w3.org/1999/xlink" contentStyleType="text/css" height="431px" preserveAspectRatio="none" style="width:1175px;height:431px;background:#FFFFFF;" version="1.1" viewBox="0 0 1175 431" width="1175px" zoomAndPan="magnify"><defs/><g><rect fill="#FFFFFF" height="281.4219" style="stroke:#181818;stroke-width:1.0;" width="10" x="531" y="81.8047"/><rect fill="#FFFFFF" height="122.5703" style="stroke:#181818;stroke-width:1.0;" width="10" x="536" y="198.1328"/><rect fill="#FFFFFF" height="39.5234" style="stroke:#181818;stroke-width:1.0;" width="10" x="541" y="239.6563"/><rect fill="none" height="238.8984" style="stroke:#000000;stroke-width:1.5;" width="692" x="477" y="96.8047"/><line style="stroke:#181818;stroke-width:0.5;stroke-dasharray:5.0,5.0;" x1="536" x2="536" y1="51.2813" y2="381.2266"/><line style="stroke:#181818;stroke-width:0.5;stroke-dasharray:5.0,5.0;" x1="1123" x2="1123" y1="151.4688" y2="381.2266"/><rect fill="#E3E3E3" height="45.2813" rx="2.5" ry="2.5" style="stroke:#181818;stroke-width:0.5;" width="98" x="487" y="5"/><text fill="#000000" font-family="sans-serif" font-size="14" lengthAdjust="spacing" textLength="77" x="497.5" y="24.6738">organization</text><text fill="#000000" font-family="sans-serif" font-size="14" lengthAdjust="spacing" textLength="84" x="494" y="40.3145">:Organization</text><rect fill="#E3E3E3" height="45.2813" rx="2.5" ry="2.5" style="stroke:#181818;stroke-width:0.5;" width="98" x="487" y="380.2266"/><text fill="#000000" font-family="sans-serif" font-size="14" lengthAdjust="spacing" textLength="77" x="497.5" y="399.9004">organization</text><text fill="#000000" font-family="sans-serif" font-size="14" lengthAdjust="spacing" textLength="84" x="494" y="415.541">:Organization</text><rect fill="#E3E3E3" height="45.2813" rx="2.5" ry="2.5" style="stroke:#181818;stroke-width:0.5;" width="71" x="1088" y="380.2266"/><text fill="#000000" font-family="sans-serif" font-size="14" lengthAdjust="spacing" textLength="53" x="1097" y="399.9004">property</text><text fill="#000000" font-family="sans-serif" font-size="14" lengthAdjust="spacing" textLength="57" x="1095" y="415.541">:property</text><rect fill="#FFFFFF" height="281.4219" style="stroke:#181818;stroke-width:1.0;" width="10" x="531" y="81.8047"/><rect fill="#FFFFFF" height="122.5703" style="stroke:#181818;stroke-width:1.0;" width="10" x="536" y="198.1328"/><rect fill="#FFFFFF" height="39.5234" style="stroke:#181818;stroke-width:1.0;" width="10" x="541" y="239.6563"/><polygon fill="#181818" points="519,77.8047,529,81.8047,519,85.8047,523,81.8047" style="stroke:#181818;stroke-width:1.0;"/><line style="stroke:#181818;stroke-width:1.0;" x1="0" x2="525" y1="81.8047" y2="81.8047"/><text fill="#000000" font-family="sans-serif" font-size="13" font-weight="bold" lengthAdjust="spacing" textLength="14" x="7" y="77.0498">13</text><text fill="#000000" font-family="sans-serif" font-size="13" lengthAdjust="spacing" textLength="494" x="25" y="77.0498">createProperty(Owner, type, address, description, cost, vender, render, PropertyData)</text><path d="M477,96.8047 L597,96.8047 L597,103.3281 L587,113.3281 L477,113.3281 L477,96.8047 " fill="#EEEEEE" style="stroke:#000000;stroke-width:1.5;"/><rect fill="none" height="238.8984" style="stroke:#000000;stroke-width:1.5;" width="692" x="477" y="96.8047"/><text fill="#000000" font-family="sans-serif" font-size="13" font-weight="bold" lengthAdjust="spacing" textLength="75" x="492" y="109.5732">Create Task</text><polygon fill="#181818" points="1076,129.8516,1086,133.8516,1076,137.8516,1080,133.8516" style="stroke:#181818;stroke-width:1.0;"/><line style="stroke:#181818;stroke-width:1.0;" x1="541" x2="1082" y1="133.8516" y2="133.8516"/><text fill="#000000" font-family="sans-serif" font-size="13" font-weight="bold" lengthAdjust="spacing" textLength="25" x="548" y="129.0967">13.1</text><text fill="#000000" font-family="sans-serif" font-size="13" lengthAdjust="spacing" textLength="494" x="577" y="129.0967">createProperty(Owner, type, address, description, cost, vender, render, PropertyData)</text><rect fill="#E3E3E3" height="45.2813" rx="2.5" ry="2.5" style="stroke:#181818;stroke-width:0.5;" width="71" x="1088" y="113.3281"/><text fill="#000000" font-family="sans-serif" font-size="14" lengthAdjust="spacing" textLength="53" x="1097" y="133.002">property</text><text fill="#000000" font-family="sans-serif" font-size="14" lengthAdjust="spacing" textLength="57" x="1095" y="148.6426">:property</text><line style="stroke:#181818;stroke-width:1.0;" x1="541" x2="588" y1="185.1328" y2="185.1328"/><line style="stroke:#181818;stroke-width:1.0;" x1="588" x2="588" y1="185.1328" y2="198.1328"/><line style="stroke:#181818;stroke-width:1.0;" x1="547" x2="588" y1="198.1328" y2="198.1328"/><polygon fill="#181818" points="557,194.1328,547,198.1328,557,202.1328,553,198.1328" style="stroke:#181818;stroke-width:1.0;"/><text fill="#000000" font-family="sans-serif" font-size="13" font-weight="bold" lengthAdjust="spacing" textLength="25" x="553" y="180.3779">13.2</text><text fill="#000000" font-family="sans-serif" font-size="13" lengthAdjust="spacing" textLength="131" x="582" y="180.3779">addProperty (Property)</text><line style="stroke:#181818;stroke-width:1.0;" x1="546" x2="593" y1="226.6563" y2="226.6563"/><line style="stroke:#181818;stroke-width:1.0;" x1="593" x2="593" y1="226.6563" y2="239.6563"/><line style="stroke:#181818;stroke-width:1.0;" x1="552" x2="593" y1="239.6563" y2="239.6563"/><polygon fill="#181818" points="562,235.6563,552,239.6563,562,243.6563,558,239.6563" style="stroke:#181818;stroke-width:1.0;"/><text fill="#000000" font-family="sans-serif" font-size="13" font-weight="bold" lengthAdjust="spacing" textLength="25" x="558" y="221.9014">13.3</text><text fill="#000000" font-family="sans-serif" font-size="13" lengthAdjust="spacing" textLength="149" x="587" y="221.9014">validateProperty(Property)</text><line style="stroke:#181818;stroke-width:1.0;stroke-dasharray:2.0,2.0;" x1="551" x2="593" y1="278.1797" y2="278.1797"/><line style="stroke:#181818;stroke-width:1.0;stroke-dasharray:2.0,2.0;" x1="593" x2="593" y1="278.1797" y2="291.1797"/><line style="stroke:#181818;stroke-width:1.0;stroke-dasharray:2.0,2.0;" x1="546" x2="593" y1="291.1797" y2="291.1797"/><polygon fill="#181818" points="556,287.1797,546,291.1797,556,295.1797,552,291.1797" style="stroke:#181818;stroke-width:1.0;"/><text fill="#000000" font-family="sans-serif" font-size="13" font-weight="bold" lengthAdjust="spacing" textLength="25" x="558" y="273.4248">13.4</text><text fill="#000000" font-family="sans-serif" font-size="13" lengthAdjust="spacing" textLength="4" x="587" y="273.4248">&#160;</text><line style="stroke:#181818;stroke-width:1.0;stroke-dasharray:2.0,2.0;" x1="546" x2="588" y1="319.7031" y2="319.7031"/><line style="stroke:#181818;stroke-width:1.0;stroke-dasharray:2.0,2.0;" x1="588" x2="588" y1="319.7031" y2="332.7031"/><line style="stroke:#181818;stroke-width:1.0;stroke-dasharray:2.0,2.0;" x1="541" x2="588" y1="332.7031" y2="332.7031"/><polygon fill="#181818" points="551,328.7031,541,332.7031,551,336.7031,547,332.7031" style="stroke:#181818;stroke-width:1.0;"/><text fill="#000000" font-family="sans-serif" font-size="13" font-weight="bold" lengthAdjust="spacing" textLength="25" x="553" y="314.9482">13.5</text><text fill="#000000" font-family="sans-serif" font-size="13" lengthAdjust="spacing" textLength="4" x="582" y="314.9482">&#160;</text><polygon fill="#181818" points="11,359.2266,1,363.2266,11,367.2266,7,363.2266" style="stroke:#181818;stroke-width:1.0;"/><line style="stroke:#181818;stroke-width:1.0;stroke-dasharray:2.0,2.0;" x1="5" x2="535" y1="363.2266" y2="363.2266"/><text fill="#000000" font-family="sans-serif" font-size="13" font-weight="bold" lengthAdjust="spacing" textLength="14" x="17" y="358.4717">14</text><text fill="#000000" font-family="sans-serif" font-size="13" lengthAdjust="spacing" textLength="49" x="35" y="358.4717">Property</text><!--SRC=[jL4xRy8m4DxzAqvCW48br4wegeJw6bDHnYvN-ngi9BPrTa3qrzSn14BQgbEzsBxxNZxxKXk7Z3NKrbYvOLiJ16v8-5F7eIoneDUmhmYOP41JL7s0tw2oEsqA-C3Aan2n7BJK3as0aUK2ZVx4eArvCukyTnq1UiXNpvS4nzOHXtq4TyS4N2zNZqzB8R09rZJrEp7ChyNihbLOW6J2G2z7mZZV6U8CmjvH1gWKa_SPAFAIjMkzCv3MXmosP5IBvEFUAJnWmCd0x6ekK0QzZKOfDiHLi6qSt2TtMAClHIgtAq8WnZladax_A-F0BaqZgdKW67UdoJdQjsVy9BB5Igj-uBDGd_Ahradl87ZHKtH14tzn1lYs58TnuFN_w2PLRcUpfB8uZKeC3Ry0]--></g></svg>
