<?xml version="1.0" encoding="us-ascii" standalone="no"?><svg xmlns="http://www.w3.org/2000/svg" xmlns:xlink="http://www.w3.org/1999/xlink" contentStyleType="text/css" height="414px" preserveAspectRatio="none" style="width:618px;height:414px;background:#FFFFFF;" version="1.1" viewBox="0 0 618 414" width="618px" zoomAndPan="magnify"><defs/><g><text fill="#000000" font-family="sans-serif" font-size="14" font-weight="bold" lengthAdjust="spacing" textLength="228" x="194" y="30.1074">System Sequence Diagram (SSD)</text><rect fill="#FFFFFF" height="179.7461" style="stroke:#181818;stroke-width:1.0;" width="10" x="58" y="133.2422"/><rect fill="#FFFFFF" height="156.4551" style="stroke:#181818;stroke-width:1.0;" width="10" x="575" y="156.5332"/><line style="stroke:#181818;stroke-width:0.5;stroke-dasharray:5.0,5.0;" x1="63" x2="63" y1="123.2422" y2="330.9883"/><line style="stroke:#181818;stroke-width:0.5;stroke-dasharray:5.0,5.0;" x1="580" x2="580" y1="123.2422" y2="330.9883"/><text fill="#000000" font-family="sans-serif" font-size="14" lengthAdjust="spacing" textLength="110" x="5" y="119.7285">Network Manager</text><ellipse cx="63" cy="53.1211" fill="#E3E3E3" rx="8" ry="8" style="stroke:#181818;stroke-width:0.5;"/><path d="M63,61.1211 L63,88.1211 M50,69.1211 L76,69.1211 M63,88.1211 L50,103.1211 M63,88.1211 L76,103.1211 " fill="none" style="stroke:#181818;stroke-width:0.5;"/><text fill="#000000" font-family="sans-serif" font-size="14" lengthAdjust="spacing" textLength="110" x="5" y="345.0957">Network Manager</text><ellipse cx="63" cy="357.1094" fill="#E3E3E3" rx="8" ry="8" style="stroke:#181818;stroke-width:0.5;"/><path d="M63,365.1094 L63,392.1094 M50,373.1094 L76,373.1094 M63,392.1094 L50,407.1094 M63,392.1094 L76,407.1094 " fill="none" style="stroke:#181818;stroke-width:0.5;"/><rect fill="#E3E3E3" height="32.6211" rx="2.5" ry="2.5" style="stroke:#181818;stroke-width:0.5;" width="64" x="548" y="89.6211"/><text fill="#000000" font-family="sans-serif" font-size="14" lengthAdjust="spacing" textLength="50" x="555" y="111.7285">:System</text><rect fill="#E3E3E3" height="32.6211" rx="2.5" ry="2.5" style="stroke:#181818;stroke-width:0.5;" width="64" x="548" y="329.9883"/><text fill="#000000" font-family="sans-serif" font-size="14" lengthAdjust="spacing" textLength="50" x="555" y="352.0957">:System</text><rect fill="#FFFFFF" height="179.7461" style="stroke:#181818;stroke-width:1.0;" width="10" x="58" y="133.2422"/><rect fill="#FFFFFF" height="156.4551" style="stroke:#181818;stroke-width:1.0;" width="10" x="575" y="156.5332"/><polygon fill="#181818" points="563,152.5332,573,156.5332,563,160.5332,567,156.5332" style="stroke:#181818;stroke-width:1.0;"/><line style="stroke:#181818;stroke-width:1.0;" x1="68" x2="569" y1="156.5332" y2="156.5332"/><text fill="#000000" font-family="sans-serif" font-size="13" font-weight="bold" lengthAdjust="spacing" textLength="7" x="75" y="151.2705">1</text><text fill="#000000" font-family="sans-serif" font-size="13" lengthAdjust="spacing" textLength="147" x="86" y="151.2705">Ask to list all deals made</text><polygon fill="#181818" points="79,183.8242,69,187.8242,79,191.8242,75,187.8242" style="stroke:#181818;stroke-width:1.0;"/><line style="stroke:#181818;stroke-width:1.0;stroke-dasharray:2.0,2.0;" x1="73" x2="574" y1="187.8242" y2="187.8242"/><text fill="#000000" font-family="sans-serif" font-size="13" font-weight="bold" lengthAdjust="spacing" textLength="7" x="85" y="182.5615">2</text><text fill="#000000" font-family="sans-serif" font-size="13" lengthAdjust="spacing" textLength="265" x="96" y="182.5615">Displays two sorting options of all deals made</text><polygon fill="#181818" points="563,215.1152,573,219.1152,563,223.1152,567,219.1152" style="stroke:#181818;stroke-width:1.0;"/><line style="stroke:#181818;stroke-width:1.0;" x1="68" x2="569" y1="219.1152" y2="219.1152"/><text fill="#000000" font-family="sans-serif" font-size="13" font-weight="bold" lengthAdjust="spacing" textLength="7" x="75" y="213.8525">3</text><text fill="#000000" font-family="sans-serif" font-size="13" lengthAdjust="spacing" textLength="144" x="86" y="213.8525">Choose sorting algorithm</text><polygon fill="#181818" points="79,246.4063,69,250.4063,79,254.4063,75,250.4063" style="stroke:#181818;stroke-width:1.0;"/><line style="stroke:#181818;stroke-width:1.0;stroke-dasharray:2.0,2.0;" x1="73" x2="574" y1="250.4063" y2="250.4063"/><text fill="#000000" font-family="sans-serif" font-size="13" font-weight="bold" lengthAdjust="spacing" textLength="7" x="85" y="245.1436">4</text><text fill="#000000" font-family="sans-serif" font-size="13" lengthAdjust="spacing" textLength="472" x="96" y="245.1436">Displays two options(ascending/descending order) to sort deals (by property area)</text><polygon fill="#181818" points="563,277.6973,573,281.6973,563,285.6973,567,281.6973" style="stroke:#181818;stroke-width:1.0;"/><line style="stroke:#181818;stroke-width:1.0;" x1="68" x2="569" y1="281.6973" y2="281.6973"/><text fill="#000000" font-family="sans-serif" font-size="13" font-weight="bold" lengthAdjust="spacing" textLength="7" x="75" y="276.4346">5</text><text fill="#000000" font-family="sans-serif" font-size="13" lengthAdjust="spacing" textLength="126" x="86" y="276.4346">Choose sorting option</text><polygon fill="#181818" points="74,308.9883,64,312.9883,74,316.9883,70,312.9883" style="stroke:#181818;stroke-width:1.0;"/><line style="stroke:#181818;stroke-width:1.0;stroke-dasharray:2.0,2.0;" x1="68" x2="579" y1="312.9883" y2="312.9883"/><text fill="#000000" font-family="sans-serif" font-size="13" font-weight="bold" lengthAdjust="spacing" textLength="7" x="80" y="307.7256">6</text><text fill="#000000" font-family="sans-serif" font-size="13" lengthAdjust="spacing" textLength="160" x="91" y="307.7256">Displays sorted list of deals</text><!--SRC=[ZP2zRi8m4CTtFyM92GRKdQ5ILTPsoHCSzf5OiNsfxmBAszTE84A80Kyd-__nEqllqu0P8qHERBlCaK3pI4RMbm5jZoqrEWM2J5OnjU5H81qwllhKmXc3a37gjKYRIPGYDFGtKh84HuzjbM-RvhWp1aVbDCOJPODMESFcb_JAkOSVJAKlRm05KZIbHBtr0oQ5pM59dT-MqLIxlw1I5Hie9qNOVzxx3_0bFIX3yAA08O2ZWWaH7StgrNxFgvStyxxaf9fnz384d0GA8WWNeh8k3-ev2V3vEVSLndV7BBIQCRISlNRl5DwAjYYMaYlk3qVt4JWxohkwOOs-KMnF4moP1yew0MR2tJjCIuzvIRG2LJ6vvJlBvdFVR2ZJyrS-NANu3m00]--></g></svg>