<?xml version="1.0" encoding="us-ascii" standalone="no"?><svg xmlns="http://www.w3.org/2000/svg" xmlns:xlink="http://www.w3.org/1999/xlink" contentStyleType="text/css" height="1029px" preserveAspectRatio="none" style="width:1805px;height:1029px;background:#FFFFFF;" version="1.1" viewBox="0 0 1805 1029" width="1805px" zoomAndPan="magnify"><defs/><g><rect fill="#FFFFFF" height="840.2344" style="stroke:#181818;stroke-width:1.0;" width="10" x="72" y="90.6406"/><rect fill="#FFFFFF" height="169.1406" style="stroke:#181818;stroke-width:1.0;" width="10" x="618" y="111.1641"/><rect fill="#FFFFFF" height="28.5234" style="stroke:#181818;stroke-width:1.0;" width="10" x="618" y="308.8281"/><rect fill="#FFFFFF" height="28.5234" style="stroke:#181818;stroke-width:1.0;" width="10" x="618" y="365.875"/><rect fill="#FFFFFF" height="28.5234" style="stroke:#181818;stroke-width:1.0;" width="10" x="618" y="422.9219"/><rect fill="#FFFFFF" height="450.9063" style="stroke:#181818;stroke-width:1.0;" width="10" x="618" y="479.9688"/><rect fill="#FFFFFF" height="71.4531" style="stroke:#181818;stroke-width:1.0;" width="10" x="1159" y="180.3281"/><rect fill="#FFFFFF" height="393.8594" style="stroke:#181818;stroke-width:1.0;" width="10" x="1159" y="508.4922"/><rect fill="#FFFFFF" height="95.8594" style="stroke:#181818;stroke-width:1.0;" width="10" x="1164" y="545.0156"/><rect fill="#FFFFFF" height="82.4531" style="stroke:#181818;stroke-width:1.0;" width="10" x="1164" y="684.3984"/><rect fill="#FFFFFF" height="71.4531" style="stroke:#181818;stroke-width:1.0;" width="10" x="1742" y="802.375"/><line style="stroke:#181818;stroke-width:0.5;stroke-dasharray:5.0,5.0;" x1="77" x2="77" y1="80.6406" y2="948.875"/><line style="stroke:#181818;stroke-width:0.5;stroke-dasharray:5.0,5.0;" x1="622.5" x2="622.5" y1="80.6406" y2="948.875"/><line style="stroke:#181818;stroke-width:0.5;stroke-dasharray:5.0,5.0;" x1="1163.5" x2="1163.5" y1="149.4844" y2="948.875"/><line style="stroke:#181818;stroke-width:0.5;stroke-dasharray:5.0,5.0;" x1="1747" x2="1747" y1="80.6406" y2="948.875"/><text fill="#000000" font-family="sans-serif" font-size="14" lengthAdjust="spacing" textLength="138" x="5" y="77.6738">Organization Property</text><ellipse cx="77" cy="13.5" fill="#E2E2F0" rx="8" ry="8" style="stroke:#181818;stroke-width:0.5;"/><path d="M77,21.5 L77,48.5 M64,29.5 L90,29.5 M77,48.5 L64,63.5 M77,48.5 L90,63.5 " fill="none" style="stroke:#181818;stroke-width:0.5;"/><text fill="#000000" font-family="sans-serif" font-size="14" lengthAdjust="spacing" textLength="138" x="5" y="960.5488">Organization Property</text><ellipse cx="77" cy="972.0156" fill="#E2E2F0" rx="8" ry="8" style="stroke:#181818;stroke-width:0.5;"/><path d="M77,980.0156 L77,1007.0156 M64,988.0156 L90,988.0156 M77,1007.0156 L64,1022.0156 M77,1007.0156 L90,1022.0156 " fill="none" style="stroke:#181818;stroke-width:0.5;"/><rect fill="#E2E2F0" height="29.6406" rx="2.5" ry="2.5" style="stroke:#181818;stroke-width:0.5;" width="127" x="559.5" y="50"/><text fill="#000000" font-family="sans-serif" font-size="14" lengthAdjust="spacing" textLength="113" x="566.5" y="69.6738">:CreatePropertyUI</text><rect fill="#E2E2F0" height="29.6406" rx="2.5" ry="2.5" style="stroke:#181818;stroke-width:0.5;" width="127" x="559.5" y="947.875"/><text fill="#000000" font-family="sans-serif" font-size="14" lengthAdjust="spacing" textLength="113" x="566.5" y="967.5488">:CreatePropertyUI</text><rect fill="#E2E2F0" height="29.6406" rx="2.5" ry="2.5" style="stroke:#181818;stroke-width:0.5;" width="177" x="1075.5" y="947.875"/><text fill="#000000" font-family="sans-serif" font-size="14" lengthAdjust="spacing" textLength="163" x="1082.5" y="967.5488">:CreatePropertyController</text><rect fill="#E2E2F0" height="45.2813" rx="2.5" ry="2.5" style="stroke:#181818;stroke-width:0.5;" width="98" x="1698" y="34.3594"/><text fill="#000000" font-family="sans-serif" font-size="14" lengthAdjust="spacing" textLength="73" x="1708.5" y="54.0332">Real Estate</text><text fill="#000000" font-family="sans-serif" font-size="14" lengthAdjust="spacing" textLength="84" x="1705" y="69.6738">:Organization</text><rect fill="#E2E2F0" height="45.2813" rx="2.5" ry="2.5" style="stroke:#181818;stroke-width:0.5;" width="98" x="1698" y="947.875"/><text fill="#000000" font-family="sans-serif" font-size="14" lengthAdjust="spacing" textLength="73" x="1708.5" y="967.5488">Real Estate</text><text fill="#000000" font-family="sans-serif" font-size="14" lengthAdjust="spacing" textLength="84" x="1705" y="983.1895">:Organization</text><rect fill="#FFFFFF" height="840.2344" style="stroke:#181818;stroke-width:1.0;" width="10" x="72" y="90.6406"/><rect fill="#FFFFFF" height="169.1406" style="stroke:#181818;stroke-width:1.0;" width="10" x="618" y="111.1641"/><rect fill="#FFFFFF" height="28.5234" style="stroke:#181818;stroke-width:1.0;" width="10" x="618" y="308.8281"/><rect fill="#FFFFFF" height="28.5234" style="stroke:#181818;stroke-width:1.0;" width="10" x="618" y="365.875"/><rect fill="#FFFFFF" height="28.5234" style="stroke:#181818;stroke-width:1.0;" width="10" x="618" y="422.9219"/><rect fill="#FFFFFF" height="450.9063" style="stroke:#181818;stroke-width:1.0;" width="10" x="618" y="479.9688"/><rect fill="#FFFFFF" height="71.4531" style="stroke:#181818;stroke-width:1.0;" width="10" x="1159" y="180.3281"/><rect fill="#FFFFFF" height="393.8594" style="stroke:#181818;stroke-width:1.0;" width="10" x="1159" y="508.4922"/><rect fill="#FFFFFF" height="95.8594" style="stroke:#181818;stroke-width:1.0;" width="10" x="1164" y="545.0156"/><rect fill="#FFFFFF" height="82.4531" style="stroke:#181818;stroke-width:1.0;" width="10" x="1164" y="684.3984"/><rect fill="#FFFFFF" height="71.4531" style="stroke:#181818;stroke-width:1.0;" width="10" x="1742" y="802.375"/><polygon fill="#181818" points="606,107.1641,616,111.1641,606,115.1641,610,111.1641" style="stroke:#181818;stroke-width:1.0;"/><line style="stroke:#181818;stroke-width:1.0;" x1="82" x2="612" y1="111.1641" y2="111.1641"/><text fill="#000000" font-family="sans-serif" font-size="13" font-weight="bold" lengthAdjust="spacing" textLength="7" x="89" y="106.4092">1</text><text fill="#000000" font-family="sans-serif" font-size="13" lengthAdjust="spacing" textLength="174" x="100" y="106.4092">Asks to create a new property</text><polygon fill="#181818" points="1063.5,135.6875,1073.5,139.6875,1063.5,143.6875,1067.5,139.6875" style="stroke:#181818;stroke-width:1.0;"/><line style="stroke:#181818;stroke-width:1.0;" x1="628" x2="1069.5" y1="139.6875" y2="139.6875"/><text fill="#000000" font-family="sans-serif" font-size="13" font-weight="bold" lengthAdjust="spacing" textLength="7" x="635" y="134.9326">2</text><text fill="#000000" font-family="sans-serif" font-size="13" lengthAdjust="spacing" textLength="38" x="646" y="134.9326">Create</text><rect fill="#E2E2F0" height="29.6406" rx="2.5" ry="2.5" style="stroke:#181818;stroke-width:0.5;" width="177" x="1075.5" y="119.1641"/><text fill="#000000" font-family="sans-serif" font-size="14" lengthAdjust="spacing" textLength="163" x="1082.5" y="138.8379">:CreatePropertyController</text><polygon fill="#181818" points="1147,176.3281,1157,180.3281,1147,184.3281,1151,180.3281" style="stroke:#181818;stroke-width:1.0;"/><line style="stroke:#181818;stroke-width:1.0;" x1="628" x2="1153" y1="180.3281" y2="180.3281"/><text fill="#000000" font-family="sans-serif" font-size="13" font-weight="bold" lengthAdjust="spacing" textLength="7" x="635" y="175.5732">3</text><text fill="#000000" font-family="sans-serif" font-size="13" lengthAdjust="spacing" textLength="63" x="646" y="175.5732">getOwner()</text><rect fill="none" height="37.9297" style="stroke:#000000;stroke-width:1.5;" width="183" x="1072.5" y="188.3281"/><path d="M1072.5,188.3281 L1134.5,188.3281 L1134.5,194.3281 L1124.5,204.3281 L1072.5,204.3281 L1072.5,188.3281 " fill="#EEEEEE" style="stroke:#000000;stroke-width:2.0;"/><text fill="#000000" font-family="sans-serif" font-size="13" font-weight="bold" lengthAdjust="spacing" textLength="17" x="1085.5" y="202.0967">ref</text><text fill="#000000" font-family="sans-serif" font-size="12" lengthAdjust="spacing" textLength="95" x="1116.5" y="219.1914">Get list of owners</text><polygon fill="#181818" points="639,247.7813,629,251.7813,639,255.7813,635,251.7813" style="stroke:#181818;stroke-width:1.0;"/><line style="stroke:#181818;stroke-width:1.0;stroke-dasharray:2.0,2.0;" x1="633" x2="1163" y1="251.7813" y2="251.7813"/><text fill="#000000" font-family="sans-serif" font-size="13" font-weight="bold" lengthAdjust="spacing" textLength="7" x="645" y="247.0264">4</text><text fill="#000000" font-family="sans-serif" font-size="13" lengthAdjust="spacing" textLength="76" x="656" y="247.0264">list of owners</text><polygon fill="#181818" points="93,276.3047,83,280.3047,93,284.3047,89,280.3047" style="stroke:#181818;stroke-width:1.0;"/><line style="stroke:#181818;stroke-width:1.0;stroke-dasharray:2.0,2.0;" x1="87" x2="622" y1="280.3047" y2="280.3047"/><text fill="#000000" font-family="sans-serif" font-size="13" font-weight="bold" lengthAdjust="spacing" textLength="7" x="99" y="275.5498">5</text><text fill="#000000" font-family="sans-serif" font-size="13" lengthAdjust="spacing" textLength="202" x="110" y="275.5498">Shows list of owners to select from</text><polygon fill="#181818" points="606,304.8281,616,308.8281,606,312.8281,610,308.8281" style="stroke:#181818;stroke-width:1.0;"/><line style="stroke:#181818;stroke-width:1.0;" x1="82" x2="612" y1="308.8281" y2="308.8281"/><text fill="#000000" font-family="sans-serif" font-size="13" font-weight="bold" lengthAdjust="spacing" textLength="7" x="89" y="304.0732">6</text><text fill="#000000" font-family="sans-serif" font-size="13" lengthAdjust="spacing" textLength="82" x="100" y="304.0732">Selects owner</text><polygon fill="#181818" points="93,333.3516,83,337.3516,93,341.3516,89,337.3516" style="stroke:#181818;stroke-width:1.0;"/><line style="stroke:#181818;stroke-width:1.0;stroke-dasharray:2.0,2.0;" x1="87" x2="622" y1="337.3516" y2="337.3516"/><text fill="#000000" font-family="sans-serif" font-size="13" font-weight="bold" lengthAdjust="spacing" textLength="7" x="99" y="332.5967">7</text><text fill="#000000" font-family="sans-serif" font-size="13" lengthAdjust="spacing" textLength="286" x="110" y="332.5967">Shows types of properties and asks to select one</text><polygon fill="#181818" points="606,361.875,616,365.875,606,369.875,610,365.875" style="stroke:#181818;stroke-width:1.0;"/><line style="stroke:#181818;stroke-width:1.0;" x1="82" x2="612" y1="365.875" y2="365.875"/><text fill="#000000" font-family="sans-serif" font-size="13" font-weight="bold" lengthAdjust="spacing" textLength="7" x="89" y="361.1201">8</text><text fill="#000000" font-family="sans-serif" font-size="13" lengthAdjust="spacing" textLength="138" x="100" y="361.1201">Selects type of property</text><polygon fill="#181818" points="93,390.3984,83,394.3984,93,398.3984,89,394.3984" style="stroke:#181818;stroke-width:1.0;"/><line style="stroke:#181818;stroke-width:1.0;stroke-dasharray:2.0,2.0;" x1="87" x2="622" y1="394.3984" y2="394.3984"/><text fill="#000000" font-family="sans-serif" font-size="13" font-weight="bold" lengthAdjust="spacing" textLength="7" x="99" y="389.6436">9</text><text fill="#000000" font-family="sans-serif" font-size="13" lengthAdjust="spacing" textLength="180" x="110" y="389.6436">Requests data for new property</text><polygon fill="#181818" points="606,418.9219,616,422.9219,606,426.9219,610,422.9219" style="stroke:#181818;stroke-width:1.0;"/><line style="stroke:#181818;stroke-width:1.0;" x1="82" x2="612" y1="422.9219" y2="422.9219"/><text fill="#000000" font-family="sans-serif" font-size="13" font-weight="bold" lengthAdjust="spacing" textLength="14" x="89" y="418.167">10</text><text fill="#000000" font-family="sans-serif" font-size="13" lengthAdjust="spacing" textLength="499" x="107" y="418.167">Provides data for new property(Owner, type, address, description, cost, vender, render)</text><polygon fill="#181818" points="93,447.4453,83,451.4453,93,455.4453,89,451.4453" style="stroke:#181818;stroke-width:1.0;"/><line style="stroke:#181818;stroke-width:1.0;stroke-dasharray:2.0,2.0;" x1="87" x2="622" y1="451.4453" y2="451.4453"/><text fill="#000000" font-family="sans-serif" font-size="13" font-weight="bold" lengthAdjust="spacing" textLength="14" x="99" y="446.6904">11</text><text fill="#000000" font-family="sans-serif" font-size="13" lengthAdjust="spacing" textLength="239" x="117" y="446.6904">Shows selected data and asks to confirm</text><polygon fill="#181818" points="606,475.9688,616,479.9688,606,483.9688,610,479.9688" style="stroke:#181818;stroke-width:1.0;"/><line style="stroke:#181818;stroke-width:1.0;" x1="82" x2="612" y1="479.9688" y2="479.9688"/><text fill="#000000" font-family="sans-serif" font-size="13" font-weight="bold" lengthAdjust="spacing" textLength="14" x="89" y="475.2139">12</text><text fill="#000000" font-family="sans-serif" font-size="13" lengthAdjust="spacing" textLength="70" x="107" y="475.2139">Submit data</text><polygon fill="#181818" points="1147,504.4922,1157,508.4922,1147,512.4922,1151,508.4922" style="stroke:#181818;stroke-width:1.0;"/><line style="stroke:#181818;stroke-width:1.0;" x1="628" x2="1153" y1="508.4922" y2="508.4922"/><text fill="#000000" font-family="sans-serif" font-size="13" font-weight="bold" lengthAdjust="spacing" textLength="14" x="635" y="503.7373">13</text><text fill="#000000" font-family="sans-serif" font-size="13" lengthAdjust="spacing" textLength="494" x="653" y="503.7373">createProperty(Owner, type, address, description, cost, vender, render, PropertyData)</text><line style="stroke:#181818;stroke-width:1.0;" x1="1169" x2="1216" y1="532.0156" y2="532.0156"/><line style="stroke:#181818;stroke-width:1.0;" x1="1216" x2="1216" y1="532.0156" y2="545.0156"/><line style="stroke:#181818;stroke-width:1.0;" x1="1175" x2="1216" y1="545.0156" y2="545.0156"/><polygon fill="#181818" points="1185,541.0156,1175,545.0156,1185,549.0156,1181,545.0156" style="stroke:#181818;stroke-width:1.0;"/><text fill="#000000" font-family="sans-serif" font-size="13" font-weight="bold" lengthAdjust="spacing" textLength="14" x="1181" y="527.2607">14</text><text fill="#000000" font-family="sans-serif" font-size="13" lengthAdjust="spacing" textLength="178" x="1199" y="527.2607">getPropertyData(PropertyData)</text><rect fill="none" height="51.3359" style="stroke:#000000;stroke-width:1.5;" width="183" x="1072.5" y="558.0156"/><path d="M1072.5,558.0156 L1134.5,558.0156 L1134.5,564.0156 L1124.5,574.0156 L1072.5,574.0156 L1072.5,558.0156 " fill="#EEEEEE" style="stroke:#000000;stroke-width:2.0;"/><text fill="#000000" font-family="sans-serif" font-size="13" font-weight="bold" lengthAdjust="spacing" textLength="17" x="1085.5" y="571.7842">ref</text><text fill="#000000" font-family="sans-serif" font-size="12" lengthAdjust="spacing" textLength="125" x="1101.5" y="588.8789">Get list of property data</text><text fill="#000000" font-family="sans-serif" font-size="12" lengthAdjust="spacing" textLength="3" x="1162.5" y="602.2852">&#160;</text><line style="stroke:#181818;stroke-width:1.0;stroke-dasharray:2.0,2.0;" x1="1174" x2="1216" y1="639.875" y2="639.875"/><line style="stroke:#181818;stroke-width:1.0;stroke-dasharray:2.0,2.0;" x1="1216" x2="1216" y1="639.875" y2="652.875"/><line style="stroke:#181818;stroke-width:1.0;stroke-dasharray:2.0,2.0;" x1="1169" x2="1216" y1="652.875" y2="652.875"/><polygon fill="#181818" points="1179,648.875,1169,652.875,1179,656.875,1175,652.875" style="stroke:#181818;stroke-width:1.0;"/><text fill="#000000" font-family="sans-serif" font-size="13" font-weight="bold" lengthAdjust="spacing" textLength="14" x="1181" y="635.1201">15</text><text fill="#000000" font-family="sans-serif" font-size="13" lengthAdjust="spacing" textLength="111" x="1199" y="635.1201">list of property data</text><line style="stroke:#181818;stroke-width:1.0;" x1="1169" x2="1216" y1="671.3984" y2="671.3984"/><line style="stroke:#181818;stroke-width:1.0;" x1="1216" x2="1216" y1="671.3984" y2="684.3984"/><line style="stroke:#181818;stroke-width:1.0;" x1="1175" x2="1216" y1="684.3984" y2="684.3984"/><polygon fill="#181818" points="1185,680.3984,1175,684.3984,1185,688.3984,1181,684.3984" style="stroke:#181818;stroke-width:1.0;"/><text fill="#000000" font-family="sans-serif" font-size="13" font-weight="bold" lengthAdjust="spacing" textLength="14" x="1181" y="666.6436">16</text><text fill="#000000" font-family="sans-serif" font-size="13" lengthAdjust="spacing" textLength="125" x="1199" y="666.6436">getOwnerOfProperty()</text><rect fill="none" height="37.9297" style="stroke:#000000;stroke-width:1.5;" width="183" x="1072.5" y="697.3984"/><path d="M1072.5,697.3984 L1134.5,697.3984 L1134.5,703.3984 L1124.5,713.3984 L1072.5,713.3984 L1072.5,697.3984 " fill="#EEEEEE" style="stroke:#000000;stroke-width:2.0;"/><text fill="#000000" font-family="sans-serif" font-size="13" font-weight="bold" lengthAdjust="spacing" textLength="17" x="1085.5" y="711.167">ref</text><text fill="#000000" font-family="sans-serif" font-size="12" lengthAdjust="spacing" textLength="63" x="1132.5" y="728.2617">Get owners</text><line style="stroke:#181818;stroke-width:1.0;" x1="1174" x2="1216" y1="765.8516" y2="765.8516"/><line style="stroke:#181818;stroke-width:1.0;" x1="1216" x2="1216" y1="765.8516" y2="778.8516"/><line style="stroke:#181818;stroke-width:1.0;" x1="1169" x2="1216" y1="778.8516" y2="778.8516"/><polygon fill="#181818" points="1179,774.8516,1169,778.8516,1179,782.8516,1175,778.8516" style="stroke:#181818;stroke-width:1.0;"/><text fill="#000000" font-family="sans-serif" font-size="13" font-weight="bold" lengthAdjust="spacing" textLength="14" x="1181" y="761.0967">17</text><text fill="#000000" font-family="sans-serif" font-size="13" lengthAdjust="spacing" textLength="44" x="1199" y="761.0967">Owners</text><polygon fill="#181818" points="1730,798.375,1740,802.375,1730,806.375,1734,802.375" style="stroke:#181818;stroke-width:1.0;"/><line style="stroke:#181818;stroke-width:1.0;" x1="1169" x2="1736" y1="802.375" y2="802.375"/><text fill="#000000" font-family="sans-serif" font-size="13" font-weight="bold" lengthAdjust="spacing" textLength="14" x="1176" y="797.6201">18</text><text fill="#000000" font-family="sans-serif" font-size="13" lengthAdjust="spacing" textLength="536" x="1194" y="797.6201">CreateProperty(Owner, type, address, description, cost, vender, render, PropertyData, agent)</text><rect fill="none" height="37.9297" style="stroke:#000000;stroke-width:1.5;" width="104" x="1695" y="810.375"/><path d="M1695,810.375 L1757,810.375 L1757,816.375 L1747,826.375 L1695,826.375 L1695,810.375 " fill="#EEEEEE" style="stroke:#000000;stroke-width:2.0;"/><text fill="#000000" font-family="sans-serif" font-size="13" font-weight="bold" lengthAdjust="spacing" textLength="17" x="1708" y="824.1436">ref</text><text fill="#000000" font-family="sans-serif" font-size="12" lengthAdjust="spacing" textLength="84" x="1705" y="841.2383">Create property</text><polygon fill="#181818" points="1180,869.8281,1170,873.8281,1180,877.8281,1176,873.8281" style="stroke:#181818;stroke-width:1.0;"/><line style="stroke:#181818;stroke-width:1.0;stroke-dasharray:2.0,2.0;" x1="1174" x2="1746" y1="873.8281" y2="873.8281"/><text fill="#000000" font-family="sans-serif" font-size="13" font-weight="bold" lengthAdjust="spacing" textLength="14" x="1186" y="869.0732">19</text><text fill="#000000" font-family="sans-serif" font-size="13" lengthAdjust="spacing" textLength="49" x="1204" y="869.0732">Property</text><polygon fill="#181818" points="639,898.3516,629,902.3516,639,906.3516,635,902.3516" style="stroke:#181818;stroke-width:1.0;"/><line style="stroke:#181818;stroke-width:1.0;stroke-dasharray:2.0,2.0;" x1="633" x2="1163" y1="902.3516" y2="902.3516"/><text fill="#000000" font-family="sans-serif" font-size="13" font-weight="bold" lengthAdjust="spacing" textLength="14" x="645" y="897.5967">20</text><text fill="#000000" font-family="sans-serif" font-size="13" lengthAdjust="spacing" textLength="49" x="663" y="897.5967">Property</text><polygon fill="#181818" points="88,926.875,78,930.875,88,934.875,84,930.875" style="stroke:#181818;stroke-width:1.0;"/><line style="stroke:#181818;stroke-width:1.0;stroke-dasharray:2.0,2.0;" x1="82" x2="622" y1="930.875" y2="930.875"/><text fill="#000000" font-family="sans-serif" font-size="13" font-weight="bold" lengthAdjust="spacing" textLength="14" x="94" y="926.1201">21</text><text fill="#000000" font-family="sans-serif" font-size="13" lengthAdjust="spacing" textLength="153" x="112" y="926.1201">Displays sucess message</text><!--SRC=[hLPDZzem4BtdLuou55QXt7Eej89gXRGh45jklNYJ2MiriLFR0T5Vtx4JKkUBZTJD0K8yxytpyyo4B-_653fQhOgC2LFcsTTOvYkDlqiKCIuJpawAvK70IYD5cR-XellOI0MpdJenmVymmwM0lP85AdET0TFmk7a92gOCZtb1h32BrWgPmLlGSUl2ZjkxKMifZ99PXif5htySdjln1sGPVDU6CF1JHBuUXzWTdfnOVhOHLbG0TD4DBBzHzWWUzIyDHaBi4WC3WHSewlnLT8CdjL1Vnwqbi88U7YAeL0yiHd12ixi8LFD5qAmhJ46UKLKR0kzwGWCPrmOaHLYORfPH91RuZwMHvLXQDFO9BEiTZl0bE49WrHEKF8hWzLrUT8V1kgKnmzX0gcGU336IKrsZNnr4LoHzOuFXrEPQeBQvwoFXz8kH4wm-jbg859NxqoHOKe_pEa7DmRQ39cp238EKYhzL9_tSdTHKqMUUu0X-xaeaTC92O4cYKEkG67MiU66hEOHOQXF2cSh0HYhtlHYipxwBbKkOLDbz_s8fKgxoAUQLRpatZc5AMqHrH-t_SujXCrSsb7anKltzulVwpoUO3xDzq4_Z3Tjjsjk9UZwDDd2hKokrmpG-OBHj1xVkJD-bpI4iWi_RScUUVB35cwXT7pLfIpJ9RtFsSqkAa2SKPimPzmOPDCQkT7sf1BRdmbrpYCGx_lqGphEd9wOrwFUjSJR9NNzKRBYcVm1NcXPbJ4P2JXzapTtvxZqYZhy0]--></g></svg>
