<?xml version="1.0" encoding="us-ascii" standalone="no"?><svg xmlns="http://www.w3.org/2000/svg" xmlns:xlink="http://www.w3.org/1999/xlink" contentStyleType="text/css" height="634px" preserveAspectRatio="none" style="width:930px;height:634px;background:#FFFFFF;" version="1.1" viewBox="0 0 930 634" width="930px" zoomAndPan="magnify"><defs/><g><rect fill="#FFFFFF" height="448.7832" style="stroke:#181818;stroke-width:1.0;" width="10" x="21.5" y="93.6211"/><rect fill="#FFFFFF" height="291.3281" style="stroke:#181818;stroke-width:1.0;" width="10" x="360.5" y="116.9121"/><rect fill="#FFFFFF" height="93.873" style="stroke:#181818;stroke-width:1.0;" width="10" x="360.5" y="439.5313"/><rect fill="#FFFFFF" height="164.1641" style="stroke:#181818;stroke-width:1.0;" width="10" x="560.5" y="174.4941"/><rect fill="#FFFFFF" height="31.291" style="stroke:#181818;stroke-width:1.0;" width="10" x="560.5" y="470.8223"/><rect fill="none" height="214.7461" style="stroke:#000000;stroke-width:1.5;" width="622" x="302.5" y="131.9121"/><line style="stroke:#181818;stroke-width:0.5;stroke-dasharray:5.0,5.0;" x1="26" x2="26" y1="83.6211" y2="551.4043"/><line style="stroke:#181818;stroke-width:0.5;stroke-dasharray:5.0,5.0;" x1="365.5" x2="365.5" y1="83.6211" y2="551.4043"/><line style="stroke:#181818;stroke-width:0.5;stroke-dasharray:5.0,5.0;" x1="565.5" x2="565.5" y1="83.6211" y2="551.4043"/><text fill="#000000" font-family="sans-serif" font-size="14" lengthAdjust="spacing" textLength="37" x="5" y="80.1074">Agent</text><ellipse cx="26.5" cy="13.5" fill="#E3E3E3" rx="8" ry="8" style="stroke:#181818;stroke-width:0.5;"/><path d="M26.5,21.5 L26.5,48.5 M13.5,29.5 L39.5,29.5 M26.5,48.5 L13.5,63.5 M26.5,48.5 L39.5,63.5 " fill="none" style="stroke:#181818;stroke-width:0.5;"/><text fill="#000000" font-family="sans-serif" font-size="14" lengthAdjust="spacing" textLength="37" x="5" y="565.5117">Agent</text><ellipse cx="26.5" cy="577.5254" fill="#E3E3E3" rx="8" ry="8" style="stroke:#181818;stroke-width:0.5;"/><path d="M26.5,585.5254 L26.5,612.5254 M13.5,593.5254 L39.5,593.5254 M26.5,612.5254 L13.5,627.5254 M26.5,612.5254 L39.5,627.5254 " fill="none" style="stroke:#181818;stroke-width:0.5;"/><rect fill="#E3E3E3" height="32.6211" rx="2.5" ry="2.5" style="stroke:#181818;stroke-width:0.5;" width="106" x="312.5" y="50"/><text fill="#000000" font-family="sans-serif" font-size="14" lengthAdjust="spacing" textLength="92" x="319.5" y="72.1074">AcceptOrderUI</text><rect fill="#E3E3E3" height="32.6211" rx="2.5" ry="2.5" style="stroke:#181818;stroke-width:0.5;" width="106" x="312.5" y="550.4043"/><text fill="#000000" font-family="sans-serif" font-size="14" lengthAdjust="spacing" textLength="92" x="319.5" y="572.5117">AcceptOrderUI</text><rect fill="#E3E3E3" height="32.6211" rx="2.5" ry="2.5" style="stroke:#181818;stroke-width:0.5;" width="156" x="487.5" y="50"/><text fill="#000000" font-family="sans-serif" font-size="14" lengthAdjust="spacing" textLength="142" x="494.5" y="72.1074">AcceptOrderController</text><rect fill="#E3E3E3" height="32.6211" rx="2.5" ry="2.5" style="stroke:#181818;stroke-width:0.5;" width="156" x="487.5" y="550.4043"/><text fill="#000000" font-family="sans-serif" font-size="14" lengthAdjust="spacing" textLength="142" x="494.5" y="572.5117">AcceptOrderController</text><rect fill="#FFFFFF" height="448.7832" style="stroke:#181818;stroke-width:1.0;" width="10" x="21.5" y="93.6211"/><rect fill="#FFFFFF" height="291.3281" style="stroke:#181818;stroke-width:1.0;" width="10" x="360.5" y="116.9121"/><rect fill="#FFFFFF" height="93.873" style="stroke:#181818;stroke-width:1.0;" width="10" x="360.5" y="439.5313"/><rect fill="#FFFFFF" height="164.1641" style="stroke:#181818;stroke-width:1.0;" width="10" x="560.5" y="174.4941"/><rect fill="#FFFFFF" height="31.291" style="stroke:#181818;stroke-width:1.0;" width="10" x="560.5" y="470.8223"/><polygon fill="#181818" points="348.5,112.9121,358.5,116.9121,348.5,120.9121,352.5,116.9121" style="stroke:#181818;stroke-width:1.0;"/><line style="stroke:#181818;stroke-width:1.0;" x1="31.5" x2="354.5" y1="116.9121" y2="116.9121"/><text fill="#000000" font-family="sans-serif" font-size="13" font-weight="bold" lengthAdjust="spacing" textLength="7" x="38.5" y="111.6494">1</text><text fill="#000000" font-family="sans-serif" font-size="13" lengthAdjust="spacing" textLength="181" x="49.5" y="111.6494">Request to list purchase orders</text><path d="M302.5,131.9121 L472.5,131.9121 L472.5,141.2031 L462.5,151.2031 L302.5,151.2031 L302.5,131.9121 " fill="#EEEEEE" style="stroke:#000000;stroke-width:1.5;"/><rect fill="none" height="214.7461" style="stroke:#000000;stroke-width:1.5;" width="622" x="302.5" y="131.9121"/><text fill="#000000" font-family="sans-serif" font-size="13" font-weight="bold" lengthAdjust="spacing" textLength="125" x="317.5" y="146.9404">List Purchase Order</text><polygon fill="#181818" points="548.5,170.4941,558.5,174.4941,548.5,178.4941,552.5,174.4941" style="stroke:#181818;stroke-width:1.0;"/><line style="stroke:#181818;stroke-width:1.0;" x1="370.5" x2="554.5" y1="174.4941" y2="174.4941"/><text fill="#000000" font-family="sans-serif" font-size="13" font-weight="bold" lengthAdjust="spacing" textLength="7" x="377.5" y="169.2314">2</text><text fill="#000000" font-family="sans-serif" font-size="13" lengthAdjust="spacing" textLength="123" x="388.5" y="169.2314">Get Purchase Orders</text><line style="stroke:#181818;stroke-width:1.0;" x1="570.5" x2="612.5" y1="205.7852" y2="205.7852"/><line style="stroke:#181818;stroke-width:1.0;" x1="612.5" x2="612.5" y1="205.7852" y2="218.7852"/><line style="stroke:#181818;stroke-width:1.0;" x1="571.5" x2="612.5" y1="218.7852" y2="218.7852"/><polygon fill="#181818" points="581.5,214.7852,571.5,218.7852,581.5,222.7852,577.5,218.7852" style="stroke:#181818;stroke-width:1.0;"/><text fill="#000000" font-family="sans-serif" font-size="13" font-weight="bold" lengthAdjust="spacing" textLength="7" x="577.5" y="200.5225">3</text><text fill="#000000" font-family="sans-serif" font-size="13" lengthAdjust="spacing" textLength="201" x="588.5" y="200.5225">Group purchase orders by property</text><line style="stroke:#181818;stroke-width:1.0;" x1="570.5" x2="612.5" y1="250.0762" y2="250.0762"/><line style="stroke:#181818;stroke-width:1.0;" x1="612.5" x2="612.5" y1="250.0762" y2="263.0762"/><line style="stroke:#181818;stroke-width:1.0;" x1="571.5" x2="612.5" y1="263.0762" y2="263.0762"/><polygon fill="#181818" points="581.5,259.0762,571.5,263.0762,581.5,267.0762,577.5,263.0762" style="stroke:#181818;stroke-width:1.0;"/><text fill="#000000" font-family="sans-serif" font-size="13" font-weight="bold" lengthAdjust="spacing" textLength="7" x="577.5" y="244.8135">4</text><text fill="#000000" font-family="sans-serif" font-size="13" lengthAdjust="spacing" textLength="241" x="588.5" y="244.8135">Sort properties from oldest to most recent</text><line style="stroke:#181818;stroke-width:1.0;" x1="570.5" x2="612.5" y1="294.3672" y2="294.3672"/><line style="stroke:#181818;stroke-width:1.0;" x1="612.5" x2="612.5" y1="294.3672" y2="307.3672"/><line style="stroke:#181818;stroke-width:1.0;" x1="571.5" x2="612.5" y1="307.3672" y2="307.3672"/><polygon fill="#181818" points="581.5,303.3672,571.5,307.3672,581.5,311.3672,577.5,307.3672" style="stroke:#181818;stroke-width:1.0;"/><text fill="#000000" font-family="sans-serif" font-size="13" font-weight="bold" lengthAdjust="spacing" textLength="7" x="577.5" y="289.1045">5</text><text fill="#000000" font-family="sans-serif" font-size="13" lengthAdjust="spacing" textLength="324" x="588.5" y="289.1045">Sort purchase orders from the highest offer to the lowest</text><polygon fill="#181818" points="381.5,334.6582,371.5,338.6582,381.5,342.6582,377.5,338.6582" style="stroke:#181818;stroke-width:1.0;"/><line style="stroke:#181818;stroke-width:1.0;stroke-dasharray:2.0,2.0;" x1="375.5" x2="564.5" y1="338.6582" y2="338.6582"/><text fill="#000000" font-family="sans-serif" font-size="13" font-weight="bold" lengthAdjust="spacing" textLength="7" x="387.5" y="333.3955">6</text><text fill="#000000" font-family="sans-serif" font-size="13" lengthAdjust="spacing" textLength="140" x="398.5" y="333.3955">Return Purchase Orders</text><polygon fill="#181818" points="42.5,372.9492,32.5,376.9492,42.5,380.9492,38.5,376.9492" style="stroke:#181818;stroke-width:1.0;"/><line style="stroke:#181818;stroke-width:1.0;stroke-dasharray:2.0,2.0;" x1="36.5" x2="359.5" y1="376.9492" y2="376.9492"/><text fill="#000000" font-family="sans-serif" font-size="13" font-weight="bold" lengthAdjust="spacing" textLength="7" x="48.5" y="371.6865">7</text><text fill="#000000" font-family="sans-serif" font-size="13" lengthAdjust="spacing" textLength="294" x="59.5" y="371.6865">Display list of grouped purchase orders by property</text><polygon fill="#181818" points="42.5,404.2402,32.5,408.2402,42.5,412.2402,38.5,408.2402" style="stroke:#181818;stroke-width:1.0;"/><line style="stroke:#181818;stroke-width:1.0;stroke-dasharray:2.0,2.0;" x1="36.5" x2="364.5" y1="408.2402" y2="408.2402"/><text fill="#000000" font-family="sans-serif" font-size="13" font-weight="bold" lengthAdjust="spacing" textLength="7" x="48.5" y="402.9775">8</text><text fill="#000000" font-family="sans-serif" font-size="13" lengthAdjust="spacing" textLength="273" x="59.5" y="402.9775">Request data (select an offer to accept/decline)</text><polygon fill="#181818" points="348.5,435.5313,358.5,439.5313,348.5,443.5313,352.5,439.5313" style="stroke:#181818;stroke-width:1.0;"/><line style="stroke:#181818;stroke-width:1.0;" x1="31.5" x2="354.5" y1="439.5313" y2="439.5313"/><text fill="#000000" font-family="sans-serif" font-size="13" font-weight="bold" lengthAdjust="spacing" textLength="7" x="38.5" y="434.2686">9</text><text fill="#000000" font-family="sans-serif" font-size="13" lengthAdjust="spacing" textLength="80" x="49.5" y="434.2686">Selects Order</text><polygon fill="#181818" points="548.5,466.8223,558.5,470.8223,548.5,474.8223,552.5,470.8223" style="stroke:#181818;stroke-width:1.0;"/><line style="stroke:#181818;stroke-width:1.0;" x1="370.5" x2="554.5" y1="470.8223" y2="470.8223"/><text fill="#000000" font-family="sans-serif" font-size="13" font-weight="bold" lengthAdjust="spacing" textLength="14" x="377.5" y="465.5596">10</text><text fill="#000000" font-family="sans-serif" font-size="13" lengthAdjust="spacing" textLength="87" x="395.5" y="465.5596">Selected Order</text><polygon fill="#181818" points="381.5,498.1133,371.5,502.1133,381.5,506.1133,377.5,502.1133" style="stroke:#181818;stroke-width:1.0;"/><line style="stroke:#181818;stroke-width:1.0;stroke-dasharray:2.0,2.0;" x1="375.5" x2="564.5" y1="502.1133" y2="502.1133"/><text fill="#000000" font-family="sans-serif" font-size="13" font-weight="bold" lengthAdjust="spacing" textLength="14" x="387.5" y="496.8506">11</text><text fill="#000000" font-family="sans-serif" font-size="13" lengthAdjust="spacing" textLength="148" x="405.5" y="496.8506">Returns sucess message</text><polygon fill="#181818" points="42.5,529.4043,32.5,533.4043,42.5,537.4043,38.5,533.4043" style="stroke:#181818;stroke-width:1.0;"/><line style="stroke:#181818;stroke-width:1.0;stroke-dasharray:2.0,2.0;" x1="36.5" x2="364.5" y1="533.4043" y2="533.4043"/><text fill="#000000" font-family="sans-serif" font-size="13" font-weight="bold" lengthAdjust="spacing" textLength="14" x="48.5" y="528.1416">12</text><text fill="#000000" font-family="sans-serif" font-size="13" lengthAdjust="spacing" textLength="162" x="66.5" y="528.1416">Displays Sucesse Message</text><!--SRC=[VLF1Rjim3BthAuXUrXs2tNi8C7J04A13XsRv04QYRQ6og4hqklnzAJbfKpUT3n8WlVT8lYUNHnyJPXnXvCXso3mII9x8bDURXFOHUzhA8H1aieAn3-U0Cg3ZPnzxw30KCWOduJYDUyh6V1cy8-YOPS__35hX35VVUufo1LW0UwCYugrF64LlhAKazzbHtcqQOhVv577BKJA7GBaXR_yyt9bQmlz5eIfjG3_iORLM6RY11tgQg0W8G_2wfodR0Gi1LxaomqzyBMpwp5E2kuhzVSAsqWsgcgfSowhsJrfY5dfpU-siKOvKPROYYrvWVu2KEL6MmmNEbhESxZqLw3GvuE2EqusiksQbDdzANjHh2Z8G3BuVgWnt7UKgLWy3F-lPUVVDqsgfJ3bUdDpH-zafEcY6cbVtL4JZkO4VlgI0XpaLxcOOkV-QybxaBLo7Wd1TAEXJ1OnlSs1xETySsU0ZVLtsMFC-Vo_gKzCePub_0Eysg_NHr0RMdY-Wv-Wl-5QWJ9PAWL4N_SdCqZFLNwthT4U72cmRWU3NHuOszG80]--></g></svg>