<?xml version="1.0" encoding="us-ascii" standalone="no"?><svg xmlns="http://www.w3.org/2000/svg" xmlns:xlink="http://www.w3.org/1999/xlink" contentStyleType="text/css" height="1699px" preserveAspectRatio="none" style="width:1775px;height:1699px;background:#FFFFFF;" version="1.1" viewBox="0 0 1775 1699" width="1775px" zoomAndPan="magnify"><defs/><g><!--class RealEstate--><g id="elem_RealEstate"><rect codeLine="18" fill="#F1F1F1" height="185.5898" id="RealEstate" rx="2.5" ry="2.5" style="stroke:#181818;stroke-width:0.5;" width="101" x="7" y="155.7627"/><text fill="#000000" font-family="sans-serif" font-size="14" lengthAdjust="spacing" textLength="69" x="23" y="175.8701">RealEstate</text><line style="stroke:#181818;stroke-width:0.5;" x1="8" x2="107" y1="184.3838" y2="184.3838"/><text fill="#000000" font-family="sans-serif" font-size="14" lengthAdjust="spacing" textLength="35" x="13" y="203.4912">name</text><text fill="#000000" font-family="sans-serif" font-size="14" lengthAdjust="spacing" textLength="51" x="13" y="222.1123">address</text><text fill="#000000" font-family="sans-serif" font-size="14" lengthAdjust="spacing" textLength="76" x="13" y="240.7334">descriptions</text><text fill="#000000" font-family="sans-serif" font-size="14" lengthAdjust="spacing" textLength="47" x="13" y="259.3545">website</text><text fill="#000000" font-family="sans-serif" font-size="14" lengthAdjust="spacing" textLength="89" x="13" y="277.9756">phoneNumber</text><text fill="#000000" font-family="sans-serif" font-size="14" lengthAdjust="spacing" textLength="33" x="13" y="296.5967">email</text><text fill="#000000" font-family="sans-serif" font-size="14" lengthAdjust="spacing" textLength="68" x="13" y="315.2178">vatNumber</text><text fill="#000000" font-family="sans-serif" font-size="14" lengthAdjust="spacing" textLength="27" x="13" y="333.8389">logo</text></g><!--class Client--><g id="elem_Client"><rect codeLine="29" fill="#F1F1F1" height="36.6211" id="Client" rx="2.5" ry="2.5" style="stroke:#181818;stroke-width:0.5;" width="42" x="581" y="526.2627"/><text fill="#000000" font-family="sans-serif" font-size="14" lengthAdjust="spacing" textLength="36" x="584" y="546.3701">Client</text><line style="stroke:#181818;stroke-width:0.5;" x1="582" x2="622" y1="554.8838" y2="554.8838"/></g><!--class Owner--><g id="elem_Owner"><rect codeLine="32" fill="#F1F1F1" height="55.2422" id="Owner" rx="2.5" ry="2.5" style="stroke:#181818;stroke-width:0.5;" width="82" x="1127.5" y="310.2627"/><text fill="#000000" font-family="sans-serif" font-size="14" lengthAdjust="spacing" textLength="41" x="1148" y="330.3701">Owner</text><line style="stroke:#181818;stroke-width:0.5;" x1="1128.5" x2="1208.5" y1="338.8838" y2="338.8838"/><text fill="#000000" font-family="sans-serif" font-size="14" lengthAdjust="spacing" textLength="70" x="1133.5" y="357.9912">Proprietary</text></g><!--class User--><g id="elem_User"><rect codeLine="35" fill="#F1F1F1" height="166.9688" id="User" rx="2.5" ry="2.5" style="stroke:#181818;stroke-width:0.5;" width="104" x="1416.5" y="102.2627"/><text fill="#000000" font-family="sans-serif" font-size="14" font-style="italic" lengthAdjust="spacing" textLength="30" x="1453.5" y="122.3701">User</text><line style="stroke:#181818;stroke-width:0.5;" x1="1417.5" x2="1519.5" y1="130.8838" y2="130.8838"/><text fill="#000000" font-family="sans-serif" font-size="14" lengthAdjust="spacing" textLength="35" x="1422.5" y="149.9912">name</text><text fill="#000000" font-family="sans-serif" font-size="14" lengthAdjust="spacing" textLength="76" x="1422.5" y="168.6123">descriptions</text><text fill="#000000" font-family="sans-serif" font-size="14" lengthAdjust="spacing" textLength="70" x="1422.5" y="187.2334">tax number</text><text fill="#000000" font-family="sans-serif" font-size="14" lengthAdjust="spacing" textLength="51" x="1422.5" y="205.8545">address</text><text fill="#000000" font-family="sans-serif" font-size="14" lengthAdjust="spacing" textLength="88" x="1422.5" y="224.4756">email address</text><text fill="#000000" font-family="sans-serif" font-size="14" lengthAdjust="spacing" textLength="92" x="1422.5" y="243.0967">phone number</text><text fill="#000000" font-family="sans-serif" font-size="14" lengthAdjust="spacing" textLength="60" x="1422.5" y="261.7178">password</text></g><!--class Proprietary--><g id="elem_Proprietary"><rect codeLine="44" fill="#F1F1F1" height="166.9688" id="Proprietary" rx="2.5" ry="2.5" style="stroke:#181818;stroke-width:0.5;" width="111" x="1657" y="924.2627"/><text fill="#000000" font-family="sans-serif" font-size="14" font-style="italic" lengthAdjust="spacing" textLength="70" x="1677.5" y="944.3701">Proprietary</text><line style="stroke:#181818;stroke-width:0.5;" x1="1658" x2="1767" y1="952.8838" y2="952.8838"/><text fill="#000000" font-family="sans-serif" font-size="14" lengthAdjust="spacing" textLength="35" x="1663" y="971.9912">name</text><text fill="#000000" font-family="sans-serif" font-size="14" lengthAdjust="spacing" textLength="28" x="1663" y="990.6123">Tipo</text><text fill="#000000" font-family="sans-serif" font-size="14" lengthAdjust="spacing" textLength="51" x="1663" y="1009.2334">address</text><text fill="#000000" font-family="sans-serif" font-size="14" lengthAdjust="spacing" textLength="76" x="1663" y="1027.8545">descriptions</text><text fill="#000000" font-family="sans-serif" font-size="14" lengthAdjust="spacing" textLength="26" x="1663" y="1046.4756">cost</text><text fill="#000000" font-family="sans-serif" font-size="14" lengthAdjust="spacing" textLength="99" x="1663" y="1065.0967">vender:boolean</text><text fill="#000000" font-family="sans-serif" font-size="14" lengthAdjust="spacing" textLength="97" x="1663" y="1083.7178">render:boolean</text></g><!--class Land--><g id="elem_Land"><rect codeLine="53" fill="#F1F1F1" height="36.6211" id="Land" rx="2.5" ry="2.5" style="stroke:#181818;stroke-width:0.5;" width="38" x="1449.5" y="870.2627"/><text fill="#000000" font-family="sans-serif" font-size="14" lengthAdjust="spacing" textLength="32" x="1452.5" y="890.3701">Land</text><line style="stroke:#181818;stroke-width:0.5;" x1="1450.5" x2="1486.5" y1="898.8838" y2="898.8838"/></g><!--class Apartment--><g id="elem_Apartment"><rect codeLine="56" fill="#F1F1F1" height="129.7266" id="Apartment" rx="2.5" ry="2.5" style="stroke:#181818;stroke-width:0.5;" width="143" x="1397" y="942.7627"/><text fill="#000000" font-family="sans-serif" font-size="14" lengthAdjust="spacing" textLength="65" x="1436" y="962.8701">Apartment</text><line style="stroke:#181818;stroke-width:0.5;" x1="1398" x2="1539" y1="971.3838" y2="971.3838"/><text fill="#000000" font-family="sans-serif" font-size="14" lengthAdjust="spacing" textLength="107" x="1403" y="990.4912">numberOfRooms</text><text fill="#000000" font-family="sans-serif" font-size="14" lengthAdjust="spacing" textLength="131" x="1403" y="1009.1123">numberOfBathrooms</text><text fill="#000000" font-family="sans-serif" font-size="14" lengthAdjust="spacing" textLength="103" x="1403" y="1027.7334">numberOfFloors</text><text fill="#000000" font-family="sans-serif" font-size="14" lengthAdjust="spacing" textLength="118" x="1403" y="1046.3545">numberOfGarages</text><text fill="#000000" font-family="sans-serif" font-size="14" lengthAdjust="spacing" textLength="82" x="1403" y="1064.9756">Equipaments</text></g><!--class House--><g id="elem_House"><rect codeLine="64" fill="#F1F1F1" height="185.5898" id="House" rx="2.5" ry="2.5" style="stroke:#181818;stroke-width:0.5;" width="158" x="1389.5" y="1107.7627"/><text fill="#000000" font-family="sans-serif" font-size="14" lengthAdjust="spacing" textLength="40" x="1448.5" y="1127.8701">House</text><line style="stroke:#181818;stroke-width:0.5;" x1="1390.5" x2="1546.5" y1="1136.3838" y2="1136.3838"/><text fill="#000000" font-family="sans-serif" font-size="14" lengthAdjust="spacing" textLength="107" x="1395.5" y="1155.4912">numberOfRooms</text><text fill="#000000" font-family="sans-serif" font-size="14" lengthAdjust="spacing" textLength="131" x="1395.5" y="1174.1123">numberOfBathrooms</text><text fill="#000000" font-family="sans-serif" font-size="14" lengthAdjust="spacing" textLength="103" x="1395.5" y="1192.7334">numberOfFloors</text><text fill="#000000" font-family="sans-serif" font-size="14" lengthAdjust="spacing" textLength="118" x="1395.5" y="1211.3545">numberOfGarages</text><text fill="#000000" font-family="sans-serif" font-size="14" lengthAdjust="spacing" textLength="82" x="1395.5" y="1229.9756">Equipaments</text><text fill="#000000" font-family="sans-serif" font-size="14" lengthAdjust="spacing" textLength="122" x="1395.5" y="1248.5967">Basement: boolean</text><text fill="#000000" font-family="sans-serif" font-size="14" lengthAdjust="spacing" textLength="144" x="1395.5" y="1267.2178">inhabited  loft: boolean</text><text fill="#000000" font-family="sans-serif" font-size="14" lengthAdjust="spacing" textLength="146" x="1395.5" y="1285.8389">Sun exposure: boolean</text></g><!--class Advertisement--><g id="elem_Advertisement"><rect codeLine="75" fill="#F1F1F1" height="129.7266" id="Advertisement" rx="2.5" ry="2.5" style="stroke:#181818;stroke-width:0.5;" width="118" x="1409.5" y="394.7627"/><text fill="#000000" font-family="sans-serif" font-size="14" lengthAdjust="spacing" textLength="90" x="1423.5" y="414.8701">Advertisement</text><line style="stroke:#181818;stroke-width:0.5;" x1="1410.5" x2="1526.5" y1="423.3838" y2="423.3838"/><text fill="#000000" font-family="sans-serif" font-size="14" lengthAdjust="spacing" textLength="38" x="1415.5" y="442.4912">owner</text><text fill="#000000" font-family="sans-serif" font-size="14" lengthAdjust="spacing" textLength="76" x="1415.5" y="461.1123">descriptions</text><text fill="#000000" font-family="sans-serif" font-size="14" lengthAdjust="spacing" textLength="106" x="1415.5" y="479.7334">RealEstateAgent</text><text fill="#000000" font-family="sans-serif" font-size="14" lengthAdjust="spacing" textLength="26" x="1415.5" y="498.3545">cost</text><text fill="#000000" font-family="sans-serif" font-size="14" lengthAdjust="spacing" textLength="70" x="1415.5" y="516.9756">Proprietary</text></g><!--class Schedule--><g id="elem_Schedule"><rect codeLine="82" fill="#F1F1F1" height="92.4844" id="Schedule" rx="2.5" ry="2.5" style="stroke:#181818;stroke-width:0.5;" width="88" x="1424.5" y="742.7627"/><text fill="#000000" font-family="sans-serif" font-size="14" lengthAdjust="spacing" textLength="59" x="1439" y="762.8701">Schedule</text><line style="stroke:#181818;stroke-width:0.5;" x1="1425.5" x2="1511.5" y1="771.3838" y2="771.3838"/><text fill="#000000" font-family="sans-serif" font-size="14" lengthAdjust="spacing" textLength="28" x="1430.5" y="790.4912">date</text><text fill="#000000" font-family="sans-serif" font-size="14" lengthAdjust="spacing" textLength="26" x="1430.5" y="809.1123">time</text><text fill="#000000" font-family="sans-serif" font-size="14" lengthAdjust="spacing" textLength="76" x="1430.5" y="827.7334">descriptions</text></g><!--class visit--><g id="elem_visit"><rect codeLine="87" fill="#F1F1F1" height="148.3477" id="visit" rx="2.5" ry="2.5" style="stroke:#181818;stroke-width:0.5;" width="181" x="1378" y="559.7627"/><text fill="#000000" font-family="sans-serif" font-size="14" lengthAdjust="spacing" textLength="24" x="1456.5" y="579.8701">visit</text><line style="stroke:#181818;stroke-width:0.5;" x1="1379" x2="1558" y1="588.3838" y2="588.3838"/><text fill="#000000" font-family="sans-serif" font-size="14" lengthAdjust="spacing" textLength="36" x="1384" y="607.4912">Client</text><text fill="#000000" font-family="sans-serif" font-size="14" lengthAdjust="spacing" textLength="28" x="1384" y="626.1123">date</text><text fill="#000000" font-family="sans-serif" font-size="14" lengthAdjust="spacing" textLength="26" x="1384" y="644.7334">time</text><text fill="#000000" font-family="sans-serif" font-size="14" lengthAdjust="spacing" textLength="76" x="1384" y="663.3545">descriptions</text><text fill="#000000" font-family="sans-serif" font-size="14" lengthAdjust="spacing" textLength="106" x="1384" y="681.9756">RealEstateAgent</text><text fill="#000000" font-family="sans-serif" font-size="14" lengthAdjust="spacing" textLength="169" x="1384" y="700.5967">ResultOfTheVisit : boolean</text></g><!--class Order--><g id="elem_Order"><rect codeLine="95" fill="#F1F1F1" height="129.7266" id="Order" rx="2.5" ry="2.5" style="stroke:#181818;stroke-width:0.5;" width="118" x="782" y="597.7627"/><text fill="#000000" font-family="sans-serif" font-size="14" lengthAdjust="spacing" textLength="37" x="822.5" y="617.8701">Order</text><line style="stroke:#181818;stroke-width:0.5;" x1="783" x2="899" y1="626.3838" y2="626.3838"/><text fill="#000000" font-family="sans-serif" font-size="14" lengthAdjust="spacing" textLength="76" x="788" y="645.4912">descriptions</text><text fill="#000000" font-family="sans-serif" font-size="14" lengthAdjust="spacing" textLength="33" x="788" y="664.1123">client</text><text fill="#000000" font-family="sans-serif" font-size="14" lengthAdjust="spacing" textLength="38" x="788" y="682.7334">owner</text><text fill="#000000" font-family="sans-serif" font-size="14" lengthAdjust="spacing" textLength="70" x="788" y="701.3545">Proprietary</text><text fill="#000000" font-family="sans-serif" font-size="14" lengthAdjust="spacing" textLength="106" x="788" y="719.9756">RealEstateAgent</text></g><!--class TipoOrder--><g id="elem_TipoOrder"><rect codeLine="103" fill="#F1F1F1" height="55.2422" id="TipoOrder" rx="2.5" ry="2.5" style="stroke:#181818;stroke-width:0.5;" width="71" x="1133" y="635.2627"/><text fill="#000000" font-family="sans-serif" font-size="14" lengthAdjust="spacing" textLength="65" x="1136" y="655.3701">TipoOrder</text><line style="stroke:#181818;stroke-width:0.5;" x1="1134" x2="1203" y1="663.8838" y2="663.8838"/><text fill="#000000" font-family="sans-serif" font-size="14" lengthAdjust="spacing" textLength="23" x="1139" y="682.9912">tipo</text></g><!--class StoreNetWork--><g id="elem_StoreNetWork"><rect codeLine="106" fill="#F1F1F1" height="73.8633" id="StoreNetWork" rx="2.5" ry="2.5" style="stroke:#181818;stroke-width:0.5;" width="94" x="169" y="391.7627"/><text fill="#000000" font-family="sans-serif" font-size="14" lengthAdjust="spacing" textLength="88" x="172" y="411.8701">StoreNetWork</text><line style="stroke:#181818;stroke-width:0.5;" x1="170" x2="262" y1="420.3838" y2="420.3838"/><text fill="#000000" font-family="sans-serif" font-size="14" lengthAdjust="spacing" textLength="35" x="175" y="439.4912">name</text><text fill="#000000" font-family="sans-serif" font-size="14" lengthAdjust="spacing" textLength="51" x="175" y="458.1123">address</text></g><!--class Store--><g id="elem_Store"><rect codeLine="110" fill="#F1F1F1" height="166.9688" id="Store" rx="2.5" ry="2.5" style="stroke:#181818;stroke-width:0.5;" width="136" x="773" y="763.2627"/><text fill="#000000" font-family="sans-serif" font-size="14" lengthAdjust="spacing" textLength="34" x="824" y="783.3701">Store</text><line style="stroke:#181818;stroke-width:0.5;" x1="774" x2="908" y1="791.8838" y2="791.8838"/><text fill="#000000" font-family="sans-serif" font-size="14" lengthAdjust="spacing" textLength="35" x="779" y="810.9912">name</text><text fill="#000000" font-family="sans-serif" font-size="14" lengthAdjust="spacing" textLength="68" x="779" y="829.6123">vatNumber</text><text fill="#000000" font-family="sans-serif" font-size="14" lengthAdjust="spacing" textLength="47" x="779" y="848.2334">website</text><text fill="#000000" font-family="sans-serif" font-size="14" lengthAdjust="spacing" textLength="89" x="779" y="866.8545">phoneNumber</text><text fill="#000000" font-family="sans-serif" font-size="14" lengthAdjust="spacing" textLength="33" x="779" y="885.4756">email</text><text fill="#000000" font-family="sans-serif" font-size="14" lengthAdjust="spacing" textLength="124" x="779" y="904.0967">NumberOfBranches</text><text fill="#000000" font-family="sans-serif" font-size="14" lengthAdjust="spacing" textLength="90" x="779" y="922.7178">LocalManager</text></g><!--class NetWorkManager--><g id="elem_NetWorkManager"><rect codeLine="120" fill="#F1F1F1" height="36.6211" id="NetWorkManager" rx="2.5" ry="2.5" style="stroke:#181818;stroke-width:0.5;" width="116" x="324" y="410.2627"/><text fill="#000000" font-family="sans-serif" font-size="14" lengthAdjust="spacing" textLength="110" x="327" y="430.3701">NetWorkManager</text><line style="stroke:#181818;stroke-width:0.5;" x1="325" x2="439" y1="438.8838" y2="438.8838"/></g><!--class StorePerformance--><g id="elem_StorePerformance"><rect codeLine="122" fill="#F1F1F1" height="111.1055" id="StorePerformance" rx="2.5" ry="2.5" style="stroke:#181818;stroke-width:0.5;" width="122" x="541" y="608.2627"/><text fill="#000000" font-family="sans-serif" font-size="14" lengthAdjust="spacing" textLength="115" x="544.5" y="628.3701">StorePerformance</text><line style="stroke:#181818;stroke-width:0.5;" x1="542" x2="662" y1="636.8838" y2="636.8838"/><text fill="#000000" font-family="sans-serif" font-size="14" lengthAdjust="spacing" textLength="76" x="547" y="655.9912">descriptions</text><text fill="#000000" font-family="sans-serif" font-size="14" lengthAdjust="spacing" textLength="28" x="547" y="674.6123">date</text><text fill="#000000" font-family="sans-serif" font-size="14" lengthAdjust="spacing" textLength="110" x="547" y="693.2334">NetWorkManager</text><text fill="#000000" font-family="sans-serif" font-size="14" lengthAdjust="spacing" textLength="34" x="547" y="711.8545">Store</text></g><!--class Administrator--><g id="elem_Administrator"><rect codeLine="128" fill="#F1F1F1" height="36.6211" id="Administrator" rx="2.5" ry="2.5" style="stroke:#181818;stroke-width:0.5;" width="89" x="1124" y="95.2627"/><text fill="#000000" font-family="sans-serif" font-size="14" lengthAdjust="spacing" textLength="83" x="1127" y="115.3701">Administrator</text><line style="stroke:#181818;stroke-width:0.5;" x1="1125" x2="1212" y1="123.8838" y2="123.8838"/></g><!--class EmployeesPerformance--><g id="elem_EmployeesPerformance"><rect codeLine="130" fill="#F1F1F1" height="111.1055" id="EmployeesPerformance" rx="2.5" ry="2.5" style="stroke:#181818;stroke-width:0.5;" width="156" x="1390.5" y="1438.2627"/><text fill="#000000" font-family="sans-serif" font-size="14" lengthAdjust="spacing" textLength="150" x="1393.5" y="1458.3701">EmployeesPerformance</text><line style="stroke:#181818;stroke-width:0.5;" x1="1391.5" x2="1545.5" y1="1466.8838" y2="1466.8838"/><text fill="#000000" font-family="sans-serif" font-size="14" lengthAdjust="spacing" textLength="76" x="1396.5" y="1485.9912">descriptions</text><text fill="#000000" font-family="sans-serif" font-size="14" lengthAdjust="spacing" textLength="28" x="1396.5" y="1504.6123">date</text><text fill="#000000" font-family="sans-serif" font-size="14" lengthAdjust="spacing" textLength="106" x="1396.5" y="1523.2334">RealEstateAgent</text><text fill="#000000" font-family="sans-serif" font-size="14" lengthAdjust="spacing" textLength="90" x="1396.5" y="1541.8545">StoreManager</text></g><!--class Employee--><g id="elem_Employee"><rect codeLine="136" fill="#F1F1F1" height="55.2422" id="Employee" rx="2.5" ry="2.5" style="stroke:#181818;stroke-width:0.5;" width="68" x="1134.5" y="833.2627"/><text fill="#000000" font-family="sans-serif" font-size="14" lengthAdjust="spacing" textLength="62" x="1137.5" y="853.3701">Employee</text><line style="stroke:#181818;stroke-width:0.5;" x1="1135.5" x2="1201.5" y1="861.8838" y2="861.8838"/><text fill="#000000" font-family="sans-serif" font-size="14" lengthAdjust="spacing" textLength="53" x="1140.5" y="880.9912">Branche</text></g><!--class Roles--><g id="elem_Roles"><rect codeLine="139" fill="#F1F1F1" height="73.8633" id="Roles" rx="2.5" ry="2.5" style="stroke:#181818;stroke-width:0.5;" width="211" x="1363" y="1328.7627"/><text fill="#000000" font-family="sans-serif" font-size="14" lengthAdjust="spacing" textLength="36" x="1450.5" y="1348.8701">Roles</text><line style="stroke:#181818;stroke-width:0.5;" x1="1364" x2="1573" y1="1357.3838" y2="1357.3838"/><text fill="#000000" font-family="sans-serif" font-size="14" lengthAdjust="spacing" textLength="170" x="1369" y="1376.4912">ROLE_STORE_MANAGER</text><text fill="#000000" font-family="sans-serif" font-size="14" lengthAdjust="spacing" textLength="199" x="1369" y="1395.1123">ROLE_REAL_ESTATE_AGENT</text></g><!--class Owenr--><g id="elem_Owenr"><rect fill="#F1F1F1" height="36.6211" id="Owenr" rx="2.5" ry="2.5" style="stroke:#181818;stroke-width:0.5;" width="47" x="817.5" y="965.2627"/><text fill="#000000" font-family="sans-serif" font-size="14" lengthAdjust="spacing" textLength="41" x="820.5" y="985.3701">Owenr</text><line style="stroke:#181818;stroke-width:0.5;" x1="818.5" x2="863.5" y1="993.8838" y2="993.8838"/></g><!--link Employee to Roles--><g id="link_Employee_Roles"><path codeLine="143" d="M1174.57,888.4227 C1189.86,964.8627 1242.11,1181.8827 1363,1311.7627 C1368.77,1317.9627 1375.42,1323.5727 1382.51,1328.6227 " fill="none" id="Employee-Roles" style="stroke:#181818;stroke-width:1.0;"/><text fill="#000000" font-family="sans-serif" font-size="13" lengthAdjust="spacing" textLength="21" x="1277.5" y="1115.791">has</text><text fill="#000000" font-family="sans-serif" font-size="13" lengthAdjust="spacing" textLength="7" x="1176.6634" y="910.3664">1</text><text fill="#000000" font-family="sans-serif" font-size="13" lengthAdjust="spacing" textLength="7" x="1359.5696" y="1317.5595">1</text></g><!--link RealEstate to StoreNetWork--><g id="link_RealEstate_StoreNetWork"><path codeLine="144" d="M108.02,305.7127 C132.46,333.8327 161.26,366.9527 182.81,391.7427 " fill="none" id="RealEstate-StoreNetWork" style="stroke:#181818;stroke-width:1.0;"/><text fill="#000000" font-family="sans-serif" font-size="13" lengthAdjust="spacing" textLength="7" x="115.9542" y="329.4055">1</text><text fill="#000000" font-family="sans-serif" font-size="13" lengthAdjust="spacing" textLength="7" x="169.0453" y="380.4177">1</text></g><!--link StoreNetWork to Store--><g id="link_StoreNetWork_Store"><path codeLine="145" d="M247,465.8527 C300.13,529.3827 416.93,659.6127 541,736.7627 C614.51,782.4727 709.88,813.4027 772.92,830.5427 " fill="none" id="StoreNetWork-Store" style="stroke:#181818;stroke-width:1.0;"/><text fill="#000000" font-family="sans-serif" font-size="13" lengthAdjust="spacing" textLength="21" x="480" y="682.791">has</text><text fill="#000000" font-family="sans-serif" font-size="13" lengthAdjust="spacing" textLength="7" x="244.7266" y="487.7536">1</text><text fill="#000000" font-family="sans-serif" font-size="13" lengthAdjust="spacing" textLength="5" x="760.2003" y="843.7443">*</text></g><!--link Store to Employee--><g id="link_Store_Employee"><path codeLine="146" d="M909.05,849.6427 C977.72,852.6027 1081.65,857.0727 1134.35,859.3327 " fill="none" id="Store-Employee" style="stroke:#181818;stroke-width:1.0;"/><text fill="#000000" font-family="sans-serif" font-size="13" lengthAdjust="spacing" textLength="21" x="1006" y="846.791">has</text><text fill="#000000" font-family="sans-serif" font-size="13" lengthAdjust="spacing" textLength="7" x="916.8758" y="864.9333">1</text><text fill="#000000" font-family="sans-serif" font-size="13" lengthAdjust="spacing" textLength="7" x="1119.5847" y="874.8242">1</text></g><!--link Store to Employee--><g id="link_Store_Employee"><path codeLine="167" d="M909.2,875.9627 C919.03,879.1827 929.16,881.9527 939,883.7627 C1006.75,896.2427 1025.9,894.1727 1094,883.7627 C1107.48,881.7027 1121.89,877.6327 1134.34,873.4827 " fill="none" id="Store-Employee-1" style="stroke:#181818;stroke-width:1.0;"/><text fill="#000000" font-family="sans-serif" font-size="13" lengthAdjust="spacing" textLength="21" x="1006" y="879.791">has</text><text fill="#000000" font-family="sans-serif" font-size="13" lengthAdjust="spacing" textLength="7" x="917.0422" y="894.1321">1</text><text fill="#000000" font-family="sans-serif" font-size="13" lengthAdjust="spacing" textLength="20" x="1106.474" y="891.2952">0..*</text></g><!--link StoreNetWork to NetWorkManager--><g id="link_StoreNetWork_NetWorkManager"><path codeLine="147" d="M263.12,428.7627 C281.97,428.7627 303.98,428.7627 323.84,428.7627 " fill="none" id="StoreNetWork-NetWorkManager" style="stroke:#181818;stroke-width:1.0;"/><text fill="#000000" font-family="sans-serif" font-size="13" lengthAdjust="spacing" textLength="7" x="270.8712" y="444.1253">1</text><text fill="#000000" font-family="sans-serif" font-size="13" lengthAdjust="spacing" textLength="7" x="308.9398" y="443.923">1</text></g><!--link Administrator to User--><g id="link_Administrator_User"><path codeLine="149" d="M1213.15,124.3127 C1267.23,137.3727 1359.21,159.6027 1416.49,173.4327 " fill="none" id="Administrator-User" style="stroke:#181818;stroke-width:1.0;"/><text fill="#000000" font-family="sans-serif" font-size="13" lengthAdjust="spacing" textLength="38" x="1269" y="128.791">Create</text><text fill="#000000" font-family="sans-serif" font-size="13" lengthAdjust="spacing" textLength="7" x="1221.1248" y="141.5516">1</text><text fill="#000000" font-family="sans-serif" font-size="13" lengthAdjust="spacing" textLength="5" x="1403.4838" y="186.9222">*</text></g><!--link Administrator to User--><g id="link_Administrator_User"><path codeLine="151" d="M1213.32,105.2227 C1246.71,100.3627 1293.5,97.1427 1333,107.7627 C1355.88,113.9227 1378.89,125.0227 1399.24,136.9627 " fill="none" id="Administrator-to-User" style="stroke:#181818;stroke-width:1.0;"/><polygon fill="none" points="1403.05,131.0827,1416.37,147.5627,1395.68,142.9927,1403.05,131.0827" style="stroke:#181818;stroke-width:1.0;"/><text fill="#000000" font-family="sans-serif" font-size="13" lengthAdjust="spacing" textLength="10" x="1283" y="95.791">is</text></g><!--link Advertisement to Proprietary--><g id="link_Advertisement_Proprietary"><path codeLine="150" d="M1527.72,495.9327 C1544.68,508.8927 1561.88,524.8027 1574,542.7627 C1653.57,660.7027 1688.01,825.5727 1702.22,924.0127 " fill="none" id="Advertisement-Proprietary" style="stroke:#181818;stroke-width:1.0;"/><text fill="#000000" font-family="sans-serif" font-size="13" lengthAdjust="spacing" textLength="21" x="1605" y="594.791">has</text><text fill="#000000" font-family="sans-serif" font-size="13" lengthAdjust="spacing" textLength="7" x="1535.364" y="515.4396">1</text><text fill="#000000" font-family="sans-serif" font-size="13" lengthAdjust="spacing" textLength="7" x="1701.6373" y="913.1271">1</text></g><!--link Employee to User--><g id="link_Employee_User"><path codeLine="152" d="M1178.2,833.0427 C1187.58,802.5427 1202.57,751.9727 1213,707.7627 C1229.52,637.7727 1213.33,614.2727 1243,548.7627 C1269.78,489.6427 1305.32,492.4627 1333,433.7627 C1359.4,377.7727 1334.2,352.5527 1363,297.7627 C1373.08,278.5827 1387.33,260.2727 1402.07,244.2127 " fill="none" id="Employee-to-User" style="stroke:#181818;stroke-width:1.0;"/><polygon fill="none" points="1397.3,239.0727,1416.23,229.5527,1407.37,248.8027,1397.3,239.0727" style="stroke:#181818;stroke-width:1.0;"/><text fill="#000000" font-family="sans-serif" font-size="13" lengthAdjust="spacing" textLength="10" x="1283" y="429.791">is</text></g><!--link NetWorkManager to User--><g id="link_NetWorkManager_User"><path codeLine="153" d="M389.31,410.1027 C409.86,353.1927 480.56,185.7627 601,185.7627 C601,185.7627 601,185.7627 1169.5,185.7627 C1247.02,185.7627 1335.88,185.7627 1396.25,185.7627 " fill="none" id="NetWorkManager-to-User" style="stroke:#181818;stroke-width:1.0;"/><polygon fill="none" points="1396.35,178.7627,1416.35,185.7627,1396.35,192.7627,1396.35,178.7627" style="stroke:#181818;stroke-width:1.0;"/><text fill="#000000" font-family="sans-serif" font-size="13" lengthAdjust="spacing" textLength="10" x="836" y="181.791">is</text></g><!--link Owner to User--><g id="link_Owner_User"><path codeLine="154" d="M1209.53,321.3627 C1220.39,316.9327 1232.14,312.1527 1243,307.7627 C1282.94,291.6227 1294.68,291.4527 1333,271.7627 C1355.34,260.2827 1378.72,246.1527 1399.6,232.6927 " fill="none" id="Owner-to-User" style="stroke:#181818;stroke-width:1.0;"/><polygon fill="none" points="1395.92,226.7327,1416.48,221.6027,1403.6,238.4327,1395.92,226.7327" style="stroke:#181818;stroke-width:1.0;"/><text fill="#000000" font-family="sans-serif" font-size="13" lengthAdjust="spacing" textLength="10" x="1283" y="267.791">is</text></g><!--link Client to User--><g id="link_Client_User"><path codeLine="155" d="M623.26,533.1827 C700.92,489.3127 988,331.5327 1243,248.7627 C1294.09,232.1827 1352.52,215.8627 1396.97,203.9927 " fill="none" id="Client-to-User" style="stroke:#181818;stroke-width:1.0;"/><polygon fill="none" points="1395.2,197.2227,1416.33,198.8627,1398.79,210.7527,1395.2,197.2227" style="stroke:#181818;stroke-width:1.0;"/><text fill="#000000" font-family="sans-serif" font-size="13" lengthAdjust="spacing" textLength="10" x="1011.5" y="300.791">is</text></g><!--link RealEstate to User--><g id="link_RealEstate_User"><path codeLine="156" d="M84.01,155.4827 C107.03,94.3727 147.84,25.7627 215,25.7627 C215,25.7627 215,25.7627 1169.5,25.7627 C1245.11,25.7627 1266.26,37.2227 1333,72.7627 C1363.15,88.8227 1392.66,112.4527 1416.32,133.9627 " fill="none" id="RealEstate-User" style="stroke:#181818;stroke-width:1.0;"/><text fill="#000000" font-family="sans-serif" font-size="13" lengthAdjust="spacing" textLength="21" x="591.5" y="21.791">has</text><text fill="#000000" font-family="sans-serif" font-size="13" lengthAdjust="spacing" textLength="7" x="78.8436" y="144.4284">1</text><text fill="#000000" font-family="sans-serif" font-size="13" lengthAdjust="spacing" textLength="20" x="1388.4981" y="142.7335">0..*</text></g><!--link House to Proprietary--><g id="link_House_Proprietary"><path codeLine="157" d="M1547.74,1138.3627 C1577.8,1114.3927 1611.9,1087.1927 1641.17,1063.8527 " fill="none" id="House-to-Proprietary" style="stroke:#181818;stroke-width:1.0;"/><polygon fill="none" points="1636.88,1058.3227,1656.88,1051.3227,1645.61,1069.2627,1636.88,1058.3227" style="stroke:#181818;stroke-width:1.0;"/><text fill="#000000" font-family="sans-serif" font-size="13" lengthAdjust="spacing" textLength="10" x="1610.5" y="1070.791">is</text></g><!--link Apartment to Proprietary--><g id="link_Apartment_Proprietary"><path codeLine="158" d="M1540.15,1007.7627 C1570.41,1007.7627 1605.79,1007.7627 1636.52,1007.7627 " fill="none" id="Apartment-to-Proprietary" style="stroke:#181818;stroke-width:1.0;"/><polygon fill="none" points="1636.93,1000.7627,1656.93,1007.7627,1636.93,1014.7627,1636.93,1000.7627" style="stroke:#181818;stroke-width:1.0;"/><text fill="#000000" font-family="sans-serif" font-size="13" lengthAdjust="spacing" textLength="10" x="1610.5" y="1003.791">is</text></g><!--link RealEstate to Proprietary--><g id="link_RealEstate_Proprietary"><path codeLine="159" d="M58.79,341.7727 C61,660.9027 78.69,1691.7627 215,1691.7627 C215,1691.7627 215,1691.7627 1469.5,1691.7627 C1563.16,1691.7627 1592.13,1638.6827 1627,1551.7627 C1689.01,1397.1927 1705.75,1201.0027 1710.12,1091.4727 " fill="none" id="RealEstate-Proprietary" style="stroke:#181818;stroke-width:1.0;"/><text fill="#000000" font-family="sans-serif" font-size="13" lengthAdjust="spacing" textLength="21" x="707.5" y="1687.791">has</text><text fill="#000000" font-family="sans-serif" font-size="13" lengthAdjust="spacing" textLength="7" x="51.6277" y="363.2814">1</text><text fill="#000000" font-family="sans-serif" font-size="13" lengthAdjust="spacing" textLength="20" x="1689.0948" y="1113.1505">0..*</text></g><!--link Land to Proprietary--><g id="link_Land_Proprietary"><path codeLine="160" d="M1487.68,894.0027 C1508.87,900.3827 1544.73,912.0227 1574,925.7627 C1595.9,936.0527 1618.81,948.8227 1639.51,961.2027 " fill="none" id="Land-to-Proprietary" style="stroke:#181818;stroke-width:1.0;"/><polygon fill="none" points="1643.25,955.2827,1656.67,971.6727,1635.95,967.2327,1643.25,955.2827" style="stroke:#181818;stroke-width:1.0;"/><text fill="#000000" font-family="sans-serif" font-size="13" lengthAdjust="spacing" textLength="10" x="1610.5" y="936.791">is</text></g><!--link Owner to Advertisement--><g id="link_Owner_Advertisement"><path codeLine="161" d="M1209.74,356.9027 C1220.49,361.8727 1232.14,367.1227 1243,371.7627 C1258.95,378.5727 1348.36,413.4527 1409.42,437.2027 " fill="none" id="Owner-Advertisement" style="stroke:#181818;stroke-width:1.0;"/><text fill="#000000" font-family="sans-serif" font-size="13" lengthAdjust="spacing" textLength="88" x="1244" y="367.791">has or Request</text><text fill="#000000" font-family="sans-serif" font-size="13" lengthAdjust="spacing" textLength="7" x="1217.4297" y="375.6858">1</text><text fill="#000000" font-family="sans-serif" font-size="13" lengthAdjust="spacing" textLength="20" x="1381.4326" y="449.638">0..*</text></g><!--link Employee to Advertisement--><g id="link_Employee_Advertisement"><path codeLine="162" d="M1180.33,833.0427 C1193.4,800.7927 1216.89,746.3727 1243,702.7627 C1288.66,626.4927 1301.02,606.4827 1363,542.7627 C1377.05,528.3127 1393.62,514.1027 1409.38,501.6327 " fill="none" id="Employee-Advertisement" style="stroke:#181818;stroke-width:1.0;"/><text fill="#000000" font-family="sans-serif" font-size="13" lengthAdjust="spacing" textLength="57" x="1259.5" y="571.791">Publishes</text><text fill="#000000" font-family="sans-serif" font-size="13" lengthAdjust="spacing" textLength="7" x="1175.1522" y="822.1532">1</text><text fill="#000000" font-family="sans-serif" font-size="13" lengthAdjust="spacing" textLength="20" x="1381.388" y="521.5177">0..*</text></g><!--link Client to visit--><g id="link_Client_visit"><path codeLine="163" d="M623.1,546.8327 C724.38,557.2627 1181.7,604.3427 1377.78,624.5227 " fill="none" id="Client-visit" style="stroke:#181818;stroke-width:1.0;"/><text fill="#000000" font-family="sans-serif" font-size="13" lengthAdjust="spacing" textLength="43" x="995" y="575.791">request</text><text fill="#000000" font-family="sans-serif" font-size="13" lengthAdjust="spacing" textLength="7" x="630.9413" y="564.337">1</text><text fill="#000000" font-family="sans-serif" font-size="13" lengthAdjust="spacing" textLength="7" x="1362.9774" y="638.4874">1</text></g><!--link Employee to visit--><g id="link_Employee_visit"><path codeLine="164" d="M1198.89,833.0327 C1212.09,820.9327 1228.03,806.7927 1243,794.7627 C1286.18,760.0627 1336.1,723.9027 1377.88,694.6627 " fill="none" id="Employee-visit" style="stroke:#181818;stroke-width:1.0;"/><text fill="#000000" font-family="sans-serif" font-size="13" lengthAdjust="spacing" textLength="43" x="1266.5" y="725.791">attends</text><text fill="#000000" font-family="sans-serif" font-size="13" lengthAdjust="spacing" textLength="7" x="1197.7722" y="822.141">1</text><text fill="#000000" font-family="sans-serif" font-size="13" lengthAdjust="spacing" textLength="7" x="1363.0857" y="714.4359">1</text></g><!--link Employee to Schedule--><g id="link_Employee_Schedule"><path codeLine="165" d="M1202.53,852.7827 C1256.7,839.6927 1364.41,813.6727 1424.48,799.1527 " fill="none" id="Employee-Schedule" style="stroke:#181818;stroke-width:1.0;"/><text fill="#000000" font-family="sans-serif" font-size="13" lengthAdjust="spacing" textLength="21" x="1277.5" y="817.791">has</text><text fill="#000000" font-family="sans-serif" font-size="13" lengthAdjust="spacing" textLength="7" x="1210.2706" y="866.9233">1</text><text fill="#000000" font-family="sans-serif" font-size="13" lengthAdjust="spacing" textLength="20" x="1396.5458" y="815.9413">0..*</text></g><!--link Order to TipoOrder--><g id="link_Order_TipoOrder"><path codeLine="166" d="M900.19,662.7627 C967.85,662.7627 1077.32,662.7627 1132.83,662.7627 " fill="none" id="Order-TipoOrder" style="stroke:#181818;stroke-width:1.0;"/><text fill="#000000" font-family="sans-serif" font-size="13" lengthAdjust="spacing" textLength="21" x="1006" y="658.791">has</text><text fill="#000000" font-family="sans-serif" font-size="13" lengthAdjust="spacing" textLength="20" x="908.1901" y="677.8065">0..*</text><text fill="#000000" font-family="sans-serif" font-size="13" lengthAdjust="spacing" textLength="7" x="1118.1184" y="678.4693">1</text></g><!--link Client to Order--><g id="link_Client_Order"><path codeLine="168" d="M623.01,554.7827 C641.24,563.9127 668.92,577.7627 693,589.7627 C722.2,604.3127 754.69,620.4527 781.68,633.8427 " fill="none" id="Client-Order" style="stroke:#181818;stroke-width:1.0;"/><text fill="#000000" font-family="sans-serif" font-size="13" lengthAdjust="spacing" textLength="48" x="694" y="585.791">Request</text><text fill="#000000" font-family="sans-serif" font-size="13" lengthAdjust="spacing" textLength="7" x="631.3313" y="585.3091">1</text><text fill="#000000" font-family="sans-serif" font-size="13" lengthAdjust="spacing" textLength="20" x="754.0981" y="645.6684">0..*</text></g><!--link Order to Employee--><g id="link_Order_Employee"><path codeLine="169" d="M900.19,698.1627 C968.4,739.6527 1079.1,806.9827 1134.17,840.4927 " fill="none" id="Order-Employee" style="stroke:#181818;stroke-width:1.0;"/><text fill="#000000" font-family="sans-serif" font-size="13" lengthAdjust="spacing" textLength="106" x="963.5" y="722.791">Accepts or rejects</text><text fill="#000000" font-family="sans-serif" font-size="13" lengthAdjust="spacing" textLength="20" x="908.1901" y="717.2996">0..*</text><text fill="#000000" font-family="sans-serif" font-size="13" lengthAdjust="spacing" textLength="7" x="1119.3676" y="852.0985">1</text></g><!--link Employee to EmployeesPerformance--><g id="link_Employee_EmployeesPerformance"><path codeLine="170" d="M1171.97,888.3127 C1179.84,972.4827 1206.04,1224.9627 1243,1297.7627 C1275.62,1362.0027 1339.18,1414.3527 1390.36,1448.7327 " fill="none" id="Employee-EmployeesPerformance" style="stroke:#181818;stroke-width:1.0;"/><text fill="#000000" font-family="sans-serif" font-size="13" lengthAdjust="spacing" textLength="39" x="1268.5" y="1293.791">Makes</text><text fill="#000000" font-family="sans-serif" font-size="13" lengthAdjust="spacing" textLength="7" x="1173.5818" y="910.6832">1</text><text fill="#000000" font-family="sans-serif" font-size="13" lengthAdjust="spacing" textLength="20" x="1362.51" y="1459.5158">0..*</text></g><!--link EmployeesPerformance to Employee--><g id="link_EmployeesPerformance_Employee"><path codeLine="171" d="M1390.28,1492.3827 C1340.75,1487.1527 1279.16,1471.7627 1243,1429.7627 C1172,1347.2927 1168.66,991.0927 1169.2,888.5027 " fill="none" id="EmployeesPerformance-Employee" style="stroke:#181818;stroke-width:1.0;"/><text fill="#000000" font-family="sans-serif" font-size="13" lengthAdjust="spacing" textLength="21" x="1277.5" y="1425.791">has</text><text fill="#000000" font-family="sans-serif" font-size="13" lengthAdjust="spacing" textLength="20" x="1362.4229" y="1507.0534">0..*</text><text fill="#000000" font-family="sans-serif" font-size="13" lengthAdjust="spacing" textLength="7" x="1161.5875" y="910.4639">1</text></g><!--link RealEstate to Administrator--><g id="link_RealEstate_Administrator"><path codeLine="172" d="M108.3,174.1527 C135.48,142.9327 172.3,113.7627 215,113.7627 C215,113.7627 215,113.7627 842,113.7627 C942.87,113.7627 1061.33,113.7627 1123.8,113.7627 " fill="none" id="RealEstate-Administrator" style="stroke:#181818;stroke-width:1.0;"/><text fill="#000000" font-family="sans-serif" font-size="13" lengthAdjust="spacing" textLength="21" x="480" y="109.791">has</text><text fill="#000000" font-family="sans-serif" font-size="13" lengthAdjust="spacing" textLength="7" x="115.9359" y="178.9336">1</text><text fill="#000000" font-family="sans-serif" font-size="13" lengthAdjust="spacing" textLength="7" x="1109.1181" y="129.1991">1</text></g><!--link Owner to Proprietary--><g id="link_Owner_Proprietary"><path codeLine="173" d="M1209.71,328.1827 C1289.65,311.7127 1469.82,287.8627 1574,377.7627 C1655.63,448.2027 1692.27,769.3227 1705.4,924.0027 " fill="none" id="Owner-Proprietary" style="stroke:#181818;stroke-width:1.0;"/><text fill="#000000" font-family="sans-serif" font-size="13" lengthAdjust="spacing" textLength="21" x="1458" y="307.791">has</text><text fill="#000000" font-family="sans-serif" font-size="13" lengthAdjust="spacing" textLength="7" x="1217.3945" y="342.0296">1</text><text fill="#000000" font-family="sans-serif" font-size="13" lengthAdjust="spacing" textLength="20" x="1683.9305" y="913.1163">1..*</text></g><!--link NetWorkManager to StorePerformance--><g id="link_NetWorkManager_StorePerformance"><path codeLine="174" d="M400.47,447.5927 C432.4,482.0127 501.3,556.2927 549.38,608.1127 " fill="none" id="NetWorkManager-StorePerformance" style="stroke:#181818;stroke-width:1.0;"/><text fill="#000000" font-family="sans-serif" font-size="13" lengthAdjust="spacing" textLength="39" x="471" y="520.791">Makes</text><text fill="#000000" font-family="sans-serif" font-size="13" lengthAdjust="spacing" textLength="7" x="397.4932" y="469.056">1</text><text fill="#000000" font-family="sans-serif" font-size="13" lengthAdjust="spacing" textLength="20" x="521.3568" y="596.9337">0..*</text></g><!--link StorePerformance to Store--><g id="link_StorePerformance_Store"><path codeLine="175" d="M663.05,707.4627 C687.97,725.8327 717.07,747.5927 743,767.7627 C752.77,775.3627 763,783.5027 773,791.5527 " fill="none" id="StorePerformance-Store" style="stroke:#181818;stroke-width:1.0;"/><text fill="#000000" font-family="sans-serif" font-size="13" lengthAdjust="spacing" textLength="21" x="707.5" y="725.791">has</text><text fill="#000000" font-family="sans-serif" font-size="13" lengthAdjust="spacing" textLength="20" x="670.8211" y="727.2105">0..*</text><text fill="#000000" font-family="sans-serif" font-size="13" lengthAdjust="spacing" textLength="7" x="758.1797" y="800.4897">1</text></g><!--link Owenr to Employee--><g id="link_Owenr_Employee"><path codeLine="176" d="M864.66,981.1127 C910.17,975.1227 1015.06,957.8927 1094,918.7627 C1109.87,910.8927 1125.56,899.2127 1138.33,888.3827 " fill="none" id="Owenr-Employee" style="stroke:#181818;stroke-width:1.0;"/><text fill="#000000" font-family="sans-serif" font-size="13" lengthAdjust="spacing" textLength="153" x="940" y="914.791">Request listing Proprietary</text><text fill="#000000" font-family="sans-serif" font-size="13" lengthAdjust="spacing" textLength="7" x="872.6383" y="996.9578">1</text><text fill="#000000" font-family="sans-serif" font-size="13" lengthAdjust="spacing" textLength="20" x="1133.9178" y="910.3176">0..*</text></g><!--link Employee to Proprietary--><g id="link_Employee_Proprietary"><path codeLine="177" d="M1170.02,888.5627 C1172.45,995.8527 1185.13,1382.1627 1243,1487.7627 C1276.09,1548.1527 1298.14,1562.6427 1363,1585.7627 C1451.33,1617.2527 1500.41,1643.8927 1574,1585.7627 C1650.84,1525.0627 1689.34,1236.4327 1704.1,1091.3827 " fill="none" id="Employee-Proprietary" style="stroke:#181818;stroke-width:1.0;"/><text fill="#000000" font-family="sans-serif" font-size="13" lengthAdjust="spacing" textLength="110" x="1413.5" y="1581.791">creates Proprietary</text><text fill="#000000" font-family="sans-serif" font-size="13" lengthAdjust="spacing" textLength="7" x="1171.1181" y="910.537">1</text><text fill="#000000" font-family="sans-serif" font-size="13" lengthAdjust="spacing" textLength="20" x="1704.2375" y="1113.3414">0..*</text></g><!--SRC=[ZLPDZzis4BtpLn2v60ZW8Bdk8O2IAcc1NNjXE-rnGKjZYrsAL4XgdOtR_zuHAOca92FrmH3duytmyN4ayynbmpIhQQsaAYgjQg1Mjq3Cw6bOySpEiBUl0gY6mZ9v5d60gLYfBboUwOa90sGLN89BiAyDKALjfSXAmCbIgwZcvyhIadTmNCa8h13CcCnQpO-jXJyA9VVy9z3tfE8bq8Bh0ckxvneGiZJa5YOXAyijzloRgXcNz46L8D3eAj17mUn9wPfUoOhITGccqBnnYQj_2V51Es0YDvPPm32AFybgS0-iB3KOuvwZN6-umD5mwmERIadOjFKHj5i3zYBSqmkpaLseio9ZuS-2WxHO54tUihr8q5qNZrerceDb-XMTx6YiPeNrlD5lnWV5hSxQi-m7bQ5ol1NNNM9n_SVX3TQvA5tEYqUTJNiuy4RzchT26Ukf0Lc2lZig9O19PzAfQQ3bdido6dZBK4IsHkgknBUyFUsKgisu-iGiYZosV15AwR3yYYeyWo7vzvOth8CouH1-Lws1ARJRw0m-jlObOjDGfhF5fRhr9sQWMztHc00kAtP4LPMTLauJvxwL57uqohGQWcViEojVG5lkOVtHg4vFoySGL9-TCJuzcbH-7dvVL52s0ZnooNhfMxwam27fXUCTyHbUxVyd-LPxEp2jiDlJeO8_ErmQI1Wla4RzN6y8BpGGU8btkbGNHGTud4xRFRZjP3woOfM63TY_b7v6pNHNOL1_4jBxmZWOnaSyElpOs0moqqmYvuRSguA91oPHIphSWhveRx-cvHv1TtCF0R1omeJZFiqbBYNIKSqbxouzcWDkNZT2lGAONs1F6NJWeViKx4hwNQB7yRp3ypJ-07VR-_nfVzZkygU7R9DzpNV1lCkp-wTyVyWE-HDwDWVC7p3fcmzlrclyys2eaegPgAtWZm-Fn8i-v6qVqaFuvp5xh7StEjDqZ9aGJH9kGnKtqU_ePmqTWyb53bZnvFKDfMZhzJyV1oHk0XqJUzhIrElVGDuQcVjNrSm-OvM-V_SkRAXhqetJ8JFT0mACi_ncnAo4hp1detjBt4Jn-ue0Kf8T0dw_uFt_tW9EmOcO5bCUswFWfhkXFJt3KRtqqqalWuK0PYs-ySnYjM7UzhjpmuTwbzV3E98MvEav2Wfr0KcNFcB87xOzhn9XP4K1ZNKqQVWRFy2M6r-S59Z-m9uXP2JE6mLltTjKzpq_qG5_kA6GYVJZdgTJS-ntveXxZQV3zW9ItwA_vnS_bOtjlg7ZryuYXsdpXHiCoSSN-Gy0]--></g></svg>
