<?xml version="1.0" encoding="us-ascii" standalone="no"?><svg xmlns="http://www.w3.org/2000/svg" xmlns:xlink="http://www.w3.org/1999/xlink" contentStyleType="text/css" height="653px" preserveAspectRatio="none" style="width:629px;height:653px;background:#FFFFFF;" version="1.1" viewBox="0 0 629 653" width="629px" zoomAndPan="magnify"><defs/><g><rect fill="#FFFFFF" height="224.998" style="stroke:#181818;stroke-width:1.0;" width="10" x="56" y="93.6211"/><rect fill="#FFFFFF" height="202.377" style="stroke:#181818;stroke-width:1.0;" width="10" x="56" y="349.9102"/><rect fill="#FFFFFF" height="201.707" style="stroke:#181818;stroke-width:1.0;" width="10" x="307" y="116.9121"/><rect fill="#FFFFFF" height="202.377" style="stroke:#181818;stroke-width:1.0;" width="10" x="307" y="349.9102"/><rect fill="#FFFFFF" height="95.5039" style="stroke:#181818;stroke-width:1.0;" width="10" x="521" y="191.8242"/><rect fill="#FFFFFF" height="139.7949" style="stroke:#181818;stroke-width:1.0;" width="10" x="521" y="381.2012"/><line style="stroke:#181818;stroke-width:0.5;stroke-dasharray:5.0,5.0;" x1="61" x2="61" y1="83.6211" y2="570.2871"/><line style="stroke:#181818;stroke-width:0.5;stroke-dasharray:5.0,5.0;" x1="312" x2="312" y1="83.6211" y2="570.2871"/><line style="stroke:#181818;stroke-width:0.5;stroke-dasharray:5.0,5.0;" x1="526" x2="526" y1="156.7227" y2="570.2871"/><text fill="#000000" font-family="sans-serif" font-size="14" lengthAdjust="spacing" textLength="106" x="5" y="80.1074">NetworkManager</text><ellipse cx="61" cy="13.5" fill="#E3E3E3" rx="8" ry="8" style="stroke:#181818;stroke-width:0.5;"/><path d="M61,21.5 L61,48.5 M48,29.5 L74,29.5 M61,48.5 L48,63.5 M61,48.5 L74,63.5 " fill="none" style="stroke:#181818;stroke-width:0.5;"/><text fill="#000000" font-family="sans-serif" font-size="14" lengthAdjust="spacing" textLength="106" x="5" y="584.3945">NetworkManager</text><ellipse cx="61" cy="596.4082" fill="#E3E3E3" rx="8" ry="8" style="stroke:#181818;stroke-width:0.5;"/><path d="M61,604.4082 L61,631.4082 M48,612.4082 L74,612.4082 M61,631.4082 L48,646.4082 M61,631.4082 L74,646.4082 " fill="none" style="stroke:#181818;stroke-width:0.5;"/><rect fill="#E3E3E3" height="32.6211" rx="2.5" ry="2.5" style="stroke:#181818;stroke-width:0.5;" width="88" x="268" y="50"/><text fill="#000000" font-family="sans-serif" font-size="14" lengthAdjust="spacing" textLength="74" x="275" y="72.1074">:ListDealsUI</text><rect fill="#E3E3E3" height="32.6211" rx="2.5" ry="2.5" style="stroke:#181818;stroke-width:0.5;" width="88" x="268" y="569.2871"/><text fill="#000000" font-family="sans-serif" font-size="14" lengthAdjust="spacing" textLength="74" x="275" y="591.3945">:ListDealsUI</text><rect fill="#E3E3E3" height="32.6211" rx="2.5" ry="2.5" style="stroke:#181818;stroke-width:0.5;" width="138" x="457" y="569.2871"/><text fill="#000000" font-family="sans-serif" font-size="14" lengthAdjust="spacing" textLength="124" x="464" y="591.3945">:ListDealsController</text><rect fill="#FFFFFF" height="224.998" style="stroke:#181818;stroke-width:1.0;" width="10" x="56" y="93.6211"/><rect fill="#FFFFFF" height="202.377" style="stroke:#181818;stroke-width:1.0;" width="10" x="56" y="349.9102"/><rect fill="#FFFFFF" height="201.707" style="stroke:#181818;stroke-width:1.0;" width="10" x="307" y="116.9121"/><rect fill="#FFFFFF" height="202.377" style="stroke:#181818;stroke-width:1.0;" width="10" x="307" y="349.9102"/><rect fill="#FFFFFF" height="95.5039" style="stroke:#181818;stroke-width:1.0;" width="10" x="521" y="191.8242"/><rect fill="#FFFFFF" height="139.7949" style="stroke:#181818;stroke-width:1.0;" width="10" x="521" y="381.2012"/><polygon fill="#181818" points="295,112.9121,305,116.9121,295,120.9121,299,116.9121" style="stroke:#181818;stroke-width:1.0;"/><line style="stroke:#181818;stroke-width:1.0;" x1="66" x2="301" y1="116.9121" y2="116.9121"/><text fill="#000000" font-family="sans-serif" font-size="13" font-weight="bold" lengthAdjust="spacing" textLength="7" x="73" y="111.6494">1</text><text fill="#000000" font-family="sans-serif" font-size="13" lengthAdjust="spacing" textLength="152" x="84" y="111.6494">Ask List of all Deals made</text><polygon fill="#181818" points="445,144.2031,455,148.2031,445,152.2031,449,148.2031" style="stroke:#181818;stroke-width:1.0;"/><line style="stroke:#181818;stroke-width:1.0;" x1="317" x2="451" y1="148.2031" y2="148.2031"/><text fill="#000000" font-family="sans-serif" font-size="13" font-weight="bold" lengthAdjust="spacing" textLength="7" x="324" y="142.9404">2</text><text fill="#000000" font-family="sans-serif" font-size="13" lengthAdjust="spacing" textLength="36" x="335" y="142.9404">create</text><rect fill="#E3E3E3" height="32.6211" rx="2.5" ry="2.5" style="stroke:#181818;stroke-width:0.5;" width="138" x="457" y="124.9121"/><text fill="#000000" font-family="sans-serif" font-size="14" lengthAdjust="spacing" textLength="124" x="464" y="147.0195">:ListDealsController</text><polygon fill="#181818" points="509,187.8242,519,191.8242,509,195.8242,513,191.8242" style="stroke:#181818;stroke-width:1.0;"/><line style="stroke:#181818;stroke-width:1.0;" x1="317" x2="515" y1="191.8242" y2="191.8242"/><text fill="#000000" font-family="sans-serif" font-size="13" font-weight="bold" lengthAdjust="spacing" textLength="7" x="324" y="186.5615">3</text><text fill="#000000" font-family="sans-serif" font-size="13" lengthAdjust="spacing" textLength="83" x="335" y="186.5615">getOrdersDTO</text><rect fill="none" height="59.2129" style="stroke:#000000;stroke-width:1.5;" width="144" x="454" y="199.8242"/><path d="M454,199.8242 L516,199.8242 L516,208.8242 L506,218.8242 L454,218.8242 L454,199.8242 " fill="#EEEEEE" style="stroke:#000000;stroke-width:2.0;"/><text fill="#000000" font-family="sans-serif" font-size="13" font-weight="bold" lengthAdjust="spacing" textLength="17" x="467" y="215.8525">ref</text><text fill="#000000" font-family="sans-serif" font-size="12" lengthAdjust="spacing" textLength="92" x="480" y="235.7734">Get list of Orders</text><text fill="#000000" font-family="sans-serif" font-size="12" lengthAdjust="spacing" textLength="3" x="524.5" y="251.7344">&#160;</text><polygon fill="#181818" points="328,283.3281,318,287.3281,328,291.3281,324,287.3281" style="stroke:#181818;stroke-width:1.0;"/><line style="stroke:#181818;stroke-width:1.0;stroke-dasharray:2.0,2.0;" x1="322" x2="525" y1="287.3281" y2="287.3281"/><text fill="#000000" font-family="sans-serif" font-size="13" font-weight="bold" lengthAdjust="spacing" textLength="7" x="334" y="282.0654">4</text><text fill="#000000" font-family="sans-serif" font-size="13" lengthAdjust="spacing" textLength="60" x="345" y="282.0654">OrdersList</text><polygon fill="#181818" points="72,314.6191,62,318.6191,72,322.6191,68,318.6191" style="stroke:#181818;stroke-width:1.0;"/><line style="stroke:#181818;stroke-width:1.0;stroke-dasharray:2.0,2.0;" x1="66" x2="311" y1="318.6191" y2="318.6191"/><text fill="#000000" font-family="sans-serif" font-size="13" font-weight="bold" lengthAdjust="spacing" textLength="7" x="78" y="313.3564">5</text><text fill="#000000" font-family="sans-serif" font-size="13" lengthAdjust="spacing" textLength="127" x="89" y="313.3564">Displays Sort Options</text><polygon fill="#181818" points="295,345.9102,305,349.9102,295,353.9102,299,349.9102" style="stroke:#181818;stroke-width:1.0;"/><line style="stroke:#181818;stroke-width:1.0;" x1="66" x2="301" y1="349.9102" y2="349.9102"/><text fill="#000000" font-family="sans-serif" font-size="13" font-weight="bold" lengthAdjust="spacing" textLength="7" x="73" y="344.6475">6</text><text fill="#000000" font-family="sans-serif" font-size="13" lengthAdjust="spacing" textLength="133" x="84" y="344.6475">User selects an Option</text><polygon fill="#181818" points="509,377.2012,519,381.2012,509,385.2012,513,381.2012" style="stroke:#181818;stroke-width:1.0;"/><line style="stroke:#181818;stroke-width:1.0;" x1="317" x2="515" y1="381.2012" y2="381.2012"/><text fill="#000000" font-family="sans-serif" font-size="13" font-weight="bold" lengthAdjust="spacing" textLength="7" x="324" y="375.9385">7</text><text fill="#000000" font-family="sans-serif" font-size="13" lengthAdjust="spacing" textLength="71" x="335" y="375.9385">getAreaDTO</text><rect fill="none" height="59.2129" style="stroke:#000000;stroke-width:1.5;" width="144" x="454" y="389.2012"/><path d="M454,389.2012 L516,389.2012 L516,398.2012 L506,408.2012 L454,408.2012 L454,389.2012 " fill="#EEEEEE" style="stroke:#000000;stroke-width:2.0;"/><text fill="#000000" font-family="sans-serif" font-size="13" font-weight="bold" lengthAdjust="spacing" textLength="17" x="467" y="405.2295">ref</text><text fill="#000000" font-family="sans-serif" font-size="12" lengthAdjust="spacing" textLength="47" x="502.5" y="425.1504">Get Area</text><text fill="#000000" font-family="sans-serif" font-size="12" lengthAdjust="spacing" textLength="3" x="524.5" y="441.1113">&#160;</text><line style="stroke:#181818;stroke-width:1.0;stroke-dasharray:2.0,2.0;" x1="531" x2="573" y1="476.7051" y2="476.7051"/><line style="stroke:#181818;stroke-width:1.0;stroke-dasharray:2.0,2.0;" x1="573" x2="573" y1="476.7051" y2="489.7051"/><line style="stroke:#181818;stroke-width:1.0;stroke-dasharray:2.0,2.0;" x1="532" x2="573" y1="489.7051" y2="489.7051"/><polygon fill="#181818" points="542,485.7051,532,489.7051,542,493.7051,538,489.7051" style="stroke:#181818;stroke-width:1.0;"/><text fill="#000000" font-family="sans-serif" font-size="13" font-weight="bold" lengthAdjust="spacing" textLength="7" x="538" y="471.4424">8</text><text fill="#000000" font-family="sans-serif" font-size="13" lengthAdjust="spacing" textLength="73" x="549" y="471.4424">Sort by Area</text><polygon fill="#181818" points="328,516.9961,318,520.9961,328,524.9961,324,520.9961" style="stroke:#181818;stroke-width:1.0;"/><line style="stroke:#181818;stroke-width:1.0;stroke-dasharray:2.0,2.0;" x1="322" x2="525" y1="520.9961" y2="520.9961"/><text fill="#000000" font-family="sans-serif" font-size="13" font-weight="bold" lengthAdjust="spacing" textLength="7" x="334" y="515.7334">9</text><text fill="#000000" font-family="sans-serif" font-size="13" lengthAdjust="spacing" textLength="169" x="345" y="515.7334">List of Orders Sorted by Area</text><polygon fill="#181818" points="72,548.2871,62,552.2871,72,556.2871,68,552.2871" style="stroke:#181818;stroke-width:1.0;"/><line style="stroke:#181818;stroke-width:1.0;stroke-dasharray:2.0,2.0;" x1="66" x2="311" y1="552.2871" y2="552.2871"/><text fill="#000000" font-family="sans-serif" font-size="13" font-weight="bold" lengthAdjust="spacing" textLength="14" x="78" y="547.0244">10</text><text fill="#000000" font-family="sans-serif" font-size="13" lengthAdjust="spacing" textLength="199" x="96" y="547.0244">Displays DealsList Sorted by Area</text><!--SRC=[XP9DRi8m48NtFiM8JIKaBf159GHIXKIBLE00Gp89LlmJsGRAxJjE80aaj5vPutcVFU_Pbz9Kw523jiQcHsSrGN0d4huzgJ0jiQ1jk2e2Hsb0KwX-WpzYPY_I592ZyYG4de8r9tqW9yJRKMO4kRNXO7y4fi4wc7nHk5XNVg9Xi9i0UZ1QC2t8L5Pe0aoIjVHXIGpSh-g6_UfLmyAQuAnIDz9YzxqM8bubpnWeaWNmCXfcxuo1163kIuXwi3cWKb1pG6D6JMyhvblhGbmiPK34JwSCIHrnnyWfdnKKDYuZvvUxJGTmb8CzaskU2BtrGG7KxJsDi5EHoQAoAxIFQoRjS-hhP_Sn6rASistAw4dzg8z3i9gjIc0fVQNmwc5hNO1D5QGrNWmvRD6mE6BwtlFadXJ_80zeRiJXL2mTrFenZ9azvooYrVsUFsnw7SGzZ0XyrDnZ65WTDqbZqk7Q24VYIDh_rgHI2oWRI9u3wYPcZj6zMEe_MqF_HtKPFORq2m00]--></g></svg>