<?xml version="1.0" encoding="us-ascii" standalone="no"?><svg xmlns="http://www.w3.org/2000/svg" xmlns:xlink="http://www.w3.org/1999/xlink" contentStyleType="text/css" height="1897px" preserveAspectRatio="none" style="width:2031px;height:1897px;background:#FFFFFF;" version="1.1" viewBox="0 0 2031 1897" width="2031px" zoomAndPan="magnify"><defs/><g><rect fill="#FFFFFF" height="571.5684" style="stroke:#181818;stroke-width:1.0;" width="10" x="83" y="93.6211"/><rect fill="#FFFFFF" height="510.6563" style="stroke:#181818;stroke-width:1.0;" width="10" x="83" y="722.7715"/><rect fill="#FFFFFF" height="484.3652" style="stroke:#181818;stroke-width:1.0;" width="10" x="83" y="1298.0098"/><rect fill="#FFFFFF" height="548.2773" style="stroke:#181818;stroke-width:1.0;" width="10" x="334" y="116.9121"/><rect fill="#FFFFFF" height="510.6563" style="stroke:#181818;stroke-width:1.0;" width="10" x="334" y="722.7715"/><rect fill="#FFFFFF" height="484.3652" style="stroke:#181818;stroke-width:1.0;" width="10" x="334" y="1298.0098"/><rect fill="#FFFFFF" height="410.7832" style="stroke:#181818;stroke-width:1.0;" width="10" x="555" y="191.8242"/><rect fill="#FFFFFF" height="421.7832" style="stroke:#181818;stroke-width:1.0;" width="10" x="555" y="780.3535"/><rect fill="#FFFFFF" height="421.7832" style="stroke:#181818;stroke-width:1.0;" width="10" x="555" y="1329.3008"/><rect fill="#FFFFFF" height="189.7461" style="stroke:#181818;stroke-width:1.0;" width="10" x="704" y="936.8086"/><rect fill="#FFFFFF" height="189.7461" style="stroke:#181818;stroke-width:1.0;" width="10" x="704" y="1485.7559"/><rect fill="#FFFFFF" height="189.7461" style="stroke:#181818;stroke-width:1.0;" width="10" x="845.5" y="374.5703"/><rect fill="#FFFFFF" height="31.291" style="stroke:#181818;stroke-width:1.0;" width="10" x="965.5" y="249.4063"/><rect fill="#FFFFFF" height="31.291" style="stroke:#181818;stroke-width:1.0;" width="10" x="965.5" y="811.6445"/><rect fill="#FFFFFF" height="31.291" style="stroke:#181818;stroke-width:1.0;" width="10" x="965.5" y="1360.5918"/><rect fill="#FFFFFF" height="31.291" style="stroke:#181818;stroke-width:1.0;" width="10" x="1072.5" y="311.9883"/><rect fill="#FFFFFF" height="31.291" style="stroke:#181818;stroke-width:1.0;" width="10" x="1072.5" y="874.2266"/><rect fill="#FFFFFF" height="31.291" style="stroke:#181818;stroke-width:1.0;" width="10" x="1072.5" y="1423.1738"/><rect fill="#FFFFFF" height="93.873" style="stroke:#181818;stroke-width:1.0;" width="10" x="1292" y="432.1523"/><rect fill="#FFFFFF" height="31.291" style="stroke:#181818;stroke-width:1.0;" width="10" x="1476" y="463.4434"/><rect fill="#FFFFFF" height="93.873" style="stroke:#181818;stroke-width:1.0;" width="10" x="1677" y="994.3906"/><rect fill="#FFFFFF" height="93.873" style="stroke:#181818;stroke-width:1.0;" width="10" x="1677" y="1543.3379"/><rect fill="#FFFFFF" height="31.291" style="stroke:#181818;stroke-width:1.0;" width="10" x="1895" y="1025.6816"/><rect fill="#FFFFFF" height="31.291" style="stroke:#181818;stroke-width:1.0;" width="10" x="1895" y="1574.6289"/><rect fill="none" height="365.4922" style="stroke:#000000;stroke-width:1.5;" width="1098" x="481" y="206.8242"/><rect fill="none" height="144.4551" style="stroke:#000000;stroke-width:1.5;" width="790" x="779" y="389.5703"/><rect fill="none" height="1117.1855" style="stroke:#000000;stroke-width:1.5;" width="2015" x="10" y="680.1895"/><rect fill="none" height="503.6563" style="stroke:#000000;stroke-width:1.5;" width="1995" x="20" y="737.7715"/><rect fill="none" height="144.4551" style="stroke:#000000;stroke-width:1.5;" width="1376" x="629" y="951.8086"/><rect fill="none" height="534.9473" style="stroke:#000000;stroke-width:1.5;" width="1995" x="20" y="1255.4277"/><rect fill="none" height="144.4551" style="stroke:#000000;stroke-width:1.5;" width="1376" x="629" y="1500.7559"/><line style="stroke:#181818;stroke-width:0.5;stroke-dasharray:5.0,5.0;" x1="88" x2="88" y1="83.6211" y2="1814.375"/><line style="stroke:#181818;stroke-width:0.5;stroke-dasharray:5.0,5.0;" x1="339" x2="339" y1="83.6211" y2="1814.375"/><line style="stroke:#181818;stroke-width:0.5;stroke-dasharray:5.0,5.0;" x1="560" x2="560" y1="156.7227" y2="1814.375"/><line style="stroke:#181818;stroke-width:0.5;stroke-dasharray:5.0,5.0;" x1="709" x2="709" y1="83.6211" y2="1814.375"/><line style="stroke:#181818;stroke-width:0.5;stroke-dasharray:5.0,5.0;" x1="850" x2="850" y1="83.6211" y2="1814.375"/><line style="stroke:#181818;stroke-width:0.5;stroke-dasharray:5.0,5.0;" x1="970" x2="970" y1="83.6211" y2="1814.375"/><line style="stroke:#181818;stroke-width:0.5;stroke-dasharray:5.0,5.0;" x1="1077" x2="1077" y1="83.6211" y2="1814.375"/><line style="stroke:#181818;stroke-width:0.5;stroke-dasharray:5.0,5.0;" x1="1163" x2="1163" y1="83.6211" y2="1814.375"/><line style="stroke:#181818;stroke-width:0.5;stroke-dasharray:5.0,5.0;" x1="1297" x2="1297" y1="83.6211" y2="1814.375"/><line style="stroke:#181818;stroke-width:0.5;stroke-dasharray:5.0,5.0;" x1="1481" x2="1481" y1="83.6211" y2="1814.375"/><line style="stroke:#181818;stroke-width:0.5;stroke-dasharray:5.0,5.0;" x1="1682" x2="1682" y1="83.6211" y2="1814.375"/><line style="stroke:#181818;stroke-width:0.5;stroke-dasharray:5.0,5.0;" x1="1900" x2="1900" y1="83.6211" y2="1814.375"/><text fill="#000000" font-family="sans-serif" font-size="14" lengthAdjust="spacing" textLength="110" x="30" y="80.1074">NetWorkManager</text><ellipse cx="88" cy="13.5" fill="#E3E3E3" rx="8" ry="8" style="stroke:#181818;stroke-width:0.5;"/><path d="M88,21.5 L88,48.5 M75,29.5 L101,29.5 M88,48.5 L75,63.5 M88,48.5 L101,63.5 " fill="none" style="stroke:#181818;stroke-width:0.5;"/><text fill="#000000" font-family="sans-serif" font-size="14" lengthAdjust="spacing" textLength="110" x="30" y="1828.4824">NetWorkManager</text><ellipse cx="88" cy="1840.4961" fill="#E3E3E3" rx="8" ry="8" style="stroke:#181818;stroke-width:0.5;"/><path d="M88,1848.4961 L88,1875.4961 M75,1856.4961 L101,1856.4961 M88,1875.4961 L75,1890.4961 M88,1875.4961 L101,1890.4961 " fill="none" style="stroke:#181818;stroke-width:0.5;"/><rect fill="#E3E3E3" height="32.6211" rx="2.5" ry="2.5" style="stroke:#181818;stroke-width:0.5;" width="88" x="295" y="50"/><text fill="#000000" font-family="sans-serif" font-size="14" lengthAdjust="spacing" textLength="74" x="302" y="72.1074">:ListDealsUI</text><rect fill="#E3E3E3" height="32.6211" rx="2.5" ry="2.5" style="stroke:#181818;stroke-width:0.5;" width="88" x="295" y="1813.375"/><text fill="#000000" font-family="sans-serif" font-size="14" lengthAdjust="spacing" textLength="74" x="302" y="1835.4824">:ListDealsUI</text><rect fill="#E3E3E3" height="32.6211" rx="2.5" ry="2.5" style="stroke:#181818;stroke-width:0.5;" width="138" x="491" y="1813.375"/><text fill="#000000" font-family="sans-serif" font-size="14" lengthAdjust="spacing" textLength="124" x="498" y="1835.4824">:ListDealsController</text><rect fill="#E3E3E3" height="51.2422" rx="2.5" ry="2.5" style="stroke:#181818;stroke-width:0.5;" width="140" x="639" y="31.3789"/><text fill="#000000" font-family="sans-serif" font-size="14" lengthAdjust="spacing" textLength="122" x="648" y="53.4863">PropertyRepository</text><text fill="#000000" font-family="sans-serif" font-size="14" lengthAdjust="spacing" textLength="126" x="646" y="72.1074">:PropertyRepository</text><rect fill="#E3E3E3" height="51.2422" rx="2.5" ry="2.5" style="stroke:#181818;stroke-width:0.5;" width="140" x="639" y="1813.375"/><text fill="#000000" font-family="sans-serif" font-size="14" lengthAdjust="spacing" textLength="122" x="648" y="1835.4824">PropertyRepository</text><text fill="#000000" font-family="sans-serif" font-size="14" lengthAdjust="spacing" textLength="126" x="646" y="1854.1035">:PropertyRepository</text><rect fill="#E3E3E3" height="51.2422" rx="2.5" ry="2.5" style="stroke:#181818;stroke-width:0.5;" width="123" x="789" y="31.3789"/><text fill="#000000" font-family="sans-serif" font-size="14" lengthAdjust="spacing" textLength="105" x="798" y="53.4863">OrderRepository</text><text fill="#000000" font-family="sans-serif" font-size="14" lengthAdjust="spacing" textLength="109" x="796" y="72.1074">:OrderRepository</text><rect fill="#E3E3E3" height="51.2422" rx="2.5" ry="2.5" style="stroke:#181818;stroke-width:0.5;" width="123" x="789" y="1813.375"/><text fill="#000000" font-family="sans-serif" font-size="14" lengthAdjust="spacing" textLength="105" x="798" y="1835.4824">OrderRepository</text><text fill="#000000" font-family="sans-serif" font-size="14" lengthAdjust="spacing" textLength="109" x="796" y="1854.1035">:OrderRepository</text><rect fill="#E3E3E3" height="32.6211" rx="2.5" ry="2.5" style="stroke:#181818;stroke-width:0.5;" width="97" x="922" y="50"/><text fill="#000000" font-family="sans-serif" font-size="14" lengthAdjust="spacing" textLength="83" x="929" y="72.1074">:Repositories</text><rect fill="#E3E3E3" height="32.6211" rx="2.5" ry="2.5" style="stroke:#181818;stroke-width:0.5;" width="97" x="922" y="1813.375"/><text fill="#000000" font-family="sans-serif" font-size="14" lengthAdjust="spacing" textLength="83" x="929" y="1835.4824">:Repositories</text><rect fill="#E3E3E3" height="51.2422" rx="2.5" ry="2.5" style="stroke:#181818;stroke-width:0.5;" width="97" x="1029" y="31.3789"/><text fill="#000000" font-family="sans-serif" font-size="14" lengthAdjust="spacing" textLength="74" x="1040.5" y="53.4863">repositories</text><text fill="#000000" font-family="sans-serif" font-size="14" lengthAdjust="spacing" textLength="83" x="1036" y="72.1074">:Repositories</text><rect fill="#E3E3E3" height="51.2422" rx="2.5" ry="2.5" style="stroke:#181818;stroke-width:0.5;" width="97" x="1029" y="1813.375"/><text fill="#000000" font-family="sans-serif" font-size="14" lengthAdjust="spacing" textLength="74" x="1040.5" y="1835.4824">repositories</text><text fill="#000000" font-family="sans-serif" font-size="14" lengthAdjust="spacing" textLength="83" x="1036" y="1854.1035">:Repositories</text><rect fill="#E3E3E3" height="51.2422" rx="2.5" ry="2.5" style="stroke:#181818;stroke-width:0.5;" width="55" x="1136" y="31.3789"/><text fill="#000000" font-family="sans-serif" font-size="14" lengthAdjust="spacing" textLength="37" x="1145" y="53.4863">Order</text><text fill="#000000" font-family="sans-serif" font-size="14" lengthAdjust="spacing" textLength="41" x="1143" y="72.1074">:Order</text><rect fill="#E3E3E3" height="51.2422" rx="2.5" ry="2.5" style="stroke:#181818;stroke-width:0.5;" width="55" x="1136" y="1813.375"/><text fill="#000000" font-family="sans-serif" font-size="14" lengthAdjust="spacing" textLength="37" x="1145" y="1835.4824">Order</text><text fill="#000000" font-family="sans-serif" font-size="14" lengthAdjust="spacing" textLength="41" x="1143" y="1854.1035">:Order</text><rect fill="#E3E3E3" height="32.6211" rx="2.5" ry="2.5" style="stroke:#181818;stroke-width:0.5;" width="192" x="1201" y="50"/><text fill="#000000" font-family="sans-serif" font-size="14" lengthAdjust="spacing" textLength="178" x="1208" y="72.1074">OrderMapper:\OrderMapper</text><rect fill="#E3E3E3" height="32.6211" rx="2.5" ry="2.5" style="stroke:#181818;stroke-width:0.5;" width="192" x="1201" y="1813.375"/><text fill="#000000" font-family="sans-serif" font-size="14" lengthAdjust="spacing" textLength="178" x="1208" y="1835.4824">OrderMapper:\OrderMapper</text><rect fill="#E3E3E3" height="32.6211" rx="2.5" ry="2.5" style="stroke:#181818;stroke-width:0.5;" width="156" x="1403" y="50"/><text fill="#000000" font-family="sans-serif" font-size="14" lengthAdjust="spacing" textLength="142" x="1410" y="72.1074">OrderDTO:\OrderDTO</text><rect fill="#E3E3E3" height="32.6211" rx="2.5" ry="2.5" style="stroke:#181818;stroke-width:0.5;" width="156" x="1403" y="1813.375"/><text fill="#000000" font-family="sans-serif" font-size="14" lengthAdjust="spacing" textLength="142" x="1410" y="1835.4824">OrderDTO:\OrderDTO</text><rect fill="#E3E3E3" height="32.6211" rx="2.5" ry="2.5" style="stroke:#181818;stroke-width:0.5;" width="226" x="1569" y="50"/><text fill="#000000" font-family="sans-serif" font-size="14" lengthAdjust="spacing" textLength="212" x="1576" y="72.1074">PropertyMapper:\PropertyMapper</text><rect fill="#E3E3E3" height="32.6211" rx="2.5" ry="2.5" style="stroke:#181818;stroke-width:0.5;" width="226" x="1569" y="1813.375"/><text fill="#000000" font-family="sans-serif" font-size="14" lengthAdjust="spacing" textLength="212" x="1576" y="1835.4824">PropertyMapper:\PropertyMapper</text><rect fill="#E3E3E3" height="32.6211" rx="2.5" ry="2.5" style="stroke:#181818;stroke-width:0.5;" width="190" x="1805" y="50"/><text fill="#000000" font-family="sans-serif" font-size="14" lengthAdjust="spacing" textLength="176" x="1812" y="72.1074">PropertyDTO:\PropertyDTO</text><rect fill="#E3E3E3" height="32.6211" rx="2.5" ry="2.5" style="stroke:#181818;stroke-width:0.5;" width="190" x="1805" y="1813.375"/><text fill="#000000" font-family="sans-serif" font-size="14" lengthAdjust="spacing" textLength="176" x="1812" y="1835.4824">PropertyDTO:\PropertyDTO</text><rect fill="#FFFFFF" height="571.5684" style="stroke:#181818;stroke-width:1.0;" width="10" x="83" y="93.6211"/><rect fill="#FFFFFF" height="510.6563" style="stroke:#181818;stroke-width:1.0;" width="10" x="83" y="722.7715"/><rect fill="#FFFFFF" height="484.3652" style="stroke:#181818;stroke-width:1.0;" width="10" x="83" y="1298.0098"/><rect fill="#FFFFFF" height="548.2773" style="stroke:#181818;stroke-width:1.0;" width="10" x="334" y="116.9121"/><rect fill="#FFFFFF" height="510.6563" style="stroke:#181818;stroke-width:1.0;" width="10" x="334" y="722.7715"/><rect fill="#FFFFFF" height="484.3652" style="stroke:#181818;stroke-width:1.0;" width="10" x="334" y="1298.0098"/><rect fill="#FFFFFF" height="410.7832" style="stroke:#181818;stroke-width:1.0;" width="10" x="555" y="191.8242"/><rect fill="#FFFFFF" height="421.7832" style="stroke:#181818;stroke-width:1.0;" width="10" x="555" y="780.3535"/><rect fill="#FFFFFF" height="421.7832" style="stroke:#181818;stroke-width:1.0;" width="10" x="555" y="1329.3008"/><rect fill="#FFFFFF" height="189.7461" style="stroke:#181818;stroke-width:1.0;" width="10" x="704" y="936.8086"/><rect fill="#FFFFFF" height="189.7461" style="stroke:#181818;stroke-width:1.0;" width="10" x="704" y="1485.7559"/><rect fill="#FFFFFF" height="189.7461" style="stroke:#181818;stroke-width:1.0;" width="10" x="845.5" y="374.5703"/><rect fill="#FFFFFF" height="31.291" style="stroke:#181818;stroke-width:1.0;" width="10" x="965.5" y="249.4063"/><rect fill="#FFFFFF" height="31.291" style="stroke:#181818;stroke-width:1.0;" width="10" x="965.5" y="811.6445"/><rect fill="#FFFFFF" height="31.291" style="stroke:#181818;stroke-width:1.0;" width="10" x="965.5" y="1360.5918"/><rect fill="#FFFFFF" height="31.291" style="stroke:#181818;stroke-width:1.0;" width="10" x="1072.5" y="311.9883"/><rect fill="#FFFFFF" height="31.291" style="stroke:#181818;stroke-width:1.0;" width="10" x="1072.5" y="874.2266"/><rect fill="#FFFFFF" height="31.291" style="stroke:#181818;stroke-width:1.0;" width="10" x="1072.5" y="1423.1738"/><rect fill="#FFFFFF" height="93.873" style="stroke:#181818;stroke-width:1.0;" width="10" x="1292" y="432.1523"/><rect fill="#FFFFFF" height="31.291" style="stroke:#181818;stroke-width:1.0;" width="10" x="1476" y="463.4434"/><rect fill="#FFFFFF" height="93.873" style="stroke:#181818;stroke-width:1.0;" width="10" x="1677" y="994.3906"/><rect fill="#FFFFFF" height="93.873" style="stroke:#181818;stroke-width:1.0;" width="10" x="1677" y="1543.3379"/><rect fill="#FFFFFF" height="31.291" style="stroke:#181818;stroke-width:1.0;" width="10" x="1895" y="1025.6816"/><rect fill="#FFFFFF" height="31.291" style="stroke:#181818;stroke-width:1.0;" width="10" x="1895" y="1574.6289"/><polygon fill="#181818" points="322,112.9121,332,116.9121,322,120.9121,326,116.9121" style="stroke:#181818;stroke-width:1.0;"/><line style="stroke:#181818;stroke-width:1.0;" x1="93" x2="328" y1="116.9121" y2="116.9121"/><text fill="#000000" font-family="sans-serif" font-size="13" font-weight="bold" lengthAdjust="spacing" textLength="7" x="100" y="111.6494">1</text><text fill="#000000" font-family="sans-serif" font-size="13" lengthAdjust="spacing" textLength="152" x="111" y="111.6494">Ask List of all Deals made</text><polygon fill="#181818" points="479,144.2031,489,148.2031,479,152.2031,483,148.2031" style="stroke:#181818;stroke-width:1.0;"/><line style="stroke:#181818;stroke-width:1.0;" x1="344" x2="485" y1="148.2031" y2="148.2031"/><text fill="#000000" font-family="sans-serif" font-size="13" font-weight="bold" lengthAdjust="spacing" textLength="7" x="351" y="142.9404">2</text><text fill="#000000" font-family="sans-serif" font-size="13" lengthAdjust="spacing" textLength="36" x="362" y="142.9404">create</text><rect fill="#E3E3E3" height="32.6211" rx="2.5" ry="2.5" style="stroke:#181818;stroke-width:0.5;" width="138" x="491" y="124.9121"/><text fill="#000000" font-family="sans-serif" font-size="14" lengthAdjust="spacing" textLength="124" x="498" y="147.0195">:ListDealsController</text><polygon fill="#181818" points="543,187.8242,553,191.8242,543,195.8242,547,191.8242" style="stroke:#181818;stroke-width:1.0;"/><line style="stroke:#181818;stroke-width:1.0;" x1="344" x2="549" y1="191.8242" y2="191.8242"/><text fill="#000000" font-family="sans-serif" font-size="13" font-weight="bold" lengthAdjust="spacing" textLength="7" x="351" y="186.5615">3</text><text fill="#000000" font-family="sans-serif" font-size="13" lengthAdjust="spacing" textLength="75" x="362" y="186.5615">Get all Deals</text><path d="M481,206.8242 L613,206.8242 L613,216.1152 L603,226.1152 L481,226.1152 L481,206.8242 " fill="#EEEEEE" style="stroke:#000000;stroke-width:1.5;"/><rect fill="none" height="365.4922" style="stroke:#000000;stroke-width:1.5;" width="1098" x="481" y="206.8242"/><text fill="#000000" font-family="sans-serif" font-size="13" font-weight="bold" lengthAdjust="spacing" textLength="87" x="496" y="221.8525">Get Deals List</text><polygon fill="#181818" points="953.5,245.4063,963.5,249.4063,953.5,253.4063,957.5,249.4063" style="stroke:#181818;stroke-width:1.0;"/><line style="stroke:#181818;stroke-width:1.0;" x1="565" x2="959.5" y1="249.4063" y2="249.4063"/><text fill="#000000" font-family="sans-serif" font-size="13" font-weight="bold" lengthAdjust="spacing" textLength="7" x="572" y="244.1436">4</text><text fill="#000000" font-family="sans-serif" font-size="13" lengthAdjust="spacing" textLength="75" x="583" y="244.1436">getInstance()</text><polygon fill="#181818" points="576,276.6973,566,280.6973,576,284.6973,572,280.6973" style="stroke:#181818;stroke-width:1.0;"/><line style="stroke:#181818;stroke-width:1.0;stroke-dasharray:2.0,2.0;" x1="570" x2="969.5" y1="280.6973" y2="280.6973"/><text fill="#000000" font-family="sans-serif" font-size="13" font-weight="bold" lengthAdjust="spacing" textLength="7" x="582" y="275.4346">5</text><text fill="#000000" font-family="sans-serif" font-size="13" lengthAdjust="spacing" textLength="67" x="593" y="275.4346">repositories</text><polygon fill="#181818" points="1060.5,307.9883,1070.5,311.9883,1060.5,315.9883,1064.5,311.9883" style="stroke:#181818;stroke-width:1.0;"/><line style="stroke:#181818;stroke-width:1.0;" x1="565" x2="1066.5" y1="311.9883" y2="311.9883"/><text fill="#000000" font-family="sans-serif" font-size="13" font-weight="bold" lengthAdjust="spacing" textLength="7" x="572" y="306.7256">6</text><text fill="#000000" font-family="sans-serif" font-size="13" lengthAdjust="spacing" textLength="120" x="583" y="306.7256">getOrderRepository()</text><polygon fill="#181818" points="576,339.2793,566,343.2793,576,347.2793,572,343.2793" style="stroke:#181818;stroke-width:1.0;"/><line style="stroke:#181818;stroke-width:1.0;stroke-dasharray:2.0,2.0;" x1="570" x2="1076.5" y1="343.2793" y2="343.2793"/><text fill="#000000" font-family="sans-serif" font-size="13" font-weight="bold" lengthAdjust="spacing" textLength="7" x="582" y="338.0166">7</text><text fill="#000000" font-family="sans-serif" font-size="13" lengthAdjust="spacing" textLength="94" x="593" y="338.0166">OrderRepository</text><polygon fill="#181818" points="833.5,370.5703,843.5,374.5703,833.5,378.5703,837.5,374.5703" style="stroke:#181818;stroke-width:1.0;"/><line style="stroke:#181818;stroke-width:1.0;" x1="565" x2="839.5" y1="374.5703" y2="374.5703"/><text fill="#000000" font-family="sans-serif" font-size="13" font-weight="bold" lengthAdjust="spacing" textLength="7" x="572" y="369.3076">8</text><text fill="#000000" font-family="sans-serif" font-size="13" lengthAdjust="spacing" textLength="91" x="583" y="369.3076">getOrdersDTO()</text><path d="M779,389.5703 L852,389.5703 L852,398.8613 L842,408.8613 L779,408.8613 L779,389.5703 " fill="#EEEEEE" style="stroke:#000000;stroke-width:1.5;"/><rect fill="none" height="144.4551" style="stroke:#000000;stroke-width:1.5;" width="790" x="779" y="389.5703"/><text fill="#000000" font-family="sans-serif" font-size="13" font-weight="bold" lengthAdjust="spacing" textLength="28" x="794" y="404.5986">loop</text><text fill="#000000" font-family="sans-serif" font-size="11" font-weight="bold" lengthAdjust="spacing" textLength="123" x="867" y="403.4404">[get list of ordersDTO]</text><polygon fill="#181818" points="1280,428.1523,1290,432.1523,1280,436.1523,1284,432.1523" style="stroke:#181818;stroke-width:1.0;"/><line style="stroke:#181818;stroke-width:1.0;" x1="855.5" x2="1286" y1="432.1523" y2="432.1523"/><text fill="#000000" font-family="sans-serif" font-size="13" font-weight="bold" lengthAdjust="spacing" textLength="7" x="862.5" y="426.8896">9</text><text fill="#000000" font-family="sans-serif" font-size="13" lengthAdjust="spacing" textLength="91" x="873.5" y="426.8896">getOrdersDTO()</text><polygon fill="#181818" points="1464,459.4434,1474,463.4434,1464,467.4434,1468,463.4434" style="stroke:#181818;stroke-width:1.0;"/><line style="stroke:#181818;stroke-width:1.0;" x1="1302" x2="1470" y1="463.4434" y2="463.4434"/><text fill="#000000" font-family="sans-serif" font-size="13" font-weight="bold" lengthAdjust="spacing" textLength="14" x="1309" y="458.1807">10</text><text fill="#000000" font-family="sans-serif" font-size="13" lengthAdjust="spacing" textLength="104" x="1327" y="458.1807">CreateOrderDTO()</text><polygon fill="#181818" points="1313,490.7344,1303,494.7344,1313,498.7344,1309,494.7344" style="stroke:#181818;stroke-width:1.0;"/><line style="stroke:#181818;stroke-width:1.0;stroke-dasharray:2.0,2.0;" x1="1307" x2="1480" y1="494.7344" y2="494.7344"/><text fill="#000000" font-family="sans-serif" font-size="13" font-weight="bold" lengthAdjust="spacing" textLength="14" x="1319" y="489.4717">11</text><text fill="#000000" font-family="sans-serif" font-size="13" lengthAdjust="spacing" textLength="58" x="1337" y="489.4717">OrderDTO</text><polygon fill="#181818" points="866.5,522.0254,856.5,526.0254,866.5,530.0254,862.5,526.0254" style="stroke:#181818;stroke-width:1.0;"/><line style="stroke:#181818;stroke-width:1.0;stroke-dasharray:2.0,2.0;" x1="860.5" x2="1296" y1="526.0254" y2="526.0254"/><text fill="#000000" font-family="sans-serif" font-size="13" font-weight="bold" lengthAdjust="spacing" textLength="14" x="872.5" y="520.7627">12</text><text fill="#000000" font-family="sans-serif" font-size="13" lengthAdjust="spacing" textLength="58" x="890.5" y="520.7627">OrderDTO</text><polygon fill="#181818" points="576,560.3164,566,564.3164,576,568.3164,572,564.3164" style="stroke:#181818;stroke-width:1.0;"/><line style="stroke:#181818;stroke-width:1.0;stroke-dasharray:2.0,2.0;" x1="570" x2="849.5" y1="564.3164" y2="564.3164"/><text fill="#000000" font-family="sans-serif" font-size="13" font-weight="bold" lengthAdjust="spacing" textLength="14" x="582" y="559.0537">13</text><text fill="#000000" font-family="sans-serif" font-size="13" lengthAdjust="spacing" textLength="53" x="600" y="559.0537">OrderList</text><polygon fill="#181818" points="355,598.6074,345,602.6074,355,606.6074,351,602.6074" style="stroke:#181818;stroke-width:1.0;"/><line style="stroke:#181818;stroke-width:1.0;stroke-dasharray:2.0,2.0;" x1="349" x2="559" y1="602.6074" y2="602.6074"/><text fill="#000000" font-family="sans-serif" font-size="13" font-weight="bold" lengthAdjust="spacing" textLength="14" x="361" y="597.3447">14</text><text fill="#000000" font-family="sans-serif" font-size="13" lengthAdjust="spacing" textLength="53" x="379" y="597.3447">OrderList</text><polygon fill="#181818" points="104,629.8984,94,633.8984,104,637.8984,100,633.8984" style="stroke:#181818;stroke-width:1.0;"/><line style="stroke:#181818;stroke-width:1.0;stroke-dasharray:2.0,2.0;" x1="98" x2="333" y1="633.8984" y2="633.8984"/><text fill="#000000" font-family="sans-serif" font-size="13" font-weight="bold" lengthAdjust="spacing" textLength="14" x="110" y="628.6357">15</text><text fill="#000000" font-family="sans-serif" font-size="13" lengthAdjust="spacing" textLength="108" x="128" y="628.6357">Displays DealsList</text><polygon fill="#181818" points="99,661.1895,89,665.1895,99,669.1895,95,665.1895" style="stroke:#181818;stroke-width:1.0;"/><line style="stroke:#181818;stroke-width:1.0;stroke-dasharray:2.0,2.0;" x1="93" x2="338" y1="665.1895" y2="665.1895"/><text fill="#000000" font-family="sans-serif" font-size="13" font-weight="bold" lengthAdjust="spacing" textLength="14" x="105" y="659.9268">16</text><text fill="#000000" font-family="sans-serif" font-size="13" lengthAdjust="spacing" textLength="127" x="123" y="659.9268">Displays Sort Options</text><path d="M10,680.1895 L186,680.1895 L186,689.4805 L176,699.4805 L10,699.4805 L10,680.1895 " fill="#EEEEEE" style="stroke:#000000;stroke-width:1.5;"/><rect fill="none" height="1117.1855" style="stroke:#000000;stroke-width:1.5;" width="2015" x="10" y="680.1895"/><text fill="#000000" font-family="sans-serif" font-size="13" font-weight="bold" lengthAdjust="spacing" textLength="131" x="25" y="695.2178">Sort Options by Area</text><polygon fill="#181818" points="322,718.7715,332,722.7715,322,726.7715,326,722.7715" style="stroke:#181818;stroke-width:1.0;"/><line style="stroke:#181818;stroke-width:1.0;stroke-dasharray:2.0,2.0;" x1="93" x2="328" y1="722.7715" y2="722.7715"/><text fill="#000000" font-family="sans-serif" font-size="13" font-weight="bold" lengthAdjust="spacing" textLength="14" x="100" y="717.5088">17</text><text fill="#000000" font-family="sans-serif" font-size="13" lengthAdjust="spacing" textLength="133" x="118" y="717.5088">User selects an Option</text><path d="M20,737.7715 L81,737.7715 L81,747.0625 L71,757.0625 L20,757.0625 L20,737.7715 " fill="#EEEEEE" style="stroke:#000000;stroke-width:1.5;"/><rect fill="none" height="503.6563" style="stroke:#000000;stroke-width:1.5;" width="1995" x="20" y="737.7715"/><text fill="#000000" font-family="sans-serif" font-size="13" font-weight="bold" lengthAdjust="spacing" textLength="16" x="35" y="752.7998">alt</text><text fill="#000000" font-family="sans-serif" font-size="11" font-weight="bold" lengthAdjust="spacing" textLength="65" x="96" y="751.6416">[ascending]</text><polygon fill="#181818" points="543,776.3535,553,780.3535,543,784.3535,547,780.3535" style="stroke:#181818;stroke-width:1.0;"/><line style="stroke:#181818;stroke-width:1.0;" x1="344" x2="549" y1="780.3535" y2="780.3535"/><text fill="#000000" font-family="sans-serif" font-size="13" font-weight="bold" lengthAdjust="spacing" textLength="14" x="351" y="775.0908">18</text><text fill="#000000" font-family="sans-serif" font-size="13" lengthAdjust="spacing" textLength="73" x="369" y="775.0908">Sort by Area</text><polygon fill="#181818" points="953.5,807.6445,963.5,811.6445,953.5,815.6445,957.5,811.6445" style="stroke:#181818;stroke-width:1.0;"/><line style="stroke:#181818;stroke-width:1.0;" x1="565" x2="959.5" y1="811.6445" y2="811.6445"/><text fill="#000000" font-family="sans-serif" font-size="13" font-weight="bold" lengthAdjust="spacing" textLength="14" x="572" y="806.3818">19</text><text fill="#000000" font-family="sans-serif" font-size="13" lengthAdjust="spacing" textLength="75" x="590" y="806.3818">getInstance()</text><polygon fill="#181818" points="576,838.9355,566,842.9355,576,846.9355,572,842.9355" style="stroke:#181818;stroke-width:1.0;"/><line style="stroke:#181818;stroke-width:1.0;stroke-dasharray:2.0,2.0;" x1="570" x2="969.5" y1="842.9355" y2="842.9355"/><text fill="#000000" font-family="sans-serif" font-size="13" font-weight="bold" lengthAdjust="spacing" textLength="14" x="582" y="837.6729">20</text><text fill="#000000" font-family="sans-serif" font-size="13" lengthAdjust="spacing" textLength="67" x="600" y="837.6729">repositories</text><polygon fill="#181818" points="1060.5,870.2266,1070.5,874.2266,1060.5,878.2266,1064.5,874.2266" style="stroke:#181818;stroke-width:1.0;"/><line style="stroke:#181818;stroke-width:1.0;" x1="565" x2="1066.5" y1="874.2266" y2="874.2266"/><text fill="#000000" font-family="sans-serif" font-size="13" font-weight="bold" lengthAdjust="spacing" textLength="14" x="572" y="868.9639">21</text><text fill="#000000" font-family="sans-serif" font-size="13" lengthAdjust="spacing" textLength="137" x="590" y="868.9639">getPropertyRepository()</text><polygon fill="#181818" points="576,901.5176,566,905.5176,576,909.5176,572,905.5176" style="stroke:#181818;stroke-width:1.0;"/><line style="stroke:#181818;stroke-width:1.0;stroke-dasharray:2.0,2.0;" x1="570" x2="1076.5" y1="905.5176" y2="905.5176"/><text fill="#000000" font-family="sans-serif" font-size="13" font-weight="bold" lengthAdjust="spacing" textLength="14" x="582" y="900.2549">22</text><text fill="#000000" font-family="sans-serif" font-size="13" lengthAdjust="spacing" textLength="111" x="600" y="900.2549">PropertyRepository</text><polygon fill="#181818" points="692,932.8086,702,936.8086,692,940.8086,696,936.8086" style="stroke:#181818;stroke-width:1.0;"/><line style="stroke:#181818;stroke-width:1.0;" x1="565" x2="698" y1="936.8086" y2="936.8086"/><text fill="#000000" font-family="sans-serif" font-size="13" font-weight="bold" lengthAdjust="spacing" textLength="14" x="572" y="931.5459">23</text><text fill="#000000" font-family="sans-serif" font-size="13" lengthAdjust="spacing" textLength="79" x="590" y="931.5459">getAreaDTO()</text><path d="M629,951.8086 L702,951.8086 L702,961.0996 L692,971.0996 L629,971.0996 L629,951.8086 " fill="#EEEEEE" style="stroke:#000000;stroke-width:1.5;"/><rect fill="none" height="144.4551" style="stroke:#000000;stroke-width:1.5;" width="1376" x="629" y="951.8086"/><text fill="#000000" font-family="sans-serif" font-size="13" font-weight="bold" lengthAdjust="spacing" textLength="28" x="644" y="966.8369">loop</text><text fill="#000000" font-family="sans-serif" font-size="11" font-weight="bold" lengthAdjust="spacing" textLength="111" x="717" y="965.6787">[get list of AreaDTO]</text><polygon fill="#181818" points="1665,990.3906,1675,994.3906,1665,998.3906,1669,994.3906" style="stroke:#181818;stroke-width:1.0;"/><line style="stroke:#181818;stroke-width:1.0;" x1="714" x2="1671" y1="994.3906" y2="994.3906"/><text fill="#000000" font-family="sans-serif" font-size="13" font-weight="bold" lengthAdjust="spacing" textLength="14" x="721" y="989.1279">24</text><text fill="#000000" font-family="sans-serif" font-size="13" lengthAdjust="spacing" textLength="79" x="739" y="989.1279">getAreaDTO()</text><polygon fill="#181818" points="1883,1021.6816,1893,1025.6816,1883,1029.6816,1887,1025.6816" style="stroke:#181818;stroke-width:1.0;"/><line style="stroke:#181818;stroke-width:1.0;" x1="1687" x2="1889" y1="1025.6816" y2="1025.6816"/><text fill="#000000" font-family="sans-serif" font-size="13" font-weight="bold" lengthAdjust="spacing" textLength="14" x="1694" y="1020.4189">25</text><text fill="#000000" font-family="sans-serif" font-size="13" lengthAdjust="spacing" textLength="99" x="1712" y="1020.4189">CreateAreaDTO()</text><polygon fill="#181818" points="1698,1052.9727,1688,1056.9727,1698,1060.9727,1694,1056.9727" style="stroke:#181818;stroke-width:1.0;"/><line style="stroke:#181818;stroke-width:1.0;stroke-dasharray:2.0,2.0;" x1="1692" x2="1899" y1="1056.9727" y2="1056.9727"/><text fill="#000000" font-family="sans-serif" font-size="13" font-weight="bold" lengthAdjust="spacing" textLength="14" x="1704" y="1051.71">26</text><text fill="#000000" font-family="sans-serif" font-size="13" lengthAdjust="spacing" textLength="53" x="1722" y="1051.71">AreaDTO</text><polygon fill="#181818" points="725,1084.2637,715,1088.2637,725,1092.2637,721,1088.2637" style="stroke:#181818;stroke-width:1.0;"/><line style="stroke:#181818;stroke-width:1.0;stroke-dasharray:2.0,2.0;" x1="719" x2="1681" y1="1088.2637" y2="1088.2637"/><text fill="#000000" font-family="sans-serif" font-size="13" font-weight="bold" lengthAdjust="spacing" textLength="14" x="731" y="1083.001">27</text><text fill="#000000" font-family="sans-serif" font-size="13" lengthAdjust="spacing" textLength="53" x="749" y="1083.001">AreaDTO</text><polygon fill="#181818" points="576,1122.5547,566,1126.5547,576,1130.5547,572,1126.5547" style="stroke:#181818;stroke-width:1.0;"/><line style="stroke:#181818;stroke-width:1.0;stroke-dasharray:2.0,2.0;" x1="570" x2="708" y1="1126.5547" y2="1126.5547"/><text fill="#000000" font-family="sans-serif" font-size="13" font-weight="bold" lengthAdjust="spacing" textLength="14" x="582" y="1121.292">28</text><text fill="#000000" font-family="sans-serif" font-size="13" lengthAdjust="spacing" textLength="48" x="600" y="1121.292">AreaList</text><line style="stroke:#181818;stroke-width:1.0;stroke-dasharray:2.0,2.0;" x1="565" x2="607" y1="1157.8457" y2="1157.8457"/><line style="stroke:#181818;stroke-width:1.0;stroke-dasharray:2.0,2.0;" x1="607" x2="607" y1="1157.8457" y2="1170.8457"/><line style="stroke:#181818;stroke-width:1.0;stroke-dasharray:2.0,2.0;" x1="566" x2="607" y1="1170.8457" y2="1170.8457"/><polygon fill="#181818" points="576,1166.8457,566,1170.8457,576,1174.8457,572,1170.8457" style="stroke:#181818;stroke-width:1.0;"/><text fill="#000000" font-family="sans-serif" font-size="13" font-weight="bold" lengthAdjust="spacing" textLength="14" x="572" y="1152.583">29</text><text fill="#000000" font-family="sans-serif" font-size="13" lengthAdjust="spacing" textLength="73" x="590" y="1152.583">Sort by Area</text><polygon fill="#181818" points="355,1198.1367,345,1202.1367,355,1206.1367,351,1202.1367" style="stroke:#181818;stroke-width:1.0;"/><line style="stroke:#181818;stroke-width:1.0;stroke-dasharray:2.0,2.0;" x1="349" x2="559" y1="1202.1367" y2="1202.1367"/><text fill="#000000" font-family="sans-serif" font-size="13" font-weight="bold" lengthAdjust="spacing" textLength="14" x="361" y="1196.874">30</text><text fill="#000000" font-family="sans-serif" font-size="13" lengthAdjust="spacing" textLength="169" x="379" y="1196.874">List of Orders Sorted by Area</text><polygon fill="#181818" points="99,1229.4277,89,1233.4277,99,1237.4277,95,1233.4277" style="stroke:#181818;stroke-width:1.0;"/><line style="stroke:#181818;stroke-width:1.0;stroke-dasharray:2.0,2.0;" x1="93" x2="338" y1="1233.4277" y2="1233.4277"/><text fill="#000000" font-family="sans-serif" font-size="13" font-weight="bold" lengthAdjust="spacing" textLength="14" x="105" y="1228.165">31</text><text fill="#000000" font-family="sans-serif" font-size="13" lengthAdjust="spacing" textLength="199" x="123" y="1228.165">Displays DealsList Sorted by Area</text><path d="M20,1255.4277 L81,1255.4277 L81,1264.7188 L71,1274.7188 L20,1274.7188 L20,1255.4277 " fill="#EEEEEE" style="stroke:#000000;stroke-width:1.5;"/><rect fill="none" height="534.9473" style="stroke:#000000;stroke-width:1.5;" width="1995" x="20" y="1255.4277"/><text fill="#000000" font-family="sans-serif" font-size="13" font-weight="bold" lengthAdjust="spacing" textLength="16" x="35" y="1270.4561">alt</text><text fill="#000000" font-family="sans-serif" font-size="11" font-weight="bold" lengthAdjust="spacing" textLength="73" x="96" y="1269.2979">[descending]</text><polygon fill="#181818" points="322,1294.0098,332,1298.0098,322,1302.0098,326,1298.0098" style="stroke:#181818;stroke-width:1.0;"/><line style="stroke:#181818;stroke-width:1.0;" x1="93" x2="328" y1="1298.0098" y2="1298.0098"/><text fill="#000000" font-family="sans-serif" font-size="13" font-weight="bold" lengthAdjust="spacing" textLength="14" x="100" y="1292.7471">32</text><text fill="#000000" font-family="sans-serif" font-size="13" lengthAdjust="spacing" textLength="133" x="118" y="1292.7471">User selects an Option</text><polygon fill="#181818" points="543,1325.3008,553,1329.3008,543,1333.3008,547,1329.3008" style="stroke:#181818;stroke-width:1.0;"/><line style="stroke:#181818;stroke-width:1.0;" x1="344" x2="549" y1="1329.3008" y2="1329.3008"/><text fill="#000000" font-family="sans-serif" font-size="13" font-weight="bold" lengthAdjust="spacing" textLength="14" x="351" y="1324.0381">33</text><text fill="#000000" font-family="sans-serif" font-size="13" lengthAdjust="spacing" textLength="73" x="369" y="1324.0381">Sort by Area</text><polygon fill="#181818" points="953.5,1356.5918,963.5,1360.5918,953.5,1364.5918,957.5,1360.5918" style="stroke:#181818;stroke-width:1.0;"/><line style="stroke:#181818;stroke-width:1.0;" x1="565" x2="959.5" y1="1360.5918" y2="1360.5918"/><text fill="#000000" font-family="sans-serif" font-size="13" font-weight="bold" lengthAdjust="spacing" textLength="14" x="572" y="1355.3291">34</text><text fill="#000000" font-family="sans-serif" font-size="13" lengthAdjust="spacing" textLength="75" x="590" y="1355.3291">getInstance()</text><polygon fill="#181818" points="576,1387.8828,566,1391.8828,576,1395.8828,572,1391.8828" style="stroke:#181818;stroke-width:1.0;"/><line style="stroke:#181818;stroke-width:1.0;stroke-dasharray:2.0,2.0;" x1="570" x2="969.5" y1="1391.8828" y2="1391.8828"/><text fill="#000000" font-family="sans-serif" font-size="13" font-weight="bold" lengthAdjust="spacing" textLength="14" x="582" y="1386.6201">35</text><text fill="#000000" font-family="sans-serif" font-size="13" lengthAdjust="spacing" textLength="67" x="600" y="1386.6201">repositories</text><polygon fill="#181818" points="1060.5,1419.1738,1070.5,1423.1738,1060.5,1427.1738,1064.5,1423.1738" style="stroke:#181818;stroke-width:1.0;"/><line style="stroke:#181818;stroke-width:1.0;" x1="565" x2="1066.5" y1="1423.1738" y2="1423.1738"/><text fill="#000000" font-family="sans-serif" font-size="13" font-weight="bold" lengthAdjust="spacing" textLength="14" x="572" y="1417.9111">36</text><text fill="#000000" font-family="sans-serif" font-size="13" lengthAdjust="spacing" textLength="137" x="590" y="1417.9111">getPropertyRepository()</text><polygon fill="#181818" points="576,1450.4648,566,1454.4648,576,1458.4648,572,1454.4648" style="stroke:#181818;stroke-width:1.0;"/><line style="stroke:#181818;stroke-width:1.0;stroke-dasharray:2.0,2.0;" x1="570" x2="1076.5" y1="1454.4648" y2="1454.4648"/><text fill="#000000" font-family="sans-serif" font-size="13" font-weight="bold" lengthAdjust="spacing" textLength="14" x="582" y="1449.2021">37</text><text fill="#000000" font-family="sans-serif" font-size="13" lengthAdjust="spacing" textLength="111" x="600" y="1449.2021">PropertyRepository</text><polygon fill="#181818" points="692,1481.7559,702,1485.7559,692,1489.7559,696,1485.7559" style="stroke:#181818;stroke-width:1.0;"/><line style="stroke:#181818;stroke-width:1.0;" x1="565" x2="698" y1="1485.7559" y2="1485.7559"/><text fill="#000000" font-family="sans-serif" font-size="13" font-weight="bold" lengthAdjust="spacing" textLength="14" x="572" y="1480.4932">38</text><text fill="#000000" font-family="sans-serif" font-size="13" lengthAdjust="spacing" textLength="79" x="590" y="1480.4932">getAreaDTO()</text><path d="M629,1500.7559 L702,1500.7559 L702,1510.0469 L692,1520.0469 L629,1520.0469 L629,1500.7559 " fill="#EEEEEE" style="stroke:#000000;stroke-width:1.5;"/><rect fill="none" height="144.4551" style="stroke:#000000;stroke-width:1.5;" width="1376" x="629" y="1500.7559"/><text fill="#000000" font-family="sans-serif" font-size="13" font-weight="bold" lengthAdjust="spacing" textLength="28" x="644" y="1515.7842">loop</text><text fill="#000000" font-family="sans-serif" font-size="11" font-weight="bold" lengthAdjust="spacing" textLength="111" x="717" y="1514.626">[get list of AreaDTO]</text><polygon fill="#181818" points="1665,1539.3379,1675,1543.3379,1665,1547.3379,1669,1543.3379" style="stroke:#181818;stroke-width:1.0;"/><line style="stroke:#181818;stroke-width:1.0;" x1="714" x2="1671" y1="1543.3379" y2="1543.3379"/><text fill="#000000" font-family="sans-serif" font-size="13" font-weight="bold" lengthAdjust="spacing" textLength="14" x="721" y="1538.0752">39</text><text fill="#000000" font-family="sans-serif" font-size="13" lengthAdjust="spacing" textLength="79" x="739" y="1538.0752">getAreaDTO()</text><polygon fill="#181818" points="1883,1570.6289,1893,1574.6289,1883,1578.6289,1887,1574.6289" style="stroke:#181818;stroke-width:1.0;"/><line style="stroke:#181818;stroke-width:1.0;" x1="1687" x2="1889" y1="1574.6289" y2="1574.6289"/><text fill="#000000" font-family="sans-serif" font-size="13" font-weight="bold" lengthAdjust="spacing" textLength="14" x="1694" y="1569.3662">40</text><text fill="#000000" font-family="sans-serif" font-size="13" lengthAdjust="spacing" textLength="99" x="1712" y="1569.3662">CreateAreaDTO()</text><polygon fill="#181818" points="1698,1601.9199,1688,1605.9199,1698,1609.9199,1694,1605.9199" style="stroke:#181818;stroke-width:1.0;"/><line style="stroke:#181818;stroke-width:1.0;stroke-dasharray:2.0,2.0;" x1="1692" x2="1899" y1="1605.9199" y2="1605.9199"/><text fill="#000000" font-family="sans-serif" font-size="13" font-weight="bold" lengthAdjust="spacing" textLength="14" x="1704" y="1600.6572">41</text><text fill="#000000" font-family="sans-serif" font-size="13" lengthAdjust="spacing" textLength="53" x="1722" y="1600.6572">AreaDTO</text><polygon fill="#181818" points="725,1633.2109,715,1637.2109,725,1641.2109,721,1637.2109" style="stroke:#181818;stroke-width:1.0;"/><line style="stroke:#181818;stroke-width:1.0;stroke-dasharray:2.0,2.0;" x1="719" x2="1681" y1="1637.2109" y2="1637.2109"/><text fill="#000000" font-family="sans-serif" font-size="13" font-weight="bold" lengthAdjust="spacing" textLength="14" x="731" y="1631.9482">42</text><text fill="#000000" font-family="sans-serif" font-size="13" lengthAdjust="spacing" textLength="53" x="749" y="1631.9482">AreaDTO</text><polygon fill="#181818" points="576,1671.502,566,1675.502,576,1679.502,572,1675.502" style="stroke:#181818;stroke-width:1.0;"/><line style="stroke:#181818;stroke-width:1.0;stroke-dasharray:2.0,2.0;" x1="570" x2="708" y1="1675.502" y2="1675.502"/><text fill="#000000" font-family="sans-serif" font-size="13" font-weight="bold" lengthAdjust="spacing" textLength="14" x="582" y="1670.2393">43</text><text fill="#000000" font-family="sans-serif" font-size="13" lengthAdjust="spacing" textLength="48" x="600" y="1670.2393">AreaList</text><line style="stroke:#181818;stroke-width:1.0;stroke-dasharray:2.0,2.0;" x1="565" x2="607" y1="1706.793" y2="1706.793"/><line style="stroke:#181818;stroke-width:1.0;stroke-dasharray:2.0,2.0;" x1="607" x2="607" y1="1706.793" y2="1719.793"/><line style="stroke:#181818;stroke-width:1.0;stroke-dasharray:2.0,2.0;" x1="566" x2="607" y1="1719.793" y2="1719.793"/><polygon fill="#181818" points="576,1715.793,566,1719.793,576,1723.793,572,1719.793" style="stroke:#181818;stroke-width:1.0;"/><text fill="#000000" font-family="sans-serif" font-size="13" font-weight="bold" lengthAdjust="spacing" textLength="14" x="572" y="1701.5303">44</text><text fill="#000000" font-family="sans-serif" font-size="13" lengthAdjust="spacing" textLength="73" x="590" y="1701.5303">Sort by Area</text><polygon fill="#181818" points="355,1747.084,345,1751.084,355,1755.084,351,1751.084" style="stroke:#181818;stroke-width:1.0;"/><line style="stroke:#181818;stroke-width:1.0;stroke-dasharray:2.0,2.0;" x1="349" x2="559" y1="1751.084" y2="1751.084"/><text fill="#000000" font-family="sans-serif" font-size="13" font-weight="bold" lengthAdjust="spacing" textLength="14" x="361" y="1745.8213">45</text><text fill="#000000" font-family="sans-serif" font-size="13" lengthAdjust="spacing" textLength="169" x="379" y="1745.8213">List of Orders Sorted by Area</text><polygon fill="#181818" points="99,1778.375,89,1782.375,99,1786.375,95,1782.375" style="stroke:#181818;stroke-width:1.0;"/><line style="stroke:#181818;stroke-width:1.0;stroke-dasharray:2.0,2.0;" x1="93" x2="338" y1="1782.375" y2="1782.375"/><text fill="#000000" font-family="sans-serif" font-size="13" font-weight="bold" lengthAdjust="spacing" textLength="14" x="105" y="1777.1123">46</text><text fill="#000000" font-family="sans-serif" font-size="13" lengthAdjust="spacing" textLength="199" x="123" y="1777.1123">Displays DealsList Sorted by Area</text><!--SRC=[xLPDRzim3BtxLn2zR2lWFn0C0O9s6mAqQz0csAKNrLPJ8xPaICgs_FjHN_wGPBS5XbqMNnABvEEZH3vB7YhM4a4QQ3ZZnOlW3GKbZZIJdQKbnO7iwOCwrHG4BHHX-the85z8oNzLR0_Ff9OqoyXHSNPidgZ8iWylLKdXcNFrn7zdf51SmCLtgdvmSRWb38751H09hCaGJLL5rHAcu69nKqbrJH5mjpOEk_MKmnLdIl2wTaXNs_kRiUj6y9OATRgdBPSLCZWziaMyQABZvJ7MdIYf6045AmObM0kOTuQAIkFUUpvKUdDn-yOXOX21AIE0pSrgc-3fsHcVxUh-ozTLmkkMj5Zoud7mOWBitqJ0zVREUUC_uug_wIttsEDtopc5x_rCYi6BZT1fT0zLFucYkcKom8Sra2-nFs01Ata0tHV0du7KDPZ-W8QKrBfsiTXDPa4_68dnkcqkBn6Z41Gzh7ctTXPS_qPLZpb6CordblQ27rlZQbDhCbcVIZy63c4JXuvPzbIjcSGPA-Z7JwEuBbkgMqQU-acXvwwO1GpxQHHQqhUdyONevhFCWxQVAi1qwyXa87fwuVXCC8nnFAK0OC1EOWy5l6hEMss7sdKEzuvf-dFi8BJcIpS2CmGwP3SH8wDTovTw8gvCQ_h9GvGqJCWSt_EEXu-UsjJGvFBdow2mLu5SCKChPMNKgE5HvVt46PEPe8aKgPF077OAiypFyESyjv0HvW2hds6j1qW2PMK1rvLiQtAITfpjD4_wF72XuAvL5MSoX4V12LQqV5cv6CR1qmbMUCozj7bjsqagGD8Qly0I27C1Oo52pAJCaHgrInQuDpZA2U53U4F29uzQgj-Tlo5b_qpEtYjfQLcBxmHpzSIgb52un3LZXdSQiYCQOLdQ-YHZiKagddETAUfrlf1mofURNlwc-VHfKWfeeBqCRdeTxF5c05DLRQmWUcfJnGyF80dJIMDS-9j04mevfPBfxHsAfKuOQMMOyVLJr6Y8EYSAWQjL9t_hijyu4qZBoT1GTqFxl0I_0zt9xeJLoQN-PA12zb9PqaWhMPClT-jP5KufyHikdMVjFMllMNlFslj_QsztRVy3]--></g></svg>