<?xml version="1.0" encoding="us-ascii" standalone="no"?><svg xmlns="http://www.w3.org/2000/svg" xmlns:xlink="http://www.w3.org/1999/xlink" contentStyleType="text/css" height="1329px" preserveAspectRatio="none" style="width:2490px;height:1329px;background:#FFFFFF;" version="1.1" viewBox="0 0 2490 1329" width="2490px" zoomAndPan="magnify"><defs/><g><!--class Repositories--><g id="elem_Repositories"><rect codeLine="11" fill="#F1F1F1" height="252.832" id="Repositories" rx="2.5" ry="2.5" style="stroke:#181818;stroke-width:0.5;" width="359" x="1300" y="55.7627"/><ellipse cx="1435.75" cy="71.7627" fill="#ADD1B2" rx="11" ry="11" style="stroke:#181818;stroke-width:1.0;"/><path d="M1438.5156,67.6377 Q1438.6719,67.4189 1438.8594,67.3096 Q1439.0469,67.2002 1439.2656,67.2002 Q1439.6406,67.2002 1439.875,67.4658 Q1440.1094,67.7158 1440.1094,68.3252 L1440.1094,69.7783 Q1440.1094,70.3877 1439.875,70.6533 Q1439.6406,70.9189 1439.2656,70.9189 Q1438.9219,70.9189 1438.7188,70.7158 Q1438.5156,70.5283 1438.4063,70.0127 Q1438.3594,69.6533 1438.1719,69.4658 Q1437.8438,69.0908 1437.2344,68.8721 Q1436.625,68.6533 1436,68.6533 Q1435.2344,68.6533 1434.5938,68.9814 Q1433.9688,69.3096 1433.4688,70.0596 Q1432.9844,70.8096 1432.9844,71.8408 L1432.9844,72.9346 Q1432.9844,74.1689 1433.875,74.9971 Q1434.7656,75.8096 1436.3594,75.8096 Q1437.2969,75.8096 1437.9531,75.5596 Q1438.3438,75.4033 1438.7656,74.9658 Q1439.0313,74.7002 1439.1719,74.6221 Q1439.3281,74.5439 1439.5313,74.5439 Q1439.8594,74.5439 1440.1094,74.8096 Q1440.375,75.0596 1440.375,75.4033 Q1440.375,75.7471 1440.0313,76.1533 Q1439.5313,76.7314 1438.7344,77.0596 Q1437.6563,77.5127 1436.3594,77.5127 Q1434.8438,77.5127 1433.6406,76.8877 Q1432.6563,76.3877 1431.9688,75.3252 Q1431.2813,74.2471 1431.2813,72.9658 L1431.2813,71.8096 Q1431.2813,70.4814 1431.8906,69.3408 Q1432.5156,68.1846 1433.6094,67.5752 Q1434.7031,66.9502 1435.9375,66.9502 Q1436.6719,66.9502 1437.3125,67.1221 Q1437.9688,67.2783 1438.5156,67.6377 Z " fill="#000000"/><text fill="#000000" font-family="sans-serif" font-size="14" lengthAdjust="spacing" textLength="79" x="1456.25" y="77.5596">Repositories</text><line style="stroke:#181818;stroke-width:0.5;" x1="1301" x2="1658" y1="87.7627" y2="87.7627"/><polygon fill="none" points="1311,98.5732,1307,104.5732,1315,104.5732" style="stroke:#1963A0;stroke-width:1.0;"/><text fill="#000000" font-family="sans-serif" font-size="14" lengthAdjust="spacing" textLength="251" x="1320" y="106.8701">propertyRepository: PropertyRepository</text><polygon fill="none" points="1311,117.1943,1307,123.1943,1315,123.1943" style="stroke:#1963A0;stroke-width:1.0;"/><text fill="#000000" font-family="sans-serif" font-size="14" lengthAdjust="spacing" textLength="323" x="1320" y="125.4912">authenticationRepository: AuthenticationRepository</text><polygon fill="none" points="1311,135.8154,1307,141.8154,1315,141.8154" style="stroke:#1963A0;stroke-width:1.0;"/><text fill="#000000" font-family="sans-serif" font-size="14" lengthAdjust="spacing" textLength="213" x="1320" y="144.1123">clientRepository: ClientRepository</text><rect fill="none" height="6" style="stroke:#C82930;stroke-width:1.0;" width="6" x="1308" y="155.4365"/><text fill="#000000" font-family="sans-serif" font-size="14" lengthAdjust="spacing" textLength="140" x="1320" y="162.7334">instance: Repositories</text><polygon fill="none" points="1311,173.0576,1307,179.0576,1315,179.0576" style="stroke:#1963A0;stroke-width:1.0;"/><text fill="#000000" font-family="sans-serif" font-size="14" lengthAdjust="spacing" textLength="333" x="1320" y="181.3545">announcementRepository: AnnouncementRepository</text><text fill="#000000" font-family="sans-serif" font-size="14" lengthAdjust="spacing" textLength="333" x="1320" y="199.9756">announcementRepository: AnnouncementRepository</text><text fill="#000000" font-family="sans-serif" font-size="14" lengthAdjust="spacing" textLength="218" x="1320" y="218.5967">OrderRepository: OrderRepository</text><text fill="#000000" font-family="sans-serif" font-size="14" lengthAdjust="spacing" textLength="140" x="1320" y="237.2178">instance: Repositories</text><text fill="#000000" font-family="sans-serif" font-size="14" lengthAdjust="spacing" textLength="213" x="1320" y="255.8389">clientRepository: ClientRepository</text><text fill="#000000" font-family="sans-serif" font-size="14" lengthAdjust="spacing" textLength="323" x="1320" y="274.46">authenticationRepository: AuthenticationRepository</text><line style="stroke:#181818;stroke-width:0.5;" x1="1301" x2="1658" y1="281.9736" y2="281.9736"/><rect fill="#F24D5C" height="6" style="stroke:#C82930;stroke-width:1.0;" width="6" x="1308" y="293.7842"/><text fill="#000000" font-family="sans-serif" font-size="14" lengthAdjust="spacing" textLength="93" x="1320" y="301.0811">Repositories():</text></g><!--class User--><g id="elem_User"><rect codeLine="26" fill="#F1F1F1" height="383.1797" id="User" rx="2.5" ry="2.5" style="stroke:#181818;stroke-width:0.5;" width="398" x="2068.5" y="719.7627"/><ellipse cx="2248.75" cy="735.7627" fill="#ADD1B2" rx="11" ry="11" style="stroke:#181818;stroke-width:1.0;"/><path d="M2251.5156,731.6377 Q2251.6719,731.4189 2251.8594,731.3096 Q2252.0469,731.2002 2252.2656,731.2002 Q2252.6406,731.2002 2252.875,731.4658 Q2253.1094,731.7158 2253.1094,732.3252 L2253.1094,733.7783 Q2253.1094,734.3877 2252.875,734.6533 Q2252.6406,734.9189 2252.2656,734.9189 Q2251.9219,734.9189 2251.7188,734.7158 Q2251.5156,734.5283 2251.4063,734.0127 Q2251.3594,733.6533 2251.1719,733.4658 Q2250.8438,733.0908 2250.2344,732.8721 Q2249.625,732.6533 2249,732.6533 Q2248.2344,732.6533 2247.5938,732.9814 Q2246.9688,733.3096 2246.4688,734.0596 Q2245.9844,734.8096 2245.9844,735.8408 L2245.9844,736.9346 Q2245.9844,738.1689 2246.875,738.9971 Q2247.7656,739.8096 2249.3594,739.8096 Q2250.2969,739.8096 2250.9531,739.5596 Q2251.3438,739.4033 2251.7656,738.9658 Q2252.0313,738.7002 2252.1719,738.6221 Q2252.3281,738.5439 2252.5313,738.5439 Q2252.8594,738.5439 2253.1094,738.8096 Q2253.375,739.0596 2253.375,739.4033 Q2253.375,739.7471 2253.0313,740.1533 Q2252.5313,740.7314 2251.7344,741.0596 Q2250.6563,741.5127 2249.3594,741.5127 Q2247.8438,741.5127 2246.6406,740.8877 Q2245.6563,740.3877 2244.9688,739.3252 Q2244.2813,738.2471 2244.2813,736.9658 L2244.2813,735.8096 Q2244.2813,734.4814 2244.8906,733.3408 Q2245.5156,732.1846 2246.6094,731.5752 Q2247.7031,730.9502 2248.9375,730.9502 Q2249.6719,730.9502 2250.3125,731.1221 Q2250.9688,731.2783 2251.5156,731.6377 Z " fill="#000000"/><text fill="#000000" font-family="sans-serif" font-size="14" lengthAdjust="spacing" textLength="29" x="2269.25" y="741.5596">User</text><line style="stroke:#181818;stroke-width:0.5;" x1="2069.5" x2="2465.5" y1="751.7627" y2="751.7627"/><rect fill="none" height="6" style="stroke:#C82930;stroke-width:1.0;" width="6" x="2076.5" y="763.5732"/><text fill="#000000" font-family="sans-serif" font-size="14" lengthAdjust="spacing" textLength="85" x="2088.5" y="770.8701">phone: String</text><rect fill="none" height="6" style="stroke:#C82930;stroke-width:1.0;" width="6" x="2076.5" y="782.1943"/><text fill="#000000" font-family="sans-serif" font-size="14" lengthAdjust="spacing" textLength="80" x="2088.5" y="789.4912">name: String</text><rect fill="none" height="6" style="stroke:#C82930;stroke-width:1.0;" width="6" x="2076.5" y="800.8154"/><text fill="#000000" font-family="sans-serif" font-size="14" lengthAdjust="spacing" textLength="78" x="2088.5" y="808.1123">email: String</text><rect fill="none" height="6" style="stroke:#C82930;stroke-width:1.0;" width="6" x="2076.5" y="819.4365"/><text fill="#000000" font-family="sans-serif" font-size="14" lengthAdjust="spacing" textLength="96" x="2088.5" y="826.7334">address: String</text><rect fill="none" height="6" style="stroke:#C82930;stroke-width:1.0;" width="6" x="2076.5" y="838.0576"/><text fill="#000000" font-family="sans-serif" font-size="14" lengthAdjust="spacing" textLength="90" x="2088.5" y="845.3545">taxNumber: int</text><rect fill="none" height="6" style="stroke:#C82930;stroke-width:1.0;" width="6" x="2076.5" y="856.6787"/><text fill="#000000" font-family="sans-serif" font-size="14" lengthAdjust="spacing" textLength="113" x="2088.5" y="863.9756">descptions: String</text><rect fill="none" height="6" style="stroke:#C82930;stroke-width:1.0;" width="6" x="2076.5" y="875.2998"/><text fill="#000000" font-family="sans-serif" font-size="14" lengthAdjust="spacing" textLength="75" x="2088.5" y="882.5967">roles: Roles</text><rect fill="none" height="6" style="stroke:#C82930;stroke-width:1.0;" width="6" x="2076.5" y="893.9209"/><text fill="#000000" font-family="sans-serif" font-size="14" lengthAdjust="spacing" textLength="105" x="2088.5" y="901.2178">password: String</text><text fill="#000000" font-family="sans-serif" font-size="14" lengthAdjust="spacing" textLength="80" x="2088.5" y="919.8389">name: String</text><text fill="#000000" font-family="sans-serif" font-size="14" lengthAdjust="spacing" textLength="105" x="2088.5" y="938.46">password: String</text><text fill="#000000" font-family="sans-serif" font-size="14" lengthAdjust="spacing" textLength="113" x="2088.5" y="957.0811">descptions: String</text><text fill="#000000" font-family="sans-serif" font-size="14" lengthAdjust="spacing" textLength="78" x="2088.5" y="975.7021">email: String</text><text fill="#000000" font-family="sans-serif" font-size="14" lengthAdjust="spacing" textLength="85" x="2088.5" y="994.3232">phone: String</text><text fill="#000000" font-family="sans-serif" font-size="14" lengthAdjust="spacing" textLength="96" x="2088.5" y="1012.9443">address: String</text><text fill="#000000" font-family="sans-serif" font-size="14" lengthAdjust="spacing" textLength="75" x="2088.5" y="1031.5654">roles: Roles</text><text fill="#000000" font-family="sans-serif" font-size="14" lengthAdjust="spacing" textLength="90" x="2088.5" y="1050.1865">taxNumber: int</text><line style="stroke:#181818;stroke-width:0.5;" x1="2069.5" x2="2465.5" y1="1057.7002" y2="1057.7002"/><ellipse cx="2079.5" cy="1072.5107" fill="#84BE84" rx="3" ry="3" style="stroke:#038048;stroke-width:1.0;"/><text fill="#000000" font-family="sans-serif" font-size="14" lengthAdjust="spacing" textLength="372" x="2088.5" y="1076.8076">User(String, String, int, String, String, String, String, Roles):</text><ellipse cx="2079.5" cy="1091.1318" fill="#84BE84" rx="3" ry="3" style="stroke:#038048;stroke-width:1.0;"/><text fill="#000000" font-family="sans-serif" font-size="14" lengthAdjust="spacing" textLength="104" x="2088.5" y="1095.4287">toString(): String</text></g><!--class Roles--><g id="elem_Roles"><rect codeLine="46" fill="#F1F1F1" height="116.4453" id="Roles" rx="2.5" ry="2.5" style="stroke:#181818;stroke-width:0.5;" width="166" x="2317.5" y="1194.2627"/><ellipse cx="2356.8" cy="1216.5537" fill="#EB937F" rx="11" ry="11" style="stroke:#181818;stroke-width:1.0;"/><path d="M2355.6594,1217.3506 L2355.6594,1219.8506 L2359.9875,1219.8506 L2359.9875,1218.9287 Q2359.9875,1218.3193 2360.2219,1218.0537 Q2360.4719,1217.7881 2360.8469,1217.7881 Q2361.2219,1217.7881 2361.4563,1218.0537 Q2361.6906,1218.3193 2361.6906,1218.9287 L2361.6906,1221.5537 L2353.6906,1221.5537 Q2353.0656,1221.5537 2352.8,1221.3193 Q2352.55,1221.085 2352.55,1220.6943 Q2352.55,1220.3193 2352.8156,1220.085 Q2353.0813,1219.8506 2353.6906,1219.8506 L2353.9563,1219.8506 L2353.9563,1213.1943 L2353.6906,1213.1943 Q2353.0656,1213.1943 2352.8,1212.96 Q2352.55,1212.7256 2352.55,1212.335 Q2352.55,1211.96 2352.8,1211.7256 Q2353.0656,1211.4912 2353.6906,1211.4912 L2361.3156,1211.4912 L2361.3156,1214.085 Q2361.3156,1214.6943 2361.0813,1214.96 Q2360.8625,1215.21 2360.4719,1215.21 Q2360.0969,1215.21 2359.8625,1214.96 Q2359.6281,1214.6943 2359.6281,1214.085 L2359.6281,1213.1943 L2355.6594,1213.1943 L2355.6594,1215.6475 L2357.1438,1215.6475 Q2357.1438,1214.9912 2357.2688,1214.8037 Q2357.5344,1214.3975 2358.0031,1214.3975 Q2358.3781,1214.3975 2358.6125,1214.6631 Q2358.8469,1214.9131 2358.8469,1215.5225 L2358.8469,1217.4912 Q2358.8469,1218.0381 2358.7219,1218.2256 Q2358.4563,1218.6162 2358.0031,1218.6162 Q2357.5344,1218.6162 2357.2688,1218.21 Q2357.1438,1218.0225 2357.1438,1217.3506 L2355.6594,1217.3506 Z " fill="#000000"/><text fill="#000000" font-family="sans-serif" font-size="12" font-style="italic" lengthAdjust="spacing" textLength="84" x="2374.2" y="1212.2119">&#171;enumeration&#187;</text><text fill="#000000" font-family="sans-serif" font-size="14" lengthAdjust="spacing" textLength="36" x="2398.2" y="1230.3311">Roles</text><line style="stroke:#181818;stroke-width:0.5;" x1="2318.5" x2="2482.5" y1="1238.8447" y2="1238.8447"/><line style="stroke:#181818;stroke-width:0.5;" x1="2318.5" x2="2482.5" y1="1246.8447" y2="1246.8447"/><ellipse cx="2328.5" cy="1261.6553" fill="#84BE84" rx="3" ry="3" style="stroke:#038048;stroke-width:1.0;"/><text fill="#000000" font-family="sans-serif" font-size="14" lengthAdjust="spacing" textLength="50" x="2337.5" y="1265.9521">Roles():</text><ellipse cx="2328.5" cy="1280.2764" fill="#84BE84" rx="3" ry="3" style="stroke:#038048;stroke-width:1.0;"/><text fill="#000000" font-family="sans-serif" font-size="14" lengthAdjust="spacing" textLength="103" x="2337.5" y="1284.5732">values(): Roles[]</text><ellipse cx="2328.5" cy="1298.8975" fill="#84BE84" rx="3" ry="3" style="stroke:#038048;stroke-width:1.0;"/><text fill="#000000" font-family="sans-serif" font-size="14" lengthAdjust="spacing" textLength="140" x="2337.5" y="1303.1943">valueOf(String): Roles</text></g><!--class CreateOrderUI--><g id="elem_CreateOrderUI"><rect codeLine="52" fill="#F1F1F1" height="141.1055" id="CreateOrderUI" rx="2.5" ry="2.5" style="stroke:#181818;stroke-width:0.5;" width="421" x="317" y="111.7627"/><ellipse cx="477.25" cy="127.7627" fill="#ADD1B2" rx="11" ry="11" style="stroke:#181818;stroke-width:1.0;"/><path d="M480.0156,123.6377 Q480.1719,123.4189 480.3594,123.3096 Q480.5469,123.2002 480.7656,123.2002 Q481.1406,123.2002 481.375,123.4658 Q481.6094,123.7158 481.6094,124.3252 L481.6094,125.7783 Q481.6094,126.3877 481.375,126.6533 Q481.1406,126.9189 480.7656,126.9189 Q480.4219,126.9189 480.2188,126.7158 Q480.0156,126.5283 479.9063,126.0127 Q479.8594,125.6533 479.6719,125.4658 Q479.3438,125.0908 478.7344,124.8721 Q478.125,124.6533 477.5,124.6533 Q476.7344,124.6533 476.0938,124.9814 Q475.4688,125.3096 474.9688,126.0596 Q474.4844,126.8096 474.4844,127.8408 L474.4844,128.9346 Q474.4844,130.1689 475.375,130.9971 Q476.2656,131.8096 477.8594,131.8096 Q478.7969,131.8096 479.4531,131.5596 Q479.8438,131.4033 480.2656,130.9658 Q480.5313,130.7002 480.6719,130.6221 Q480.8281,130.5439 481.0313,130.5439 Q481.3594,130.5439 481.6094,130.8096 Q481.875,131.0596 481.875,131.4033 Q481.875,131.7471 481.5313,132.1533 Q481.0313,132.7314 480.2344,133.0596 Q479.1563,133.5127 477.8594,133.5127 Q476.3438,133.5127 475.1406,132.8877 Q474.1563,132.3877 473.4688,131.3252 Q472.7813,130.2471 472.7813,128.9658 L472.7813,127.8096 Q472.7813,126.4814 473.3906,125.3408 Q474.0156,124.1846 475.1094,123.5752 Q476.2031,122.9502 477.4375,122.9502 Q478.1719,122.9502 478.8125,123.1221 Q479.4688,123.2783 480.0156,123.6377 Z " fill="#000000"/><text fill="#000000" font-family="sans-serif" font-size="14" lengthAdjust="spacing" textLength="92" x="497.75" y="133.5596">CreateOrderUI</text><line style="stroke:#181818;stroke-width:0.5;" x1="318" x2="737" y1="143.7627" y2="143.7627"/><line style="stroke:#181818;stroke-width:0.5;" x1="318" x2="737" y1="151.7627" y2="151.7627"/><ellipse cx="328" cy="166.5732" fill="#84BE84" rx="3" ry="3" style="stroke:#038048;stroke-width:1.0;"/><text fill="#000000" font-family="sans-serif" font-size="14" lengthAdjust="spacing" textLength="106" x="337" y="170.8701">CreateOrderUI():</text><rect fill="#F24D5C" height="6" style="stroke:#C82930;stroke-width:1.0;" width="6" x="325" y="182.1943"/><text fill="#000000" font-family="sans-serif" font-size="14" lengthAdjust="spacing" textLength="354" x="337" y="189.4912">displayAndSelectAnnouncement(): AnnouncementDTO?</text><ellipse cx="328" cy="203.8154" fill="#84BE84" rx="3" ry="3" style="stroke:#038048;stroke-width:1.0;"/><text fill="#000000" font-family="sans-serif" font-size="14" lengthAdjust="spacing" textLength="65" x="337" y="208.1123">run(): void</text><rect fill="#F24D5C" height="6" style="stroke:#C82930;stroke-width:1.0;" width="6" x="325" y="219.4365"/><text fill="#000000" font-family="sans-serif" font-size="14" lengthAdjust="spacing" textLength="115" x="337" y="226.7334">submitData(): void</text><rect fill="#F24D5C" height="6" style="stroke:#C82930;stroke-width:1.0;" width="6" x="325" y="238.0576"/><text fill="#000000" font-family="sans-serif" font-size="14" lengthAdjust="spacing" textLength="395" x="337" y="245.3545">displayAnnouncementOptions(List&lt;AnnouncementDTO&gt;): void</text></g><!--class CreateOrderController--><g id="elem_CreateOrderController"><rect codeLine="59" fill="#F1F1F1" height="215.5898" id="CreateOrderController" rx="2.5" ry="2.5" style="stroke:#181818;stroke-width:0.5;" width="423" x="773" y="74.2627"/><ellipse cx="909.25" cy="90.2627" fill="#ADD1B2" rx="11" ry="11" style="stroke:#181818;stroke-width:1.0;"/><path d="M912.0156,86.1377 Q912.1719,85.9189 912.3594,85.8096 Q912.5469,85.7002 912.7656,85.7002 Q913.1406,85.7002 913.375,85.9658 Q913.6094,86.2158 913.6094,86.8252 L913.6094,88.2783 Q913.6094,88.8877 913.375,89.1533 Q913.1406,89.4189 912.7656,89.4189 Q912.4219,89.4189 912.2188,89.2158 Q912.0156,89.0283 911.9063,88.5127 Q911.8594,88.1533 911.6719,87.9658 Q911.3438,87.5908 910.7344,87.3721 Q910.125,87.1533 909.5,87.1533 Q908.7344,87.1533 908.0938,87.4814 Q907.4688,87.8096 906.9688,88.5596 Q906.4844,89.3096 906.4844,90.3408 L906.4844,91.4346 Q906.4844,92.6689 907.375,93.4971 Q908.2656,94.3096 909.8594,94.3096 Q910.7969,94.3096 911.4531,94.0596 Q911.8438,93.9033 912.2656,93.4658 Q912.5313,93.2002 912.6719,93.1221 Q912.8281,93.0439 913.0313,93.0439 Q913.3594,93.0439 913.6094,93.3096 Q913.875,93.5596 913.875,93.9033 Q913.875,94.2471 913.5313,94.6533 Q913.0313,95.2314 912.2344,95.5596 Q911.1563,96.0127 909.8594,96.0127 Q908.3438,96.0127 907.1406,95.3877 Q906.1563,94.8877 905.4688,93.8252 Q904.7813,92.7471 904.7813,91.4658 L904.7813,90.3096 Q904.7813,88.9814 905.3906,87.8408 Q906.0156,86.6846 907.1094,86.0752 Q908.2031,85.4502 909.4375,85.4502 Q910.1719,85.4502 910.8125,85.6221 Q911.4688,85.7783 912.0156,86.1377 Z " fill="#000000"/><text fill="#000000" font-family="sans-serif" font-size="14" lengthAdjust="spacing" textLength="142" x="929.75" y="96.0596">CreateOrderController</text><line style="stroke:#181818;stroke-width:0.5;" x1="774" x2="1195" y1="106.2627" y2="106.2627"/><text fill="#000000" font-family="sans-serif" font-size="14" lengthAdjust="spacing" textLength="215" x="779" y="125.3701">orderRepository: OrderRepository</text><text fill="#000000" font-family="sans-serif" font-size="14" lengthAdjust="spacing" textLength="213" x="779" y="143.9912">clientRepository: ClientRepository</text><text fill="#000000" font-family="sans-serif" font-size="14" lengthAdjust="spacing" textLength="323" x="779" y="162.6123">authenticationRepository: AuthenticationRepository</text><text fill="#000000" font-family="sans-serif" font-size="14" lengthAdjust="spacing" textLength="333" x="779" y="181.2334">announcementRepository: AnnouncementRepository</text><text fill="#000000" font-family="sans-serif" font-size="14" lengthAdjust="spacing" textLength="272" x="779" y="199.8545">announcements: List&lt;AnnouncementDTO&gt;</text><line style="stroke:#181818;stroke-width:0.5;" x1="774" x2="1195" y1="207.3682" y2="207.3682"/><ellipse cx="784" cy="222.1787" fill="#84BE84" rx="3" ry="3" style="stroke:#038048;stroke-width:1.0;"/><text fill="#000000" font-family="sans-serif" font-size="14" lengthAdjust="spacing" textLength="156" x="793" y="226.4756">CreateOrderController():</text><ellipse cx="784" cy="240.7998" fill="#84BE84" rx="3" ry="3" style="stroke:#038048;stroke-width:1.0;"/><text fill="#000000" font-family="sans-serif" font-size="14" lengthAdjust="spacing" textLength="397" x="793" y="245.0967">addOrderToTest(AnnouncementDTO, int, ClientDTO): boolean</text><ellipse cx="784" cy="259.4209" fill="#84BE84" rx="3" ry="3" style="stroke:#038048;stroke-width:1.0;"/><text fill="#000000" font-family="sans-serif" font-size="14" lengthAdjust="spacing" textLength="278" x="793" y="263.7178">addOrder(AnnouncementDTO, int): boolean</text><rect fill="#F24D5C" height="6" style="stroke:#C82930;stroke-width:1.0;" width="6" x="781" y="275.042"/><text fill="#000000" font-family="sans-serif" font-size="14" lengthAdjust="spacing" textLength="256" x="793" y="282.3389">getClientByUserEmail(String): ClientDTO</text></g><!--class OrderRepository--><g id="elem_OrderRepository"><rect codeLine="70" fill="#F1F1F1" height="252.832" id="OrderRepository" rx="2.5" ry="2.5" style="stroke:#181818;stroke-width:0.5;" width="479" x="1240" y="387.7627"/><ellipse cx="1422.75" cy="403.7627" fill="#ADD1B2" rx="11" ry="11" style="stroke:#181818;stroke-width:1.0;"/><path d="M1425.5156,399.6377 Q1425.6719,399.4189 1425.8594,399.3096 Q1426.0469,399.2002 1426.2656,399.2002 Q1426.6406,399.2002 1426.875,399.4658 Q1427.1094,399.7158 1427.1094,400.3252 L1427.1094,401.7783 Q1427.1094,402.3877 1426.875,402.6533 Q1426.6406,402.9189 1426.2656,402.9189 Q1425.9219,402.9189 1425.7188,402.7158 Q1425.5156,402.5283 1425.4063,402.0127 Q1425.3594,401.6533 1425.1719,401.4658 Q1424.8438,401.0908 1424.2344,400.8721 Q1423.625,400.6533 1423,400.6533 Q1422.2344,400.6533 1421.5938,400.9814 Q1420.9688,401.3096 1420.4688,402.0596 Q1419.9844,402.8096 1419.9844,403.8408 L1419.9844,404.9346 Q1419.9844,406.1689 1420.875,406.9971 Q1421.7656,407.8096 1423.3594,407.8096 Q1424.2969,407.8096 1424.9531,407.5596 Q1425.3438,407.4033 1425.7656,406.9658 Q1426.0313,406.7002 1426.1719,406.6221 Q1426.3281,406.5439 1426.5313,406.5439 Q1426.8594,406.5439 1427.1094,406.8096 Q1427.375,407.0596 1427.375,407.4033 Q1427.375,407.7471 1427.0313,408.1533 Q1426.5313,408.7314 1425.7344,409.0596 Q1424.6563,409.5127 1423.3594,409.5127 Q1421.8438,409.5127 1420.6406,408.8877 Q1419.6563,408.3877 1418.9688,407.3252 Q1418.2813,406.2471 1418.2813,404.9658 L1418.2813,403.8096 Q1418.2813,402.4814 1418.8906,401.3408 Q1419.5156,400.1846 1420.6094,399.5752 Q1421.7031,398.9502 1422.9375,398.9502 Q1423.6719,398.9502 1424.3125,399.1221 Q1424.9688,399.2783 1425.5156,399.6377 Z " fill="#000000"/><text fill="#000000" font-family="sans-serif" font-size="14" lengthAdjust="spacing" textLength="105" x="1443.25" y="409.5596">OrderRepository</text><line style="stroke:#181818;stroke-width:0.5;" x1="1241" x2="1718" y1="419.7627" y2="419.7627"/><text fill="#000000" font-family="sans-serif" font-size="14" lengthAdjust="spacing" textLength="154" x="1246" y="438.8701">orders: List&lt;OrderDTO&gt;</text><line style="stroke:#181818;stroke-width:0.5;" x1="1241" x2="1718" y1="446.3838" y2="446.3838"/><ellipse cx="1251" cy="461.1943" fill="#84BE84" rx="3" ry="3" style="stroke:#038048;stroke-width:1.0;"/><text fill="#000000" font-family="sans-serif" font-size="14" lengthAdjust="spacing" textLength="119" x="1260" y="465.4912">OrderRepository():</text><ellipse cx="1251" cy="479.8154" fill="#84BE84" rx="3" ry="3" style="stroke:#038048;stroke-width:1.0;"/><text fill="#000000" font-family="sans-serif" font-size="14" lengthAdjust="spacing" textLength="453" x="1260" y="484.1123">createOrder(AnnouncementDTO, int, ClientDTO): Optional&lt;OrderDTO&gt;</text><rect fill="#F24D5C" height="6" style="stroke:#C82930;stroke-width:1.0;" width="6" x="1248" y="495.4365"/><text fill="#000000" font-family="sans-serif" font-size="14" lengthAdjust="spacing" textLength="139" x="1260" y="502.7334">addOrder(order): void</text><rect fill="#F24D5C" height="6" style="stroke:#C82930;stroke-width:1.0;" width="6" x="1248" y="514.0576"/><text fill="#000000" font-family="sans-serif" font-size="14" lengthAdjust="spacing" textLength="121" x="1260" y="521.3545">PutPerorder(): void</text><rect fill="#F24D5C" height="6" style="stroke:#C82930;stroke-width:1.0;" width="6" x="1248" y="532.6787"/><text fill="#000000" font-family="sans-serif" font-size="14" lengthAdjust="spacing" textLength="187" x="1260" y="539.9756">findOrder(OrderDTO): order?</text><ellipse cx="1251" cy="554.2998" fill="#84BE84" rx="3" ry="3" style="stroke:#038048;stroke-width:1.0;"/><text fill="#000000" font-family="sans-serif" font-size="14" lengthAdjust="spacing" textLength="374" x="1260" y="558.5967">rejectOrder(OrderDTO, MessagesOfClientRepository): void</text><ellipse cx="1251" cy="572.9209" fill="#84BE84" rx="3" ry="3" style="stroke:#038048;stroke-width:1.0;"/><text fill="#000000" font-family="sans-serif" font-size="14" lengthAdjust="spacing" textLength="381" x="1260" y="577.2178">acceptOrder(OrderDTO, MessagesOfClientRepository): void</text><ellipse cx="1251" cy="591.542" fill="#84BE84" rx="3" ry="3" style="stroke:#038048;stroke-width:1.0;"/><text fill="#000000" font-family="sans-serif" font-size="14" lengthAdjust="spacing" textLength="362" x="1260" y="595.8389">OrderOfTheAgent(AnnouncementDTO): List&lt;OrderDTO&gt;</text><rect fill="#F24D5C" height="6" style="stroke:#C82930;stroke-width:1.0;" width="6" x="1248" y="607.1631"/><text fill="#000000" font-family="sans-serif" font-size="14" lengthAdjust="spacing" textLength="335" x="1260" y="614.46">valueAlreadyExists(int, AnnouncementDTO): boolean</text><rect fill="#F24D5C" height="6" style="stroke:#C82930;stroke-width:1.0;" width="6" x="1248" y="625.7842"/><text fill="#000000" font-family="sans-serif" font-size="14" lengthAdjust="spacing" textLength="385" x="1260" y="633.0811">clientAlreadyExists(ClientDTO, AnnouncementDTO): boolean</text></g><!--class Order--><g id="elem_Order"><rect codeLine="83" fill="#F1F1F1" height="178.3477" id="Order" rx="2.5" ry="2.5" style="stroke:#181818;stroke-width:0.5;" width="236" x="1534.5" y="822.2627"/><ellipse cx="1629.75" cy="838.2627" fill="#ADD1B2" rx="11" ry="11" style="stroke:#181818;stroke-width:1.0;"/><path d="M1632.5156,834.1377 Q1632.6719,833.9189 1632.8594,833.8096 Q1633.0469,833.7002 1633.2656,833.7002 Q1633.6406,833.7002 1633.875,833.9658 Q1634.1094,834.2158 1634.1094,834.8252 L1634.1094,836.2783 Q1634.1094,836.8877 1633.875,837.1533 Q1633.6406,837.4189 1633.2656,837.4189 Q1632.9219,837.4189 1632.7188,837.2158 Q1632.5156,837.0283 1632.4063,836.5127 Q1632.3594,836.1533 1632.1719,835.9658 Q1631.8438,835.5908 1631.2344,835.3721 Q1630.625,835.1533 1630,835.1533 Q1629.2344,835.1533 1628.5938,835.4814 Q1627.9688,835.8096 1627.4688,836.5596 Q1626.9844,837.3096 1626.9844,838.3408 L1626.9844,839.4346 Q1626.9844,840.6689 1627.875,841.4971 Q1628.7656,842.3096 1630.3594,842.3096 Q1631.2969,842.3096 1631.9531,842.0596 Q1632.3438,841.9033 1632.7656,841.4658 Q1633.0313,841.2002 1633.1719,841.1221 Q1633.3281,841.0439 1633.5313,841.0439 Q1633.8594,841.0439 1634.1094,841.3096 Q1634.375,841.5596 1634.375,841.9033 Q1634.375,842.2471 1634.0313,842.6533 Q1633.5313,843.2314 1632.7344,843.5596 Q1631.6563,844.0127 1630.3594,844.0127 Q1628.8438,844.0127 1627.6406,843.3877 Q1626.6563,842.8877 1625.9688,841.8252 Q1625.2813,840.7471 1625.2813,839.4658 L1625.2813,838.3096 Q1625.2813,836.9814 1625.8906,835.8408 Q1626.5156,834.6846 1627.6094,834.0752 Q1628.7031,833.4502 1629.9375,833.4502 Q1630.6719,833.4502 1631.3125,833.6221 Q1631.9688,833.7783 1632.5156,834.1377 Z " fill="#000000"/><text fill="#000000" font-family="sans-serif" font-size="14" lengthAdjust="spacing" textLength="37" x="1650.25" y="844.0596">Order</text><line style="stroke:#181818;stroke-width:0.5;" x1="1535.5" x2="1769.5" y1="854.2627" y2="854.2627"/><text fill="#000000" font-family="sans-serif" font-size="14" lengthAdjust="spacing" textLength="57" x="1540.5" y="873.3701">value: int</text><text fill="#000000" font-family="sans-serif" font-size="14" lengthAdjust="spacing" textLength="77" x="1540.5" y="891.9912">client: Client</text><text fill="#000000" font-family="sans-serif" font-size="14" lengthAdjust="spacing" textLength="190" x="1540.5" y="910.6123">statusOfOrder: StatusOfOrder</text><text fill="#000000" font-family="sans-serif" font-size="14" lengthAdjust="spacing" textLength="197" x="1540.5" y="929.2334">announcement: Announcement</text><line style="stroke:#181818;stroke-width:0.5;" x1="1535.5" x2="1769.5" y1="936.7471" y2="936.7471"/><ellipse cx="1545.5" cy="951.5576" fill="#84BE84" rx="3" ry="3" style="stroke:#038048;stroke-width:1.0;"/><text fill="#000000" font-family="sans-serif" font-size="14" lengthAdjust="spacing" textLength="210" x="1554.5" y="955.8545">order(Announcement, int, Client):</text><ellipse cx="1545.5" cy="970.1787" fill="#84BE84" rx="3" ry="3" style="stroke:#038048;stroke-width:1.0;"/><text fill="#000000" font-family="sans-serif" font-size="14" lengthAdjust="spacing" textLength="104" x="1554.5" y="974.4756">toString(): String</text><ellipse cx="1545.5" cy="988.7998" fill="#84BE84" rx="3" ry="3" style="stroke:#038048;stroke-width:1.0;"/><text fill="#000000" font-family="sans-serif" font-size="14" lengthAdjust="spacing" textLength="164" x="1554.5" y="993.0967">validateOrder(order): void</text></g><!--class OrderDTO--><g id="elem_OrderDTO"><rect codeLine="92" fill="#F1F1F1" height="141.1055" id="OrderDTO" rx="2.5" ry="2.5" style="stroke:#181818;stroke-width:0.5;" width="429" x="998" y="1181.7627"/><ellipse cx="1174.75" cy="1197.7627" fill="#ADD1B2" rx="11" ry="11" style="stroke:#181818;stroke-width:1.0;"/><path d="M1177.5156,1193.6377 Q1177.6719,1193.4189 1177.8594,1193.3096 Q1178.0469,1193.2002 1178.2656,1193.2002 Q1178.6406,1193.2002 1178.875,1193.4658 Q1179.1094,1193.7158 1179.1094,1194.3252 L1179.1094,1195.7783 Q1179.1094,1196.3877 1178.875,1196.6533 Q1178.6406,1196.9189 1178.2656,1196.9189 Q1177.9219,1196.9189 1177.7188,1196.7158 Q1177.5156,1196.5283 1177.4063,1196.0127 Q1177.3594,1195.6533 1177.1719,1195.4658 Q1176.8438,1195.0908 1176.2344,1194.8721 Q1175.625,1194.6533 1175,1194.6533 Q1174.2344,1194.6533 1173.5938,1194.9814 Q1172.9688,1195.3096 1172.4688,1196.0596 Q1171.9844,1196.8096 1171.9844,1197.8408 L1171.9844,1198.9346 Q1171.9844,1200.1689 1172.875,1200.9971 Q1173.7656,1201.8096 1175.3594,1201.8096 Q1176.2969,1201.8096 1176.9531,1201.5596 Q1177.3438,1201.4033 1177.7656,1200.9658 Q1178.0313,1200.7002 1178.1719,1200.6221 Q1178.3281,1200.5439 1178.5313,1200.5439 Q1178.8594,1200.5439 1179.1094,1200.8096 Q1179.375,1201.0596 1179.375,1201.4033 Q1179.375,1201.7471 1179.0313,1202.1533 Q1178.5313,1202.7314 1177.7344,1203.0596 Q1176.6563,1203.5127 1175.3594,1203.5127 Q1173.8438,1203.5127 1172.6406,1202.8877 Q1171.6563,1202.3877 1170.9688,1201.3252 Q1170.2813,1200.2471 1170.2813,1198.9658 L1170.2813,1197.8096 Q1170.2813,1196.4814 1170.8906,1195.3408 Q1171.5156,1194.1846 1172.6094,1193.5752 Q1173.7031,1192.9502 1174.9375,1192.9502 Q1175.6719,1192.9502 1176.3125,1193.1221 Q1176.9688,1193.2783 1177.5156,1193.6377 Z " fill="#000000"/><text fill="#000000" font-family="sans-serif" font-size="14" lengthAdjust="spacing" textLength="67" x="1195.25" y="1203.5596">OrderDTO</text><line style="stroke:#181818;stroke-width:0.5;" x1="999" x2="1426" y1="1213.7627" y2="1213.7627"/><text fill="#000000" font-family="sans-serif" font-size="14" lengthAdjust="spacing" textLength="57" x="1004" y="1232.8701">value: int</text><text fill="#000000" font-family="sans-serif" font-size="14" lengthAdjust="spacing" textLength="190" x="1004" y="1251.4912">statusOfOrder: StatusOfOrder</text><text fill="#000000" font-family="sans-serif" font-size="14" lengthAdjust="spacing" textLength="227" x="1004" y="1270.1123">announcement: AnnouncementDTO</text><text fill="#000000" font-family="sans-serif" font-size="14" lengthAdjust="spacing" textLength="107" x="1004" y="1288.7334">client: ClientDTO</text><line style="stroke:#181818;stroke-width:0.5;" x1="999" x2="1426" y1="1296.2471" y2="1296.2471"/><ellipse cx="1009" cy="1311.0576" fill="#84BE84" rx="3" ry="3" style="stroke:#038048;stroke-width:1.0;"/><text fill="#000000" font-family="sans-serif" font-size="14" lengthAdjust="spacing" textLength="403" x="1018" y="1315.3545">OrderDTO(AnnouncementDTO, int, ClientDTO, StatusOfOrder):</text></g><!--class OrderMapper--><g id="elem_OrderMapper"><rect codeLine="99" fill="#F1F1F1" height="103.8633" id="OrderMapper" rx="2.5" ry="2.5" style="stroke:#181818;stroke-width:0.5;" width="192" x="1259.5" y="859.2627"/><ellipse cx="1308.75" cy="875.2627" fill="#ADD1B2" rx="11" ry="11" style="stroke:#181818;stroke-width:1.0;"/><path d="M1311.5156,871.1377 Q1311.6719,870.9189 1311.8594,870.8096 Q1312.0469,870.7002 1312.2656,870.7002 Q1312.6406,870.7002 1312.875,870.9658 Q1313.1094,871.2158 1313.1094,871.8252 L1313.1094,873.2783 Q1313.1094,873.8877 1312.875,874.1533 Q1312.6406,874.4189 1312.2656,874.4189 Q1311.9219,874.4189 1311.7188,874.2158 Q1311.5156,874.0283 1311.4063,873.5127 Q1311.3594,873.1533 1311.1719,872.9658 Q1310.8438,872.5908 1310.2344,872.3721 Q1309.625,872.1533 1309,872.1533 Q1308.2344,872.1533 1307.5938,872.4814 Q1306.9688,872.8096 1306.4688,873.5596 Q1305.9844,874.3096 1305.9844,875.3408 L1305.9844,876.4346 Q1305.9844,877.6689 1306.875,878.4971 Q1307.7656,879.3096 1309.3594,879.3096 Q1310.2969,879.3096 1310.9531,879.0596 Q1311.3438,878.9033 1311.7656,878.4658 Q1312.0313,878.2002 1312.1719,878.1221 Q1312.3281,878.0439 1312.5313,878.0439 Q1312.8594,878.0439 1313.1094,878.3096 Q1313.375,878.5596 1313.375,878.9033 Q1313.375,879.2471 1313.0313,879.6533 Q1312.5313,880.2314 1311.7344,880.5596 Q1310.6563,881.0127 1309.3594,881.0127 Q1307.8438,881.0127 1306.6406,880.3877 Q1305.6563,879.8877 1304.9688,878.8252 Q1304.2813,877.7471 1304.2813,876.4658 L1304.2813,875.3096 Q1304.2813,873.9814 1304.8906,872.8408 Q1305.5156,871.6846 1306.6094,871.0752 Q1307.7031,870.4502 1308.9375,870.4502 Q1309.6719,870.4502 1310.3125,870.6221 Q1310.9688,870.7783 1311.5156,871.1377 Z " fill="#000000"/><text fill="#000000" font-family="sans-serif" font-size="14" lengthAdjust="spacing" textLength="85" x="1329.25" y="881.0596">OrderMapper</text><line style="stroke:#181818;stroke-width:0.5;" x1="1260.5" x2="1450.5" y1="891.2627" y2="891.2627"/><line style="stroke:#181818;stroke-width:0.5;" x1="1260.5" x2="1450.5" y1="899.2627" y2="899.2627"/><ellipse cx="1270.5" cy="914.0732" fill="#84BE84" rx="3" ry="3" style="stroke:#038048;stroke-width:1.0;"/><text fill="#000000" font-family="sans-serif" font-size="14" lengthAdjust="spacing" textLength="99" x="1279.5" y="918.3701">OrderMapper():</text><ellipse cx="1270.5" cy="932.6943" fill="#84BE84" rx="3" ry="3" style="stroke:#038048;stroke-width:1.0;"/><text fill="#000000" font-family="sans-serif" font-size="14" lengthAdjust="spacing" textLength="166" x="1279.5" y="936.9912">toEntity(OrderDTO): order</text><ellipse cx="1270.5" cy="951.3154" fill="#84BE84" rx="3" ry="3" style="stroke:#038048;stroke-width:1.0;"/><text fill="#000000" font-family="sans-serif" font-size="14" lengthAdjust="spacing" textLength="161" x="1279.5" y="955.6123">toDTO(order): OrderDTO</text></g><!--class StatusOfOrder--><g id="elem_StatusOfOrder"><rect codeLine="104" fill="#F1F1F1" height="116.4453" id="StatusOfOrder" rx="2.5" ry="2.5" style="stroke:#181818;stroke-width:0.5;" width="222" x="1541.5" y="1194.2627"/><ellipse cx="1602.25" cy="1216.5537" fill="#EB937F" rx="11" ry="11" style="stroke:#181818;stroke-width:1.0;"/><path d="M1601.1094,1217.3506 L1601.1094,1219.8506 L1605.4375,1219.8506 L1605.4375,1218.9287 Q1605.4375,1218.3193 1605.6719,1218.0537 Q1605.9219,1217.7881 1606.2969,1217.7881 Q1606.6719,1217.7881 1606.9063,1218.0537 Q1607.1406,1218.3193 1607.1406,1218.9287 L1607.1406,1221.5537 L1599.1406,1221.5537 Q1598.5156,1221.5537 1598.25,1221.3193 Q1598,1221.085 1598,1220.6943 Q1598,1220.3193 1598.2656,1220.085 Q1598.5313,1219.8506 1599.1406,1219.8506 L1599.4063,1219.8506 L1599.4063,1213.1943 L1599.1406,1213.1943 Q1598.5156,1213.1943 1598.25,1212.96 Q1598,1212.7256 1598,1212.335 Q1598,1211.96 1598.25,1211.7256 Q1598.5156,1211.4912 1599.1406,1211.4912 L1606.7656,1211.4912 L1606.7656,1214.085 Q1606.7656,1214.6943 1606.5313,1214.96 Q1606.3125,1215.21 1605.9219,1215.21 Q1605.5469,1215.21 1605.3125,1214.96 Q1605.0781,1214.6943 1605.0781,1214.085 L1605.0781,1213.1943 L1601.1094,1213.1943 L1601.1094,1215.6475 L1602.5938,1215.6475 Q1602.5938,1214.9912 1602.7188,1214.8037 Q1602.9844,1214.3975 1603.4531,1214.3975 Q1603.8281,1214.3975 1604.0625,1214.6631 Q1604.2969,1214.9131 1604.2969,1215.5225 L1604.2969,1217.4912 Q1604.2969,1218.0381 1604.1719,1218.2256 Q1603.9063,1218.6162 1603.4531,1218.6162 Q1602.9844,1218.6162 1602.7188,1218.21 Q1602.5938,1218.0225 1602.5938,1217.3506 L1601.1094,1217.3506 Z " fill="#000000"/><text fill="#000000" font-family="sans-serif" font-size="12" font-style="italic" lengthAdjust="spacing" textLength="84" x="1626.75" y="1212.2119">&#171;enumeration&#187;</text><text fill="#000000" font-family="sans-serif" font-size="14" lengthAdjust="spacing" textLength="92" x="1622.75" y="1230.3311">StatusOfOrder</text><line style="stroke:#181818;stroke-width:0.5;" x1="1542.5" x2="1762.5" y1="1238.8447" y2="1238.8447"/><line style="stroke:#181818;stroke-width:0.5;" x1="1542.5" x2="1762.5" y1="1246.8447" y2="1246.8447"/><ellipse cx="1552.5" cy="1261.6553" fill="#84BE84" rx="3" ry="3" style="stroke:#038048;stroke-width:1.0;"/><text fill="#000000" font-family="sans-serif" font-size="14" lengthAdjust="spacing" textLength="106" x="1561.5" y="1265.9521">StatusOfOrder():</text><ellipse cx="1552.5" cy="1280.2764" fill="#84BE84" rx="3" ry="3" style="stroke:#038048;stroke-width:1.0;"/><text fill="#000000" font-family="sans-serif" font-size="14" lengthAdjust="spacing" textLength="159" x="1561.5" y="1284.5732">values(): StatusOfOrder[]</text><ellipse cx="1552.5" cy="1298.8975" fill="#84BE84" rx="3" ry="3" style="stroke:#038048;stroke-width:1.0;"/><text fill="#000000" font-family="sans-serif" font-size="14" lengthAdjust="spacing" textLength="196" x="1561.5" y="1303.1943">valueOf(String): StatusOfOrder</text></g><!--class ListDealUI--><g id="elem_ListDealUI"><rect codeLine="110" fill="#F1F1F1" height="66.6211" id="ListDealUI" rx="2.5" ry="2.5" style="stroke:#181818;stroke-width:0.5;" width="95" x="7" y="148.7627"/><ellipse cx="22" cy="164.7627" fill="#ADD1B2" rx="11" ry="11" style="stroke:#181818;stroke-width:1.0;"/><path d="M24.7656,160.6377 Q24.9219,160.4189 25.1094,160.3096 Q25.2969,160.2002 25.5156,160.2002 Q25.8906,160.2002 26.125,160.4658 Q26.3594,160.7158 26.3594,161.3252 L26.3594,162.7783 Q26.3594,163.3877 26.125,163.6533 Q25.8906,163.9189 25.5156,163.9189 Q25.1719,163.9189 24.9688,163.7158 Q24.7656,163.5283 24.6563,163.0127 Q24.6094,162.6533 24.4219,162.4658 Q24.0938,162.0908 23.4844,161.8721 Q22.875,161.6533 22.25,161.6533 Q21.4844,161.6533 20.8438,161.9814 Q20.2188,162.3096 19.7188,163.0596 Q19.2344,163.8096 19.2344,164.8408 L19.2344,165.9346 Q19.2344,167.1689 20.125,167.9971 Q21.0156,168.8096 22.6094,168.8096 Q23.5469,168.8096 24.2031,168.5596 Q24.5938,168.4033 25.0156,167.9658 Q25.2813,167.7002 25.4219,167.6221 Q25.5781,167.5439 25.7813,167.5439 Q26.1094,167.5439 26.3594,167.8096 Q26.625,168.0596 26.625,168.4033 Q26.625,168.7471 26.2813,169.1533 Q25.7813,169.7314 24.9844,170.0596 Q23.9063,170.5127 22.6094,170.5127 Q21.0938,170.5127 19.8906,169.8877 Q18.9063,169.3877 18.2188,168.3252 Q17.5313,167.2471 17.5313,165.9658 L17.5313,164.8096 Q17.5313,163.4814 18.1406,162.3408 Q18.7656,161.1846 19.8594,160.5752 Q20.9531,159.9502 22.1875,159.9502 Q22.9219,159.9502 23.5625,160.1221 Q24.2188,160.2783 24.7656,160.6377 Z " fill="#000000"/><text fill="#000000" font-family="sans-serif" font-size="14" lengthAdjust="spacing" textLength="63" x="36" y="170.5596">ListDealUI</text><line style="stroke:#181818;stroke-width:0.5;" x1="8" x2="101" y1="180.7627" y2="180.7627"/><line style="stroke:#181818;stroke-width:0.5;" x1="8" x2="101" y1="188.7627" y2="188.7627"/><ellipse cx="18" cy="203.5732" fill="#84BE84" rx="3" ry="3" style="stroke:#038048;stroke-width:1.0;"/><text fill="#000000" font-family="sans-serif" font-size="14" lengthAdjust="spacing" textLength="65" x="27" y="207.8701">run(): void</text></g><!--class ListDealController--><g id="elem_ListDealController"><rect codeLine="114" fill="#F1F1F1" height="48" id="ListDealController" rx="2.5" ry="2.5" style="stroke:#181818;stroke-width:0.5;" width="145" x="137" y="158.2627"/><ellipse cx="152" cy="174.2627" fill="#ADD1B2" rx="11" ry="11" style="stroke:#181818;stroke-width:1.0;"/><path d="M154.7656,170.1377 Q154.9219,169.9189 155.1094,169.8096 Q155.2969,169.7002 155.5156,169.7002 Q155.8906,169.7002 156.125,169.9658 Q156.3594,170.2158 156.3594,170.8252 L156.3594,172.2783 Q156.3594,172.8877 156.125,173.1533 Q155.8906,173.4189 155.5156,173.4189 Q155.1719,173.4189 154.9688,173.2158 Q154.7656,173.0283 154.6563,172.5127 Q154.6094,172.1533 154.4219,171.9658 Q154.0938,171.5908 153.4844,171.3721 Q152.875,171.1533 152.25,171.1533 Q151.4844,171.1533 150.8438,171.4814 Q150.2188,171.8096 149.7188,172.5596 Q149.2344,173.3096 149.2344,174.3408 L149.2344,175.4346 Q149.2344,176.6689 150.125,177.4971 Q151.0156,178.3096 152.6094,178.3096 Q153.5469,178.3096 154.2031,178.0596 Q154.5938,177.9033 155.0156,177.4658 Q155.2813,177.2002 155.4219,177.1221 Q155.5781,177.0439 155.7813,177.0439 Q156.1094,177.0439 156.3594,177.3096 Q156.625,177.5596 156.625,177.9033 Q156.625,178.2471 156.2813,178.6533 Q155.7813,179.2314 154.9844,179.5596 Q153.9063,180.0127 152.6094,180.0127 Q151.0938,180.0127 149.8906,179.3877 Q148.9063,178.8877 148.2188,177.8252 Q147.5313,176.7471 147.5313,175.4658 L147.5313,174.3096 Q147.5313,172.9814 148.1406,171.8408 Q148.7656,170.6846 149.8594,170.0752 Q150.9531,169.4502 152.1875,169.4502 Q152.9219,169.4502 153.5625,169.6221 Q154.2188,169.7783 154.7656,170.1377 Z " fill="#000000"/><text fill="#000000" font-family="sans-serif" font-size="14" lengthAdjust="spacing" textLength="113" x="166" y="180.0596">ListDealController</text><line style="stroke:#181818;stroke-width:0.5;" x1="138" x2="281" y1="190.2627" y2="190.2627"/><line style="stroke:#181818;stroke-width:0.5;" x1="138" x2="281" y1="198.2627" y2="198.2627"/></g><!--class Client--><g id="elem_Client"><rect codeLine="117" fill="#F1F1F1" height="141.1055" id="Client" rx="2.5" ry="2.5" style="stroke:#181818;stroke-width:0.5;" width="484" x="1798.5" y="1181.7627"/><ellipse cx="2018.25" cy="1197.7627" fill="#ADD1B2" rx="11" ry="11" style="stroke:#181818;stroke-width:1.0;"/><path d="M2021.0156,1193.6377 Q2021.1719,1193.4189 2021.3594,1193.3096 Q2021.5469,1193.2002 2021.7656,1193.2002 Q2022.1406,1193.2002 2022.375,1193.4658 Q2022.6094,1193.7158 2022.6094,1194.3252 L2022.6094,1195.7783 Q2022.6094,1196.3877 2022.375,1196.6533 Q2022.1406,1196.9189 2021.7656,1196.9189 Q2021.4219,1196.9189 2021.2188,1196.7158 Q2021.0156,1196.5283 2020.9063,1196.0127 Q2020.8594,1195.6533 2020.6719,1195.4658 Q2020.3438,1195.0908 2019.7344,1194.8721 Q2019.125,1194.6533 2018.5,1194.6533 Q2017.7344,1194.6533 2017.0938,1194.9814 Q2016.4688,1195.3096 2015.9688,1196.0596 Q2015.4844,1196.8096 2015.4844,1197.8408 L2015.4844,1198.9346 Q2015.4844,1200.1689 2016.375,1200.9971 Q2017.2656,1201.8096 2018.8594,1201.8096 Q2019.7969,1201.8096 2020.4531,1201.5596 Q2020.8438,1201.4033 2021.2656,1200.9658 Q2021.5313,1200.7002 2021.6719,1200.6221 Q2021.8281,1200.5439 2022.0313,1200.5439 Q2022.3594,1200.5439 2022.6094,1200.8096 Q2022.875,1201.0596 2022.875,1201.4033 Q2022.875,1201.7471 2022.5313,1202.1533 Q2022.0313,1202.7314 2021.2344,1203.0596 Q2020.1563,1203.5127 2018.8594,1203.5127 Q2017.3438,1203.5127 2016.1406,1202.8877 Q2015.1563,1202.3877 2014.4688,1201.3252 Q2013.7813,1200.2471 2013.7813,1198.9658 L2013.7813,1197.8096 Q2013.7813,1196.4814 2014.3906,1195.3408 Q2015.0156,1194.1846 2016.1094,1193.5752 Q2017.2031,1192.9502 2018.4375,1192.9502 Q2019.1719,1192.9502 2019.8125,1193.1221 Q2020.4688,1193.2783 2021.0156,1193.6377 Z " fill="#000000"/><text fill="#000000" font-family="sans-serif" font-size="14" lengthAdjust="spacing" textLength="36" x="2038.75" y="1203.5596">Client</text><line style="stroke:#181818;stroke-width:0.5;" x1="1799.5" x2="2281.5" y1="1213.7627" y2="1213.7627"/><text fill="#000000" font-family="sans-serif" font-size="14" lengthAdjust="spacing" textLength="164" x="1804.5" y="1232.8701">properties: List&lt;Property&gt;</text><line style="stroke:#181818;stroke-width:0.5;" x1="1799.5" x2="2281.5" y1="1240.3838" y2="1240.3838"/><ellipse cx="1809.5" cy="1255.1943" fill="#84BE84" rx="3" ry="3" style="stroke:#038048;stroke-width:1.0;"/><text fill="#000000" font-family="sans-serif" font-size="14" lengthAdjust="spacing" textLength="379" x="1818.5" y="1259.4912">Client(String, String, int, String, String, String, String, Roles):</text><rect fill="#F24D5C" height="6" style="stroke:#C82930;stroke-width:1.0;" width="6" x="1806.5" y="1270.8154"/><text fill="#000000" font-family="sans-serif" font-size="14" lengthAdjust="spacing" textLength="180" x="1818.5" y="1278.1123">validateTaxNumber(int): void</text><rect fill="#F24D5C" height="6" style="stroke:#C82930;stroke-width:1.0;" width="6" x="1806.5" y="1289.4365"/><text fill="#000000" font-family="sans-serif" font-size="14" lengthAdjust="spacing" textLength="458" x="1818.5" y="1296.7334">validateClient(String, String, int, String, String, String, String, Roles): void</text><ellipse cx="1809.5" cy="1311.0576" fill="#84BE84" rx="3" ry="3" style="stroke:#038048;stroke-width:1.0;"/><text fill="#000000" font-family="sans-serif" font-size="14" lengthAdjust="spacing" textLength="176" x="1818.5" y="1315.3545">addProperty(Property): void</text></g><!--reverse link User to Client--><g id="link_User_Client"><path d="M2128.39,1120.0027 C2113.69,1141.9627 2099.59,1163.0227 2087.16,1181.5927 " fill="none" id="User-backto-Client" style="stroke:#181818;stroke-width:1.0;"/><polygon fill="none" points="2122.79,1115.7927,2139.74,1103.0627,2134.42,1123.5827,2122.79,1115.7927" style="stroke:#181818;stroke-width:1.0;"/></g><!--link User to Roles--><g id="link_User_Roles"><path codeLine="125" d="M2342.36,1103.0627 C2355.35,1136.1927 2367.91,1168.2027 2378.02,1193.9527 " fill="none" id="User-Roles" style="stroke:#181818;stroke-width:1.0;"/><polygon fill="#000000" points="2367.3262,1147.0628,2366.7585,1137.5692,2361.2867,1139.716,2367.3262,1147.0628" style="stroke:#000000;stroke-width:1.0;"/><text fill="#000000" font-family="sans-serif" font-size="13" lengthAdjust="spacing" textLength="21" x="2374.5" y="1147.791">has</text><text fill="#000000" font-family="sans-serif" font-size="13" lengthAdjust="spacing" textLength="7" x="2338.1475" y="1124.9174">1</text><text fill="#000000" font-family="sans-serif" font-size="13" lengthAdjust="spacing" textLength="16" x="2358.3053" y="1182.8291">1.*</text></g><!--link CreateOrderController to Repositories--><g id="link_CreateOrderController_Repositories"><path codeLine="126" d="M1196.22,182.2627 C1229,182.2627 1262.63,182.2627 1294.75,182.2627 " fill="none" id="CreateOrderController-to-Repositories" style="stroke:#181818;stroke-width:1.0;stroke-dasharray:7.0,7.0;"/><polygon fill="#181818" points="1299.89,182.2627,1290.89,178.2627,1294.89,182.2627,1290.89,186.2627,1299.89,182.2627" style="stroke:#181818;stroke-width:1.0;"/><text fill="#000000" font-family="sans-serif" font-size="13" lengthAdjust="spacing" textLength="67" x="1214.5" y="175.291">repositories</text></g><!--link CreateOrderUI to CreateOrderController--><g id="link_CreateOrderUI_CreateOrderController"><path codeLine="127" d="M738.15,182.2627 C747.98,182.2627 757.82,182.2627 767.65,182.2627 " fill="none" id="CreateOrderUI-to-CreateOrderController" style="stroke:#181818;stroke-width:1.0;stroke-dasharray:7.0,7.0;"/><polygon fill="#181818" points="772.79,182.2627,763.79,178.2627,767.79,182.2627,763.79,186.2627,772.79,182.2627" style="stroke:#181818;stroke-width:1.0;"/></g><!--link ListDealUI to ListDealController--><g id="link_ListDealUI_ListDealController"><path codeLine="128" d="M102.03,182.2627 C111.92,182.2627 121.81,182.2627 131.7,182.2627 " fill="none" id="ListDealUI-to-ListDealController" style="stroke:#181818;stroke-width:1.0;stroke-dasharray:7.0,7.0;"/><polygon fill="#181818" points="136.87,182.2627,127.87,178.2627,131.87,182.2627,127.87,186.2627,136.87,182.2627" style="stroke:#181818;stroke-width:1.0;"/></g><!--link ListDealController to Repositories--><g id="link_ListDealController_Repositories"><path codeLine="129" d="M218.84,158.0427 C231.87,128.0327 258.59,78.1327 299.5,55.7627 C388.61,7.0527 1115.11,30.6127 1213.5,55.7627 C1240.66,62.7027 1268.39,72.4727 1295.2,83.5427 " fill="none" id="ListDealController-to-Repositories" style="stroke:#181818;stroke-width:1.0;stroke-dasharray:7.0,7.0;"/><polygon fill="#181818" points="1299.84,85.4827,1293.0598,78.3393,1295.2217,83.5667,1289.9942,85.7286,1299.84,85.4827" style="stroke:#181818;stroke-width:1.0;"/><text fill="#000000" font-family="sans-serif" font-size="13" lengthAdjust="spacing" textLength="67" x="757" y="21.791">repositories</text></g><!--link Repositories to OrderRepository--><g id="link_Repositories_OrderRepository"><path codeLine="131" d="M1479.5,308.9627 C1479.5,333.0227 1479.5,358.2727 1479.5,382.4827 " fill="none" id="Repositories-to-OrderRepository" style="stroke:#181818;stroke-width:1.0;"/><polygon fill="#181818" points="1479.5,387.6427,1483.5,378.6427,1479.5,382.6427,1475.5,378.6427,1479.5,387.6427" style="stroke:#181818;stroke-width:1.0;"/><polygon fill="#000000" points="1484.5,353.4082,1487.4389,344.3631,1481.5611,344.3631,1484.5,353.4082" style="stroke:#000000;stroke-width:1.0;"/><text fill="#000000" font-family="sans-serif" font-size="13" lengthAdjust="spacing" textLength="21" x="1493.5" y="353.791">has</text><text fill="#000000" font-family="sans-serif" font-size="13" lengthAdjust="spacing" textLength="7" x="1472.2977" y="330.8205">1</text><text fill="#000000" font-family="sans-serif" font-size="13" lengthAdjust="spacing" textLength="5" x="1474.3477" y="376.4511">*</text></g><!--link OrderRepository to OrderMapper--><g id="link_OrderRepository_OrderMapper"><path codeLine="132" d="M1440.1,640.7827 C1417.59,712.4927 1390.47,798.8627 1373.11,854.1527 " fill="none" id="OrderRepository-to-OrderMapper" style="stroke:#181818;stroke-width:1.0;"/><polygon fill="#181818" points="1371.57,859.0727,1378.0648,851.6688,1373.0565,854.2988,1370.4265,849.2904,1371.57,859.0727" style="stroke:#181818;stroke-width:1.0;"/><polygon fill="#000000" points="1433.0023,685.1786,1438.5157,677.4292,1432.9077,675.6685,1433.0023,685.1786" style="stroke:#000000;stroke-width:1.0;"/><text fill="#000000" font-family="sans-serif" font-size="13" lengthAdjust="spacing" textLength="30" x="1443.5" y="685.791">Uses</text><text fill="#000000" font-family="sans-serif" font-size="13" lengthAdjust="spacing" textLength="7" x="1430.6198" y="662.6301">1</text><text fill="#000000" font-family="sans-serif" font-size="13" lengthAdjust="spacing" textLength="5" x="1368.3935" y="847.9745">*</text></g><!--link OrderMapper to OrderDTO--><g id="link_OrderMapper_OrderDTO"><path codeLine="133" d="M1333.94,963.3827 C1310.01,1020.1027 1271.19,1112.1427 1243.89,1176.8527 " fill="none" id="OrderMapper-to-OrderDTO" style="stroke:#181818;stroke-width:1.0;"/><polygon fill="#181818" points="1241.94,1181.4627,1249.1265,1174.7282,1243.8854,1176.8567,1241.7569,1171.6155,1241.94,1181.4627" style="stroke:#181818;stroke-width:1.0;"/><polygon fill="#000000" points="1262.5566,1147.0151,1268.7801,1139.8234,1263.3644,1137.5389,1262.5566,1147.0151" style="stroke:#000000;stroke-width:1.0;"/><text fill="#000000" font-family="sans-serif" font-size="13" lengthAdjust="spacing" textLength="43" x="1273.5" y="1147.791">creates</text><text fill="#000000" font-family="sans-serif" font-size="13" lengthAdjust="spacing" textLength="7" x="1323.7292" y="985.2054">1</text><text fill="#000000" font-family="sans-serif" font-size="13" lengthAdjust="spacing" textLength="5" x="1239.7182" y="1170.3228">*</text></g><!--link OrderRepository to Order--><g id="link_OrderRepository_Order"><path codeLine="134" d="M1534.48,640.7827 C1559.54,698.0227 1588.7,764.5927 1611.76,817.2527 " fill="none" id="OrderRepository-to-Order" style="stroke:#181818;stroke-width:1.0;"/><polygon fill="#181818" points="1613.83,821.9827,1613.8873,812.134,1611.8259,817.4019,1606.558,815.3406,1613.83,821.9827" style="stroke:#181818;stroke-width:1.0;"/><polygon fill="#000000" points="1563.5057,684.9883,1562.5694,675.5239,1557.1852,677.8818,1563.5057,684.9883" style="stroke:#000000;stroke-width:1.0;"/><text fill="#000000" font-family="sans-serif" font-size="13" lengthAdjust="spacing" textLength="21" x="1570.5" y="685.791">has</text><text fill="#000000" font-family="sans-serif" font-size="13" lengthAdjust="spacing" textLength="7" x="1530.4562" y="662.6301">1</text><text fill="#000000" font-family="sans-serif" font-size="13" lengthAdjust="spacing" textLength="5" x="1605.4206" y="810.9113">*</text></g><!--link Order to Client--><g id="link_Order_Client"><path codeLine="135" d="M1753.43,1000.4427 C1816.71,1055.7327 1897.3,1126.1427 1956.97,1178.2827 " fill="none" id="Order-to-Client" style="stroke:#181818;stroke-width:1.0;"/><polygon fill="#181818" points="1960.87,1181.6927,1956.7476,1172.7481,1957.1133,1178.3931,1951.4683,1178.7588,1960.87,1181.6927" style="stroke:#181818;stroke-width:1.0;"/><polygon fill="#000000" points="1935.2652,1145.698,1930.3876,1137.5335,1926.5201,1141.9598,1935.2652,1145.698" style="stroke:#000000;stroke-width:1.0;"/><text fill="#000000" font-family="sans-serif" font-size="13" lengthAdjust="spacing" textLength="67" x="1940.5" y="1147.791">has a client</text><text fill="#000000" font-family="sans-serif" font-size="13" lengthAdjust="spacing" textLength="7" x="1754.4984" y="1022.5578">1</text><text fill="#000000" font-family="sans-serif" font-size="13" lengthAdjust="spacing" textLength="5" x="1947.4003" y="1170.5765">*</text></g><!--link OrderDTO to StatusOfOrder--><g id="link_OrderDTO_StatusOfOrder"><path codeLine="136" d="M1427.02,1252.2627 C1464.64,1252.2627 1502.47,1252.2627 1536.11,1252.2627 " fill="none" id="OrderDTO-to-StatusOfOrder" style="stroke:#181818;stroke-width:1.0;"/><polygon fill="#181818" points="1541.48,1252.2627,1532.48,1248.2627,1536.48,1252.2627,1532.48,1256.2627,1541.48,1252.2627" style="stroke:#181818;stroke-width:1.0;"/><polygon fill="#000000" points="1454.25,1239.9082,1445.2049,1236.9693,1445.2049,1242.8471,1454.25,1239.9082" style="stroke:#000000;stroke-width:1.0;"/><text fill="#000000" font-family="sans-serif" font-size="13" lengthAdjust="spacing" textLength="65" x="1458.25" y="1245.291">has a state</text><text fill="#000000" font-family="sans-serif" font-size="13" lengthAdjust="spacing" textLength="5" x="1434.8192" y="1248.9889">*</text><text fill="#000000" font-family="sans-serif" font-size="13" lengthAdjust="spacing" textLength="7" x="1526.4278" y="1248.6879">1</text></g><!--link Order to StatusOfOrder--><g id="link_Order_StatusOfOrder"><path codeLine="137" d="M1652.5,1000.4427 C1652.5,1059.6427 1652.5,1136.1927 1652.5,1189.0727 " fill="none" id="Order-to-StatusOfOrder" style="stroke:#181818;stroke-width:1.0;"/><polygon fill="#181818" points="1652.5,1194.1127,1656.5,1185.1127,1652.5,1189.1127,1648.5,1185.1127,1652.5,1194.1127" style="stroke:#181818;stroke-width:1.0;"/><polygon fill="#000000" points="1657.5,1147.4082,1660.4389,1138.3631,1654.5611,1138.3631,1657.5,1147.4082" style="stroke:#000000;stroke-width:1.0;"/><text fill="#000000" font-family="sans-serif" font-size="13" lengthAdjust="spacing" textLength="65" x="1666.5" y="1147.791">has a state</text><text fill="#000000" font-family="sans-serif" font-size="13" lengthAdjust="spacing" textLength="5" x="1647.293" y="1022.5578">*</text><text fill="#000000" font-family="sans-serif" font-size="13" lengthAdjust="spacing" textLength="7" x="1645.0734" y="1183.0086">1</text></g><!--SRC=[jLTBRziu4BxhLn2-hDh41Rf78N3XJN88i5q7ZNCgUc2aiSsM8WMIQgCDihzz-PH8IMu3jpt5dFVZcnb5VY6imGBNgEQCbmV1Qq0xJ2LaicSrkFo2zt2dEWf8GAamszDOG1vmnRyHjf-eKi90TGsWXjFEFEPuN2YUHOoIOYdNIWdoq2guAJcx8_y2MlovoFwWi5D8SIJ8_g1GHKmuXBCiowmM-W0DbqHnGK2YfmoXPKBANnMQzXzg16z0gAxdTGMwdT2iA6xL0PWY9JQEOeNr4OvLAodHl5ZySaInmH4cTJbBA98mdMF6UAjPzSZEUfQkLKxGs8WAH2mw8XYPeo6-BCTJ2lZSz_DUWh1zFBC_ypkD2hO_H-4lOMfu7FlxWLEGjlDBr1muqwaubgKmNAS4g36X2GLNbG0f4vh2Z_-qzGE8mWHXIHN8iZ6ff9B2k2zS52u6dTatBgf8wao3sZqqH0VoEBWvrNctaomccSzaDGvrdEHp1goj7HjTN23p0c6xXrOhtoVBTODsXhvYsjgN8t_yD50tEz_Dm3HjTrs_580LM2pUttYp2ItttQo8R2Zkrgow0wfNGOnqupH-NsqtxwmbqJB3-yf9POt8zg4cwWehd91xsuE9ZIjp_ZUHwc9aUnLqdwT9N7AcT6bfZ-LPNgYPxelbRFaMfCf7VZpctQJfjtRxm7NvC4kKPzKIsINQWt9c_khCS5qRn0mzwJqO8F0NB8hVjWvEMcsnXeRqRClwNesoyLqQKKD_og5vBsYEmmoc5rR1UlKhnLcmbOrnTzkgMn2MdE1nHvXN2POqrufvMCDdFG6fn3bwhoTS7s-vsOsRCTZMg2bBQ4xKjVARtVO0wxqPkr59NldQf-dR3R2ckf9LT_se-JAtbPignu1r24lL-bf_NzbLIaw2IH3W-yudhKtwwc4mkx3jRYDLZuzHTrtUuMBuVCAS68e-jQhL1RVQncxq7ACwHN-QYSuj1h5-_WYgvwapc-GetDE3yriapTSGaw3VuwRfcn1HyhxYrtezg6uo09vhiWm53oBXPYN17hrTYTJqXYNiOxSiBKj_qmpkhW3J-vkdoHMQ20r7uIcwYhPg21uLi2hvD7ASd_yu2jZTXhEVkwFHxw0Wy0iSHikdgiAtTnv-H2FZlzK9XE4DCcPuCrk5nTl5Shbu- -Rrmd-R5EY09LfbypVupIhzFw7GkpFwias_FhJmh9LiQAYHcNOkcvAquFSSPmbJ9uMMonLQwAp6zodaDwPFTFn85GOjlO8dJeJDqYZyUNkHzJIEXE_1wWImd_mWQHmP8IEhTTBP32fcsy1W-_LYkVgnyFy0]--></g></svg>