<?xml version="1.0" encoding="us-ascii" standalone="no"?><svg xmlns="http://www.w3.org/2000/svg" xmlns:xlink="http://www.w3.org/1999/xlink" contentStyleType="text/css" height="1146px" preserveAspectRatio="none" style="width:1710px;height:1146px;background:#FFFFFF;" version="1.1" viewBox="0 0 1710 1146" width="1710px" zoomAndPan="magnify"><defs/><g><rect fill="#FFFFFF" height="951.7207" style="stroke:#181818;stroke-width:1.0;" width="10" x="44.5" y="93.6211"/><rect fill="#FFFFFF" height="231.3672" style="stroke:#181818;stroke-width:1.0;" width="10" x="376.5" y="116.9121"/><rect fill="#FFFFFF" height="92.873" style="stroke:#181818;stroke-width:1.0;" width="10" x="376.5" y="396.8613"/><rect fill="#FFFFFF" height="524.3164" style="stroke:#181818;stroke-width:1.0;" width="10" x="376.5" y="521.0254"/><rect fill="#FFFFFF" height="158.7852" style="stroke:#181818;stroke-width:1.0;" width="10" x="677.5" y="158.2031"/><rect fill="#FFFFFF" height="444.4434" style="stroke:#181818;stroke-width:1.0;" width="10" x="677.5" y="569.6074"/><rect fill="#FFFFFF" height="125.1641" style="stroke:#181818;stroke-width:1.0;" width="10" x="978.5" y="191.8242"/><rect fill="#FFFFFF" height="364.5703" style="stroke:#181818;stroke-width:1.0;" width="10" x="978.5" y="618.1895"/><rect fill="#FFFFFF" height="79.2422" style="stroke:#181818;stroke-width:1.0;" width="10" x="1305.5" y="676.7715"/><rect fill="#FFFFFF" height="36.291" style="stroke:#181818;stroke-width:1.0;" width="10" x="1310.5" y="719.7227"/><rect fill="#FFFFFF" height="93.873" style="stroke:#181818;stroke-width:1.0;" width="10" x="1398.5" y="223.1152"/><rect fill="#FFFFFF" height="31.291" style="stroke:#181818;stroke-width:1.0;" width="10" x="1557.5" y="254.4063"/><rect fill="#FFFFFF" height="164.1641" style="stroke:#181818;stroke-width:1.0;" width="10" x="1557.5" y="787.3047"/><line style="stroke:#181818;stroke-width:0.5;stroke-dasharray:5.0,5.0;" x1="49" x2="49" y1="83.6211" y2="1063.3418"/><line style="stroke:#181818;stroke-width:0.5;stroke-dasharray:5.0,5.0;" x1="381" x2="381" y1="83.6211" y2="1063.3418"/><line style="stroke:#181818;stroke-width:0.5;stroke-dasharray:5.0,5.0;" x1="682" x2="682" y1="156.7227" y2="1063.3418"/><line style="stroke:#181818;stroke-width:0.5;stroke-dasharray:5.0,5.0;" x1="983.5" x2="983.5" y1="83.6211" y2="1063.3418"/><line style="stroke:#181818;stroke-width:0.5;stroke-dasharray:5.0,5.0;" x1="1310.5" x2="1310.5" y1="667.3105" y2="1063.3418"/><line style="stroke:#181818;stroke-width:0.5;stroke-dasharray:5.0,5.0;" x1="1403.5" x2="1403.5" y1="83.6211" y2="1063.3418"/><line style="stroke:#181818;stroke-width:0.5;stroke-dasharray:5.0,5.0;" x1="1562.5" x2="1562.5" y1="83.6211" y2="1063.3418"/><text fill="#000000" font-family="sans-serif" font-size="14" lengthAdjust="spacing" textLength="83" x="5" y="80.1074">Administrator</text><ellipse cx="49.5" cy="13.5" fill="#E3E3E3" rx="8" ry="8" style="stroke:#181818;stroke-width:0.5;"/><path d="M49.5,21.5 L49.5,48.5 M36.5,29.5 L62.5,29.5 M49.5,48.5 L36.5,63.5 M49.5,48.5 L62.5,63.5 " fill="none" style="stroke:#181818;stroke-width:0.5;"/><text fill="#000000" font-family="sans-serif" font-size="14" lengthAdjust="spacing" textLength="83" x="5" y="1077.4492">Administrator</text><ellipse cx="49.5" cy="1089.4629" fill="#E3E3E3" rx="8" ry="8" style="stroke:#181818;stroke-width:0.5;"/><path d="M49.5,1097.4629 L49.5,1124.4629 M36.5,1105.4629 L62.5,1105.4629 M49.5,1124.4629 L36.5,1139.4629 M49.5,1124.4629 L62.5,1139.4629 " fill="none" style="stroke:#181818;stroke-width:0.5;"/><rect fill="#E3E3E3" height="32.6211" rx="2.5" ry="2.5" style="stroke:#181818;stroke-width:0.5;" width="107" x="328" y="50"/><text fill="#000000" font-family="sans-serif" font-size="14" lengthAdjust="spacing" textLength="93" x="335" y="72.1074">:CreateStoreUI</text><rect fill="#E3E3E3" height="32.6211" rx="2.5" ry="2.5" style="stroke:#181818;stroke-width:0.5;" width="107" x="328" y="1062.3418"/><text fill="#000000" font-family="sans-serif" font-size="14" lengthAdjust="spacing" textLength="93" x="335" y="1084.4492">:CreateStoreUI</text><rect fill="#E3E3E3" height="32.6211" rx="2.5" ry="2.5" style="stroke:#181818;stroke-width:0.5;" width="157" x="604" y="1062.3418"/><text fill="#000000" font-family="sans-serif" font-size="14" lengthAdjust="spacing" textLength="143" x="611" y="1084.4492">:CreateStoreController</text><rect fill="#E3E3E3" height="32.6211" rx="2.5" ry="2.5" style="stroke:#181818;stroke-width:0.5;" width="106" x="930.5" y="50"/><text fill="#000000" font-family="sans-serif" font-size="14" lengthAdjust="spacing" textLength="92" x="937.5" y="72.1074">:StoreNetWork</text><rect fill="#E3E3E3" height="32.6211" rx="2.5" ry="2.5" style="stroke:#181818;stroke-width:0.5;" width="106" x="930.5" y="1062.3418"/><text fill="#000000" font-family="sans-serif" font-size="14" lengthAdjust="spacing" textLength="92" x="937.5" y="1084.4492">:StoreNetWork</text><rect fill="#E3E3E3" height="51.2422" rx="2.5" ry="2.5" style="stroke:#181818;stroke-width:0.5;" width="52" x="1284.5" y="1062.3418"/><text fill="#000000" font-family="sans-serif" font-size="14" lengthAdjust="spacing" textLength="32" x="1294.5" y="1084.4492">store</text><text fill="#000000" font-family="sans-serif" font-size="14" lengthAdjust="spacing" textLength="38" x="1291.5" y="1103.0703">:Store</text><rect fill="#E3E3E3" height="32.6211" rx="2.5" ry="2.5" style="stroke:#181818;stroke-width:0.5;" width="86" x="1360.5" y="50"/><text fill="#000000" font-family="sans-serif" font-size="14" lengthAdjust="spacing" textLength="72" x="1367.5" y="72.1074">:Repository</text><rect fill="#E3E3E3" height="32.6211" rx="2.5" ry="2.5" style="stroke:#181818;stroke-width:0.5;" width="86" x="1360.5" y="1062.3418"/><text fill="#000000" font-family="sans-serif" font-size="14" lengthAdjust="spacing" textLength="72" x="1367.5" y="1084.4492">:Repository</text><rect fill="#E3E3E3" height="32.6211" rx="2.5" ry="2.5" style="stroke:#181818;stroke-width:0.5;" width="120" x="1502.5" y="50"/><text fill="#000000" font-family="sans-serif" font-size="14" lengthAdjust="spacing" textLength="106" x="1509.5" y="72.1074">:StoreRepository</text><rect fill="#E3E3E3" height="32.6211" rx="2.5" ry="2.5" style="stroke:#181818;stroke-width:0.5;" width="120" x="1502.5" y="1062.3418"/><text fill="#000000" font-family="sans-serif" font-size="14" lengthAdjust="spacing" textLength="106" x="1509.5" y="1084.4492">:StoreRepository</text><rect fill="#FFFFFF" height="951.7207" style="stroke:#181818;stroke-width:1.0;" width="10" x="44.5" y="93.6211"/><rect fill="#FFFFFF" height="231.3672" style="stroke:#181818;stroke-width:1.0;" width="10" x="376.5" y="116.9121"/><rect fill="#FFFFFF" height="92.873" style="stroke:#181818;stroke-width:1.0;" width="10" x="376.5" y="396.8613"/><rect fill="#FFFFFF" height="524.3164" style="stroke:#181818;stroke-width:1.0;" width="10" x="376.5" y="521.0254"/><rect fill="#FFFFFF" height="158.7852" style="stroke:#181818;stroke-width:1.0;" width="10" x="677.5" y="158.2031"/><rect fill="#FFFFFF" height="444.4434" style="stroke:#181818;stroke-width:1.0;" width="10" x="677.5" y="569.6074"/><rect fill="#FFFFFF" height="125.1641" style="stroke:#181818;stroke-width:1.0;" width="10" x="978.5" y="191.8242"/><rect fill="#FFFFFF" height="364.5703" style="stroke:#181818;stroke-width:1.0;" width="10" x="978.5" y="618.1895"/><rect fill="#FFFFFF" height="79.2422" style="stroke:#181818;stroke-width:1.0;" width="10" x="1305.5" y="676.7715"/><rect fill="#FFFFFF" height="36.291" style="stroke:#181818;stroke-width:1.0;" width="10" x="1310.5" y="719.7227"/><rect fill="#FFFFFF" height="93.873" style="stroke:#181818;stroke-width:1.0;" width="10" x="1398.5" y="223.1152"/><rect fill="#FFFFFF" height="31.291" style="stroke:#181818;stroke-width:1.0;" width="10" x="1557.5" y="254.4063"/><rect fill="#FFFFFF" height="164.1641" style="stroke:#181818;stroke-width:1.0;" width="10" x="1557.5" y="787.3047"/><polygon fill="#181818" points="364.5,112.9121,374.5,116.9121,364.5,120.9121,368.5,116.9121" style="stroke:#181818;stroke-width:1.0;"/><line style="stroke:#181818;stroke-width:1.0;" x1="54.5" x2="370.5" y1="116.9121" y2="116.9121"/><text fill="#000000" font-family="sans-serif" font-size="13" font-weight="bold" lengthAdjust="spacing" textLength="7" x="61.5" y="111.6494">1</text><text fill="#000000" font-family="sans-serif" font-size="13" lengthAdjust="spacing" textLength="156" x="72.5" y="111.6494">asks to create a new Store</text><polygon fill="#181818" points="592,144.2031,602,148.2031,592,152.2031,596,148.2031" style="stroke:#181818;stroke-width:1.0;"/><line style="stroke:#181818;stroke-width:1.0;" x1="386.5" x2="598" y1="148.2031" y2="148.2031"/><text fill="#000000" font-family="sans-serif" font-size="13" font-weight="bold" lengthAdjust="spacing" textLength="7" x="393.5" y="142.9404">2</text><text fill="#000000" font-family="sans-serif" font-size="13" lengthAdjust="spacing" textLength="36" x="404.5" y="142.9404">create</text><rect fill="#E3E3E3" height="32.6211" rx="2.5" ry="2.5" style="stroke:#181818;stroke-width:0.5;" width="157" x="604" y="124.9121"/><text fill="#000000" font-family="sans-serif" font-size="14" lengthAdjust="spacing" textLength="143" x="611" y="147.0195">:CreateStoreController</text><polygon fill="#181818" points="966.5,187.8242,976.5,191.8242,966.5,195.8242,970.5,191.8242" style="stroke:#181818;stroke-width:1.0;"/><line style="stroke:#181818;stroke-width:1.0;" x1="687.5" x2="972.5" y1="191.8242" y2="191.8242"/><text fill="#000000" font-family="sans-serif" font-size="13" font-weight="bold" lengthAdjust="spacing" textLength="7" x="694.5" y="186.5615">3</text><text fill="#000000" font-family="sans-serif" font-size="13" lengthAdjust="spacing" textLength="60" x="705.5" y="186.5615">instantiate</text><polygon fill="#181818" points="1386.5,219.1152,1396.5,223.1152,1386.5,227.1152,1390.5,223.1152" style="stroke:#181818;stroke-width:1.0;"/><line style="stroke:#181818;stroke-width:1.0;" x1="988.5" x2="1392.5" y1="223.1152" y2="223.1152"/><text fill="#000000" font-family="sans-serif" font-size="13" font-weight="bold" lengthAdjust="spacing" textLength="7" x="995.5" y="217.8525">4</text><text fill="#000000" font-family="sans-serif" font-size="13" lengthAdjust="spacing" textLength="75" x="1006.5" y="217.8525">getInstance()</text><polygon fill="#181818" points="1545.5,250.4063,1555.5,254.4063,1545.5,258.4063,1549.5,254.4063" style="stroke:#181818;stroke-width:1.0;"/><line style="stroke:#181818;stroke-width:1.0;" x1="1408.5" x2="1551.5" y1="254.4063" y2="254.4063"/><text fill="#000000" font-family="sans-serif" font-size="13" font-weight="bold" lengthAdjust="spacing" textLength="7" x="1415.5" y="249.1436">5</text><text fill="#000000" font-family="sans-serif" font-size="13" lengthAdjust="spacing" textLength="119" x="1426.5" y="249.1436">getStoreRepository()</text><polygon fill="#181818" points="1419.5,281.6973,1409.5,285.6973,1419.5,289.6973,1415.5,285.6973" style="stroke:#181818;stroke-width:1.0;"/><line style="stroke:#181818;stroke-width:1.0;stroke-dasharray:2.0,2.0;" x1="1413.5" x2="1561.5" y1="285.6973" y2="285.6973"/><text fill="#000000" font-family="sans-serif" font-size="13" font-weight="bold" lengthAdjust="spacing" textLength="7" x="1425.5" y="280.4346">6</text><text fill="#000000" font-family="sans-serif" font-size="13" lengthAdjust="spacing" textLength="91" x="1436.5" y="280.4346">storeRepository</text><polygon fill="#181818" points="994.5,312.9883,984.5,316.9883,994.5,320.9883,990.5,316.9883" style="stroke:#181818;stroke-width:1.0;"/><line style="stroke:#181818;stroke-width:1.0;stroke-dasharray:2.0,2.0;" x1="988.5" x2="1402.5" y1="316.9883" y2="316.9883"/><text fill="#000000" font-family="sans-serif" font-size="13" font-weight="bold" lengthAdjust="spacing" textLength="7" x="1000.5" y="311.7256">7</text><text fill="#000000" font-family="sans-serif" font-size="13" lengthAdjust="spacing" textLength="91" x="1011.5" y="311.7256">storeRepository</text><polygon fill="#181818" points="65.5,344.2793,55.5,348.2793,65.5,352.2793,61.5,348.2793" style="stroke:#181818;stroke-width:1.0;"/><line style="stroke:#181818;stroke-width:1.0;stroke-dasharray:2.0,2.0;" x1="59.5" x2="380.5" y1="348.2793" y2="348.2793"/><text fill="#000000" font-family="sans-serif" font-size="13" font-weight="bold" lengthAdjust="spacing" textLength="7" x="71.5" y="343.0166">8</text><text fill="#000000" font-family="sans-serif" font-size="13" lengthAdjust="spacing" textLength="79" x="82.5" y="343.0166">requests data</text><polygon fill="#181818" points="364.5,392.8613,374.5,396.8613,364.5,400.8613,368.5,396.8613" style="stroke:#181818;stroke-width:1.0;"/><line style="stroke:#181818;stroke-width:1.0;" x1="54.5" x2="370.5" y1="396.8613" y2="396.8613"/><text fill="#000000" font-family="sans-serif" font-size="13" font-weight="bold" lengthAdjust="spacing" textLength="7" x="61.5" y="382.9531">9</text><text fill="#000000" font-family="sans-serif" font-size="13" lengthAdjust="spacing" textLength="288" x="72.5" y="374.3076">types requested data (designation, phoneNumber,</text><text fill="#000000" font-family="sans-serif" font-size="13" lengthAdjust="spacing" textLength="250" x="76.5" y="391.5986">e-mail, vatNumber, address,branchNumber)</text><line style="stroke:#181818;stroke-width:1.0;stroke-dasharray:2.0,2.0;" x1="386.5" x2="428.5" y1="445.4434" y2="445.4434"/><line style="stroke:#181818;stroke-width:1.0;stroke-dasharray:2.0,2.0;" x1="428.5" x2="428.5" y1="445.4434" y2="458.4434"/><line style="stroke:#181818;stroke-width:1.0;stroke-dasharray:2.0,2.0;" x1="387.5" x2="428.5" y1="458.4434" y2="458.4434"/><polygon fill="#181818" points="397.5,454.4434,387.5,458.4434,397.5,462.4434,393.5,458.4434" style="stroke:#181818;stroke-width:1.0;"/><text fill="#000000" font-family="sans-serif" font-size="13" font-weight="bold" lengthAdjust="spacing" textLength="14" x="393.5" y="431.5352">10</text><text fill="#000000" font-family="sans-serif" font-size="13" lengthAdjust="spacing" textLength="217" x="411.5" y="422.8896">keepData(designation, phoneNumber,</text><text fill="#000000" font-family="sans-serif" font-size="13" lengthAdjust="spacing" textLength="250" x="415.5" y="440.1807">e-mail, vatNumber, address,branchNumber)</text><polygon fill="#181818" points="65.5,485.7344,55.5,489.7344,65.5,493.7344,61.5,489.7344" style="stroke:#181818;stroke-width:1.0;"/><line style="stroke:#181818;stroke-width:1.0;stroke-dasharray:2.0,2.0;" x1="59.5" x2="380.5" y1="489.7344" y2="489.7344"/><text fill="#000000" font-family="sans-serif" font-size="13" font-weight="bold" lengthAdjust="spacing" textLength="14" x="71.5" y="484.4717">11</text><text fill="#000000" font-family="sans-serif" font-size="13" lengthAdjust="spacing" textLength="248" x="89.5" y="484.4717">show typed data and requests confirmation</text><polygon fill="#181818" points="364.5,517.0254,374.5,521.0254,364.5,525.0254,368.5,521.0254" style="stroke:#181818;stroke-width:1.0;"/><line style="stroke:#181818;stroke-width:1.0;" x1="54.5" x2="370.5" y1="521.0254" y2="521.0254"/><text fill="#000000" font-family="sans-serif" font-size="13" font-weight="bold" lengthAdjust="spacing" textLength="14" x="61.5" y="515.7627">12</text><text fill="#000000" font-family="sans-serif" font-size="13" lengthAdjust="spacing" textLength="70" x="79.5" y="515.7627">submit Data</text><polygon fill="#181818" points="665.5,565.6074,675.5,569.6074,665.5,573.6074,669.5,569.6074" style="stroke:#181818;stroke-width:1.0;"/><line style="stroke:#181818;stroke-width:1.0;" x1="386.5" x2="671.5" y1="569.6074" y2="569.6074"/><text fill="#000000" font-family="sans-serif" font-size="13" font-weight="bold" lengthAdjust="spacing" textLength="14" x="393.5" y="555.6992">13</text><text fill="#000000" font-family="sans-serif" font-size="13" lengthAdjust="spacing" textLength="229" x="411.5" y="547.0537">createStore(designation, phoneNumber,</text><text fill="#000000" font-family="sans-serif" font-size="13" lengthAdjust="spacing" textLength="250" x="415.5" y="564.3447">e-mail, vatNumber, address,branchNumber)</text><polygon fill="#181818" points="966.5,614.1895,976.5,618.1895,966.5,622.1895,970.5,618.1895" style="stroke:#181818;stroke-width:1.0;"/><line style="stroke:#181818;stroke-width:1.0;" x1="687.5" x2="972.5" y1="618.1895" y2="618.1895"/><text fill="#000000" font-family="sans-serif" font-size="13" font-weight="bold" lengthAdjust="spacing" textLength="14" x="694.5" y="604.2813">14</text><text fill="#000000" font-family="sans-serif" font-size="13" lengthAdjust="spacing" textLength="229" x="712.5" y="595.6357">createStore(designation, phoneNumber,</text><text fill="#000000" font-family="sans-serif" font-size="13" lengthAdjust="spacing" textLength="250" x="716.5" y="612.9268">e-mail, vatNumber, address,branchNumber)</text><polygon fill="#181818" points="1272.5,662.7715,1282.5,666.7715,1272.5,670.7715,1276.5,666.7715" style="stroke:#181818;stroke-width:1.0;"/><line style="stroke:#181818;stroke-width:1.0;" x1="988.5" x2="1278.5" y1="666.7715" y2="666.7715"/><text fill="#000000" font-family="sans-serif" font-size="13" font-weight="bold" lengthAdjust="spacing" textLength="14" x="995.5" y="652.8633">15</text><text fill="#000000" font-family="sans-serif" font-size="13" lengthAdjust="spacing" textLength="229" x="1013.5" y="644.2178">createStore(designation, phoneNumber,</text><text fill="#000000" font-family="sans-serif" font-size="13" lengthAdjust="spacing" textLength="250" x="1017.5" y="661.5088">e-mail, vatNumber, address,branchNumber)</text><rect fill="#E3E3E3" height="51.2422" rx="2.5" ry="2.5" style="stroke:#181818;stroke-width:0.5;" width="52" x="1284.5" y="626.1895"/><text fill="#000000" font-family="sans-serif" font-size="14" lengthAdjust="spacing" textLength="32" x="1294.5" y="648.2969">store</text><text fill="#000000" font-family="sans-serif" font-size="14" lengthAdjust="spacing" textLength="38" x="1291.5" y="666.918">:Store</text><line style="stroke:#181818;stroke-width:1.0;" x1="1315.5" x2="1362.5" y1="706.7227" y2="706.7227"/><line style="stroke:#181818;stroke-width:1.0;" x1="1362.5" x2="1362.5" y1="706.7227" y2="719.7227"/><line style="stroke:#181818;stroke-width:1.0;" x1="1321.5" x2="1362.5" y1="719.7227" y2="719.7227"/><polygon fill="#181818" points="1331.5,715.7227,1321.5,719.7227,1331.5,723.7227,1327.5,719.7227" style="stroke:#181818;stroke-width:1.0;"/><text fill="#000000" font-family="sans-serif" font-size="13" font-weight="bold" lengthAdjust="spacing" textLength="14" x="1327.5" y="701.46">16</text><text fill="#000000" font-family="sans-serif" font-size="13" lengthAdjust="spacing" textLength="51" x="1345.5" y="701.46">validate()</text><polygon fill="#181818" points="999.5,752.0137,989.5,756.0137,999.5,760.0137,995.5,756.0137" style="stroke:#181818;stroke-width:1.0;"/><line style="stroke:#181818;stroke-width:1.0;stroke-dasharray:2.0,2.0;" x1="993.5" x2="1309.5" y1="756.0137" y2="756.0137"/><text fill="#000000" font-family="sans-serif" font-size="13" font-weight="bold" lengthAdjust="spacing" textLength="14" x="1005.5" y="750.751">17</text><text fill="#000000" font-family="sans-serif" font-size="13" lengthAdjust="spacing" textLength="29" x="1023.5" y="750.751">store</text><polygon fill="#181818" points="1545.5,783.3047,1555.5,787.3047,1545.5,791.3047,1549.5,787.3047" style="stroke:#181818;stroke-width:1.0;"/><line style="stroke:#181818;stroke-width:1.0;" x1="988.5" x2="1551.5" y1="787.3047" y2="787.3047"/><text fill="#000000" font-family="sans-serif" font-size="13" font-weight="bold" lengthAdjust="spacing" textLength="14" x="995.5" y="782.042">18</text><text fill="#000000" font-family="sans-serif" font-size="13" lengthAdjust="spacing" textLength="89" x="1013.5" y="782.042">addStore(store)</text><line style="stroke:#181818;stroke-width:1.0;" x1="1567.5" x2="1609.5" y1="818.5957" y2="818.5957"/><line style="stroke:#181818;stroke-width:1.0;" x1="1609.5" x2="1609.5" y1="818.5957" y2="831.5957"/><line style="stroke:#181818;stroke-width:1.0;" x1="1568.5" x2="1609.5" y1="831.5957" y2="831.5957"/><polygon fill="#181818" points="1578.5,827.5957,1568.5,831.5957,1578.5,835.5957,1574.5,831.5957" style="stroke:#181818;stroke-width:1.0;"/><text fill="#000000" font-family="sans-serif" font-size="13" font-weight="bold" lengthAdjust="spacing" textLength="14" x="1574.5" y="813.333">19</text><text fill="#000000" font-family="sans-serif" font-size="13" lengthAdjust="spacing" textLength="89" x="1592.5" y="813.333">addStore(store)</text><line style="stroke:#181818;stroke-width:1.0;" x1="1567.5" x2="1609.5" y1="862.8867" y2="862.8867"/><line style="stroke:#181818;stroke-width:1.0;" x1="1609.5" x2="1609.5" y1="862.8867" y2="875.8867"/><line style="stroke:#181818;stroke-width:1.0;" x1="1568.5" x2="1609.5" y1="875.8867" y2="875.8867"/><polygon fill="#181818" points="1578.5,871.8867,1568.5,875.8867,1578.5,879.8867,1574.5,875.8867" style="stroke:#181818;stroke-width:1.0;"/><text fill="#000000" font-family="sans-serif" font-size="13" font-weight="bold" lengthAdjust="spacing" textLength="14" x="1574.5" y="857.624">20</text><text fill="#000000" font-family="sans-serif" font-size="13" lengthAdjust="spacing" textLength="111" x="1592.5" y="857.624">validateStore(store)</text><line style="stroke:#181818;stroke-width:1.0;stroke-dasharray:2.0,2.0;" x1="1567.5" x2="1609.5" y1="907.1777" y2="907.1777"/><line style="stroke:#181818;stroke-width:1.0;stroke-dasharray:2.0,2.0;" x1="1609.5" x2="1609.5" y1="907.1777" y2="920.1777"/><line style="stroke:#181818;stroke-width:1.0;stroke-dasharray:2.0,2.0;" x1="1568.5" x2="1609.5" y1="920.1777" y2="920.1777"/><polygon fill="#181818" points="1578.5,916.1777,1568.5,920.1777,1578.5,924.1777,1574.5,920.1777" style="stroke:#181818;stroke-width:1.0;"/><text fill="#000000" font-family="sans-serif" font-size="13" font-weight="bold" lengthAdjust="spacing" textLength="14" x="1574.5" y="901.915">21</text><text fill="#000000" font-family="sans-serif" font-size="13" lengthAdjust="spacing" textLength="4" x="1592.5" y="901.915">&#160;</text><polygon fill="#181818" points="999.5,947.4688,989.5,951.4688,999.5,955.4688,995.5,951.4688" style="stroke:#181818;stroke-width:1.0;"/><line style="stroke:#181818;stroke-width:1.0;stroke-dasharray:2.0,2.0;" x1="993.5" x2="1561.5" y1="951.4688" y2="951.4688"/><text fill="#000000" font-family="sans-serif" font-size="13" font-weight="bold" lengthAdjust="spacing" textLength="14" x="1005.5" y="946.2061">22</text><text fill="#000000" font-family="sans-serif" font-size="13" lengthAdjust="spacing" textLength="29" x="1023.5" y="946.2061">store</text><polygon fill="#181818" points="698.5,978.7598,688.5,982.7598,698.5,986.7598,694.5,982.7598" style="stroke:#181818;stroke-width:1.0;"/><line style="stroke:#181818;stroke-width:1.0;stroke-dasharray:2.0,2.0;" x1="692.5" x2="982.5" y1="982.7598" y2="982.7598"/><text fill="#000000" font-family="sans-serif" font-size="13" font-weight="bold" lengthAdjust="spacing" textLength="14" x="704.5" y="977.4971">23</text><text fill="#000000" font-family="sans-serif" font-size="13" lengthAdjust="spacing" textLength="29" x="722.5" y="977.4971">store</text><polygon fill="#181818" points="397.5,1010.0508,387.5,1014.0508,397.5,1018.0508,393.5,1014.0508" style="stroke:#181818;stroke-width:1.0;"/><line style="stroke:#181818;stroke-width:1.0;stroke-dasharray:2.0,2.0;" x1="391.5" x2="681.5" y1="1014.0508" y2="1014.0508"/><text fill="#000000" font-family="sans-serif" font-size="13" font-weight="bold" lengthAdjust="spacing" textLength="14" x="403.5" y="1008.7881">24</text><text fill="#000000" font-family="sans-serif" font-size="13" lengthAdjust="spacing" textLength="29" x="421.5" y="1008.7881">store</text><polygon fill="#181818" points="60.5,1041.3418,50.5,1045.3418,60.5,1049.3418,56.5,1045.3418" style="stroke:#181818;stroke-width:1.0;"/><line style="stroke:#181818;stroke-width:1.0;stroke-dasharray:2.0,2.0;" x1="54.5" x2="380.5" y1="1045.3418" y2="1045.3418"/><text fill="#000000" font-family="sans-serif" font-size="13" font-weight="bold" lengthAdjust="spacing" textLength="14" x="66.5" y="1040.0791">25</text><text fill="#000000" font-family="sans-serif" font-size="13" lengthAdjust="spacing" textLength="152" x="84.5" y="1040.0791">Shows Operation success</text><!--SRC=[jLJ1Rk8m4BtxAqPSjgtW1pXKgk22jALIisWllPXaI2mIEskRilpzJcoIE6a2x6h9BPutRppFCy_iXIovvWKKIgeuqwf0iFg0p3IHaiTxdc9aJpc2njXocUOXm6GyKKSXKzZnt21Z_62LF1HRr8nzoqI2i5FARjLlncEhD4nUaa98OQpcz3i1Rk1b-Sg8pOfOb5nQcCmN6hcbgahZPkKmczKuPA6arIhFqTCjVhn_xu4TR8tsfz9xXudMNOIf01_I0psYH_6EfJA2mYSNritlKAaUsDHdh191VDB5NTCCpX_zmEoPceGvuVS6h8BODGWS91x1iRRuXeLaWU0Z0gAf17Xw8YfFqK4qcKwbC58TLDdHcZA5DFJKLlJJEnGaOZz6oKJHYaDKATgLOulnuV5BGeSm47K85z1IaKPKNwEd-qYfJhdsMSQWROrPlotJhJTAaU1Vr0ixd3sxb_Y7EXTa352zrmiYdT6eHefwhoPqJio_3cYiWOHRpWPIQHvxG-rcsfvAD7Ks9YuT7X8q8fNS2YMdK6PAujePnnG-9E2iu2AV0j7Mfpn9D1eptMeQfioVFbxSYVFbtHrWZrWkgV1_hhjPDVgOJ1rTh-SEkKnQoM8bTq8Nhknjqj4HlVzXMmWBor3miLRzwZUBxrRYNYfVze_xNU2I0tdtYIhlk-y5kfSOtCc8zfU4-EIve5cuQdrZ9A4Bi2jx7x6RWbwbq3wfOQ-KEsnkEcvSWI_Un3IAh-MvaXHc3OU_gZHel8nrP6WtfYlmi4tw2Q_zP3HZm3wTEqJa3WRUIjHk56cpuvZ6RCGB1aw9vGy0]--></g></svg>