<?xml version="1.0" encoding="us-ascii" standalone="no"?><svg xmlns="http://www.w3.org/2000/svg" xmlns:xlink="http://www.w3.org/1999/xlink" contentStyleType="text/css" height="1149px" preserveAspectRatio="none" style="width:650px;height:1149px;background:#FFFFFF;" version="1.1" viewBox="0 0 650 1149" width="650px" zoomAndPan="magnify"><defs/><g><!--class ImportLegacySystemDataUI--><g id="elem_ImportLegacySystemDataUI"><rect codeLine="7" fill="#F1F1F1" height="48" id="ImportLegacySystemDataUI" rx="2.5" ry="2.5" style="stroke:#181818;stroke-width:0.5;" width="205" x="66.5" y="7"/><ellipse cx="81.5" cy="23" fill="#ADD1B2" rx="11" ry="11" style="stroke:#181818;stroke-width:1.0;"/><path d="M84.2656,18.875 Q84.4219,18.6563 84.6094,18.5469 Q84.7969,18.4375 85.0156,18.4375 Q85.3906,18.4375 85.625,18.7031 Q85.8594,18.9531 85.8594,19.5625 L85.8594,21.0156 Q85.8594,21.625 85.625,21.8906 Q85.3906,22.1563 85.0156,22.1563 Q84.6719,22.1563 84.4688,21.9531 Q84.2656,21.7656 84.1563,21.25 Q84.1094,20.8906 83.9219,20.7031 Q83.5938,20.3281 82.9844,20.1094 Q82.375,19.8906 81.75,19.8906 Q80.9844,19.8906 80.3438,20.2188 Q79.7188,20.5469 79.2188,21.2969 Q78.7344,22.0469 78.7344,23.0781 L78.7344,24.1719 Q78.7344,25.4063 79.625,26.2344 Q80.5156,27.0469 82.1094,27.0469 Q83.0469,27.0469 83.7031,26.7969 Q84.0938,26.6406 84.5156,26.2031 Q84.7813,25.9375 84.9219,25.8594 Q85.0781,25.7813 85.2813,25.7813 Q85.6094,25.7813 85.8594,26.0469 Q86.125,26.2969 86.125,26.6406 Q86.125,26.9844 85.7813,27.3906 Q85.2813,27.9688 84.4844,28.2969 Q83.4063,28.75 82.1094,28.75 Q80.5938,28.75 79.3906,28.125 Q78.4063,27.625 77.7188,26.5625 Q77.0313,25.4844 77.0313,24.2031 L77.0313,23.0469 Q77.0313,21.7188 77.6406,20.5781 Q78.2656,19.4219 79.3594,18.8125 Q80.4531,18.1875 81.6875,18.1875 Q82.4219,18.1875 83.0625,18.3594 Q83.7188,18.5156 84.2656,18.875 Z " fill="#000000"/><text fill="#000000" font-family="sans-serif" font-size="14" lengthAdjust="spacing" textLength="173" x="95.5" y="28.7969">ImportLegacySystemDataUI</text><line style="stroke:#181818;stroke-width:0.5;" x1="67.5" x2="270.5" y1="39" y2="39"/><line style="stroke:#181818;stroke-width:0.5;" x1="67.5" x2="270.5" y1="47" y2="47"/></g><!--class ImportLegacySystemDataController--><g id="elem_ImportLegacySystemDataController"><rect codeLine="10" fill="#F1F1F1" height="48" id="ImportLegacySystemDataController" rx="2.5" ry="2.5" style="stroke:#181818;stroke-width:0.5;" width="255" x="41.5" y="116"/><ellipse cx="56.5" cy="132" fill="#ADD1B2" rx="11" ry="11" style="stroke:#181818;stroke-width:1.0;"/><path d="M59.2656,127.875 Q59.4219,127.6563 59.6094,127.5469 Q59.7969,127.4375 60.0156,127.4375 Q60.3906,127.4375 60.625,127.7031 Q60.8594,127.9531 60.8594,128.5625 L60.8594,130.0156 Q60.8594,130.625 60.625,130.8906 Q60.3906,131.1563 60.0156,131.1563 Q59.6719,131.1563 59.4688,130.9531 Q59.2656,130.7656 59.1563,130.25 Q59.1094,129.8906 58.9219,129.7031 Q58.5938,129.3281 57.9844,129.1094 Q57.375,128.8906 56.75,128.8906 Q55.9844,128.8906 55.3438,129.2188 Q54.7188,129.5469 54.2188,130.2969 Q53.7344,131.0469 53.7344,132.0781 L53.7344,133.1719 Q53.7344,134.4063 54.625,135.2344 Q55.5156,136.0469 57.1094,136.0469 Q58.0469,136.0469 58.7031,135.7969 Q59.0938,135.6406 59.5156,135.2031 Q59.7813,134.9375 59.9219,134.8594 Q60.0781,134.7813 60.2813,134.7813 Q60.6094,134.7813 60.8594,135.0469 Q61.125,135.2969 61.125,135.6406 Q61.125,135.9844 60.7813,136.3906 Q60.2813,136.9688 59.4844,137.2969 Q58.4063,137.75 57.1094,137.75 Q55.5938,137.75 54.3906,137.125 Q53.4063,136.625 52.7188,135.5625 Q52.0313,134.4844 52.0313,133.2031 L52.0313,132.0469 Q52.0313,130.7188 52.6406,129.5781 Q53.2656,128.4219 54.3594,127.8125 Q55.4531,127.1875 56.6875,127.1875 Q57.4219,127.1875 58.0625,127.3594 Q58.7188,127.5156 59.2656,127.875 Z " fill="#000000"/><text fill="#000000" font-family="sans-serif" font-size="14" lengthAdjust="spacing" textLength="223" x="70.5" y="137.7969">ImportLegacySystemDataController</text><line style="stroke:#181818;stroke-width:0.5;" x1="42.5" x2="295.5" y1="148" y2="148"/><line style="stroke:#181818;stroke-width:0.5;" x1="42.5" x2="295.5" y1="156" y2="156"/></g><!--class CSVLoader--><g id="elem_CSVLoader"><rect codeLine="14" fill="#F1F1F1" height="159.7266" id="CSVLoader" rx="2.5" ry="2.5" style="stroke:#181818;stroke-width:0.5;" width="324" x="7" y="243"/><ellipse cx="128.25" cy="259" fill="#ADD1B2" rx="11" ry="11" style="stroke:#181818;stroke-width:1.0;"/><path d="M131.0156,254.875 Q131.1719,254.6563 131.3594,254.5469 Q131.5469,254.4375 131.7656,254.4375 Q132.1406,254.4375 132.375,254.7031 Q132.6094,254.9531 132.6094,255.5625 L132.6094,257.0156 Q132.6094,257.625 132.375,257.8906 Q132.1406,258.1563 131.7656,258.1563 Q131.4219,258.1563 131.2188,257.9531 Q131.0156,257.7656 130.9063,257.25 Q130.8594,256.8906 130.6719,256.7031 Q130.3438,256.3281 129.7344,256.1094 Q129.125,255.8906 128.5,255.8906 Q127.7344,255.8906 127.0938,256.2188 Q126.4688,256.5469 125.9688,257.2969 Q125.4844,258.0469 125.4844,259.0781 L125.4844,260.1719 Q125.4844,261.4063 126.375,262.2344 Q127.2656,263.0469 128.8594,263.0469 Q129.7969,263.0469 130.4531,262.7969 Q130.8438,262.6406 131.2656,262.2031 Q131.5313,261.9375 131.6719,261.8594 Q131.8281,261.7813 132.0313,261.7813 Q132.3594,261.7813 132.6094,262.0469 Q132.875,262.2969 132.875,262.6406 Q132.875,262.9844 132.5313,263.3906 Q132.0313,263.9688 131.2344,264.2969 Q130.1563,264.75 128.8594,264.75 Q127.3438,264.75 126.1406,264.125 Q125.1563,263.625 124.4688,262.5625 Q123.7813,261.4844 123.7813,260.2031 L123.7813,259.0469 Q123.7813,257.7188 124.3906,256.5781 Q125.0156,255.4219 126.1094,254.8125 Q127.2031,254.1875 128.4375,254.1875 Q129.1719,254.1875 129.8125,254.3594 Q130.4688,254.5156 131.0156,254.875 Z " fill="#000000"/><text fill="#000000" font-family="sans-serif" font-size="14" lengthAdjust="spacing" textLength="73" x="148.75" y="264.7969">CSVLoader</text><line style="stroke:#181818;stroke-width:0.5;" x1="8" x2="330" y1="275" y2="275"/><line style="stroke:#181818;stroke-width:0.5;" x1="8" x2="330" y1="283" y2="283"/><ellipse cx="18" cy="297.8105" fill="#84BE84" rx="3" ry="3" style="stroke:#038048;stroke-width:1.0;"/><text fill="#000000" font-family="sans-serif" font-size="14" lengthAdjust="spacing" textLength="60" x="27" y="302.1074">getData()</text><ellipse cx="18" cy="325.7422" fill="#84BE84" rx="3" ry="3" style="stroke:#038048;stroke-width:1.0;"/><text fill="#000000" font-family="sans-serif" font-size="14" lengthAdjust="spacing" textLength="199" x="27" y="320.7285">createStore(name,phone,email,</text><text fill="#000000" font-family="sans-serif" font-size="14" lengthAdjust="spacing" textLength="224" x="27" y="339.3496">vatNumber,address,branckNumber)</text><ellipse cx="18" cy="353.6738" fill="#84BE84" rx="3" ry="3" style="stroke:#038048;stroke-width:1.0;"/><text fill="#000000" font-family="sans-serif" font-size="14" lengthAdjust="spacing" textLength="298" x="27" y="357.9707">createProperty(name,type,address,description)</text><ellipse cx="18" cy="381.6055" fill="#84BE84" rx="3" ry="3" style="stroke:#038048;stroke-width:1.0;"/><text fill="#000000" font-family="sans-serif" font-size="14" lengthAdjust="spacing" textLength="264" x="27" y="376.5918">createClient(name,description,taxNumber,</text><text fill="#000000" font-family="sans-serif" font-size="14" lengthAdjust="spacing" textLength="279" x="27" y="395.2129">email,password,address,phone,Role.Owner)</text></g><!--class LegacySystemData--><g id="elem_LegacySystemData"><rect codeLine="20" fill="#F1F1F1" height="48" id="LegacySystemData" rx="2.5" ry="2.5" style="stroke:#181818;stroke-width:0.5;" width="154" x="98" y="822"/><ellipse cx="113" cy="838" fill="#ADD1B2" rx="11" ry="11" style="stroke:#181818;stroke-width:1.0;"/><path d="M115.7656,833.875 Q115.9219,833.6563 116.1094,833.5469 Q116.2969,833.4375 116.5156,833.4375 Q116.8906,833.4375 117.125,833.7031 Q117.3594,833.9531 117.3594,834.5625 L117.3594,836.0156 Q117.3594,836.625 117.125,836.8906 Q116.8906,837.1563 116.5156,837.1563 Q116.1719,837.1563 115.9688,836.9531 Q115.7656,836.7656 115.6563,836.25 Q115.6094,835.8906 115.4219,835.7031 Q115.0938,835.3281 114.4844,835.1094 Q113.875,834.8906 113.25,834.8906 Q112.4844,834.8906 111.8438,835.2188 Q111.2188,835.5469 110.7188,836.2969 Q110.2344,837.0469 110.2344,838.0781 L110.2344,839.1719 Q110.2344,840.4063 111.125,841.2344 Q112.0156,842.0469 113.6094,842.0469 Q114.5469,842.0469 115.2031,841.7969 Q115.5938,841.6406 116.0156,841.2031 Q116.2813,840.9375 116.4219,840.8594 Q116.5781,840.7813 116.7813,840.7813 Q117.1094,840.7813 117.3594,841.0469 Q117.625,841.2969 117.625,841.6406 Q117.625,841.9844 117.2813,842.3906 Q116.7813,842.9688 115.9844,843.2969 Q114.9063,843.75 113.6094,843.75 Q112.0938,843.75 110.8906,843.125 Q109.9063,842.625 109.2188,841.5625 Q108.5313,840.4844 108.5313,839.2031 L108.5313,838.0469 Q108.5313,836.7188 109.1406,835.5781 Q109.7656,834.4219 110.8594,833.8125 Q111.9531,833.1875 113.1875,833.1875 Q113.9219,833.1875 114.5625,833.3594 Q115.2188,833.5156 115.7656,833.875 Z " fill="#000000"/><text fill="#000000" font-family="sans-serif" font-size="14" lengthAdjust="spacing" textLength="122" x="127" y="843.7969">LegacySystemData</text><line style="stroke:#181818;stroke-width:0.5;" x1="99" x2="251" y1="854" y2="854"/><line style="stroke:#181818;stroke-width:0.5;" x1="99" x2="251" y1="862" y2="862"/></g><!--class Store--><g id="elem_Store"><rect codeLine="24" fill="#F1F1F1" height="48" id="Store" rx="2.5" ry="2.5" style="stroke:#181818;stroke-width:0.5;" width="66" x="376" y="949"/><ellipse cx="391" cy="965" fill="#ADD1B2" rx="11" ry="11" style="stroke:#181818;stroke-width:1.0;"/><path d="M393.7656,960.875 Q393.9219,960.6563 394.1094,960.5469 Q394.2969,960.4375 394.5156,960.4375 Q394.8906,960.4375 395.125,960.7031 Q395.3594,960.9531 395.3594,961.5625 L395.3594,963.0156 Q395.3594,963.625 395.125,963.8906 Q394.8906,964.1563 394.5156,964.1563 Q394.1719,964.1563 393.9688,963.9531 Q393.7656,963.7656 393.6563,963.25 Q393.6094,962.8906 393.4219,962.7031 Q393.0938,962.3281 392.4844,962.1094 Q391.875,961.8906 391.25,961.8906 Q390.4844,961.8906 389.8438,962.2188 Q389.2188,962.5469 388.7188,963.2969 Q388.2344,964.0469 388.2344,965.0781 L388.2344,966.1719 Q388.2344,967.4063 389.125,968.2344 Q390.0156,969.0469 391.6094,969.0469 Q392.5469,969.0469 393.2031,968.7969 Q393.5938,968.6406 394.0156,968.2031 Q394.2813,967.9375 394.4219,967.8594 Q394.5781,967.7813 394.7813,967.7813 Q395.1094,967.7813 395.3594,968.0469 Q395.625,968.2969 395.625,968.6406 Q395.625,968.9844 395.2813,969.3906 Q394.7813,969.9688 393.9844,970.2969 Q392.9063,970.75 391.6094,970.75 Q390.0938,970.75 388.8906,970.125 Q387.9063,969.625 387.2188,968.5625 Q386.5313,967.4844 386.5313,966.2031 L386.5313,965.0469 Q386.5313,963.7188 387.1406,962.5781 Q387.7656,961.4219 388.8594,960.8125 Q389.9531,960.1875 391.1875,960.1875 Q391.9219,960.1875 392.5625,960.3594 Q393.2188,960.5156 393.7656,960.875 Z " fill="#000000"/><text fill="#000000" font-family="sans-serif" font-size="14" lengthAdjust="spacing" textLength="34" x="405" y="970.7969">Store</text><line style="stroke:#181818;stroke-width:0.5;" x1="377" x2="441" y1="981" y2="981"/><line style="stroke:#181818;stroke-width:0.5;" x1="377" x2="441" y1="989" y2="989"/></g><!--class Property--><g id="elem_Property"><rect codeLine="27" fill="#F1F1F1" height="48" id="Property" rx="2.5" ry="2.5" style="stroke:#181818;stroke-width:0.5;" width="86" x="233" y="949"/><ellipse cx="248" cy="965" fill="#ADD1B2" rx="11" ry="11" style="stroke:#181818;stroke-width:1.0;"/><path d="M250.7656,960.875 Q250.9219,960.6563 251.1094,960.5469 Q251.2969,960.4375 251.5156,960.4375 Q251.8906,960.4375 252.125,960.7031 Q252.3594,960.9531 252.3594,961.5625 L252.3594,963.0156 Q252.3594,963.625 252.125,963.8906 Q251.8906,964.1563 251.5156,964.1563 Q251.1719,964.1563 250.9688,963.9531 Q250.7656,963.7656 250.6563,963.25 Q250.6094,962.8906 250.4219,962.7031 Q250.0938,962.3281 249.4844,962.1094 Q248.875,961.8906 248.25,961.8906 Q247.4844,961.8906 246.8438,962.2188 Q246.2188,962.5469 245.7188,963.2969 Q245.2344,964.0469 245.2344,965.0781 L245.2344,966.1719 Q245.2344,967.4063 246.125,968.2344 Q247.0156,969.0469 248.6094,969.0469 Q249.5469,969.0469 250.2031,968.7969 Q250.5938,968.6406 251.0156,968.2031 Q251.2813,967.9375 251.4219,967.8594 Q251.5781,967.7813 251.7813,967.7813 Q252.1094,967.7813 252.3594,968.0469 Q252.625,968.2969 252.625,968.6406 Q252.625,968.9844 252.2813,969.3906 Q251.7813,969.9688 250.9844,970.2969 Q249.9063,970.75 248.6094,970.75 Q247.0938,970.75 245.8906,970.125 Q244.9063,969.625 244.2188,968.5625 Q243.5313,967.4844 243.5313,966.2031 L243.5313,965.0469 Q243.5313,963.7188 244.1406,962.5781 Q244.7656,961.4219 245.8594,960.8125 Q246.9531,960.1875 248.1875,960.1875 Q248.9219,960.1875 249.5625,960.3594 Q250.2188,960.5156 250.7656,960.875 Z " fill="#000000"/><text fill="#000000" font-family="sans-serif" font-size="14" lengthAdjust="spacing" textLength="54" x="262" y="970.7969">Property</text><line style="stroke:#181818;stroke-width:0.5;" x1="234" x2="318" y1="981" y2="981"/><line style="stroke:#181818;stroke-width:0.5;" x1="234" x2="318" y1="989" y2="989"/></g><!--class Client--><g id="elem_Client"><rect codeLine="29" fill="#F1F1F1" height="66.6211" id="Client" rx="2.5" ry="2.5" style="stroke:#181818;stroke-width:0.5;" width="168" x="192" y="1076"/><ellipse cx="253.75" cy="1092" fill="#ADD1B2" rx="11" ry="11" style="stroke:#181818;stroke-width:1.0;"/><path d="M256.5156,1087.875 Q256.6719,1087.6563 256.8594,1087.5469 Q257.0469,1087.4375 257.2656,1087.4375 Q257.6406,1087.4375 257.875,1087.7031 Q258.1094,1087.9531 258.1094,1088.5625 L258.1094,1090.0156 Q258.1094,1090.625 257.875,1090.8906 Q257.6406,1091.1563 257.2656,1091.1563 Q256.9219,1091.1563 256.7188,1090.9531 Q256.5156,1090.7656 256.4063,1090.25 Q256.3594,1089.8906 256.1719,1089.7031 Q255.8438,1089.3281 255.2344,1089.1094 Q254.625,1088.8906 254,1088.8906 Q253.2344,1088.8906 252.5938,1089.2188 Q251.9688,1089.5469 251.4688,1090.2969 Q250.9844,1091.0469 250.9844,1092.0781 L250.9844,1093.1719 Q250.9844,1094.4063 251.875,1095.2344 Q252.7656,1096.0469 254.3594,1096.0469 Q255.2969,1096.0469 255.9531,1095.7969 Q256.3438,1095.6406 256.7656,1095.2031 Q257.0313,1094.9375 257.1719,1094.8594 Q257.3281,1094.7813 257.5313,1094.7813 Q257.8594,1094.7813 258.1094,1095.0469 Q258.375,1095.2969 258.375,1095.6406 Q258.375,1095.9844 258.0313,1096.3906 Q257.5313,1096.9688 256.7344,1097.2969 Q255.6563,1097.75 254.3594,1097.75 Q252.8438,1097.75 251.6406,1097.125 Q250.6563,1096.625 249.9688,1095.5625 Q249.2813,1094.4844 249.2813,1093.2031 L249.2813,1092.0469 Q249.2813,1090.7188 249.8906,1089.5781 Q250.5156,1088.4219 251.6094,1087.8125 Q252.7031,1087.1875 253.9375,1087.1875 Q254.6719,1087.1875 255.3125,1087.3594 Q255.9688,1087.5156 256.5156,1087.875 Z " fill="#000000"/><text fill="#000000" font-family="sans-serif" font-size="14" lengthAdjust="spacing" textLength="36" x="274.25" y="1097.7969">Client</text><line style="stroke:#181818;stroke-width:0.5;" x1="193" x2="359" y1="1108" y2="1108"/><line style="stroke:#181818;stroke-width:0.5;" x1="193" x2="359" y1="1116" y2="1116"/><ellipse cx="203" cy="1130.8105" fill="#84BE84" rx="3" ry="3" style="stroke:#038048;stroke-width:1.0;"/><text fill="#000000" font-family="sans-serif" font-size="14" lengthAdjust="spacing" textLength="142" x="212" y="1135.1074">addProperty(Property)</text></g><!--class ClientRepository--><g id="elem_ClientRepository"><rect codeLine="32" fill="#F1F1F1" height="66.6211" id="ClientRepository" rx="2.5" ry="2.5" style="stroke:#181818;stroke-width:0.5;" width="136" x="507" y="725"/><ellipse cx="522" cy="741" fill="#B4A7E5" rx="11" ry="11" style="stroke:#181818;stroke-width:1.0;"/><path d="M522.9531,737.6406 L522.9531,744.2969 L524.6719,744.2969 Q525.2813,744.2969 525.5469,744.5313 Q525.8125,744.7656 525.8125,745.1563 Q525.8125,745.5313 525.5469,745.7656 Q525.2813,746 524.6719,746 L519.5313,746 Q518.9219,746 518.6563,745.7656 Q518.3906,745.5313 518.3906,745.1406 Q518.3906,744.7656 518.6563,744.5313 Q518.9219,744.2969 519.5313,744.2969 L521.25,744.2969 L521.25,737.6406 L519.5313,737.6406 Q518.9219,737.6406 518.6563,737.4063 Q518.3906,737.1719 518.3906,736.7813 Q518.3906,736.4063 518.6563,736.1719 Q518.9219,735.9375 519.5313,735.9375 L524.6719,735.9375 Q525.2813,735.9375 525.5469,736.1719 Q525.8125,736.4063 525.8125,736.7813 Q525.8125,737.1719 525.5469,737.4063 Q525.2813,737.6406 524.6719,737.6406 L522.9531,737.6406 Z " fill="#000000"/><text fill="#000000" font-family="sans-serif" font-size="14" font-style="italic" lengthAdjust="spacing" textLength="104" x="536" y="746.7969">ClientRepository</text><line style="stroke:#181818;stroke-width:0.5;" x1="508" x2="642" y1="757" y2="757"/><line style="stroke:#181818;stroke-width:0.5;" x1="508" x2="642" y1="765" y2="765"/><ellipse cx="518" cy="779.8105" fill="#84BE84" rx="3" ry="3" style="stroke:#038048;stroke-width:1.0;"/><text fill="#000000" font-family="sans-serif" font-size="14" lengthAdjust="spacing" textLength="106" x="527" y="784.1074">addClient(Client)</text></g><!--class StoreRepository--><g id="elem_StoreRepository"><rect codeLine="35" fill="#F1F1F1" height="66.6211" id="StoreRepository" rx="2.5" ry="2.5" style="stroke:#181818;stroke-width:0.5;" width="134" x="396" y="628"/><ellipse cx="411" cy="644" fill="#B4A7E5" rx="11" ry="11" style="stroke:#181818;stroke-width:1.0;"/><path d="M411.9531,640.6406 L411.9531,647.2969 L413.6719,647.2969 Q414.2813,647.2969 414.5469,647.5313 Q414.8125,647.7656 414.8125,648.1563 Q414.8125,648.5313 414.5469,648.7656 Q414.2813,649 413.6719,649 L408.5313,649 Q407.9219,649 407.6563,648.7656 Q407.3906,648.5313 407.3906,648.1406 Q407.3906,647.7656 407.6563,647.5313 Q407.9219,647.2969 408.5313,647.2969 L410.25,647.2969 L410.25,640.6406 L408.5313,640.6406 Q407.9219,640.6406 407.6563,640.4063 Q407.3906,640.1719 407.3906,639.7813 Q407.3906,639.4063 407.6563,639.1719 Q407.9219,638.9375 408.5313,638.9375 L413.6719,638.9375 Q414.2813,638.9375 414.5469,639.1719 Q414.8125,639.4063 414.8125,639.7813 Q414.8125,640.1719 414.5469,640.4063 Q414.2813,640.6406 413.6719,640.6406 L411.9531,640.6406 Z " fill="#000000"/><text fill="#000000" font-family="sans-serif" font-size="14" font-style="italic" lengthAdjust="spacing" textLength="102" x="425" y="649.7969">StoreRepository</text><line style="stroke:#181818;stroke-width:0.5;" x1="397" x2="529" y1="660" y2="660"/><line style="stroke:#181818;stroke-width:0.5;" x1="397" x2="529" y1="668" y2="668"/><ellipse cx="407" cy="682.8105" fill="#84BE84" rx="3" ry="3" style="stroke:#038048;stroke-width:1.0;"/><text fill="#000000" font-family="sans-serif" font-size="14" lengthAdjust="spacing" textLength="102" x="416" y="687.1074">addStore(Store)</text></g><!--class PropertyRepository--><g id="elem_PropertyRepository"><rect codeLine="38" fill="#F1F1F1" height="66.6211" id="PropertyRepository" rx="2.5" ry="2.5" style="stroke:#181818;stroke-width:0.5;" width="168" x="193" y="628"/><ellipse cx="214.3" cy="644" fill="#B4A7E5" rx="11" ry="11" style="stroke:#181818;stroke-width:1.0;"/><path d="M215.2531,640.6406 L215.2531,647.2969 L216.9719,647.2969 Q217.5813,647.2969 217.8469,647.5313 Q218.1125,647.7656 218.1125,648.1563 Q218.1125,648.5313 217.8469,648.7656 Q217.5813,649 216.9719,649 L211.8313,649 Q211.2219,649 210.9563,648.7656 Q210.6906,648.5313 210.6906,648.1406 Q210.6906,647.7656 210.9563,647.5313 Q211.2219,647.2969 211.8313,647.2969 L213.55,647.2969 L213.55,640.6406 L211.8313,640.6406 Q211.2219,640.6406 210.9563,640.4063 Q210.6906,640.1719 210.6906,639.7813 Q210.6906,639.4063 210.9563,639.1719 Q211.2219,638.9375 211.8313,638.9375 L216.9719,638.9375 Q217.5813,638.9375 217.8469,639.1719 Q218.1125,639.4063 218.1125,639.7813 Q218.1125,640.1719 217.8469,640.4063 Q217.5813,640.6406 216.9719,640.6406 L215.2531,640.6406 Z " fill="#000000"/><text fill="#000000" font-family="sans-serif" font-size="14" font-style="italic" lengthAdjust="spacing" textLength="122" x="229.7" y="649.7969">PropertyRepository</text><line style="stroke:#181818;stroke-width:0.5;" x1="194" x2="360" y1="660" y2="660"/><line style="stroke:#181818;stroke-width:0.5;" x1="194" x2="360" y1="668" y2="668"/><ellipse cx="204" cy="682.8105" fill="#84BE84" rx="3" ry="3" style="stroke:#038048;stroke-width:1.0;"/><text fill="#000000" font-family="sans-serif" font-size="14" lengthAdjust="spacing" textLength="142" x="213" y="687.1074">addProperty(Property)</text></g><!--class Repositories--><g id="elem_Repositories"><rect codeLine="42" fill="#F1F1F1" height="66.6211" id="Repositories" rx="2.5" ry="2.5" style="stroke:#181818;stroke-width:0.5;" width="111" x="308.5" y="482"/><ellipse cx="323.5" cy="498" fill="#B4A7E5" rx="11" ry="11" style="stroke:#181818;stroke-width:1.0;"/><path d="M324.4531,494.6406 L324.4531,501.2969 L326.1719,501.2969 Q326.7813,501.2969 327.0469,501.5313 Q327.3125,501.7656 327.3125,502.1563 Q327.3125,502.5313 327.0469,502.7656 Q326.7813,503 326.1719,503 L321.0313,503 Q320.4219,503 320.1563,502.7656 Q319.8906,502.5313 319.8906,502.1406 Q319.8906,501.7656 320.1563,501.5313 Q320.4219,501.2969 321.0313,501.2969 L322.75,501.2969 L322.75,494.6406 L321.0313,494.6406 Q320.4219,494.6406 320.1563,494.4063 Q319.8906,494.1719 319.8906,493.7813 Q319.8906,493.4063 320.1563,493.1719 Q320.4219,492.9375 321.0313,492.9375 L326.1719,492.9375 Q326.7813,492.9375 327.0469,493.1719 Q327.3125,493.4063 327.3125,493.7813 Q327.3125,494.1719 327.0469,494.4063 Q326.7813,494.6406 326.1719,494.6406 L324.4531,494.6406 Z " fill="#000000"/><text fill="#000000" font-family="sans-serif" font-size="14" font-style="italic" lengthAdjust="spacing" textLength="79" x="337.5" y="503.7969">Repositories</text><line style="stroke:#181818;stroke-width:0.5;" x1="309.5" x2="418.5" y1="514" y2="514"/><line style="stroke:#181818;stroke-width:0.5;" x1="309.5" x2="418.5" y1="522" y2="522"/><ellipse cx="319.5" cy="536.8105" fill="#84BE84" rx="3" ry="3" style="stroke:#038048;stroke-width:1.0;"/><text fill="#000000" font-family="sans-serif" font-size="14" lengthAdjust="spacing" textLength="83" x="328.5" y="541.1074">getInstance()</text></g><!--link ImportLegacySystemDataUI to ImportLegacySystemDataController--><g id="link_ImportLegacySystemDataUI_ImportLegacySystemDataController"><path codeLine="46" d="M169,55.22 C169,71.48 169,93.32 169,110.62 " fill="none" id="ImportLegacySystemDataUI-to-ImportLegacySystemDataController" style="stroke:#181818;stroke-width:1.0;stroke-dasharray:7.0,7.0;"/><polygon fill="#181818" points="169,115.83,173,106.83,169,110.83,165,106.83,169,115.83" style="stroke:#181818;stroke-width:1.0;"/></g><!--link ImportLegacySystemDataController to CSVLoader--><g id="link_ImportLegacySystemDataController_CSVLoader"><path codeLine="47" d="M169,164.29 C169,183.08 169,210.72 169,237.63 " fill="none" id="ImportLegacySystemDataController-to-CSVLoader" style="stroke:#181818;stroke-width:1.0;stroke-dasharray:7.0,7.0;"/><polygon fill="#181818" points="169,242.64,173,233.64,169,237.64,165,233.64,169,242.64" style="stroke:#181818;stroke-width:1.0;"/><text fill="#000000" font-family="sans-serif" font-size="13" lengthAdjust="spacing" textLength="21" x="170" y="209.0283">use</text></g><!--link CSVLoader to LegacySystemData--><g id="link_CSVLoader_LegacySystemData"><path codeLine="48" d="M169.91,403.13 C171.27,521.41 173.78,738.75 174.67,816.45 " fill="none" id="CSVLoader-to-LegacySystemData" style="stroke:#181818;stroke-width:1.0;"/><polygon fill="#181818" points="174.73,821.8,178.6266,812.7547,174.6727,816.8003,170.6271,812.8464,174.73,821.8" style="stroke:#181818;stroke-width:1.0;"/><text fill="#000000" font-family="sans-serif" font-size="13" lengthAdjust="spacing" textLength="31" x="174" y="594.0283">loads</text><text fill="#000000" font-family="sans-serif" font-size="13" lengthAdjust="spacing" textLength="7" x="162.6874" y="424.7992">1</text><text fill="#000000" font-family="sans-serif" font-size="13" lengthAdjust="spacing" textLength="5" x="169.0548" y="810.8932">*</text></g><!--link LegacySystemData to Client--><g id="link_LegacySystemData_Client"><path codeLine="49" d="M175,870.11 C175,912.18 175,997 175,997 C175,997 216.7,1043.04 246.52,1075.95 " fill="none" id="LegacySystemData-Client" style="stroke:#181818;stroke-width:1.0;"/><text fill="#000000" font-family="sans-serif" font-size="13" lengthAdjust="spacing" textLength="38" x="176" y="978.5283">Create</text><text fill="#000000" font-family="sans-serif" font-size="13" lengthAdjust="spacing" textLength="7" x="167.1469" y="892.1225">1</text><text fill="#000000" font-family="sans-serif" font-size="13" lengthAdjust="spacing" textLength="7" x="233.0271" y="1064.7657">1</text></g><!--link LegacySystemData to Property--><g id="link_LegacySystemData_Property"><path codeLine="50" d="M180.47,870.18 C185.44,891.23 192,919 192,919 C192,919 216.76,934.63 239.4,948.91 " fill="none" id="LegacySystemData-Property" style="stroke:#181818;stroke-width:1.0;"/><text fill="#000000" font-family="sans-serif" font-size="13" lengthAdjust="spacing" textLength="38" x="193" y="915.0283">Create</text><text fill="#000000" font-family="sans-serif" font-size="13" lengthAdjust="spacing" textLength="7" x="173.9502" y="892.2095">1</text><text fill="#000000" font-family="sans-serif" font-size="13" lengthAdjust="spacing" textLength="7" x="222.1244" y="937.6244">1</text></g><!--link LegacySystemData to Store--><g id="link_LegacySystemData_Store"><path codeLine="51" d="M218.19,870.07 C263.75,894.41 334.55,932.23 375.88,954.31 " fill="none" id="LegacySystemData-Store" style="stroke:#181818;stroke-width:1.0;"/><text fill="#000000" font-family="sans-serif" font-size="13" lengthAdjust="spacing" textLength="38" x="308" y="915.0283">Create</text><text fill="#000000" font-family="sans-serif" font-size="13" lengthAdjust="spacing" textLength="7" x="220.8644" y="892.0727">1</text><text fill="#000000" font-family="sans-serif" font-size="13" lengthAdjust="spacing" textLength="7" x="360.8694" y="945.4223">1</text></g><!--link StoreRepository to Store--><g id="link_StoreRepository_Store"><path codeLine="53" d="M457.32,695.04 C446.38,757.74 422.62,893.93 413.08,948.6 " fill="none" id="StoreRepository-Store" style="stroke:#181818;stroke-width:1.0;"/><polygon fill="#000000" points="439.1406,851.0711,443.5905,842.6658,437.8001,841.6555,439.1406,851.0711" style="stroke:#000000;stroke-width:1.0;"/><text fill="#000000" font-family="sans-serif" font-size="13" lengthAdjust="spacing" textLength="21" x="449" y="851.5283">has</text><text fill="#000000" font-family="sans-serif" font-size="13" lengthAdjust="spacing" textLength="7" x="448.6848" y="716.6164">1</text><text fill="#000000" font-family="sans-serif" font-size="13" lengthAdjust="spacing" textLength="5" x="408.4651" y="937.6444">*</text></g><!--link ClientRepository to Client--><g id="link_ClientRepository_Client"><path codeLine="54" d="M559.25,792.03 C527.76,857.07 460,997 460,997 C460,997 384.03,1043.04 329.72,1075.95 " fill="none" id="ClientRepository-Client" style="stroke:#181818;stroke-width:1.0;"/><polygon fill="#000000" points="507.8566,913.5338,515.8286,908.3475,511.2576,904.6521,507.8566,913.5338" style="stroke:#000000;stroke-width:1.0;"/><text fill="#000000" font-family="sans-serif" font-size="13" lengthAdjust="spacing" textLength="21" x="520" y="915.0283">has</text><text fill="#000000" font-family="sans-serif" font-size="13" lengthAdjust="spacing" textLength="7" x="548.8211" y="813.6046">1</text><text fill="#000000" font-family="sans-serif" font-size="13" lengthAdjust="spacing" textLength="5" x="334.8039" y="1064.7657">*</text></g><!--link PropertyRepository to Property--><g id="link_PropertyRepository_Property"><path codeLine="55" d="M282.34,695.03 C293.02,760.07 316,900 316,900 C316,900 316,919 316,919 C316,919 304.21,934.63 293.43,948.91 " fill="none" id="PropertyRepository-Property" style="stroke:#181818;stroke-width:1.0;"/><polygon fill="#000000" points="316.2182,851.1407,318.7596,841.976,312.8873,842.2325,316.2182,851.1407" style="stroke:#000000;stroke-width:1.0;"/><text fill="#000000" font-family="sans-serif" font-size="13" lengthAdjust="spacing" textLength="21" x="325" y="851.5283">has</text><text fill="#000000" font-family="sans-serif" font-size="13" lengthAdjust="spacing" textLength="7" x="275.6677" y="716.6046">1</text><text fill="#000000" font-family="sans-serif" font-size="13" lengthAdjust="spacing" textLength="5" x="292.2558" y="937.6244">*</text></g><!--link Property to Client--><g id="link_Property_Client"><path codeLine="56" d="M276,997.12 C276,1017.3 276,1046.97 276,1070.62 " fill="none" id="Property-to-Client" style="stroke:#181818;stroke-width:1.0;"/><polygon fill="#181818" points="276,1075.87,280,1066.87,276,1070.87,272,1066.87,276,1075.87" style="stroke:#181818;stroke-width:1.0;"/><text fill="#000000" font-family="sans-serif" font-size="13" lengthAdjust="spacing" textLength="58" x="277" y="1042.0283">saved into</text></g><!--link Repositories to StoreRepository--><g id="link_Repositories_StoreRepository"><path codeLine="58" d="M386.46,549.18 C401.72,571.36 421.91,600.73 437.72,623.74 " fill="none" id="Repositories-to-StoreRepository" style="stroke:#181818;stroke-width:1.0;"/><polygon fill="#181818" points="440.62,627.95,438.8174,618.2675,437.7874,623.8298,432.2251,622.7997,440.62,627.95" style="stroke:#181818;stroke-width:1.0;"/></g><!--link Repositories to PropertyRepository--><g id="link_Repositories_PropertyRepository"><path codeLine="59" d="M344.26,549.18 C330.91,571.27 313.26,600.49 299.39,623.45 " fill="none" id="Repositories-to-PropertyRepository" style="stroke:#181818;stroke-width:1.0;"/><polygon fill="#181818" points="296.66,627.95,304.7343,622.3103,299.243,623.6688,297.8844,618.1775,296.66,627.95" style="stroke:#181818;stroke-width:1.0;"/></g><!--link Repositories to ClientRepository--><g id="link_Repositories_ClientRepository"><path codeLine="60" d="M417.72,549.05 C472.03,581.96 548,628 548,628 C548,628 559.16,681.54 567.13,719.77 " fill="none" id="Repositories-to-ClientRepository" style="stroke:#181818;stroke-width:1.0;"/><polygon fill="#181818" points="568.19,724.82,570.2827,715.196,567.1765,719.9238,562.4487,716.8176,568.19,724.82" style="stroke:#181818;stroke-width:1.0;"/></g><!--link CSVLoader to Repositories--><g id="link_CSVLoader_Repositories"><path codeLine="61" d="M250,403.13 C276.71,429.23 305.12,456.98 326.9,478.25 " fill="none" id="CSVLoader-to-Repositories" style="stroke:#181818;stroke-width:1.0;"/><polygon fill="#181818" points="330.61,481.88,326.9448,472.7385,327.0248,478.3948,321.3685,478.4748,330.61,481.88" style="stroke:#181818;stroke-width:1.0;"/><polygon fill="#000000" points="304.5767,446.1394,300.1601,437.7166,296.0527,441.9212,304.5767,446.1394" style="stroke:#000000;stroke-width:1.0;"/><text fill="#000000" font-family="sans-serif" font-size="13" lengthAdjust="spacing" textLength="21" x="310" y="448.0283">use</text></g><!--SRC=[ZPGzRzim48Pt_Wh2Izn6Cj2rWnTtCH2qHOnsodAXBZ9XYYH8EgvWvB-N8YMAajoa7cnJzxp7zpxiEtlYKeE1XZPAAdOqga7gp1d96D70Jb3ZmRK2gK7cGDOY1-mHAdNXigOl86mU4LoYQpLIhKJR7SZTZQ0oJX7215XBzutsnmUiWRM7rZfile63N_ihUNiVsIdfZ182pPMCxExm-q51rJsyhz5ruFeJeVvrpmo2yrKfWsi93HRwg2GMs00NnPDy1VVzt3oZAQ2g35fRF1kGx1GVJdByD4gZSMrCqvMKD1LQPhXsNCc9P2SuIXS56LCu-DFV-YIZ4-tBk2XJfPJHvgCIkFbnaPsLjxxOUKloHeGwioOEdgz97IrTeqj_MQfg-D9TnAL3ym8CU_mHjRBSvsv7OLzR_9YAWejRcZY6y3vL39VV4jrqc6cJXgFjLNu7zjBw3MQu3lI_zerkDjiFDury18GiQGVfLthsFuzqNdrPqRBSqjNdrM9sdXKUicGHyAgoxAInmHxSXPLwXnpwypzicC48ajd88bXsbWVo29PkoNmVCZ0PZUHof1cRMPtIeLCfauLNhAWVjV_ZoCSSgFcQBOcbXIKpBsYSMnUUu66ktkjV]--></g></svg>