<?xml version="1.0" encoding="us-ascii" standalone="no"?><svg xmlns="http://www.w3.org/2000/svg" xmlns:xlink="http://www.w3.org/1999/xlink" contentStyleType="text/css" height="460.2px" preserveAspectRatio="none" style="width:637px;height:460px;background:#FFFFFF;" version="1.1" viewBox="0 0 637 460" width="637.8px" zoomAndPan="magnify"><defs><filter height="300%" id="f1y2ivdpidvtdp" width="300%" x="-1" y="-1"><feGaussianBlur result="blurOut" stdDeviation="1.2"/><feColorMatrix in="blurOut" result="blurOut2" type="matrix" values="0 0 0 0 0 0 0 0 0 0 0 0 0 0 0 0 0 0 .4 0"/><feOffset dx="2.4" dy="2.4" in="blurOut2" result="blurOut3"/><feBlend in="SourceGraphic" in2="blurOut3" mode="normal"/></filter></defs><g><!--class Repositories--><g id="elem_Repositories"><rect codeLine="10" fill="#F1F1F1" filter="url(#f1y2ivdpidvtdp)" height="174.0445" id="Repositories" rx="1.5" ry="1.5" style="stroke:#181818;stroke-width:0.3;" width="215.4" x="397.2" y="4.2"/><ellipse cx="478.65" cy="13.8" fill="#ADD1B2" rx="6.6" ry="6.6" style="stroke:#181818;stroke-width:0.6;"/><path d="M480.3094,11.325 Q480.4031,11.1938 480.5156,11.1281 Q480.6281,11.0625 480.7594,11.0625 Q480.9844,11.0625 481.125,11.2219 Q481.2656,11.3719 481.2656,11.7375 L481.2656,12.6094 Q481.2656,12.975 481.125,13.1344 Q480.9844,13.2938 480.7594,13.2938 Q480.5531,13.2938 480.4313,13.1719 Q480.3094,13.0594 480.2438,12.75 Q480.2156,12.5344 480.1031,12.4219 Q479.9063,12.1969 479.5406,12.0656 Q479.175,11.9344 478.8,11.9344 Q478.3406,11.9344 477.9562,12.1313 Q477.5812,12.3281 477.2813,12.7781 Q476.9906,13.2281 476.9906,13.8469 L476.9906,14.5031 Q476.9906,15.2437 477.525,15.7406 Q478.0594,16.2281 479.0156,16.2281 Q479.5781,16.2281 479.9719,16.0781 Q480.2062,15.9844 480.4594,15.7219 Q480.6188,15.5625 480.7031,15.5156 Q480.7969,15.4688 480.9188,15.4688 Q481.1156,15.4688 481.2656,15.6281 Q481.425,15.7781 481.425,15.9844 Q481.425,16.1906 481.2188,16.4344 Q480.9188,16.7813 480.4406,16.9781 Q479.7938,17.25 479.0156,17.25 Q478.1063,17.25 477.3844,16.875 Q476.7938,16.575 476.3812,15.9375 Q475.9688,15.2906 475.9688,14.5219 L475.9688,13.8281 Q475.9688,13.0313 476.3344,12.3469 Q476.7094,11.6531 477.3656,11.2875 Q478.0219,10.9125 478.7625,10.9125 Q479.2031,10.9125 479.5875,11.0156 Q479.9813,11.1094 480.3094,11.325 Z " fill="#000000"/><text fill="#000000" font-family="sans-serif" font-size="8.4" lengthAdjust="spacing" textLength="47.4" x="490.95" y="17.2781">Repositories</text><line style="stroke:#181818;stroke-width:0.3;" x1="397.8" x2="612" y1="23.4" y2="23.4"/><polygon fill="none" points="403.8,29.8863,401.4,33.4863,406.2,33.4863" style="stroke:#1963A0;stroke-width:0.6;"/><text fill="#000000" font-family="sans-serif" font-size="8.4" lengthAdjust="spacing" textLength="150.6" x="409.2" y="34.8645">propertyRepository: PropertyRepository</text><polygon fill="none" points="403.8,41.059,401.4,44.659,406.2,44.659" style="stroke:#1963A0;stroke-width:0.6;"/><text fill="#000000" font-family="sans-serif" font-size="8.4" lengthAdjust="spacing" textLength="193.8" x="409.2" y="46.0371">authenticationRepository: AuthenticationRepository</text><polygon fill="none" points="403.8,52.2316,401.4,55.8316,406.2,55.8316" style="stroke:#1963A0;stroke-width:0.6;"/><text fill="#000000" font-family="sans-serif" font-size="8.4" lengthAdjust="spacing" textLength="127.8" x="409.2" y="57.2098">clientRepository: ClientRepository</text><rect fill="none" height="3.6" style="stroke:#C82930;stroke-width:0.6;" width="3.6" x="402" y="64.0043"/><text fill="#000000" font-family="sans-serif" font-size="8.4" lengthAdjust="spacing" textLength="84" x="409.2" y="68.3824">instance: Repositories</text><polygon fill="none" points="403.8,74.577,401.4,78.177,406.2,78.177" style="stroke:#1963A0;stroke-width:0.6;"/><text fill="#000000" font-family="sans-serif" font-size="8.4" lengthAdjust="spacing" textLength="199.8" x="409.2" y="79.5551">announcementRepository: AnnouncementRepository</text><polygon fill="none" points="403.8,85.7496,401.4,89.3496,406.2,89.3496" style="stroke:#1963A0;stroke-width:0.6;"/><text fill="#000000" font-family="sans-serif" font-size="8.4" lengthAdjust="spacing" textLength="126" x="409.2" y="90.7277">storeRepository: StoreRepository</text><text fill="#000000" font-family="sans-serif" font-size="8.4" lengthAdjust="spacing" textLength="199.8" x="409.2" y="101.9004">announcementRepository: AnnouncementRepository</text><text fill="#000000" font-family="sans-serif" font-size="8.4" lengthAdjust="spacing" textLength="150.6" x="409.2" y="113.073">propertyRepository: PropertyRepository</text><text fill="#000000" font-family="sans-serif" font-size="8.4" lengthAdjust="spacing" textLength="84" x="409.2" y="124.2457">instance: Repositories</text><text fill="#000000" font-family="sans-serif" font-size="8.4" lengthAdjust="spacing" textLength="127.8" x="409.2" y="135.4184">clientRepository: ClientRepository</text><text fill="#000000" font-family="sans-serif" font-size="8.4" lengthAdjust="spacing" textLength="193.8" x="409.2" y="146.591">authenticationRepository: AuthenticationRepository</text><text fill="#000000" font-family="sans-serif" font-size="8.4" lengthAdjust="spacing" textLength="126" x="409.2" y="157.7637">storeRepository: StoreRepository</text><line style="stroke:#181818;stroke-width:0.3;" x1="397.8" x2="612" y1="162.2719" y2="162.2719"/><rect fill="#F24D5C" height="3.6" style="stroke:#C82930;stroke-width:0.6;" width="3.6" x="402" y="169.3582"/><text fill="#000000" font-family="sans-serif" font-size="8.4" lengthAdjust="spacing" textLength="55.8" x="409.2" y="173.7363">Repositories():</text></g><!--class CreateGuestUI--><g id="elem_CreateGuestUI"><rect codeLine="26" fill="#F1F1F1" filter="url(#f1y2ivdpidvtdp)" height="62.318" id="CreateGuestUI" rx="1.5" ry="1.5" style="stroke:#181818;stroke-width:0.3;" width="100.2" x="4.2" y="60"/><ellipse cx="24.54" cy="69.6" fill="#ADD1B2" rx="6.6" ry="6.6" style="stroke:#181818;stroke-width:0.6;"/><path d="M26.1994,67.125 Q26.2931,66.9937 26.4056,66.9281 Q26.5181,66.8625 26.6494,66.8625 Q26.8744,66.8625 27.015,67.0219 Q27.1556,67.1719 27.1556,67.5375 L27.1556,68.4094 Q27.1556,68.775 27.015,68.9344 Q26.8744,69.0938 26.6494,69.0938 Q26.4431,69.0938 26.3213,68.9719 Q26.1994,68.8594 26.1338,68.55 Q26.1056,68.3344 25.9931,68.2219 Q25.7962,67.9969 25.4306,67.8656 Q25.065,67.7344 24.69,67.7344 Q24.2306,67.7344 23.8462,67.9312 Q23.4712,68.1281 23.1712,68.5781 Q22.8806,69.0281 22.8806,69.6469 L22.8806,70.3031 Q22.8806,71.0438 23.415,71.5406 Q23.9494,72.0281 24.9056,72.0281 Q25.4681,72.0281 25.8619,71.8781 Q26.0962,71.7844 26.3494,71.5219 Q26.5088,71.3625 26.5931,71.3156 Q26.6869,71.2688 26.8088,71.2688 Q27.0056,71.2688 27.1556,71.4281 Q27.315,71.5781 27.315,71.7844 Q27.315,71.9906 27.1087,72.2344 Q26.8088,72.5813 26.3306,72.7781 Q25.6838,73.05 24.9056,73.05 Q23.9963,73.05 23.2744,72.675 Q22.6838,72.375 22.2713,71.7375 Q21.8587,71.0906 21.8587,70.3219 L21.8587,69.6281 Q21.8587,68.8313 22.2244,68.1469 Q22.5994,67.4531 23.2556,67.0875 Q23.9119,66.7125 24.6525,66.7125 Q25.0931,66.7125 25.4775,66.8156 Q25.8713,66.9094 26.1994,67.125 Z " fill="#000000"/><text fill="#000000" font-family="sans-serif" font-size="8.4" lengthAdjust="spacing" textLength="55.8" x="35.46" y="73.0781">CreateGuestUI</text><line style="stroke:#181818;stroke-width:0.3;" x1="4.8" x2="103.8" y1="79.2" y2="79.2"/><line style="stroke:#181818;stroke-width:0.3;" x1="4.8" x2="103.8" y1="84" y2="84"/><ellipse cx="10.8" cy="92.8863" fill="#84BE84" rx="1.8" ry="1.8" style="stroke:#038048;stroke-width:0.6;"/><text fill="#000000" font-family="sans-serif" font-size="8.4" lengthAdjust="spacing" textLength="59.4" x="16.2" y="95.4645">CreatGuestUI():</text><rect fill="#F24D5C" height="3.6" style="stroke:#C82930;stroke-width:0.6;" width="3.6" x="9" y="102.259"/><text fill="#000000" font-family="sans-serif" font-size="8.4" lengthAdjust="spacing" textLength="84.6" x="16.2" y="106.6371">showProperties(): void</text><ellipse cx="10.8" cy="115.2316" fill="#84BE84" rx="1.8" ry="1.8" style="stroke:#038048;stroke-width:0.6;"/><text fill="#000000" font-family="sans-serif" font-size="8.4" lengthAdjust="spacing" textLength="39" x="16.2" y="117.8098">run(): void</text></g><!--class CreateGuestController--><g id="elem_CreateGuestController"><rect codeLine="31" fill="#F1F1F1" filter="url(#f1y2ivdpidvtdp)" height="107.0086" id="CreateGuestController" rx="1.5" ry="1.5" style="stroke:#181818;stroke-width:0.3;" width="209.4" x="125.4" y="37.8"/><ellipse cx="184.65" cy="47.4" fill="#ADD1B2" rx="6.6" ry="6.6" style="stroke:#181818;stroke-width:0.6;"/><path d="M186.3094,44.925 Q186.4031,44.7937 186.5156,44.7281 Q186.6281,44.6625 186.7594,44.6625 Q186.9844,44.6625 187.125,44.8219 Q187.2656,44.9719 187.2656,45.3375 L187.2656,46.2094 Q187.2656,46.575 187.125,46.7344 Q186.9844,46.8938 186.7594,46.8938 Q186.5531,46.8938 186.4313,46.7719 Q186.3094,46.6594 186.2438,46.35 Q186.2156,46.1344 186.1031,46.0219 Q185.9063,45.7969 185.5406,45.6656 Q185.175,45.5344 184.8,45.5344 Q184.3406,45.5344 183.9562,45.7312 Q183.5812,45.9281 183.2813,46.3781 Q182.9906,46.8281 182.9906,47.4469 L182.9906,48.1031 Q182.9906,48.8438 183.525,49.3406 Q184.0594,49.8281 185.0156,49.8281 Q185.5781,49.8281 185.9719,49.6781 Q186.2062,49.5844 186.4594,49.3219 Q186.6188,49.1625 186.7031,49.1156 Q186.7969,49.0688 186.9188,49.0688 Q187.1156,49.0688 187.2656,49.2281 Q187.425,49.3781 187.425,49.5844 Q187.425,49.7906 187.2188,50.0344 Q186.9188,50.3813 186.4406,50.5781 Q185.7938,50.85 185.0156,50.85 Q184.1063,50.85 183.3844,50.475 Q182.7938,50.175 182.3813,49.5375 Q181.9688,48.8906 181.9688,48.1219 L181.9688,47.4281 Q181.9688,46.6313 182.3344,45.9469 Q182.7094,45.2531 183.3656,44.8875 Q184.0219,44.5125 184.7625,44.5125 Q185.2031,44.5125 185.5875,44.6156 Q185.9813,44.7094 186.3094,44.925 Z " fill="#000000"/><text fill="#000000" font-family="sans-serif" font-size="8.4" lengthAdjust="spacing" textLength="85.8" x="196.95" y="50.8781">CreateGuestController</text><line style="stroke:#181818;stroke-width:0.3;" x1="126" x2="334.2" y1="57" y2="57"/><rect fill="none" height="3.6" style="stroke:#C82930;stroke-width:0.6;" width="3.6" x="130.2" y="64.0863"/><text fill="#000000" font-family="sans-serif" font-size="8.4" lengthAdjust="spacing" textLength="150.6" x="137.4" y="68.4645">propertyRepository: PropertyRepository</text><rect fill="none" height="3.6" style="stroke:#C82930;stroke-width:0.6;" width="3.6" x="130.2" y="75.259"/><text fill="#000000" font-family="sans-serif" font-size="8.4" lengthAdjust="spacing" textLength="193.8" x="137.4" y="79.6371">authenticationRepository: AuthenticationRepository</text><text fill="#000000" font-family="sans-serif" font-size="8.4" lengthAdjust="spacing" textLength="150.6" x="137.4" y="90.8098">propertyRepository: PropertyRepository</text><text fill="#000000" font-family="sans-serif" font-size="8.4" lengthAdjust="spacing" textLength="193.8" x="137.4" y="101.9824">authenticationRepository: AuthenticationRepository</text><line style="stroke:#181818;stroke-width:0.3;" x1="126" x2="334.2" y1="106.4906" y2="106.4906"/><ellipse cx="132" cy="115.377" fill="#84BE84" rx="1.8" ry="1.8" style="stroke:#038048;stroke-width:0.6;"/><text fill="#000000" font-family="sans-serif" font-size="8.4" lengthAdjust="spacing" textLength="184.2" x="137.4" y="117.9551">CreatGuestController(AuthenticationRepository):</text><ellipse cx="132" cy="126.5496" fill="#84BE84" rx="1.8" ry="1.8" style="stroke:#038048;stroke-width:0.6;"/><text fill="#000000" font-family="sans-serif" font-size="8.4" lengthAdjust="spacing" textLength="89.4" x="137.4" y="129.1277">CreatGuestController():</text><ellipse cx="132" cy="137.7223" fill="#84BE84" rx="1.8" ry="1.8" style="stroke:#038048;stroke-width:0.6;"/><text fill="#000000" font-family="sans-serif" font-size="8.4" lengthAdjust="spacing" textLength="77.4" x="137.4" y="140.3004">getProperties(): void</text></g><!--class AnnouncementRepository--><g id="elem_AnnouncementRepository"><rect codeLine="40" fill="#F1F1F1" filter="url(#f1y2ivdpidvtdp)" height="84.6633" id="AnnouncementRepository" rx="1.5" ry="1.5" style="stroke:#181818;stroke-width:0.3;" width="252" x="378.9" y="225.6"/><ellipse cx="453.45" cy="235.2" fill="#ADD1B2" rx="6.6" ry="6.6" style="stroke:#181818;stroke-width:0.6;"/><path d="M455.1094,232.725 Q455.2031,232.5938 455.3156,232.5281 Q455.4281,232.4625 455.5594,232.4625 Q455.7844,232.4625 455.925,232.6219 Q456.0656,232.7719 456.0656,233.1375 L456.0656,234.0094 Q456.0656,234.375 455.925,234.5344 Q455.7844,234.6938 455.5594,234.6938 Q455.3531,234.6938 455.2313,234.5719 Q455.1094,234.4594 455.0438,234.15 Q455.0156,233.9344 454.9031,233.8219 Q454.7063,233.5969 454.3406,233.4656 Q453.975,233.3344 453.6,233.3344 Q453.1406,233.3344 452.7562,233.5313 Q452.3812,233.7281 452.0813,234.1781 Q451.7906,234.6281 451.7906,235.2469 L451.7906,235.9031 Q451.7906,236.6437 452.325,237.1406 Q452.8594,237.6281 453.8156,237.6281 Q454.3781,237.6281 454.7719,237.4781 Q455.0062,237.3844 455.2594,237.1219 Q455.4188,236.9625 455.5031,236.9156 Q455.5969,236.8687 455.7188,236.8687 Q455.9156,236.8687 456.0656,237.0281 Q456.225,237.1781 456.225,237.3844 Q456.225,237.5906 456.0188,237.8344 Q455.7188,238.1812 455.2406,238.3781 Q454.5938,238.65 453.8156,238.65 Q452.9063,238.65 452.1844,238.275 Q451.5938,237.975 451.1813,237.3375 Q450.7688,236.6906 450.7688,235.9219 L450.7688,235.2281 Q450.7688,234.4312 451.1344,233.7469 Q451.5094,233.0531 452.1656,232.6875 Q452.8219,232.3125 453.5625,232.3125 Q454.0031,232.3125 454.3875,232.4156 Q454.7813,232.5094 455.1094,232.725 Z " fill="#000000"/><text fill="#000000" font-family="sans-serif" font-size="8.4" lengthAdjust="spacing" textLength="97.8" x="465.75" y="238.6781">AnnouncementRepository</text><line style="stroke:#181818;stroke-width:0.3;" x1="379.5" x2="630.3" y1="244.8" y2="244.8"/><polygon fill="none" points="385.5,251.2863,383.1,254.8863,387.9,254.8863" style="stroke:#1963A0;stroke-width:0.6;"/><text fill="#000000" font-family="sans-serif" font-size="8.4" lengthAdjust="spacing" textLength="145.2" x="390.9" y="256.2645">announcements: List&lt;Announcement&gt;</text><line style="stroke:#181818;stroke-width:0.3;" x1="379.5" x2="630.3" y1="260.7727" y2="260.7727"/><ellipse cx="385.5" cy="269.659" fill="#84BE84" rx="1.8" ry="1.8" style="stroke:#038048;stroke-width:0.6;"/><text fill="#000000" font-family="sans-serif" font-size="8.4" lengthAdjust="spacing" textLength="106.2" x="390.9" y="272.2371">AnnouncementRepository():</text><ellipse cx="385.5" cy="280.8316" fill="#84BE84" rx="1.8" ry="1.8" style="stroke:#038048;stroke-width:0.6;"/><text fill="#000000" font-family="sans-serif" font-size="8.4" lengthAdjust="spacing" textLength="236.4" x="390.9" y="283.4098">createAnnouncement(Property, int): Optional&lt;Announcement&gt;</text><ellipse cx="385.5" cy="292.0043" fill="#84BE84" rx="1.8" ry="1.8" style="stroke:#038048;stroke-width:0.6;"/><text fill="#000000" font-family="sans-serif" font-size="8.4" lengthAdjust="spacing" textLength="154.8" x="390.9" y="294.5824">addAnnouncement(Announcement): void</text><ellipse cx="385.5" cy="303.177" fill="#84BE84" rx="1.8" ry="1.8" style="stroke:#038048;stroke-width:0.6;"/><text fill="#000000" font-family="sans-serif" font-size="8.4" lengthAdjust="spacing" textLength="183.6" x="390.9" y="305.7551">removeAnnouncement(Announcement): boolean</text></g><!--class Announcement--><g id="elem_Announcement"><rect codeLine="48" fill="#F1F1F1" filter="url(#f1y2ivdpidvtdp)" height="95.8359" id="Announcement" rx="1.5" ry="1.5" style="stroke:#181818;stroke-width:0.3;" width="185.4" x="412.2" y="357.6"/><ellipse cx="473.85" cy="367.2" fill="#ADD1B2" rx="6.6" ry="6.6" style="stroke:#181818;stroke-width:0.6;"/><path d="M475.5094,364.725 Q475.6031,364.5938 475.7156,364.5281 Q475.8281,364.4625 475.9594,364.4625 Q476.1844,364.4625 476.325,364.6219 Q476.4656,364.7719 476.4656,365.1375 L476.4656,366.0094 Q476.4656,366.375 476.325,366.5344 Q476.1844,366.6937 475.9594,366.6937 Q475.7531,366.6937 475.6312,366.5719 Q475.5094,366.4594 475.4437,366.15 Q475.4156,365.9344 475.3031,365.8219 Q475.1063,365.5969 474.7406,365.4656 Q474.375,365.3344 474,365.3344 Q473.5406,365.3344 473.1563,365.5313 Q472.7813,365.7281 472.4813,366.1781 Q472.1906,366.6281 472.1906,367.2469 L472.1906,367.9031 Q472.1906,368.6438 472.725,369.1406 Q473.2594,369.6281 474.2156,369.6281 Q474.7781,369.6281 475.1719,369.4781 Q475.4063,369.3844 475.6594,369.1219 Q475.8187,368.9625 475.9031,368.9156 Q475.9969,368.8688 476.1188,368.8688 Q476.3156,368.8688 476.4656,369.0281 Q476.625,369.1781 476.625,369.3844 Q476.625,369.5906 476.4188,369.8344 Q476.1188,370.1813 475.6406,370.3781 Q474.9938,370.65 474.2156,370.65 Q473.3063,370.65 472.5844,370.275 Q471.9938,369.975 471.5812,369.3375 Q471.1688,368.6906 471.1688,367.9219 L471.1688,367.2281 Q471.1688,366.4313 471.5344,365.7469 Q471.9094,365.0531 472.5656,364.6875 Q473.2219,364.3125 473.9625,364.3125 Q474.4031,364.3125 474.7875,364.4156 Q475.1813,364.5094 475.5094,364.725 Z " fill="#000000"/><text fill="#000000" font-family="sans-serif" font-size="8.4" lengthAdjust="spacing" textLength="57" x="486.15" y="370.6781">Announcement</text><line style="stroke:#181818;stroke-width:0.3;" x1="412.8" x2="597" y1="376.8" y2="376.8"/><rect fill="none" height="3.6" style="stroke:#C82930;stroke-width:0.6;" width="3.6" x="417" y="383.8863"/><text fill="#000000" font-family="sans-serif" font-size="8.4" lengthAdjust="spacing" textLength="57.6" x="424.2" y="388.2645">commission: int</text><rect fill="none" height="3.6" style="stroke:#C82930;stroke-width:0.6;" width="3.6" x="417" y="395.059"/><text fill="#000000" font-family="sans-serif" font-size="8.4" lengthAdjust="spacing" textLength="69" x="424.2" y="399.4371">property: Property</text><text fill="#000000" font-family="sans-serif" font-size="8.4" lengthAdjust="spacing" textLength="57.6" x="424.2" y="410.6098">commission: int</text><text fill="#000000" font-family="sans-serif" font-size="8.4" lengthAdjust="spacing" textLength="69" x="424.2" y="421.7824">property: Property</text><line style="stroke:#181818;stroke-width:0.3;" x1="412.8" x2="597" y1="426.2906" y2="426.2906"/><ellipse cx="418.8" cy="435.177" fill="#84BE84" rx="1.8" ry="1.8" style="stroke:#038048;stroke-width:0.6;"/><text fill="#000000" font-family="sans-serif" font-size="8.4" lengthAdjust="spacing" textLength="111.6" x="424.2" y="437.7551">Announcement(Property, int):</text><ellipse cx="418.8" cy="446.3496" fill="#84BE84" rx="1.8" ry="1.8" style="stroke:#038048;stroke-width:0.6;"/><text fill="#000000" font-family="sans-serif" font-size="8.4" lengthAdjust="spacing" textLength="169.8" x="424.2" y="448.9277">validateAnnouncement(Announcement): void</text></g><!--link CreateGuestUI to CreateGuestController--><g id="link_CreateGuestUI_CreateGuestController"><path codeLine="56" d="M104.43,91.2 C110.352,91.2 116.274,91.2 122.196,91.2 " fill="none" id="CreateGuestUI-to-CreateGuestController" style="stroke:#181818;stroke-width:0.6;stroke-dasharray:7.0,7.0;"/><polygon fill="#181818" points="125.292,91.2,119.892,88.8,122.292,91.2,119.892,93.6,125.292,91.2" style="stroke:#181818;stroke-width:0.6;"/></g><!--link CreateGuestController to Repositories--><g id="link_CreateGuestController_Repositories"><path codeLine="57" d="M334.968,91.2 C354.252,91.2 374.442,91.2 393.9,91.2 " fill="none" id="CreateGuestController-to-Repositories" style="stroke:#181818;stroke-width:0.6;stroke-dasharray:7.0,7.0;"/><polygon fill="#181818" points="397.014,91.2,391.614,88.8,394.014,91.2,391.614,93.6,397.014,91.2" style="stroke:#181818;stroke-width:0.6;"/><text fill="#000000" font-family="sans-serif" font-size="7.8" lengthAdjust="spacing" textLength="40.2" x="345.9" y="87.017">repositories</text></g><!--link Repositories to AnnouncementRepository--><g id="link_Repositories_AnnouncementRepository"><path codeLine="58" d="M504.9,178.266 C504.9,193.548 504.9,208.884 504.9,222.414 " fill="none" id="Repositories-to-AnnouncementRepository" style="stroke:#181818;stroke-width:0.6;"/><polygon fill="#181818" points="504.9,225.456,507.3,220.056,504.9,222.456,502.5,220.056,504.9,225.456" style="stroke:#181818;stroke-width:0.6;"/><polygon fill="#000000" points="507.9,204.9873,509.6634,199.5603,506.1366,199.5603,507.9,204.9873" style="stroke:#000000;stroke-width:0.6;"/><text fill="#000000" font-family="sans-serif" font-size="7.8" lengthAdjust="spacing" textLength="12.6" x="513.3" y="205.217">has</text><text fill="#000000" font-family="sans-serif" font-size="7.8" lengthAdjust="spacing" textLength="4.2" x="500.5917" y="191.4387">1</text><text fill="#000000" font-family="sans-serif" font-size="7.8" lengthAdjust="spacing" textLength="3" x="501.7453" y="218.7758">*</text></g><!--link AnnouncementRepository to Announcement--><g id="link_AnnouncementRepository_Announcement"><path codeLine="59" d="M504.9,310.38 C504.9,324.282 504.9,339.912 504.9,354.396 " fill="none" id="AnnouncementRepository-to-Announcement" style="stroke:#181818;stroke-width:0.6;"/><polygon fill="#181818" points="504.9,357.468,507.3,352.068,504.9,354.468,502.5,352.068,504.9,357.468" style="stroke:#181818;stroke-width:0.6;"/><polygon fill="#000000" points="507.9,336.9873,509.6634,331.5603,506.1366,331.5603,507.9,336.9873" style="stroke:#000000;stroke-width:0.6;"/><text fill="#000000" font-family="sans-serif" font-size="7.8" lengthAdjust="spacing" textLength="12.6" x="513.3" y="337.217">has</text><text fill="#000000" font-family="sans-serif" font-size="7.8" lengthAdjust="spacing" textLength="4.2" x="500.4933" y="323.4861">1</text><text fill="#000000" font-family="sans-serif" font-size="7.8" lengthAdjust="spacing" textLength="3" x="501.7617" y="350.7933">*</text></g><!--SRC=[dLHDYzim4BthLmm-fTswq1vD2OGSoaAXfQ4_G96dYLXPOwHnbhHiVtiLHSbQMNa_efCzRzvetkX9_axRNZhPGKUMrDPHX_1R6e_2dw5UgZkvmHNl3O93nT9kp3Z1RsLBzzfkWDs0Wga79bWJCtNGwWD5anKZXZBI-mMpq-k1yLQHNUa_2DNdIeGLKVY9FNdDv3Hw-2iWh3eBpjurCVeFUaSzEjwVqNq3Fvx4Kh8SU8kMjPA7hiQKnGIIYCheW8u9ouj8Qb9R7sQaiCdQFMrlBGq1x2vgBOhnHFBX6yVPgpmGqwuf_PRHFQVhjSEvTlelJq0y9Dyi7Kh6hmDw_dKRZNDpZANGqJPrS2tT9wL7Cy6ET1lJtM3F_uMoIxBio1XqJye_GhCfFN7x2KvgxTM7KbytpnlO81Urly4FL-nyccNPa6cOPV0uclpw-0Q-QSzVnenvhA7YOOtZivE83y7670H_xm_DILDWoxRDgEEVp2ROqGwVIrqJ6PGs22yeB-Yzx38UiQAkqzw7Rfj3D7F8u-74MZjfT7kflDn-eMofweF8xzF7UVacYFBz2EdPEzw4eOsUZWohFbLGrtEetbTJ3cbWAptCnGGyLU7C4-8_]--></g></svg>