<?xml version="1.0" encoding="us-ascii" standalone="no"?><svg xmlns="http://www.w3.org/2000/svg" xmlns:xlink="http://www.w3.org/1999/xlink" contentStyleType="text/css" height="417px" preserveAspectRatio="none" style="width:793px;height:417px;background:#FFFFFF;" version="1.1" viewBox="0 0 793 417" width="793px" zoomAndPan="magnify"><defs/><g><rect fill="#FFFFFF" height="284.6191" style="stroke:#181818;stroke-width:1.0;" width="10" x="55.5" y="67.2422"/><rect fill="#FFFFFF" height="252.3281" style="stroke:#181818;stroke-width:1.0;" width="10" x="201.5" y="90.5332"/><rect fill="#FFFFFF" height="31.291" style="stroke:#181818;stroke-width:1.0;" width="10" x="340.5" y="148.1152"/><rect fill="#FFFFFF" height="31.291" style="stroke:#181818;stroke-width:1.0;" width="10" x="447.5" y="210.6973"/><rect fill="#FFFFFF" height="31.291" style="stroke:#181818;stroke-width:1.0;" width="10" x="639" y="273.2793"/><rect fill="none" height="207.0371" style="stroke:#000000;stroke-width:1.5;" width="671" x="116" y="105.5332"/><line style="stroke:#181818;stroke-width:0.5;stroke-dasharray:5.0,5.0;" x1="60" x2="60" y1="57.2422" y2="360.8613"/><line style="stroke:#181818;stroke-width:0.5;stroke-dasharray:5.0,5.0;" x1="206" x2="206" y1="57.2422" y2="360.8613"/><line style="stroke:#181818;stroke-width:0.5;stroke-dasharray:5.0,5.0;" x1="345" x2="345" y1="57.2422" y2="360.8613"/><line style="stroke:#181818;stroke-width:0.5;stroke-dasharray:5.0,5.0;" x1="452" x2="452" y1="57.2422" y2="360.8613"/><line style="stroke:#181818;stroke-width:0.5;stroke-dasharray:5.0,5.0;" x1="644" x2="644" y1="57.2422" y2="360.8613"/><rect fill="#E3E3E3" height="32.6211" rx="2.5" ry="2.5" style="stroke:#181818;stroke-width:0.5;" width="111" x="5" y="23.6211"/><text fill="#000000" font-family="sans-serif" font-size="14" lengthAdjust="spacing" textLength="97" x="12" y="45.7285">:CreateGuestUI</text><rect fill="#E3E3E3" height="32.6211" rx="2.5" ry="2.5" style="stroke:#181818;stroke-width:0.5;" width="111" x="5" y="359.8613"/><text fill="#000000" font-family="sans-serif" font-size="14" lengthAdjust="spacing" textLength="97" x="12" y="381.9688">:CreateGuestUI</text><rect fill="#E3E3E3" height="32.6211" rx="2.5" ry="2.5" style="stroke:#181818;stroke-width:0.5;" width="161" x="126" y="23.6211"/><text fill="#000000" font-family="sans-serif" font-size="14" lengthAdjust="spacing" textLength="147" x="133" y="45.7285">:CreateGuestController</text><rect fill="#E3E3E3" height="32.6211" rx="2.5" ry="2.5" style="stroke:#181818;stroke-width:0.5;" width="161" x="126" y="359.8613"/><text fill="#000000" font-family="sans-serif" font-size="14" lengthAdjust="spacing" textLength="147" x="133" y="381.9688">:CreateGuestController</text><rect fill="#E3E3E3" height="32.6211" rx="2.5" ry="2.5" style="stroke:#181818;stroke-width:0.5;" width="97" x="297" y="23.6211"/><text fill="#000000" font-family="sans-serif" font-size="14" lengthAdjust="spacing" textLength="83" x="304" y="45.7285">:Repositories</text><rect fill="#E3E3E3" height="32.6211" rx="2.5" ry="2.5" style="stroke:#181818;stroke-width:0.5;" width="97" x="297" y="359.8613"/><text fill="#000000" font-family="sans-serif" font-size="14" lengthAdjust="spacing" textLength="83" x="304" y="381.9688">:Repositories</text><rect fill="#E3E3E3" height="51.2422" rx="2.5" ry="2.5" style="stroke:#181818;stroke-width:0.5;" width="97" x="404" y="5"/><text fill="#000000" font-family="sans-serif" font-size="14" lengthAdjust="spacing" textLength="74" x="415.5" y="27.1074">repositories</text><text fill="#000000" font-family="sans-serif" font-size="14" lengthAdjust="spacing" textLength="83" x="411" y="45.7285">:Repositories</text><rect fill="#E3E3E3" height="51.2422" rx="2.5" ry="2.5" style="stroke:#181818;stroke-width:0.5;" width="97" x="404" y="359.8613"/><text fill="#000000" font-family="sans-serif" font-size="14" lengthAdjust="spacing" textLength="74" x="415.5" y="381.9688">repositories</text><text fill="#000000" font-family="sans-serif" font-size="14" lengthAdjust="spacing" textLength="83" x="411" y="400.5898">:Repositories</text><rect fill="#E3E3E3" height="32.6211" rx="2.5" ry="2.5" style="stroke:#181818;stroke-width:0.5;" width="266" x="511" y="23.6211"/><text fill="#000000" font-family="sans-serif" font-size="14" lengthAdjust="spacing" textLength="252" x="518" y="45.7285">PropertyRepository:\PropertyRepository</text><rect fill="#E3E3E3" height="32.6211" rx="2.5" ry="2.5" style="stroke:#181818;stroke-width:0.5;" width="266" x="511" y="359.8613"/><text fill="#000000" font-family="sans-serif" font-size="14" lengthAdjust="spacing" textLength="252" x="518" y="381.9688">PropertyRepository:\PropertyRepository</text><rect fill="#FFFFFF" height="284.6191" style="stroke:#181818;stroke-width:1.0;" width="10" x="55.5" y="67.2422"/><rect fill="#FFFFFF" height="252.3281" style="stroke:#181818;stroke-width:1.0;" width="10" x="201.5" y="90.5332"/><rect fill="#FFFFFF" height="31.291" style="stroke:#181818;stroke-width:1.0;" width="10" x="340.5" y="148.1152"/><rect fill="#FFFFFF" height="31.291" style="stroke:#181818;stroke-width:1.0;" width="10" x="447.5" y="210.6973"/><rect fill="#FFFFFF" height="31.291" style="stroke:#181818;stroke-width:1.0;" width="10" x="639" y="273.2793"/><polygon fill="#181818" points="189.5,86.5332,199.5,90.5332,189.5,94.5332,193.5,90.5332" style="stroke:#181818;stroke-width:1.0;"/><line style="stroke:#181818;stroke-width:1.0;" x1="65.5" x2="195.5" y1="90.5332" y2="90.5332"/><text fill="#000000" font-family="sans-serif" font-size="13" lengthAdjust="spacing" textLength="98" x="72.5" y="85.2705">getListProperties</text><path d="M116,105.5332 L267,105.5332 L267,114.8242 L257,124.8242 L116,124.8242 L116,105.5332 " fill="#EEEEEE" style="stroke:#000000;stroke-width:1.5;"/><rect fill="none" height="207.0371" style="stroke:#000000;stroke-width:1.5;" width="671" x="116" y="105.5332"/><text fill="#000000" font-family="sans-serif" font-size="13" font-weight="bold" lengthAdjust="spacing" textLength="106" x="131" y="120.5615">Get Property List</text><polygon fill="#181818" points="328.5,144.1152,338.5,148.1152,328.5,152.1152,332.5,148.1152" style="stroke:#181818;stroke-width:1.0;"/><line style="stroke:#181818;stroke-width:1.0;" x1="211.5" x2="334.5" y1="148.1152" y2="148.1152"/><text fill="#000000" font-family="sans-serif" font-size="13" lengthAdjust="spacing" textLength="75" x="218.5" y="142.8525">getInstance()</text><polygon fill="#181818" points="222.5,175.4063,212.5,179.4063,222.5,183.4063,218.5,179.4063" style="stroke:#181818;stroke-width:1.0;"/><line style="stroke:#181818;stroke-width:1.0;stroke-dasharray:2.0,2.0;" x1="216.5" x2="344.5" y1="179.4063" y2="179.4063"/><text fill="#000000" font-family="sans-serif" font-size="13" lengthAdjust="spacing" textLength="67" x="228.5" y="174.1436">repositories</text><polygon fill="#181818" points="435.5,206.6973,445.5,210.6973,435.5,214.6973,439.5,210.6973" style="stroke:#181818;stroke-width:1.0;"/><line style="stroke:#181818;stroke-width:1.0;" x1="211.5" x2="441.5" y1="210.6973" y2="210.6973"/><text fill="#000000" font-family="sans-serif" font-size="13" lengthAdjust="spacing" textLength="137" x="218.5" y="205.4346">getPropertyRepository()</text><polygon fill="#181818" points="222.5,237.9883,212.5,241.9883,222.5,245.9883,218.5,241.9883" style="stroke:#181818;stroke-width:1.0;"/><line style="stroke:#181818;stroke-width:1.0;stroke-dasharray:2.0,2.0;" x1="216.5" x2="451.5" y1="241.9883" y2="241.9883"/><text fill="#000000" font-family="sans-serif" font-size="13" lengthAdjust="spacing" textLength="111" x="228.5" y="236.7256">PropertyRepository</text><polygon fill="#181818" points="627,269.2793,637,273.2793,627,277.2793,631,273.2793" style="stroke:#181818;stroke-width:1.0;"/><line style="stroke:#181818;stroke-width:1.0;" x1="211.5" x2="633" y1="273.2793" y2="273.2793"/><text fill="#000000" font-family="sans-serif" font-size="13" lengthAdjust="spacing" textLength="96" x="218.5" y="268.0166">getPropertyList()</text><polygon fill="#181818" points="222.5,300.5703,212.5,304.5703,222.5,308.5703,218.5,304.5703" style="stroke:#181818;stroke-width:1.0;"/><line style="stroke:#181818;stroke-width:1.0;stroke-dasharray:2.0,2.0;" x1="216.5" x2="643" y1="304.5703" y2="304.5703"/><text fill="#000000" font-family="sans-serif" font-size="13" lengthAdjust="spacing" textLength="70" x="228.5" y="299.3076">PropertyList</text><polygon fill="#181818" points="76.5,338.8613,66.5,342.8613,76.5,346.8613,72.5,342.8613" style="stroke:#181818;stroke-width:1.0;"/><line style="stroke:#181818;stroke-width:1.0;stroke-dasharray:2.0,2.0;" x1="70.5" x2="205.5" y1="342.8613" y2="342.8613"/><text fill="#000000" font-family="sans-serif" font-size="13" lengthAdjust="spacing" textLength="70" x="82.5" y="337.5986">ListProperty</text><!--SRC=[bLAzReCm4Dxz5ATCxP0NOAXKCKH86QByR5aik18hO2FxQCNRrpOfcDX4gYMMuxw_kpDt8JkkUGkjaggyQTKYaEwHcUbFnyixh_54GuEWiIGkwoPiC3TUgHyXQ_ZYZK76R9b4AJek2JPPhf4JxdeqT2asm0rSYlMMN4dIgcbG-zRyVDm_DH-nKqQGqWADxvaAmqauQwJa4g83n5N618Vzvtc9E6ZLeQPXfiwkSMq4HsN66F2InBVDvBBQ3xOVFWfaK2FjXQ47p5fW4Bm9vuCpLclLTx13cdJ0eHSOzpov5KdCOjGifB6BA_7jFS9Ecgb1HjtkfLIsZuWPXEEEu1N-J-ulcDlHc2GU-AjCVhV949vnTftOumllC-raCC8lxRgrFHkTwH9751kE5RRpNOKwRDLsGWTbjJ9rIsvFDuFWNfT32PZ7U_q5]--></g></svg>