<?xml version="1.0" encoding="us-ascii" standalone="no"?><svg xmlns="http://www.w3.org/2000/svg" xmlns:xlink="http://www.w3.org/1999/xlink" contentStyleType="text/css" height="692px" preserveAspectRatio="none" style="width:532px;height:692px;background:#FFFFFF;" version="1.1" viewBox="0 0 532 692" width="532px" zoomAndPan="magnify"><defs/><g><rect fill="#FFFFFF" height="536.2672" style="stroke:#181818;stroke-width:0.8000000000000002;" width="8" x="53.6" y="74.8969"/><rect fill="#FFFFFF" height="161.3656" style="stroke:#181818;stroke-width:0.8000000000000002;" width="8" x="318.4" y="93.5297"/><rect fill="#FFFFFF" height="132.0688" style="stroke:#181818;stroke-width:0.8000000000000002;" width="8" x="318.4" y="300.9609"/><rect fill="#FFFFFF" height="132.0688" style="stroke:#181818;stroke-width:0.8000000000000002;" width="8" x="318.4" y="479.0953"/><rect fill="#FFFFFF" height="76.4031" style="stroke:#181818;stroke-width:0.8000000000000002;" width="8" x="453.6" y="153.4594"/><rect fill="none" height="141.9016" style="stroke:#000000;stroke-width:1.2000000000000002;" width="519.2" x="8" y="266.8953"/><rect fill="none" height="141.9016" style="stroke:#000000;stroke-width:1.2000000000000002;" width="519.2" x="8" y="445.0297"/><line style="stroke:#181818;stroke-width:0.4000000000000001;stroke-dasharray:5.0,5.0;" x1="57.6" x2="57.6" y1="66.8969" y2="625.5641"/><line style="stroke:#181818;stroke-width:0.4000000000000001;stroke-dasharray:5.0,5.0;" x1="322.4" x2="322.4" y1="66.8969" y2="625.5641"/><line style="stroke:#181818;stroke-width:0.4000000000000001;stroke-dasharray:5.0,5.0;" x1="457.6" x2="457.6" y1="125.3781" y2="625.5641"/><text fill="#000000" font-family="sans-serif" font-size="11.2" lengthAdjust="spacing" textLength="78.4" x="16" y="64.0859">Unregister User</text><ellipse cx="57.6" cy="10.8" fill="#E3E3E3" rx="6.4" ry="6.4" style="stroke:#181818;stroke-width:0.4000000000000001;"/><path d="M57.6,17.2 L57.6,38.8 M47.2,23.6 L68,23.6 M57.6,38.8 L47.2,50.8 M57.6,38.8 L68,50.8 " fill="none" style="stroke:#181818;stroke-width:0.4000000000000001;"/><text fill="#000000" font-family="sans-serif" font-size="11.2" lengthAdjust="spacing" textLength="78.4" x="16" y="636.85">Unregister User</text><ellipse cx="57.6" cy="646.4609" fill="#E3E3E3" rx="6.4" ry="6.4" style="stroke:#181818;stroke-width:0.4000000000000001;"/><path d="M57.6,652.8609 L57.6,674.4609 M47.2,659.2609 L68,659.2609 M57.6,674.4609 L47.2,686.4609 M57.6,674.4609 L68,686.4609 " fill="none" style="stroke:#181818;stroke-width:0.4000000000000001;"/><rect fill="#E3E3E3" height="26.0969" rx="2" ry="2" style="stroke:#181818;stroke-width:0.4000000000000001;" width="83.2" x="280.8" y="40"/><text fill="#000000" font-family="sans-serif" font-size="11.2" lengthAdjust="spacing" textLength="72" x="286.4" y="57.6859">:CreateTaskUI</text><rect fill="#E3E3E3" height="26.0969" rx="2" ry="2" style="stroke:#181818;stroke-width:0.4000000000000001;" width="83.2" x="280.8" y="624.7641"/><text fill="#000000" font-family="sans-serif" font-size="11.2" lengthAdjust="spacing" textLength="72" x="286.4" y="642.45">:CreateTaskUI</text><rect fill="#E3E3E3" height="26.0969" rx="2" ry="2" style="stroke:#181818;stroke-width:0.4000000000000001;" width="123.2" x="396" y="624.7641"/><text fill="#000000" font-family="sans-serif" font-size="11.2" lengthAdjust="spacing" textLength="112" x="401.6" y="642.45">:CreateTaskController</text><rect fill="#FFFFFF" height="536.2672" style="stroke:#181818;stroke-width:0.8000000000000002;" width="8" x="53.6" y="74.8969"/><rect fill="#FFFFFF" height="161.3656" style="stroke:#181818;stroke-width:0.8000000000000002;" width="8" x="318.4" y="93.5297"/><rect fill="#FFFFFF" height="132.0688" style="stroke:#181818;stroke-width:0.8000000000000002;" width="8" x="318.4" y="300.9609"/><rect fill="#FFFFFF" height="132.0688" style="stroke:#181818;stroke-width:0.8000000000000002;" width="8" x="318.4" y="479.0953"/><rect fill="#FFFFFF" height="76.4031" style="stroke:#181818;stroke-width:0.8000000000000002;" width="8" x="453.6" y="153.4594"/><polygon fill="#181818" points="308.8,90.3297,316.8,93.5297,308.8,96.7297,312,93.5297" style="stroke:#181818;stroke-width:0.8000000000000002;"/><line style="stroke:#181818;stroke-width:0.8000000000000002;" x1="61.6" x2="313.6" y1="93.5297" y2="93.5297"/><text fill="#000000" font-family="sans-serif" font-size="10.4" font-weight="bold" lengthAdjust="spacing" textLength="5.6" x="67.2" y="89.3195">1</text><text fill="#000000" font-family="sans-serif" font-size="10.4" lengthAdjust="spacing" textLength="101.6" x="76" y="89.3195">Asks to list properties</text><polygon fill="#181818" points="386.4,115.3625,394.4,118.5625,386.4,121.7625,389.6,118.5625" style="stroke:#181818;stroke-width:0.8000000000000002;"/><line style="stroke:#181818;stroke-width:0.8000000000000002;" x1="326.4" x2="391.2" y1="118.5625" y2="118.5625"/><text fill="#000000" font-family="sans-serif" font-size="10.4" font-weight="bold" lengthAdjust="spacing" textLength="5.6" x="332" y="114.3523">2</text><text fill="#000000" font-family="sans-serif" font-size="10.4" lengthAdjust="spacing" textLength="30.4" x="340.8" y="114.3523">Create</text><rect fill="#E3E3E3" height="26.0969" rx="2" ry="2" style="stroke:#181818;stroke-width:0.4000000000000001;" width="123.2" x="396" y="99.9297"/><text fill="#000000" font-family="sans-serif" font-size="11.2" lengthAdjust="spacing" textLength="112" x="401.6" y="117.6156">:CreateTaskController</text><polygon fill="#181818" points="444,150.2594,452,153.4594,444,156.6594,447.2,153.4594" style="stroke:#181818;stroke-width:0.8000000000000002;"/><line style="stroke:#181818;stroke-width:0.8000000000000002;" x1="326.4" x2="448.8" y1="153.4594" y2="153.4594"/><text fill="#000000" font-family="sans-serif" font-size="10.4" font-weight="bold" lengthAdjust="spacing" textLength="5.6" x="332" y="149.2492">3</text><text fill="#000000" font-family="sans-serif" font-size="10.4" lengthAdjust="spacing" textLength="78.4" x="340.8" y="149.2492">getListProperties</text><rect fill="none" height="47.3703" style="stroke:#000000;stroke-width:1.2000000000000002;" width="128" x="393.6" y="159.8594"/><path d="M393.6,159.8594 L443.2,159.8594 L443.2,167.0594 L435.2,175.0594 L393.6,175.0594 L393.6,159.8594 " fill="#EEEEEE" style="stroke:#000000;stroke-width:1.6000000000000003;"/><text fill="#000000" font-family="sans-serif" font-size="10.4" font-weight="bold" lengthAdjust="spacing" textLength="13.6" x="404" y="172.682">ref</text><text fill="#000000" font-family="sans-serif" font-size="9.6" lengthAdjust="spacing" textLength="81.6" x="416.8" y="188.6188">Get List Properties</text><text fill="#000000" font-family="sans-serif" font-size="9.6" lengthAdjust="spacing" textLength="2.4" x="456.4" y="201.3875">&#160;</text><polygon fill="#181818" points="335.2,226.6625,327.2,229.8625,335.2,233.0625,332,229.8625" style="stroke:#181818;stroke-width:0.8000000000000002;"/><line style="stroke:#181818;stroke-width:0.8000000000000002;stroke-dasharray:2.0,2.0;" x1="330.4" x2="456.8" y1="229.8625" y2="229.8625"/><text fill="#000000" font-family="sans-serif" font-size="10.4" font-weight="bold" lengthAdjust="spacing" textLength="5.6" x="340" y="225.6523">4</text><text fill="#000000" font-family="sans-serif" font-size="10.4" lengthAdjust="spacing" textLength="84" x="348.8" y="225.6523">taskListProperties</text><polygon fill="#181818" points="70.4,251.6953,62.4,254.8953,70.4,258.0953,67.2,254.8953" style="stroke:#181818;stroke-width:0.8000000000000002;"/><line style="stroke:#181818;stroke-width:0.8000000000000002;stroke-dasharray:2.0,2.0;" x1="65.6" x2="321.6" y1="254.8953" y2="254.8953"/><text fill="#000000" font-family="sans-serif" font-size="10.4" font-weight="bold" lengthAdjust="spacing" textLength="5.6" x="75.2" y="250.6852">5</text><text fill="#000000" font-family="sans-serif" font-size="10.4" lengthAdjust="spacing" textLength="112.8" x="84" y="250.6852">Shows List of Properties</text><path d="M8,266.8953 L56.8,266.8953 L56.8,274.3281 L48.8,282.3281 L8,282.3281 L8,266.8953 " fill="#EEEEEE" style="stroke:#000000;stroke-width:1.2000000000000002;"/><rect fill="none" height="141.9016" style="stroke:#000000;stroke-width:1.2000000000000002;" width="519.2" x="8" y="266.8953"/><text fill="#000000" font-family="sans-serif" font-size="10.4" font-weight="bold" lengthAdjust="spacing" textLength="12.8" x="20" y="278.918">alt</text><text fill="#000000" font-family="sans-serif" font-size="8.8" font-weight="bold" lengthAdjust="spacing" textLength="105.6" x="68.8" y="277.9914">[User filters properties]</text><polygon fill="#181818" points="308.8,297.7609,316.8,300.9609,308.8,304.1609,312,300.9609" style="stroke:#181818;stroke-width:0.8000000000000002;"/><line style="stroke:#181818;stroke-width:0.8000000000000002;" x1="61.6" x2="313.6" y1="300.9609" y2="300.9609"/><text fill="#000000" font-family="sans-serif" font-size="10.4" font-weight="bold" lengthAdjust="spacing" textLength="5.6" x="67.2" y="296.7508">6</text><text fill="#000000" font-family="sans-serif" font-size="10.4" lengthAdjust="spacing" textLength="162.4" x="76" y="296.7508">Selects wanted filters for properties</text><polygon fill="#181818" points="448,322.7938,456,325.9938,448,329.1938,451.2,325.9938" style="stroke:#181818;stroke-width:0.8000000000000002;"/><line style="stroke:#181818;stroke-width:0.8000000000000002;" x1="326.4" x2="452.8" y1="325.9938" y2="325.9938"/><text fill="#000000" font-family="sans-serif" font-size="10.4" font-weight="bold" lengthAdjust="spacing" textLength="5.6" x="332" y="321.7836">7</text><text fill="#000000" font-family="sans-serif" font-size="10.4" lengthAdjust="spacing" textLength="96" x="340.8" y="321.7836">getFilteredProperties</text><rect fill="none" height="47.3703" style="stroke:#000000;stroke-width:1.2000000000000002;" width="128" x="393.6" y="332.3938"/><path d="M393.6,332.3938 L443.2,332.3938 L443.2,339.5938 L435.2,347.5938 L393.6,347.5938 L393.6,332.3938 " fill="#EEEEEE" style="stroke:#000000;stroke-width:1.6000000000000003;"/><text fill="#000000" font-family="sans-serif" font-size="10.4" font-weight="bold" lengthAdjust="spacing" textLength="13.6" x="404" y="345.2164">ref</text><text fill="#000000" font-family="sans-serif" font-size="9.6" lengthAdjust="spacing" textLength="98.4" x="408.4" y="361.1531">Get Filtered Properties</text><text fill="#000000" font-family="sans-serif" font-size="9.6" lengthAdjust="spacing" textLength="2.4" x="456.4" y="373.9219">&#160;</text><polygon fill="#181818" points="335.2,399.1969,327.2,402.3969,335.2,405.5969,332,402.3969" style="stroke:#181818;stroke-width:0.8000000000000002;"/><line style="stroke:#181818;stroke-width:0.8000000000000002;stroke-dasharray:2.0,2.0;" x1="330.4" x2="456.8" y1="402.3969" y2="402.3969"/><text fill="#000000" font-family="sans-serif" font-size="10.4" font-weight="bold" lengthAdjust="spacing" textLength="5.6" x="340" y="398.1867">8</text><text fill="#000000" font-family="sans-serif" font-size="10.4" lengthAdjust="spacing" textLength="101.6" x="348.8" y="398.1867">taskFilteredProperties</text><polygon fill="#181818" points="70.4,429.8297,62.4,433.0297,70.4,436.2297,67.2,433.0297" style="stroke:#181818;stroke-width:0.8000000000000002;"/><line style="stroke:#181818;stroke-width:0.8000000000000002;stroke-dasharray:2.0,2.0;" x1="65.6" x2="321.6" y1="433.0297" y2="433.0297"/><text fill="#000000" font-family="sans-serif" font-size="10.4" font-weight="bold" lengthAdjust="spacing" textLength="5.6" x="75.2" y="428.8195">9</text><text fill="#000000" font-family="sans-serif" font-size="10.4" lengthAdjust="spacing" textLength="190.4" x="84" y="428.8195">Display list of properties by selected filter</text><path d="M8,445.0297 L56.8,445.0297 L56.8,452.4625 L48.8,460.4625 L8,460.4625 L8,445.0297 " fill="#EEEEEE" style="stroke:#000000;stroke-width:1.2000000000000002;"/><rect fill="none" height="141.9016" style="stroke:#000000;stroke-width:1.2000000000000002;" width="519.2" x="8" y="445.0297"/><text fill="#000000" font-family="sans-serif" font-size="10.4" font-weight="bold" lengthAdjust="spacing" textLength="12.8" x="20" y="457.0523">alt</text><text fill="#000000" font-family="sans-serif" font-size="8.8" font-weight="bold" lengthAdjust="spacing" textLength="103.2" x="68.8" y="456.1258">[User sorts properties]</text><polygon fill="#181818" points="308.8,475.8953,316.8,479.0953,308.8,482.2953,312,479.0953" style="stroke:#181818;stroke-width:0.8000000000000002;"/><line style="stroke:#181818;stroke-width:0.8000000000000002;" x1="61.6" x2="313.6" y1="479.0953" y2="479.0953"/><text fill="#000000" font-family="sans-serif" font-size="10.4" font-weight="bold" lengthAdjust="spacing" textLength="11.2" x="67.2" y="474.8852">10</text><text fill="#000000" font-family="sans-serif" font-size="10.4" lengthAdjust="spacing" textLength="189.6" x="81.6" y="474.8852">Selects wanted sort criteria for properties</text><polygon fill="#181818" points="448,500.9281,456,504.1281,448,507.3281,451.2,504.1281" style="stroke:#181818;stroke-width:0.8000000000000002;"/><line style="stroke:#181818;stroke-width:0.8000000000000002;" x1="326.4" x2="452.8" y1="504.1281" y2="504.1281"/><text fill="#000000" font-family="sans-serif" font-size="10.4" font-weight="bold" lengthAdjust="spacing" textLength="11.2" x="332" y="499.918">11</text><text fill="#000000" font-family="sans-serif" font-size="10.4" lengthAdjust="spacing" textLength="80.8" x="346.4" y="499.918">getSortProperties</text><rect fill="none" height="47.3703" style="stroke:#000000;stroke-width:1.2000000000000002;" width="128" x="393.6" y="510.5281"/><path d="M393.6,510.5281 L443.2,510.5281 L443.2,517.7281 L435.2,525.7281 L393.6,525.7281 L393.6,510.5281 " fill="#EEEEEE" style="stroke:#000000;stroke-width:1.6000000000000003;"/><text fill="#000000" font-family="sans-serif" font-size="10.4" font-weight="bold" lengthAdjust="spacing" textLength="13.6" x="404" y="523.3508">ref</text><text fill="#000000" font-family="sans-serif" font-size="9.6" lengthAdjust="spacing" textLength="94.4" x="410.4" y="539.2875">Get Sorted Properties</text><text fill="#000000" font-family="sans-serif" font-size="9.6" lengthAdjust="spacing" textLength="2.4" x="456.4" y="552.0563">&#160;</text><polygon fill="#181818" points="335.2,577.3313,327.2,580.5313,335.2,583.7313,332,580.5313" style="stroke:#181818;stroke-width:0.8000000000000002;"/><line style="stroke:#181818;stroke-width:0.8000000000000002;stroke-dasharray:2.0,2.0;" x1="330.4" x2="456.8" y1="580.5313" y2="580.5313"/><text fill="#000000" font-family="sans-serif" font-size="10.4" font-weight="bold" lengthAdjust="spacing" textLength="11.2" x="340" y="576.3211">12</text><text fill="#000000" font-family="sans-serif" font-size="10.4" lengthAdjust="spacing" textLength="97.6" x="354.4" y="576.3211">taskSortedProperties</text><polygon fill="#181818" points="66.4,607.9641,58.4,611.1641,66.4,614.3641,63.2,611.1641" style="stroke:#181818;stroke-width:0.8000000000000002;"/><line style="stroke:#181818;stroke-width:0.8000000000000002;stroke-dasharray:2.0,2.0;" x1="61.6" x2="321.6" y1="611.1641" y2="611.1641"/><text fill="#000000" font-family="sans-serif" font-size="10.4" font-weight="bold" lengthAdjust="spacing" textLength="11.2" x="71.2" y="606.9539">13</text><text fill="#000000" font-family="sans-serif" font-size="10.4" lengthAdjust="spacing" textLength="223.2" x="85.6" y="606.9539">Display list of properties by selected sort criteria</text><!--SRC=[jPJFJiCm3CRlUGfh5oGaNc0793G4GW89CVO0MUjsqRAuYZt6tXudPLsfMluSyAbj_7ssVuxAMnSQ6-qETXIes4JQ8KZSe-7kfB75rjQubAD7Y5Y83RNl9_36bdHmeORAUaPZx5uex7ThZCPSR5o9K179cjwDBOGYp5OXOkrOCCAACSx0CjpSFXdr4rUunWQ1sNmHqGg-Mjwk7dBAwc4oOq518dd_QRPuVNaq9fLpRvgHpGrew0DSNQiJpE66jmn2uBKJQ28rgDx8RM8drQBvGmgLgJYPNrwgGLj-v5JFQfH7zNq-svxI8bP0RpfwRX9wSOy2IGJFWsPIO2YJzFoXwx0Tjc-KUxWwpIdAPwAN4YTSqYogJxZciDpGWTlEg8A1JSz2KUN6lEIrGkMyhfZxR8SxMABN6yLmq8LYsIaglIK3rR3A6F6xBCVopzHFmc_9ZvETg9b42c8SwAtZnjjZU_CKwNbKM1-1CvEEXla9CrEKlq1E-L14fzxE_WRr4FDI3KOGVu_vX3g99q0FOOy3Rmt-0VSNBYFGZUczfp_A1m00]--></g></svg>