<?xml version="1.0" encoding="us-ascii" standalone="no"?><svg xmlns="http://www.w3.org/2000/svg" xmlns:xlink="http://www.w3.org/1999/xlink" contentStyleType="text/css" height="1021px" preserveAspectRatio="none" style="width:1164px;height:1021px;background:#FFFFFF;" version="1.1" viewBox="0 0 1164 1021" width="1164px" zoomAndPan="magnify"><defs/><g><rect fill="#FFFFFF" height="836.1582" style="stroke:#181818;stroke-width:1.0;" width="10" x="75" y="93.6211"/><rect fill="#FFFFFF" height="358.5313" style="stroke:#181818;stroke-width:1.0;" width="10" x="406" y="116.9121"/><rect fill="#FFFFFF" height="165.0859" style="stroke:#181818;stroke-width:1.0;" width="10" x="406" y="533.0254"/><rect fill="#FFFFFF" height="165.0859" style="stroke:#181818;stroke-width:1.0;" width="10" x="406" y="755.6934"/><rect fill="#FFFFFF" height="252.3281" style="stroke:#181818;stroke-width:1.0;" width="10" x="573" y="191.8242"/><rect fill="#FFFFFF" height="31.291" style="stroke:#181818;stroke-width:1.0;" width="10" x="712" y="249.4063"/><rect fill="#FFFFFF" height="31.291" style="stroke:#181818;stroke-width:1.0;" width="10" x="819" y="311.9883"/><rect fill="#FFFFFF" height="31.291" style="stroke:#181818;stroke-width:1.0;" width="10" x="1010.5" y="374.5703"/><rect fill="none" height="207.0371" style="stroke:#000000;stroke-width:1.5;" width="671" x="487.5" y="206.8242"/><rect fill="none" height="177.377" style="stroke:#000000;stroke-width:1.5;" width="658.5" x="10" y="490.4434"/><rect fill="none" height="177.377" style="stroke:#000000;stroke-width:1.5;" width="658.5" x="10" y="713.1113"/><line style="stroke:#181818;stroke-width:0.5;stroke-dasharray:5.0,5.0;" x1="80" x2="80" y1="83.6211" y2="938.7793"/><line style="stroke:#181818;stroke-width:0.5;stroke-dasharray:5.0,5.0;" x1="410.5" x2="410.5" y1="83.6211" y2="938.7793"/><line style="stroke:#181818;stroke-width:0.5;stroke-dasharray:5.0,5.0;" x1="577.5" x2="577.5" y1="156.7227" y2="938.7793"/><line style="stroke:#181818;stroke-width:0.5;stroke-dasharray:5.0,5.0;" x1="716.5" x2="716.5" y1="83.6211" y2="938.7793"/><line style="stroke:#181818;stroke-width:0.5;stroke-dasharray:5.0,5.0;" x1="823.5" x2="823.5" y1="83.6211" y2="938.7793"/><line style="stroke:#181818;stroke-width:0.5;stroke-dasharray:5.0,5.0;" x1="1015.5" x2="1015.5" y1="83.6211" y2="938.7793"/><text fill="#000000" font-family="sans-serif" font-size="14" lengthAdjust="spacing" textLength="114" x="20" y="80.1074">Unregistered User</text><ellipse cx="80" cy="13.5" fill="#E3E3E3" rx="8" ry="8" style="stroke:#181818;stroke-width:0.5;"/><path d="M80,21.5 L80,48.5 M67,29.5 L93,29.5 M80,48.5 L67,63.5 M80,48.5 L93,63.5 " fill="none" style="stroke:#181818;stroke-width:0.5;"/><text fill="#000000" font-family="sans-serif" font-size="14" lengthAdjust="spacing" textLength="114" x="20" y="952.8867">Unregistered User</text><ellipse cx="80" cy="964.9004" fill="#E3E3E3" rx="8" ry="8" style="stroke:#181818;stroke-width:0.5;"/><path d="M80,972.9004 L80,999.9004 M67,980.9004 L93,980.9004 M80,999.9004 L67,1014.9004 M80,999.9004 L93,1014.9004 " fill="none" style="stroke:#181818;stroke-width:0.5;"/><rect fill="#E3E3E3" height="32.6211" rx="2.5" ry="2.5" style="stroke:#181818;stroke-width:0.5;" width="111" x="355.5" y="50"/><text fill="#000000" font-family="sans-serif" font-size="14" lengthAdjust="spacing" textLength="97" x="362.5" y="72.1074">:CreateGuestUI</text><rect fill="#E3E3E3" height="32.6211" rx="2.5" ry="2.5" style="stroke:#181818;stroke-width:0.5;" width="111" x="355.5" y="937.7793"/><text fill="#000000" font-family="sans-serif" font-size="14" lengthAdjust="spacing" textLength="97" x="362.5" y="959.8867">:CreateGuestUI</text><rect fill="#E3E3E3" height="32.6211" rx="2.5" ry="2.5" style="stroke:#181818;stroke-width:0.5;" width="161" x="497.5" y="937.7793"/><text fill="#000000" font-family="sans-serif" font-size="14" lengthAdjust="spacing" textLength="147" x="504.5" y="959.8867">:CreateGuestController</text><rect fill="#E3E3E3" height="32.6211" rx="2.5" ry="2.5" style="stroke:#181818;stroke-width:0.5;" width="97" x="668.5" y="50"/><text fill="#000000" font-family="sans-serif" font-size="14" lengthAdjust="spacing" textLength="83" x="675.5" y="72.1074">:Repositories</text><rect fill="#E3E3E3" height="32.6211" rx="2.5" ry="2.5" style="stroke:#181818;stroke-width:0.5;" width="97" x="668.5" y="937.7793"/><text fill="#000000" font-family="sans-serif" font-size="14" lengthAdjust="spacing" textLength="83" x="675.5" y="959.8867">:Repositories</text><rect fill="#E3E3E3" height="51.2422" rx="2.5" ry="2.5" style="stroke:#181818;stroke-width:0.5;" width="97" x="775.5" y="31.3789"/><text fill="#000000" font-family="sans-serif" font-size="14" lengthAdjust="spacing" textLength="74" x="787" y="53.4863">repositories</text><text fill="#000000" font-family="sans-serif" font-size="14" lengthAdjust="spacing" textLength="83" x="782.5" y="72.1074">:Repositories</text><rect fill="#E3E3E3" height="51.2422" rx="2.5" ry="2.5" style="stroke:#181818;stroke-width:0.5;" width="97" x="775.5" y="937.7793"/><text fill="#000000" font-family="sans-serif" font-size="14" lengthAdjust="spacing" textLength="74" x="787" y="959.8867">repositories</text><text fill="#000000" font-family="sans-serif" font-size="14" lengthAdjust="spacing" textLength="83" x="782.5" y="978.5078">:Repositories</text><rect fill="#E3E3E3" height="32.6211" rx="2.5" ry="2.5" style="stroke:#181818;stroke-width:0.5;" width="266" x="882.5" y="50"/><text fill="#000000" font-family="sans-serif" font-size="14" lengthAdjust="spacing" textLength="252" x="889.5" y="72.1074">PropertyRepository:\PropertyRepository</text><rect fill="#E3E3E3" height="32.6211" rx="2.5" ry="2.5" style="stroke:#181818;stroke-width:0.5;" width="266" x="882.5" y="937.7793"/><text fill="#000000" font-family="sans-serif" font-size="14" lengthAdjust="spacing" textLength="252" x="889.5" y="959.8867">PropertyRepository:\PropertyRepository</text><rect fill="#FFFFFF" height="836.1582" style="stroke:#181818;stroke-width:1.0;" width="10" x="75" y="93.6211"/><rect fill="#FFFFFF" height="358.5313" style="stroke:#181818;stroke-width:1.0;" width="10" x="406" y="116.9121"/><rect fill="#FFFFFF" height="165.0859" style="stroke:#181818;stroke-width:1.0;" width="10" x="406" y="533.0254"/><rect fill="#FFFFFF" height="165.0859" style="stroke:#181818;stroke-width:1.0;" width="10" x="406" y="755.6934"/><rect fill="#FFFFFF" height="252.3281" style="stroke:#181818;stroke-width:1.0;" width="10" x="573" y="191.8242"/><rect fill="#FFFFFF" height="31.291" style="stroke:#181818;stroke-width:1.0;" width="10" x="712" y="249.4063"/><rect fill="#FFFFFF" height="31.291" style="stroke:#181818;stroke-width:1.0;" width="10" x="819" y="311.9883"/><rect fill="#FFFFFF" height="31.291" style="stroke:#181818;stroke-width:1.0;" width="10" x="1010.5" y="374.5703"/><polygon fill="#181818" points="394,112.9121,404,116.9121,394,120.9121,398,116.9121" style="stroke:#181818;stroke-width:1.0;"/><line style="stroke:#181818;stroke-width:1.0;" x1="85" x2="400" y1="116.9121" y2="116.9121"/><text fill="#000000" font-family="sans-serif" font-size="13" font-weight="bold" lengthAdjust="spacing" textLength="7" x="92" y="111.6494">1</text><text fill="#000000" font-family="sans-serif" font-size="13" lengthAdjust="spacing" textLength="150" x="103" y="111.6494">asks to create a new task</text><polygon fill="#181818" points="485.5,144.2031,495.5,148.2031,485.5,152.2031,489.5,148.2031" style="stroke:#181818;stroke-width:1.0;"/><line style="stroke:#181818;stroke-width:1.0;" x1="416" x2="491.5" y1="148.2031" y2="148.2031"/><text fill="#000000" font-family="sans-serif" font-size="13" font-weight="bold" lengthAdjust="spacing" textLength="7" x="423" y="142.9404">2</text><text fill="#000000" font-family="sans-serif" font-size="13" lengthAdjust="spacing" textLength="36" x="434" y="142.9404">create</text><rect fill="#E3E3E3" height="32.6211" rx="2.5" ry="2.5" style="stroke:#181818;stroke-width:0.5;" width="161" x="497.5" y="124.9121"/><text fill="#000000" font-family="sans-serif" font-size="14" lengthAdjust="spacing" textLength="147" x="504.5" y="147.0195">:CreateGuestController</text><polygon fill="#181818" points="561,187.8242,571,191.8242,561,195.8242,565,191.8242" style="stroke:#181818;stroke-width:1.0;"/><line style="stroke:#181818;stroke-width:1.0;" x1="416" x2="567" y1="191.8242" y2="191.8242"/><text fill="#000000" font-family="sans-serif" font-size="13" font-weight="bold" lengthAdjust="spacing" textLength="7" x="423" y="186.5615">3</text><text fill="#000000" font-family="sans-serif" font-size="13" lengthAdjust="spacing" textLength="98" x="434" y="186.5615">getListProperties</text><path d="M487.5,206.8242 L638.5,206.8242 L638.5,216.1152 L628.5,226.1152 L487.5,226.1152 L487.5,206.8242 " fill="#EEEEEE" style="stroke:#000000;stroke-width:1.5;"/><rect fill="none" height="207.0371" style="stroke:#000000;stroke-width:1.5;" width="671" x="487.5" y="206.8242"/><text fill="#000000" font-family="sans-serif" font-size="13" font-weight="bold" lengthAdjust="spacing" textLength="106" x="502.5" y="221.8525">Get Property List</text><polygon fill="#181818" points="700,245.4063,710,249.4063,700,253.4063,704,249.4063" style="stroke:#181818;stroke-width:1.0;"/><line style="stroke:#181818;stroke-width:1.0;" x1="583" x2="706" y1="249.4063" y2="249.4063"/><text fill="#000000" font-family="sans-serif" font-size="13" font-weight="bold" lengthAdjust="spacing" textLength="7" x="590" y="244.1436">4</text><text fill="#000000" font-family="sans-serif" font-size="13" lengthAdjust="spacing" textLength="75" x="601" y="244.1436">getInstance()</text><polygon fill="#181818" points="594,276.6973,584,280.6973,594,284.6973,590,280.6973" style="stroke:#181818;stroke-width:1.0;"/><line style="stroke:#181818;stroke-width:1.0;stroke-dasharray:2.0,2.0;" x1="588" x2="716" y1="280.6973" y2="280.6973"/><text fill="#000000" font-family="sans-serif" font-size="13" font-weight="bold" lengthAdjust="spacing" textLength="7" x="600" y="275.4346">5</text><text fill="#000000" font-family="sans-serif" font-size="13" lengthAdjust="spacing" textLength="67" x="611" y="275.4346">repositories</text><polygon fill="#181818" points="807,307.9883,817,311.9883,807,315.9883,811,311.9883" style="stroke:#181818;stroke-width:1.0;"/><line style="stroke:#181818;stroke-width:1.0;" x1="583" x2="813" y1="311.9883" y2="311.9883"/><text fill="#000000" font-family="sans-serif" font-size="13" font-weight="bold" lengthAdjust="spacing" textLength="7" x="590" y="306.7256">6</text><text fill="#000000" font-family="sans-serif" font-size="13" lengthAdjust="spacing" textLength="137" x="601" y="306.7256">getPropertyRepository()</text><polygon fill="#181818" points="594,339.2793,584,343.2793,594,347.2793,590,343.2793" style="stroke:#181818;stroke-width:1.0;"/><line style="stroke:#181818;stroke-width:1.0;stroke-dasharray:2.0,2.0;" x1="588" x2="823" y1="343.2793" y2="343.2793"/><text fill="#000000" font-family="sans-serif" font-size="13" font-weight="bold" lengthAdjust="spacing" textLength="7" x="600" y="338.0166">7</text><text fill="#000000" font-family="sans-serif" font-size="13" lengthAdjust="spacing" textLength="111" x="611" y="338.0166">PropertyRepository</text><polygon fill="#181818" points="998.5,370.5703,1008.5,374.5703,998.5,378.5703,1002.5,374.5703" style="stroke:#181818;stroke-width:1.0;"/><line style="stroke:#181818;stroke-width:1.0;" x1="583" x2="1004.5" y1="374.5703" y2="374.5703"/><text fill="#000000" font-family="sans-serif" font-size="13" font-weight="bold" lengthAdjust="spacing" textLength="7" x="590" y="369.3076">8</text><text fill="#000000" font-family="sans-serif" font-size="13" lengthAdjust="spacing" textLength="96" x="601" y="369.3076">getPropertyList()</text><polygon fill="#181818" points="594,401.8613,584,405.8613,594,409.8613,590,405.8613" style="stroke:#181818;stroke-width:1.0;"/><line style="stroke:#181818;stroke-width:1.0;stroke-dasharray:2.0,2.0;" x1="588" x2="1014.5" y1="405.8613" y2="405.8613"/><text fill="#000000" font-family="sans-serif" font-size="13" font-weight="bold" lengthAdjust="spacing" textLength="7" x="600" y="400.5986">9</text><text fill="#000000" font-family="sans-serif" font-size="13" lengthAdjust="spacing" textLength="70" x="611" y="400.5986">PropertyList</text><polygon fill="#181818" points="427,440.1523,417,444.1523,427,448.1523,423,444.1523" style="stroke:#181818;stroke-width:1.0;"/><line style="stroke:#181818;stroke-width:1.0;stroke-dasharray:2.0,2.0;" x1="421" x2="577" y1="444.1523" y2="444.1523"/><text fill="#000000" font-family="sans-serif" font-size="13" font-weight="bold" lengthAdjust="spacing" textLength="14" x="433" y="438.8896">10</text><text fill="#000000" font-family="sans-serif" font-size="13" lengthAdjust="spacing" textLength="70" x="451" y="438.8896">ListProperty</text><polygon fill="#181818" points="96,471.4434,86,475.4434,96,479.4434,92,475.4434" style="stroke:#181818;stroke-width:1.0;"/><line style="stroke:#181818;stroke-width:1.0;stroke-dasharray:2.0,2.0;" x1="90" x2="410" y1="475.4434" y2="475.4434"/><text fill="#000000" font-family="sans-serif" font-size="13" font-weight="bold" lengthAdjust="spacing" textLength="14" x="102" y="470.1807">11</text><text fill="#000000" font-family="sans-serif" font-size="13" lengthAdjust="spacing" textLength="141" x="120" y="470.1807">Shows List of Properties</text><path d="M10,490.4434 L71,490.4434 L71,499.7344 L61,509.7344 L10,509.7344 L10,490.4434 " fill="#EEEEEE" style="stroke:#000000;stroke-width:1.5;"/><rect fill="none" height="177.377" style="stroke:#000000;stroke-width:1.5;" width="658.5" x="10" y="490.4434"/><text fill="#000000" font-family="sans-serif" font-size="13" font-weight="bold" lengthAdjust="spacing" textLength="16" x="25" y="505.4717">alt</text><text fill="#000000" font-family="sans-serif" font-size="11" font-weight="bold" lengthAdjust="spacing" textLength="132" x="86" y="504.3135">[User filters properties]</text><polygon fill="#181818" points="394,529.0254,404,533.0254,394,537.0254,398,533.0254" style="stroke:#181818;stroke-width:1.0;"/><line style="stroke:#181818;stroke-width:1.0;" x1="85" x2="400" y1="533.0254" y2="533.0254"/><text fill="#000000" font-family="sans-serif" font-size="13" font-weight="bold" lengthAdjust="spacing" textLength="14" x="92" y="527.7627">12</text><text fill="#000000" font-family="sans-serif" font-size="13" lengthAdjust="spacing" textLength="203" x="110" y="527.7627">Selects wanted filters for properties</text><polygon fill="#181818" points="566,560.3164,576,564.3164,566,568.3164,570,564.3164" style="stroke:#181818;stroke-width:1.0;"/><line style="stroke:#181818;stroke-width:1.0;" x1="416" x2="572" y1="564.3164" y2="564.3164"/><text fill="#000000" font-family="sans-serif" font-size="13" font-weight="bold" lengthAdjust="spacing" textLength="14" x="423" y="559.0537">13</text><text fill="#000000" font-family="sans-serif" font-size="13" lengthAdjust="spacing" textLength="120" x="441" y="559.0537">getFilteredProperties</text><rect fill="none" height="59.2129" style="stroke:#000000;stroke-width:1.5;" width="167" x="494.5" y="572.3164"/><path d="M494.5,572.3164 L556.5,572.3164 L556.5,581.3164 L546.5,591.3164 L494.5,591.3164 L494.5,572.3164 " fill="#EEEEEE" style="stroke:#000000;stroke-width:2.0;"/><text fill="#000000" font-family="sans-serif" font-size="13" font-weight="bold" lengthAdjust="spacing" textLength="17" x="507.5" y="588.3447">ref</text><text fill="#000000" font-family="sans-serif" font-size="12" lengthAdjust="spacing" textLength="123" x="516.5" y="608.2656">Get Filtered Properties</text><text fill="#000000" font-family="sans-serif" font-size="12" lengthAdjust="spacing" textLength="3" x="576.5" y="624.2266">&#160;</text><polygon fill="#181818" points="427,655.8203,417,659.8203,427,663.8203,423,659.8203" style="stroke:#181818;stroke-width:1.0;"/><line style="stroke:#181818;stroke-width:1.0;stroke-dasharray:2.0,2.0;" x1="421" x2="577" y1="659.8203" y2="659.8203"/><text fill="#000000" font-family="sans-serif" font-size="13" font-weight="bold" lengthAdjust="spacing" textLength="14" x="433" y="654.5576">14</text><text fill="#000000" font-family="sans-serif" font-size="13" lengthAdjust="spacing" textLength="102" x="451" y="654.5576">FilteredProperties</text><polygon fill="#181818" points="96,694.1113,86,698.1113,96,702.1113,92,698.1113" style="stroke:#181818;stroke-width:1.0;"/><line style="stroke:#181818;stroke-width:1.0;stroke-dasharray:2.0,2.0;" x1="90" x2="410" y1="698.1113" y2="698.1113"/><text fill="#000000" font-family="sans-serif" font-size="13" font-weight="bold" lengthAdjust="spacing" textLength="14" x="102" y="692.8486">15</text><text fill="#000000" font-family="sans-serif" font-size="13" lengthAdjust="spacing" textLength="238" x="120" y="692.8486">Display list of properties by selected filter</text><path d="M10,713.1113 L71,713.1113 L71,722.4023 L61,732.4023 L10,732.4023 L10,713.1113 " fill="#EEEEEE" style="stroke:#000000;stroke-width:1.5;"/><rect fill="none" height="177.377" style="stroke:#000000;stroke-width:1.5;" width="658.5" x="10" y="713.1113"/><text fill="#000000" font-family="sans-serif" font-size="13" font-weight="bold" lengthAdjust="spacing" textLength="16" x="25" y="728.1396">alt</text><text fill="#000000" font-family="sans-serif" font-size="11" font-weight="bold" lengthAdjust="spacing" textLength="129" x="86" y="726.9814">[User sorts properties]</text><polygon fill="#181818" points="394,751.6934,404,755.6934,394,759.6934,398,755.6934" style="stroke:#181818;stroke-width:1.0;"/><line style="stroke:#181818;stroke-width:1.0;" x1="85" x2="400" y1="755.6934" y2="755.6934"/><text fill="#000000" font-family="sans-serif" font-size="13" font-weight="bold" lengthAdjust="spacing" textLength="14" x="92" y="750.4307">16</text><text fill="#000000" font-family="sans-serif" font-size="13" lengthAdjust="spacing" textLength="237" x="110" y="750.4307">Selects wanted sort criteria for properties</text><polygon fill="#181818" points="566,782.9844,576,786.9844,566,790.9844,570,786.9844" style="stroke:#181818;stroke-width:1.0;"/><line style="stroke:#181818;stroke-width:1.0;" x1="416" x2="572" y1="786.9844" y2="786.9844"/><text fill="#000000" font-family="sans-serif" font-size="13" font-weight="bold" lengthAdjust="spacing" textLength="14" x="423" y="781.7217">17</text><text fill="#000000" font-family="sans-serif" font-size="13" lengthAdjust="spacing" textLength="101" x="441" y="781.7217">getSortProperties</text><rect fill="none" height="59.2129" style="stroke:#000000;stroke-width:1.5;" width="167" x="494.5" y="794.9844"/><path d="M494.5,794.9844 L556.5,794.9844 L556.5,803.9844 L546.5,813.9844 L494.5,813.9844 L494.5,794.9844 " fill="#EEEEEE" style="stroke:#000000;stroke-width:2.0;"/><text fill="#000000" font-family="sans-serif" font-size="13" font-weight="bold" lengthAdjust="spacing" textLength="17" x="507.5" y="811.0127">ref</text><text fill="#000000" font-family="sans-serif" font-size="12" lengthAdjust="spacing" textLength="118" x="519" y="830.9336">Get Sorted Properties</text><text fill="#000000" font-family="sans-serif" font-size="12" lengthAdjust="spacing" textLength="3" x="576.5" y="846.8945">&#160;</text><polygon fill="#181818" points="427,878.4883,417,882.4883,427,886.4883,423,882.4883" style="stroke:#181818;stroke-width:1.0;"/><line style="stroke:#181818;stroke-width:1.0;stroke-dasharray:2.0,2.0;" x1="421" x2="577" y1="882.4883" y2="882.4883"/><text fill="#000000" font-family="sans-serif" font-size="13" font-weight="bold" lengthAdjust="spacing" textLength="14" x="433" y="877.2256">18</text><text fill="#000000" font-family="sans-serif" font-size="13" lengthAdjust="spacing" textLength="97" x="451" y="877.2256">SortedProperties</text><polygon fill="#181818" points="96,916.7793,86,920.7793,96,924.7793,92,920.7793" style="stroke:#181818;stroke-width:1.0;"/><line style="stroke:#181818;stroke-width:1.0;stroke-dasharray:2.0,2.0;" x1="90" x2="410" y1="920.7793" y2="920.7793"/><text fill="#000000" font-family="sans-serif" font-size="13" font-weight="bold" lengthAdjust="spacing" textLength="14" x="102" y="915.5166">19</text><text fill="#000000" font-family="sans-serif" font-size="13" lengthAdjust="spacing" textLength="279" x="120" y="915.5166">Display list of properties by selected sort criteria</text><!--SRC=[jPJ1Rjim38RlUWeYbsq5yW8-32XIh0YG0KNTt7fHRDeHuaY693VBsu-I4rksv68zJBSu_7-IdoYQav0jr_mCPoLLSTJgZ61rXymC_xIyEF4QStjj43GMbikw2GFCaPVg8cGD5MyCCiOxgsHtFg1cxDjHb0YLKlQW_Z1UMALXjPSQQs4iQYnXRr2lW1juVFhDoD6AGhHSMbXb6utSudE7nkwtFcQ_NGxPA6crQfgRtURjTJSBViLM6K4b23G-PlXmpONhYkgUIdIWU9UnmSlkyMsgUD6gHMsletNs7d_hnT5dvWv14X_Kb0V2u7Re1wn_4W38I7ioO1KKlddW8F42bhwEuOC94Hk_kaCEvEFeF3oGL- -n5481DTeTtTMjM6fy4ZhayRWPgxNgMdX6EtG7JZtHkEFDAKdY1lgSMsbeqWhy_YFI3ZbJrnT5kvFAihwrc45uoP6ynA-bkpVc9gFl9Bxcptho4vLimZkELIUcvvFQHzkXm4W_BTTTsxpGqIunkd71SORrE5TX7hPOTY8FodA1-lrz1FCwXH8uz_CwdtfoS0yjW_oeBiORWQeWCVo15JqntbY_oA0I3Qqr0-rK4RxU71lQeWOkj2ze_zqL5Mt6cIhCiFGsVtavbeaIDLQWFgWetslOgdkVTs7Ot114Z9sSnMmNyZa1GM19c4_2j0s_GdF3ERO9XoiOpsCWiK1uH6oKjby1xE9fpGdo5lnVCCyHvsImiFwM4TynE_42v3de67Ol_W-e9qnOWZRx2m00]--></g></svg>