<?xml version="1.0" encoding="us-ascii" standalone="no"?><svg xmlns="http://www.w3.org/2000/svg" xmlns:xlink="http://www.w3.org/1999/xlink" contentStyleType="text/css" height="865px" preserveAspectRatio="none" style="width:659px;height:865px;background:#FFFFFF;" version="1.1" viewBox="0 0 659 865" width="659px" zoomAndPan="magnify"><defs/><g><rect fill="#FFFFFF" height="670.334" style="stroke:#181818;stroke-width:1.0;" width="10" x="67" y="93.6211"/><rect fill="#FFFFFF" height="201.707" style="stroke:#181818;stroke-width:1.0;" width="10" x="398" y="116.9121"/><rect fill="#FFFFFF" height="165.0859" style="stroke:#181818;stroke-width:1.0;" width="10" x="398" y="376.2012"/><rect fill="#FFFFFF" height="165.0859" style="stroke:#181818;stroke-width:1.0;" width="10" x="398" y="598.8691"/><rect fill="#FFFFFF" height="95.5039" style="stroke:#181818;stroke-width:1.0;" width="10" x="558" y="191.8242"/><rect fill="none" height="177.377" style="stroke:#000000;stroke-width:1.5;" width="643.5" x="10" y="333.6191"/><rect fill="none" height="177.377" style="stroke:#000000;stroke-width:1.5;" width="643.5" x="10" y="556.2871"/><line style="stroke:#181818;stroke-width:0.5;stroke-dasharray:5.0,5.0;" x1="72" x2="72" y1="83.6211" y2="781.9551"/><line style="stroke:#181818;stroke-width:0.5;stroke-dasharray:5.0,5.0;" x1="402.5" x2="402.5" y1="83.6211" y2="781.9551"/><line style="stroke:#181818;stroke-width:0.5;stroke-dasharray:5.0,5.0;" x1="562.5" x2="562.5" y1="156.7227" y2="781.9551"/><text fill="#000000" font-family="sans-serif" font-size="14" lengthAdjust="spacing" textLength="98" x="20" y="80.1074">Unregister User</text><ellipse cx="72" cy="13.5" fill="#E3E3E3" rx="8" ry="8" style="stroke:#181818;stroke-width:0.5;"/><path d="M72,21.5 L72,48.5 M59,29.5 L85,29.5 M72,48.5 L59,63.5 M72,48.5 L85,63.5 " fill="none" style="stroke:#181818;stroke-width:0.5;"/><text fill="#000000" font-family="sans-serif" font-size="14" lengthAdjust="spacing" textLength="98" x="20" y="796.0625">Unregister User</text><ellipse cx="72" cy="808.0762" fill="#E3E3E3" rx="8" ry="8" style="stroke:#181818;stroke-width:0.5;"/><path d="M72,816.0762 L72,843.0762 M59,824.0762 L85,824.0762 M72,843.0762 L59,858.0762 M72,843.0762 L85,858.0762 " fill="none" style="stroke:#181818;stroke-width:0.5;"/><rect fill="#E3E3E3" height="32.6211" rx="2.5" ry="2.5" style="stroke:#181818;stroke-width:0.5;" width="111" x="347.5" y="50"/><text fill="#000000" font-family="sans-serif" font-size="14" lengthAdjust="spacing" textLength="97" x="354.5" y="72.1074">:CreateGuestUI</text><rect fill="#E3E3E3" height="32.6211" rx="2.5" ry="2.5" style="stroke:#181818;stroke-width:0.5;" width="111" x="347.5" y="780.9551"/><text fill="#000000" font-family="sans-serif" font-size="14" lengthAdjust="spacing" textLength="97" x="354.5" y="803.0625">:CreateGuestUI</text><rect fill="#E3E3E3" height="32.6211" rx="2.5" ry="2.5" style="stroke:#181818;stroke-width:0.5;" width="161" x="482.5" y="780.9551"/><text fill="#000000" font-family="sans-serif" font-size="14" lengthAdjust="spacing" textLength="147" x="489.5" y="803.0625">:CreateGuestController</text><rect fill="#FFFFFF" height="670.334" style="stroke:#181818;stroke-width:1.0;" width="10" x="67" y="93.6211"/><rect fill="#FFFFFF" height="201.707" style="stroke:#181818;stroke-width:1.0;" width="10" x="398" y="116.9121"/><rect fill="#FFFFFF" height="165.0859" style="stroke:#181818;stroke-width:1.0;" width="10" x="398" y="376.2012"/><rect fill="#FFFFFF" height="165.0859" style="stroke:#181818;stroke-width:1.0;" width="10" x="398" y="598.8691"/><rect fill="#FFFFFF" height="95.5039" style="stroke:#181818;stroke-width:1.0;" width="10" x="558" y="191.8242"/><polygon fill="#181818" points="386,112.9121,396,116.9121,386,120.9121,390,116.9121" style="stroke:#181818;stroke-width:1.0;"/><line style="stroke:#181818;stroke-width:1.0;" x1="77" x2="392" y1="116.9121" y2="116.9121"/><text fill="#000000" font-family="sans-serif" font-size="13" font-weight="bold" lengthAdjust="spacing" textLength="7" x="84" y="111.6494">1</text><text fill="#000000" font-family="sans-serif" font-size="13" lengthAdjust="spacing" textLength="127" x="95" y="111.6494">Asks to list properties</text><polygon fill="#181818" points="470.5,144.2031,480.5,148.2031,470.5,152.2031,474.5,148.2031" style="stroke:#181818;stroke-width:1.0;"/><line style="stroke:#181818;stroke-width:1.0;" x1="408" x2="476.5" y1="148.2031" y2="148.2031"/><text fill="#000000" font-family="sans-serif" font-size="13" font-weight="bold" lengthAdjust="spacing" textLength="7" x="415" y="142.9404">2</text><text fill="#000000" font-family="sans-serif" font-size="13" lengthAdjust="spacing" textLength="38" x="426" y="142.9404">Create</text><rect fill="#E3E3E3" height="32.6211" rx="2.5" ry="2.5" style="stroke:#181818;stroke-width:0.5;" width="161" x="482.5" y="124.9121"/><text fill="#000000" font-family="sans-serif" font-size="14" lengthAdjust="spacing" textLength="147" x="489.5" y="147.0195">:CreateGuestController</text><polygon fill="#181818" points="546,187.8242,556,191.8242,546,195.8242,550,191.8242" style="stroke:#181818;stroke-width:1.0;"/><line style="stroke:#181818;stroke-width:1.0;" x1="408" x2="552" y1="191.8242" y2="191.8242"/><text fill="#000000" font-family="sans-serif" font-size="13" font-weight="bold" lengthAdjust="spacing" textLength="7" x="415" y="186.5615">3</text><text fill="#000000" font-family="sans-serif" font-size="13" lengthAdjust="spacing" textLength="98" x="426" y="186.5615">getListProperties</text><rect fill="none" height="59.2129" style="stroke:#000000;stroke-width:1.5;" width="167" x="479.5" y="199.8242"/><path d="M479.5,199.8242 L541.5,199.8242 L541.5,208.8242 L531.5,218.8242 L479.5,218.8242 L479.5,199.8242 " fill="#EEEEEE" style="stroke:#000000;stroke-width:2.0;"/><text fill="#000000" font-family="sans-serif" font-size="13" font-weight="bold" lengthAdjust="spacing" textLength="17" x="492.5" y="215.8525">ref</text><text fill="#000000" font-family="sans-serif" font-size="12" lengthAdjust="spacing" textLength="102" x="512" y="235.7734">Get List Properties</text><text fill="#000000" font-family="sans-serif" font-size="12" lengthAdjust="spacing" textLength="3" x="561.5" y="251.7344">&#160;</text><polygon fill="#181818" points="419,283.3281,409,287.3281,419,291.3281,415,287.3281" style="stroke:#181818;stroke-width:1.0;"/><line style="stroke:#181818;stroke-width:1.0;stroke-dasharray:2.0,2.0;" x1="413" x2="562" y1="287.3281" y2="287.3281"/><text fill="#000000" font-family="sans-serif" font-size="13" font-weight="bold" lengthAdjust="spacing" textLength="7" x="425" y="282.0654">4</text><text fill="#000000" font-family="sans-serif" font-size="13" lengthAdjust="spacing" textLength="80" x="436" y="282.0654">ListProperties</text><polygon fill="#181818" points="88,314.6191,78,318.6191,88,322.6191,84,318.6191" style="stroke:#181818;stroke-width:1.0;"/><line style="stroke:#181818;stroke-width:1.0;stroke-dasharray:2.0,2.0;" x1="82" x2="402" y1="318.6191" y2="318.6191"/><text fill="#000000" font-family="sans-serif" font-size="13" font-weight="bold" lengthAdjust="spacing" textLength="7" x="94" y="313.3564">5</text><text fill="#000000" font-family="sans-serif" font-size="13" lengthAdjust="spacing" textLength="141" x="105" y="313.3564">Shows List of Properties</text><path d="M10,333.6191 L71,333.6191 L71,342.9102 L61,352.9102 L10,352.9102 L10,333.6191 " fill="#EEEEEE" style="stroke:#000000;stroke-width:1.5;"/><rect fill="none" height="177.377" style="stroke:#000000;stroke-width:1.5;" width="643.5" x="10" y="333.6191"/><text fill="#000000" font-family="sans-serif" font-size="13" font-weight="bold" lengthAdjust="spacing" textLength="16" x="25" y="348.6475">alt</text><text fill="#000000" font-family="sans-serif" font-size="11" font-weight="bold" lengthAdjust="spacing" textLength="132" x="86" y="347.4893">[User filters properties]</text><polygon fill="#181818" points="386,372.2012,396,376.2012,386,380.2012,390,376.2012" style="stroke:#181818;stroke-width:1.0;"/><line style="stroke:#181818;stroke-width:1.0;" x1="77" x2="392" y1="376.2012" y2="376.2012"/><text fill="#000000" font-family="sans-serif" font-size="13" font-weight="bold" lengthAdjust="spacing" textLength="7" x="84" y="370.9385">6</text><text fill="#000000" font-family="sans-serif" font-size="13" lengthAdjust="spacing" textLength="203" x="95" y="370.9385">Selects wanted filters for properties</text><polygon fill="#181818" points="551,403.4922,561,407.4922,551,411.4922,555,407.4922" style="stroke:#181818;stroke-width:1.0;"/><line style="stroke:#181818;stroke-width:1.0;" x1="408" x2="557" y1="407.4922" y2="407.4922"/><text fill="#000000" font-family="sans-serif" font-size="13" font-weight="bold" lengthAdjust="spacing" textLength="7" x="415" y="402.2295">7</text><text fill="#000000" font-family="sans-serif" font-size="13" lengthAdjust="spacing" textLength="120" x="426" y="402.2295">getFilteredProperties</text><rect fill="none" height="59.2129" style="stroke:#000000;stroke-width:1.5;" width="167" x="479.5" y="415.4922"/><path d="M479.5,415.4922 L541.5,415.4922 L541.5,424.4922 L531.5,434.4922 L479.5,434.4922 L479.5,415.4922 " fill="#EEEEEE" style="stroke:#000000;stroke-width:2.0;"/><text fill="#000000" font-family="sans-serif" font-size="13" font-weight="bold" lengthAdjust="spacing" textLength="17" x="492.5" y="431.5205">ref</text><text fill="#000000" font-family="sans-serif" font-size="12" lengthAdjust="spacing" textLength="123" x="501.5" y="451.4414">Get Filtered Properties</text><text fill="#000000" font-family="sans-serif" font-size="12" lengthAdjust="spacing" textLength="3" x="561.5" y="467.4023">&#160;</text><polygon fill="#181818" points="419,498.9961,409,502.9961,419,506.9961,415,502.9961" style="stroke:#181818;stroke-width:1.0;"/><line style="stroke:#181818;stroke-width:1.0;stroke-dasharray:2.0,2.0;" x1="413" x2="562" y1="502.9961" y2="502.9961"/><text fill="#000000" font-family="sans-serif" font-size="13" font-weight="bold" lengthAdjust="spacing" textLength="7" x="425" y="497.7334">8</text><text fill="#000000" font-family="sans-serif" font-size="13" lengthAdjust="spacing" textLength="102" x="436" y="497.7334">FilteredProperties</text><polygon fill="#181818" points="88,537.2871,78,541.2871,88,545.2871,84,541.2871" style="stroke:#181818;stroke-width:1.0;"/><line style="stroke:#181818;stroke-width:1.0;stroke-dasharray:2.0,2.0;" x1="82" x2="402" y1="541.2871" y2="541.2871"/><text fill="#000000" font-family="sans-serif" font-size="13" font-weight="bold" lengthAdjust="spacing" textLength="7" x="94" y="536.0244">9</text><text fill="#000000" font-family="sans-serif" font-size="13" lengthAdjust="spacing" textLength="238" x="105" y="536.0244">Display list of properties by selected filter</text><path d="M10,556.2871 L71,556.2871 L71,565.5781 L61,575.5781 L10,575.5781 L10,556.2871 " fill="#EEEEEE" style="stroke:#000000;stroke-width:1.5;"/><rect fill="none" height="177.377" style="stroke:#000000;stroke-width:1.5;" width="643.5" x="10" y="556.2871"/><text fill="#000000" font-family="sans-serif" font-size="13" font-weight="bold" lengthAdjust="spacing" textLength="16" x="25" y="571.3154">alt</text><text fill="#000000" font-family="sans-serif" font-size="11" font-weight="bold" lengthAdjust="spacing" textLength="129" x="86" y="570.1572">[User sorts properties]</text><polygon fill="#181818" points="386,594.8691,396,598.8691,386,602.8691,390,598.8691" style="stroke:#181818;stroke-width:1.0;"/><line style="stroke:#181818;stroke-width:1.0;" x1="77" x2="392" y1="598.8691" y2="598.8691"/><text fill="#000000" font-family="sans-serif" font-size="13" font-weight="bold" lengthAdjust="spacing" textLength="14" x="84" y="593.6064">10</text><text fill="#000000" font-family="sans-serif" font-size="13" lengthAdjust="spacing" textLength="237" x="102" y="593.6064">Selects wanted sort criteria for properties</text><polygon fill="#181818" points="551,626.1602,561,630.1602,551,634.1602,555,630.1602" style="stroke:#181818;stroke-width:1.0;"/><line style="stroke:#181818;stroke-width:1.0;" x1="408" x2="557" y1="630.1602" y2="630.1602"/><text fill="#000000" font-family="sans-serif" font-size="13" font-weight="bold" lengthAdjust="spacing" textLength="14" x="415" y="624.8975">11</text><text fill="#000000" font-family="sans-serif" font-size="13" lengthAdjust="spacing" textLength="101" x="433" y="624.8975">getSortProperties</text><rect fill="none" height="59.2129" style="stroke:#000000;stroke-width:1.5;" width="167" x="479.5" y="638.1602"/><path d="M479.5,638.1602 L541.5,638.1602 L541.5,647.1602 L531.5,657.1602 L479.5,657.1602 L479.5,638.1602 " fill="#EEEEEE" style="stroke:#000000;stroke-width:2.0;"/><text fill="#000000" font-family="sans-serif" font-size="13" font-weight="bold" lengthAdjust="spacing" textLength="17" x="492.5" y="654.1885">ref</text><text fill="#000000" font-family="sans-serif" font-size="12" lengthAdjust="spacing" textLength="118" x="504" y="674.1094">Get Sorted Properties</text><text fill="#000000" font-family="sans-serif" font-size="12" lengthAdjust="spacing" textLength="3" x="561.5" y="690.0703">&#160;</text><polygon fill="#181818" points="419,721.6641,409,725.6641,419,729.6641,415,725.6641" style="stroke:#181818;stroke-width:1.0;"/><line style="stroke:#181818;stroke-width:1.0;stroke-dasharray:2.0,2.0;" x1="413" x2="562" y1="725.6641" y2="725.6641"/><text fill="#000000" font-family="sans-serif" font-size="13" font-weight="bold" lengthAdjust="spacing" textLength="14" x="425" y="720.4014">12</text><text fill="#000000" font-family="sans-serif" font-size="13" lengthAdjust="spacing" textLength="97" x="443" y="720.4014">SortedProperties</text><polygon fill="#181818" points="83,759.9551,73,763.9551,83,767.9551,79,763.9551" style="stroke:#181818;stroke-width:1.0;"/><line style="stroke:#181818;stroke-width:1.0;stroke-dasharray:2.0,2.0;" x1="77" x2="402" y1="763.9551" y2="763.9551"/><text fill="#000000" font-family="sans-serif" font-size="13" font-weight="bold" lengthAdjust="spacing" textLength="14" x="89" y="758.6924">13</text><text fill="#000000" font-family="sans-serif" font-size="13" lengthAdjust="spacing" textLength="279" x="107" y="758.6924">Display list of properties by selected sort criteria</text><!--SRC=[jPJ1QkCm48RlUeeXbuL0No27XPBGKkX2s3GFeDXZHqJH6CsaQTv-H_B6SLsxkprK9zkQ_vz_FWdpmON6Hdk48mKgzf6E219FQBZRQMnni3LkvE8H8XPYG-tx1Rot9PrTgA6odj4OUn8Af-CEep4_zgv4g8XaHs_65a8HPjiGiNOi667B66TW6UvNlupwYIjSOuF0RB6CQ0KVJyYoVSerswVfaYK5YUJzNxlbo-zdOr93zwebsTw0Bds0kvzg1GkuvmE347ZD0asa1jKSkItifDerVqXBPIfEvlEv6hJzHtPrhqPvLj_rpVPQ5h42UjNXSqZehKSKI29O3yAaXQ5Cqjk7Bc4xRDyePxYxpZcHeyG9XpI7QXEg1MpsTEOs5LKmiEbPAAOSoai-LAYSrmFcFjSX_mrwlKyCPprDB3j5fNTae1fs6QFzaELOVfduLVWfzOzK9_ebWK8OXxbot7XxQM-SuhoD2RiBSERHaJ3_GimKvIk0KpqKqQcti_-3UOXuemOZU3z7VCMSn1EGXw0_mcx5tu3w7PCHuCRqtjDVv0y0]--></g></svg>