<?xml version="1.0" encoding="us-ascii" standalone="no"?><svg xmlns="http://www.w3.org/2000/svg" xmlns:xlink="http://www.w3.org/1999/xlink" contentStyleType="text/css" height="382.2px" preserveAspectRatio="none" style="width:770px;height:382px;background:#FFFFFF;" version="1.1" viewBox="0 0 770 382" width="770.4px" zoomAndPan="magnify"><defs><filter height="300%" id="f1bgkzupro5e8k" width="300%" x="-1" y="-1"><feGaussianBlur result="blurOut" stdDeviation="1.2"/><feColorMatrix in="blurOut" result="blurOut2" type="matrix" values="0 0 0 0 0 0 0 0 0 0 0 0 0 0 0 0 0 0 .4 0"/><feOffset dx="2.4" dy="2.4" in="blurOut2" result="blurOut3"/><feBlend in="SourceGraphic" in2="blurOut3" mode="normal"/></filter></defs><g><!--class RealEstate--><g id="elem_RealEstate"><rect codeLine="9" fill="#F1F1F1" filter="url(#f1bgkzupro5e8k)" height="118.1812" id="RealEstate" rx="1.5" ry="1.5" style="stroke:#181818;stroke-width:0.3;" width="69" x="394.8" y="114"/><ellipse cx="407.58" cy="123.6" fill="#ADD1B2" rx="6.6" ry="6.6" style="stroke:#181818;stroke-width:0.6;"/><path d="M409.2394,121.125 Q409.3331,120.9937 409.4456,120.9281 Q409.5581,120.8625 409.6894,120.8625 Q409.9144,120.8625 410.055,121.0219 Q410.1956,121.1719 410.1956,121.5375 L410.1956,122.4094 Q410.1956,122.775 410.055,122.9344 Q409.9144,123.0938 409.6894,123.0938 Q409.4831,123.0938 409.3613,122.9719 Q409.2394,122.8594 409.1738,122.55 Q409.1456,122.3344 409.0331,122.2219 Q408.8362,121.9969 408.4706,121.8656 Q408.105,121.7344 407.73,121.7344 Q407.2706,121.7344 406.8862,121.9312 Q406.5112,122.1281 406.2112,122.5781 Q405.9206,123.0281 405.9206,123.6469 L405.9206,124.3031 Q405.9206,125.0437 406.455,125.5406 Q406.9894,126.0281 407.9456,126.0281 Q408.5081,126.0281 408.9019,125.8781 Q409.1362,125.7844 409.3894,125.5219 Q409.5488,125.3625 409.6331,125.3156 Q409.7269,125.2688 409.8487,125.2688 Q410.0456,125.2688 410.1956,125.4281 Q410.355,125.5781 410.355,125.7844 Q410.355,125.9906 410.1487,126.2344 Q409.8487,126.5813 409.3706,126.7781 Q408.7237,127.05 407.9456,127.05 Q407.0362,127.05 406.3144,126.675 Q405.7237,126.375 405.3113,125.7375 Q404.8987,125.0906 404.8987,124.3219 L404.8987,123.6281 Q404.8987,122.8313 405.2644,122.1469 Q405.6394,121.4531 406.2956,121.0875 Q406.9519,120.7125 407.6925,120.7125 Q408.1331,120.7125 408.5175,120.8156 Q408.9112,120.9094 409.2394,121.125 Z " fill="#000000"/><text fill="#000000" font-family="sans-serif" font-size="8.4" lengthAdjust="spacing" textLength="41.4" x="416.82" y="127.0781">RealEstate</text><line style="stroke:#181818;stroke-width:0.3;" x1="395.4" x2="463.2" y1="133.2" y2="133.2"/><rect fill="none" height="3.6" style="stroke:#C82930;stroke-width:0.6;" width="3.6" x="399.6" y="140.2863"/><text fill="#000000" font-family="sans-serif" font-size="8.4" lengthAdjust="spacing" textLength="21" x="406.8" y="144.6645">name</text><rect fill="none" height="3.6" style="stroke:#C82930;stroke-width:0.6;" width="3.6" x="399.6" y="151.459"/><text fill="#000000" font-family="sans-serif" font-size="8.4" lengthAdjust="spacing" textLength="30.6" x="406.8" y="155.8371">address</text><rect fill="none" height="3.6" style="stroke:#C82930;stroke-width:0.6;" width="3.6" x="399.6" y="162.6316"/><text fill="#000000" font-family="sans-serif" font-size="8.4" lengthAdjust="spacing" textLength="45.6" x="406.8" y="167.0098">descriptions</text><rect fill="none" height="3.6" style="stroke:#C82930;stroke-width:0.6;" width="3.6" x="399.6" y="173.8043"/><text fill="#000000" font-family="sans-serif" font-size="8.4" lengthAdjust="spacing" textLength="28.2" x="406.8" y="178.1824">website</text><rect fill="none" height="3.6" style="stroke:#C82930;stroke-width:0.6;" width="3.6" x="399.6" y="184.977"/><text fill="#000000" font-family="sans-serif" font-size="8.4" lengthAdjust="spacing" textLength="53.4" x="406.8" y="189.3551">phoneNumber</text><rect fill="none" height="3.6" style="stroke:#C82930;stroke-width:0.6;" width="3.6" x="399.6" y="196.1496"/><text fill="#000000" font-family="sans-serif" font-size="8.4" lengthAdjust="spacing" textLength="19.8" x="406.8" y="200.5277">email</text><rect fill="none" height="3.6" style="stroke:#C82930;stroke-width:0.6;" width="3.6" x="399.6" y="207.3223"/><text fill="#000000" font-family="sans-serif" font-size="8.4" lengthAdjust="spacing" textLength="40.8" x="406.8" y="211.7004">vatNumber</text><rect fill="none" height="3.6" style="stroke:#C82930;stroke-width:0.6;" width="3.6" x="399.6" y="218.4949"/><text fill="#000000" font-family="sans-serif" font-size="8.4" lengthAdjust="spacing" textLength="16.2" x="406.8" y="222.873">logo</text><line style="stroke:#181818;stroke-width:0.3;" x1="395.4" x2="463.2" y1="227.3813" y2="227.3813"/></g><!--class House--><g id="elem_House"><rect codeLine="19" fill="#F1F1F1" filter="url(#f1bgkzupro5e8k)" height="118.1812" id="House" rx="1.5" ry="1.5" style="stroke:#181818;stroke-width:0.3;" width="103.2" x="485.1" y="114"/><ellipse cx="522.15" cy="123.6" fill="#ADD1B2" rx="6.6" ry="6.6" style="stroke:#181818;stroke-width:0.6;"/><path d="M523.8094,121.125 Q523.9031,120.9937 524.0156,120.9281 Q524.1281,120.8625 524.2594,120.8625 Q524.4844,120.8625 524.625,121.0219 Q524.7656,121.1719 524.7656,121.5375 L524.7656,122.4094 Q524.7656,122.775 524.625,122.9344 Q524.4844,123.0938 524.2594,123.0938 Q524.0531,123.0938 523.9313,122.9719 Q523.8094,122.8594 523.7438,122.55 Q523.7156,122.3344 523.6031,122.2219 Q523.4063,121.9969 523.0406,121.8656 Q522.675,121.7344 522.3,121.7344 Q521.8406,121.7344 521.4563,121.9312 Q521.0813,122.1281 520.7813,122.5781 Q520.4906,123.0281 520.4906,123.6469 L520.4906,124.3031 Q520.4906,125.0437 521.025,125.5406 Q521.5594,126.0281 522.5156,126.0281 Q523.0781,126.0281 523.4719,125.8781 Q523.7063,125.7844 523.9594,125.5219 Q524.1188,125.3625 524.2031,125.3156 Q524.2969,125.2688 524.4187,125.2688 Q524.6156,125.2688 524.7656,125.4281 Q524.925,125.5781 524.925,125.7844 Q524.925,125.9906 524.7188,126.2344 Q524.4187,126.5813 523.9406,126.7781 Q523.2937,127.05 522.5156,127.05 Q521.6062,127.05 520.8844,126.675 Q520.2937,126.375 519.8813,125.7375 Q519.4688,125.0906 519.4688,124.3219 L519.4688,123.6281 Q519.4688,122.8313 519.8344,122.1469 Q520.2094,121.4531 520.8656,121.0875 Q521.5219,120.7125 522.2625,120.7125 Q522.7031,120.7125 523.0875,120.8156 Q523.4812,120.9094 523.8094,121.125 Z " fill="#000000"/><text fill="#000000" font-family="sans-serif" font-size="8.4" lengthAdjust="spacing" textLength="24" x="534.45" y="127.0781">House</text><line style="stroke:#181818;stroke-width:0.3;" x1="485.7" x2="587.7" y1="133.2" y2="133.2"/><rect fill="none" height="3.6" style="stroke:#C82930;stroke-width:0.6;" width="3.6" x="489.9" y="140.2863"/><text fill="#000000" font-family="sans-serif" font-size="8.4" lengthAdjust="spacing" textLength="64.2" x="497.1" y="144.6645">numberOfRooms</text><rect fill="none" height="3.6" style="stroke:#C82930;stroke-width:0.6;" width="3.6" x="489.9" y="151.459"/><text fill="#000000" font-family="sans-serif" font-size="8.4" lengthAdjust="spacing" textLength="78.6" x="497.1" y="155.8371">numberOfBathrooms</text><rect fill="none" height="3.6" style="stroke:#C82930;stroke-width:0.6;" width="3.6" x="489.9" y="162.6316"/><text fill="#000000" font-family="sans-serif" font-size="8.4" lengthAdjust="spacing" textLength="61.8" x="497.1" y="167.0098">numberOfFloors</text><rect fill="none" height="3.6" style="stroke:#C82930;stroke-width:0.6;" width="3.6" x="489.9" y="173.8043"/><text fill="#000000" font-family="sans-serif" font-size="8.4" lengthAdjust="spacing" textLength="70.8" x="497.1" y="178.1824">numberOfGarages</text><rect fill="none" height="3.6" style="stroke:#C82930;stroke-width:0.6;" width="3.6" x="489.9" y="184.977"/><text fill="#000000" font-family="sans-serif" font-size="8.4" lengthAdjust="spacing" textLength="49.2" x="497.1" y="189.3551">Equipaments</text><rect fill="none" height="3.6" style="stroke:#C82930;stroke-width:0.6;" width="3.6" x="489.9" y="196.1496"/><text fill="#000000" font-family="sans-serif" font-size="8.4" lengthAdjust="spacing" textLength="73.2" x="497.1" y="200.5277">Basement: boolean</text><rect fill="none" height="3.6" style="stroke:#C82930;stroke-width:0.6;" width="3.6" x="489.9" y="207.3223"/><text fill="#000000" font-family="sans-serif" font-size="8.4" lengthAdjust="spacing" textLength="86.4" x="497.1" y="211.7004">inhabited  loft: boolean</text><rect fill="none" height="3.6" style="stroke:#C82930;stroke-width:0.6;" width="3.6" x="489.9" y="218.4949"/><text fill="#000000" font-family="sans-serif" font-size="8.4" lengthAdjust="spacing" textLength="87.6" x="497.1" y="222.873">Sun exposure: boolean</text><line style="stroke:#181818;stroke-width:0.3;" x1="485.7" x2="587.7" y1="227.3813" y2="227.3813"/></g><!--class Apartment--><g id="elem_Apartment"><rect codeLine="29" fill="#F1F1F1" filter="url(#f1bgkzupro5e8k)" height="84.6633" id="Apartment" rx="1.5" ry="1.5" style="stroke:#181818;stroke-width:0.3;" width="94.2" x="609.6" y="130.8"/><ellipse cx="634.8" cy="140.4" fill="#ADD1B2" rx="6.6" ry="6.6" style="stroke:#181818;stroke-width:0.6;"/><path d="M636.4594,137.925 Q636.5531,137.7938 636.6656,137.7281 Q636.7781,137.6625 636.9094,137.6625 Q637.1344,137.6625 637.275,137.8219 Q637.4156,137.9719 637.4156,138.3375 L637.4156,139.2094 Q637.4156,139.575 637.275,139.7344 Q637.1344,139.8937 636.9094,139.8937 Q636.7031,139.8937 636.5813,139.7719 Q636.4594,139.6594 636.3938,139.35 Q636.3656,139.1344 636.2531,139.0219 Q636.0563,138.7969 635.6906,138.6656 Q635.325,138.5344 634.95,138.5344 Q634.4906,138.5344 634.1062,138.7313 Q633.7312,138.9281 633.4313,139.3781 Q633.1406,139.8281 633.1406,140.4469 L633.1406,141.1031 Q633.1406,141.8438 633.675,142.3406 Q634.2094,142.8281 635.1656,142.8281 Q635.7281,142.8281 636.1219,142.6781 Q636.3562,142.5844 636.6094,142.3219 Q636.7688,142.1625 636.8531,142.1156 Q636.9469,142.0688 637.0688,142.0688 Q637.2656,142.0688 637.4156,142.2281 Q637.575,142.3781 637.575,142.5844 Q637.575,142.7906 637.3688,143.0344 Q637.0688,143.3813 636.5906,143.5781 Q635.9438,143.85 635.1656,143.85 Q634.2563,143.85 633.5344,143.475 Q632.9438,143.175 632.5313,142.5375 Q632.1188,141.8906 632.1188,141.1219 L632.1188,140.4281 Q632.1188,139.6313 632.4844,138.9469 Q632.8594,138.2531 633.5156,137.8875 Q634.1719,137.5125 634.9125,137.5125 Q635.3531,137.5125 635.7375,137.6156 Q636.1313,137.7094 636.4594,137.925 Z " fill="#000000"/><text fill="#000000" font-family="sans-serif" font-size="8.4" lengthAdjust="spacing" textLength="39" x="646.8" y="143.8781">Apartment</text><line style="stroke:#181818;stroke-width:0.3;" x1="610.2" x2="703.2" y1="150" y2="150"/><rect fill="none" height="3.6" style="stroke:#C82930;stroke-width:0.6;" width="3.6" x="614.4" y="157.0863"/><text fill="#000000" font-family="sans-serif" font-size="8.4" lengthAdjust="spacing" textLength="64.2" x="621.6" y="161.4645">numberOfRooms</text><rect fill="none" height="3.6" style="stroke:#C82930;stroke-width:0.6;" width="3.6" x="614.4" y="168.259"/><text fill="#000000" font-family="sans-serif" font-size="8.4" lengthAdjust="spacing" textLength="78.6" x="621.6" y="172.6371">numberOfBathrooms</text><rect fill="none" height="3.6" style="stroke:#C82930;stroke-width:0.6;" width="3.6" x="614.4" y="179.4316"/><text fill="#000000" font-family="sans-serif" font-size="8.4" lengthAdjust="spacing" textLength="61.8" x="621.6" y="183.8098">numberOfFloors</text><rect fill="none" height="3.6" style="stroke:#C82930;stroke-width:0.6;" width="3.6" x="614.4" y="190.6043"/><text fill="#000000" font-family="sans-serif" font-size="8.4" lengthAdjust="spacing" textLength="70.8" x="621.6" y="194.9824">numberOfGarages</text><rect fill="none" height="3.6" style="stroke:#C82930;stroke-width:0.6;" width="3.6" x="614.4" y="201.777"/><text fill="#000000" font-family="sans-serif" font-size="8.4" lengthAdjust="spacing" textLength="49.2" x="621.6" y="206.1551">Equipaments</text><line style="stroke:#181818;stroke-width:0.3;" x1="610.2" x2="703.2" y1="210.6633" y2="210.6633"/></g><!--class Land--><g id="elem_Land"><rect codeLine="37" fill="#F1F1F1" filter="url(#f1bgkzupro5e8k)" height="39.9727" id="Land" rx="1.5" ry="1.5" style="stroke:#181818;stroke-width:0.3;" width="38.4" x="725.1" y="153"/><ellipse cx="734.1" cy="162.6" fill="#ADD1B2" rx="6.6" ry="6.6" style="stroke:#181818;stroke-width:0.6;"/><path d="M735.7594,160.125 Q735.8531,159.9938 735.9656,159.9281 Q736.0781,159.8625 736.2094,159.8625 Q736.4344,159.8625 736.575,160.0219 Q736.7156,160.1719 736.7156,160.5375 L736.7156,161.4094 Q736.7156,161.775 736.575,161.9344 Q736.4344,162.0938 736.2094,162.0938 Q736.0031,162.0938 735.8813,161.9719 Q735.7594,161.8594 735.6938,161.55 Q735.6656,161.3344 735.5531,161.2219 Q735.3562,160.9969 734.9906,160.8656 Q734.625,160.7344 734.25,160.7344 Q733.7906,160.7344 733.4063,160.9313 Q733.0313,161.1281 732.7312,161.5781 Q732.4406,162.0281 732.4406,162.6469 L732.4406,163.3031 Q732.4406,164.0438 732.975,164.5406 Q733.5094,165.0281 734.4656,165.0281 Q735.0281,165.0281 735.4219,164.8781 Q735.6563,164.7844 735.9094,164.5219 Q736.0688,164.3625 736.1531,164.3156 Q736.2469,164.2687 736.3688,164.2687 Q736.5656,164.2687 736.7156,164.4281 Q736.875,164.5781 736.875,164.7844 Q736.875,164.9906 736.6687,165.2344 Q736.3688,165.5812 735.8906,165.7781 Q735.2438,166.05 734.4656,166.05 Q733.5563,166.05 732.8344,165.675 Q732.2438,165.375 731.8313,164.7375 Q731.4187,164.0906 731.4187,163.3219 L731.4187,162.6281 Q731.4187,161.8312 731.7844,161.1469 Q732.1594,160.4531 732.8156,160.0875 Q733.4719,159.7125 734.2125,159.7125 Q734.6531,159.7125 735.0375,159.8156 Q735.4313,159.9094 735.7594,160.125 Z " fill="#000000"/><text fill="#000000" font-family="sans-serif" font-size="8.4" lengthAdjust="spacing" textLength="19.2" x="742.5" y="166.0781">Land</text><line style="stroke:#181818;stroke-width:0.3;" x1="725.7" x2="762.9" y1="172.2" y2="172.2"/><rect fill="none" height="3.6" style="stroke:#C82930;stroke-width:0.6;" width="3.6" x="729.9" y="179.2863"/><text fill="#000000" font-family="sans-serif" font-size="8.4" lengthAdjust="spacing" textLength="17.4" x="737.1" y="183.6645">area</text><line style="stroke:#181818;stroke-width:0.3;" x1="725.7" x2="762.9" y1="188.1727" y2="188.1727"/></g><!--class Property--><g id="elem_Property"><rect codeLine="40" fill="#F1F1F1" filter="url(#f1bgkzupro5e8k)" height="95.8359" id="Property" rx="1.5" ry="1.5" style="stroke:#181818;stroke-width:0.3;" width="75" x="499.2" y="279.6"/><ellipse cx="518.73" cy="289.2" fill="#A9DCDF" rx="6.6" ry="6.6" style="stroke:#181818;stroke-width:0.6;"/><path d="M520.0425,290.2594 L517.5581,290.2594 L517.305,290.8781 L517.5581,290.8781 Q517.9237,290.8781 518.0831,291.0188 Q518.2425,291.1594 518.2425,291.3938 Q518.2425,291.6188 518.0831,291.7594 Q517.9237,291.9 517.5581,291.9 L516.18,291.9 Q515.8144,291.9 515.6644,291.7594 Q515.505,291.6188 515.505,291.3844 Q515.505,291.1594 515.6737,291.0188 Q515.8331,290.8688 516.2081,290.8781 L517.8113,286.8844 L517.1456,286.8844 Q516.78,286.8844 516.6206,286.7438 Q516.4613,286.6031 516.4613,286.3688 Q516.4613,286.1438 516.6206,286.0031 Q516.78,285.8625 517.1456,285.8625 L519.3488,285.8625 L521.3831,290.8781 Q521.7394,290.8781 521.8519,290.9625 Q522.0863,291.1219 522.0863,291.3938 Q522.0863,291.6188 521.9269,291.7594 Q521.7769,291.9 521.4113,291.9 L520.0331,291.9 Q519.6675,291.9 519.5081,291.7594 Q519.3488,291.6188 519.3488,291.3844 Q519.3488,291.1594 519.5081,291.0188 Q519.6675,290.8781 520.0331,290.8781 L520.2863,290.8781 L520.0425,290.2594 Z M519.6112,289.2375 L518.7956,287.2125 L517.9706,289.2375 L519.6112,289.2375 Z " fill="#000000"/><text fill="#000000" font-family="sans-serif" font-size="8.4" font-style="italic" lengthAdjust="spacing" textLength="32.4" x="529.47" y="292.6781">Property</text><line style="stroke:#181818;stroke-width:0.3;" x1="499.8" x2="573.6" y1="298.8" y2="298.8"/><rect fill="none" height="3.6" style="stroke:#C82930;stroke-width:0.6;" width="3.6" x="504" y="305.8863"/><text fill="#000000" font-family="sans-serif" font-size="8.4" lengthAdjust="spacing" textLength="21" x="511.2" y="310.2645">name</text><rect fill="none" height="3.6" style="stroke:#C82930;stroke-width:0.6;" width="3.6" x="504" y="317.059"/><text fill="#000000" font-family="sans-serif" font-size="8.4" lengthAdjust="spacing" textLength="16.8" x="511.2" y="321.4371">Tipo</text><rect fill="none" height="3.6" style="stroke:#C82930;stroke-width:0.6;" width="3.6" x="504" y="328.2316"/><text fill="#000000" font-family="sans-serif" font-size="8.4" lengthAdjust="spacing" textLength="30.6" x="511.2" y="332.6098">address</text><rect fill="none" height="3.6" style="stroke:#C82930;stroke-width:0.6;" width="3.6" x="504" y="339.4043"/><text fill="#000000" font-family="sans-serif" font-size="8.4" lengthAdjust="spacing" textLength="45.6" x="511.2" y="343.7824">descriptions</text><rect fill="none" height="3.6" style="stroke:#C82930;stroke-width:0.6;" width="3.6" x="504" y="350.577"/><text fill="#000000" font-family="sans-serif" font-size="8.4" lengthAdjust="spacing" textLength="59.4" x="511.2" y="354.9551">vender:boolean</text><rect fill="none" height="3.6" style="stroke:#C82930;stroke-width:0.6;" width="3.6" x="504" y="361.7496"/><text fill="#000000" font-family="sans-serif" font-size="8.4" lengthAdjust="spacing" textLength="58.2" x="511.2" y="366.1277">render:boolean</text><line style="stroke:#181818;stroke-width:0.3;" x1="499.8" x2="573.6" y1="370.6359" y2="370.6359"/></g><!--class Repositories--><g id="elem_Repositories"><rect codeLine="49" fill="#F1F1F1" filter="url(#f1bgkzupro5e8k)" height="62.318" id="Repositories" rx="1.5" ry="1.5" style="stroke:#181818;stroke-width:0.3;" width="120" x="267.3" y="4.2"/><ellipse cx="301.05" cy="13.8" fill="#ADD1B2" rx="6.6" ry="6.6" style="stroke:#181818;stroke-width:0.6;"/><path d="M302.7094,11.325 Q302.8031,11.1938 302.9156,11.1281 Q303.0281,11.0625 303.1594,11.0625 Q303.3844,11.0625 303.525,11.2219 Q303.6656,11.3719 303.6656,11.7375 L303.6656,12.6094 Q303.6656,12.975 303.525,13.1344 Q303.3844,13.2938 303.1594,13.2938 Q302.9531,13.2938 302.8313,13.1719 Q302.7094,13.0594 302.6438,12.75 Q302.6156,12.5344 302.5031,12.4219 Q302.3063,12.1969 301.9406,12.0656 Q301.575,11.9344 301.2,11.9344 Q300.7406,11.9344 300.3563,12.1313 Q299.9813,12.3281 299.6813,12.7781 Q299.3906,13.2281 299.3906,13.8469 L299.3906,14.5031 Q299.3906,15.2437 299.925,15.7406 Q300.4594,16.2281 301.4156,16.2281 Q301.9781,16.2281 302.3719,16.0781 Q302.6063,15.9844 302.8594,15.7219 Q303.0188,15.5625 303.1031,15.5156 Q303.1969,15.4688 303.3187,15.4688 Q303.5156,15.4688 303.6656,15.6281 Q303.825,15.7781 303.825,15.9844 Q303.825,16.1906 303.6188,16.4344 Q303.3187,16.7813 302.8406,16.9781 Q302.1937,17.25 301.4156,17.25 Q300.5062,17.25 299.7844,16.875 Q299.1937,16.575 298.7813,15.9375 Q298.3688,15.2906 298.3688,14.5219 L298.3688,13.8281 Q298.3688,13.0313 298.7344,12.3469 Q299.1094,11.6531 299.7656,11.2875 Q300.4219,10.9125 301.1625,10.9125 Q301.6031,10.9125 301.9875,11.0156 Q302.3812,11.1094 302.7094,11.325 Z " fill="#000000"/><text fill="#000000" font-family="sans-serif" font-size="8.4" lengthAdjust="spacing" textLength="47.4" x="313.35" y="17.2781">Repositories</text><line style="stroke:#181818;stroke-width:0.3;" x1="267.9" x2="386.7" y1="23.4" y2="23.4"/><line style="stroke:#181818;stroke-width:0.3;" x1="267.9" x2="386.7" y1="28.2" y2="28.2"/><rect fill="#F24D5C" height="3.6" style="stroke:#C82930;stroke-width:0.6;" width="3.6" x="272.1" y="35.2863"/><text fill="#000000" font-family="sans-serif" font-size="8.4" lengthAdjust="spacing" textLength="53.4" x="279.3" y="39.6645">Repositories()</text><ellipse cx="273.9" cy="48.259" fill="#84BE84" rx="1.8" ry="1.8" style="stroke:#038048;stroke-width:0.6;"/><text fill="#000000" font-family="sans-serif" font-size="8.4" lengthAdjust="spacing" textLength="104.4" x="279.3" y="50.8371">getInstance() : Repositories</text><ellipse cx="273.9" cy="59.4316" fill="#84BE84" rx="1.8" ry="1.8" style="stroke:#038048;stroke-width:0.6;"/><text fill="#000000" font-family="sans-serif" font-size="8.4" lengthAdjust="spacing" textLength="91.2" x="279.3" y="62.0098">getPropertyRepository()</text></g><!--class CreateGuestUI--><g id="elem_CreateGuestUI"><rect codeLine="55" fill="#F1F1F1" filter="url(#f1bgkzupro5e8k)" height="28.8" id="CreateGuestUI" rx="1.5" ry="1.5" style="stroke:#181818;stroke-width:0.3;" width="75" x="4.2" y="21"/><ellipse cx="13.2" cy="30.6" fill="#ADD1B2" rx="6.6" ry="6.6" style="stroke:#181818;stroke-width:0.6;"/><path d="M14.8594,28.125 Q14.9531,27.9938 15.0656,27.9281 Q15.1781,27.8625 15.3094,27.8625 Q15.5344,27.8625 15.675,28.0219 Q15.8156,28.1719 15.8156,28.5375 L15.8156,29.4094 Q15.8156,29.775 15.675,29.9344 Q15.5344,30.0938 15.3094,30.0938 Q15.1031,30.0938 14.9813,29.9719 Q14.8594,29.8594 14.7938,29.55 Q14.7656,29.3344 14.6531,29.2219 Q14.4562,28.9969 14.0906,28.8656 Q13.725,28.7344 13.35,28.7344 Q12.8906,28.7344 12.5063,28.9313 Q12.1313,29.1281 11.8312,29.5781 Q11.5406,30.0281 11.5406,30.6469 L11.5406,31.3031 Q11.5406,32.0437 12.075,32.5406 Q12.6094,33.0281 13.5656,33.0281 Q14.1281,33.0281 14.5219,32.8781 Q14.7563,32.7844 15.0094,32.5219 Q15.1688,32.3625 15.2531,32.3156 Q15.3469,32.2688 15.4688,32.2688 Q15.6656,32.2688 15.8156,32.4281 Q15.975,32.5781 15.975,32.7844 Q15.975,32.9906 15.7687,33.2344 Q15.4688,33.5813 14.9906,33.7781 Q14.3438,34.05 13.5656,34.05 Q12.6563,34.05 11.9344,33.675 Q11.3438,33.375 10.9313,32.7375 Q10.5187,32.0906 10.5187,31.3219 L10.5187,30.6281 Q10.5187,29.8312 10.8844,29.1469 Q11.2594,28.4531 11.9156,28.0875 Q12.5719,27.7125 13.3125,27.7125 Q13.7531,27.7125 14.1375,27.8156 Q14.5313,27.9094 14.8594,28.125 Z " fill="#000000"/><text fill="#000000" font-family="sans-serif" font-size="8.4" lengthAdjust="spacing" textLength="55.8" x="21.6" y="34.0781">CreateGuestUI</text><line style="stroke:#181818;stroke-width:0.3;" x1="4.8" x2="78.6" y1="40.2" y2="40.2"/><line style="stroke:#181818;stroke-width:0.3;" x1="4.8" x2="78.6" y1="45" y2="45"/></g><!--class CreateGuestController--><g id="elem_CreateGuestController"><rect codeLine="58" fill="#F1F1F1" filter="url(#f1bgkzupro5e8k)" height="28.8" id="CreateGuestController" rx="1.5" ry="1.5" style="stroke:#181818;stroke-width:0.3;" width="105" x="100.2" y="21"/><ellipse cx="109.2" cy="30.6" fill="#ADD1B2" rx="6.6" ry="6.6" style="stroke:#181818;stroke-width:0.6;"/><path d="M110.8594,28.125 Q110.9531,27.9938 111.0656,27.9281 Q111.1781,27.8625 111.3094,27.8625 Q111.5344,27.8625 111.675,28.0219 Q111.8156,28.1719 111.8156,28.5375 L111.8156,29.4094 Q111.8156,29.775 111.675,29.9344 Q111.5344,30.0938 111.3094,30.0938 Q111.1031,30.0938 110.9813,29.9719 Q110.8594,29.8594 110.7938,29.55 Q110.7656,29.3344 110.6531,29.2219 Q110.4563,28.9969 110.0906,28.8656 Q109.725,28.7344 109.35,28.7344 Q108.8906,28.7344 108.5063,28.9313 Q108.1313,29.1281 107.8313,29.5781 Q107.5406,30.0281 107.5406,30.6469 L107.5406,31.3031 Q107.5406,32.0437 108.075,32.5406 Q108.6094,33.0281 109.5656,33.0281 Q110.1281,33.0281 110.5219,32.8781 Q110.7563,32.7844 111.0094,32.5219 Q111.1688,32.3625 111.2531,32.3156 Q111.3469,32.2688 111.4688,32.2688 Q111.6656,32.2688 111.8156,32.4281 Q111.975,32.5781 111.975,32.7844 Q111.975,32.9906 111.7688,33.2344 Q111.4688,33.5813 110.9906,33.7781 Q110.3438,34.05 109.5656,34.05 Q108.6563,34.05 107.9344,33.675 Q107.3438,33.375 106.9312,32.7375 Q106.5188,32.0906 106.5188,31.3219 L106.5188,30.6281 Q106.5188,29.8312 106.8844,29.1469 Q107.2594,28.4531 107.9156,28.0875 Q108.5719,27.7125 109.3125,27.7125 Q109.7531,27.7125 110.1375,27.8156 Q110.5313,27.9094 110.8594,28.125 Z " fill="#000000"/><text fill="#000000" font-family="sans-serif" font-size="8.4" lengthAdjust="spacing" textLength="85.8" x="117.6" y="34.0781">CreateGuestController</text><line style="stroke:#181818;stroke-width:0.3;" x1="100.8" x2="204.6" y1="40.2" y2="40.2"/><line style="stroke:#181818;stroke-width:0.3;" x1="100.8" x2="204.6" y1="45" y2="45"/></g><!--class PropertyRepository--><g id="elem_PropertyRepository"><rect codeLine="61" fill="#F1F1F1" filter="url(#f1bgkzupro5e8k)" height="28.8" id="PropertyRepository" rx="1.5" ry="1.5" style="stroke:#181818;stroke-width:0.3;" width="92.4" x="281.1" y="158.7"/><ellipse cx="290.1" cy="168.3" fill="#ADD1B2" rx="6.6" ry="6.6" style="stroke:#181818;stroke-width:0.6;"/><path d="M291.7594,165.825 Q291.8531,165.6938 291.9656,165.6281 Q292.0781,165.5625 292.2094,165.5625 Q292.4344,165.5625 292.575,165.7219 Q292.7156,165.8719 292.7156,166.2375 L292.7156,167.1094 Q292.7156,167.475 292.575,167.6344 Q292.4344,167.7938 292.2094,167.7938 Q292.0031,167.7938 291.8812,167.6719 Q291.7594,167.5594 291.6937,167.25 Q291.6656,167.0344 291.5531,166.9219 Q291.3563,166.6969 290.9906,166.5656 Q290.625,166.4344 290.25,166.4344 Q289.7906,166.4344 289.4063,166.6313 Q289.0313,166.8281 288.7313,167.2781 Q288.4406,167.7281 288.4406,168.3469 L288.4406,169.0031 Q288.4406,169.7438 288.975,170.2406 Q289.5094,170.7281 290.4656,170.7281 Q291.0281,170.7281 291.4219,170.5781 Q291.6563,170.4844 291.9094,170.2219 Q292.0687,170.0625 292.1531,170.0156 Q292.2469,169.9688 292.3688,169.9688 Q292.5656,169.9688 292.7156,170.1281 Q292.875,170.2781 292.875,170.4844 Q292.875,170.6906 292.6688,170.9344 Q292.3688,171.2813 291.8906,171.4781 Q291.2438,171.75 290.4656,171.75 Q289.5563,171.75 288.8344,171.375 Q288.2438,171.075 287.8313,170.4375 Q287.4188,169.7906 287.4188,169.0219 L287.4188,168.3281 Q287.4188,167.5313 287.7844,166.8469 Q288.1594,166.1531 288.8156,165.7875 Q289.4719,165.4125 290.2125,165.4125 Q290.6531,165.4125 291.0375,165.5156 Q291.4313,165.6094 291.7594,165.825 Z " fill="#000000"/><text fill="#000000" font-family="sans-serif" font-size="8.4" lengthAdjust="spacing" textLength="73.2" x="298.5" y="171.7781">PropertyRepository</text><line style="stroke:#181818;stroke-width:0.3;" x1="281.7" x2="372.9" y1="177.9" y2="177.9"/><line style="stroke:#181818;stroke-width:0.3;" x1="281.7" x2="372.9" y1="182.7" y2="182.7"/></g><!--link CreateGuestUI to CreateGuestController--><g id="link_CreateGuestUI_CreateGuestController"><path codeLine="65" d="M79.206,35.4 C85.152,35.4 91.104,35.4 97.05,35.4 " fill="none" id="CreateGuestUI-to-CreateGuestController" style="stroke:#181818;stroke-width:0.6;stroke-dasharray:7.0,7.0;"/><polygon fill="#181818" points="100.164,35.4,94.764,33,97.164,35.4,94.764,37.8,100.164,35.4" style="stroke:#181818;stroke-width:0.6;"/></g><!--link CreateGuestController to Repositories--><g id="link_CreateGuestController_Repositories"><path codeLine="66" d="M205.32,35.4 C223.86,35.4 244.89,35.4 264.204,35.4 " fill="none" id="CreateGuestController-to-Repositories" style="stroke:#181818;stroke-width:0.6;stroke-dasharray:7.0,7.0;"/><polygon fill="#181818" points="267.288,35.4,261.888,33,264.288,35.4,261.888,37.8,267.288,35.4" style="stroke:#181818;stroke-width:0.6;"/><text fill="#000000" font-family="sans-serif" font-size="7.8" lengthAdjust="spacing" textLength="40.2" x="216.15" y="31.217">repositories</text></g><!--link Repositories to PropertyRepository--><g id="link_Repositories_PropertyRepository"><path codeLine="67" d="M327.3,66.636 C327.3,94.056 327.3,133.254 327.3,155.454 " fill="none" id="Repositories-to-PropertyRepository" style="stroke:#181818;stroke-width:0.6;"/><polygon fill="#181818" points="327.3,158.604,329.7,153.204,327.3,155.604,324.9,153.204,327.3,158.604" style="stroke:#181818;stroke-width:0.6;"/><polygon fill="#000000" points="330.3,93.3873,332.0634,87.9603,328.5366,87.9603,330.3,93.3873" style="stroke:#000000;stroke-width:0.6;"/><text fill="#000000" font-family="sans-serif" font-size="7.8" lengthAdjust="spacing" textLength="12.6" x="335.7" y="93.617">has</text><text fill="#000000" font-family="sans-serif" font-size="7.8" lengthAdjust="spacing" textLength="4.2" x="322.8309" y="79.725">1</text><text fill="#000000" font-family="sans-serif" font-size="7.8" lengthAdjust="spacing" textLength="3" x="323.9156" y="151.8219">*</text></g><!--link PropertyRepository to Property--><g id="link_PropertyRepository_Property"><path codeLine="68" d="M339.132,187.644 C350.112,200.124 367.284,218.514 384.3,232.2 C419.898,260.838 464.718,287.772 496.512,305.556 " fill="none" id="PropertyRepository-to-Property" style="stroke:#181818;stroke-width:0.6;"/><polygon fill="#181818" points="499.164,307.032,495.6091,302.3116,496.5415,305.5751,493.278,306.5075,499.164,307.032" style="stroke:#181818;stroke-width:0.6;"/><polygon fill="#000000" points="429.9009,257.7861,426.6149,253.1208,424.5003,255.9433,429.9009,257.7861" style="stroke:#000000;stroke-width:0.6;"/><text fill="#000000" font-family="sans-serif" font-size="7.8" lengthAdjust="spacing" textLength="12.6" x="432.9" y="259.217">has</text><text fill="#000000" font-family="sans-serif" font-size="7.8" lengthAdjust="spacing" textLength="4.2" x="337.1825" y="200.6239">1</text><text fill="#000000" font-family="sans-serif" font-size="7.8" lengthAdjust="spacing" textLength="3" x="491.4065" y="302.1413">*</text></g><!--link House to Property--><g id="link_House_Property"><path codeLine="69" d="M536.7,232.314 C536.7,243.732 536.7,255.72 536.7,267.18 " fill="none" id="House-to-Property" style="stroke:#181818;stroke-width:0.6;"/><polygon fill="none" points="540.9,267.36,536.7,279.36,532.5,267.36,540.9,267.36" style="stroke:#181818;stroke-width:0.6;"/><text fill="#000000" font-family="sans-serif" font-size="7.8" lengthAdjust="spacing" textLength="6" x="537.3" y="259.217">is</text></g><!--link Apartment to Property--><g id="link_Apartment_Property"><path codeLine="70" d="M623.91,215.592 C610.794,232.35 595.476,251.916 581.364,269.94 " fill="none" id="Apartment-to-Property" style="stroke:#181818;stroke-width:0.6;"/><polygon fill="none" points="584.604,272.616,573.9,279.48,577.986,267.444,584.604,272.616" style="stroke:#181818;stroke-width:0.6;"/><text fill="#000000" font-family="sans-serif" font-size="7.8" lengthAdjust="spacing" textLength="6" x="597.3" y="259.217">is</text></g><!--link Land to Property--><g id="link_Land_Property"><path codeLine="71" d="M737.664,193.464 C732.744,205.782 725.028,221.298 714.3,232.2 C678.072,269.028 624.474,294.93 585.636,310.248 " fill="none" id="Land-to-Property" style="stroke:#181818;stroke-width:0.6;"/><polygon fill="none" points="587.058,314.202,574.35,314.568,584.052,306.36,587.058,314.202" style="stroke:#181818;stroke-width:0.6;"/><text fill="#000000" font-family="sans-serif" font-size="7.8" lengthAdjust="spacing" textLength="6" x="694.5" y="259.217">is</text></g><!--link RealEstate to Property--><g id="link_RealEstate_Property"><path codeLine="72" d="M463.872,223.05 C476.568,241.17 490.902,261.624 503.472,279.57 " fill="none" id="RealEstate-Property" style="stroke:#181818;stroke-width:0.6;"/><text fill="#000000" font-family="sans-serif" font-size="7.8" lengthAdjust="spacing" textLength="22.8" x="490.5" y="259.217">owns :</text><text fill="#000000" font-family="sans-serif" font-size="7.8" lengthAdjust="spacing" textLength="4.2" x="468.5706" y="227.0258">1</text><text fill="#000000" font-family="sans-serif" font-size="7.8" lengthAdjust="spacing" textLength="9.6" x="490.3663" y="272.9047">0.*</text></g><!--SRC=[lLJBRjH04BpFLxHyIa2EWACFAoLH22iXG5duWBRTQuyodZOpxIpBadzdRFpC-f0JFesh-bKrRVj7RMjqM475bhFISKMmH-D9-P6gCNl4WdPoD0IECa5Rc7c0Bp7dWxO5Y6j82TSW32cBS0MvRbCqMpNBo0nwVotYTDe8RJEsE_sR8FeGAQKw4Xu8pPqN58AJWl34OB6Y_eXvxiZx_YqddpbTjrq6w42frpA4roLR-j9KARaUeGgrwSzFA0lESC7gkP_Z4pUUnWcwiA_x1-RAly1kK89_v_X7m-nUWlV1Xe86zEvde-iWpig0tA2dzZq9Dh8Xj3skRObfq9L3c79_HkyQ2_IhPjyuchX1odKmNzgg_r7EsFmpsdpeYuum49XwSPZ9ltM0RuvhSd9Sk-_lkkRNNlqJsPnSidJ6BS7dQSs2MrhOQV9ZupbuSTc1Rw4WsTgma3QZYqj85a5Jo21YP8-Xm6Z2RH0kTD-Gbn_RqpJ53BzbAuwD8NUQyiwhTgHQr8EhpNeXjOgsuGlrIJ1f9cd1HUyZYECDH6-YbM52QeaUDcg5MiiSuxkFApWU_zd0n0PQUpLkwndVqUq-hJEpFqTe7iVHkwjPxmJuO8DOfVu2]--></g></svg>