<?xml version="1.0" encoding="us-ascii" standalone="no"?><svg xmlns="http://www.w3.org/2000/svg" xmlns:xlink="http://www.w3.org/1999/xlink" contentStyleType="text/css" height="1565px" preserveAspectRatio="none" style="width:2117px;height:1565px;background:#FFFFFF;" version="1.1" viewBox="0 0 2117 1565" width="2117px" zoomAndPan="magnify"><defs/><g><!--class Repositories--><g id="elem_Repositories"><rect codeLine="9" fill="#F1F1F1" height="290.0742" id="Repositories" rx="2.5" ry="2.5" style="stroke:#181818;stroke-width:0.5;" width="359" x="1720.5" y="664"/><ellipse cx="1856.25" cy="680" fill="#ADD1B2" rx="11" ry="11" style="stroke:#181818;stroke-width:1.0;"/><path d="M1859.0156,675.875 Q1859.1719,675.6563 1859.3594,675.5469 Q1859.5469,675.4375 1859.7656,675.4375 Q1860.1406,675.4375 1860.375,675.7031 Q1860.6094,675.9531 1860.6094,676.5625 L1860.6094,678.0156 Q1860.6094,678.625 1860.375,678.8906 Q1860.1406,679.1563 1859.7656,679.1563 Q1859.4219,679.1563 1859.2188,678.9531 Q1859.0156,678.7656 1858.9063,678.25 Q1858.8594,677.8906 1858.6719,677.7031 Q1858.3438,677.3281 1857.7344,677.1094 Q1857.125,676.8906 1856.5,676.8906 Q1855.7344,676.8906 1855.0938,677.2188 Q1854.4688,677.5469 1853.9688,678.2969 Q1853.4844,679.0469 1853.4844,680.0781 L1853.4844,681.1719 Q1853.4844,682.4063 1854.375,683.2344 Q1855.2656,684.0469 1856.8594,684.0469 Q1857.7969,684.0469 1858.4531,683.7969 Q1858.8438,683.6406 1859.2656,683.2031 Q1859.5313,682.9375 1859.6719,682.8594 Q1859.8281,682.7813 1860.0313,682.7813 Q1860.3594,682.7813 1860.6094,683.0469 Q1860.875,683.2969 1860.875,683.6406 Q1860.875,683.9844 1860.5313,684.3906 Q1860.0313,684.9688 1859.2344,685.2969 Q1858.1563,685.75 1856.8594,685.75 Q1855.3438,685.75 1854.1406,685.125 Q1853.1563,684.625 1852.4688,683.5625 Q1851.7813,682.4844 1851.7813,681.2031 L1851.7813,680.0469 Q1851.7813,678.7188 1852.3906,677.5781 Q1853.0156,676.4219 1854.1094,675.8125 Q1855.2031,675.1875 1856.4375,675.1875 Q1857.1719,675.1875 1857.8125,675.3594 Q1858.4688,675.5156 1859.0156,675.875 Z " fill="#000000"/><text fill="#000000" font-family="sans-serif" font-size="14" lengthAdjust="spacing" textLength="79" x="1876.75" y="685.7969">Repositories</text><line style="stroke:#181818;stroke-width:0.5;" x1="1721.5" x2="2078.5" y1="696" y2="696"/><polygon fill="none" points="1731.5,706.8105,1727.5,712.8105,1735.5,712.8105" style="stroke:#1963A0;stroke-width:1.0;"/><text fill="#000000" font-family="sans-serif" font-size="14" lengthAdjust="spacing" textLength="251" x="1740.5" y="715.1074">propertyRepository: PropertyRepository</text><polygon fill="none" points="1731.5,725.4316,1727.5,731.4316,1735.5,731.4316" style="stroke:#1963A0;stroke-width:1.0;"/><text fill="#000000" font-family="sans-serif" font-size="14" lengthAdjust="spacing" textLength="323" x="1740.5" y="733.7285">authenticationRepository: AuthenticationRepository</text><polygon fill="none" points="1731.5,744.0527,1727.5,750.0527,1735.5,750.0527" style="stroke:#1963A0;stroke-width:1.0;"/><text fill="#000000" font-family="sans-serif" font-size="14" lengthAdjust="spacing" textLength="213" x="1740.5" y="752.3496">clientRepository: ClientRepository</text><rect fill="none" height="6" style="stroke:#C82930;stroke-width:1.0;" width="6" x="1728.5" y="763.6738"/><text fill="#000000" font-family="sans-serif" font-size="14" lengthAdjust="spacing" textLength="140" x="1740.5" y="770.9707">instance: Repositories</text><polygon fill="none" points="1731.5,781.2949,1727.5,787.2949,1735.5,787.2949" style="stroke:#1963A0;stroke-width:1.0;"/><text fill="#000000" font-family="sans-serif" font-size="14" lengthAdjust="spacing" textLength="333" x="1740.5" y="789.5918">announcementRepository: AnnouncementRepository</text><polygon fill="none" points="1731.5,799.916,1727.5,805.916,1735.5,805.916" style="stroke:#1963A0;stroke-width:1.0;"/><text fill="#000000" font-family="sans-serif" font-size="14" lengthAdjust="spacing" textLength="210" x="1740.5" y="808.2129">storeRepository: StoreRepository</text><text fill="#000000" font-family="sans-serif" font-size="14" lengthAdjust="spacing" textLength="333" x="1740.5" y="826.834">announcementRepository: AnnouncementRepository</text><text fill="#000000" font-family="sans-serif" font-size="14" lengthAdjust="spacing" textLength="251" x="1740.5" y="845.4551">propertyRepository: PropertyRepository</text><text fill="#000000" font-family="sans-serif" font-size="14" lengthAdjust="spacing" textLength="140" x="1740.5" y="864.0762">instance: Repositories</text><text fill="#000000" font-family="sans-serif" font-size="14" lengthAdjust="spacing" textLength="213" x="1740.5" y="882.6973">clientRepository: ClientRepository</text><text fill="#000000" font-family="sans-serif" font-size="14" lengthAdjust="spacing" textLength="323" x="1740.5" y="901.3184">authenticationRepository: AuthenticationRepository</text><text fill="#000000" font-family="sans-serif" font-size="14" lengthAdjust="spacing" textLength="210" x="1740.5" y="919.9395">storeRepository: StoreRepository</text><line style="stroke:#181818;stroke-width:0.5;" x1="1721.5" x2="2078.5" y1="927.4531" y2="927.4531"/><rect fill="#F24D5C" height="6" style="stroke:#C82930;stroke-width:1.0;" width="6" x="1728.5" y="939.2637"/><text fill="#000000" font-family="sans-serif" font-size="14" lengthAdjust="spacing" textLength="93" x="1740.5" y="946.5605">Repositories():</text></g><!--class ListAnnouncementRequestUI--><g id="elem_ListAnnouncementRequestUI"><rect codeLine="25" fill="#F1F1F1" height="48" id="ListAnnouncementRequestUI" rx="2.5" ry="2.5" style="stroke:#181818;stroke-width:0.5;" width="214" x="7" y="785"/><ellipse cx="22" cy="801" fill="#ADD1B2" rx="11" ry="11" style="stroke:#181818;stroke-width:1.0;"/><path d="M24.7656,796.875 Q24.9219,796.6563 25.1094,796.5469 Q25.2969,796.4375 25.5156,796.4375 Q25.8906,796.4375 26.125,796.7031 Q26.3594,796.9531 26.3594,797.5625 L26.3594,799.0156 Q26.3594,799.625 26.125,799.8906 Q25.8906,800.1563 25.5156,800.1563 Q25.1719,800.1563 24.9688,799.9531 Q24.7656,799.7656 24.6563,799.25 Q24.6094,798.8906 24.4219,798.7031 Q24.0938,798.3281 23.4844,798.1094 Q22.875,797.8906 22.25,797.8906 Q21.4844,797.8906 20.8438,798.2188 Q20.2188,798.5469 19.7188,799.2969 Q19.2344,800.0469 19.2344,801.0781 L19.2344,802.1719 Q19.2344,803.4063 20.125,804.2344 Q21.0156,805.0469 22.6094,805.0469 Q23.5469,805.0469 24.2031,804.7969 Q24.5938,804.6406 25.0156,804.2031 Q25.2813,803.9375 25.4219,803.8594 Q25.5781,803.7813 25.7813,803.7813 Q26.1094,803.7813 26.3594,804.0469 Q26.625,804.2969 26.625,804.6406 Q26.625,804.9844 26.2813,805.3906 Q25.7813,805.9688 24.9844,806.2969 Q23.9063,806.75 22.6094,806.75 Q21.0938,806.75 19.8906,806.125 Q18.9063,805.625 18.2188,804.5625 Q17.5313,803.4844 17.5313,802.2031 L17.5313,801.0469 Q17.5313,799.7188 18.1406,798.5781 Q18.7656,797.4219 19.8594,796.8125 Q20.9531,796.1875 22.1875,796.1875 Q22.9219,796.1875 23.5625,796.3594 Q24.2188,796.5156 24.7656,796.875 Z " fill="#000000"/><text fill="#000000" font-family="sans-serif" font-size="14" lengthAdjust="spacing" textLength="182" x="36" y="806.7969">ListAnnouncementRequestUI</text><line style="stroke:#181818;stroke-width:0.5;" x1="8" x2="220" y1="817" y2="817"/><line style="stroke:#181818;stroke-width:0.5;" x1="8" x2="220" y1="825" y2="825"/></g><!--class User--><g id="elem_User"><rect codeLine="30" fill="#F1F1F1" height="383.1797" id="User" rx="2.5" ry="2.5" style="stroke:#181818;stroke-width:0.5;" width="398" x="1128" y="7"/><ellipse cx="1308.25" cy="23" fill="#ADD1B2" rx="11" ry="11" style="stroke:#181818;stroke-width:1.0;"/><path d="M1311.0156,18.875 Q1311.1719,18.6563 1311.3594,18.5469 Q1311.5469,18.4375 1311.7656,18.4375 Q1312.1406,18.4375 1312.375,18.7031 Q1312.6094,18.9531 1312.6094,19.5625 L1312.6094,21.0156 Q1312.6094,21.625 1312.375,21.8906 Q1312.1406,22.1563 1311.7656,22.1563 Q1311.4219,22.1563 1311.2188,21.9531 Q1311.0156,21.7656 1310.9063,21.25 Q1310.8594,20.8906 1310.6719,20.7031 Q1310.3438,20.3281 1309.7344,20.1094 Q1309.125,19.8906 1308.5,19.8906 Q1307.7344,19.8906 1307.0938,20.2188 Q1306.4688,20.5469 1305.9688,21.2969 Q1305.4844,22.0469 1305.4844,23.0781 L1305.4844,24.1719 Q1305.4844,25.4063 1306.375,26.2344 Q1307.2656,27.0469 1308.8594,27.0469 Q1309.7969,27.0469 1310.4531,26.7969 Q1310.8438,26.6406 1311.2656,26.2031 Q1311.5313,25.9375 1311.6719,25.8594 Q1311.8281,25.7813 1312.0313,25.7813 Q1312.3594,25.7813 1312.6094,26.0469 Q1312.875,26.2969 1312.875,26.6406 Q1312.875,26.9844 1312.5313,27.3906 Q1312.0313,27.9688 1311.2344,28.2969 Q1310.1563,28.75 1308.8594,28.75 Q1307.3438,28.75 1306.1406,28.125 Q1305.1563,27.625 1304.4688,26.5625 Q1303.7813,25.4844 1303.7813,24.2031 L1303.7813,23.0469 Q1303.7813,21.7188 1304.3906,20.5781 Q1305.0156,19.4219 1306.1094,18.8125 Q1307.2031,18.1875 1308.4375,18.1875 Q1309.1719,18.1875 1309.8125,18.3594 Q1310.4688,18.5156 1311.0156,18.875 Z " fill="#000000"/><text fill="#000000" font-family="sans-serif" font-size="14" lengthAdjust="spacing" textLength="29" x="1328.75" y="28.7969">User</text><line style="stroke:#181818;stroke-width:0.5;" x1="1129" x2="1525" y1="39" y2="39"/><rect fill="none" height="6" style="stroke:#C82930;stroke-width:1.0;" width="6" x="1136" y="50.8105"/><text fill="#000000" font-family="sans-serif" font-size="14" lengthAdjust="spacing" textLength="85" x="1148" y="58.1074">phone: String</text><rect fill="none" height="6" style="stroke:#C82930;stroke-width:1.0;" width="6" x="1136" y="69.4316"/><text fill="#000000" font-family="sans-serif" font-size="14" lengthAdjust="spacing" textLength="80" x="1148" y="76.7285">name: String</text><rect fill="none" height="6" style="stroke:#C82930;stroke-width:1.0;" width="6" x="1136" y="88.0527"/><text fill="#000000" font-family="sans-serif" font-size="14" lengthAdjust="spacing" textLength="78" x="1148" y="95.3496">email: String</text><rect fill="none" height="6" style="stroke:#C82930;stroke-width:1.0;" width="6" x="1136" y="106.6738"/><text fill="#000000" font-family="sans-serif" font-size="14" lengthAdjust="spacing" textLength="96" x="1148" y="113.9707">address: String</text><rect fill="none" height="6" style="stroke:#C82930;stroke-width:1.0;" width="6" x="1136" y="125.2949"/><text fill="#000000" font-family="sans-serif" font-size="14" lengthAdjust="spacing" textLength="90" x="1148" y="132.5918">taxNumber: int</text><rect fill="none" height="6" style="stroke:#C82930;stroke-width:1.0;" width="6" x="1136" y="143.916"/><text fill="#000000" font-family="sans-serif" font-size="14" lengthAdjust="spacing" textLength="113" x="1148" y="151.2129">descptions: String</text><rect fill="none" height="6" style="stroke:#C82930;stroke-width:1.0;" width="6" x="1136" y="162.5371"/><text fill="#000000" font-family="sans-serif" font-size="14" lengthAdjust="spacing" textLength="75" x="1148" y="169.834">roles: Roles</text><rect fill="none" height="6" style="stroke:#C82930;stroke-width:1.0;" width="6" x="1136" y="181.1582"/><text fill="#000000" font-family="sans-serif" font-size="14" lengthAdjust="spacing" textLength="105" x="1148" y="188.4551">password: String</text><text fill="#000000" font-family="sans-serif" font-size="14" lengthAdjust="spacing" textLength="80" x="1148" y="207.0762">name: String</text><text fill="#000000" font-family="sans-serif" font-size="14" lengthAdjust="spacing" textLength="105" x="1148" y="225.6973">password: String</text><text fill="#000000" font-family="sans-serif" font-size="14" lengthAdjust="spacing" textLength="113" x="1148" y="244.3184">descptions: String</text><text fill="#000000" font-family="sans-serif" font-size="14" lengthAdjust="spacing" textLength="78" x="1148" y="262.9395">email: String</text><text fill="#000000" font-family="sans-serif" font-size="14" lengthAdjust="spacing" textLength="85" x="1148" y="281.5605">phone: String</text><text fill="#000000" font-family="sans-serif" font-size="14" lengthAdjust="spacing" textLength="96" x="1148" y="300.1816">address: String</text><text fill="#000000" font-family="sans-serif" font-size="14" lengthAdjust="spacing" textLength="75" x="1148" y="318.8027">roles: Roles</text><text fill="#000000" font-family="sans-serif" font-size="14" lengthAdjust="spacing" textLength="90" x="1148" y="337.4238">taxNumber: int</text><line style="stroke:#181818;stroke-width:0.5;" x1="1129" x2="1525" y1="344.9375" y2="344.9375"/><ellipse cx="1139" cy="359.748" fill="#84BE84" rx="3" ry="3" style="stroke:#038048;stroke-width:1.0;"/><text fill="#000000" font-family="sans-serif" font-size="14" lengthAdjust="spacing" textLength="372" x="1148" y="364.0449">User(String, String, int, String, String, String, String, Roles):</text><ellipse cx="1139" cy="378.3691" fill="#84BE84" rx="3" ry="3" style="stroke:#038048;stroke-width:1.0;"/><text fill="#000000" font-family="sans-serif" font-size="14" lengthAdjust="spacing" textLength="104" x="1148" y="382.666">toString(): String</text></g><!--class Roles--><g id="elem_Roles"><rect codeLine="50" fill="#F1F1F1" height="116.4453" id="Roles" rx="2.5" ry="2.5" style="stroke:#181818;stroke-width:0.5;" width="166" x="1108" y="469"/><ellipse cx="1147.3" cy="491.291" fill="#EB937F" rx="11" ry="11" style="stroke:#181818;stroke-width:1.0;"/><path d="M1146.1594,492.0879 L1146.1594,494.5879 L1150.4875,494.5879 L1150.4875,493.666 Q1150.4875,493.0566 1150.7219,492.791 Q1150.9719,492.5254 1151.3469,492.5254 Q1151.7219,492.5254 1151.9563,492.791 Q1152.1906,493.0566 1152.1906,493.666 L1152.1906,496.291 L1144.1906,496.291 Q1143.5656,496.291 1143.3,496.0566 Q1143.05,495.8223 1143.05,495.4316 Q1143.05,495.0566 1143.3156,494.8223 Q1143.5813,494.5879 1144.1906,494.5879 L1144.4563,494.5879 L1144.4563,487.9316 L1144.1906,487.9316 Q1143.5656,487.9316 1143.3,487.6973 Q1143.05,487.4629 1143.05,487.0723 Q1143.05,486.6973 1143.3,486.4629 Q1143.5656,486.2285 1144.1906,486.2285 L1151.8156,486.2285 L1151.8156,488.8223 Q1151.8156,489.4316 1151.5813,489.6973 Q1151.3625,489.9473 1150.9719,489.9473 Q1150.5969,489.9473 1150.3625,489.6973 Q1150.1281,489.4316 1150.1281,488.8223 L1150.1281,487.9316 L1146.1594,487.9316 L1146.1594,490.3848 L1147.6438,490.3848 Q1147.6438,489.7285 1147.7688,489.541 Q1148.0344,489.1348 1148.5031,489.1348 Q1148.8781,489.1348 1149.1125,489.4004 Q1149.3469,489.6504 1149.3469,490.2598 L1149.3469,492.2285 Q1149.3469,492.7754 1149.2219,492.9629 Q1148.9563,493.3535 1148.5031,493.3535 Q1148.0344,493.3535 1147.7688,492.9473 Q1147.6438,492.7598 1147.6438,492.0879 L1146.1594,492.0879 Z " fill="#000000"/><text fill="#000000" font-family="sans-serif" font-size="12" font-style="italic" lengthAdjust="spacing" textLength="84" x="1164.7" y="486.9492">&#171;enumeration&#187;</text><text fill="#000000" font-family="sans-serif" font-size="14" lengthAdjust="spacing" textLength="36" x="1188.7" y="505.0684">Roles</text><line style="stroke:#181818;stroke-width:0.5;" x1="1109" x2="1273" y1="513.582" y2="513.582"/><line style="stroke:#181818;stroke-width:0.5;" x1="1109" x2="1273" y1="521.582" y2="521.582"/><ellipse cx="1119" cy="536.3926" fill="#84BE84" rx="3" ry="3" style="stroke:#038048;stroke-width:1.0;"/><text fill="#000000" font-family="sans-serif" font-size="14" lengthAdjust="spacing" textLength="50" x="1128" y="540.6895">Roles():</text><ellipse cx="1119" cy="555.0137" fill="#84BE84" rx="3" ry="3" style="stroke:#038048;stroke-width:1.0;"/><text fill="#000000" font-family="sans-serif" font-size="14" lengthAdjust="spacing" textLength="103" x="1128" y="559.3105">values(): Roles[]</text><ellipse cx="1119" cy="573.6348" fill="#84BE84" rx="3" ry="3" style="stroke:#038048;stroke-width:1.0;"/><text fill="#000000" font-family="sans-serif" font-size="14" lengthAdjust="spacing" textLength="140" x="1128" y="577.9316">valueOf(String): Roles</text></g><!--class EmployeeProject--><g id="elem_EmployeeProject"><rect codeLine="57" fill="#F1F1F1" height="178.3477" id="EmployeeProject" rx="2.5" ry="2.5" style="stroke:#181818;stroke-width:0.5;" width="583" x="1102.5" y="720"/><ellipse cx="1336.75" cy="736" fill="#ADD1B2" rx="11" ry="11" style="stroke:#181818;stroke-width:1.0;"/><path d="M1339.5156,731.875 Q1339.6719,731.6563 1339.8594,731.5469 Q1340.0469,731.4375 1340.2656,731.4375 Q1340.6406,731.4375 1340.875,731.7031 Q1341.1094,731.9531 1341.1094,732.5625 L1341.1094,734.0156 Q1341.1094,734.625 1340.875,734.8906 Q1340.6406,735.1563 1340.2656,735.1563 Q1339.9219,735.1563 1339.7188,734.9531 Q1339.5156,734.7656 1339.4063,734.25 Q1339.3594,733.8906 1339.1719,733.7031 Q1338.8438,733.3281 1338.2344,733.1094 Q1337.625,732.8906 1337,732.8906 Q1336.2344,732.8906 1335.5938,733.2188 Q1334.9688,733.5469 1334.4688,734.2969 Q1333.9844,735.0469 1333.9844,736.0781 L1333.9844,737.1719 Q1333.9844,738.4063 1334.875,739.2344 Q1335.7656,740.0469 1337.3594,740.0469 Q1338.2969,740.0469 1338.9531,739.7969 Q1339.3438,739.6406 1339.7656,739.2031 Q1340.0313,738.9375 1340.1719,738.8594 Q1340.3281,738.7813 1340.5313,738.7813 Q1340.8594,738.7813 1341.1094,739.0469 Q1341.375,739.2969 1341.375,739.6406 Q1341.375,739.9844 1341.0313,740.3906 Q1340.5313,740.9688 1339.7344,741.2969 Q1338.6563,741.75 1337.3594,741.75 Q1335.8438,741.75 1334.6406,741.125 Q1333.6563,740.625 1332.9688,739.5625 Q1332.2813,738.4844 1332.2813,737.2031 L1332.2813,736.0469 Q1332.2813,734.7188 1332.8906,733.5781 Q1333.5156,732.4219 1334.6094,731.8125 Q1335.7031,731.1875 1336.9375,731.1875 Q1337.6719,731.1875 1338.3125,731.3594 Q1338.9688,731.5156 1339.5156,731.875 Z " fill="#000000"/><text fill="#000000" font-family="sans-serif" font-size="14" lengthAdjust="spacing" textLength="106" x="1357.25" y="741.7969">EmployeeProject</text><line style="stroke:#181818;stroke-width:0.5;" x1="1103.5" x2="1684.5" y1="752" y2="752"/><rect fill="none" height="6" style="stroke:#C82930;stroke-width:1.0;" width="6" x="1110.5" y="763.8105"/><text fill="#000000" font-family="sans-serif" font-size="14" lengthAdjust="spacing" textLength="61" x="1122.5" y="771.1074">salary: int</text><text fill="#000000" font-family="sans-serif" font-size="14" lengthAdjust="spacing" textLength="61" x="1122.5" y="789.7285">salary: int</text><line style="stroke:#181818;stroke-width:0.5;" x1="1103.5" x2="1684.5" y1="797.2422" y2="797.2422"/><ellipse cx="1113.5" cy="812.0527" fill="#84BE84" rx="3" ry="3" style="stroke:#038048;stroke-width:1.0;"/><text fill="#000000" font-family="sans-serif" font-size="14" lengthAdjust="spacing" textLength="522" x="1122.5" y="816.3496">EmployeeProject(String, String, int, String, String, String, String, Roles[], int, Store):</text><rect fill="#F24D5C" height="6" style="stroke:#C82930;stroke-width:1.0;" width="6" x="1110.5" y="827.6738"/><text fill="#000000" font-family="sans-serif" font-size="14" lengthAdjust="spacing" textLength="180" x="1122.5" y="834.9707">validateTaxNumber(int): void</text><rect fill="#F24D5C" height="6" style="stroke:#C82930;stroke-width:1.0;" width="6" x="1110.5" y="846.2949"/><text fill="#000000" font-family="sans-serif" font-size="14" lengthAdjust="spacing" textLength="161" x="1122.5" y="853.5918">validateStore(Store): void</text><rect fill="#F24D5C" height="6" style="stroke:#C82930;stroke-width:1.0;" width="6" x="1110.5" y="864.916"/><text fill="#000000" font-family="sans-serif" font-size="14" lengthAdjust="spacing" textLength="557" x="1122.5" y="872.2129">validateEmployee(String, String, int, String, String, String, String, Roles[], int, Store): void</text><rect fill="#F24D5C" height="6" style="stroke:#C82930;stroke-width:1.0;" width="6" x="1110.5" y="883.5371"/><text fill="#000000" font-family="sans-serif" font-size="14" lengthAdjust="spacing" textLength="148" x="1122.5" y="890.834">validateSalary(int): void</text></g><!--class Administrator--><g id="elem_Administrator"><rect codeLine="67" fill="#F1F1F1" height="103.8633" id="Administrator" rx="2.5" ry="2.5" style="stroke:#181818;stroke-width:0.5;" width="126" x="1388" y="475"/><ellipse cx="1407.95" cy="491" fill="#ADD1B2" rx="11" ry="11" style="stroke:#181818;stroke-width:1.0;"/><path d="M1410.7156,486.875 Q1410.8719,486.6563 1411.0594,486.5469 Q1411.2469,486.4375 1411.4656,486.4375 Q1411.8406,486.4375 1412.075,486.7031 Q1412.3094,486.9531 1412.3094,487.5625 L1412.3094,489.0156 Q1412.3094,489.625 1412.075,489.8906 Q1411.8406,490.1563 1411.4656,490.1563 Q1411.1219,490.1563 1410.9188,489.9531 Q1410.7156,489.7656 1410.6063,489.25 Q1410.5594,488.8906 1410.3719,488.7031 Q1410.0438,488.3281 1409.4344,488.1094 Q1408.825,487.8906 1408.2,487.8906 Q1407.4344,487.8906 1406.7938,488.2188 Q1406.1688,488.5469 1405.6688,489.2969 Q1405.1844,490.0469 1405.1844,491.0781 L1405.1844,492.1719 Q1405.1844,493.4063 1406.075,494.2344 Q1406.9656,495.0469 1408.5594,495.0469 Q1409.4969,495.0469 1410.1531,494.7969 Q1410.5438,494.6406 1410.9656,494.2031 Q1411.2313,493.9375 1411.3719,493.8594 Q1411.5281,493.7813 1411.7313,493.7813 Q1412.0594,493.7813 1412.3094,494.0469 Q1412.575,494.2969 1412.575,494.6406 Q1412.575,494.9844 1412.2313,495.3906 Q1411.7313,495.9688 1410.9344,496.2969 Q1409.8563,496.75 1408.5594,496.75 Q1407.0438,496.75 1405.8406,496.125 Q1404.8563,495.625 1404.1688,494.5625 Q1403.4813,493.4844 1403.4813,492.2031 L1403.4813,491.0469 Q1403.4813,489.7188 1404.0906,488.5781 Q1404.7156,487.4219 1405.8094,486.8125 Q1406.9031,486.1875 1408.1375,486.1875 Q1408.8719,486.1875 1409.5125,486.3594 Q1410.1688,486.5156 1410.7156,486.875 Z " fill="#000000"/><text fill="#000000" font-family="sans-serif" font-size="14" lengthAdjust="spacing" textLength="83" x="1423.05" y="496.7969">Administrator</text><line style="stroke:#181818;stroke-width:0.5;" x1="1389" x2="1513" y1="507" y2="507"/><rect fill="none" height="6" style="stroke:#C82930;stroke-width:1.0;" width="6" x="1396" y="518.8105"/><text fill="#000000" font-family="sans-serif" font-size="14" lengthAdjust="spacing" textLength="100" x="1408" y="526.1074">instance: Admin</text><text fill="#000000" font-family="sans-serif" font-size="14" lengthAdjust="spacing" textLength="100" x="1408" y="544.7285">instance: Admin</text><line style="stroke:#181818;stroke-width:0.5;" x1="1389" x2="1513" y1="552.2422" y2="552.2422"/><rect fill="#F24D5C" height="6" style="stroke:#C82930;stroke-width:1.0;" width="6" x="1396" y="564.0527"/><text fill="#000000" font-family="sans-serif" font-size="14" lengthAdjust="spacing" textLength="53" x="1408" y="571.3496">Admin():</text></g><!--class Announcement--><g id="elem_Announcement"><rect codeLine="73" fill="#F1F1F1" height="159.7266" id="Announcement" rx="2.5" ry="2.5" style="stroke:#181818;stroke-width:0.5;" width="309" x="798.5" y="1033"/><ellipse cx="901.25" cy="1049" fill="#ADD1B2" rx="11" ry="11" style="stroke:#181818;stroke-width:1.0;"/><path d="M904.0156,1044.875 Q904.1719,1044.6563 904.3594,1044.5469 Q904.5469,1044.4375 904.7656,1044.4375 Q905.1406,1044.4375 905.375,1044.7031 Q905.6094,1044.9531 905.6094,1045.5625 L905.6094,1047.0156 Q905.6094,1047.625 905.375,1047.8906 Q905.1406,1048.1563 904.7656,1048.1563 Q904.4219,1048.1563 904.2188,1047.9531 Q904.0156,1047.7656 903.9063,1047.25 Q903.8594,1046.8906 903.6719,1046.7031 Q903.3438,1046.3281 902.7344,1046.1094 Q902.125,1045.8906 901.5,1045.8906 Q900.7344,1045.8906 900.0938,1046.2188 Q899.4688,1046.5469 898.9688,1047.2969 Q898.4844,1048.0469 898.4844,1049.0781 L898.4844,1050.1719 Q898.4844,1051.4063 899.375,1052.2344 Q900.2656,1053.0469 901.8594,1053.0469 Q902.7969,1053.0469 903.4531,1052.7969 Q903.8438,1052.6406 904.2656,1052.2031 Q904.5313,1051.9375 904.6719,1051.8594 Q904.8281,1051.7813 905.0313,1051.7813 Q905.3594,1051.7813 905.6094,1052.0469 Q905.875,1052.2969 905.875,1052.6406 Q905.875,1052.9844 905.5313,1053.3906 Q905.0313,1053.9688 904.2344,1054.2969 Q903.1563,1054.75 901.8594,1054.75 Q900.3438,1054.75 899.1406,1054.125 Q898.1563,1053.625 897.4688,1052.5625 Q896.7813,1051.4844 896.7813,1050.2031 L896.7813,1049.0469 Q896.7813,1047.7188 897.3906,1046.5781 Q898.0156,1045.4219 899.1094,1044.8125 Q900.2031,1044.1875 901.4375,1044.1875 Q902.1719,1044.1875 902.8125,1044.3594 Q903.4688,1044.5156 904.0156,1044.875 Z " fill="#000000"/><text fill="#000000" font-family="sans-serif" font-size="14" lengthAdjust="spacing" textLength="95" x="921.75" y="1054.7969">Announcement</text><line style="stroke:#181818;stroke-width:0.5;" x1="799.5" x2="1106.5" y1="1065" y2="1065"/><rect fill="none" height="6" style="stroke:#C82930;stroke-width:1.0;" width="6" x="806.5" y="1076.8105"/><text fill="#000000" font-family="sans-serif" font-size="14" lengthAdjust="spacing" textLength="96" x="818.5" y="1084.1074">commission: int</text><rect fill="none" height="6" style="stroke:#C82930;stroke-width:1.0;" width="6" x="806.5" y="1095.4316"/><text fill="#000000" font-family="sans-serif" font-size="14" lengthAdjust="spacing" textLength="115" x="818.5" y="1102.7285">property: Property</text><text fill="#000000" font-family="sans-serif" font-size="14" lengthAdjust="spacing" textLength="96" x="818.5" y="1121.3496">commission: int</text><text fill="#000000" font-family="sans-serif" font-size="14" lengthAdjust="spacing" textLength="115" x="818.5" y="1139.9707">property: Property</text><line style="stroke:#181818;stroke-width:0.5;" x1="799.5" x2="1106.5" y1="1147.4844" y2="1147.4844"/><ellipse cx="809.5" cy="1162.2949" fill="#84BE84" rx="3" ry="3" style="stroke:#038048;stroke-width:1.0;"/><text fill="#000000" font-family="sans-serif" font-size="14" lengthAdjust="spacing" textLength="186" x="818.5" y="1166.5918">Announcement(Property, int):</text><ellipse cx="809.5" cy="1180.916" fill="#84BE84" rx="3" ry="3" style="stroke:#038048;stroke-width:1.0;"/><text fill="#000000" font-family="sans-serif" font-size="14" lengthAdjust="spacing" textLength="283" x="818.5" y="1185.2129">validateAnnouncement(Announcement): void</text></g><!--class AnnouncementRepository--><g id="elem_AnnouncementRepository"><rect codeLine="82" fill="#F1F1F1" height="141.1055" id="AnnouncementRepository" rx="2.5" ry="2.5" style="stroke:#181818;stroke-width:0.5;" width="420" x="1690" y="1042.5"/><ellipse cx="1814.25" cy="1058.5" fill="#ADD1B2" rx="11" ry="11" style="stroke:#181818;stroke-width:1.0;"/><path d="M1817.0156,1054.375 Q1817.1719,1054.1563 1817.3594,1054.0469 Q1817.5469,1053.9375 1817.7656,1053.9375 Q1818.1406,1053.9375 1818.375,1054.2031 Q1818.6094,1054.4531 1818.6094,1055.0625 L1818.6094,1056.5156 Q1818.6094,1057.125 1818.375,1057.3906 Q1818.1406,1057.6563 1817.7656,1057.6563 Q1817.4219,1057.6563 1817.2188,1057.4531 Q1817.0156,1057.2656 1816.9063,1056.75 Q1816.8594,1056.3906 1816.6719,1056.2031 Q1816.3438,1055.8281 1815.7344,1055.6094 Q1815.125,1055.3906 1814.5,1055.3906 Q1813.7344,1055.3906 1813.0938,1055.7188 Q1812.4688,1056.0469 1811.9688,1056.7969 Q1811.4844,1057.5469 1811.4844,1058.5781 L1811.4844,1059.6719 Q1811.4844,1060.9063 1812.375,1061.7344 Q1813.2656,1062.5469 1814.8594,1062.5469 Q1815.7969,1062.5469 1816.4531,1062.2969 Q1816.8438,1062.1406 1817.2656,1061.7031 Q1817.5313,1061.4375 1817.6719,1061.3594 Q1817.8281,1061.2813 1818.0313,1061.2813 Q1818.3594,1061.2813 1818.6094,1061.5469 Q1818.875,1061.7969 1818.875,1062.1406 Q1818.875,1062.4844 1818.5313,1062.8906 Q1818.0313,1063.4688 1817.2344,1063.7969 Q1816.1563,1064.25 1814.8594,1064.25 Q1813.3438,1064.25 1812.1406,1063.625 Q1811.1563,1063.125 1810.4688,1062.0625 Q1809.7813,1060.9844 1809.7813,1059.7031 L1809.7813,1058.5469 Q1809.7813,1057.2188 1810.3906,1056.0781 Q1811.0156,1054.9219 1812.1094,1054.3125 Q1813.2031,1053.6875 1814.4375,1053.6875 Q1815.1719,1053.6875 1815.8125,1053.8594 Q1816.4688,1054.0156 1817.0156,1054.375 Z " fill="#000000"/><text fill="#000000" font-family="sans-serif" font-size="14" lengthAdjust="spacing" textLength="163" x="1834.75" y="1064.2969">AnnouncementRepository</text><line style="stroke:#181818;stroke-width:0.5;" x1="1691" x2="2109" y1="1074.5" y2="1074.5"/><polygon fill="none" points="1701,1085.3105,1697,1091.3105,1705,1091.3105" style="stroke:#1963A0;stroke-width:1.0;"/><text fill="#000000" font-family="sans-serif" font-size="14" lengthAdjust="spacing" textLength="242" x="1710" y="1093.6074">announcements: List&lt;Announcement&gt;</text><line style="stroke:#181818;stroke-width:0.5;" x1="1691" x2="2109" y1="1101.1211" y2="1101.1211"/><ellipse cx="1701" cy="1115.9316" fill="#84BE84" rx="3" ry="3" style="stroke:#038048;stroke-width:1.0;"/><text fill="#000000" font-family="sans-serif" font-size="14" lengthAdjust="spacing" textLength="177" x="1710" y="1120.2285">AnnouncementRepository():</text><ellipse cx="1701" cy="1134.5527" fill="#84BE84" rx="3" ry="3" style="stroke:#038048;stroke-width:1.0;"/><text fill="#000000" font-family="sans-serif" font-size="14" lengthAdjust="spacing" textLength="394" x="1710" y="1138.8496">createAnnouncement(Property, int): Optional&lt;Announcement&gt;</text><ellipse cx="1701" cy="1153.1738" fill="#84BE84" rx="3" ry="3" style="stroke:#038048;stroke-width:1.0;"/><text fill="#000000" font-family="sans-serif" font-size="14" lengthAdjust="spacing" textLength="258" x="1710" y="1157.4707">addAnnouncement(Announcement): void</text><ellipse cx="1701" cy="1171.7949" fill="#84BE84" rx="3" ry="3" style="stroke:#038048;stroke-width:1.0;"/><text fill="#000000" font-family="sans-serif" font-size="14" lengthAdjust="spacing" textLength="306" x="1710" y="1176.0918">removeAnnouncement(Announcement): boolean</text></g><!--class CreateAnnouncementController--><g id="elem_CreateAnnouncementController"><rect codeLine="91" fill="#F1F1F1" height="252.832" id="CreateAnnouncementController" rx="2.5" ry="2.5" style="stroke:#181818;stroke-width:0.5;" width="811" x="256.5" y="682.5"/><ellipse cx="557.75" cy="698.5" fill="#ADD1B2" rx="11" ry="11" style="stroke:#181818;stroke-width:1.0;"/><path d="M560.5156,694.375 Q560.6719,694.1563 560.8594,694.0469 Q561.0469,693.9375 561.2656,693.9375 Q561.6406,693.9375 561.875,694.2031 Q562.1094,694.4531 562.1094,695.0625 L562.1094,696.5156 Q562.1094,697.125 561.875,697.3906 Q561.6406,697.6563 561.2656,697.6563 Q560.9219,697.6563 560.7188,697.4531 Q560.5156,697.2656 560.4063,696.75 Q560.3594,696.3906 560.1719,696.2031 Q559.8438,695.8281 559.2344,695.6094 Q558.625,695.3906 558,695.3906 Q557.2344,695.3906 556.5938,695.7188 Q555.9688,696.0469 555.4688,696.7969 Q554.9844,697.5469 554.9844,698.5781 L554.9844,699.6719 Q554.9844,700.9063 555.875,701.7344 Q556.7656,702.5469 558.3594,702.5469 Q559.2969,702.5469 559.9531,702.2969 Q560.3438,702.1406 560.7656,701.7031 Q561.0313,701.4375 561.1719,701.3594 Q561.3281,701.2813 561.5313,701.2813 Q561.8594,701.2813 562.1094,701.5469 Q562.375,701.7969 562.375,702.1406 Q562.375,702.4844 562.0313,702.8906 Q561.5313,703.4688 560.7344,703.7969 Q559.6563,704.25 558.3594,704.25 Q556.8438,704.25 555.6406,703.625 Q554.6563,703.125 553.9688,702.0625 Q553.2813,700.9844 553.2813,699.7031 L553.2813,698.5469 Q553.2813,697.2188 553.8906,696.0781 Q554.5156,694.9219 555.6094,694.3125 Q556.7031,693.6875 557.9375,693.6875 Q558.6719,693.6875 559.3125,693.8594 Q559.9688,694.0156 560.5156,694.375 Z " fill="#000000"/><text fill="#000000" font-family="sans-serif" font-size="14" lengthAdjust="spacing" textLength="200" x="578.25" y="704.2969">CreateAnnouncementController</text><line style="stroke:#181818;stroke-width:0.5;" x1="257.5" x2="1066.5" y1="714.5" y2="714.5"/><rect fill="none" height="6" style="stroke:#C82930;stroke-width:1.0;" width="6" x="264.5" y="726.3105"/><text fill="#000000" font-family="sans-serif" font-size="14" lengthAdjust="spacing" textLength="333" x="276.5" y="733.6074">announcementRepository: AnnouncementRepository</text><rect fill="none" height="6" style="stroke:#C82930;stroke-width:1.0;" width="6" x="264.5" y="744.9316"/><text fill="#000000" font-family="sans-serif" font-size="14" lengthAdjust="spacing" textLength="251" x="276.5" y="752.2285">propertyRepository: PropertyRepository</text><rect fill="none" height="6" style="stroke:#C82930;stroke-width:1.0;" width="6" x="264.5" y="763.5527"/><text fill="#000000" font-family="sans-serif" font-size="14" lengthAdjust="spacing" textLength="213" x="276.5" y="770.8496">clientRepository: ClientRepository</text><rect fill="none" height="6" style="stroke:#C82930;stroke-width:1.0;" width="6" x="264.5" y="782.1738"/><text fill="#000000" font-family="sans-serif" font-size="14" lengthAdjust="spacing" textLength="323" x="276.5" y="789.4707">authenticationRepository: AuthenticationRepository</text><text fill="#000000" font-family="sans-serif" font-size="14" lengthAdjust="spacing" textLength="213" x="276.5" y="808.0918">clientRepository: ClientRepository</text><text fill="#000000" font-family="sans-serif" font-size="14" lengthAdjust="spacing" textLength="323" x="276.5" y="826.7129">authenticationRepository: AuthenticationRepository</text><text fill="#000000" font-family="sans-serif" font-size="14" lengthAdjust="spacing" textLength="333" x="276.5" y="845.334">announcementRepository: AnnouncementRepository</text><text fill="#000000" font-family="sans-serif" font-size="14" lengthAdjust="spacing" textLength="251" x="276.5" y="863.9551">propertyRepository: PropertyRepository</text><line style="stroke:#181818;stroke-width:0.5;" x1="257.5" x2="1066.5" y1="871.4688" y2="871.4688"/><ellipse cx="267.5" cy="886.2793" fill="#84BE84" rx="3" ry="3" style="stroke:#038048;stroke-width:1.0;"/><text fill="#000000" font-family="sans-serif" font-size="14" lengthAdjust="spacing" textLength="214" x="276.5" y="890.5762">CreateAnnouncementController():</text><ellipse cx="267.5" cy="904.9004" fill="#84BE84" rx="3" ry="3" style="stroke:#038048;stroke-width:1.0;"/><text fill="#000000" font-family="sans-serif" font-size="14" lengthAdjust="spacing" textLength="785" x="276.5" y="909.1973">CreateAnnouncementController(ClientRepository, PropertyRepository, AnnouncementRepository, AuthenticationRepository):</text><ellipse cx="267.5" cy="923.5215" fill="#84BE84" rx="3" ry="3" style="stroke:#038048;stroke-width:1.0;"/><text fill="#000000" font-family="sans-serif" font-size="14" lengthAdjust="spacing" textLength="394" x="276.5" y="927.8184">createAnnouncement(Property, int): Optional&lt;Announcement&gt;</text></g><!--class AnnouncementDTO--><g id="elem_AnnouncementDTO"><rect codeLine="105" fill="#F1F1F1" height="103.8633" id="AnnouncementDTO" rx="2.5" ry="2.5" style="stroke:#181818;stroke-width:0.5;" width="224" x="1788" y="1455"/><ellipse cx="1833.25" cy="1471" fill="#ADD1B2" rx="11" ry="11" style="stroke:#181818;stroke-width:1.0;"/><path d="M1836.0156,1466.875 Q1836.1719,1466.6563 1836.3594,1466.5469 Q1836.5469,1466.4375 1836.7656,1466.4375 Q1837.1406,1466.4375 1837.375,1466.7031 Q1837.6094,1466.9531 1837.6094,1467.5625 L1837.6094,1469.0156 Q1837.6094,1469.625 1837.375,1469.8906 Q1837.1406,1470.1563 1836.7656,1470.1563 Q1836.4219,1470.1563 1836.2188,1469.9531 Q1836.0156,1469.7656 1835.9063,1469.25 Q1835.8594,1468.8906 1835.6719,1468.7031 Q1835.3438,1468.3281 1834.7344,1468.1094 Q1834.125,1467.8906 1833.5,1467.8906 Q1832.7344,1467.8906 1832.0938,1468.2188 Q1831.4688,1468.5469 1830.9688,1469.2969 Q1830.4844,1470.0469 1830.4844,1471.0781 L1830.4844,1472.1719 Q1830.4844,1473.4063 1831.375,1474.2344 Q1832.2656,1475.0469 1833.8594,1475.0469 Q1834.7969,1475.0469 1835.4531,1474.7969 Q1835.8438,1474.6406 1836.2656,1474.2031 Q1836.5313,1473.9375 1836.6719,1473.8594 Q1836.8281,1473.7813 1837.0313,1473.7813 Q1837.3594,1473.7813 1837.6094,1474.0469 Q1837.875,1474.2969 1837.875,1474.6406 Q1837.875,1474.9844 1837.5313,1475.3906 Q1837.0313,1475.9688 1836.2344,1476.2969 Q1835.1563,1476.75 1833.8594,1476.75 Q1832.3438,1476.75 1831.1406,1476.125 Q1830.1563,1475.625 1829.4688,1474.5625 Q1828.7813,1473.4844 1828.7813,1472.2031 L1828.7813,1471.0469 Q1828.7813,1469.7188 1829.3906,1468.5781 Q1830.0156,1467.4219 1831.1094,1466.8125 Q1832.2031,1466.1875 1833.4375,1466.1875 Q1834.1719,1466.1875 1834.8125,1466.3594 Q1835.4688,1466.5156 1836.0156,1466.875 Z " fill="#000000"/><text fill="#000000" font-family="sans-serif" font-size="14" lengthAdjust="spacing" textLength="125" x="1853.75" y="1476.7969">AnnouncementDTO</text><line style="stroke:#181818;stroke-width:0.5;" x1="1789" x2="2011" y1="1487" y2="1487"/><rect fill="none" height="6" style="stroke:#C82930;stroke-width:1.0;" width="6" x="1796" y="1498.8105"/><text fill="#000000" font-family="sans-serif" font-size="14" lengthAdjust="spacing" textLength="57" x="1808" y="1506.1074">value: int</text><rect fill="none" height="6" style="stroke:#C82930;stroke-width:1.0;" width="6" x="1796" y="1517.4316"/><text fill="#000000" font-family="sans-serif" font-size="14" lengthAdjust="spacing" textLength="198" x="1808" y="1524.7285">Announcement: Announcement</text><rect fill="none" height="6" style="stroke:#C82930;stroke-width:1.0;" width="6" x="1796" y="1536.0527"/><text fill="#000000" font-family="sans-serif" font-size="14" lengthAdjust="spacing" textLength="80" x="1808" y="1543.3496">Client: Client</text><line style="stroke:#181818;stroke-width:0.5;" x1="1789" x2="2011" y1="1550.8633" y2="1550.8633"/></g><!--class AnnouncementMapper--><g id="elem_AnnouncementMapper"><rect codeLine="110" fill="#F1F1F1" height="103.8633" id="AnnouncementMapper" rx="2.5" ry="2.5" style="stroke:#181818;stroke-width:0.5;" width="343" x="1728.5" y="1272"/><ellipse cx="1824.25" cy="1288" fill="#ADD1B2" rx="11" ry="11" style="stroke:#181818;stroke-width:1.0;"/><path d="M1827.0156,1283.875 Q1827.1719,1283.6563 1827.3594,1283.5469 Q1827.5469,1283.4375 1827.7656,1283.4375 Q1828.1406,1283.4375 1828.375,1283.7031 Q1828.6094,1283.9531 1828.6094,1284.5625 L1828.6094,1286.0156 Q1828.6094,1286.625 1828.375,1286.8906 Q1828.1406,1287.1563 1827.7656,1287.1563 Q1827.4219,1287.1563 1827.2188,1286.9531 Q1827.0156,1286.7656 1826.9063,1286.25 Q1826.8594,1285.8906 1826.6719,1285.7031 Q1826.3438,1285.3281 1825.7344,1285.1094 Q1825.125,1284.8906 1824.5,1284.8906 Q1823.7344,1284.8906 1823.0938,1285.2188 Q1822.4688,1285.5469 1821.9688,1286.2969 Q1821.4844,1287.0469 1821.4844,1288.0781 L1821.4844,1289.1719 Q1821.4844,1290.4063 1822.375,1291.2344 Q1823.2656,1292.0469 1824.8594,1292.0469 Q1825.7969,1292.0469 1826.4531,1291.7969 Q1826.8438,1291.6406 1827.2656,1291.2031 Q1827.5313,1290.9375 1827.6719,1290.8594 Q1827.8281,1290.7813 1828.0313,1290.7813 Q1828.3594,1290.7813 1828.6094,1291.0469 Q1828.875,1291.2969 1828.875,1291.6406 Q1828.875,1291.9844 1828.5313,1292.3906 Q1828.0313,1292.9688 1827.2344,1293.2969 Q1826.1563,1293.75 1824.8594,1293.75 Q1823.3438,1293.75 1822.1406,1293.125 Q1821.1563,1292.625 1820.4688,1291.5625 Q1819.7813,1290.4844 1819.7813,1289.2031 L1819.7813,1288.0469 Q1819.7813,1286.7188 1820.3906,1285.5781 Q1821.0156,1284.4219 1822.1094,1283.8125 Q1823.2031,1283.1875 1824.4375,1283.1875 Q1825.1719,1283.1875 1825.8125,1283.3594 Q1826.4688,1283.5156 1827.0156,1283.875 Z " fill="#000000"/><text fill="#000000" font-family="sans-serif" font-size="14" lengthAdjust="spacing" textLength="143" x="1844.75" y="1293.7969">AnnouncementMapper</text><line style="stroke:#181818;stroke-width:0.5;" x1="1729.5" x2="2070.5" y1="1304" y2="1304"/><line style="stroke:#181818;stroke-width:0.5;" x1="1729.5" x2="2070.5" y1="1312" y2="1312"/><ellipse cx="1739.5" cy="1326.8105" fill="#84BE84" rx="3" ry="3" style="stroke:#038048;stroke-width:1.0;"/><text fill="#000000" font-family="sans-serif" font-size="14" lengthAdjust="spacing" textLength="157" x="1748.5" y="1331.1074">AnnouncementMapper():</text><ellipse cx="1739.5" cy="1345.4316" fill="#84BE84" rx="3" ry="3" style="stroke:#038048;stroke-width:1.0;"/><text fill="#000000" font-family="sans-serif" font-size="14" lengthAdjust="spacing" textLength="312" x="1748.5" y="1349.7285">mapToDTO(Announcement): AnnouncementDTO</text><ellipse cx="1739.5" cy="1364.0527" fill="#84BE84" rx="3" ry="3" style="stroke:#038048;stroke-width:1.0;"/><text fill="#000000" font-family="sans-serif" font-size="14" lengthAdjust="spacing" textLength="317" x="1748.5" y="1368.3496">mapToEntity(AnnouncementDTO): Announcement</text></g><!--reverse link User to EmployeeProject--><g id="link_User_EmployeeProject"><path d="M1337.68,410.34 C1343.28,521.06 1349,634 1349,634 C1349,634 1360.07,676.82 1371.24,719.98 " fill="none" id="User-backto-EmployeeProject" style="stroke:#181818;stroke-width:1.0;"/><polygon fill="none" points="1330.67,410.41,1336.65,390.08,1344.65,409.7,1330.67,410.41" style="stroke:#181818;stroke-width:1.0;"/></g><!--reverse link User to Administrator--><g id="link_User_Administrator"><path d="M1406.61,409.12 C1415.8,433.32 1424.43,456.04 1431.59,474.89 " fill="none" id="User-backto-Administrator" style="stroke:#181818;stroke-width:1.0;"/><polygon fill="none" points="1400.05,411.55,1399.49,390.37,1413.13,406.58,1400.05,411.55" style="stroke:#181818;stroke-width:1.0;"/></g><!--link ListAnnouncementRequestUI to CreateAnnouncementController--><g id="link_ListAnnouncementRequestUI_CreateAnnouncementController"><path codeLine="116" d="M221.05,809 C231.56,809 241.79,809 251.15,809 " fill="none" id="ListAnnouncementRequestUI-to-CreateAnnouncementController" style="stroke:#181818;stroke-width:1.0;stroke-dasharray:7.0,7.0;"/><polygon fill="#181818" points="256.25,809,247.25,805,251.25,809,247.25,813,256.25,809" style="stroke:#181818;stroke-width:1.0;"/></g><!--link User to Roles--><g id="link_User_Roles"><path codeLine="117" d="M1247.49,390.37 C1235.64,418.84 1224.26,446.15 1214.86,468.71 " fill="none" id="User-Roles" style="stroke:#181818;stroke-width:1.0;"/><polygon fill="#000000" points="1238.0775,434.2611,1244.2683,427.0414,1238.8423,424.7814,1238.0775,434.2611" style="stroke:#000000;stroke-width:1.0;"/><text fill="#000000" font-family="sans-serif" font-size="13" lengthAdjust="spacing" textLength="21" x="1249" y="435.0283">has</text><text fill="#000000" font-family="sans-serif" font-size="13" lengthAdjust="spacing" textLength="7" x="1237.2474" y="412.2274">1</text><text fill="#000000" font-family="sans-serif" font-size="13" lengthAdjust="spacing" textLength="20" x="1196.5492" y="457.5889">1..*</text></g><!--link Administrator to EmployeeProject--><g id="link_Administrator_EmployeeProject"><path codeLine="118" d="M1440.61,579.03 C1432.9,616.93 1422.16,669.67 1412.93,714.99 " fill="none" id="Administrator-to-EmployeeProject" style="stroke:#181818;stroke-width:1.0;"/><polygon fill="#181818" points="1411.93,719.91,1417.6489,711.8916,1412.9298,715.011,1409.8104,710.2919,1411.93,719.91" style="stroke:#181818;stroke-width:1.0;"/><text fill="#000000" font-family="sans-serif" font-size="13" lengthAdjust="spacing" textLength="59" x="1434" y="630.0283">createdBy</text></g><!--link EmployeeProject to Announcement--><g id="link_EmployeeProject_Announcement"><path codeLine="119" d="M1265.26,898.16 C1202.97,940.82 1128.8,991.61 1068.37,1032.99 " fill="none" id="EmployeeProject-Announcement" style="stroke:#181818;stroke-width:1.0;"/><polygon fill="#000000" points="1135.8746,996.4706,1144.9981,993.7848,1141.677,988.9351,1135.8746,996.4706" style="stroke:#000000;stroke-width:1.0;"/><text fill="#000000" font-family="sans-serif" font-size="13" lengthAdjust="spacing" textLength="41" x="1149" y="999.0283">publish</text><text fill="#000000" font-family="sans-serif" font-size="13" lengthAdjust="spacing" textLength="7" x="1247.3089" y="920.2734">1</text><text fill="#000000" font-family="sans-serif" font-size="13" lengthAdjust="spacing" textLength="20" x="1058.4131" y="1021.6091">1..*</text></g><!--link CreateAnnouncementController to Repositories--><g id="link_CreateAnnouncementController_Repositories"><path codeLine="120" d="M1031.43,682.36 C1064.03,671.19 1085,664 1085,664 C1085,664 1350.5,645 1350.5,645 C1350.5,645 1419.5,645 1419.5,645 C1419.5,645 1703,664 1703,664 C1703,664 1707.9,667.61 1716.16,673.69 " fill="none" id="CreateAnnouncementController-to-Repositories" style="stroke:#181818;stroke-width:1.0;stroke-dasharray:7.0,7.0;"/><polygon fill="#181818" points="1720.48,676.87,1715.5918,668.3199,1716.4493,673.9113,1710.8579,674.7689,1720.48,676.87" style="stroke:#181818;stroke-width:1.0;"/><text fill="#000000" font-family="sans-serif" font-size="13" lengthAdjust="spacing" textLength="67" x="1351.5" y="630.0283">repositories</text></g><!--link CreateAnnouncementController to Announcement--><g id="link_CreateAnnouncementController_Announcement"><path codeLine="121" d="M783.3,935.89 C813.6,967.33 845.34,1000.27 873.06,1029.04 " fill="none" id="CreateAnnouncementController-to-Announcement" style="stroke:#181818;stroke-width:1.0;stroke-dasharray:7.0,7.0;"/><polygon fill="#181818" points="876.77,1032.89,873.4022,1023.6349,873.2993,1029.2908,867.6434,1029.1879,876.77,1032.89" style="stroke:#181818;stroke-width:1.0;"/><text fill="#000000" font-family="sans-serif" font-size="13" lengthAdjust="spacing" textLength="87" x="844" y="999.0283">Announcement</text><text fill="#000000" font-family="sans-serif" font-size="13" lengthAdjust="spacing" textLength="7" x="862.4199" y="1021.7756">1</text></g><!--link Repositories to AnnouncementRepository--><g id="link_Repositories_AnnouncementRepository"><path codeLine="122" d="M1900,954.37 C1900,982.97 1900,1011.88 1900,1037 " fill="none" id="Repositories-to-AnnouncementRepository" style="stroke:#181818;stroke-width:1.0;"/><polygon fill="#181818" points="1900,1042.3,1904,1033.3,1900,1037.3,1896,1033.3,1900,1042.3" style="stroke:#181818;stroke-width:1.0;"/><polygon fill="#000000" points="1905,998.6455,1907.9389,989.6004,1902.0611,989.6004,1905,998.6455" style="stroke:#000000;stroke-width:1.0;"/><text fill="#000000" font-family="sans-serif" font-size="13" lengthAdjust="spacing" textLength="21" x="1914" y="999.0283">has</text><text fill="#000000" font-family="sans-serif" font-size="13" lengthAdjust="spacing" textLength="7" x="1892.8195" y="976.3378">1</text><text fill="#000000" font-family="sans-serif" font-size="13" lengthAdjust="spacing" textLength="5" x="1894.7422" y="1031.1704">*</text></g><!--link AnnouncementRepository to AnnouncementMapper--><g id="link_AnnouncementRepository_AnnouncementMapper"><path codeLine="123" d="M1900,1183.59 C1900,1210.65 1900,1241.22 1900,1266.83 " fill="none" id="AnnouncementRepository-to-AnnouncementMapper" style="stroke:#181818;stroke-width:1.0;"/><polygon fill="#181818" points="1900,1271.89,1904,1262.89,1900,1266.89,1896,1262.89,1900,1271.89" style="stroke:#181818;stroke-width:1.0;"/><polygon fill="#000000" points="1905,1237.6455,1907.9389,1228.6004,1902.0611,1228.6004,1905,1237.6455" style="stroke:#000000;stroke-width:1.0;"/><text fill="#000000" font-family="sans-serif" font-size="13" lengthAdjust="spacing" textLength="30" x="1914" y="1238.0283">Uses</text><text fill="#000000" font-family="sans-serif" font-size="13" lengthAdjust="spacing" textLength="7" x="1892.6391" y="1205.784">1</text><text fill="#000000" font-family="sans-serif" font-size="13" lengthAdjust="spacing" textLength="5" x="1894.6641" y="1260.8026">*</text></g><!--link AnnouncementMapper to AnnouncementDTO--><g id="link_AnnouncementMapper_AnnouncementDTO"><path codeLine="124" d="M1900,1376.38 C1900,1399.22 1900,1426.17 1900,1449.56 " fill="none" id="AnnouncementMapper-to-AnnouncementDTO" style="stroke:#181818;stroke-width:1.0;"/><polygon fill="#181818" points="1900,1454.8,1904,1445.8,1900,1449.8,1896,1445.8,1900,1454.8" style="stroke:#181818;stroke-width:1.0;"/><polygon fill="#000000" points="1905,1420.6455,1907.9389,1411.6004,1902.0611,1411.6004,1905,1420.6455" style="stroke:#000000;stroke-width:1.0;"/><text fill="#000000" font-family="sans-serif" font-size="13" lengthAdjust="spacing" textLength="43" x="1914" y="1421.0283">creates</text><text fill="#000000" font-family="sans-serif" font-size="13" lengthAdjust="spacing" textLength="7" x="1892.5734" y="1397.8541">1</text><text fill="#000000" font-family="sans-serif" font-size="13" lengthAdjust="spacing" textLength="5" x="1894.6641" y="1443.7005">*</text></g><!--SRC=[jLPDKzim4BtxLsXo8MrYPkZHmsGcfHoOQKi7w8dXeDXBec9BhYG3QOV-zgubEvPa9mrGJhRsIszNRrSwK7UCbrJIWXI2YtGbHG54omgYJbFIz8ukuLAlSo0IKatvCdSDr8fcue7n9RcbkN8rEUEWroMGKkJhUX4T32Y5r29olDASAZNNMh95fU4i5VoI_G8o-Z2A3dAurKGB8jbofKd6QZnCyCZua0ieXM9QI0QA_8u8YJtH-5s2iZ-abA84gTSRtJeXtteoOqehlGAkMKhhRLo7-HQDSKjpXZhN_2IG672CAwnc2ea7qsxCkQXGLGHnveDouwBm3rpRIr-0HiyFkt-njcUpNpbULkj_P_qKDUpup9Jsy_nPWTBVpv0gjLLZzbs1DEIPcD_n9HAHBwUa_JAkkyMsxuN8GHcwnQHS2Gv9ep8IJWjV00LbkIUXMIP1AK-cwUFNgbY0J6eGHfI1IikwABwbhBTFB0gB0JDx439ph2ROHtQ1VT69Gt13hiFRzhBePJwGLGWrJF8f0buLLasEZqcz0cbuG6QpvfoCrdRtXDpJl38hAxw-wQJdjyrfjahds4-BCXTh0EJs3nmg11uryCpImUuIMBo26DSt6slaQaCJHNDQyxSzMaJCCghXgYt863K8_5wmp3CmGSPDgBwwXVqVyGvWCE1zX5v6cowSPmNZs8buXaBsgXnR_RYfIJTIZDYVCbRK1NPQsnwOAnctCyjaqeHFHL4mfP1BNTdRUTTDkPO_9b4lfhjmykw77Oew2BoRM_qKEbrxaRdJ77ke7d37hiVCn4WbXC23Of1pqymq7_36bjqZvmc-30fnlxCy2u5SejpfkPCUiXF1DKw4V3E2Tvcq7R_J9hnffWEtrtHBdQTRRvw6GC- -JkFzxzDutrV4Y-xDrz7YJM_qDtkZ37RSfwlpccdDCAjWqx8aTityxQtUfjocZk7xqR_GihIJ3KlULrW6ewgWvPL0A67F14WTurEidbwF0uF0fKvv-xFdSBQpTIBp4XeTZU9uT7Hu-7xKtC89ML55Pf4_oUDurhj3auPasSTr5EhSkEx-w5HMYvof5MwnSq0WVE_1d-0CSjwTkttH6H64EtkryuBNndMAem1kHw-kBiFgRH4i4z0RonswDxfjhdZWcnhNhdy1]--></g></svg>