<?xml version="1.0" encoding="us-ascii" standalone="no"?><svg xmlns="http://www.w3.org/2000/svg" xmlns:xlink="http://www.w3.org/1999/xlink" contentStyleType="text/css" height="989px" preserveAspectRatio="none" style="width:1246px;height:989px;background:#FFFFFF;" version="1.1" viewBox="0 0 1246 989" width="1246px" zoomAndPan="magnify"><defs/><g><rect fill="#FFFFFF" height="795.2363" style="stroke:#181818;stroke-width:1.0;" width="10" x="75" y="93.6211"/><rect fill="#FFFFFF" height="358.5313" style="stroke:#181818;stroke-width:1.0;" width="10" x="406" y="116.9121"/><rect fill="#FFFFFF" height="149.125" style="stroke:#181818;stroke-width:1.0;" width="10" x="406" y="533.0254"/><rect fill="#FFFFFF" height="149.125" style="stroke:#181818;stroke-width:1.0;" width="10" x="406" y="739.7324"/><rect fill="#FFFFFF" height="252.3281" style="stroke:#181818;stroke-width:1.0;" width="10" x="573" y="191.8242"/><rect fill="#FFFFFF" height="79.543" style="stroke:#181818;stroke-width:1.0;" width="10" x="573" y="564.3164"/><rect fill="#FFFFFF" height="79.543" style="stroke:#181818;stroke-width:1.0;" width="10" x="573" y="771.0234"/><rect fill="#FFFFFF" height="31.291" style="stroke:#181818;stroke-width:1.0;" width="10" x="712" y="249.4063"/><rect fill="#FFFFFF" height="31.291" style="stroke:#181818;stroke-width:1.0;" width="10" x="819" y="311.9883"/><rect fill="#FFFFFF" height="31.291" style="stroke:#181818;stroke-width:1.0;" width="10" x="1051.5" y="374.5703"/><rect fill="none" height="207.0371" style="stroke:#000000;stroke-width:1.5;" width="753" x="487.5" y="206.8242"/><rect fill="none" height="161.416" style="stroke:#000000;stroke-width:1.5;" width="658.5" x="10" y="490.4434"/><rect fill="none" height="161.416" style="stroke:#000000;stroke-width:1.5;" width="658.5" x="10" y="697.1504"/><line style="stroke:#181818;stroke-width:0.5;stroke-dasharray:5.0,5.0;" x1="80" x2="80" y1="83.6211" y2="906.8574"/><line style="stroke:#181818;stroke-width:0.5;stroke-dasharray:5.0,5.0;" x1="410.5" x2="410.5" y1="83.6211" y2="906.8574"/><line style="stroke:#181818;stroke-width:0.5;stroke-dasharray:5.0,5.0;" x1="577.5" x2="577.5" y1="156.7227" y2="906.8574"/><line style="stroke:#181818;stroke-width:0.5;stroke-dasharray:5.0,5.0;" x1="716.5" x2="716.5" y1="83.6211" y2="906.8574"/><line style="stroke:#181818;stroke-width:0.5;stroke-dasharray:5.0,5.0;" x1="823.5" x2="823.5" y1="83.6211" y2="906.8574"/><line style="stroke:#181818;stroke-width:0.5;stroke-dasharray:5.0,5.0;" x1="1056.5" x2="1056.5" y1="83.6211" y2="906.8574"/><text fill="#000000" font-family="sans-serif" font-size="14" lengthAdjust="spacing" textLength="114" x="20" y="80.1074">Unregistered User</text><ellipse cx="80" cy="13.5" fill="#E3E3E3" rx="8" ry="8" style="stroke:#181818;stroke-width:0.5;"/><path d="M80,21.5 L80,48.5 M67,29.5 L93,29.5 M80,48.5 L67,63.5 M80,48.5 L93,63.5 " fill="none" style="stroke:#181818;stroke-width:0.5;"/><text fill="#000000" font-family="sans-serif" font-size="14" lengthAdjust="spacing" textLength="114" x="20" y="920.9648">Unregistered User</text><ellipse cx="80" cy="932.9785" fill="#E3E3E3" rx="8" ry="8" style="stroke:#181818;stroke-width:0.5;"/><path d="M80,940.9785 L80,967.9785 M67,948.9785 L93,948.9785 M80,967.9785 L67,982.9785 M80,967.9785 L93,982.9785 " fill="none" style="stroke:#181818;stroke-width:0.5;"/><rect fill="#E3E3E3" height="32.6211" rx="2.5" ry="2.5" style="stroke:#181818;stroke-width:0.5;" width="111" x="355.5" y="50"/><text fill="#000000" font-family="sans-serif" font-size="14" lengthAdjust="spacing" textLength="97" x="362.5" y="72.1074">:CreateGuestUI</text><rect fill="#E3E3E3" height="32.6211" rx="2.5" ry="2.5" style="stroke:#181818;stroke-width:0.5;" width="111" x="355.5" y="905.8574"/><text fill="#000000" font-family="sans-serif" font-size="14" lengthAdjust="spacing" textLength="97" x="362.5" y="927.9648">:CreateGuestUI</text><rect fill="#E3E3E3" height="32.6211" rx="2.5" ry="2.5" style="stroke:#181818;stroke-width:0.5;" width="161" x="497.5" y="905.8574"/><text fill="#000000" font-family="sans-serif" font-size="14" lengthAdjust="spacing" textLength="147" x="504.5" y="927.9648">:CreateGuestController</text><rect fill="#E3E3E3" height="32.6211" rx="2.5" ry="2.5" style="stroke:#181818;stroke-width:0.5;" width="97" x="668.5" y="50"/><text fill="#000000" font-family="sans-serif" font-size="14" lengthAdjust="spacing" textLength="83" x="675.5" y="72.1074">:Repositories</text><rect fill="#E3E3E3" height="32.6211" rx="2.5" ry="2.5" style="stroke:#181818;stroke-width:0.5;" width="97" x="668.5" y="905.8574"/><text fill="#000000" font-family="sans-serif" font-size="14" lengthAdjust="spacing" textLength="83" x="675.5" y="927.9648">:Repositories</text><rect fill="#E3E3E3" height="51.2422" rx="2.5" ry="2.5" style="stroke:#181818;stroke-width:0.5;" width="97" x="775.5" y="31.3789"/><text fill="#000000" font-family="sans-serif" font-size="14" lengthAdjust="spacing" textLength="74" x="787" y="53.4863">repositories</text><text fill="#000000" font-family="sans-serif" font-size="14" lengthAdjust="spacing" textLength="83" x="782.5" y="72.1074">:Repositories</text><rect fill="#E3E3E3" height="51.2422" rx="2.5" ry="2.5" style="stroke:#181818;stroke-width:0.5;" width="97" x="775.5" y="905.8574"/><text fill="#000000" font-family="sans-serif" font-size="14" lengthAdjust="spacing" textLength="74" x="787" y="927.9648">repositories</text><text fill="#000000" font-family="sans-serif" font-size="14" lengthAdjust="spacing" textLength="83" x="782.5" y="946.5859">:Repositories</text><rect fill="#E3E3E3" height="32.6211" rx="2.5" ry="2.5" style="stroke:#181818;stroke-width:0.5;" width="348" x="882.5" y="50"/><text fill="#000000" font-family="sans-serif" font-size="14" lengthAdjust="spacing" textLength="334" x="889.5" y="72.1074">AnnouncementRepository:\AnnouncementRepository</text><rect fill="#E3E3E3" height="32.6211" rx="2.5" ry="2.5" style="stroke:#181818;stroke-width:0.5;" width="348" x="882.5" y="905.8574"/><text fill="#000000" font-family="sans-serif" font-size="14" lengthAdjust="spacing" textLength="334" x="889.5" y="927.9648">AnnouncementRepository:\AnnouncementRepository</text><rect fill="#FFFFFF" height="795.2363" style="stroke:#181818;stroke-width:1.0;" width="10" x="75" y="93.6211"/><rect fill="#FFFFFF" height="358.5313" style="stroke:#181818;stroke-width:1.0;" width="10" x="406" y="116.9121"/><rect fill="#FFFFFF" height="149.125" style="stroke:#181818;stroke-width:1.0;" width="10" x="406" y="533.0254"/><rect fill="#FFFFFF" height="149.125" style="stroke:#181818;stroke-width:1.0;" width="10" x="406" y="739.7324"/><rect fill="#FFFFFF" height="252.3281" style="stroke:#181818;stroke-width:1.0;" width="10" x="573" y="191.8242"/><rect fill="#FFFFFF" height="79.543" style="stroke:#181818;stroke-width:1.0;" width="10" x="573" y="564.3164"/><rect fill="#FFFFFF" height="79.543" style="stroke:#181818;stroke-width:1.0;" width="10" x="573" y="771.0234"/><rect fill="#FFFFFF" height="31.291" style="stroke:#181818;stroke-width:1.0;" width="10" x="712" y="249.4063"/><rect fill="#FFFFFF" height="31.291" style="stroke:#181818;stroke-width:1.0;" width="10" x="819" y="311.9883"/><rect fill="#FFFFFF" height="31.291" style="stroke:#181818;stroke-width:1.0;" width="10" x="1051.5" y="374.5703"/><polygon fill="#181818" points="394,112.9121,404,116.9121,394,120.9121,398,116.9121" style="stroke:#181818;stroke-width:1.0;"/><line style="stroke:#181818;stroke-width:1.0;" x1="85" x2="400" y1="116.9121" y2="116.9121"/><text fill="#000000" font-family="sans-serif" font-size="13" font-weight="bold" lengthAdjust="spacing" textLength="7" x="92" y="111.6494">1</text><text fill="#000000" font-family="sans-serif" font-size="13" lengthAdjust="spacing" textLength="127" x="103" y="111.6494">Asks to list properties</text><polygon fill="#181818" points="485.5,144.2031,495.5,148.2031,485.5,152.2031,489.5,148.2031" style="stroke:#181818;stroke-width:1.0;"/><line style="stroke:#181818;stroke-width:1.0;" x1="416" x2="491.5" y1="148.2031" y2="148.2031"/><text fill="#000000" font-family="sans-serif" font-size="13" font-weight="bold" lengthAdjust="spacing" textLength="7" x="423" y="142.9404">2</text><text fill="#000000" font-family="sans-serif" font-size="13" lengthAdjust="spacing" textLength="36" x="434" y="142.9404">create</text><rect fill="#E3E3E3" height="32.6211" rx="2.5" ry="2.5" style="stroke:#181818;stroke-width:0.5;" width="161" x="497.5" y="124.9121"/><text fill="#000000" font-family="sans-serif" font-size="14" lengthAdjust="spacing" textLength="147" x="504.5" y="147.0195">:CreateGuestController</text><polygon fill="#181818" points="561,187.8242,571,191.8242,561,195.8242,565,191.8242" style="stroke:#181818;stroke-width:1.0;"/><line style="stroke:#181818;stroke-width:1.0;" x1="416" x2="567" y1="191.8242" y2="191.8242"/><text fill="#000000" font-family="sans-serif" font-size="13" font-weight="bold" lengthAdjust="spacing" textLength="7" x="423" y="186.5615">3</text><text fill="#000000" font-family="sans-serif" font-size="13" lengthAdjust="spacing" textLength="98" x="434" y="186.5615">getListProperties</text><path d="M487.5,206.8242 L638.5,206.8242 L638.5,216.1152 L628.5,226.1152 L487.5,226.1152 L487.5,206.8242 " fill="#EEEEEE" style="stroke:#000000;stroke-width:1.5;"/><rect fill="none" height="207.0371" style="stroke:#000000;stroke-width:1.5;" width="753" x="487.5" y="206.8242"/><text fill="#000000" font-family="sans-serif" font-size="13" font-weight="bold" lengthAdjust="spacing" textLength="106" x="502.5" y="221.8525">Get Property List</text><polygon fill="#181818" points="700,245.4063,710,249.4063,700,253.4063,704,249.4063" style="stroke:#181818;stroke-width:1.0;"/><line style="stroke:#181818;stroke-width:1.0;" x1="583" x2="706" y1="249.4063" y2="249.4063"/><text fill="#000000" font-family="sans-serif" font-size="13" font-weight="bold" lengthAdjust="spacing" textLength="7" x="590" y="244.1436">4</text><text fill="#000000" font-family="sans-serif" font-size="13" lengthAdjust="spacing" textLength="75" x="601" y="244.1436">getInstance()</text><polygon fill="#181818" points="594,276.6973,584,280.6973,594,284.6973,590,280.6973" style="stroke:#181818;stroke-width:1.0;"/><line style="stroke:#181818;stroke-width:1.0;stroke-dasharray:2.0,2.0;" x1="588" x2="716" y1="280.6973" y2="280.6973"/><text fill="#000000" font-family="sans-serif" font-size="13" font-weight="bold" lengthAdjust="spacing" textLength="7" x="600" y="275.4346">5</text><text fill="#000000" font-family="sans-serif" font-size="13" lengthAdjust="spacing" textLength="67" x="611" y="275.4346">repositories</text><polygon fill="#181818" points="807,307.9883,817,311.9883,807,315.9883,811,311.9883" style="stroke:#181818;stroke-width:1.0;"/><line style="stroke:#181818;stroke-width:1.0;" x1="583" x2="813" y1="311.9883" y2="311.9883"/><text fill="#000000" font-family="sans-serif" font-size="13" font-weight="bold" lengthAdjust="spacing" textLength="7" x="590" y="306.7256">6</text><text fill="#000000" font-family="sans-serif" font-size="13" lengthAdjust="spacing" textLength="175" x="601" y="306.7256">getAnnouncementRepository()</text><polygon fill="#181818" points="594,339.2793,584,343.2793,594,347.2793,590,343.2793" style="stroke:#181818;stroke-width:1.0;"/><line style="stroke:#181818;stroke-width:1.0;stroke-dasharray:2.0,2.0;" x1="588" x2="823" y1="343.2793" y2="343.2793"/><text fill="#000000" font-family="sans-serif" font-size="13" font-weight="bold" lengthAdjust="spacing" textLength="7" x="600" y="338.0166">7</text><text fill="#000000" font-family="sans-serif" font-size="13" lengthAdjust="spacing" textLength="149" x="611" y="338.0166">AnnouncementRepository</text><polygon fill="#181818" points="1039.5,370.5703,1049.5,374.5703,1039.5,378.5703,1043.5,374.5703" style="stroke:#181818;stroke-width:1.0;"/><line style="stroke:#181818;stroke-width:1.0;" x1="583" x2="1045.5" y1="374.5703" y2="374.5703"/><text fill="#000000" font-family="sans-serif" font-size="13" font-weight="bold" lengthAdjust="spacing" textLength="7" x="590" y="369.3076">8</text><text fill="#000000" font-family="sans-serif" font-size="13" lengthAdjust="spacing" textLength="96" x="601" y="369.3076">getPropertyList()</text><polygon fill="#181818" points="594,401.8613,584,405.8613,594,409.8613,590,405.8613" style="stroke:#181818;stroke-width:1.0;"/><line style="stroke:#181818;stroke-width:1.0;stroke-dasharray:2.0,2.0;" x1="588" x2="1055.5" y1="405.8613" y2="405.8613"/><text fill="#000000" font-family="sans-serif" font-size="13" font-weight="bold" lengthAdjust="spacing" textLength="7" x="600" y="400.5986">9</text><text fill="#000000" font-family="sans-serif" font-size="13" lengthAdjust="spacing" textLength="70" x="611" y="400.5986">PropertyList</text><polygon fill="#181818" points="427,440.1523,417,444.1523,427,448.1523,423,444.1523" style="stroke:#181818;stroke-width:1.0;"/><line style="stroke:#181818;stroke-width:1.0;stroke-dasharray:2.0,2.0;" x1="421" x2="577" y1="444.1523" y2="444.1523"/><text fill="#000000" font-family="sans-serif" font-size="13" font-weight="bold" lengthAdjust="spacing" textLength="14" x="433" y="438.8896">10</text><text fill="#000000" font-family="sans-serif" font-size="13" lengthAdjust="spacing" textLength="70" x="451" y="438.8896">ListProperty</text><polygon fill="#181818" points="96,471.4434,86,475.4434,96,479.4434,92,475.4434" style="stroke:#181818;stroke-width:1.0;"/><line style="stroke:#181818;stroke-width:1.0;stroke-dasharray:2.0,2.0;" x1="90" x2="410" y1="475.4434" y2="475.4434"/><text fill="#000000" font-family="sans-serif" font-size="13" font-weight="bold" lengthAdjust="spacing" textLength="14" x="102" y="470.1807">11</text><text fill="#000000" font-family="sans-serif" font-size="13" lengthAdjust="spacing" textLength="141" x="120" y="470.1807">Shows List of Properties</text><path d="M10,490.4434 L71,490.4434 L71,499.7344 L61,509.7344 L10,509.7344 L10,490.4434 " fill="#EEEEEE" style="stroke:#000000;stroke-width:1.5;"/><rect fill="none" height="161.416" style="stroke:#000000;stroke-width:1.5;" width="658.5" x="10" y="490.4434"/><text fill="#000000" font-family="sans-serif" font-size="13" font-weight="bold" lengthAdjust="spacing" textLength="16" x="25" y="505.4717">alt</text><text fill="#000000" font-family="sans-serif" font-size="11" font-weight="bold" lengthAdjust="spacing" textLength="132" x="86" y="504.3135">[User filters properties]</text><polygon fill="#181818" points="394,529.0254,404,533.0254,394,537.0254,398,533.0254" style="stroke:#181818;stroke-width:1.0;"/><line style="stroke:#181818;stroke-width:1.0;" x1="85" x2="400" y1="533.0254" y2="533.0254"/><text fill="#000000" font-family="sans-serif" font-size="13" font-weight="bold" lengthAdjust="spacing" textLength="14" x="92" y="527.7627">12</text><text fill="#000000" font-family="sans-serif" font-size="13" lengthAdjust="spacing" textLength="203" x="110" y="527.7627">Selects wanted filters for properties</text><polygon fill="#181818" points="561,560.3164,571,564.3164,561,568.3164,565,564.3164" style="stroke:#181818;stroke-width:1.0;"/><line style="stroke:#181818;stroke-width:1.0;" x1="416" x2="567" y1="564.3164" y2="564.3164"/><text fill="#000000" font-family="sans-serif" font-size="13" font-weight="bold" lengthAdjust="spacing" textLength="14" x="423" y="559.0537">13</text><text fill="#000000" font-family="sans-serif" font-size="13" lengthAdjust="spacing" textLength="120" x="441" y="559.0537">getFilteredProperties</text><rect fill="none" height="43.252" style="stroke:#000000;stroke-width:1.5;" width="167" x="494.5" y="572.3164"/><path d="M494.5,572.3164 L556.5,572.3164 L556.5,581.3164 L546.5,591.3164 L494.5,591.3164 L494.5,572.3164 " fill="#EEEEEE" style="stroke:#000000;stroke-width:2.0;"/><text fill="#000000" font-family="sans-serif" font-size="13" font-weight="bold" lengthAdjust="spacing" textLength="17" x="507.5" y="588.3447">ref</text><text fill="#000000" font-family="sans-serif" font-size="12" lengthAdjust="spacing" textLength="123" x="516.5" y="608.2656">Get Filtered Properties</text><polygon fill="#181818" points="427,639.8594,417,643.8594,427,647.8594,423,643.8594" style="stroke:#181818;stroke-width:1.0;"/><line style="stroke:#181818;stroke-width:1.0;stroke-dasharray:2.0,2.0;" x1="421" x2="577" y1="643.8594" y2="643.8594"/><text fill="#000000" font-family="sans-serif" font-size="13" font-weight="bold" lengthAdjust="spacing" textLength="14" x="433" y="638.5967">14</text><text fill="#000000" font-family="sans-serif" font-size="13" lengthAdjust="spacing" textLength="102" x="451" y="638.5967">FilteredProperties</text><polygon fill="#181818" points="96,678.1504,86,682.1504,96,686.1504,92,682.1504" style="stroke:#181818;stroke-width:1.0;"/><line style="stroke:#181818;stroke-width:1.0;stroke-dasharray:2.0,2.0;" x1="90" x2="410" y1="682.1504" y2="682.1504"/><text fill="#000000" font-family="sans-serif" font-size="13" font-weight="bold" lengthAdjust="spacing" textLength="14" x="102" y="676.8877">15</text><text fill="#000000" font-family="sans-serif" font-size="13" lengthAdjust="spacing" textLength="238" x="120" y="676.8877">Display list of properties by selected filter</text><path d="M10,697.1504 L71,697.1504 L71,706.4414 L61,716.4414 L10,716.4414 L10,697.1504 " fill="#EEEEEE" style="stroke:#000000;stroke-width:1.5;"/><rect fill="none" height="161.416" style="stroke:#000000;stroke-width:1.5;" width="658.5" x="10" y="697.1504"/><text fill="#000000" font-family="sans-serif" font-size="13" font-weight="bold" lengthAdjust="spacing" textLength="16" x="25" y="712.1787">alt</text><text fill="#000000" font-family="sans-serif" font-size="11" font-weight="bold" lengthAdjust="spacing" textLength="129" x="86" y="711.0205">[User sorts properties]</text><polygon fill="#181818" points="394,735.7324,404,739.7324,394,743.7324,398,739.7324" style="stroke:#181818;stroke-width:1.0;"/><line style="stroke:#181818;stroke-width:1.0;" x1="85" x2="400" y1="739.7324" y2="739.7324"/><text fill="#000000" font-family="sans-serif" font-size="13" font-weight="bold" lengthAdjust="spacing" textLength="14" x="92" y="734.4697">16</text><text fill="#000000" font-family="sans-serif" font-size="13" lengthAdjust="spacing" textLength="237" x="110" y="734.4697">Selects wanted sort criteria for properties</text><polygon fill="#181818" points="561,767.0234,571,771.0234,561,775.0234,565,771.0234" style="stroke:#181818;stroke-width:1.0;"/><line style="stroke:#181818;stroke-width:1.0;" x1="416" x2="567" y1="771.0234" y2="771.0234"/><text fill="#000000" font-family="sans-serif" font-size="13" font-weight="bold" lengthAdjust="spacing" textLength="14" x="423" y="765.7607">17</text><text fill="#000000" font-family="sans-serif" font-size="13" lengthAdjust="spacing" textLength="101" x="441" y="765.7607">getSortProperties</text><rect fill="none" height="43.252" style="stroke:#000000;stroke-width:1.5;" width="167" x="494.5" y="779.0234"/><path d="M494.5,779.0234 L556.5,779.0234 L556.5,788.0234 L546.5,798.0234 L494.5,798.0234 L494.5,779.0234 " fill="#EEEEEE" style="stroke:#000000;stroke-width:2.0;"/><text fill="#000000" font-family="sans-serif" font-size="13" font-weight="bold" lengthAdjust="spacing" textLength="17" x="507.5" y="795.0518">ref</text><text fill="#000000" font-family="sans-serif" font-size="12" lengthAdjust="spacing" textLength="118" x="519" y="814.9727">Get Sorted Properties</text><polygon fill="#181818" points="427,846.5664,417,850.5664,427,854.5664,423,850.5664" style="stroke:#181818;stroke-width:1.0;"/><line style="stroke:#181818;stroke-width:1.0;stroke-dasharray:2.0,2.0;" x1="421" x2="577" y1="850.5664" y2="850.5664"/><text fill="#000000" font-family="sans-serif" font-size="13" font-weight="bold" lengthAdjust="spacing" textLength="14" x="433" y="845.3037">18</text><text fill="#000000" font-family="sans-serif" font-size="13" lengthAdjust="spacing" textLength="97" x="451" y="845.3037">SortedProperties</text><polygon fill="#181818" points="91,884.8574,81,888.8574,91,892.8574,87,888.8574" style="stroke:#181818;stroke-width:1.0;"/><line style="stroke:#181818;stroke-width:1.0;stroke-dasharray:2.0,2.0;" x1="85" x2="410" y1="888.8574" y2="888.8574"/><text fill="#000000" font-family="sans-serif" font-size="13" font-weight="bold" lengthAdjust="spacing" textLength="14" x="97" y="883.5947">19</text><text fill="#000000" font-family="sans-serif" font-size="13" lengthAdjust="spacing" textLength="279" x="115" y="883.5947">Display list of properties by selected sort criteria</text><!--SRC=[jLN1Rjim3BthAuXSjXN83-Gm84Yn8a0654rpwqMnQKU88ncIt2n_FqgERTcMYlPGtYAJZ-Hx96FEGjPSymjSb5JPIQiBWjKDCjD_gNbsvYNkxQr2q9XPBiigT30ddgkha2KKl3B866-iaitbY9gn7oUH8nHAsQFwntXcbOR5GMeiXR6eCOU3GRq0Rc3z-9SHeXMPgBcqi5XjD7ABJmqQUzXwdyCsxR9HqcfLLNUupUlBRkByWhKoWaeGQBnF_t3R2zSLrJqEqK74cvm3FE_Mh-E8jPIgaHbUKDe1VlKMVsyRZtvYpeWmyKuDUd8Ot8r-mF8taG4hM9kp0QkW8ZwXrgf6AWRDuDn347V3gpEA9nJ7qyC38MMUofGBEPHeTvJbUKWIklPvFF6CbLerDJoXXNl03LpqACQP1wSa4ItQd5jfQEOo_Fbh5jldZ0avytOMoxAyjxY2KEvPU8vVIzSrvcQaxIGkz4Tz-VcADk9HXyeJC_H13mDqLsWSeoszqz19E2ru6DB48C-AJsHQ3hCMvcEf5bBvKEO9DRgj2UPuJ5A0tixnT1iSJxH-AzYVrDLu8505H9OYWABLuvNrfmuAKT7XC-6kJdTwZnNTMGDNkYXq8Rk8Wcxd92hCaDhPFpuSyqY9urwxLuq5g7SgTVJgp6rp1nThcOXtqU5OTJqbgfZotQ4GNInA-wCmTSLlxRqZuWT2u7W3uvdhEMDiBeJlknF3A6s_8eNpfqCf25lmpmWo5MDF09yweE6Nj22TA0usBaaeItmNsjX4w7VfCo8oeX9ZuPxJdzz_]--></g></svg>