<?xml version="1.0" encoding="us-ascii" standalone="no"?><svg xmlns="http://www.w3.org/2000/svg" xmlns:xlink="http://www.w3.org/1999/xlink" contentStyleType="text/css" height="833px" preserveAspectRatio="none" style="width:659px;height:833px;background:#FFFFFF;" version="1.1" viewBox="0 0 659 833" width="659px" zoomAndPan="magnify"><defs/><g><rect fill="#FFFFFF" height="638.4121" style="stroke:#181818;stroke-width:1.0;" width="10" x="67" y="93.6211"/><rect fill="#FFFFFF" height="201.707" style="stroke:#181818;stroke-width:1.0;" width="10" x="398" y="116.9121"/><rect fill="#FFFFFF" height="149.125" style="stroke:#181818;stroke-width:1.0;" width="10" x="398" y="376.2012"/><rect fill="#FFFFFF" height="149.125" style="stroke:#181818;stroke-width:1.0;" width="10" x="398" y="582.9082"/><rect fill="#FFFFFF" height="95.5039" style="stroke:#181818;stroke-width:1.0;" width="10" x="558" y="191.8242"/><rect fill="#FFFFFF" height="79.543" style="stroke:#181818;stroke-width:1.0;" width="10" x="558" y="407.4922"/><rect fill="#FFFFFF" height="79.543" style="stroke:#181818;stroke-width:1.0;" width="10" x="558" y="614.1992"/><rect fill="none" height="161.416" style="stroke:#000000;stroke-width:1.5;" width="643.5" x="10" y="333.6191"/><rect fill="none" height="161.416" style="stroke:#000000;stroke-width:1.5;" width="643.5" x="10" y="540.3262"/><line style="stroke:#181818;stroke-width:0.5;stroke-dasharray:5.0,5.0;" x1="72" x2="72" y1="83.6211" y2="750.0332"/><line style="stroke:#181818;stroke-width:0.5;stroke-dasharray:5.0,5.0;" x1="402.5" x2="402.5" y1="83.6211" y2="750.0332"/><line style="stroke:#181818;stroke-width:0.5;stroke-dasharray:5.0,5.0;" x1="562.5" x2="562.5" y1="156.7227" y2="750.0332"/><text fill="#000000" font-family="sans-serif" font-size="14" lengthAdjust="spacing" textLength="98" x="20" y="80.1074">Unregister User</text><ellipse cx="72" cy="13.5" fill="#E3E3E3" rx="8" ry="8" style="stroke:#181818;stroke-width:0.5;"/><path d="M72,21.5 L72,48.5 M59,29.5 L85,29.5 M72,48.5 L59,63.5 M72,48.5 L85,63.5 " fill="none" style="stroke:#181818;stroke-width:0.5;"/><text fill="#000000" font-family="sans-serif" font-size="14" lengthAdjust="spacing" textLength="98" x="20" y="764.1406">Unregister User</text><ellipse cx="72" cy="776.1543" fill="#E3E3E3" rx="8" ry="8" style="stroke:#181818;stroke-width:0.5;"/><path d="M72,784.1543 L72,811.1543 M59,792.1543 L85,792.1543 M72,811.1543 L59,826.1543 M72,811.1543 L85,826.1543 " fill="none" style="stroke:#181818;stroke-width:0.5;"/><rect fill="#E3E3E3" height="32.6211" rx="2.5" ry="2.5" style="stroke:#181818;stroke-width:0.5;" width="111" x="347.5" y="50"/><text fill="#000000" font-family="sans-serif" font-size="14" lengthAdjust="spacing" textLength="97" x="354.5" y="72.1074">:CreateGuestUI</text><rect fill="#E3E3E3" height="32.6211" rx="2.5" ry="2.5" style="stroke:#181818;stroke-width:0.5;" width="111" x="347.5" y="749.0332"/><text fill="#000000" font-family="sans-serif" font-size="14" lengthAdjust="spacing" textLength="97" x="354.5" y="771.1406">:CreateGuestUI</text><rect fill="#E3E3E3" height="32.6211" rx="2.5" ry="2.5" style="stroke:#181818;stroke-width:0.5;" width="161" x="482.5" y="749.0332"/><text fill="#000000" font-family="sans-serif" font-size="14" lengthAdjust="spacing" textLength="147" x="489.5" y="771.1406">:CreateGuestController</text><rect fill="#FFFFFF" height="638.4121" style="stroke:#181818;stroke-width:1.0;" width="10" x="67" y="93.6211"/><rect fill="#FFFFFF" height="201.707" style="stroke:#181818;stroke-width:1.0;" width="10" x="398" y="116.9121"/><rect fill="#FFFFFF" height="149.125" style="stroke:#181818;stroke-width:1.0;" width="10" x="398" y="376.2012"/><rect fill="#FFFFFF" height="149.125" style="stroke:#181818;stroke-width:1.0;" width="10" x="398" y="582.9082"/><rect fill="#FFFFFF" height="95.5039" style="stroke:#181818;stroke-width:1.0;" width="10" x="558" y="191.8242"/><rect fill="#FFFFFF" height="79.543" style="stroke:#181818;stroke-width:1.0;" width="10" x="558" y="407.4922"/><rect fill="#FFFFFF" height="79.543" style="stroke:#181818;stroke-width:1.0;" width="10" x="558" y="614.1992"/><polygon fill="#181818" points="386,112.9121,396,116.9121,386,120.9121,390,116.9121" style="stroke:#181818;stroke-width:1.0;"/><line style="stroke:#181818;stroke-width:1.0;" x1="77" x2="392" y1="116.9121" y2="116.9121"/><text fill="#000000" font-family="sans-serif" font-size="13" font-weight="bold" lengthAdjust="spacing" textLength="7" x="84" y="111.6494">1</text><text fill="#000000" font-family="sans-serif" font-size="13" lengthAdjust="spacing" textLength="127" x="95" y="111.6494">Asks to list properties</text><polygon fill="#181818" points="470.5,144.2031,480.5,148.2031,470.5,152.2031,474.5,148.2031" style="stroke:#181818;stroke-width:1.0;"/><line style="stroke:#181818;stroke-width:1.0;" x1="408" x2="476.5" y1="148.2031" y2="148.2031"/><text fill="#000000" font-family="sans-serif" font-size="13" font-weight="bold" lengthAdjust="spacing" textLength="7" x="415" y="142.9404">2</text><text fill="#000000" font-family="sans-serif" font-size="13" lengthAdjust="spacing" textLength="38" x="426" y="142.9404">Create</text><rect fill="#E3E3E3" height="32.6211" rx="2.5" ry="2.5" style="stroke:#181818;stroke-width:0.5;" width="161" x="482.5" y="124.9121"/><text fill="#000000" font-family="sans-serif" font-size="14" lengthAdjust="spacing" textLength="147" x="489.5" y="147.0195">:CreateGuestController</text><polygon fill="#181818" points="546,187.8242,556,191.8242,546,195.8242,550,191.8242" style="stroke:#181818;stroke-width:1.0;"/><line style="stroke:#181818;stroke-width:1.0;" x1="408" x2="552" y1="191.8242" y2="191.8242"/><text fill="#000000" font-family="sans-serif" font-size="13" font-weight="bold" lengthAdjust="spacing" textLength="7" x="415" y="186.5615">3</text><text fill="#000000" font-family="sans-serif" font-size="13" lengthAdjust="spacing" textLength="98" x="426" y="186.5615">getListProperties</text><rect fill="none" height="59.2129" style="stroke:#000000;stroke-width:1.5;" width="167" x="479.5" y="199.8242"/><path d="M479.5,199.8242 L541.5,199.8242 L541.5,208.8242 L531.5,218.8242 L479.5,218.8242 L479.5,199.8242 " fill="#EEEEEE" style="stroke:#000000;stroke-width:2.0;"/><text fill="#000000" font-family="sans-serif" font-size="13" font-weight="bold" lengthAdjust="spacing" textLength="17" x="492.5" y="215.8525">ref</text><text fill="#000000" font-family="sans-serif" font-size="12" lengthAdjust="spacing" textLength="102" x="512" y="235.7734">Get List Properties</text><text fill="#000000" font-family="sans-serif" font-size="12" lengthAdjust="spacing" textLength="3" x="561.5" y="251.7344">&#160;</text><polygon fill="#181818" points="419,283.3281,409,287.3281,419,291.3281,415,287.3281" style="stroke:#181818;stroke-width:1.0;"/><line style="stroke:#181818;stroke-width:1.0;stroke-dasharray:2.0,2.0;" x1="413" x2="562" y1="287.3281" y2="287.3281"/><text fill="#000000" font-family="sans-serif" font-size="13" font-weight="bold" lengthAdjust="spacing" textLength="7" x="425" y="282.0654">4</text><text fill="#000000" font-family="sans-serif" font-size="13" lengthAdjust="spacing" textLength="80" x="436" y="282.0654">ListProperties</text><polygon fill="#181818" points="88,314.6191,78,318.6191,88,322.6191,84,318.6191" style="stroke:#181818;stroke-width:1.0;"/><line style="stroke:#181818;stroke-width:1.0;stroke-dasharray:2.0,2.0;" x1="82" x2="402" y1="318.6191" y2="318.6191"/><text fill="#000000" font-family="sans-serif" font-size="13" font-weight="bold" lengthAdjust="spacing" textLength="7" x="94" y="313.3564">5</text><text fill="#000000" font-family="sans-serif" font-size="13" lengthAdjust="spacing" textLength="141" x="105" y="313.3564">Shows List of Properties</text><path d="M10,333.6191 L71,333.6191 L71,342.9102 L61,352.9102 L10,352.9102 L10,333.6191 " fill="#EEEEEE" style="stroke:#000000;stroke-width:1.5;"/><rect fill="none" height="161.416" style="stroke:#000000;stroke-width:1.5;" width="643.5" x="10" y="333.6191"/><text fill="#000000" font-family="sans-serif" font-size="13" font-weight="bold" lengthAdjust="spacing" textLength="16" x="25" y="348.6475">alt</text><text fill="#000000" font-family="sans-serif" font-size="11" font-weight="bold" lengthAdjust="spacing" textLength="132" x="86" y="347.4893">[User filters properties]</text><polygon fill="#181818" points="386,372.2012,396,376.2012,386,380.2012,390,376.2012" style="stroke:#181818;stroke-width:1.0;"/><line style="stroke:#181818;stroke-width:1.0;" x1="77" x2="392" y1="376.2012" y2="376.2012"/><text fill="#000000" font-family="sans-serif" font-size="13" font-weight="bold" lengthAdjust="spacing" textLength="7" x="84" y="370.9385">6</text><text fill="#000000" font-family="sans-serif" font-size="13" lengthAdjust="spacing" textLength="203" x="95" y="370.9385">Selects wanted filters for properties</text><polygon fill="#181818" points="546,403.4922,556,407.4922,546,411.4922,550,407.4922" style="stroke:#181818;stroke-width:1.0;"/><line style="stroke:#181818;stroke-width:1.0;" x1="408" x2="552" y1="407.4922" y2="407.4922"/><text fill="#000000" font-family="sans-serif" font-size="13" font-weight="bold" lengthAdjust="spacing" textLength="7" x="415" y="402.2295">7</text><text fill="#000000" font-family="sans-serif" font-size="13" lengthAdjust="spacing" textLength="120" x="426" y="402.2295">getFilteredProperties</text><rect fill="none" height="43.252" style="stroke:#000000;stroke-width:1.5;" width="167" x="479.5" y="415.4922"/><path d="M479.5,415.4922 L541.5,415.4922 L541.5,424.4922 L531.5,434.4922 L479.5,434.4922 L479.5,415.4922 " fill="#EEEEEE" style="stroke:#000000;stroke-width:2.0;"/><text fill="#000000" font-family="sans-serif" font-size="13" font-weight="bold" lengthAdjust="spacing" textLength="17" x="492.5" y="431.5205">ref</text><text fill="#000000" font-family="sans-serif" font-size="12" lengthAdjust="spacing" textLength="123" x="501.5" y="451.4414">Get Filtered Properties</text><polygon fill="#181818" points="419,483.0352,409,487.0352,419,491.0352,415,487.0352" style="stroke:#181818;stroke-width:1.0;"/><line style="stroke:#181818;stroke-width:1.0;stroke-dasharray:2.0,2.0;" x1="413" x2="562" y1="487.0352" y2="487.0352"/><text fill="#000000" font-family="sans-serif" font-size="13" font-weight="bold" lengthAdjust="spacing" textLength="7" x="425" y="481.7725">8</text><text fill="#000000" font-family="sans-serif" font-size="13" lengthAdjust="spacing" textLength="102" x="436" y="481.7725">FilteredProperties</text><polygon fill="#181818" points="88,521.3262,78,525.3262,88,529.3262,84,525.3262" style="stroke:#181818;stroke-width:1.0;"/><line style="stroke:#181818;stroke-width:1.0;stroke-dasharray:2.0,2.0;" x1="82" x2="402" y1="525.3262" y2="525.3262"/><text fill="#000000" font-family="sans-serif" font-size="13" font-weight="bold" lengthAdjust="spacing" textLength="7" x="94" y="520.0635">9</text><text fill="#000000" font-family="sans-serif" font-size="13" lengthAdjust="spacing" textLength="238" x="105" y="520.0635">Display list of properties by selected filter</text><path d="M10,540.3262 L71,540.3262 L71,549.6172 L61,559.6172 L10,559.6172 L10,540.3262 " fill="#EEEEEE" style="stroke:#000000;stroke-width:1.5;"/><rect fill="none" height="161.416" style="stroke:#000000;stroke-width:1.5;" width="643.5" x="10" y="540.3262"/><text fill="#000000" font-family="sans-serif" font-size="13" font-weight="bold" lengthAdjust="spacing" textLength="16" x="25" y="555.3545">alt</text><text fill="#000000" font-family="sans-serif" font-size="11" font-weight="bold" lengthAdjust="spacing" textLength="129" x="86" y="554.1963">[User sorts properties]</text><polygon fill="#181818" points="386,578.9082,396,582.9082,386,586.9082,390,582.9082" style="stroke:#181818;stroke-width:1.0;"/><line style="stroke:#181818;stroke-width:1.0;" x1="77" x2="392" y1="582.9082" y2="582.9082"/><text fill="#000000" font-family="sans-serif" font-size="13" font-weight="bold" lengthAdjust="spacing" textLength="14" x="84" y="577.6455">10</text><text fill="#000000" font-family="sans-serif" font-size="13" lengthAdjust="spacing" textLength="237" x="102" y="577.6455">Selects wanted sort criteria for properties</text><polygon fill="#181818" points="546,610.1992,556,614.1992,546,618.1992,550,614.1992" style="stroke:#181818;stroke-width:1.0;"/><line style="stroke:#181818;stroke-width:1.0;" x1="408" x2="552" y1="614.1992" y2="614.1992"/><text fill="#000000" font-family="sans-serif" font-size="13" font-weight="bold" lengthAdjust="spacing" textLength="14" x="415" y="608.9365">11</text><text fill="#000000" font-family="sans-serif" font-size="13" lengthAdjust="spacing" textLength="101" x="433" y="608.9365">getSortProperties</text><rect fill="none" height="43.252" style="stroke:#000000;stroke-width:1.5;" width="167" x="479.5" y="622.1992"/><path d="M479.5,622.1992 L541.5,622.1992 L541.5,631.1992 L531.5,641.1992 L479.5,641.1992 L479.5,622.1992 " fill="#EEEEEE" style="stroke:#000000;stroke-width:2.0;"/><text fill="#000000" font-family="sans-serif" font-size="13" font-weight="bold" lengthAdjust="spacing" textLength="17" x="492.5" y="638.2275">ref</text><text fill="#000000" font-family="sans-serif" font-size="12" lengthAdjust="spacing" textLength="118" x="504" y="658.1484">Get Sorted Properties</text><polygon fill="#181818" points="419,689.7422,409,693.7422,419,697.7422,415,693.7422" style="stroke:#181818;stroke-width:1.0;"/><line style="stroke:#181818;stroke-width:1.0;stroke-dasharray:2.0,2.0;" x1="413" x2="562" y1="693.7422" y2="693.7422"/><text fill="#000000" font-family="sans-serif" font-size="13" font-weight="bold" lengthAdjust="spacing" textLength="14" x="425" y="688.4795">12</text><text fill="#000000" font-family="sans-serif" font-size="13" lengthAdjust="spacing" textLength="97" x="443" y="688.4795">SortedProperties</text><polygon fill="#181818" points="83,728.0332,73,732.0332,83,736.0332,79,732.0332" style="stroke:#181818;stroke-width:1.0;"/><line style="stroke:#181818;stroke-width:1.0;stroke-dasharray:2.0,2.0;" x1="77" x2="402" y1="732.0332" y2="732.0332"/><text fill="#000000" font-family="sans-serif" font-size="13" font-weight="bold" lengthAdjust="spacing" textLength="14" x="89" y="726.7705">13</text><text fill="#000000" font-family="sans-serif" font-size="13" lengthAdjust="spacing" textLength="279" x="107" y="726.7705">Display list of properties by selected sort criteria</text><!--SRC=[jPHDJiCm48NtFiMe6oGaBj054Ye28O5KKNe0DvcaLbrFP4yflJrZXwHfvF2pmAicdlTvvZsdOMTSextUmvuS5LjFUmJs1rIXtsbqiTCrhlXa4JmMh5rjXmLXgqiw6bT3fMr0fVI1oHts6_HANMrDYL0HyOO-b2wOFCpMpcDj0gE7TK0_0ntWxlv52OzDOHhj66RpXKVD-7Z0mEkdLBD-cYvPa6DFrdxX5c-lpqh50ysxb2Iy0bdo0svk1GLpk0kx04nWfHTeF3KeS0njOI-LKzEBk4GcuWY_lXP0UtvcL_Pgv6VXBi_OhinZ1VGkmwScOR0UaI6AO3bg9YvqPPIUN_GTjiCEGQc7csxEYJvAd234EKGRhPh3Qal7q7P55Omm0uJOb9god4A5obW9E0nz7Vk_GYltAS1HqiIoLrHoHqQgyIavjn-I7ClCf9Tp_Yw73WSPtaKKbrvFT37skgE8NNdRxqreh3wrTrECFni2cnE4v5plcVefZ42U_n95h8V26s4R_Pj0nc6i190nRZgCxmFfGedOV2J3MF9VGQkTaFvNFXT6Pb9IQl0S_wG-0G00]--></g></svg>