<?xml version="1.0" encoding="us-ascii" standalone="no"?><svg xmlns="http://www.w3.org/2000/svg" xmlns:xlink="http://www.w3.org/1999/xlink" contentStyleType="text/css" height="486px" preserveAspectRatio="none" style="width:872px;height:486px;background:#FFFFFF;" version="1.1" viewBox="0 0 872 486" width="872px" zoomAndPan="magnify"><defs/><g><rect fill="#FFFFFF" height="303.9883" style="stroke:#181818;stroke-width:1.0;" width="10" x="375" y="107.8242"/><rect fill="#FFFFFF" height="130.873" style="stroke:#181818;stroke-width:1.0;" width="10" x="380" y="235.6484"/><rect fill="#FFFFFF" height="42.291" style="stroke:#181818;stroke-width:1.0;" width="10" x="385" y="279.9395"/><rect fill="none" height="258.6973" style="stroke:#000000;stroke-width:1.5;" width="556" x="310" y="122.8242"/><line style="stroke:#181818;stroke-width:0.5;stroke-dasharray:5.0,5.0;" x1="380" x2="380" y1="57.2422" y2="429.8125"/><line style="stroke:#181818;stroke-width:0.5;stroke-dasharray:5.0,5.0;" x1="816" x2="816" y1="183.2363" y2="429.8125"/><rect fill="#E3E3E3" height="51.2422" rx="2.5" ry="2.5" style="stroke:#181818;stroke-width:0.5;" width="120" x="320" y="5"/><text fill="#000000" font-family="sans-serif" font-size="14" lengthAdjust="spacing" textLength="100" x="330" y="27.1074">storeRepository</text><text fill="#000000" font-family="sans-serif" font-size="14" lengthAdjust="spacing" textLength="106" x="327" y="45.7285">:StoreRepository</text><rect fill="#E3E3E3" height="51.2422" rx="2.5" ry="2.5" style="stroke:#181818;stroke-width:0.5;" width="120" x="320" y="428.8125"/><text fill="#000000" font-family="sans-serif" font-size="14" lengthAdjust="spacing" textLength="100" x="330" y="450.9199">storeRepository</text><text fill="#000000" font-family="sans-serif" font-size="14" lengthAdjust="spacing" textLength="106" x="327" y="469.541">:StoreRepository</text><rect fill="#E3E3E3" height="51.2422" rx="2.5" ry="2.5" style="stroke:#181818;stroke-width:0.5;" width="80" x="776" y="428.8125"/><text fill="#000000" font-family="sans-serif" font-size="14" lengthAdjust="spacing" textLength="62" x="785" y="450.9199">Employee</text><text fill="#000000" font-family="sans-serif" font-size="14" lengthAdjust="spacing" textLength="66" x="783" y="469.541">:Employee</text><rect fill="#FFFFFF" height="303.9883" style="stroke:#181818;stroke-width:1.0;" width="10" x="375" y="107.8242"/><rect fill="#FFFFFF" height="130.873" style="stroke:#181818;stroke-width:1.0;" width="10" x="380" y="235.6484"/><rect fill="#FFFFFF" height="42.291" style="stroke:#181818;stroke-width:1.0;" width="10" x="385" y="279.9395"/><polygon fill="#181818" points="363,103.8242,373,107.8242,363,111.8242,367,107.8242" style="stroke:#181818;stroke-width:1.0;"/><line style="stroke:#181818;stroke-width:1.0;" x1="0" x2="369" y1="107.8242" y2="107.8242"/><text fill="#000000" font-family="sans-serif" font-size="13" font-weight="bold" lengthAdjust="spacing" textLength="14" x="7" y="93.916">14</text><text fill="#000000" font-family="sans-serif" font-size="13" lengthAdjust="spacing" textLength="338" x="25" y="85.2705">createEMPLOYEE(name,descriptions,tax number,address</text><text fill="#000000" font-family="sans-serif" font-size="13" lengthAdjust="spacing" textLength="299" x="25" y="102.5615">,email address,phone number,password,store,roles)</text><path d="M310,122.8242 L464,122.8242 L464,132.1152 L454,142.1152 L310,142.1152 L310,122.8242 " fill="#EEEEEE" style="stroke:#000000;stroke-width:1.5;"/><rect fill="none" height="258.6973" style="stroke:#000000;stroke-width:1.5;" width="556" x="310" y="122.8242"/><text fill="#000000" font-family="sans-serif" font-size="13" font-weight="bold" lengthAdjust="spacing" textLength="109" x="325" y="137.8525">Create Employee</text><polygon fill="#181818" points="764,178.6973,774,182.6973,764,186.6973,768,182.6973" style="stroke:#181818;stroke-width:1.0;"/><line style="stroke:#181818;stroke-width:1.0;" x1="385" x2="770" y1="182.6973" y2="182.6973"/><text fill="#000000" font-family="sans-serif" font-size="13" font-weight="bold" lengthAdjust="spacing" textLength="25" x="392" y="168.7891">14.1</text><text fill="#000000" font-family="sans-serif" font-size="13" lengthAdjust="spacing" textLength="338" x="421" y="160.1436">createEMPLOYEE(name,descriptions,tax number,address</text><text fill="#000000" font-family="sans-serif" font-size="13" lengthAdjust="spacing" textLength="299" x="421" y="177.4346">,email address,phone number,password,store,roles)</text><rect fill="#E3E3E3" height="51.2422" rx="2.5" ry="2.5" style="stroke:#181818;stroke-width:0.5;" width="80" x="776" y="142.1152"/><text fill="#000000" font-family="sans-serif" font-size="14" lengthAdjust="spacing" textLength="62" x="785" y="164.2227">Employee</text><text fill="#000000" font-family="sans-serif" font-size="14" lengthAdjust="spacing" textLength="66" x="783" y="182.8438">:Employee</text><line style="stroke:#181818;stroke-width:1.0;" x1="385" x2="432" y1="222.6484" y2="222.6484"/><line style="stroke:#181818;stroke-width:1.0;" x1="432" x2="432" y1="222.6484" y2="235.6484"/><line style="stroke:#181818;stroke-width:1.0;" x1="391" x2="432" y1="235.6484" y2="235.6484"/><polygon fill="#181818" points="401,231.6484,391,235.6484,401,239.6484,397,235.6484" style="stroke:#181818;stroke-width:1.0;"/><text fill="#000000" font-family="sans-serif" font-size="13" font-weight="bold" lengthAdjust="spacing" textLength="25" x="397" y="217.3857">14.2</text><text fill="#000000" font-family="sans-serif" font-size="13" lengthAdjust="spacing" textLength="149" x="426" y="217.3857">addEmployee (Employee)</text><line style="stroke:#181818;stroke-width:1.0;" x1="390" x2="437" y1="266.9395" y2="266.9395"/><line style="stroke:#181818;stroke-width:1.0;" x1="437" x2="437" y1="266.9395" y2="279.9395"/><line style="stroke:#181818;stroke-width:1.0;" x1="396" x2="437" y1="279.9395" y2="279.9395"/><polygon fill="#181818" points="406,275.9395,396,279.9395,406,283.9395,402,279.9395" style="stroke:#181818;stroke-width:1.0;"/><text fill="#000000" font-family="sans-serif" font-size="13" font-weight="bold" lengthAdjust="spacing" textLength="25" x="402" y="261.6768">14.3</text><text fill="#000000" font-family="sans-serif" font-size="13" lengthAdjust="spacing" textLength="167" x="431" y="261.6768">validateEmployee(Employee)</text><line style="stroke:#181818;stroke-width:1.0;stroke-dasharray:2.0,2.0;" x1="395" x2="437" y1="321.2305" y2="321.2305"/><line style="stroke:#181818;stroke-width:1.0;stroke-dasharray:2.0,2.0;" x1="437" x2="437" y1="321.2305" y2="334.2305"/><line style="stroke:#181818;stroke-width:1.0;stroke-dasharray:2.0,2.0;" x1="390" x2="437" y1="334.2305" y2="334.2305"/><polygon fill="#181818" points="400,330.2305,390,334.2305,400,338.2305,396,334.2305" style="stroke:#181818;stroke-width:1.0;"/><text fill="#000000" font-family="sans-serif" font-size="13" font-weight="bold" lengthAdjust="spacing" textLength="25" x="402" y="315.9678">14.4</text><text fill="#000000" font-family="sans-serif" font-size="13" lengthAdjust="spacing" textLength="4" x="431" y="315.9678">&#160;</text><line style="stroke:#181818;stroke-width:1.0;stroke-dasharray:2.0,2.0;" x1="390" x2="432" y1="365.5215" y2="365.5215"/><line style="stroke:#181818;stroke-width:1.0;stroke-dasharray:2.0,2.0;" x1="432" x2="432" y1="365.5215" y2="378.5215"/><line style="stroke:#181818;stroke-width:1.0;stroke-dasharray:2.0,2.0;" x1="385" x2="432" y1="378.5215" y2="378.5215"/><polygon fill="#181818" points="395,374.5215,385,378.5215,395,382.5215,391,378.5215" style="stroke:#181818;stroke-width:1.0;"/><text fill="#000000" font-family="sans-serif" font-size="13" font-weight="bold" lengthAdjust="spacing" textLength="25" x="397" y="360.2588">14.5</text><text fill="#000000" font-family="sans-serif" font-size="13" lengthAdjust="spacing" textLength="4" x="426" y="360.2588">&#160;</text><polygon fill="#181818" points="11,407.8125,1,411.8125,11,415.8125,7,411.8125" style="stroke:#181818;stroke-width:1.0;"/><line style="stroke:#181818;stroke-width:1.0;stroke-dasharray:2.0,2.0;" x1="5" x2="379" y1="411.8125" y2="411.8125"/><text fill="#000000" font-family="sans-serif" font-size="13" font-weight="bold" lengthAdjust="spacing" textLength="14" x="17" y="406.5498">15</text><text fill="#000000" font-family="sans-serif" font-size="13" lengthAdjust="spacing" textLength="58" x="35" y="406.5498">Employee</text><!--SRC=[lL7BJiCm4BpxArOzjLMAL0ak4KAgKE02Acgv8FMon4jgDNx8TbhwzpXEqoO1n0sVrhipipEssmbbqA84gPNEjrPB0cyhOkuyCPZliA2rFvO4bdAFgYYx0BT5hWz25V21fIF6GjkBN1XK7aREQqihCjg9K1qtAbttEoD01ylLOv-MILFg8r70jsK4lYvMsSE2CQoyLfLy9mlpQpQxgnLIWDmIUigUNvwMRrasLYWfuUHoAumNMhd4uoSql0Gvj-JSHYKaKPHmkYTcgnMr88FE7RJbISoHM5sIcmpMNyqPvbxim-OO1C8fhAuCt4Sxq2PWSLIV08DWkaapdQR_PNomFpvQeBS6OTnMaulNRzb-4jbZANYTuCJl27KflsgTzHh1tenJZyR-uWpmTOiKRtZTZxk9dTlPBAgabsyQBlm2]--></g></svg>
