<?xml version="1.0" encoding="us-ascii" standalone="no"?><svg xmlns="http://www.w3.org/2000/svg" xmlns:xlink="http://www.w3.org/1999/xlink" contentStyleType="text/css" height="1560px" preserveAspectRatio="none" style="width:2073px;height:1560px;background:#FFFFFF;" version="1.1" viewBox="0 0 2073 1560" width="2073px" zoomAndPan="magnify"><defs/><g><!--class Repositories--><g id="elem_Repositories"><rect codeLine="9" fill="#F1F1F1" height="290.0742" id="Repositories" rx="2.5" ry="2.5" style="stroke:#181818;stroke-width:0.5;" width="359" x="1145.5" y="35"/><ellipse cx="1281.25" cy="51" fill="#ADD1B2" rx="11" ry="11" style="stroke:#181818;stroke-width:1.0;"/><path d="M1284.0156,46.875 Q1284.1719,46.6563 1284.3594,46.5469 Q1284.5469,46.4375 1284.7656,46.4375 Q1285.1406,46.4375 1285.375,46.7031 Q1285.6094,46.9531 1285.6094,47.5625 L1285.6094,49.0156 Q1285.6094,49.625 1285.375,49.8906 Q1285.1406,50.1563 1284.7656,50.1563 Q1284.4219,50.1563 1284.2188,49.9531 Q1284.0156,49.7656 1283.9063,49.25 Q1283.8594,48.8906 1283.6719,48.7031 Q1283.3438,48.3281 1282.7344,48.1094 Q1282.125,47.8906 1281.5,47.8906 Q1280.7344,47.8906 1280.0938,48.2188 Q1279.4688,48.5469 1278.9688,49.2969 Q1278.4844,50.0469 1278.4844,51.0781 L1278.4844,52.1719 Q1278.4844,53.4063 1279.375,54.2344 Q1280.2656,55.0469 1281.8594,55.0469 Q1282.7969,55.0469 1283.4531,54.7969 Q1283.8438,54.6406 1284.2656,54.2031 Q1284.5313,53.9375 1284.6719,53.8594 Q1284.8281,53.7813 1285.0313,53.7813 Q1285.3594,53.7813 1285.6094,54.0469 Q1285.875,54.2969 1285.875,54.6406 Q1285.875,54.9844 1285.5313,55.3906 Q1285.0313,55.9688 1284.2344,56.2969 Q1283.1563,56.75 1281.8594,56.75 Q1280.3438,56.75 1279.1406,56.125 Q1278.1563,55.625 1277.4688,54.5625 Q1276.7813,53.4844 1276.7813,52.2031 L1276.7813,51.0469 Q1276.7813,49.7188 1277.3906,48.5781 Q1278.0156,47.4219 1279.1094,46.8125 Q1280.2031,46.1875 1281.4375,46.1875 Q1282.1719,46.1875 1282.8125,46.3594 Q1283.4688,46.5156 1284.0156,46.875 Z " fill="#000000"/><text fill="#000000" font-family="sans-serif" font-size="14" lengthAdjust="spacing" textLength="79" x="1301.75" y="56.7969">Repositories</text><line style="stroke:#181818;stroke-width:0.5;" x1="1146.5" x2="1503.5" y1="67" y2="67"/><polygon fill="none" points="1156.5,77.8105,1152.5,83.8105,1160.5,83.8105" style="stroke:#1963A0;stroke-width:1.0;"/><text fill="#000000" font-family="sans-serif" font-size="14" lengthAdjust="spacing" textLength="251" x="1165.5" y="86.1074">propertyRepository: PropertyRepository</text><polygon fill="none" points="1156.5,96.4316,1152.5,102.4316,1160.5,102.4316" style="stroke:#1963A0;stroke-width:1.0;"/><text fill="#000000" font-family="sans-serif" font-size="14" lengthAdjust="spacing" textLength="323" x="1165.5" y="104.7285">authenticationRepository: AuthenticationRepository</text><polygon fill="none" points="1156.5,115.0527,1152.5,121.0527,1160.5,121.0527" style="stroke:#1963A0;stroke-width:1.0;"/><text fill="#000000" font-family="sans-serif" font-size="14" lengthAdjust="spacing" textLength="213" x="1165.5" y="123.3496">clientRepository: ClientRepository</text><rect fill="none" height="6" style="stroke:#C82930;stroke-width:1.0;" width="6" x="1153.5" y="134.6738"/><text fill="#000000" font-family="sans-serif" font-size="14" lengthAdjust="spacing" textLength="140" x="1165.5" y="141.9707">instance: Repositories</text><polygon fill="none" points="1156.5,152.2949,1152.5,158.2949,1160.5,158.2949" style="stroke:#1963A0;stroke-width:1.0;"/><text fill="#000000" font-family="sans-serif" font-size="14" lengthAdjust="spacing" textLength="333" x="1165.5" y="160.5918">announcementRepository: AnnouncementRepository</text><polygon fill="none" points="1156.5,170.916,1152.5,176.916,1160.5,176.916" style="stroke:#1963A0;stroke-width:1.0;"/><text fill="#000000" font-family="sans-serif" font-size="14" lengthAdjust="spacing" textLength="210" x="1165.5" y="179.2129">storeRepository: StoreRepository</text><text fill="#000000" font-family="sans-serif" font-size="14" lengthAdjust="spacing" textLength="333" x="1165.5" y="197.834">announcementRepository: AnnouncementRepository</text><text fill="#000000" font-family="sans-serif" font-size="14" lengthAdjust="spacing" textLength="251" x="1165.5" y="216.4551">propertyRepository: PropertyRepository</text><text fill="#000000" font-family="sans-serif" font-size="14" lengthAdjust="spacing" textLength="140" x="1165.5" y="235.0762">instance: Repositories</text><text fill="#000000" font-family="sans-serif" font-size="14" lengthAdjust="spacing" textLength="213" x="1165.5" y="253.6973">clientRepository: ClientRepository</text><text fill="#000000" font-family="sans-serif" font-size="14" lengthAdjust="spacing" textLength="323" x="1165.5" y="272.3184">authenticationRepository: AuthenticationRepository</text><text fill="#000000" font-family="sans-serif" font-size="14" lengthAdjust="spacing" textLength="210" x="1165.5" y="290.9395">storeRepository: StoreRepository</text><line style="stroke:#181818;stroke-width:0.5;" x1="1146.5" x2="1503.5" y1="298.4531" y2="298.4531"/><rect fill="#F24D5C" height="6" style="stroke:#C82930;stroke-width:1.0;" width="6" x="1153.5" y="310.2637"/><text fill="#000000" font-family="sans-serif" font-size="14" lengthAdjust="spacing" textLength="93" x="1165.5" y="317.5605">Repositories():</text></g><!--class StoreRepository--><g id="elem_StoreRepository"><rect codeLine="25" fill="#F1F1F1" height="215.5898" id="StoreRepository" rx="2.5" ry="2.5" style="stroke:#181818;stroke-width:0.5;" width="723" x="909.5" y="515.5"/><ellipse cx="1215.75" cy="531.5" fill="#ADD1B2" rx="11" ry="11" style="stroke:#181818;stroke-width:1.0;"/><path d="M1218.5156,527.375 Q1218.6719,527.1563 1218.8594,527.0469 Q1219.0469,526.9375 1219.2656,526.9375 Q1219.6406,526.9375 1219.875,527.2031 Q1220.1094,527.4531 1220.1094,528.0625 L1220.1094,529.5156 Q1220.1094,530.125 1219.875,530.3906 Q1219.6406,530.6563 1219.2656,530.6563 Q1218.9219,530.6563 1218.7188,530.4531 Q1218.5156,530.2656 1218.4063,529.75 Q1218.3594,529.3906 1218.1719,529.2031 Q1217.8438,528.8281 1217.2344,528.6094 Q1216.625,528.3906 1216,528.3906 Q1215.2344,528.3906 1214.5938,528.7188 Q1213.9688,529.0469 1213.4688,529.7969 Q1212.9844,530.5469 1212.9844,531.5781 L1212.9844,532.6719 Q1212.9844,533.9063 1213.875,534.7344 Q1214.7656,535.5469 1216.3594,535.5469 Q1217.2969,535.5469 1217.9531,535.2969 Q1218.3438,535.1406 1218.7656,534.7031 Q1219.0313,534.4375 1219.1719,534.3594 Q1219.3281,534.2813 1219.5313,534.2813 Q1219.8594,534.2813 1220.1094,534.5469 Q1220.375,534.7969 1220.375,535.1406 Q1220.375,535.4844 1220.0313,535.8906 Q1219.5313,536.4688 1218.7344,536.7969 Q1217.6563,537.25 1216.3594,537.25 Q1214.8438,537.25 1213.6406,536.625 Q1212.6563,536.125 1211.9688,535.0625 Q1211.2813,533.9844 1211.2813,532.7031 L1211.2813,531.5469 Q1211.2813,530.2188 1211.8906,529.0781 Q1212.5156,527.9219 1213.6094,527.3125 Q1214.7031,526.6875 1215.9375,526.6875 Q1216.6719,526.6875 1217.3125,526.8594 Q1217.9688,527.0156 1218.5156,527.375 Z " fill="#000000"/><text fill="#000000" font-family="sans-serif" font-size="14" lengthAdjust="spacing" textLength="102" x="1236.25" y="537.2969">StoreRepository</text><line style="stroke:#181818;stroke-width:0.5;" x1="910.5" x2="1631.5" y1="547.5" y2="547.5"/><polygon fill="none" points="920.5,558.3105,916.5,564.3105,924.5,564.3105" style="stroke:#1963A0;stroke-width:1.0;"/><text fill="#000000" font-family="sans-serif" font-size="14" lengthAdjust="spacing" textLength="119" x="929.5" y="566.6074">stores: List&lt;Store&gt;</text><text fill="#000000" font-family="sans-serif" font-size="14" lengthAdjust="spacing" textLength="119" x="929.5" y="585.2285">stores: List&lt;Store&gt;</text><line style="stroke:#181818;stroke-width:0.5;" x1="910.5" x2="1631.5" y1="592.7422" y2="592.7422"/><ellipse cx="920.5" cy="607.5527" fill="#84BE84" rx="3" ry="3" style="stroke:#038048;stroke-width:1.0;"/><text fill="#000000" font-family="sans-serif" font-size="14" lengthAdjust="spacing" textLength="116" x="929.5" y="611.8496">StoreRepository():</text><ellipse cx="920.5" cy="626.1738" fill="#84BE84" rx="3" ry="3" style="stroke:#038048;stroke-width:1.0;"/><text fill="#000000" font-family="sans-serif" font-size="14" lengthAdjust="spacing" textLength="136" x="929.5" y="630.4707">addStore(Store): void</text><rect fill="#F24D5C" height="6" style="stroke:#C82930;stroke-width:1.0;" width="6" x="917.5" y="641.7949"/><text fill="#000000" font-family="sans-serif" font-size="14" lengthAdjust="spacing" textLength="161" x="929.5" y="649.0918">validateStore(Store): void</text><ellipse cx="920.5" cy="663.416" fill="#84BE84" rx="3" ry="3" style="stroke:#038048;stroke-width:1.0;"/><text fill="#000000" font-family="sans-serif" font-size="14" lengthAdjust="spacing" textLength="697" x="929.5" y="667.7129">createEmployee(String, String, int, String, String, String, String, Roles[], int, Store): Optional&lt;EmployeeProject&gt;</text><rect fill="#F24D5C" height="6" style="stroke:#C82930;stroke-width:1.0;" width="6" x="917.5" y="679.0371"/><text fill="#000000" font-family="sans-serif" font-size="14" lengthAdjust="spacing" textLength="329" x="929.5" y="686.334">addEmployeeToStore(Store, EmployeeProject): void</text><ellipse cx="920.5" cy="700.6582" fill="#84BE84" rx="3" ry="3" style="stroke:#038048;stroke-width:1.0;"/><text fill="#000000" font-family="sans-serif" font-size="14" lengthAdjust="spacing" textLength="367" x="929.5" y="704.9551">addEmployeeToStorePublic(Store, EmployeeProject): void</text><ellipse cx="920.5" cy="719.2793" fill="#84BE84" rx="3" ry="3" style="stroke:#038048;stroke-width:1.0;"/><text fill="#000000" font-family="sans-serif" font-size="14" lengthAdjust="spacing" textLength="248" x="929.5" y="723.5762">listEmployees(): List&lt;EmployeeProject&gt;</text></g><!--class CreatEmployeeUi--><g id="elem_CreatEmployeeUi"><rect codeLine="37" fill="#F1F1F1" height="345.9375" id="CreatEmployeeUi" rx="2.5" ry="2.5" style="stroke:#181818;stroke-width:0.5;" width="276" x="7" y="7"/><ellipse cx="86.25" cy="23" fill="#ADD1B2" rx="11" ry="11" style="stroke:#181818;stroke-width:1.0;"/><path d="M89.0156,18.875 Q89.1719,18.6563 89.3594,18.5469 Q89.5469,18.4375 89.7656,18.4375 Q90.1406,18.4375 90.375,18.7031 Q90.6094,18.9531 90.6094,19.5625 L90.6094,21.0156 Q90.6094,21.625 90.375,21.8906 Q90.1406,22.1563 89.7656,22.1563 Q89.4219,22.1563 89.2188,21.9531 Q89.0156,21.7656 88.9063,21.25 Q88.8594,20.8906 88.6719,20.7031 Q88.3438,20.3281 87.7344,20.1094 Q87.125,19.8906 86.5,19.8906 Q85.7344,19.8906 85.0938,20.2188 Q84.4688,20.5469 83.9688,21.2969 Q83.4844,22.0469 83.4844,23.0781 L83.4844,24.1719 Q83.4844,25.4063 84.375,26.2344 Q85.2656,27.0469 86.8594,27.0469 Q87.7969,27.0469 88.4531,26.7969 Q88.8438,26.6406 89.2656,26.2031 Q89.5313,25.9375 89.6719,25.8594 Q89.8281,25.7813 90.0313,25.7813 Q90.3594,25.7813 90.6094,26.0469 Q90.875,26.2969 90.875,26.6406 Q90.875,26.9844 90.5313,27.3906 Q90.0313,27.9688 89.2344,28.2969 Q88.1563,28.75 86.8594,28.75 Q85.3438,28.75 84.1406,28.125 Q83.1563,27.625 82.4688,26.5625 Q81.7813,25.4844 81.7813,24.2031 L81.7813,23.0469 Q81.7813,21.7188 82.3906,20.5781 Q83.0156,19.4219 84.1094,18.8125 Q85.2031,18.1875 86.4375,18.1875 Q87.1719,18.1875 87.8125,18.3594 Q88.4688,18.5156 89.0156,18.875 Z " fill="#000000"/><text fill="#000000" font-family="sans-serif" font-size="14" lengthAdjust="spacing" textLength="109" x="106.75" y="28.7969">CreatEmployeeUi</text><line style="stroke:#181818;stroke-width:0.5;" x1="8" x2="282" y1="39" y2="39"/><rect fill="none" height="6" style="stroke:#C82930;stroke-width:1.0;" width="6" x="15" y="50.8105"/><text fill="#000000" font-family="sans-serif" font-size="14" lengthAdjust="spacing" textLength="226" x="27" y="58.1074">controller: CreatEmployeeController</text><text fill="#000000" font-family="sans-serif" font-size="14" lengthAdjust="spacing" textLength="226" x="27" y="76.7285">controller: CreatEmployeeController</text><line style="stroke:#181818;stroke-width:0.5;" x1="8" x2="282" y1="84.2422" y2="84.2422"/><ellipse cx="18" cy="99.0527" fill="#84BE84" rx="3" ry="3" style="stroke:#038048;stroke-width:1.0;"/><text fill="#000000" font-family="sans-serif" font-size="14" lengthAdjust="spacing" textLength="123" x="27" y="103.3496">CreatEmployeeUi():</text><rect fill="#F24D5C" height="6" style="stroke:#C82930;stroke-width:1.0;" width="6" x="15" y="114.6738"/><text fill="#000000" font-family="sans-serif" font-size="14" lengthAdjust="spacing" textLength="139" x="27" y="121.9707">requestName(): String</text><rect fill="#F24D5C" height="6" style="stroke:#C82930;stroke-width:1.0;" width="6" x="15" y="133.2949"/><text fill="#000000" font-family="sans-serif" font-size="14" lengthAdjust="spacing" textLength="250" x="27" y="140.5918">displayStoresOptions(List&lt;Store&gt;): void</text><rect fill="#F24D5C" height="6" style="stroke:#C82930;stroke-width:1.0;" width="6" x="15" y="151.916"/><text fill="#000000" font-family="sans-serif" font-size="14" lengthAdjust="spacing" textLength="122" x="27" y="159.2129">requestData(): void</text><rect fill="#F24D5C" height="6" style="stroke:#C82930;stroke-width:1.0;" width="6" x="15" y="170.5371"/><text fill="#000000" font-family="sans-serif" font-size="14" lengthAdjust="spacing" textLength="137" x="27" y="177.834">requestEmail(): String</text><rect fill="#F24D5C" height="6" style="stroke:#C82930;stroke-width:1.0;" width="6" x="15" y="189.1582"/><text fill="#000000" font-family="sans-serif" font-size="14" lengthAdjust="spacing" textLength="164" x="27" y="196.4551">requestPassword(): String</text><rect fill="#F24D5C" height="6" style="stroke:#C82930;stroke-width:1.0;" width="6" x="15" y="207.7793"/><text fill="#000000" font-family="sans-serif" font-size="14" lengthAdjust="spacing" textLength="173" x="27" y="215.0762">requestDescptions(): String</text><ellipse cx="18" cy="229.4004" fill="#84BE84" rx="3" ry="3" style="stroke:#038048;stroke-width:1.0;"/><text fill="#000000" font-family="sans-serif" font-size="14" lengthAdjust="spacing" textLength="65" x="27" y="233.6973">run(): void</text><rect fill="#F24D5C" height="6" style="stroke:#C82930;stroke-width:1.0;" width="6" x="15" y="245.0215"/><text fill="#000000" font-family="sans-serif" font-size="14" lengthAdjust="spacing" textLength="121" x="27" y="252.3184">requestSalary(): int</text><rect fill="#F24D5C" height="6" style="stroke:#C82930;stroke-width:1.0;" width="6" x="15" y="263.6426"/><text fill="#000000" font-family="sans-serif" font-size="14" lengthAdjust="spacing" textLength="144" x="27" y="270.9395">requestPhone(): String</text><rect fill="#F24D5C" height="6" style="stroke:#C82930;stroke-width:1.0;" width="6" x="15" y="282.2637"/><text fill="#000000" font-family="sans-serif" font-size="14" lengthAdjust="spacing" textLength="153" x="27" y="289.5605">requestTaxNumber(): int</text><rect fill="#F24D5C" height="6" style="stroke:#C82930;stroke-width:1.0;" width="6" x="15" y="300.8848"/><text fill="#000000" font-family="sans-serif" font-size="14" lengthAdjust="spacing" textLength="115" x="27" y="308.1816">submitData(): void</text><rect fill="#F24D5C" height="6" style="stroke:#C82930;stroke-width:1.0;" width="6" x="15" y="319.5059"/><text fill="#000000" font-family="sans-serif" font-size="14" lengthAdjust="spacing" textLength="155" x="27" y="326.8027">requestAddress(): String</text><rect fill="#F24D5C" height="6" style="stroke:#C82930;stroke-width:1.0;" width="6" x="15" y="338.127"/><text fill="#000000" font-family="sans-serif" font-size="14" lengthAdjust="spacing" textLength="201" x="27" y="345.4238">displayAndSelectStores(): Store</text></g><!--class CreatEmployeeController--><g id="elem_CreatEmployeeController"><rect codeLine="55" fill="#F1F1F1" height="178.3477" id="CreatEmployeeController" rx="2.5" ry="2.5" style="stroke:#181818;stroke-width:0.5;" width="723" x="318.5" y="91"/><ellipse cx="596.25" cy="107" fill="#ADD1B2" rx="11" ry="11" style="stroke:#181818;stroke-width:1.0;"/><path d="M599.0156,102.875 Q599.1719,102.6563 599.3594,102.5469 Q599.5469,102.4375 599.7656,102.4375 Q600.1406,102.4375 600.375,102.7031 Q600.6094,102.9531 600.6094,103.5625 L600.6094,105.0156 Q600.6094,105.625 600.375,105.8906 Q600.1406,106.1563 599.7656,106.1563 Q599.4219,106.1563 599.2188,105.9531 Q599.0156,105.7656 598.9063,105.25 Q598.8594,104.8906 598.6719,104.7031 Q598.3438,104.3281 597.7344,104.1094 Q597.125,103.8906 596.5,103.8906 Q595.7344,103.8906 595.0938,104.2188 Q594.4688,104.5469 593.9688,105.2969 Q593.4844,106.0469 593.4844,107.0781 L593.4844,108.1719 Q593.4844,109.4063 594.375,110.2344 Q595.2656,111.0469 596.8594,111.0469 Q597.7969,111.0469 598.4531,110.7969 Q598.8438,110.6406 599.2656,110.2031 Q599.5313,109.9375 599.6719,109.8594 Q599.8281,109.7813 600.0313,109.7813 Q600.3594,109.7813 600.6094,110.0469 Q600.875,110.2969 600.875,110.6406 Q600.875,110.9844 600.5313,111.3906 Q600.0313,111.9688 599.2344,112.2969 Q598.1563,112.75 596.8594,112.75 Q595.3438,112.75 594.1406,112.125 Q593.1563,111.625 592.4688,110.5625 Q591.7813,109.4844 591.7813,108.2031 L591.7813,107.0469 Q591.7813,105.7188 592.3906,104.5781 Q593.0156,103.4219 594.1094,102.8125 Q595.2031,102.1875 596.4375,102.1875 Q597.1719,102.1875 597.8125,102.3594 Q598.4688,102.5156 599.0156,102.875 Z " fill="#000000"/><text fill="#000000" font-family="sans-serif" font-size="14" lengthAdjust="spacing" textLength="159" x="616.75" y="112.7969">CreatEmployeeController</text><line style="stroke:#181818;stroke-width:0.5;" x1="319.5" x2="1040.5" y1="123" y2="123"/><rect fill="none" height="6" style="stroke:#C82930;stroke-width:1.0;" width="6" x="326.5" y="134.8105"/><text fill="#000000" font-family="sans-serif" font-size="14" lengthAdjust="spacing" textLength="210" x="338.5" y="142.1074">storeRepository: StoreRepository</text><rect fill="none" height="6" style="stroke:#C82930;stroke-width:1.0;" width="6" x="326.5" y="153.4316"/><text fill="#000000" font-family="sans-serif" font-size="14" lengthAdjust="spacing" textLength="323" x="338.5" y="160.7285">authenticationRepository: AuthenticationRepository</text><text fill="#000000" font-family="sans-serif" font-size="14" lengthAdjust="spacing" textLength="119" x="338.5" y="179.3496">stores: List&lt;Store&gt;</text><text fill="#000000" font-family="sans-serif" font-size="14" lengthAdjust="spacing" textLength="323" x="338.5" y="197.9707">authenticationRepository: AuthenticationRepository</text><text fill="#000000" font-family="sans-serif" font-size="14" lengthAdjust="spacing" textLength="210" x="338.5" y="216.5918">storeRepository: StoreRepository</text><line style="stroke:#181818;stroke-width:0.5;" x1="319.5" x2="1040.5" y1="224.1055" y2="224.1055"/><ellipse cx="329.5" cy="238.916" fill="#84BE84" rx="3" ry="3" style="stroke:#038048;stroke-width:1.0;"/><text fill="#000000" font-family="sans-serif" font-size="14" lengthAdjust="spacing" textLength="173" x="338.5" y="243.2129">CreatEmployeeController():</text><ellipse cx="329.5" cy="257.5371" fill="#84BE84" rx="3" ry="3" style="stroke:#038048;stroke-width:1.0;"/><text fill="#000000" font-family="sans-serif" font-size="14" lengthAdjust="spacing" textLength="697" x="338.5" y="261.834">createEmployee(String, String, int, String, String, String, String, Roles[], int, Store): Optional&lt;EmployeeProject&gt;</text></g><!--class User--><g id="elem_User"><rect codeLine="65" fill="#F1F1F1" height="383.1797" id="User" rx="2.5" ry="2.5" style="stroke:#181818;stroke-width:0.5;" width="398" x="1668" y="432"/><ellipse cx="1848.25" cy="448" fill="#ADD1B2" rx="11" ry="11" style="stroke:#181818;stroke-width:1.0;"/><path d="M1851.0156,443.875 Q1851.1719,443.6563 1851.3594,443.5469 Q1851.5469,443.4375 1851.7656,443.4375 Q1852.1406,443.4375 1852.375,443.7031 Q1852.6094,443.9531 1852.6094,444.5625 L1852.6094,446.0156 Q1852.6094,446.625 1852.375,446.8906 Q1852.1406,447.1563 1851.7656,447.1563 Q1851.4219,447.1563 1851.2188,446.9531 Q1851.0156,446.7656 1850.9063,446.25 Q1850.8594,445.8906 1850.6719,445.7031 Q1850.3438,445.3281 1849.7344,445.1094 Q1849.125,444.8906 1848.5,444.8906 Q1847.7344,444.8906 1847.0938,445.2188 Q1846.4688,445.5469 1845.9688,446.2969 Q1845.4844,447.0469 1845.4844,448.0781 L1845.4844,449.1719 Q1845.4844,450.4063 1846.375,451.2344 Q1847.2656,452.0469 1848.8594,452.0469 Q1849.7969,452.0469 1850.4531,451.7969 Q1850.8438,451.6406 1851.2656,451.2031 Q1851.5313,450.9375 1851.6719,450.8594 Q1851.8281,450.7813 1852.0313,450.7813 Q1852.3594,450.7813 1852.6094,451.0469 Q1852.875,451.2969 1852.875,451.6406 Q1852.875,451.9844 1852.5313,452.3906 Q1852.0313,452.9688 1851.2344,453.2969 Q1850.1563,453.75 1848.8594,453.75 Q1847.3438,453.75 1846.1406,453.125 Q1845.1563,452.625 1844.4688,451.5625 Q1843.7813,450.4844 1843.7813,449.2031 L1843.7813,448.0469 Q1843.7813,446.7188 1844.3906,445.5781 Q1845.0156,444.4219 1846.1094,443.8125 Q1847.2031,443.1875 1848.4375,443.1875 Q1849.1719,443.1875 1849.8125,443.3594 Q1850.4688,443.5156 1851.0156,443.875 Z " fill="#000000"/><text fill="#000000" font-family="sans-serif" font-size="14" lengthAdjust="spacing" textLength="29" x="1868.75" y="453.7969">User</text><line style="stroke:#181818;stroke-width:0.5;" x1="1669" x2="2065" y1="464" y2="464"/><rect fill="none" height="6" style="stroke:#C82930;stroke-width:1.0;" width="6" x="1676" y="475.8105"/><text fill="#000000" font-family="sans-serif" font-size="14" lengthAdjust="spacing" textLength="85" x="1688" y="483.1074">phone: String</text><rect fill="none" height="6" style="stroke:#C82930;stroke-width:1.0;" width="6" x="1676" y="494.4316"/><text fill="#000000" font-family="sans-serif" font-size="14" lengthAdjust="spacing" textLength="80" x="1688" y="501.7285">name: String</text><rect fill="none" height="6" style="stroke:#C82930;stroke-width:1.0;" width="6" x="1676" y="513.0527"/><text fill="#000000" font-family="sans-serif" font-size="14" lengthAdjust="spacing" textLength="78" x="1688" y="520.3496">email: String</text><rect fill="none" height="6" style="stroke:#C82930;stroke-width:1.0;" width="6" x="1676" y="531.6738"/><text fill="#000000" font-family="sans-serif" font-size="14" lengthAdjust="spacing" textLength="96" x="1688" y="538.9707">address: String</text><rect fill="none" height="6" style="stroke:#C82930;stroke-width:1.0;" width="6" x="1676" y="550.2949"/><text fill="#000000" font-family="sans-serif" font-size="14" lengthAdjust="spacing" textLength="90" x="1688" y="557.5918">taxNumber: int</text><rect fill="none" height="6" style="stroke:#C82930;stroke-width:1.0;" width="6" x="1676" y="568.916"/><text fill="#000000" font-family="sans-serif" font-size="14" lengthAdjust="spacing" textLength="113" x="1688" y="576.2129">descptions: String</text><rect fill="none" height="6" style="stroke:#C82930;stroke-width:1.0;" width="6" x="1676" y="587.5371"/><text fill="#000000" font-family="sans-serif" font-size="14" lengthAdjust="spacing" textLength="75" x="1688" y="594.834">roles: Roles</text><rect fill="none" height="6" style="stroke:#C82930;stroke-width:1.0;" width="6" x="1676" y="606.1582"/><text fill="#000000" font-family="sans-serif" font-size="14" lengthAdjust="spacing" textLength="105" x="1688" y="613.4551">password: String</text><text fill="#000000" font-family="sans-serif" font-size="14" lengthAdjust="spacing" textLength="80" x="1688" y="632.0762">name: String</text><text fill="#000000" font-family="sans-serif" font-size="14" lengthAdjust="spacing" textLength="105" x="1688" y="650.6973">password: String</text><text fill="#000000" font-family="sans-serif" font-size="14" lengthAdjust="spacing" textLength="113" x="1688" y="669.3184">descptions: String</text><text fill="#000000" font-family="sans-serif" font-size="14" lengthAdjust="spacing" textLength="78" x="1688" y="687.9395">email: String</text><text fill="#000000" font-family="sans-serif" font-size="14" lengthAdjust="spacing" textLength="85" x="1688" y="706.5605">phone: String</text><text fill="#000000" font-family="sans-serif" font-size="14" lengthAdjust="spacing" textLength="96" x="1688" y="725.1816">address: String</text><text fill="#000000" font-family="sans-serif" font-size="14" lengthAdjust="spacing" textLength="75" x="1688" y="743.8027">roles: Roles</text><text fill="#000000" font-family="sans-serif" font-size="14" lengthAdjust="spacing" textLength="90" x="1688" y="762.4238">taxNumber: int</text><line style="stroke:#181818;stroke-width:0.5;" x1="1669" x2="2065" y1="769.9375" y2="769.9375"/><ellipse cx="1679" cy="784.748" fill="#84BE84" rx="3" ry="3" style="stroke:#038048;stroke-width:1.0;"/><text fill="#000000" font-family="sans-serif" font-size="14" lengthAdjust="spacing" textLength="372" x="1688" y="789.0449">User(String, String, int, String, String, String, String, Roles):</text><ellipse cx="1679" cy="803.3691" fill="#84BE84" rx="3" ry="3" style="stroke:#038048;stroke-width:1.0;"/><text fill="#000000" font-family="sans-serif" font-size="14" lengthAdjust="spacing" textLength="104" x="1688" y="807.666">toString(): String</text></g><!--class Roles--><g id="elem_Roles"><rect codeLine="85" fill="#F1F1F1" height="116.4453" id="Roles" rx="2.5" ry="2.5" style="stroke:#181818;stroke-width:0.5;" width="166" x="1721" y="1037"/><ellipse cx="1760.3" cy="1059.291" fill="#EB937F" rx="11" ry="11" style="stroke:#181818;stroke-width:1.0;"/><path d="M1759.1594,1060.0879 L1759.1594,1062.5879 L1763.4875,1062.5879 L1763.4875,1061.666 Q1763.4875,1061.0566 1763.7219,1060.791 Q1763.9719,1060.5254 1764.3469,1060.5254 Q1764.7219,1060.5254 1764.9563,1060.791 Q1765.1906,1061.0566 1765.1906,1061.666 L1765.1906,1064.291 L1757.1906,1064.291 Q1756.5656,1064.291 1756.3,1064.0566 Q1756.05,1063.8223 1756.05,1063.4316 Q1756.05,1063.0566 1756.3156,1062.8223 Q1756.5813,1062.5879 1757.1906,1062.5879 L1757.4563,1062.5879 L1757.4563,1055.9316 L1757.1906,1055.9316 Q1756.5656,1055.9316 1756.3,1055.6973 Q1756.05,1055.4629 1756.05,1055.0723 Q1756.05,1054.6973 1756.3,1054.4629 Q1756.5656,1054.2285 1757.1906,1054.2285 L1764.8156,1054.2285 L1764.8156,1056.8223 Q1764.8156,1057.4316 1764.5813,1057.6973 Q1764.3625,1057.9473 1763.9719,1057.9473 Q1763.5969,1057.9473 1763.3625,1057.6973 Q1763.1281,1057.4316 1763.1281,1056.8223 L1763.1281,1055.9316 L1759.1594,1055.9316 L1759.1594,1058.3848 L1760.6438,1058.3848 Q1760.6438,1057.7285 1760.7688,1057.541 Q1761.0344,1057.1348 1761.5031,1057.1348 Q1761.8781,1057.1348 1762.1125,1057.4004 Q1762.3469,1057.6504 1762.3469,1058.2598 L1762.3469,1060.2285 Q1762.3469,1060.7754 1762.2219,1060.9629 Q1761.9563,1061.3535 1761.5031,1061.3535 Q1761.0344,1061.3535 1760.7688,1060.9473 Q1760.6438,1060.7598 1760.6438,1060.0879 L1759.1594,1060.0879 Z " fill="#000000"/><text fill="#000000" font-family="sans-serif" font-size="12" font-style="italic" lengthAdjust="spacing" textLength="84" x="1777.7" y="1054.9492">&#171;enumeration&#187;</text><text fill="#000000" font-family="sans-serif" font-size="14" lengthAdjust="spacing" textLength="36" x="1801.7" y="1073.0684">Roles</text><line style="stroke:#181818;stroke-width:0.5;" x1="1722" x2="1886" y1="1081.582" y2="1081.582"/><line style="stroke:#181818;stroke-width:0.5;" x1="1722" x2="1886" y1="1089.582" y2="1089.582"/><ellipse cx="1732" cy="1104.3926" fill="#84BE84" rx="3" ry="3" style="stroke:#038048;stroke-width:1.0;"/><text fill="#000000" font-family="sans-serif" font-size="14" lengthAdjust="spacing" textLength="50" x="1741" y="1108.6895">Roles():</text><ellipse cx="1732" cy="1123.0137" fill="#84BE84" rx="3" ry="3" style="stroke:#038048;stroke-width:1.0;"/><text fill="#000000" font-family="sans-serif" font-size="14" lengthAdjust="spacing" textLength="103" x="1741" y="1127.3105">values(): Roles[]</text><ellipse cx="1732" cy="1141.6348" fill="#84BE84" rx="3" ry="3" style="stroke:#038048;stroke-width:1.0;"/><text fill="#000000" font-family="sans-serif" font-size="14" lengthAdjust="spacing" textLength="140" x="1741" y="1145.9316">valueOf(String): Roles</text></g><!--class Employee--><g id="elem_Employee"><rect codeLine="92" fill="#F1F1F1" height="178.3477" id="Employee" rx="2.5" ry="2.5" style="stroke:#181818;stroke-width:0.5;" width="583" x="1331.5" y="1375"/><ellipse cx="1587.75" cy="1391" fill="#ADD1B2" rx="11" ry="11" style="stroke:#181818;stroke-width:1.0;"/><path d="M1590.5156,1386.875 Q1590.6719,1386.6563 1590.8594,1386.5469 Q1591.0469,1386.4375 1591.2656,1386.4375 Q1591.6406,1386.4375 1591.875,1386.7031 Q1592.1094,1386.9531 1592.1094,1387.5625 L1592.1094,1389.0156 Q1592.1094,1389.625 1591.875,1389.8906 Q1591.6406,1390.1563 1591.2656,1390.1563 Q1590.9219,1390.1563 1590.7188,1389.9531 Q1590.5156,1389.7656 1590.4063,1389.25 Q1590.3594,1388.8906 1590.1719,1388.7031 Q1589.8438,1388.3281 1589.2344,1388.1094 Q1588.625,1387.8906 1588,1387.8906 Q1587.2344,1387.8906 1586.5938,1388.2188 Q1585.9688,1388.5469 1585.4688,1389.2969 Q1584.9844,1390.0469 1584.9844,1391.0781 L1584.9844,1392.1719 Q1584.9844,1393.4063 1585.875,1394.2344 Q1586.7656,1395.0469 1588.3594,1395.0469 Q1589.2969,1395.0469 1589.9531,1394.7969 Q1590.3438,1394.6406 1590.7656,1394.2031 Q1591.0313,1393.9375 1591.1719,1393.8594 Q1591.3281,1393.7813 1591.5313,1393.7813 Q1591.8594,1393.7813 1592.1094,1394.0469 Q1592.375,1394.2969 1592.375,1394.6406 Q1592.375,1394.9844 1592.0313,1395.3906 Q1591.5313,1395.9688 1590.7344,1396.2969 Q1589.6563,1396.75 1588.3594,1396.75 Q1586.8438,1396.75 1585.6406,1396.125 Q1584.6563,1395.625 1583.9688,1394.5625 Q1583.2813,1393.4844 1583.2813,1392.2031 L1583.2813,1391.0469 Q1583.2813,1389.7188 1583.8906,1388.5781 Q1584.5156,1387.4219 1585.6094,1386.8125 Q1586.7031,1386.1875 1587.9375,1386.1875 Q1588.6719,1386.1875 1589.3125,1386.3594 Q1589.9688,1386.5156 1590.5156,1386.875 Z " fill="#000000"/><text fill="#000000" font-family="sans-serif" font-size="14" lengthAdjust="spacing" textLength="62" x="1608.25" y="1396.7969">Employee</text><line style="stroke:#181818;stroke-width:0.5;" x1="1332.5" x2="1913.5" y1="1407" y2="1407"/><rect fill="none" height="6" style="stroke:#C82930;stroke-width:1.0;" width="6" x="1339.5" y="1418.8105"/><text fill="#000000" font-family="sans-serif" font-size="14" lengthAdjust="spacing" textLength="61" x="1351.5" y="1426.1074">salary: int</text><text fill="#000000" font-family="sans-serif" font-size="14" lengthAdjust="spacing" textLength="61" x="1351.5" y="1444.7285">salary: int</text><line style="stroke:#181818;stroke-width:0.5;" x1="1332.5" x2="1913.5" y1="1452.2422" y2="1452.2422"/><ellipse cx="1342.5" cy="1467.0527" fill="#84BE84" rx="3" ry="3" style="stroke:#038048;stroke-width:1.0;"/><text fill="#000000" font-family="sans-serif" font-size="14" lengthAdjust="spacing" textLength="522" x="1351.5" y="1471.3496">EmployeeProject(String, String, int, String, String, String, String, Roles[], int, Store):</text><rect fill="#F24D5C" height="6" style="stroke:#C82930;stroke-width:1.0;" width="6" x="1339.5" y="1482.6738"/><text fill="#000000" font-family="sans-serif" font-size="14" lengthAdjust="spacing" textLength="180" x="1351.5" y="1489.9707">validateTaxNumber(int): void</text><rect fill="#F24D5C" height="6" style="stroke:#C82930;stroke-width:1.0;" width="6" x="1339.5" y="1501.2949"/><text fill="#000000" font-family="sans-serif" font-size="14" lengthAdjust="spacing" textLength="161" x="1351.5" y="1508.5918">validateStore(Store): void</text><rect fill="#F24D5C" height="6" style="stroke:#C82930;stroke-width:1.0;" width="6" x="1339.5" y="1519.916"/><text fill="#000000" font-family="sans-serif" font-size="14" lengthAdjust="spacing" textLength="557" x="1351.5" y="1527.2129">validateEmployee(String, String, int, String, String, String, String, Roles[], int, Store): void</text><rect fill="#F24D5C" height="6" style="stroke:#C82930;stroke-width:1.0;" width="6" x="1339.5" y="1538.5371"/><text fill="#000000" font-family="sans-serif" font-size="14" lengthAdjust="spacing" textLength="148" x="1351.5" y="1545.834">validateSalary(int): void</text></g><!--class Administrator--><g id="elem_Administrator"><rect codeLine="102" fill="#F1F1F1" height="103.8633" id="Administrator" rx="2.5" ry="2.5" style="stroke:#181818;stroke-width:0.5;" width="126" x="1560" y="1043"/><ellipse cx="1579.95" cy="1059" fill="#ADD1B2" rx="11" ry="11" style="stroke:#181818;stroke-width:1.0;"/><path d="M1582.7156,1054.875 Q1582.8719,1054.6563 1583.0594,1054.5469 Q1583.2469,1054.4375 1583.4656,1054.4375 Q1583.8406,1054.4375 1584.075,1054.7031 Q1584.3094,1054.9531 1584.3094,1055.5625 L1584.3094,1057.0156 Q1584.3094,1057.625 1584.075,1057.8906 Q1583.8406,1058.1563 1583.4656,1058.1563 Q1583.1219,1058.1563 1582.9188,1057.9531 Q1582.7156,1057.7656 1582.6063,1057.25 Q1582.5594,1056.8906 1582.3719,1056.7031 Q1582.0438,1056.3281 1581.4344,1056.1094 Q1580.825,1055.8906 1580.2,1055.8906 Q1579.4344,1055.8906 1578.7938,1056.2188 Q1578.1688,1056.5469 1577.6688,1057.2969 Q1577.1844,1058.0469 1577.1844,1059.0781 L1577.1844,1060.1719 Q1577.1844,1061.4063 1578.075,1062.2344 Q1578.9656,1063.0469 1580.5594,1063.0469 Q1581.4969,1063.0469 1582.1531,1062.7969 Q1582.5438,1062.6406 1582.9656,1062.2031 Q1583.2313,1061.9375 1583.3719,1061.8594 Q1583.5281,1061.7813 1583.7313,1061.7813 Q1584.0594,1061.7813 1584.3094,1062.0469 Q1584.575,1062.2969 1584.575,1062.6406 Q1584.575,1062.9844 1584.2313,1063.3906 Q1583.7313,1063.9688 1582.9344,1064.2969 Q1581.8563,1064.75 1580.5594,1064.75 Q1579.0438,1064.75 1577.8406,1064.125 Q1576.8563,1063.625 1576.1688,1062.5625 Q1575.4813,1061.4844 1575.4813,1060.2031 L1575.4813,1059.0469 Q1575.4813,1057.7188 1576.0906,1056.5781 Q1576.7156,1055.4219 1577.8094,1054.8125 Q1578.9031,1054.1875 1580.1375,1054.1875 Q1580.8719,1054.1875 1581.5125,1054.3594 Q1582.1688,1054.5156 1582.7156,1054.875 Z " fill="#000000"/><text fill="#000000" font-family="sans-serif" font-size="14" lengthAdjust="spacing" textLength="83" x="1595.05" y="1064.7969">Administrator</text><line style="stroke:#181818;stroke-width:0.5;" x1="1561" x2="1685" y1="1075" y2="1075"/><rect fill="none" height="6" style="stroke:#C82930;stroke-width:1.0;" width="6" x="1568" y="1086.8105"/><text fill="#000000" font-family="sans-serif" font-size="14" lengthAdjust="spacing" textLength="100" x="1580" y="1094.1074">instance: Admin</text><text fill="#000000" font-family="sans-serif" font-size="14" lengthAdjust="spacing" textLength="100" x="1580" y="1112.7285">instance: Admin</text><line style="stroke:#181818;stroke-width:0.5;" x1="1561" x2="1685" y1="1120.2422" y2="1120.2422"/><rect fill="#F24D5C" height="6" style="stroke:#C82930;stroke-width:1.0;" width="6" x="1568" y="1132.0527"/><text fill="#000000" font-family="sans-serif" font-size="14" lengthAdjust="spacing" textLength="53" x="1580" y="1139.3496">Admin():</text></g><!--class Store--><g id="elem_Store"><rect codeLine="107" fill="#F1F1F1" height="401.8008" id="Store" rx="2.5" ry="2.5" style="stroke:#181818;stroke-width:0.5;" width="384" x="1079" y="894"/><ellipse cx="1249.75" cy="910" fill="#ADD1B2" rx="11" ry="11" style="stroke:#181818;stroke-width:1.0;"/><path d="M1252.5156,905.875 Q1252.6719,905.6563 1252.8594,905.5469 Q1253.0469,905.4375 1253.2656,905.4375 Q1253.6406,905.4375 1253.875,905.7031 Q1254.1094,905.9531 1254.1094,906.5625 L1254.1094,908.0156 Q1254.1094,908.625 1253.875,908.8906 Q1253.6406,909.1563 1253.2656,909.1563 Q1252.9219,909.1563 1252.7188,908.9531 Q1252.5156,908.7656 1252.4063,908.25 Q1252.3594,907.8906 1252.1719,907.7031 Q1251.8438,907.3281 1251.2344,907.1094 Q1250.625,906.8906 1250,906.8906 Q1249.2344,906.8906 1248.5938,907.2188 Q1247.9688,907.5469 1247.4688,908.2969 Q1246.9844,909.0469 1246.9844,910.0781 L1246.9844,911.1719 Q1246.9844,912.4063 1247.875,913.2344 Q1248.7656,914.0469 1250.3594,914.0469 Q1251.2969,914.0469 1251.9531,913.7969 Q1252.3438,913.6406 1252.7656,913.2031 Q1253.0313,912.9375 1253.1719,912.8594 Q1253.3281,912.7813 1253.5313,912.7813 Q1253.8594,912.7813 1254.1094,913.0469 Q1254.375,913.2969 1254.375,913.6406 Q1254.375,913.9844 1254.0313,914.3906 Q1253.5313,914.9688 1252.7344,915.2969 Q1251.6563,915.75 1250.3594,915.75 Q1248.8438,915.75 1247.6406,915.125 Q1246.6563,914.625 1245.9688,913.5625 Q1245.2813,912.4844 1245.2813,911.2031 L1245.2813,910.0469 Q1245.2813,908.7188 1245.8906,907.5781 Q1246.5156,906.4219 1247.6094,905.8125 Q1248.7031,905.1875 1249.9375,905.1875 Q1250.6719,905.1875 1251.3125,905.3594 Q1251.9688,905.5156 1252.5156,905.875 Z " fill="#000000"/><text fill="#000000" font-family="sans-serif" font-size="14" lengthAdjust="spacing" textLength="34" x="1270.25" y="915.7969">Store</text><line style="stroke:#181818;stroke-width:0.5;" x1="1080" x2="1462" y1="926" y2="926"/><rect fill="none" height="6" style="stroke:#C82930;stroke-width:1.0;" width="6" x="1087" y="937.8105"/><text fill="#000000" font-family="sans-serif" font-size="14" lengthAdjust="spacing" textLength="80" x="1099" y="945.1074">name: String</text><rect fill="none" height="6" style="stroke:#C82930;stroke-width:1.0;" width="6" x="1087" y="956.4316"/><text fill="#000000" font-family="sans-serif" font-size="14" lengthAdjust="spacing" textLength="85" x="1099" y="963.7285">phone: String</text><rect fill="none" height="6" style="stroke:#C82930;stroke-width:1.0;" width="6" x="1087" y="975.0527"/><text fill="#000000" font-family="sans-serif" font-size="14" lengthAdjust="spacing" textLength="113" x="1099" y="982.3496">vatNumber: String</text><rect fill="none" height="6" style="stroke:#C82930;stroke-width:1.0;" width="6" x="1087" y="993.6738"/><text fill="#000000" font-family="sans-serif" font-size="14" lengthAdjust="spacing" textLength="116" x="1099" y="1000.9707">branchNumber: int</text><rect fill="none" height="6" style="stroke:#C82930;stroke-width:1.0;" width="6" x="1087" y="1012.2949"/><text fill="#000000" font-family="sans-serif" font-size="14" lengthAdjust="spacing" textLength="199" x="1099" y="1019.5918">localManager: EmployeeProject</text><rect fill="none" height="6" style="stroke:#C82930;stroke-width:1.0;" width="6" x="1087" y="1030.916"/><text fill="#000000" font-family="sans-serif" font-size="14" lengthAdjust="spacing" textLength="96" x="1099" y="1038.2129">address: String</text><rect fill="none" height="6" style="stroke:#C82930;stroke-width:1.0;" width="6" x="1087" y="1049.5371"/><text fill="#000000" font-family="sans-serif" font-size="14" lengthAdjust="spacing" textLength="78" x="1099" y="1056.834">email: String</text><rect fill="none" height="6" style="stroke:#C82930;stroke-width:1.0;" width="6" x="1087" y="1068.1582"/><text fill="#000000" font-family="sans-serif" font-size="14" lengthAdjust="spacing" textLength="220" x="1099" y="1075.4551">employees: List&lt;EmployeeProject&gt;</text><text fill="#000000" font-family="sans-serif" font-size="14" lengthAdjust="spacing" textLength="80" x="1099" y="1094.0762">name: String</text><text fill="#000000" font-family="sans-serif" font-size="14" lengthAdjust="spacing" textLength="220" x="1099" y="1112.6973">employees: List&lt;EmployeeProject&gt;</text><text fill="#000000" font-family="sans-serif" font-size="14" lengthAdjust="spacing" textLength="199" x="1099" y="1131.3184">localManager: EmployeeProject</text><text fill="#000000" font-family="sans-serif" font-size="14" lengthAdjust="spacing" textLength="116" x="1099" y="1149.9395">branchNumber: int</text><text fill="#000000" font-family="sans-serif" font-size="14" lengthAdjust="spacing" textLength="78" x="1099" y="1168.5605">email: String</text><text fill="#000000" font-family="sans-serif" font-size="14" lengthAdjust="spacing" textLength="85" x="1099" y="1187.1816">phone: String</text><text fill="#000000" font-family="sans-serif" font-size="14" lengthAdjust="spacing" textLength="113" x="1099" y="1205.8027">vatNumber: String</text><text fill="#000000" font-family="sans-serif" font-size="14" lengthAdjust="spacing" textLength="96" x="1099" y="1224.4238">address: String</text><line style="stroke:#181818;stroke-width:0.5;" x1="1080" x2="1462" y1="1231.9375" y2="1231.9375"/><ellipse cx="1090" cy="1246.748" fill="#84BE84" rx="3" ry="3" style="stroke:#038048;stroke-width:1.0;"/><text fill="#000000" font-family="sans-serif" font-size="14" lengthAdjust="spacing" textLength="288" x="1099" y="1251.0449">Store(String, String, String, String, String, int):</text><ellipse cx="1090" cy="1265.3691" fill="#84BE84" rx="3" ry="3" style="stroke:#038048;stroke-width:1.0;"/><text fill="#000000" font-family="sans-serif" font-size="14" lengthAdjust="spacing" textLength="358" x="1099" y="1269.666">validate(String, String, String, String, String, int): boolean</text><ellipse cx="1090" cy="1283.9902" fill="#84BE84" rx="3" ry="3" style="stroke:#038048;stroke-width:1.0;"/><text fill="#000000" font-family="sans-serif" font-size="14" lengthAdjust="spacing" textLength="104" x="1099" y="1288.2871">toString(): String</text></g><!--reverse link User to Employee--><g id="link_User_Employee"><path d="M1896.72,835.25 C1901.54,869.49 1905,894 1905,894 C1905,894 1905,1296 1905,1296 C1905,1296 1839.64,1334.71 1771.85,1374.85 " fill="none" id="User-backto-Employee" style="stroke:#181818;stroke-width:1.0;"/><polygon fill="none" points="1889.77,836.11,1893.91,815.32,1903.63,834.15,1889.77,836.11" style="stroke:#181818;stroke-width:1.0;"/></g><!--reverse link User to Administrator--><g id="link_User_Administrator"><path d="M1740.98,832.86 C1719.52,868.34 1704,894 1704,894 C1704,894 1667.75,983.5 1643.75,1042.75 " fill="none" id="User-backto-Administrator" style="stroke:#181818;stroke-width:1.0;"/><polygon fill="none" points="1735.24,828.82,1751.58,815.32,1747.22,836.06,1735.24,828.82" style="stroke:#181818;stroke-width:1.0;"/></g><!--link Store to Employee--><g id="link_Store_Employee"><path codeLine="129" d="M1462.96,1296.15 C1489.35,1323.65 1515.25,1350.66 1538.27,1374.66 " fill="none" id="Store-Employee" style="stroke:#181818;stroke-width:1.0;"/><polygon fill="#000000" points="1517.4612,1339.2538,1513.3207,1330.6919,1509.0789,1334.7608,1517.4612,1339.2538" style="stroke:#000000;stroke-width:1.0;"/><text fill="#000000" font-family="sans-serif" font-size="13" lengthAdjust="spacing" textLength="21" x="1523" y="1341.0283">has</text><text fill="#000000" font-family="sans-serif" font-size="13" lengthAdjust="spacing" textLength="7" x="1462.7328" y="1317.7214">1</text><text fill="#000000" font-family="sans-serif" font-size="13" lengthAdjust="spacing" textLength="20" x="1510.7212" y="1363.8894">0..*</text></g><!--link User to Roles--><g id="link_User_Roles"><path codeLine="130" d="M1841.42,815.13 C1830.72,894.89 1819.07,981.71 1811.66,1036.93 " fill="none" id="User-Roles" style="stroke:#181818;stroke-width:1.0;"/><polygon fill="#000000" points="1841.3351,859.6011,1845.4508,851.0272,1839.6251,850.2455,1841.3351,859.6011" style="stroke:#000000;stroke-width:1.0;"/><text fill="#000000" font-family="sans-serif" font-size="13" lengthAdjust="spacing" textLength="21" x="1851" y="860.0283">has</text><text fill="#000000" font-family="sans-serif" font-size="13" lengthAdjust="spacing" textLength="7" x="1833.2841" y="836.9781">1</text><text fill="#000000" font-family="sans-serif" font-size="13" lengthAdjust="spacing" textLength="20" x="1791.3748" y="1025.8357">1..*</text></g><!--link CreatEmployeeController to Repositories--><g id="link_CreatEmployeeController_Repositories"><path codeLine="131" d="M1041.62,180 C1075.46,180 1108.72,180 1139.87,180 " fill="none" id="CreatEmployeeController-to-Repositories" style="stroke:#181818;stroke-width:1.0;stroke-dasharray:7.0,7.0;"/><polygon fill="#181818" points="1145.25,180,1136.25,176,1140.25,180,1136.25,184,1145.25,180" style="stroke:#181818;stroke-width:1.0;"/><text fill="#000000" font-family="sans-serif" font-size="13" lengthAdjust="spacing" textLength="67" x="1060" y="173.0283">repositories</text></g><!--link CreatEmployeeUi to CreatEmployeeController--><g id="link_CreatEmployeeUi_CreatEmployeeController"><path codeLine="132" d="M283.31,180 C295.52,180 305.94,180 313.08,180 " fill="none" id="CreatEmployeeUi-to-CreatEmployeeController" style="stroke:#181818;stroke-width:1.0;stroke-dasharray:7.0,7.0;"/><polygon fill="#181818" points="318.28,180,309.28,176,313.28,180,309.28,184,318.28,180" style="stroke:#181818;stroke-width:1.0;"/></g><!--link Administrator to Employee--><g id="link_Administrator_Employee"><path codeLine="133" d="M1623,1147.03 C1623,1204.44 1623,1298.9 1623,1369.61 " fill="none" id="Administrator-to-Employee" style="stroke:#181818;stroke-width:1.0;"/><polygon fill="#181818" points="1623,1374.66,1627,1365.66,1623,1369.66,1619,1365.66,1623,1374.66" style="stroke:#181818;stroke-width:1.0;"/><text fill="#000000" font-family="sans-serif" font-size="13" lengthAdjust="spacing" textLength="59" x="1624" y="1341.0283">createdBy</text></g><!--link CreatEmployeeController to Store--><g id="link_CreatEmployeeController_Store"><path codeLine="134" d="M704.89,269.15 C754.07,443.36 859,815 859,815 C859,815 968.41,889.09 1074.46,960.91 " fill="none" id="CreatEmployeeController-to-Store" style="stroke:#181818;stroke-width:1.0;stroke-dasharray:7.0,7.0;"/><polygon fill="#181818" points="1078.87,963.89,1073.6532,955.5363,1074.7274,961.0902,1069.1735,962.1644,1078.87,963.89" style="stroke:#181818;stroke-width:1.0;"/><text fill="#000000" font-family="sans-serif" font-size="13" lengthAdjust="spacing" textLength="31" x="860" y="629.0283">Store</text><text fill="#000000" font-family="sans-serif" font-size="13" lengthAdjust="spacing" textLength="7" x="1064.2282" y="955.4744">1</text></g><!--link Repositories to StoreRepository--><g id="link_Repositories_StoreRepository"><path codeLine="135" d="M1307.36,325.26 C1300.01,385.33 1291.61,454.02 1284.73,510.23 " fill="none" id="Repositories-to-StoreRepository" style="stroke:#181818;stroke-width:1.0;"/><polygon fill="#181818" points="1284.11,515.29,1289.1596,506.8341,1284.7091,510.326,1281.2172,505.8756,1284.11,515.29" style="stroke:#181818;stroke-width:1.0;"/><polygon fill="#000000" points="1303.3928,397.6085,1307.4084,388.9873,1301.5741,388.2735,1303.3928,397.6085" style="stroke:#000000;stroke-width:1.0;"/><text fill="#000000" font-family="sans-serif" font-size="13" lengthAdjust="spacing" textLength="21" x="1313" y="398.0283">has</text><text fill="#000000" font-family="sans-serif" font-size="13" lengthAdjust="spacing" textLength="7" x="1299.27" y="347.2222">1</text><text fill="#000000" font-family="sans-serif" font-size="13" lengthAdjust="spacing" textLength="5" x="1279.856" y="504.1368">*</text></g><!--link StoreRepository to Store--><g id="link_StoreRepository_Store"><path codeLine="136" d="M1271,731.62 C1271,778.16 1271,834.31 1271,888.37 " fill="none" id="StoreRepository-to-Store" style="stroke:#181818;stroke-width:1.0;"/><polygon fill="#181818" points="1271,893.6,1275,884.6,1271,888.6,1267,884.6,1271,893.6" style="stroke:#181818;stroke-width:1.0;"/><polygon fill="#000000" points="1276,859.6455,1278.9389,850.6004,1273.0611,850.6004,1276,859.6455" style="stroke:#000000;stroke-width:1.0;"/><text fill="#000000" font-family="sans-serif" font-size="13" lengthAdjust="spacing" textLength="21" x="1285" y="860.0283">has</text><text fill="#000000" font-family="sans-serif" font-size="13" lengthAdjust="spacing" textLength="7" x="1263.7758" y="753.1417">1</text><text fill="#000000" font-family="sans-serif" font-size="13" lengthAdjust="spacing" textLength="5" x="1265.9023" y="882.4387">*</text></g><!--SRC=[nLVDRzCm5B_dhx1wMKUN2JX6KwKoE231c2Wx8GvkyhOQ73lOpg2WyRVZZxYn4qVh1eXBcxpVU_Rx-ZqxH_8BOGqMk4OrPxpS2bu3KgA5h4SQN7x1Dx1MEmf8GAamkw6XWjpYYdyZx0PTOof3X186QjS0QZZTcPViA05oeNWMM9KKIxbIIf1Dg-1roTcQ_00qUpxBZYXSAwGu4kHcgr15Z3-4iypQeFVGS4aK5mGa-faXb4UY-N6XPRzG8tW3GktssAv0boEPLSMjsW9JfCHccz1WDO5Oiv8IZONgvmE9TOumgRDPGX6vwJPcZBSQgWVhh99oQoBr4uIwwrYWbHw-xE79cexci7GyBjVtHtsNTTqn06o3B8PItoDsMLcWDqIgCwkpjEgugkpRtFuU5-YMayeMynPJKc45INY1IW4QV5KtbE_0u48pvWJvVy9K_pBr_vvJa1y_xRNT5kyQanLCp_pYkZoVDI-MrYtji9T_u85l9sYW7ZexDhfiDvIK1vXIdJ0F6yQv32PSIwPuNwnpaovlTKMwOWsahbWvqYD22KufY29METy3La_0rnQaki0r6CzSMYrI4TbGlBDUI9TGEGyS2mlThV8IApnFo5_LcD31yXrqgIFxnaMLHb-2BBkTGto1HCjI6wqnnRPXJJj4ssmvW_GU7_3tYxRUW0ZDPBkfoMGygwhIEP7fXArOjGQgA-eovvJqasNz0LMvIvMxnrDbxr5V_WC6N_wuwVA_Q3inVlxvYBoI-voRnpy8jojDOrenQXocoHS9mF0bac3NSP5C-SRjsxRQyoNkTBDzuRnmFdIiYpYbk7k9sdheNCeqlUqeYb7aYQY6hWw3lCk0jRM3qTaPCcyWR87HSjdLoQAE2Gjp1hMEXLtFzT9trrqrFMYgtfNTTo22xmfOvVh0BJzephz801Em8Q-TOhwguK7QpogDzOFfthCsLFWNn4tvuKRnmCyejZt7LbLDcAQrBYGNeupd3lUZhRzJMN5ypNAYk_1w4rvgvlU55-IYssv4pZ5_Rx7oFHf8DqAxj1qobF8IqxUOwSy7BHsqqYJLnmC1_7rY-ZQnsDVYOM6Z3TT5nkm1G-40R-wDF9cm0uP8AlkZ9EfMSyqmUpP3UOvcJqzFdynwbXTeYoLQPdRQQvqydpsp6cxIU7ZgJ3vTnXzQXRuf1FVzuSrDgq-T_Z4LydmP-kXEtkh5RjeHlRG9qGNhRnwHRou3Mkt9R7J_zt4EvICRh_aR]--></g></svg>
