<?xml version="1.0" encoding="us-ascii" standalone="no"?><svg xmlns="http://www.w3.org/2000/svg" xmlns:xlink="http://www.w3.org/1999/xlink" contentStyleType="text/css" height="420px" preserveAspectRatio="none" style="width:943px;height:420px;background:#FFFFFF;" version="1.1" viewBox="0 0 943 420" width="943px" zoomAndPan="magnify"><defs/><g><!--class Proprietary--><g id="elem_Proprietary"><rect codeLine="4" fill="#F1F1F1" height="157.4844" id="Proprietary" rx="2.5" ry="2.5" style="stroke:#181818;stroke-width:0.5;" width="111" x="308.5" y="256"/><ellipse cx="327.55" cy="272" fill="#A9DCDF" rx="11" ry="11" style="stroke:#181818;stroke-width:1.0;"/><path d="M329.7375,273.7656 L325.5969,273.7656 L325.175,274.7969 L325.5969,274.7969 Q326.2063,274.7969 326.4719,275.0313 Q326.7375,275.2656 326.7375,275.6563 Q326.7375,276.0313 326.4719,276.2656 Q326.2063,276.5 325.5969,276.5 L323.3,276.5 Q322.6906,276.5 322.4406,276.2656 Q322.175,276.0313 322.175,275.6406 Q322.175,275.2656 322.4563,275.0313 Q322.7219,274.7813 323.3469,274.7969 L326.0188,268.1406 L324.9094,268.1406 Q324.3,268.1406 324.0344,267.9063 Q323.7688,267.6719 323.7688,267.2813 Q323.7688,266.9063 324.0344,266.6719 Q324.3,266.4375 324.9094,266.4375 L328.5813,266.4375 L331.9719,274.7969 Q332.5656,274.7969 332.7531,274.9375 Q333.1438,275.2031 333.1438,275.6563 Q333.1438,276.0313 332.8781,276.2656 Q332.6281,276.5 332.0188,276.5 L329.7219,276.5 Q329.1125,276.5 328.8469,276.2656 Q328.5813,276.0313 328.5813,275.6406 Q328.5813,275.2656 328.8469,275.0313 Q329.1125,274.7969 329.7219,274.7969 L330.1438,274.7969 L329.7375,273.7656 Z M329.0188,272.0625 L327.6594,268.6875 L326.2844,272.0625 L329.0188,272.0625 Z " fill="#000000"/><text fill="#000000" font-family="sans-serif" font-size="14" font-style="italic" lengthAdjust="spacing" textLength="70" x="342.45" y="276.8535">Proprietary</text><line style="stroke:#181818;stroke-width:0.5;" x1="309.5" x2="418.5" y1="288" y2="288"/><text fill="#000000" font-family="sans-serif" font-size="14" lengthAdjust="spacing" textLength="35" x="314.5" y="304.6738">name</text><text fill="#000000" font-family="sans-serif" font-size="14" lengthAdjust="spacing" textLength="28" x="314.5" y="320.3145">Tipo</text><text fill="#000000" font-family="sans-serif" font-size="14" lengthAdjust="spacing" textLength="51" x="314.5" y="335.9551">address</text><text fill="#000000" font-family="sans-serif" font-size="14" lengthAdjust="spacing" textLength="76" x="314.5" y="351.5957">descriptions</text><text fill="#000000" font-family="sans-serif" font-size="14" lengthAdjust="spacing" textLength="26" x="314.5" y="367.2363">cost</text><text fill="#000000" font-family="sans-serif" font-size="14" lengthAdjust="spacing" textLength="99" x="314.5" y="382.877">vender:boolean</text><text fill="#000000" font-family="sans-serif" font-size="14" lengthAdjust="spacing" textLength="97" x="314.5" y="398.5176">render:boolean</text><line style="stroke:#181818;stroke-width:0.5;" x1="309.5" x2="418.5" y1="405.4844" y2="405.4844"/></g><!--class Land--><g id="elem_Land"><rect codeLine="13" fill="#F1F1F1" height="48" id="Land" rx="2.5" ry="2.5" style="stroke:#181818;stroke-width:0.5;" width="64" x="7" y="69.5"/><ellipse cx="22" cy="85.5" fill="#ADD1B2" rx="11" ry="11" style="stroke:#181818;stroke-width:1.0;"/><path d="M24.7656,81.375 Q24.9219,81.1563 25.1094,81.0469 Q25.2969,80.9375 25.5156,80.9375 Q25.8906,80.9375 26.125,81.2031 Q26.3594,81.4531 26.3594,82.0625 L26.3594,83.5156 Q26.3594,84.125 26.125,84.3906 Q25.8906,84.6563 25.5156,84.6563 Q25.1719,84.6563 24.9688,84.4531 Q24.7656,84.2656 24.6563,83.75 Q24.6094,83.3906 24.4219,83.2031 Q24.0938,82.8281 23.4844,82.6094 Q22.875,82.3906 22.25,82.3906 Q21.4844,82.3906 20.8438,82.7188 Q20.2188,83.0469 19.7188,83.7969 Q19.2344,84.5469 19.2344,85.5781 L19.2344,86.6719 Q19.2344,87.9063 20.125,88.7344 Q21.0156,89.5469 22.6094,89.5469 Q23.5469,89.5469 24.2031,89.2969 Q24.5938,89.1406 25.0156,88.7031 Q25.2813,88.4375 25.4219,88.3594 Q25.5781,88.2813 25.7813,88.2813 Q26.1094,88.2813 26.3594,88.5469 Q26.625,88.7969 26.625,89.1406 Q26.625,89.4844 26.2813,89.8906 Q25.7813,90.4688 24.9844,90.7969 Q23.9063,91.25 22.6094,91.25 Q21.0938,91.25 19.8906,90.625 Q18.9063,90.125 18.2188,89.0625 Q17.5313,87.9844 17.5313,86.7031 L17.5313,85.5469 Q17.5313,84.2188 18.1406,83.0781 Q18.7656,81.9219 19.8594,81.3125 Q20.9531,80.6875 22.1875,80.6875 Q22.9219,80.6875 23.5625,80.8594 Q24.2188,81.0156 24.7656,81.375 Z " fill="#000000"/><text fill="#000000" font-family="sans-serif" font-size="14" lengthAdjust="spacing" textLength="32" x="36" y="90.3535">Land</text><line style="stroke:#181818;stroke-width:0.5;" x1="8" x2="70" y1="101.5" y2="101.5"/><line style="stroke:#181818;stroke-width:0.5;" x1="8" x2="70" y1="109.5" y2="109.5"/></g><!--class Apartment--><g id="elem_Apartment"><rect codeLine="16" fill="#F1F1F1" height="126.2031" id="Apartment" rx="2.5" ry="2.5" style="stroke:#181818;stroke-width:0.5;" width="143" x="106.5" y="30.5"/><ellipse cx="142.2" cy="46.5" fill="#ADD1B2" rx="11" ry="11" style="stroke:#181818;stroke-width:1.0;"/><path d="M144.9656,42.375 Q145.1219,42.1563 145.3094,42.0469 Q145.4969,41.9375 145.7156,41.9375 Q146.0906,41.9375 146.325,42.2031 Q146.5594,42.4531 146.5594,43.0625 L146.5594,44.5156 Q146.5594,45.125 146.325,45.3906 Q146.0906,45.6563 145.7156,45.6563 Q145.3719,45.6563 145.1688,45.4531 Q144.9656,45.2656 144.8563,44.75 Q144.8094,44.3906 144.6219,44.2031 Q144.2938,43.8281 143.6844,43.6094 Q143.075,43.3906 142.45,43.3906 Q141.6844,43.3906 141.0438,43.7188 Q140.4188,44.0469 139.9188,44.7969 Q139.4344,45.5469 139.4344,46.5781 L139.4344,47.6719 Q139.4344,48.9063 140.325,49.7344 Q141.2156,50.5469 142.8094,50.5469 Q143.7469,50.5469 144.4031,50.2969 Q144.7938,50.1406 145.2156,49.7031 Q145.4813,49.4375 145.6219,49.3594 Q145.7781,49.2813 145.9813,49.2813 Q146.3094,49.2813 146.5594,49.5469 Q146.825,49.7969 146.825,50.1406 Q146.825,50.4844 146.4813,50.8906 Q145.9813,51.4688 145.1844,51.7969 Q144.1063,52.25 142.8094,52.25 Q141.2938,52.25 140.0906,51.625 Q139.1063,51.125 138.4188,50.0625 Q137.7313,48.9844 137.7313,47.7031 L137.7313,46.5469 Q137.7313,45.2188 138.3406,44.0781 Q138.9656,42.9219 140.0594,42.3125 Q141.1531,41.6875 142.3875,41.6875 Q143.1219,41.6875 143.7625,41.8594 Q144.4188,42.0156 144.9656,42.375 Z " fill="#000000"/><text fill="#000000" font-family="sans-serif" font-size="14" lengthAdjust="spacing" textLength="65" x="160.8" y="51.3535">Apartment</text><line style="stroke:#181818;stroke-width:0.5;" x1="107.5" x2="248.5" y1="62.5" y2="62.5"/><text fill="#000000" font-family="sans-serif" font-size="14" lengthAdjust="spacing" textLength="107" x="112.5" y="79.1738">numberOfRooms</text><text fill="#000000" font-family="sans-serif" font-size="14" lengthAdjust="spacing" textLength="131" x="112.5" y="94.8145">numberOfBathrooms</text><text fill="#000000" font-family="sans-serif" font-size="14" lengthAdjust="spacing" textLength="103" x="112.5" y="110.4551">numberOfFloors</text><text fill="#000000" font-family="sans-serif" font-size="14" lengthAdjust="spacing" textLength="118" x="112.5" y="126.0957">numberOfGarages</text><text fill="#000000" font-family="sans-serif" font-size="14" lengthAdjust="spacing" textLength="82" x="112.5" y="141.7363">Equipaments</text><line style="stroke:#181818;stroke-width:0.5;" x1="107.5" x2="248.5" y1="148.7031" y2="148.7031"/></g><!--class House--><g id="elem_House"><rect codeLine="24" fill="#F1F1F1" height="173.125" id="House" rx="2.5" ry="2.5" style="stroke:#181818;stroke-width:0.5;" width="158" x="285" y="7"/><ellipse cx="339.75" cy="23" fill="#ADD1B2" rx="11" ry="11" style="stroke:#181818;stroke-width:1.0;"/><path d="M342.5156,18.875 Q342.6719,18.6563 342.8594,18.5469 Q343.0469,18.4375 343.2656,18.4375 Q343.6406,18.4375 343.875,18.7031 Q344.1094,18.9531 344.1094,19.5625 L344.1094,21.0156 Q344.1094,21.625 343.875,21.8906 Q343.6406,22.1563 343.2656,22.1563 Q342.9219,22.1563 342.7188,21.9531 Q342.5156,21.7656 342.4063,21.25 Q342.3594,20.8906 342.1719,20.7031 Q341.8438,20.3281 341.2344,20.1094 Q340.625,19.8906 340,19.8906 Q339.2344,19.8906 338.5938,20.2188 Q337.9688,20.5469 337.4688,21.2969 Q336.9844,22.0469 336.9844,23.0781 L336.9844,24.1719 Q336.9844,25.4063 337.875,26.2344 Q338.7656,27.0469 340.3594,27.0469 Q341.2969,27.0469 341.9531,26.7969 Q342.3438,26.6406 342.7656,26.2031 Q343.0313,25.9375 343.1719,25.8594 Q343.3281,25.7813 343.5313,25.7813 Q343.8594,25.7813 344.1094,26.0469 Q344.375,26.2969 344.375,26.6406 Q344.375,26.9844 344.0313,27.3906 Q343.5313,27.9688 342.7344,28.2969 Q341.6563,28.75 340.3594,28.75 Q338.8438,28.75 337.6406,28.125 Q336.6563,27.625 335.9688,26.5625 Q335.2813,25.4844 335.2813,24.2031 L335.2813,23.0469 Q335.2813,21.7188 335.8906,20.5781 Q336.5156,19.4219 337.6094,18.8125 Q338.7031,18.1875 339.9375,18.1875 Q340.6719,18.1875 341.3125,18.3594 Q341.9688,18.5156 342.5156,18.875 Z " fill="#000000"/><text fill="#000000" font-family="sans-serif" font-size="14" lengthAdjust="spacing" textLength="40" x="360.25" y="27.8535">House</text><line style="stroke:#181818;stroke-width:0.5;" x1="286" x2="442" y1="39" y2="39"/><text fill="#000000" font-family="sans-serif" font-size="14" lengthAdjust="spacing" textLength="107" x="291" y="55.6738">numberOfRooms</text><text fill="#000000" font-family="sans-serif" font-size="14" lengthAdjust="spacing" textLength="131" x="291" y="71.3145">numberOfBathrooms</text><text fill="#000000" font-family="sans-serif" font-size="14" lengthAdjust="spacing" textLength="103" x="291" y="86.9551">numberOfFloors</text><text fill="#000000" font-family="sans-serif" font-size="14" lengthAdjust="spacing" textLength="118" x="291" y="102.5957">numberOfGarages</text><text fill="#000000" font-family="sans-serif" font-size="14" lengthAdjust="spacing" textLength="82" x="291" y="118.2363">Equipaments</text><text fill="#000000" font-family="sans-serif" font-size="14" lengthAdjust="spacing" textLength="122" x="291" y="133.877">Basement: boolean</text><text fill="#000000" font-family="sans-serif" font-size="14" lengthAdjust="spacing" textLength="144" x="291" y="149.5176">inhabited  loft: boolean</text><text fill="#000000" font-family="sans-serif" font-size="14" lengthAdjust="spacing" textLength="146" x="291" y="165.1582">Sun exposure: boolean</text><line style="stroke:#181818;stroke-width:0.5;" x1="286" x2="442" y1="172.125" y2="172.125"/></g><!--class Owner--><g id="elem_Owner"><rect codeLine="36" fill="#F1F1F1" height="63.6406" id="Owner" rx="2.5" ry="2.5" style="stroke:#181818;stroke-width:0.5;" width="82" x="615" y="61.5"/><ellipse cx="634.05" cy="77.5" fill="#ADD1B2" rx="11" ry="11" style="stroke:#181818;stroke-width:1.0;"/><path d="M636.8156,73.375 Q636.9719,73.1563 637.1594,73.0469 Q637.3469,72.9375 637.5656,72.9375 Q637.9406,72.9375 638.175,73.2031 Q638.4094,73.4531 638.4094,74.0625 L638.4094,75.5156 Q638.4094,76.125 638.175,76.3906 Q637.9406,76.6563 637.5656,76.6563 Q637.2219,76.6563 637.0188,76.4531 Q636.8156,76.2656 636.7063,75.75 Q636.6594,75.3906 636.4719,75.2031 Q636.1438,74.8281 635.5344,74.6094 Q634.925,74.3906 634.3,74.3906 Q633.5344,74.3906 632.8938,74.7188 Q632.2688,75.0469 631.7688,75.7969 Q631.2844,76.5469 631.2844,77.5781 L631.2844,78.6719 Q631.2844,79.9063 632.175,80.7344 Q633.0656,81.5469 634.6594,81.5469 Q635.5969,81.5469 636.2531,81.2969 Q636.6438,81.1406 637.0656,80.7031 Q637.3313,80.4375 637.4719,80.3594 Q637.6281,80.2813 637.8313,80.2813 Q638.1594,80.2813 638.4094,80.5469 Q638.675,80.7969 638.675,81.1406 Q638.675,81.4844 638.3313,81.8906 Q637.8313,82.4688 637.0344,82.7969 Q635.9563,83.25 634.6594,83.25 Q633.1438,83.25 631.9406,82.625 Q630.9563,82.125 630.2688,81.0625 Q629.5813,79.9844 629.5813,78.7031 L629.5813,77.5469 Q629.5813,76.2188 630.1906,75.0781 Q630.8156,73.9219 631.9094,73.3125 Q633.0031,72.6875 634.2375,72.6875 Q634.9719,72.6875 635.6125,72.8594 Q636.2688,73.0156 636.8156,73.375 Z " fill="#000000"/><text fill="#000000" font-family="sans-serif" font-size="14" lengthAdjust="spacing" textLength="41" x="648.95" y="82.3535">Owner</text><line style="stroke:#181818;stroke-width:0.5;" x1="616" x2="696" y1="93.5" y2="93.5"/><text fill="#000000" font-family="sans-serif" font-size="14" lengthAdjust="spacing" textLength="70" x="621" y="110.1738">Proprietary</text><line style="stroke:#181818;stroke-width:0.5;" x1="616" x2="696" y1="117.1406" y2="117.1406"/></g><!--class User--><g id="elem_User"><rect codeLine="40" fill="#F1F1F1" height="157.4844" id="User" rx="2.5" ry="2.5" style="stroke:#181818;stroke-width:0.5;" width="104" x="586" y="256"/><ellipse cx="619.9" cy="272" fill="#A9DCDF" rx="11" ry="11" style="stroke:#181818;stroke-width:1.0;"/><path d="M622.0875,273.7656 L617.9469,273.7656 L617.525,274.7969 L617.9469,274.7969 Q618.5563,274.7969 618.8219,275.0313 Q619.0875,275.2656 619.0875,275.6563 Q619.0875,276.0313 618.8219,276.2656 Q618.5563,276.5 617.9469,276.5 L615.65,276.5 Q615.0406,276.5 614.7906,276.2656 Q614.525,276.0313 614.525,275.6406 Q614.525,275.2656 614.8063,275.0313 Q615.0719,274.7813 615.6969,274.7969 L618.3688,268.1406 L617.2594,268.1406 Q616.65,268.1406 616.3844,267.9063 Q616.1188,267.6719 616.1188,267.2813 Q616.1188,266.9063 616.3844,266.6719 Q616.65,266.4375 617.2594,266.4375 L620.9313,266.4375 L624.3219,274.7969 Q624.9156,274.7969 625.1031,274.9375 Q625.4938,275.2031 625.4938,275.6563 Q625.4938,276.0313 625.2281,276.2656 Q624.9781,276.5 624.3688,276.5 L622.0719,276.5 Q621.4625,276.5 621.1969,276.2656 Q620.9313,276.0313 620.9313,275.6406 Q620.9313,275.2656 621.1969,275.0313 Q621.4625,274.7969 622.0719,274.7969 L622.4938,274.7969 L622.0875,273.7656 Z M621.3688,272.0625 L620.0094,268.6875 L618.6344,272.0625 L621.3688,272.0625 Z " fill="#000000"/><text fill="#000000" font-family="sans-serif" font-size="14" font-style="italic" lengthAdjust="spacing" textLength="30" x="638.1" y="276.8535">User</text><line style="stroke:#181818;stroke-width:0.5;" x1="587" x2="689" y1="288" y2="288"/><text fill="#000000" font-family="sans-serif" font-size="14" lengthAdjust="spacing" textLength="35" x="592" y="304.6738">name</text><text fill="#000000" font-family="sans-serif" font-size="14" lengthAdjust="spacing" textLength="76" x="592" y="320.3145">descriptions</text><text fill="#000000" font-family="sans-serif" font-size="14" lengthAdjust="spacing" textLength="70" x="592" y="335.9551">tax number</text><text fill="#000000" font-family="sans-serif" font-size="14" lengthAdjust="spacing" textLength="51" x="592" y="351.5957">address</text><text fill="#000000" font-family="sans-serif" font-size="14" lengthAdjust="spacing" textLength="88" x="592" y="367.2363">email address</text><text fill="#000000" font-family="sans-serif" font-size="14" lengthAdjust="spacing" textLength="92" x="592" y="382.877">phone number</text><text fill="#000000" font-family="sans-serif" font-size="14" lengthAdjust="spacing" textLength="60" x="592" y="398.5176">password</text><line style="stroke:#181818;stroke-width:0.5;" x1="587" x2="689" y1="405.4844" y2="405.4844"/></g><!--class RealEstate--><g id="elem_RealEstate"><rect codeLine="50" fill="#F1F1F1" height="173.125" id="RealEstate" rx="2.5" ry="2.5" style="stroke:#181818;stroke-width:0.5;" width="101" x="478.5" y="7"/><ellipse cx="493.5" cy="23" fill="#ADD1B2" rx="11" ry="11" style="stroke:#181818;stroke-width:1.0;"/><path d="M496.2656,18.875 Q496.4219,18.6563 496.6094,18.5469 Q496.7969,18.4375 497.0156,18.4375 Q497.3906,18.4375 497.625,18.7031 Q497.8594,18.9531 497.8594,19.5625 L497.8594,21.0156 Q497.8594,21.625 497.625,21.8906 Q497.3906,22.1563 497.0156,22.1563 Q496.6719,22.1563 496.4688,21.9531 Q496.2656,21.7656 496.1563,21.25 Q496.1094,20.8906 495.9219,20.7031 Q495.5938,20.3281 494.9844,20.1094 Q494.375,19.8906 493.75,19.8906 Q492.9844,19.8906 492.3438,20.2188 Q491.7188,20.5469 491.2188,21.2969 Q490.7344,22.0469 490.7344,23.0781 L490.7344,24.1719 Q490.7344,25.4063 491.625,26.2344 Q492.5156,27.0469 494.1094,27.0469 Q495.0469,27.0469 495.7031,26.7969 Q496.0938,26.6406 496.5156,26.2031 Q496.7813,25.9375 496.9219,25.8594 Q497.0781,25.7813 497.2813,25.7813 Q497.6094,25.7813 497.8594,26.0469 Q498.125,26.2969 498.125,26.6406 Q498.125,26.9844 497.7813,27.3906 Q497.2813,27.9688 496.4844,28.2969 Q495.4063,28.75 494.1094,28.75 Q492.5938,28.75 491.3906,28.125 Q490.4063,27.625 489.7188,26.5625 Q489.0313,25.4844 489.0313,24.2031 L489.0313,23.0469 Q489.0313,21.7188 489.6406,20.5781 Q490.2656,19.4219 491.3594,18.8125 Q492.4531,18.1875 493.6875,18.1875 Q494.4219,18.1875 495.0625,18.3594 Q495.7188,18.5156 496.2656,18.875 Z " fill="#000000"/><text fill="#000000" font-family="sans-serif" font-size="14" lengthAdjust="spacing" textLength="69" x="507.5" y="27.8535">RealEstate</text><line style="stroke:#181818;stroke-width:0.5;" x1="479.5" x2="578.5" y1="39" y2="39"/><text fill="#000000" font-family="sans-serif" font-size="14" lengthAdjust="spacing" textLength="35" x="484.5" y="55.6738">name</text><text fill="#000000" font-family="sans-serif" font-size="14" lengthAdjust="spacing" textLength="51" x="484.5" y="71.3145">address</text><text fill="#000000" font-family="sans-serif" font-size="14" lengthAdjust="spacing" textLength="76" x="484.5" y="86.9551">descriptions</text><text fill="#000000" font-family="sans-serif" font-size="14" lengthAdjust="spacing" textLength="47" x="484.5" y="102.5957">website</text><text fill="#000000" font-family="sans-serif" font-size="14" lengthAdjust="spacing" textLength="89" x="484.5" y="118.2363">phoneNumber</text><text fill="#000000" font-family="sans-serif" font-size="14" lengthAdjust="spacing" textLength="33" x="484.5" y="133.877">email</text><text fill="#000000" font-family="sans-serif" font-size="14" lengthAdjust="spacing" textLength="68" x="484.5" y="149.5176">vatNumber</text><text fill="#000000" font-family="sans-serif" font-size="14" lengthAdjust="spacing" textLength="27" x="484.5" y="165.1582">logo</text><line style="stroke:#181818;stroke-width:0.5;" x1="479.5" x2="578.5" y1="172.125" y2="172.125"/></g><!--class Employee--><g id="elem_Employee"><rect codeLine="61" fill="#F1F1F1" height="48" id="Employee" rx="2.5" ry="2.5" style="stroke:#181818;stroke-width:0.5;" width="94" x="767" y="69.5"/><ellipse cx="782" cy="85.5" fill="#ADD1B2" rx="11" ry="11" style="stroke:#181818;stroke-width:1.0;"/><path d="M784.7656,81.375 Q784.9219,81.1563 785.1094,81.0469 Q785.2969,80.9375 785.5156,80.9375 Q785.8906,80.9375 786.125,81.2031 Q786.3594,81.4531 786.3594,82.0625 L786.3594,83.5156 Q786.3594,84.125 786.125,84.3906 Q785.8906,84.6563 785.5156,84.6563 Q785.1719,84.6563 784.9688,84.4531 Q784.7656,84.2656 784.6563,83.75 Q784.6094,83.3906 784.4219,83.2031 Q784.0938,82.8281 783.4844,82.6094 Q782.875,82.3906 782.25,82.3906 Q781.4844,82.3906 780.8438,82.7188 Q780.2188,83.0469 779.7188,83.7969 Q779.2344,84.5469 779.2344,85.5781 L779.2344,86.6719 Q779.2344,87.9063 780.125,88.7344 Q781.0156,89.5469 782.6094,89.5469 Q783.5469,89.5469 784.2031,89.2969 Q784.5938,89.1406 785.0156,88.7031 Q785.2813,88.4375 785.4219,88.3594 Q785.5781,88.2813 785.7813,88.2813 Q786.1094,88.2813 786.3594,88.5469 Q786.625,88.7969 786.625,89.1406 Q786.625,89.4844 786.2813,89.8906 Q785.7813,90.4688 784.9844,90.7969 Q783.9063,91.25 782.6094,91.25 Q781.0938,91.25 779.8906,90.625 Q778.9063,90.125 778.2188,89.0625 Q777.5313,87.9844 777.5313,86.7031 L777.5313,85.5469 Q777.5313,84.2188 778.1406,83.0781 Q778.7656,81.9219 779.8594,81.3125 Q780.9531,80.6875 782.1875,80.6875 Q782.9219,80.6875 783.5625,80.8594 Q784.2188,81.0156 784.7656,81.375 Z " fill="#000000"/><text fill="#000000" font-family="sans-serif" font-size="14" lengthAdjust="spacing" textLength="62" x="796" y="90.3535">Employee</text><line style="stroke:#181818;stroke-width:0.5;" x1="768" x2="860" y1="101.5" y2="101.5"/><line style="stroke:#181818;stroke-width:0.5;" x1="768" x2="860" y1="109.5" y2="109.5"/></g><!--class Roles--><g id="elem_Roles"><rect codeLine="65" fill="#F1F1F1" height="79.2813" id="Roles" rx="2.5" ry="2.5" style="stroke:#181818;stroke-width:0.5;" width="211" x="725.5" y="295"/><ellipse cx="808.75" cy="311" fill="#EB937F" rx="11" ry="11" style="stroke:#181818;stroke-width:1.0;"/><path d="M807.6094,311.7969 L807.6094,314.2969 L811.9375,314.2969 L811.9375,313.375 Q811.9375,312.7656 812.1719,312.5 Q812.4219,312.2344 812.7969,312.2344 Q813.1719,312.2344 813.4063,312.5 Q813.6406,312.7656 813.6406,313.375 L813.6406,316 L805.6406,316 Q805.0156,316 804.75,315.7656 Q804.5,315.5313 804.5,315.1406 Q804.5,314.7656 804.7656,314.5313 Q805.0313,314.2969 805.6406,314.2969 L805.9063,314.2969 L805.9063,307.6406 L805.6406,307.6406 Q805.0156,307.6406 804.75,307.4063 Q804.5,307.1719 804.5,306.7813 Q804.5,306.4063 804.75,306.1719 Q805.0156,305.9375 805.6406,305.9375 L813.2656,305.9375 L813.2656,308.5313 Q813.2656,309.1406 813.0313,309.4063 Q812.8125,309.6563 812.4219,309.6563 Q812.0469,309.6563 811.8125,309.4063 Q811.5781,309.1406 811.5781,308.5313 L811.5781,307.6406 L807.6094,307.6406 L807.6094,310.0938 L809.0938,310.0938 Q809.0938,309.4375 809.2188,309.25 Q809.4844,308.8438 809.9531,308.8438 Q810.3281,308.8438 810.5625,309.1094 Q810.7969,309.3594 810.7969,309.9688 L810.7969,311.9375 Q810.7969,312.4844 810.6719,312.6719 Q810.4063,313.0625 809.9531,313.0625 Q809.4844,313.0625 809.2188,312.6563 Q809.0938,312.4688 809.0938,311.7969 L807.6094,311.7969 Z " fill="#000000"/><text fill="#000000" font-family="sans-serif" font-size="14" lengthAdjust="spacing" textLength="36" x="829.25" y="315.8535">Roles</text><line style="stroke:#181818;stroke-width:0.5;" x1="726.5" x2="935.5" y1="327" y2="327"/><text fill="#000000" font-family="sans-serif" font-size="14" lengthAdjust="spacing" textLength="170" x="731.5" y="343.6738">ROLE_STORE_MANAGER</text><text fill="#000000" font-family="sans-serif" font-size="14" lengthAdjust="spacing" textLength="199" x="731.5" y="359.3145">ROLE_REAL_ESTATE_AGENT</text><line style="stroke:#181818;stroke-width:0.5;" x1="726.5" x2="935.5" y1="366.2813" y2="366.2813"/></g><!--link Employee to Roles--><g id="link_Employee_Roles"><path codeLine="70" d="M815.66,117.85 C818.59,158.96 824.68,244.64 828.24,294.74 " fill="none" id="Employee-Roles" style="stroke:#181818;stroke-width:1.0;"/><text fill="#000000" font-family="sans-serif" font-size="13" lengthAdjust="spacing" textLength="21" x="825" y="222.7686">has</text><text fill="#000000" font-family="sans-serif" font-size="13" lengthAdjust="spacing" textLength="7" x="808.2115" y="137.3239">1</text><text fill="#000000" font-family="sans-serif" font-size="13" lengthAdjust="spacing" textLength="7" x="820.1249" y="284.201">1</text></g><!--link Employee to User--><g id="link_Employee_User"><path codeLine="71" d="M796.8,117.85 C774.92,147.57 735.87,200.59 701.98,246.62 " fill="none" id="Employee-to-User" style="stroke:#181818;stroke-width:1.0;"/><polygon fill="none" points="707.5,250.93,690,262.88,696.23,242.62,707.5,250.93" style="stroke:#181818;stroke-width:1.0;"/><text fill="#000000" font-family="sans-serif" font-size="13" lengthAdjust="spacing" textLength="10" x="727" y="222.7686">is</text></g><!--link Owner to User--><g id="link_Owner_User"><path codeLine="72" d="M653.65,125.75 C651.54,153.76 648.33,196.4 645.36,235.77 " fill="none" id="Owner-to-User" style="stroke:#181818;stroke-width:1.0;"/><polygon fill="none" points="652.32,236.55,643.84,255.97,638.36,235.5,652.32,236.55" style="stroke:#181818;stroke-width:1.0;"/><text fill="#000000" font-family="sans-serif" font-size="13" lengthAdjust="spacing" textLength="10" x="648" y="222.7686">is</text></g><!--link RealEstate to User--><g id="link_RealEstate_User"><path codeLine="73" d="M517.57,180.31 C518.29,195.96 520.99,211.81 527,226 C539.19,254.78 563.27,279.63 585.9,298.16 " fill="none" id="RealEstate-User" style="stroke:#181818;stroke-width:1.0;"/><text fill="#000000" font-family="sans-serif" font-size="13" lengthAdjust="spacing" textLength="21" x="528" y="222.7686">has</text><text fill="#000000" font-family="sans-serif" font-size="13" lengthAdjust="spacing" textLength="7" x="509.3336" y="199.8637">1</text><text fill="#000000" font-family="sans-serif" font-size="13" lengthAdjust="spacing" textLength="16" x="561.9434" y="290.3781">0.*</text></g><!--link House to Proprietary--><g id="link_House_Proprietary"><path codeLine="74" d="M364,180.11 C364,198.02 364,217.03 364,235.35 " fill="none" id="House-to-Proprietary" style="stroke:#181818;stroke-width:1.0;"/><polygon fill="none" points="371,235.65,364,255.65,357,235.65,371,235.65" style="stroke:#181818;stroke-width:1.0;"/><text fill="#000000" font-family="sans-serif" font-size="13" lengthAdjust="spacing" textLength="10" x="365" y="222.7686">is</text></g><!--link Apartment to Proprietary--><g id="link_Apartment_Proprietary"><path codeLine="75" d="M226.38,156.67 C247.54,183.86 272.74,216.24 295.76,245.82 " fill="none" id="Apartment-to-Proprietary" style="stroke:#181818;stroke-width:1.0;"/><polygon fill="none" points="301.53,241.83,308.29,261.91,290.48,250.43,301.53,241.83" style="stroke:#181818;stroke-width:1.0;"/><text fill="#000000" font-family="sans-serif" font-size="13" lengthAdjust="spacing" textLength="10" x="278" y="222.7686">is</text></g><!--link RealEstate to Proprietary--><g id="link_RealEstate_Proprietary"><path codeLine="76" d="M478.37,167.83 C459.14,195.69 437.18,227.5 417.68,255.75 " fill="none" id="RealEstate-Proprietary" style="stroke:#181818;stroke-width:1.0;"/><text fill="#000000" font-family="sans-serif" font-size="13" lengthAdjust="spacing" textLength="21" x="448" y="222.7686">has</text><text fill="#000000" font-family="sans-serif" font-size="13" lengthAdjust="spacing" textLength="7" x="463.4197" y="175.5169">1</text><text fill="#000000" font-family="sans-serif" font-size="13" lengthAdjust="spacing" textLength="16" x="406.0339" y="245.3474">0.*</text></g><!--link Land to Proprietary--><g id="link_Land_Proprietary"><path codeLine="77" d="M48.48,117.8 C56.95,136.39 70.82,162.19 89,180 C146.96,236.81 230.16,279.35 289.85,305.06 " fill="none" id="Land-to-Proprietary" style="stroke:#181818;stroke-width:1.0;"/><polygon fill="none" points="292.6,298.63,308.34,312.82,287.19,311.54,292.6,298.63" style="stroke:#181818;stroke-width:1.0;"/><text fill="#000000" font-family="sans-serif" font-size="13" lengthAdjust="spacing" textLength="10" x="143" y="222.7686">is</text></g><!--link Owner to Proprietary--><g id="link_Owner_Proprietary"><path codeLine="78" d="M636.04,125.76 C625.08,142.31 610.91,162.72 597,180 C579.45,201.8 575.99,208.69 554,226 C512.16,258.94 459.02,288.1 419.58,307.71 " fill="none" id="Owner-Proprietary" style="stroke:#181818;stroke-width:1.0;"/><text fill="#000000" font-family="sans-serif" font-size="13" lengthAdjust="spacing" textLength="21" x="574" y="222.7686">has</text><text fill="#000000" font-family="sans-serif" font-size="13" lengthAdjust="spacing" textLength="7" x="624.7146" y="144.8485">1</text><text fill="#000000" font-family="sans-serif" font-size="13" lengthAdjust="spacing" textLength="16" x="427.3288" y="301.3628">1.*</text></g><!--SRC=[VLDDZvim4BtpAwnSAbLYqruvL68bTdj8auhGSpJ0RB3ahzgcsLNQ_ruRazWatN90dZVZzyRpx0-3jSeKwxLY8Ep8sKCd-Neqc7VWVZs5emQUPHcqncheBEaO64E-QwaqHGlwZPmpuZu17AT5GvMS5j3t6esPrZsQJbDbgHG1wAInq-8NYXvrqKh94CG4wINq9mkQ6n3zsKLpM2hGbgEmvqoCl4MzUwcbvEOQFO8Tz09vObBg63w3XYEQhFevKWMUocHNjQ_IJM4-se8-HQ94YiuoANIHybWgv-D7DsaV5IGT0XK3jDHYJmYJBpV9_IW8lYffHeqn4sUpEmdKtfZ49v-zSV672LMfVNTEMNYTZt7dAdAWR86eGGfCovNJEKdTnzvg15OP2nPlfVzxOKxO6ZUEgBAD8bCVuJQ1JN0cZp8ALrmn-OREL8-XQvBKRd0cT57lDjLXt-pgwl2jt9RFLHtXkYetXshVb4rrS9bjumakT6JrUPNdxXVOI446C36Rvx-_X44NX9eiE1FG14w64kZ8fuUFgqk19vpkusLZ-loc_TV7y6x5dS8ai2ppElwLlKiIkfyF_E_zVm40]--></g></svg>
