<?xml version="1.0" encoding="us-ascii" standalone="no"?><svg xmlns="http://www.w3.org/2000/svg" xmlns:xlink="http://www.w3.org/1999/xlink" contentStyleType="text/css" height="1259px" preserveAspectRatio="none" style="width:1326px;height:1259px;background:#FFFFFF;" version="1.1" viewBox="0 0 1326 1259" width="1326px" zoomAndPan="magnify"><defs/><g><!--class Client--><g id="elem_Client"><rect codeLine="9" fill="#F1F1F1" height="141.8438" id="Client" rx="2.5" ry="2.5" style="stroke:#181818;stroke-width:0.5;" width="489" x="584" y="932.5"/><ellipse cx="806.25" cy="948.5" fill="#ADD1B2" rx="11" ry="11" style="stroke:#181818;stroke-width:1.0;"/><path d="M809.0156,944.375 Q809.1719,944.1563 809.3594,944.0469 Q809.5469,943.9375 809.7656,943.9375 Q810.1406,943.9375 810.375,944.2031 Q810.6094,944.4531 810.6094,945.0625 L810.6094,946.5156 Q810.6094,947.125 810.375,947.3906 Q810.1406,947.6563 809.7656,947.6563 Q809.4219,947.6563 809.2188,947.4531 Q809.0156,947.2656 808.9063,946.75 Q808.8594,946.3906 808.6719,946.2031 Q808.3438,945.8281 807.7344,945.6094 Q807.125,945.3906 806.5,945.3906 Q805.7344,945.3906 805.0938,945.7188 Q804.4688,946.0469 803.9688,946.7969 Q803.4844,947.5469 803.4844,948.5781 L803.4844,949.6719 Q803.4844,950.9063 804.375,951.7344 Q805.2656,952.5469 806.8594,952.5469 Q807.7969,952.5469 808.4531,952.2969 Q808.8438,952.1406 809.2656,951.7031 Q809.5313,951.4375 809.6719,951.3594 Q809.8281,951.2813 810.0313,951.2813 Q810.3594,951.2813 810.6094,951.5469 Q810.875,951.7969 810.875,952.1406 Q810.875,952.4844 810.5313,952.8906 Q810.0313,953.4688 809.2344,953.7969 Q808.1563,954.25 806.8594,954.25 Q805.3438,954.25 804.1406,953.625 Q803.1563,953.125 802.4688,952.0625 Q801.7813,950.9844 801.7813,949.7031 L801.7813,948.5469 Q801.7813,947.2188 802.3906,946.0781 Q803.0156,944.9219 804.1094,944.3125 Q805.2031,943.6875 806.4375,943.6875 Q807.1719,943.6875 807.8125,943.8594 Q808.4688,944.0156 809.0156,944.375 Z " fill="#000000"/><text fill="#000000" font-family="sans-serif" font-size="14" lengthAdjust="spacing" textLength="36" x="826.75" y="953.3535">Client</text><line style="stroke:#181818;stroke-width:0.5;" x1="585" x2="1072" y1="964.5" y2="964.5"/><rect fill="none" height="6" style="stroke:#C82930;stroke-width:1.0;" width="6" x="592" y="974.8203"/><text fill="#000000" font-family="sans-serif" font-size="14" lengthAdjust="spacing" textLength="164" x="604" y="981.1738">properties: List&lt;Property&gt;</text><text fill="#000000" font-family="sans-serif" font-size="14" lengthAdjust="spacing" textLength="164" x="604" y="996.8145">properties: List&lt;Property&gt;</text><line style="stroke:#181818;stroke-width:0.5;" x1="585" x2="1072" y1="1003.7813" y2="1003.7813"/><ellipse cx="595" cy="1017.1016" fill="#84BE84" rx="3" ry="3" style="stroke:#038048;stroke-width:1.0;"/><text fill="#000000" font-family="sans-serif" font-size="14" lengthAdjust="spacing" textLength="379" x="604" y="1020.4551">Client(String, String, int, String, String, String, String, Roles):</text><rect fill="#F24D5C" height="6" style="stroke:#C82930;stroke-width:1.0;" width="6" x="592" y="1029.7422"/><text fill="#000000" font-family="sans-serif" font-size="14" lengthAdjust="spacing" textLength="180" x="604" y="1036.0957">validateTaxNumber(int): void</text><ellipse cx="595" cy="1048.3828" fill="#84BE84" rx="3" ry="3" style="stroke:#038048;stroke-width:1.0;"/><text fill="#000000" font-family="sans-serif" font-size="14" lengthAdjust="spacing" textLength="176" x="604" y="1051.7363">addProperty(Property): void</text><rect fill="#F24D5C" height="6" style="stroke:#C82930;stroke-width:1.0;" width="6" x="592" y="1061.0234"/><text fill="#000000" font-family="sans-serif" font-size="14" lengthAdjust="spacing" textLength="463" x="604" y="1067.377">validateOwner(String, String, int, String, String, String, String, Roles): void</text></g><!--class ClientRepository--><g id="elem_ClientRepository"><rect codeLine="18" fill="#F1F1F1" height="173.125" id="ClientRepository" rx="2.5" ry="2.5" style="stroke:#181818;stroke-width:0.5;" width="538" x="577.5" y="676"/><ellipse cx="790.25" cy="692" fill="#ADD1B2" rx="11" ry="11" style="stroke:#181818;stroke-width:1.0;"/><path d="M793.0156,687.875 Q793.1719,687.6563 793.3594,687.5469 Q793.5469,687.4375 793.7656,687.4375 Q794.1406,687.4375 794.375,687.7031 Q794.6094,687.9531 794.6094,688.5625 L794.6094,690.0156 Q794.6094,690.625 794.375,690.8906 Q794.1406,691.1563 793.7656,691.1563 Q793.4219,691.1563 793.2188,690.9531 Q793.0156,690.7656 792.9063,690.25 Q792.8594,689.8906 792.6719,689.7031 Q792.3438,689.3281 791.7344,689.1094 Q791.125,688.8906 790.5,688.8906 Q789.7344,688.8906 789.0938,689.2188 Q788.4688,689.5469 787.9688,690.2969 Q787.4844,691.0469 787.4844,692.0781 L787.4844,693.1719 Q787.4844,694.4063 788.375,695.2344 Q789.2656,696.0469 790.8594,696.0469 Q791.7969,696.0469 792.4531,695.7969 Q792.8438,695.6406 793.2656,695.2031 Q793.5313,694.9375 793.6719,694.8594 Q793.8281,694.7813 794.0313,694.7813 Q794.3594,694.7813 794.6094,695.0469 Q794.875,695.2969 794.875,695.6406 Q794.875,695.9844 794.5313,696.3906 Q794.0313,696.9688 793.2344,697.2969 Q792.1563,697.75 790.8594,697.75 Q789.3438,697.75 788.1406,697.125 Q787.1563,696.625 786.4688,695.5625 Q785.7813,694.4844 785.7813,693.2031 L785.7813,692.0469 Q785.7813,690.7188 786.3906,689.5781 Q787.0156,688.4219 788.1094,687.8125 Q789.2031,687.1875 790.4375,687.1875 Q791.1719,687.1875 791.8125,687.3594 Q792.4688,687.5156 793.0156,687.875 Z " fill="#000000"/><text fill="#000000" font-family="sans-serif" font-size="14" lengthAdjust="spacing" textLength="104" x="810.75" y="696.8535">ClientRepository</text><line style="stroke:#181818;stroke-width:0.5;" x1="578.5" x2="1114.5" y1="708" y2="708"/><polygon fill="none" points="588.5,717.3203,584.5,723.3203,592.5,723.3203" style="stroke:#1963A0;stroke-width:1.0;"/><text fill="#000000" font-family="sans-serif" font-size="14" lengthAdjust="spacing" textLength="122" x="597.5" y="724.6738">clients: List&lt;Client&gt;</text><text fill="#000000" font-family="sans-serif" font-size="14" lengthAdjust="spacing" textLength="122" x="597.5" y="740.3145">clients: List&lt;Client&gt;</text><line style="stroke:#181818;stroke-width:0.5;" x1="578.5" x2="1114.5" y1="747.2813" y2="747.2813"/><ellipse cx="588.5" cy="760.6016" fill="#84BE84" rx="3" ry="3" style="stroke:#038048;stroke-width:1.0;"/><text fill="#000000" font-family="sans-serif" font-size="14" lengthAdjust="spacing" textLength="118" x="597.5" y="763.9551">ClientRepository():</text><rect fill="#F24D5C" height="6" style="stroke:#C82930;stroke-width:1.0;" width="6" x="585.5" y="773.2422"/><text fill="#000000" font-family="sans-serif" font-size="14" lengthAdjust="spacing" textLength="165" x="597.5" y="779.5957">validateClient(Client): void</text><ellipse cx="588.5" cy="791.8828" fill="#84BE84" rx="3" ry="3" style="stroke:#038048;stroke-width:1.0;"/><text fill="#000000" font-family="sans-serif" font-size="14" lengthAdjust="spacing" textLength="512" x="597.5" y="795.2363">addClient(String, String, int, String, String, String, String, Roles): Optional&lt;Client&gt;</text><ellipse cx="588.5" cy="807.5234" fill="#84BE84" rx="3" ry="3" style="stroke:#038048;stroke-width:1.0;"/><text fill="#000000" font-family="sans-serif" font-size="14" lengthAdjust="spacing" textLength="188" x="597.5" y="810.877">removeClient(Client): boolean</text><ellipse cx="588.5" cy="823.1641" fill="#84BE84" rx="3" ry="3" style="stroke:#038048;stroke-width:1.0;"/><text fill="#000000" font-family="sans-serif" font-size="14" lengthAdjust="spacing" textLength="213" x="597.5" y="826.5176">getClientByTaxNumber(int): Client</text><ellipse cx="588.5" cy="838.8047" fill="#84BE84" rx="3" ry="3" style="stroke:#038048;stroke-width:1.0;"/><text fill="#000000" font-family="sans-serif" font-size="14" lengthAdjust="spacing" textLength="273" x="597.5" y="842.1582">addPropertyToClient(Client, Property): void</text></g><!--class ClientMapper--><g id="elem_ClientMapper"><rect codeLine="29" fill="#F1F1F1" height="94.9219" id="ClientMapper" rx="2.5" ry="2.5" style="stroke:#181818;stroke-width:0.5;" width="211" x="1108" y="956"/><ellipse cx="1167.25" cy="972" fill="#ADD1B2" rx="11" ry="11" style="stroke:#181818;stroke-width:1.0;"/><path d="M1170.0156,967.875 Q1170.1719,967.6563 1170.3594,967.5469 Q1170.5469,967.4375 1170.7656,967.4375 Q1171.1406,967.4375 1171.375,967.7031 Q1171.6094,967.9531 1171.6094,968.5625 L1171.6094,970.0156 Q1171.6094,970.625 1171.375,970.8906 Q1171.1406,971.1563 1170.7656,971.1563 Q1170.4219,971.1563 1170.2188,970.9531 Q1170.0156,970.7656 1169.9063,970.25 Q1169.8594,969.8906 1169.6719,969.7031 Q1169.3438,969.3281 1168.7344,969.1094 Q1168.125,968.8906 1167.5,968.8906 Q1166.7344,968.8906 1166.0938,969.2188 Q1165.4688,969.5469 1164.9688,970.2969 Q1164.4844,971.0469 1164.4844,972.0781 L1164.4844,973.1719 Q1164.4844,974.4063 1165.375,975.2344 Q1166.2656,976.0469 1167.8594,976.0469 Q1168.7969,976.0469 1169.4531,975.7969 Q1169.8438,975.6406 1170.2656,975.2031 Q1170.5313,974.9375 1170.6719,974.8594 Q1170.8281,974.7813 1171.0313,974.7813 Q1171.3594,974.7813 1171.6094,975.0469 Q1171.875,975.2969 1171.875,975.6406 Q1171.875,975.9844 1171.5313,976.3906 Q1171.0313,976.9688 1170.2344,977.2969 Q1169.1563,977.75 1167.8594,977.75 Q1166.3438,977.75 1165.1406,977.125 Q1164.1563,976.625 1163.4688,975.5625 Q1162.7813,974.4844 1162.7813,973.2031 L1162.7813,972.0469 Q1162.7813,970.7188 1163.3906,969.5781 Q1164.0156,968.4219 1165.1094,967.8125 Q1166.2031,967.1875 1167.4375,967.1875 Q1168.1719,967.1875 1168.8125,967.3594 Q1169.4688,967.5156 1170.0156,967.875 Z " fill="#000000"/><text fill="#000000" font-family="sans-serif" font-size="14" lengthAdjust="spacing" textLength="84" x="1187.75" y="976.8535">ClientMapper</text><line style="stroke:#181818;stroke-width:0.5;" x1="1109" x2="1318" y1="988" y2="988"/><line style="stroke:#181818;stroke-width:0.5;" x1="1109" x2="1318" y1="996" y2="996"/><ellipse cx="1119" cy="1009.3203" fill="#84BE84" rx="3" ry="3" style="stroke:#038048;stroke-width:1.0;"/><text fill="#000000" font-family="sans-serif" font-size="14" lengthAdjust="spacing" textLength="98" x="1128" y="1012.6738">ClientMapper():</text><ellipse cx="1119" cy="1024.9609" fill="#84BE84" rx="3" ry="3" style="stroke:#038048;stroke-width:1.0;"/><text fill="#000000" font-family="sans-serif" font-size="14" lengthAdjust="spacing" textLength="185" x="1128" y="1028.3145">toDomain(ClientEntity): Client</text><ellipse cx="1119" cy="1040.6016" fill="#84BE84" rx="3" ry="3" style="stroke:#038048;stroke-width:1.0;"/><text fill="#000000" font-family="sans-serif" font-size="14" lengthAdjust="spacing" textLength="172" x="1128" y="1043.9551">toEntity(Client): ClientEntity</text></g><!--class ClientDTO--><g id="elem_ClientDTO"><rect codeLine="35" fill="#F1F1F1" height="94.9219" id="ClientDTO" rx="2.5" ry="2.5" style="stroke:#181818;stroke-width:0.5;" width="162" x="1132.5" y="1158"/><ellipse cx="1176.3" cy="1174" fill="#ADD1B2" rx="11" ry="11" style="stroke:#181818;stroke-width:1.0;"/><path d="M1179.0656,1169.875 Q1179.2219,1169.6563 1179.4094,1169.5469 Q1179.5969,1169.4375 1179.8156,1169.4375 Q1180.1906,1169.4375 1180.425,1169.7031 Q1180.6594,1169.9531 1180.6594,1170.5625 L1180.6594,1172.0156 Q1180.6594,1172.625 1180.425,1172.8906 Q1180.1906,1173.1563 1179.8156,1173.1563 Q1179.4719,1173.1563 1179.2688,1172.9531 Q1179.0656,1172.7656 1178.9563,1172.25 Q1178.9094,1171.8906 1178.7219,1171.7031 Q1178.3938,1171.3281 1177.7844,1171.1094 Q1177.175,1170.8906 1176.55,1170.8906 Q1175.7844,1170.8906 1175.1438,1171.2188 Q1174.5188,1171.5469 1174.0188,1172.2969 Q1173.5344,1173.0469 1173.5344,1174.0781 L1173.5344,1175.1719 Q1173.5344,1176.4063 1174.425,1177.2344 Q1175.3156,1178.0469 1176.9094,1178.0469 Q1177.8469,1178.0469 1178.5031,1177.7969 Q1178.8938,1177.6406 1179.3156,1177.2031 Q1179.5813,1176.9375 1179.7219,1176.8594 Q1179.8781,1176.7813 1180.0813,1176.7813 Q1180.4094,1176.7813 1180.6594,1177.0469 Q1180.925,1177.2969 1180.925,1177.6406 Q1180.925,1177.9844 1180.5813,1178.3906 Q1180.0813,1178.9688 1179.2844,1179.2969 Q1178.2063,1179.75 1176.9094,1179.75 Q1175.3938,1179.75 1174.1906,1179.125 Q1173.2063,1178.625 1172.5188,1177.5625 Q1171.8313,1176.4844 1171.8313,1175.2031 L1171.8313,1174.0469 Q1171.8313,1172.7188 1172.4406,1171.5781 Q1173.0656,1170.4219 1174.1594,1169.8125 Q1175.2531,1169.1875 1176.4875,1169.1875 Q1177.2219,1169.1875 1177.8625,1169.3594 Q1178.5188,1169.5156 1179.0656,1169.875 Z " fill="#000000"/><text fill="#000000" font-family="sans-serif" font-size="14" lengthAdjust="spacing" textLength="66" x="1196.7" y="1178.8535">ClientDTO</text><line style="stroke:#181818;stroke-width:0.5;" x1="1133.5" x2="1293.5" y1="1190" y2="1190"/><line style="stroke:#181818;stroke-width:0.5;" x1="1133.5" x2="1293.5" y1="1198" y2="1198"/><ellipse cx="1143.5" cy="1211.3203" fill="#84BE84" rx="3" ry="3" style="stroke:#038048;stroke-width:1.0;"/><text fill="#000000" font-family="sans-serif" font-size="14" lengthAdjust="spacing" textLength="80" x="1152.5" y="1214.6738">ClientDTO():</text><ellipse cx="1143.5" cy="1226.9609" fill="#84BE84" rx="3" ry="3" style="stroke:#038048;stroke-width:1.0;"/><text fill="#000000" font-family="sans-serif" font-size="14" lengthAdjust="spacing" textLength="114" x="1152.5" y="1230.3145">toDomain(): Client</text><ellipse cx="1143.5" cy="1242.6016" fill="#84BE84" rx="3" ry="3" style="stroke:#038048;stroke-width:1.0;"/><text fill="#000000" font-family="sans-serif" font-size="14" lengthAdjust="spacing" textLength="136" x="1152.5" y="1245.9551">toEntity(): ClientEntity</text></g><!--class Repositories--><g id="elem_Repositories"><rect codeLine="41" fill="#F1F1F1" height="251.3281" id="Repositories" rx="2.5" ry="2.5" style="stroke:#181818;stroke-width:0.5;" width="359" x="270" y="349"/><ellipse cx="405.75" cy="365" fill="#ADD1B2" rx="11" ry="11" style="stroke:#181818;stroke-width:1.0;"/><path d="M408.5156,360.875 Q408.6719,360.6563 408.8594,360.5469 Q409.0469,360.4375 409.2656,360.4375 Q409.6406,360.4375 409.875,360.7031 Q410.1094,360.9531 410.1094,361.5625 L410.1094,363.0156 Q410.1094,363.625 409.875,363.8906 Q409.6406,364.1563 409.2656,364.1563 Q408.9219,364.1563 408.7188,363.9531 Q408.5156,363.7656 408.4063,363.25 Q408.3594,362.8906 408.1719,362.7031 Q407.8438,362.3281 407.2344,362.1094 Q406.625,361.8906 406,361.8906 Q405.2344,361.8906 404.5938,362.2188 Q403.9688,362.5469 403.4688,363.2969 Q402.9844,364.0469 402.9844,365.0781 L402.9844,366.1719 Q402.9844,367.4063 403.875,368.2344 Q404.7656,369.0469 406.3594,369.0469 Q407.2969,369.0469 407.9531,368.7969 Q408.3438,368.6406 408.7656,368.2031 Q409.0313,367.9375 409.1719,367.8594 Q409.3281,367.7813 409.5313,367.7813 Q409.8594,367.7813 410.1094,368.0469 Q410.375,368.2969 410.375,368.6406 Q410.375,368.9844 410.0313,369.3906 Q409.5313,369.9688 408.7344,370.2969 Q407.6563,370.75 406.3594,370.75 Q404.8438,370.75 403.6406,370.125 Q402.6563,369.625 401.9688,368.5625 Q401.2813,367.4844 401.2813,366.2031 L401.2813,365.0469 Q401.2813,363.7188 401.8906,362.5781 Q402.5156,361.4219 403.6094,360.8125 Q404.7031,360.1875 405.9375,360.1875 Q406.6719,360.1875 407.3125,360.3594 Q407.9688,360.5156 408.5156,360.875 Z " fill="#000000"/><text fill="#000000" font-family="sans-serif" font-size="14" lengthAdjust="spacing" textLength="79" x="426.25" y="369.8535">Repositories</text><line style="stroke:#181818;stroke-width:0.5;" x1="271" x2="628" y1="381" y2="381"/><polygon fill="none" points="281,390.3203,277,396.3203,285,396.3203" style="stroke:#1963A0;stroke-width:1.0;"/><text fill="#000000" font-family="sans-serif" font-size="14" lengthAdjust="spacing" textLength="251" x="290" y="397.6738">propertyRepository: PropertyRepository</text><polygon fill="none" points="281,405.9609,277,411.9609,285,411.9609" style="stroke:#1963A0;stroke-width:1.0;"/><text fill="#000000" font-family="sans-serif" font-size="14" lengthAdjust="spacing" textLength="323" x="290" y="413.3145">authenticationRepository: AuthenticationRepository</text><polygon fill="none" points="281,421.6016,277,427.6016,285,427.6016" style="stroke:#1963A0;stroke-width:1.0;"/><text fill="#000000" font-family="sans-serif" font-size="14" lengthAdjust="spacing" textLength="213" x="290" y="428.9551">clientRepository: ClientRepository</text><rect fill="none" height="6" style="stroke:#C82930;stroke-width:1.0;" width="6" x="278" y="438.2422"/><text fill="#000000" font-family="sans-serif" font-size="14" lengthAdjust="spacing" textLength="140" x="290" y="444.5957">instance: Repositories</text><polygon fill="none" points="281,452.8828,277,458.8828,285,458.8828" style="stroke:#1963A0;stroke-width:1.0;"/><text fill="#000000" font-family="sans-serif" font-size="14" lengthAdjust="spacing" textLength="333" x="290" y="460.2363">announcementRepository: AnnouncementRepository</text><polygon fill="none" points="281,468.5234,277,474.5234,285,474.5234" style="stroke:#1963A0;stroke-width:1.0;"/><text fill="#000000" font-family="sans-serif" font-size="14" lengthAdjust="spacing" textLength="210" x="290" y="475.877">storeRepository: StoreRepository</text><text fill="#000000" font-family="sans-serif" font-size="14" lengthAdjust="spacing" textLength="333" x="290" y="491.5176">announcementRepository: AnnouncementRepository</text><text fill="#000000" font-family="sans-serif" font-size="14" lengthAdjust="spacing" textLength="251" x="290" y="507.1582">propertyRepository: PropertyRepository</text><text fill="#000000" font-family="sans-serif" font-size="14" lengthAdjust="spacing" textLength="140" x="290" y="522.7988">instance: Repositories</text><text fill="#000000" font-family="sans-serif" font-size="14" lengthAdjust="spacing" textLength="213" x="290" y="538.4395">clientRepository: ClientRepository</text><text fill="#000000" font-family="sans-serif" font-size="14" lengthAdjust="spacing" textLength="323" x="290" y="554.0801">authenticationRepository: AuthenticationRepository</text><text fill="#000000" font-family="sans-serif" font-size="14" lengthAdjust="spacing" textLength="210" x="290" y="569.7207">storeRepository: StoreRepository</text><line style="stroke:#181818;stroke-width:0.5;" x1="271" x2="628" y1="576.6875" y2="576.6875"/><rect fill="#F24D5C" height="6" style="stroke:#C82930;stroke-width:1.0;" width="6" x="278" y="587.0078"/><text fill="#000000" font-family="sans-serif" font-size="14" lengthAdjust="spacing" textLength="93" x="290" y="593.3613">Repositories():</text></g><!--class MessagesOfClientRepository--><g id="elem_MessagesOfClientRepository"><rect codeLine="57" fill="#F1F1F1" height="126.2031" id="MessagesOfClientRepository" rx="2.5" ry="2.5" style="stroke:#181818;stroke-width:0.5;" width="311" x="9" y="699.5"/><ellipse cx="68.75" cy="715.5" fill="#ADD1B2" rx="11" ry="11" style="stroke:#181818;stroke-width:1.0;"/><path d="M71.5156,711.375 Q71.6719,711.1563 71.8594,711.0469 Q72.0469,710.9375 72.2656,710.9375 Q72.6406,710.9375 72.875,711.2031 Q73.1094,711.4531 73.1094,712.0625 L73.1094,713.5156 Q73.1094,714.125 72.875,714.3906 Q72.6406,714.6563 72.2656,714.6563 Q71.9219,714.6563 71.7188,714.4531 Q71.5156,714.2656 71.4063,713.75 Q71.3594,713.3906 71.1719,713.2031 Q70.8438,712.8281 70.2344,712.6094 Q69.625,712.3906 69,712.3906 Q68.2344,712.3906 67.5938,712.7188 Q66.9688,713.0469 66.4688,713.7969 Q65.9844,714.5469 65.9844,715.5781 L65.9844,716.6719 Q65.9844,717.9063 66.875,718.7344 Q67.7656,719.5469 69.3594,719.5469 Q70.2969,719.5469 70.9531,719.2969 Q71.3438,719.1406 71.7656,718.7031 Q72.0313,718.4375 72.1719,718.3594 Q72.3281,718.2813 72.5313,718.2813 Q72.8594,718.2813 73.1094,718.5469 Q73.375,718.7969 73.375,719.1406 Q73.375,719.4844 73.0313,719.8906 Q72.5313,720.4688 71.7344,720.7969 Q70.6563,721.25 69.3594,721.25 Q67.8438,721.25 66.6406,720.625 Q65.6563,720.125 64.9688,719.0625 Q64.2813,717.9844 64.2813,716.7031 L64.2813,715.5469 Q64.2813,714.2188 64.8906,713.0781 Q65.5156,711.9219 66.6094,711.3125 Q67.7031,710.6875 68.9375,710.6875 Q69.6719,710.6875 70.3125,710.8594 Q70.9688,711.0156 71.5156,711.375 Z " fill="#000000"/><text fill="#000000" font-family="sans-serif" font-size="14" lengthAdjust="spacing" textLength="183" x="89.25" y="720.3535">MessagesOfClientRepository</text><line style="stroke:#181818;stroke-width:0.5;" x1="10" x2="319" y1="731.5" y2="731.5"/><polygon fill="none" points="20,740.8203,16,746.8203,24,746.8203" style="stroke:#1963A0;stroke-width:1.0;"/><text fill="#000000" font-family="sans-serif" font-size="14" lengthAdjust="spacing" textLength="167" x="29" y="748.1738">messages: List&lt;Message&gt;</text><text fill="#000000" font-family="sans-serif" font-size="14" lengthAdjust="spacing" textLength="167" x="29" y="763.8145">messages: List&lt;Message&gt;</text><line style="stroke:#181818;stroke-width:0.5;" x1="10" x2="319" y1="770.7813" y2="770.7813"/><ellipse cx="20" cy="784.1016" fill="#84BE84" rx="3" ry="3" style="stroke:#038048;stroke-width:1.0;"/><text fill="#000000" font-family="sans-serif" font-size="14" lengthAdjust="spacing" textLength="197" x="29" y="787.4551">MessagesOfClientRepository():</text><ellipse cx="20" cy="799.7422" fill="#84BE84" rx="3" ry="3" style="stroke:#038048;stroke-width:1.0;"/><text fill="#000000" font-family="sans-serif" font-size="14" lengthAdjust="spacing" textLength="182" x="29" y="803.0957">addMessage(Message): void</text><ellipse cx="20" cy="815.3828" fill="#84BE84" rx="3" ry="3" style="stroke:#038048;stroke-width:1.0;"/><text fill="#000000" font-family="sans-serif" font-size="14" lengthAdjust="spacing" textLength="285" x="29" y="818.7363">getMessagesByClient(Client): List&lt;Message&gt;</text></g><!--class Message--><g id="elem_Message"><rect codeLine="65" fill="#F1F1F1" height="157.4844" id="Message" rx="2.5" ry="2.5" style="stroke:#181818;stroke-width:0.5;" width="178" x="75.5" y="925"/><ellipse cx="131.75" cy="941" fill="#ADD1B2" rx="11" ry="11" style="stroke:#181818;stroke-width:1.0;"/><path d="M134.5156,936.875 Q134.6719,936.6563 134.8594,936.5469 Q135.0469,936.4375 135.2656,936.4375 Q135.6406,936.4375 135.875,936.7031 Q136.1094,936.9531 136.1094,937.5625 L136.1094,939.0156 Q136.1094,939.625 135.875,939.8906 Q135.6406,940.1563 135.2656,940.1563 Q134.9219,940.1563 134.7188,939.9531 Q134.5156,939.7656 134.4063,939.25 Q134.3594,938.8906 134.1719,938.7031 Q133.8438,938.3281 133.2344,938.1094 Q132.625,937.8906 132,937.8906 Q131.2344,937.8906 130.5938,938.2188 Q129.9688,938.5469 129.4688,939.2969 Q128.9844,940.0469 128.9844,941.0781 L128.9844,942.1719 Q128.9844,943.4063 129.875,944.2344 Q130.7656,945.0469 132.3594,945.0469 Q133.2969,945.0469 133.9531,944.7969 Q134.3438,944.6406 134.7656,944.2031 Q135.0313,943.9375 135.1719,943.8594 Q135.3281,943.7813 135.5313,943.7813 Q135.8594,943.7813 136.1094,944.0469 Q136.375,944.2969 136.375,944.6406 Q136.375,944.9844 136.0313,945.3906 Q135.5313,945.9688 134.7344,946.2969 Q133.6563,946.75 132.3594,946.75 Q130.8438,946.75 129.6406,946.125 Q128.6563,945.625 127.9688,944.5625 Q127.2813,943.4844 127.2813,942.2031 L127.2813,941.0469 Q127.2813,939.7188 127.8906,938.5781 Q128.5156,937.4219 129.6094,936.8125 Q130.7031,936.1875 131.9375,936.1875 Q132.6719,936.1875 133.3125,936.3594 Q133.9688,936.5156 134.5156,936.875 Z " fill="#000000"/><text fill="#000000" font-family="sans-serif" font-size="14" lengthAdjust="spacing" textLength="57" x="152.25" y="945.8535">Message</text><line style="stroke:#181818;stroke-width:0.5;" x1="76.5" x2="252.5" y1="957" y2="957"/><rect fill="none" height="6" style="stroke:#C82930;stroke-width:1.0;" width="6" x="83.5" y="967.3203"/><text fill="#000000" font-family="sans-serif" font-size="14" lengthAdjust="spacing" textLength="77" x="95.5" y="973.6738">client: Client</text><rect fill="none" height="6" style="stroke:#C82930;stroke-width:1.0;" width="6" x="83.5" y="982.9609"/><text fill="#000000" font-family="sans-serif" font-size="14" lengthAdjust="spacing" textLength="102" x="95.5" y="989.3145">message: String</text><text fill="#000000" font-family="sans-serif" font-size="14" lengthAdjust="spacing" textLength="77" x="95.5" y="1004.9551">client: Client</text><text fill="#000000" font-family="sans-serif" font-size="14" lengthAdjust="spacing" textLength="102" x="95.5" y="1020.5957">message: String</text><line style="stroke:#181818;stroke-width:0.5;" x1="76.5" x2="252.5" y1="1027.5625" y2="1027.5625"/><ellipse cx="86.5" cy="1040.8828" fill="#84BE84" rx="3" ry="3" style="stroke:#038048;stroke-width:1.0;"/><text fill="#000000" font-family="sans-serif" font-size="14" lengthAdjust="spacing" textLength="152" x="95.5" y="1044.2363">Message(String, Client):</text><ellipse cx="86.5" cy="1056.5234" fill="#84BE84" rx="3" ry="3" style="stroke:#038048;stroke-width:1.0;"/><text fill="#000000" font-family="sans-serif" font-size="14" lengthAdjust="spacing" textLength="132" x="95.5" y="1059.877">getMessage(): String</text><ellipse cx="86.5" cy="1072.1641" fill="#84BE84" rx="3" ry="3" style="stroke:#038048;stroke-width:1.0;"/><text fill="#000000" font-family="sans-serif" font-size="14" lengthAdjust="spacing" textLength="110" x="95.5" y="1075.5176">getClient(): Client</text></g><!--class VisitRequestController--><g id="elem_VisitRequestController"><rect codeLine="75" fill="#F1F1F1" height="94.9219" id="VisitRequestController" rx="2.5" ry="2.5" style="stroke:#181818;stroke-width:0.5;" width="181" x="71" y="178"/><ellipse cx="89.6" cy="194" fill="#ADD1B2" rx="11" ry="11" style="stroke:#181818;stroke-width:1.0;"/><path d="M92.3656,189.875 Q92.5219,189.6563 92.7094,189.5469 Q92.8969,189.4375 93.1156,189.4375 Q93.4906,189.4375 93.725,189.7031 Q93.9594,189.9531 93.9594,190.5625 L93.9594,192.0156 Q93.9594,192.625 93.725,192.8906 Q93.4906,193.1563 93.1156,193.1563 Q92.7719,193.1563 92.5688,192.9531 Q92.3656,192.7656 92.2563,192.25 Q92.2094,191.8906 92.0219,191.7031 Q91.6938,191.3281 91.0844,191.1094 Q90.475,190.8906 89.85,190.8906 Q89.0844,190.8906 88.4438,191.2188 Q87.8188,191.5469 87.3188,192.2969 Q86.8344,193.0469 86.8344,194.0781 L86.8344,195.1719 Q86.8344,196.4063 87.725,197.2344 Q88.6156,198.0469 90.2094,198.0469 Q91.1469,198.0469 91.8031,197.7969 Q92.1938,197.6406 92.6156,197.2031 Q92.8813,196.9375 93.0219,196.8594 Q93.1781,196.7813 93.3813,196.7813 Q93.7094,196.7813 93.9594,197.0469 Q94.225,197.2969 94.225,197.6406 Q94.225,197.9844 93.8813,198.3906 Q93.3813,198.9688 92.5844,199.2969 Q91.5063,199.75 90.2094,199.75 Q88.6938,199.75 87.4906,199.125 Q86.5063,198.625 85.8188,197.5625 Q85.1313,196.4844 85.1313,195.2031 L85.1313,194.0469 Q85.1313,192.7188 85.7406,191.5781 Q86.3656,190.4219 87.4594,189.8125 Q88.5531,189.1875 89.7875,189.1875 Q90.5219,189.1875 91.1625,189.3594 Q91.8188,189.5156 92.3656,189.875 Z " fill="#000000"/><text fill="#000000" font-family="sans-serif" font-size="14" lengthAdjust="spacing" textLength="141" x="104.4" y="198.8535">VisitRequestController</text><line style="stroke:#181818;stroke-width:0.5;" x1="72" x2="251" y1="210" y2="210"/><line style="stroke:#181818;stroke-width:0.5;" x1="72" x2="251" y1="218" y2="218"/><ellipse cx="82" cy="231.3203" fill="#84BE84" rx="3" ry="3" style="stroke:#038048;stroke-width:1.0;"/><text fill="#000000" font-family="sans-serif" font-size="14" lengthAdjust="spacing" textLength="155" x="91" y="234.6738">VisitRequestController():</text><ellipse cx="82" cy="246.9609" fill="#84BE84" rx="3" ry="3" style="stroke:#038048;stroke-width:1.0;"/><text fill="#000000" font-family="sans-serif" font-size="14" lengthAdjust="spacing" textLength="117" x="91" y="250.3145">addVisitRequest():</text><ellipse cx="82" cy="262.6016" fill="#84BE84" rx="3" ry="3" style="stroke:#038048;stroke-width:1.0;"/><text fill="#000000" font-family="sans-serif" font-size="14" lengthAdjust="spacing" textLength="120" x="91" y="265.9551">getVisitRequests():</text></g><!--class VisitRequest--><g id="elem_VisitRequest"><rect codeLine="81" fill="#F1F1F1" height="94.9219" id="VisitRequest" rx="2.5" ry="2.5" style="stroke:#181818;stroke-width:0.5;" width="146" x="88.5" y="427"/><ellipse cx="119.25" cy="443" fill="#ADD1B2" rx="11" ry="11" style="stroke:#181818;stroke-width:1.0;"/><path d="M122.0156,438.875 Q122.1719,438.6563 122.3594,438.5469 Q122.5469,438.4375 122.7656,438.4375 Q123.1406,438.4375 123.375,438.7031 Q123.6094,438.9531 123.6094,439.5625 L123.6094,441.0156 Q123.6094,441.625 123.375,441.8906 Q123.1406,442.1563 122.7656,442.1563 Q122.4219,442.1563 122.2188,441.9531 Q122.0156,441.7656 121.9063,441.25 Q121.8594,440.8906 121.6719,440.7031 Q121.3438,440.3281 120.7344,440.1094 Q120.125,439.8906 119.5,439.8906 Q118.7344,439.8906 118.0938,440.2188 Q117.4688,440.5469 116.9688,441.2969 Q116.4844,442.0469 116.4844,443.0781 L116.4844,444.1719 Q116.4844,445.4063 117.375,446.2344 Q118.2656,447.0469 119.8594,447.0469 Q120.7969,447.0469 121.4531,446.7969 Q121.8438,446.6406 122.2656,446.2031 Q122.5313,445.9375 122.6719,445.8594 Q122.8281,445.7813 123.0313,445.7813 Q123.3594,445.7813 123.6094,446.0469 Q123.875,446.2969 123.875,446.6406 Q123.875,446.9844 123.5313,447.3906 Q123.0313,447.9688 122.2344,448.2969 Q121.1563,448.75 119.8594,448.75 Q118.3438,448.75 117.1406,448.125 Q116.1563,447.625 115.4688,446.5625 Q114.7813,445.4844 114.7813,444.2031 L114.7813,443.0469 Q114.7813,441.7188 115.3906,440.5781 Q116.0156,439.4219 117.1094,438.8125 Q118.2031,438.1875 119.4375,438.1875 Q120.1719,438.1875 120.8125,438.3594 Q121.4688,438.5156 122.0156,438.875 Z " fill="#000000"/><text fill="#000000" font-family="sans-serif" font-size="14" lengthAdjust="spacing" textLength="79" x="136.75" y="447.8535">VisitRequest</text><line style="stroke:#181818;stroke-width:0.5;" x1="89.5" x2="233.5" y1="459" y2="459"/><line style="stroke:#181818;stroke-width:0.5;" x1="89.5" x2="233.5" y1="467" y2="467"/><ellipse cx="99.5" cy="480.3203" fill="#84BE84" rx="3" ry="3" style="stroke:#038048;stroke-width:1.0;"/><text fill="#000000" font-family="sans-serif" font-size="14" lengthAdjust="spacing" textLength="93" x="108.5" y="483.6738">VisitRequest():</text><ellipse cx="99.5" cy="495.9609" fill="#84BE84" rx="3" ry="3" style="stroke:#038048;stroke-width:1.0;"/><text fill="#000000" font-family="sans-serif" font-size="14" lengthAdjust="spacing" textLength="117" x="108.5" y="499.3145">addVisitRequest():</text><ellipse cx="99.5" cy="511.6016" fill="#84BE84" rx="3" ry="3" style="stroke:#038048;stroke-width:1.0;"/><text fill="#000000" font-family="sans-serif" font-size="14" lengthAdjust="spacing" textLength="120" x="108.5" y="514.9551">getVisitRequests():</text></g><!--class VisitRequestDTO--><g id="elem_VisitRequestDTO"><rect codeLine="87" fill="#F1F1F1" height="94.9219" id="VisitRequestDTO" rx="2.5" ry="2.5" style="stroke:#181818;stroke-width:0.5;" width="149" x="374" y="1158"/><ellipse cx="392.6" cy="1174" fill="#ADD1B2" rx="11" ry="11" style="stroke:#181818;stroke-width:1.0;"/><path d="M395.3656,1169.875 Q395.5219,1169.6563 395.7094,1169.5469 Q395.8969,1169.4375 396.1156,1169.4375 Q396.4906,1169.4375 396.725,1169.7031 Q396.9594,1169.9531 396.9594,1170.5625 L396.9594,1172.0156 Q396.9594,1172.625 396.725,1172.8906 Q396.4906,1173.1563 396.1156,1173.1563 Q395.7719,1173.1563 395.5688,1172.9531 Q395.3656,1172.7656 395.2563,1172.25 Q395.2094,1171.8906 395.0219,1171.7031 Q394.6938,1171.3281 394.0844,1171.1094 Q393.475,1170.8906 392.85,1170.8906 Q392.0844,1170.8906 391.4438,1171.2188 Q390.8188,1171.5469 390.3188,1172.2969 Q389.8344,1173.0469 389.8344,1174.0781 L389.8344,1175.1719 Q389.8344,1176.4063 390.725,1177.2344 Q391.6156,1178.0469 393.2094,1178.0469 Q394.1469,1178.0469 394.8031,1177.7969 Q395.1938,1177.6406 395.6156,1177.2031 Q395.8813,1176.9375 396.0219,1176.8594 Q396.1781,1176.7813 396.3813,1176.7813 Q396.7094,1176.7813 396.9594,1177.0469 Q397.225,1177.2969 397.225,1177.6406 Q397.225,1177.9844 396.8813,1178.3906 Q396.3813,1178.9688 395.5844,1179.2969 Q394.5063,1179.75 393.2094,1179.75 Q391.6938,1179.75 390.4906,1179.125 Q389.5063,1178.625 388.8188,1177.5625 Q388.1313,1176.4844 388.1313,1175.2031 L388.1313,1174.0469 Q388.1313,1172.7188 388.7406,1171.5781 Q389.3656,1170.4219 390.4594,1169.8125 Q391.5531,1169.1875 392.7875,1169.1875 Q393.5219,1169.1875 394.1625,1169.3594 Q394.8188,1169.5156 395.3656,1169.875 Z " fill="#000000"/><text fill="#000000" font-family="sans-serif" font-size="14" lengthAdjust="spacing" textLength="109" x="407.4" y="1178.8535">VisitRequestDTO</text><line style="stroke:#181818;stroke-width:0.5;" x1="375" x2="522" y1="1190" y2="1190"/><line style="stroke:#181818;stroke-width:0.5;" x1="375" x2="522" y1="1198" y2="1198"/><ellipse cx="385" cy="1211.3203" fill="#84BE84" rx="3" ry="3" style="stroke:#038048;stroke-width:1.0;"/><text fill="#000000" font-family="sans-serif" font-size="14" lengthAdjust="spacing" textLength="123" x="394" y="1214.6738">VisitRequestDTO():</text><ellipse cx="385" cy="1226.9609" fill="#84BE84" rx="3" ry="3" style="stroke:#038048;stroke-width:1.0;"/><text fill="#000000" font-family="sans-serif" font-size="14" lengthAdjust="spacing" textLength="117" x="394" y="1230.3145">addVisitRequest():</text><ellipse cx="385" cy="1242.6016" fill="#84BE84" rx="3" ry="3" style="stroke:#038048;stroke-width:1.0;"/><text fill="#000000" font-family="sans-serif" font-size="14" lengthAdjust="spacing" textLength="120" x="394" y="1245.9551">getVisitRequests():</text></g><!--class VisitRequestMapper--><g id="elem_VisitRequestMapper"><rect codeLine="93" fill="#F1F1F1" height="94.9219" id="VisitRequestMapper" rx="2.5" ry="2.5" style="stroke:#181818;stroke-width:0.5;" width="167" x="365" y="956"/><ellipse cx="383.6" cy="972" fill="#ADD1B2" rx="11" ry="11" style="stroke:#181818;stroke-width:1.0;"/><path d="M386.3656,967.875 Q386.5219,967.6563 386.7094,967.5469 Q386.8969,967.4375 387.1156,967.4375 Q387.4906,967.4375 387.725,967.7031 Q387.9594,967.9531 387.9594,968.5625 L387.9594,970.0156 Q387.9594,970.625 387.725,970.8906 Q387.4906,971.1563 387.1156,971.1563 Q386.7719,971.1563 386.5688,970.9531 Q386.3656,970.7656 386.2563,970.25 Q386.2094,969.8906 386.0219,969.7031 Q385.6938,969.3281 385.0844,969.1094 Q384.475,968.8906 383.85,968.8906 Q383.0844,968.8906 382.4438,969.2188 Q381.8188,969.5469 381.3188,970.2969 Q380.8344,971.0469 380.8344,972.0781 L380.8344,973.1719 Q380.8344,974.4063 381.725,975.2344 Q382.6156,976.0469 384.2094,976.0469 Q385.1469,976.0469 385.8031,975.7969 Q386.1938,975.6406 386.6156,975.2031 Q386.8813,974.9375 387.0219,974.8594 Q387.1781,974.7813 387.3813,974.7813 Q387.7094,974.7813 387.9594,975.0469 Q388.225,975.2969 388.225,975.6406 Q388.225,975.9844 387.8813,976.3906 Q387.3813,976.9688 386.5844,977.2969 Q385.5063,977.75 384.2094,977.75 Q382.6938,977.75 381.4906,977.125 Q380.5063,976.625 379.8188,975.5625 Q379.1313,974.4844 379.1313,973.2031 L379.1313,972.0469 Q379.1313,970.7188 379.7406,969.5781 Q380.3656,968.4219 381.4594,967.8125 Q382.5531,967.1875 383.7875,967.1875 Q384.5219,967.1875 385.1625,967.3594 Q385.8188,967.5156 386.3656,967.875 Z " fill="#000000"/><text fill="#000000" font-family="sans-serif" font-size="14" lengthAdjust="spacing" textLength="127" x="398.4" y="976.8535">VisitRequestMapper</text><line style="stroke:#181818;stroke-width:0.5;" x1="366" x2="531" y1="988" y2="988"/><line style="stroke:#181818;stroke-width:0.5;" x1="366" x2="531" y1="996" y2="996"/><ellipse cx="376" cy="1009.3203" fill="#84BE84" rx="3" ry="3" style="stroke:#038048;stroke-width:1.0;"/><text fill="#000000" font-family="sans-serif" font-size="14" lengthAdjust="spacing" textLength="141" x="385" y="1012.6738">VisitRequestMapper():</text><ellipse cx="376" cy="1024.9609" fill="#84BE84" rx="3" ry="3" style="stroke:#038048;stroke-width:1.0;"/><text fill="#000000" font-family="sans-serif" font-size="14" lengthAdjust="spacing" textLength="117" x="385" y="1028.3145">addVisitRequest():</text><ellipse cx="376" cy="1040.6016" fill="#84BE84" rx="3" ry="3" style="stroke:#038048;stroke-width:1.0;"/><text fill="#000000" font-family="sans-serif" font-size="14" lengthAdjust="spacing" textLength="120" x="385" y="1043.9551">getVisitRequests():</text></g><!--class VisitRequestRepository--><g id="elem_VisitRequestRepository"><rect codeLine="99" fill="#F1F1F1" height="94.9219" id="VisitRequestRepository" rx="2.5" ry="2.5" style="stroke:#181818;stroke-width:0.5;" width="187" x="355" y="715"/><ellipse cx="373.6" cy="731" fill="#ADD1B2" rx="11" ry="11" style="stroke:#181818;stroke-width:1.0;"/><path d="M376.3656,726.875 Q376.5219,726.6563 376.7094,726.5469 Q376.8969,726.4375 377.1156,726.4375 Q377.4906,726.4375 377.725,726.7031 Q377.9594,726.9531 377.9594,727.5625 L377.9594,729.0156 Q377.9594,729.625 377.725,729.8906 Q377.4906,730.1563 377.1156,730.1563 Q376.7719,730.1563 376.5688,729.9531 Q376.3656,729.7656 376.2563,729.25 Q376.2094,728.8906 376.0219,728.7031 Q375.6938,728.3281 375.0844,728.1094 Q374.475,727.8906 373.85,727.8906 Q373.0844,727.8906 372.4438,728.2188 Q371.8188,728.5469 371.3188,729.2969 Q370.8344,730.0469 370.8344,731.0781 L370.8344,732.1719 Q370.8344,733.4063 371.725,734.2344 Q372.6156,735.0469 374.2094,735.0469 Q375.1469,735.0469 375.8031,734.7969 Q376.1938,734.6406 376.6156,734.2031 Q376.8813,733.9375 377.0219,733.8594 Q377.1781,733.7813 377.3813,733.7813 Q377.7094,733.7813 377.9594,734.0469 Q378.225,734.2969 378.225,734.6406 Q378.225,734.9844 377.8813,735.3906 Q377.3813,735.9688 376.5844,736.2969 Q375.5063,736.75 374.2094,736.75 Q372.6938,736.75 371.4906,736.125 Q370.5063,735.625 369.8188,734.5625 Q369.1313,733.4844 369.1313,732.2031 L369.1313,731.0469 Q369.1313,729.7188 369.7406,728.5781 Q370.3656,727.4219 371.4594,726.8125 Q372.5531,726.1875 373.7875,726.1875 Q374.5219,726.1875 375.1625,726.3594 Q375.8188,726.5156 376.3656,726.875 Z " fill="#000000"/><text fill="#000000" font-family="sans-serif" font-size="14" lengthAdjust="spacing" textLength="147" x="388.4" y="735.8535">VisitRequestRepository</text><line style="stroke:#181818;stroke-width:0.5;" x1="356" x2="541" y1="747" y2="747"/><line style="stroke:#181818;stroke-width:0.5;" x1="356" x2="541" y1="755" y2="755"/><ellipse cx="366" cy="768.3203" fill="#84BE84" rx="3" ry="3" style="stroke:#038048;stroke-width:1.0;"/><text fill="#000000" font-family="sans-serif" font-size="14" lengthAdjust="spacing" textLength="161" x="375" y="771.6738">VisitRequestRepository():</text><ellipse cx="366" cy="783.9609" fill="#84BE84" rx="3" ry="3" style="stroke:#038048;stroke-width:1.0;"/><text fill="#000000" font-family="sans-serif" font-size="14" lengthAdjust="spacing" textLength="117" x="375" y="787.3145">addVisitRequest():</text><ellipse cx="366" cy="799.6016" fill="#84BE84" rx="3" ry="3" style="stroke:#038048;stroke-width:1.0;"/><text fill="#000000" font-family="sans-serif" font-size="14" lengthAdjust="spacing" textLength="120" x="375" y="802.9551">getVisitRequests():</text></g><!--class VisitRequestUI--><g id="elem_VisitRequestUI"><rect codeLine="105" fill="#F1F1F1" height="94.9219" id="VisitRequestUI" rx="2.5" ry="2.5" style="stroke:#181818;stroke-width:0.5;" width="146" x="88.5" y="7"/><ellipse cx="113.85" cy="23" fill="#ADD1B2" rx="11" ry="11" style="stroke:#181818;stroke-width:1.0;"/><path d="M116.6156,18.875 Q116.7719,18.6563 116.9594,18.5469 Q117.1469,18.4375 117.3656,18.4375 Q117.7406,18.4375 117.975,18.7031 Q118.2094,18.9531 118.2094,19.5625 L118.2094,21.0156 Q118.2094,21.625 117.975,21.8906 Q117.7406,22.1563 117.3656,22.1563 Q117.0219,22.1563 116.8188,21.9531 Q116.6156,21.7656 116.5063,21.25 Q116.4594,20.8906 116.2719,20.7031 Q115.9438,20.3281 115.3344,20.1094 Q114.725,19.8906 114.1,19.8906 Q113.3344,19.8906 112.6938,20.2188 Q112.0688,20.5469 111.5688,21.2969 Q111.0844,22.0469 111.0844,23.0781 L111.0844,24.1719 Q111.0844,25.4063 111.975,26.2344 Q112.8656,27.0469 114.4594,27.0469 Q115.3969,27.0469 116.0531,26.7969 Q116.4438,26.6406 116.8656,26.2031 Q117.1313,25.9375 117.2719,25.8594 Q117.4281,25.7813 117.6313,25.7813 Q117.9594,25.7813 118.2094,26.0469 Q118.475,26.2969 118.475,26.6406 Q118.475,26.9844 118.1313,27.3906 Q117.6313,27.9688 116.8344,28.2969 Q115.7563,28.75 114.4594,28.75 Q112.9438,28.75 111.7406,28.125 Q110.7563,27.625 110.0688,26.5625 Q109.3813,25.4844 109.3813,24.2031 L109.3813,23.0469 Q109.3813,21.7188 109.9906,20.5781 Q110.6156,19.4219 111.7094,18.8125 Q112.8031,18.1875 114.0375,18.1875 Q114.7719,18.1875 115.4125,18.3594 Q116.0688,18.5156 116.6156,18.875 Z " fill="#000000"/><text fill="#000000" font-family="sans-serif" font-size="14" lengthAdjust="spacing" textLength="91" x="130.15" y="27.8535">VisitRequestUI</text><line style="stroke:#181818;stroke-width:0.5;" x1="89.5" x2="233.5" y1="39" y2="39"/><line style="stroke:#181818;stroke-width:0.5;" x1="89.5" x2="233.5" y1="47" y2="47"/><ellipse cx="99.5" cy="60.3203" fill="#84BE84" rx="3" ry="3" style="stroke:#038048;stroke-width:1.0;"/><text fill="#000000" font-family="sans-serif" font-size="14" lengthAdjust="spacing" textLength="105" x="108.5" y="63.6738">VisitRequestUI():</text><ellipse cx="99.5" cy="75.9609" fill="#84BE84" rx="3" ry="3" style="stroke:#038048;stroke-width:1.0;"/><text fill="#000000" font-family="sans-serif" font-size="14" lengthAdjust="spacing" textLength="117" x="108.5" y="79.3145">addVisitRequest():</text><ellipse cx="99.5" cy="91.6016" fill="#84BE84" rx="3" ry="3" style="stroke:#038048;stroke-width:1.0;"/><text fill="#000000" font-family="sans-serif" font-size="14" lengthAdjust="spacing" textLength="120" x="108.5" y="94.9551">getVisitRequests():</text></g><!--link VisitRequest to MessagesOfClientRepository--><g id="link_VisitRequest_MessagesOfClientRepository"><path codeLine="111" d="M162.13,535.11 C162.59,578.98 163.21,638.96 163.71,686.15 " fill="none" id="VisitRequest-MessagesOfClientRepository" style="stroke:#181818;stroke-width:1.0;"/><polygon fill="#181818" points="161.99,522.09,158.0496,528.1293,162.1088,534.0894,166.0492,528.0501,161.99,522.09" style="stroke:#181818;stroke-width:1.0;"/><polygon fill="#181818" points="163.85,699.42,167.7608,690.3809,163.8006,694.4202,159.7612,690.46,163.85,699.42" style="stroke:#181818;stroke-width:1.0;"/><line style="stroke:#181818;stroke-width:1.0;" x1="163.8006" x2="163.71" y1="694.4202" y2="686.415"/><text fill="#000000" font-family="sans-serif" font-size="13" lengthAdjust="spacing" textLength="60" x="164.5" y="642.7686">Messages</text><text fill="#000000" font-family="sans-serif" font-size="13" lengthAdjust="spacing" textLength="7" x="154.5667" y="541.5776">1</text></g><!--link VisitRequestController to VisitRequest--><g id="link_VisitRequestController_VisitRequest"><path codeLine="112" d="M161.5,286.45 C161.5,325.11 161.5,375.19 161.5,413.8 " fill="none" id="VisitRequestController-VisitRequest" style="stroke:#181818;stroke-width:1.0;"/><polygon fill="#181818" points="161.5,273.25,157.5,279.25,161.5,285.25,165.5,279.25,161.5,273.25" style="stroke:#181818;stroke-width:1.0;"/><polygon fill="#181818" points="161.5,426.94,165.5,417.94,161.5,421.94,157.5,417.94,161.5,426.94" style="stroke:#181818;stroke-width:1.0;"/><line style="stroke:#181818;stroke-width:1.0;" x1="161.5" x2="161.5" y1="421.94" y2="413.94"/><text fill="#000000" font-family="sans-serif" font-size="13" lengthAdjust="spacing" textLength="36" x="162.5" y="315.7686">create</text><text fill="#000000" font-family="sans-serif" font-size="13" lengthAdjust="spacing" textLength="7" x="154.0078" y="292.7601">1</text></g><!--link VisitRequestUI to VisitRequestController--><g id="link_VisitRequestUI_VisitRequestController"><path codeLine="113" d="M161.5,115.24 C161.5,131.27 161.5,148.59 161.5,164.63 " fill="none" id="VisitRequestUI-VisitRequestController" style="stroke:#181818;stroke-width:1.0;"/><polygon fill="#181818" points="161.5,102.13,157.5,108.13,161.5,114.13,165.5,108.13,161.5,102.13" style="stroke:#181818;stroke-width:1.0;"/><polygon fill="#181818" points="161.5,177.73,165.5,168.73,161.5,172.73,157.5,168.73,161.5,177.73" style="stroke:#181818;stroke-width:1.0;"/><line style="stroke:#181818;stroke-width:1.0;" x1="161.5" x2="161.5" y1="172.73" y2="164.73"/><text fill="#000000" font-family="sans-serif" font-size="13" lengthAdjust="spacing" textLength="36" x="162.5" y="144.7686">create</text><text fill="#000000" font-family="sans-serif" font-size="13" lengthAdjust="spacing" textLength="7" x="154.0078" y="121.6232">1</text></g><!--link ClientRepository to Client--><g id="link_ClientRepository_Client"><path codeLine="114" d="M839.08,862.08 C837.64,881.07 836.16,900.8 834.77,919.24 " fill="none" id="ClientRepository-Client" style="stroke:#181818;stroke-width:1.0;"/><polygon fill="#181818" points="840.05,849.11,835.6126,854.7942,839.1528,861.0764,843.5902,855.3923,840.05,849.11" style="stroke:#181818;stroke-width:1.0;"/><polygon fill="#181818" points="833.78,932.42,838.4417,923.7442,834.1538,927.434,830.4641,923.1461,833.78,932.42" style="stroke:#181818;stroke-width:1.0;"/><line style="stroke:#181818;stroke-width:1.0;" x1="834.1538" x2="834.755" y1="927.434" y2="919.46"/><text fill="#000000" font-family="sans-serif" font-size="13" lengthAdjust="spacing" textLength="7" x="832.1949" y="868.9403">1</text><text fill="#000000" font-family="sans-serif" font-size="13" lengthAdjust="spacing" textLength="38" x="794.2794" y="921.6857">clients</text></g><!--link Repositories to MessagesOfClientRepository--><g id="link_Repositories_MessagesOfClientRepository"><path codeLine="115" d="M316.08,609.39 C288.44,637.12 260.35,665.31 235.98,689.77 " fill="none" id="Repositories-MessagesOfClientRepository" style="stroke:#181818;stroke-width:1.0;"/><polygon fill="#181818" points="325.32,600.11,318.2522,601.5407,316.8545,608.615,323.9223,607.1843,325.32,600.11" style="stroke:#181818;stroke-width:1.0;"/><polygon fill="#181818" points="226.48,699.3,235.6669,695.7502,230.01,695.759,230.0012,690.1021,226.48,699.3" style="stroke:#181818;stroke-width:1.0;"/><line style="stroke:#181818;stroke-width:1.0;" x1="230.01" x2="235.66" y1="695.759" y2="690.09"/><text fill="#000000" font-family="sans-serif" font-size="13" lengthAdjust="spacing" textLength="36" x="291.5" y="642.7686">create</text><text fill="#000000" font-family="sans-serif" font-size="13" lengthAdjust="spacing" textLength="7" x="310.5395" y="619.9654">1</text></g><!--link Repositories to ClientRepository--><g id="link_Repositories_ClientRepository"><path codeLine="116" d="M633.33,607.93 C661.64,628.33 690.36,649.01 717.15,668.32 " fill="none" id="Repositories-ClientRepository" style="stroke:#181818;stroke-width:1.0;"/><polygon fill="#181818" points="622.48,600.11,625.0081,606.8634,632.2144,607.1272,629.6863,600.3738,622.48,600.11" style="stroke:#181818;stroke-width:1.0;"/><polygon fill="#181818" points="727.71,675.93,722.7483,667.4223,723.654,673.0062,718.0701,673.9119,727.71,675.93" style="stroke:#181818;stroke-width:1.0;"/><line style="stroke:#181818;stroke-width:1.0;" x1="723.654" x2="717.17" y1="673.0062" y2="668.33"/><text fill="#000000" font-family="sans-serif" font-size="13" lengthAdjust="spacing" textLength="36" x="684.5" y="642.7686">create</text><text fill="#000000" font-family="sans-serif" font-size="13" lengthAdjust="spacing" textLength="7" x="625.8077" y="619.9654">1</text></g><!--link Repositories to VisitRequestRepository--><g id="link_Repositories_VisitRequestRepository"><path codeLine="117" d="M449.02,613.5 C448.91,644.4 448.8,675.6 448.71,701.34 " fill="none" id="Repositories-VisitRequestRepository" style="stroke:#181818;stroke-width:1.0;"/><polygon fill="#181818" points="449.06,600.11,445.0402,606.0968,449.0204,612.1099,453.0402,606.1232,449.06,600.11" style="stroke:#181818;stroke-width:1.0;"/><polygon fill="#181818" points="448.66,714.66,452.6896,705.6732,448.6765,709.66,444.6897,705.6469,448.66,714.66" style="stroke:#181818;stroke-width:1.0;"/><line style="stroke:#181818;stroke-width:1.0;" x1="448.6765" x2="448.71" y1="709.66" y2="701.655"/><text fill="#000000" font-family="sans-serif" font-size="13" lengthAdjust="spacing" textLength="36" x="449.5" y="642.7686">create</text><text fill="#000000" font-family="sans-serif" font-size="13" lengthAdjust="spacing" textLength="7" x="441.8199" y="619.9654">1</text></g><!--link ClientRepository to ClientMapper--><g id="link_ClientRepository_ClientMapper"><path codeLine="118" d="M989.07,856.34 C1037.18,887.68 1089.25,921.59 1131.11,948.85 " fill="none" id="ClientRepository-ClientMapper" style="stroke:#181818;stroke-width:1.0;"/><polygon fill="#181818" points="977.96,849.11,980.8043,855.7365,988.015,855.6596,985.1707,849.0331,977.96,849.11" style="stroke:#181818;stroke-width:1.0;"/><polygon fill="#181818" points="1142.08,955.99,1136.7219,947.7261,1137.8904,953.261,1132.3556,954.4295,1142.08,955.99" style="stroke:#181818;stroke-width:1.0;"/><line style="stroke:#181818;stroke-width:1.0;" x1="1137.8904" x2="1131.185" y1="953.261" y2="948.895"/><text fill="#000000" font-family="sans-serif" font-size="13" lengthAdjust="spacing" textLength="30" x="1041.5" y="891.7686">Uses</text><text fill="#000000" font-family="sans-serif" font-size="13" lengthAdjust="spacing" textLength="7" x="981.9566" y="868.9403">1</text></g><!--link ClientMapper to ClientDTO--><g id="link_ClientMapper_ClientDTO"><path codeLine="119" d="M1213.5,1064.42 C1213.5,1089.77 1213.5,1119.23 1213.5,1144.57 " fill="none" id="ClientMapper-ClientDTO" style="stroke:#181818;stroke-width:1.0;"/><polygon fill="#181818" points="1213.5,1051.14,1209.5,1057.14,1213.5,1063.14,1217.5,1057.14,1213.5,1051.14" style="stroke:#181818;stroke-width:1.0;"/><polygon fill="#181818" points="1213.5,1157.79,1217.5,1148.79,1213.5,1152.79,1209.5,1148.79,1213.5,1157.79" style="stroke:#181818;stroke-width:1.0;"/><line style="stroke:#181818;stroke-width:1.0;" x1="1213.5" x2="1213.5" y1="1152.79" y2="1144.79"/><text fill="#000000" font-family="sans-serif" font-size="13" lengthAdjust="spacing" textLength="36" x="1214.5" y="1124.7686">create</text><text fill="#000000" font-family="sans-serif" font-size="13" lengthAdjust="spacing" textLength="7" x="1206.0078" y="1070.6346">1</text></g><!--link VisitRequestRepository to VisitRequestMapper--><g id="link_VisitRequestRepository_VisitRequestMapper"><path codeLine="120" d="M448.5,823.28 C448.5,859.69 448.5,906.07 448.5,942.52 " fill="none" id="VisitRequestRepository-VisitRequestMapper" style="stroke:#181818;stroke-width:1.0;"/><polygon fill="#181818" points="448.5,810.15,444.5,816.15,448.5,822.15,452.5,816.15,448.5,810.15" style="stroke:#181818;stroke-width:1.0;"/><polygon fill="#181818" points="448.5,955.97,452.5,946.97,448.5,950.97,444.5,946.97,448.5,955.97" style="stroke:#181818;stroke-width:1.0;"/><line style="stroke:#181818;stroke-width:1.0;" x1="448.5" x2="448.5" y1="950.97" y2="942.97"/><text fill="#000000" font-family="sans-serif" font-size="13" lengthAdjust="spacing" textLength="30" x="449.5" y="891.7686">Uses</text><text fill="#000000" font-family="sans-serif" font-size="13" lengthAdjust="spacing" textLength="7" x="441.0078" y="829.646">1</text></g><!--link VisitRequestMapper to VisitRequestDTO--><g id="link_VisitRequestMapper_VisitRequestDTO"><path codeLine="121" d="M448.5,1064.42 C448.5,1089.77 448.5,1119.23 448.5,1144.57 " fill="none" id="VisitRequestMapper-VisitRequestDTO" style="stroke:#181818;stroke-width:1.0;"/><polygon fill="#181818" points="448.5,1051.14,444.5,1057.14,448.5,1063.14,452.5,1057.14,448.5,1051.14" style="stroke:#181818;stroke-width:1.0;"/><polygon fill="#181818" points="448.5,1157.79,452.5,1148.79,448.5,1152.79,444.5,1148.79,448.5,1157.79" style="stroke:#181818;stroke-width:1.0;"/><line style="stroke:#181818;stroke-width:1.0;" x1="448.5" x2="448.5" y1="1152.79" y2="1144.79"/><text fill="#000000" font-family="sans-serif" font-size="13" lengthAdjust="spacing" textLength="36" x="449.5" y="1124.7686">create</text><text fill="#000000" font-family="sans-serif" font-size="13" lengthAdjust="spacing" textLength="7" x="441.0078" y="1070.6346">1</text></g><!--link MessagesOfClientRepository to Message--><g id="link_MessagesOfClientRepository_Message"><path codeLine="122" d="M164.5,838.8 C164.5,861.92 164.5,887.61 164.5,911.65 " fill="none" id="MessagesOfClientRepository-Message" style="stroke:#181818;stroke-width:1.0;"/><polygon fill="#181818" points="164.5,825.67,160.5,831.67,164.5,837.67,168.5,831.67,164.5,825.67" style="stroke:#181818;stroke-width:1.0;"/><polygon fill="#181818" points="164.5,924.81,168.5,915.81,164.5,919.81,160.5,915.81,164.5,924.81" style="stroke:#181818;stroke-width:1.0;"/><line style="stroke:#181818;stroke-width:1.0;" x1="164.5" x2="164.5" y1="919.81" y2="911.81"/><text fill="#000000" font-family="sans-serif" font-size="13" lengthAdjust="spacing" textLength="36" x="165.5" y="891.7686">create</text><text fill="#000000" font-family="sans-serif" font-size="13" lengthAdjust="spacing" textLength="7" x="157.0953" y="845.5705">1</text></g><!--SRC=[hLRDZjem4BxdAQoSsB8SscDK8R4_1wHkgVZftIG6h7NiD3PiqwfzeJv2R_jaTH8xiHq7A0kNu9dnzuq_pqp2dp7DO0vJaC7u6MxHGXG4WHp50j8jGG5l0lWE9km5qotOGC9D3y4KYI9386EaA1S1GHi110Cvtku4I729XnaD1CjAyve9mLB3Re35178-4IB7wxr0qvZH1Vw1GFWX38BA1-u9HbI0dm40GxKOB6GytTu2_SHKj8k-vvmHn6yYYJC2MSuob0kCU0G-OIu-VgaDnRXo7o312HHe2Rz_tgThb0yamqq43WmdLHumIVIEWVxJ-bk0sGkLcz-IhiOybl8lMwivoXZ7WkM5fLfh7bGg_9RYbtQDLqVP0YYzwuSZm1Nk0iooiY0WCSY7iXnJTkXGhvdS0saLiKMYjjyLxXNLTlUIbio2kmNTI-jHmz7s2MPodwLhRQer7SfwVs0fn5GnFLA1AnOZBy5gQtisCzPbV5ZEB3gvxd3ruFSYDwKWgwa27racNH-gv8gsSg96kDPMXSAzs4aY7CFoGiqDanwFKO5ck5khLNAOSZcWOXHPQTR4bBAzTAKEpiHhhxPm-G-PiGlRK1R3VyEUBrR_QSwJupAjJv-wgOudnBbyD_3PfcUUz0VeoabLX6ecjM6isrAj1-ff3XRPsXh-hd1dW0lMo-EUnKwycLaQk2goMdoZaqOQFb9poqcmx2_ReV8rsx4Bsq5jalsAfOfpz6sFkBXdLEICa6RO-9rw54XHpG1jbZcPvggplNGUacj1jmFCiLwBm9h9NSUrQ3fju7TUYsurzT2iffV1MrVj_iBt8NWt6er1sD_O8OX0-Ff71xp-3OEUQdKnpJ254kT8Vbku6FB0VNdvgJfedN7bHrCl-b2tfFKsV8CuRI9d8buBnr-8byfZVjKeZ1Mlhzpw1ZfrBjdXH- -xauZ_GDv4FEr_IXXVEaVUT9wRxsp_1m00]--></g></svg>
