<?xml version="1.0" encoding="us-ascii" standalone="no"?><svg xmlns="http://www.w3.org/2000/svg" xmlns:xlink="http://www.w3.org/1999/xlink" contentStyleType="text/css" height="905px" preserveAspectRatio="none" style="width:2080px;height:905px;background:#FFFFFF;" version="1.1" viewBox="0 0 2080 905" width="2080px" zoomAndPan="magnify"><defs/><g><rect fill="#FFFFFF" height="726.2031" style="stroke:#181818;stroke-width:1.0;" width="10" x="21" y="90.6406"/><rect fill="#FFFFFF" height="411.4453" style="stroke:#181818;stroke-width:1.0;" width="10" x="302" y="111.1641"/><rect fill="#FFFFFF" height="256.7109" style="stroke:#181818;stroke-width:1.0;" width="10" x="302" y="551.1328"/><rect fill="#FFFFFF" height="313.7578" style="stroke:#181818;stroke-width:1.0;" width="10" x="660" y="180.3281"/><rect fill="#FFFFFF" height="199.6641" style="stroke:#181818;stroke-width:1.0;" width="10" x="660" y="579.6563"/><rect fill="#FFFFFF" height="142.6172" style="stroke:#181818;stroke-width:1.0;" width="10" x="839" y="322.9453"/><rect fill="#FFFFFF" height="28.5234" style="stroke:#181818;stroke-width:1.0;" width="10" x="980" y="208.8516"/><rect fill="#FFFFFF" height="28.5234" style="stroke:#181818;stroke-width:1.0;" width="10" x="980" y="608.1797"/><rect fill="#FFFFFF" height="28.5234" style="stroke:#181818;stroke-width:1.0;" width="10" x="1087" y="265.8984"/><rect fill="#FFFFFF" height="28.5234" style="stroke:#181818;stroke-width:1.0;" width="10" x="1087" y="665.2266"/><rect fill="#FFFFFF" height="85.5703" style="stroke:#181818;stroke-width:1.0;" width="10" x="1283.5" y="351.4688"/><rect fill="#FFFFFF" height="28.5234" style="stroke:#181818;stroke-width:1.0;" width="10" x="1551.5" y="379.9922"/><rect fill="#FFFFFF" height="28.5234" style="stroke:#181818;stroke-width:1.0;" width="10" x="1875.5" y="722.2734"/><line style="stroke:#181818;stroke-width:0.5;stroke-dasharray:5.0,5.0;" x1="26" x2="26" y1="80.6406" y2="825.8438"/><line style="stroke:#181818;stroke-width:0.5;stroke-dasharray:5.0,5.0;" x1="306.5" x2="306.5" y1="80.6406" y2="825.8438"/><line style="stroke:#181818;stroke-width:0.5;stroke-dasharray:5.0,5.0;" x1="664.5" x2="664.5" y1="149.4844" y2="825.8438"/><line style="stroke:#181818;stroke-width:0.5;stroke-dasharray:5.0,5.0;" x1="843.5" x2="843.5" y1="80.6406" y2="825.8438"/><line style="stroke:#181818;stroke-width:0.5;stroke-dasharray:5.0,5.0;" x1="984.5" x2="984.5" y1="80.6406" y2="825.8438"/><line style="stroke:#181818;stroke-width:0.5;stroke-dasharray:5.0,5.0;" x1="1091.5" x2="1091.5" y1="80.6406" y2="825.8438"/><line style="stroke:#181818;stroke-width:0.5;stroke-dasharray:5.0,5.0;" x1="1288.5" x2="1288.5" y1="80.6406" y2="825.8438"/><line style="stroke:#181818;stroke-width:0.5;stroke-dasharray:5.0,5.0;" x1="1556.5" x2="1556.5" y1="80.6406" y2="825.8438"/><line style="stroke:#181818;stroke-width:0.5;stroke-dasharray:5.0,5.0;" x1="1880.5" x2="1880.5" y1="80.6406" y2="825.8438"/><text fill="#000000" font-family="sans-serif" font-size="14" lengthAdjust="spacing" textLength="36" x="5" y="77.6738">Client</text><ellipse cx="26" cy="13.5" fill="#E3E3E3" rx="8" ry="8" style="stroke:#181818;stroke-width:0.5;"/><path d="M26,21.5 L26,48.5 M13,29.5 L39,29.5 M26,48.5 L13,63.5 M26,48.5 L39,63.5 " fill="none" style="stroke:#181818;stroke-width:0.5;"/><text fill="#000000" font-family="sans-serif" font-size="14" lengthAdjust="spacing" textLength="36" x="5" y="837.5176">Client</text><ellipse cx="26" cy="848.9844" fill="#E3E3E3" rx="8" ry="8" style="stroke:#181818;stroke-width:0.5;"/><path d="M26,856.9844 L26,883.9844 M13,864.9844 L39,864.9844 M26,883.9844 L13,898.9844 M26,883.9844 L39,898.9844 " fill="none" style="stroke:#181818;stroke-width:0.5;"/><rect fill="#E3E3E3" height="29.6406" rx="2.5" ry="2.5" style="stroke:#181818;stroke-width:0.5;" width="109" x="252.5" y="50"/><text fill="#000000" font-family="sans-serif" font-size="14" lengthAdjust="spacing" textLength="95" x="259.5" y="69.6738">:VisitRequestUI</text><rect fill="#E3E3E3" height="29.6406" rx="2.5" ry="2.5" style="stroke:#181818;stroke-width:0.5;" width="109" x="252.5" y="824.8438"/><text fill="#000000" font-family="sans-serif" font-size="14" lengthAdjust="spacing" textLength="95" x="259.5" y="844.5176">:VisitRequestUI</text><rect fill="#E3E3E3" height="29.6406" rx="2.5" ry="2.5" style="stroke:#181818;stroke-width:0.5;" width="159" x="585.5" y="824.8438"/><text fill="#000000" font-family="sans-serif" font-size="14" lengthAdjust="spacing" textLength="145" x="592.5" y="844.5176">:VisitRequestController</text><rect fill="#E3E3E3" height="29.6406" rx="2.5" ry="2.5" style="stroke:#181818;stroke-width:0.5;" width="165" x="761.5" y="50"/><text fill="#000000" font-family="sans-serif" font-size="14" lengthAdjust="spacing" textLength="151" x="768.5" y="69.6738">:VisitRequestRepository</text><rect fill="#E3E3E3" height="29.6406" rx="2.5" ry="2.5" style="stroke:#181818;stroke-width:0.5;" width="165" x="761.5" y="824.8438"/><text fill="#000000" font-family="sans-serif" font-size="14" lengthAdjust="spacing" textLength="151" x="768.5" y="844.5176">:VisitRequestRepository</text><rect fill="#E3E3E3" height="29.6406" rx="2.5" ry="2.5" style="stroke:#181818;stroke-width:0.5;" width="97" x="936.5" y="50"/><text fill="#000000" font-family="sans-serif" font-size="14" lengthAdjust="spacing" textLength="83" x="943.5" y="69.6738">:Repositories</text><rect fill="#E3E3E3" height="29.6406" rx="2.5" ry="2.5" style="stroke:#181818;stroke-width:0.5;" width="97" x="936.5" y="824.8438"/><text fill="#000000" font-family="sans-serif" font-size="14" lengthAdjust="spacing" textLength="83" x="943.5" y="844.5176">:Repositories</text><rect fill="#E3E3E3" height="45.2813" rx="2.5" ry="2.5" style="stroke:#181818;stroke-width:0.5;" width="97" x="1043.5" y="34.3594"/><text fill="#000000" font-family="sans-serif" font-size="14" lengthAdjust="spacing" textLength="74" x="1055" y="54.0332">repositories</text><text fill="#000000" font-family="sans-serif" font-size="14" lengthAdjust="spacing" textLength="83" x="1050.5" y="69.6738">:Repositories</text><rect fill="#E3E3E3" height="45.2813" rx="2.5" ry="2.5" style="stroke:#181818;stroke-width:0.5;" width="97" x="1043.5" y="824.8438"/><text fill="#000000" font-family="sans-serif" font-size="14" lengthAdjust="spacing" textLength="74" x="1055" y="844.5176">repositories</text><text fill="#000000" font-family="sans-serif" font-size="14" lengthAdjust="spacing" textLength="83" x="1050.5" y="860.1582">:Repositories</text><rect fill="#E3E3E3" height="29.6406" rx="2.5" ry="2.5" style="stroke:#181818;stroke-width:0.5;" width="276" x="1150.5" y="50"/><text fill="#000000" font-family="sans-serif" font-size="14" lengthAdjust="spacing" textLength="262" x="1157.5" y="69.6738">VisitRequestMapper:\VisitRequestMapper</text><rect fill="#E3E3E3" height="29.6406" rx="2.5" ry="2.5" style="stroke:#181818;stroke-width:0.5;" width="276" x="1150.5" y="824.8438"/><text fill="#000000" font-family="sans-serif" font-size="14" lengthAdjust="spacing" textLength="262" x="1157.5" y="844.5176">VisitRequestMapper:\VisitRequestMapper</text><rect fill="#E3E3E3" height="29.6406" rx="2.5" ry="2.5" style="stroke:#181818;stroke-width:0.5;" width="240" x="1436.5" y="50"/><text fill="#000000" font-family="sans-serif" font-size="14" lengthAdjust="spacing" textLength="226" x="1443.5" y="69.6738">VisitRequestDTO:\VisitRequestDTO</text><rect fill="#E3E3E3" height="29.6406" rx="2.5" ry="2.5" style="stroke:#181818;stroke-width:0.5;" width="240" x="1436.5" y="824.8438"/><text fill="#000000" font-family="sans-serif" font-size="14" lengthAdjust="spacing" textLength="226" x="1443.5" y="844.5176">VisitRequestDTO:\VisitRequestDTO</text><rect fill="#E3E3E3" height="29.6406" rx="2.5" ry="2.5" style="stroke:#181818;stroke-width:0.5;" width="388" x="1686.5" y="50"/><text fill="#000000" font-family="sans-serif" font-size="14" lengthAdjust="spacing" textLength="374" x="1693.5" y="69.6738">MessagesOfClientRepository:\MessagesOfClientRepository</text><rect fill="#E3E3E3" height="29.6406" rx="2.5" ry="2.5" style="stroke:#181818;stroke-width:0.5;" width="388" x="1686.5" y="824.8438"/><text fill="#000000" font-family="sans-serif" font-size="14" lengthAdjust="spacing" textLength="374" x="1693.5" y="844.5176">MessagesOfClientRepository:\MessagesOfClientRepository</text><rect fill="#FFFFFF" height="726.2031" style="stroke:#181818;stroke-width:1.0;" width="10" x="21" y="90.6406"/><rect fill="#FFFFFF" height="411.4453" style="stroke:#181818;stroke-width:1.0;" width="10" x="302" y="111.1641"/><rect fill="#FFFFFF" height="256.7109" style="stroke:#181818;stroke-width:1.0;" width="10" x="302" y="551.1328"/><rect fill="#FFFFFF" height="313.7578" style="stroke:#181818;stroke-width:1.0;" width="10" x="660" y="180.3281"/><rect fill="#FFFFFF" height="199.6641" style="stroke:#181818;stroke-width:1.0;" width="10" x="660" y="579.6563"/><rect fill="#FFFFFF" height="142.6172" style="stroke:#181818;stroke-width:1.0;" width="10" x="839" y="322.9453"/><rect fill="#FFFFFF" height="28.5234" style="stroke:#181818;stroke-width:1.0;" width="10" x="980" y="208.8516"/><rect fill="#FFFFFF" height="28.5234" style="stroke:#181818;stroke-width:1.0;" width="10" x="980" y="608.1797"/><rect fill="#FFFFFF" height="28.5234" style="stroke:#181818;stroke-width:1.0;" width="10" x="1087" y="265.8984"/><rect fill="#FFFFFF" height="28.5234" style="stroke:#181818;stroke-width:1.0;" width="10" x="1087" y="665.2266"/><rect fill="#FFFFFF" height="85.5703" style="stroke:#181818;stroke-width:1.0;" width="10" x="1283.5" y="351.4688"/><rect fill="#FFFFFF" height="28.5234" style="stroke:#181818;stroke-width:1.0;" width="10" x="1551.5" y="379.9922"/><rect fill="#FFFFFF" height="28.5234" style="stroke:#181818;stroke-width:1.0;" width="10" x="1875.5" y="722.2734"/><polygon fill="#181818" points="290,107.1641,300,111.1641,290,115.1641,294,111.1641" style="stroke:#181818;stroke-width:1.0;"/><line style="stroke:#181818;stroke-width:1.0;" x1="31" x2="296" y1="111.1641" y2="111.1641"/><text fill="#000000" font-family="sans-serif" font-size="13" font-weight="bold" lengthAdjust="spacing" textLength="7" x="38" y="106.4092">1</text><text fill="#000000" font-family="sans-serif" font-size="13" lengthAdjust="spacing" textLength="231" x="49" y="106.4092">Request the message of the apointment</text><polygon fill="#181818" points="573.5,135.6875,583.5,139.6875,573.5,143.6875,577.5,139.6875" style="stroke:#181818;stroke-width:1.0;"/><line style="stroke:#181818;stroke-width:1.0;" x1="312" x2="579.5" y1="139.6875" y2="139.6875"/><text fill="#000000" font-family="sans-serif" font-size="13" font-weight="bold" lengthAdjust="spacing" textLength="7" x="319" y="134.9326">2</text><text fill="#000000" font-family="sans-serif" font-size="13" lengthAdjust="spacing" textLength="36" x="330" y="134.9326">create</text><rect fill="#E3E3E3" height="29.6406" rx="2.5" ry="2.5" style="stroke:#181818;stroke-width:0.5;" width="159" x="585.5" y="119.1641"/><text fill="#000000" font-family="sans-serif" font-size="14" lengthAdjust="spacing" textLength="145" x="592.5" y="138.8379">:VisitRequestController</text><polygon fill="#181818" points="648,176.3281,658,180.3281,648,184.3281,652,180.3281" style="stroke:#181818;stroke-width:1.0;"/><line style="stroke:#181818;stroke-width:1.0;" x1="312" x2="654" y1="180.3281" y2="180.3281"/><text fill="#000000" font-family="sans-serif" font-size="13" font-weight="bold" lengthAdjust="spacing" textLength="7" x="319" y="175.5732">3</text><text fill="#000000" font-family="sans-serif" font-size="13" lengthAdjust="spacing" textLength="182" x="330" y="175.5732">Get message of the apointment</text><polygon fill="#181818" points="968,204.8516,978,208.8516,968,212.8516,972,208.8516" style="stroke:#181818;stroke-width:1.0;"/><line style="stroke:#181818;stroke-width:1.0;" x1="670" x2="974" y1="208.8516" y2="208.8516"/><text fill="#000000" font-family="sans-serif" font-size="13" font-weight="bold" lengthAdjust="spacing" textLength="7" x="677" y="204.0967">4</text><text fill="#000000" font-family="sans-serif" font-size="13" lengthAdjust="spacing" textLength="75" x="688" y="204.0967">getInstance()</text><polygon fill="#181818" points="681,233.375,671,237.375,681,241.375,677,237.375" style="stroke:#181818;stroke-width:1.0;"/><line style="stroke:#181818;stroke-width:1.0;stroke-dasharray:2.0,2.0;" x1="675" x2="984" y1="237.375" y2="237.375"/><text fill="#000000" font-family="sans-serif" font-size="13" font-weight="bold" lengthAdjust="spacing" textLength="7" x="687" y="232.6201">5</text><text fill="#000000" font-family="sans-serif" font-size="13" lengthAdjust="spacing" textLength="67" x="698" y="232.6201">repositories</text><polygon fill="#181818" points="1075,261.8984,1085,265.8984,1075,269.8984,1079,265.8984" style="stroke:#181818;stroke-width:1.0;"/><line style="stroke:#181818;stroke-width:1.0;" x1="670" x2="1081" y1="265.8984" y2="265.8984"/><text fill="#000000" font-family="sans-serif" font-size="13" font-weight="bold" lengthAdjust="spacing" textLength="7" x="677" y="261.1436">6</text><text fill="#000000" font-family="sans-serif" font-size="13" lengthAdjust="spacing" textLength="162" x="688" y="261.1436">getVisitRequestRepository()</text><polygon fill="#181818" points="681,290.4219,671,294.4219,681,298.4219,677,294.4219" style="stroke:#181818;stroke-width:1.0;"/><line style="stroke:#181818;stroke-width:1.0;stroke-dasharray:2.0,2.0;" x1="675" x2="1091" y1="294.4219" y2="294.4219"/><text fill="#000000" font-family="sans-serif" font-size="13" font-weight="bold" lengthAdjust="spacing" textLength="7" x="687" y="289.667">7</text><text fill="#000000" font-family="sans-serif" font-size="13" lengthAdjust="spacing" textLength="136" x="698" y="289.667">VisitRequestRepository</text><polygon fill="#181818" points="827,318.9453,837,322.9453,827,326.9453,831,322.9453" style="stroke:#181818;stroke-width:1.0;"/><line style="stroke:#181818;stroke-width:1.0;" x1="670" x2="833" y1="322.9453" y2="322.9453"/><text fill="#000000" font-family="sans-serif" font-size="13" font-weight="bold" lengthAdjust="spacing" textLength="7" x="677" y="318.1904">8</text><text fill="#000000" font-family="sans-serif" font-size="13" lengthAdjust="spacing" textLength="108" x="688" y="318.1904">save(VisitRequest)</text><polygon fill="#181818" points="1271.5,347.4688,1281.5,351.4688,1271.5,355.4688,1275.5,351.4688" style="stroke:#181818;stroke-width:1.0;"/><line style="stroke:#181818;stroke-width:1.0;" x1="849" x2="1277.5" y1="351.4688" y2="351.4688"/><text fill="#000000" font-family="sans-serif" font-size="13" font-weight="bold" lengthAdjust="spacing" textLength="7" x="856" y="346.7139">9</text><text fill="#000000" font-family="sans-serif" font-size="13" lengthAdjust="spacing" textLength="117" x="867" y="346.7139">VisitRequestMapper</text><polygon fill="#181818" points="1539.5,375.9922,1549.5,379.9922,1539.5,383.9922,1543.5,379.9922" style="stroke:#181818;stroke-width:1.0;"/><line style="stroke:#181818;stroke-width:1.0;" x1="1293.5" x2="1545.5" y1="379.9922" y2="379.9922"/><text fill="#000000" font-family="sans-serif" font-size="13" font-weight="bold" lengthAdjust="spacing" textLength="14" x="1300.5" y="375.2373">10</text><text fill="#000000" font-family="sans-serif" font-size="13" lengthAdjust="spacing" textLength="100" x="1318.5" y="375.2373">VisitRequestDTO</text><polygon fill="#181818" points="1304.5,404.5156,1294.5,408.5156,1304.5,412.5156,1300.5,408.5156" style="stroke:#181818;stroke-width:1.0;"/><line style="stroke:#181818;stroke-width:1.0;stroke-dasharray:2.0,2.0;" x1="1298.5" x2="1555.5" y1="408.5156" y2="408.5156"/><text fill="#000000" font-family="sans-serif" font-size="13" font-weight="bold" lengthAdjust="spacing" textLength="14" x="1310.5" y="403.7607">11</text><text fill="#000000" font-family="sans-serif" font-size="13" lengthAdjust="spacing" textLength="100" x="1328.5" y="403.7607">VisitRequestDTO</text><polygon fill="#181818" points="860,433.0391,850,437.0391,860,441.0391,856,437.0391" style="stroke:#181818;stroke-width:1.0;"/><line style="stroke:#181818;stroke-width:1.0;stroke-dasharray:2.0,2.0;" x1="854" x2="1287.5" y1="437.0391" y2="437.0391"/><text fill="#000000" font-family="sans-serif" font-size="13" font-weight="bold" lengthAdjust="spacing" textLength="14" x="866" y="432.2842">12</text><text fill="#000000" font-family="sans-serif" font-size="13" lengthAdjust="spacing" textLength="117" x="884" y="432.2842">VisitRequestMapper</text><polygon fill="#181818" points="681,461.5625,671,465.5625,681,469.5625,677,465.5625" style="stroke:#181818;stroke-width:1.0;"/><line style="stroke:#181818;stroke-width:1.0;stroke-dasharray:2.0,2.0;" x1="675" x2="843" y1="465.5625" y2="465.5625"/><text fill="#000000" font-family="sans-serif" font-size="13" font-weight="bold" lengthAdjust="spacing" textLength="14" x="687" y="460.8076">13</text><text fill="#000000" font-family="sans-serif" font-size="13" lengthAdjust="spacing" textLength="127" x="705" y="460.8076">VisitRequestMessage</text><polygon fill="#181818" points="323,490.0859,313,494.0859,323,498.0859,319,494.0859" style="stroke:#181818;stroke-width:1.0;"/><line style="stroke:#181818;stroke-width:1.0;stroke-dasharray:2.0,2.0;" x1="317" x2="664" y1="494.0859" y2="494.0859"/><text fill="#000000" font-family="sans-serif" font-size="13" font-weight="bold" lengthAdjust="spacing" textLength="14" x="329" y="489.3311">14</text><text fill="#000000" font-family="sans-serif" font-size="13" lengthAdjust="spacing" textLength="157" x="347" y="489.3311">Message of the apointment</text><polygon fill="#181818" points="42,518.6094,32,522.6094,42,526.6094,38,522.6094" style="stroke:#181818;stroke-width:1.0;"/><line style="stroke:#181818;stroke-width:1.0;stroke-dasharray:2.0,2.0;" x1="36" x2="306" y1="522.6094" y2="522.6094"/><text fill="#000000" font-family="sans-serif" font-size="13" font-weight="bold" lengthAdjust="spacing" textLength="14" x="48" y="517.8545">15</text><text fill="#000000" font-family="sans-serif" font-size="13" lengthAdjust="spacing" textLength="200" x="66" y="517.8545">Shows message of the apointment</text><polygon fill="#181818" points="290,547.1328,300,551.1328,290,555.1328,294,551.1328" style="stroke:#181818;stroke-width:1.0;"/><line style="stroke:#181818;stroke-width:1.0;" x1="31" x2="296" y1="551.1328" y2="551.1328"/><text fill="#000000" font-family="sans-serif" font-size="13" font-weight="bold" lengthAdjust="spacing" textLength="14" x="38" y="546.3779">16</text><text fill="#000000" font-family="sans-serif" font-size="13" lengthAdjust="spacing" textLength="234" x="56" y="546.3779">Decide if accept or reject the apointment</text><polygon fill="#181818" points="648,575.6563,658,579.6563,648,583.6563,652,579.6563" style="stroke:#181818;stroke-width:1.0;"/><line style="stroke:#181818;stroke-width:1.0;" x1="312" x2="654" y1="579.6563" y2="579.6563"/><text fill="#000000" font-family="sans-serif" font-size="13" font-weight="bold" lengthAdjust="spacing" textLength="14" x="319" y="574.9014">17</text><text fill="#000000" font-family="sans-serif" font-size="13" lengthAdjust="spacing" textLength="182" x="337" y="574.9014">Accept or reject the apointment</text><polygon fill="#181818" points="968,604.1797,978,608.1797,968,612.1797,972,608.1797" style="stroke:#181818;stroke-width:1.0;"/><line style="stroke:#181818;stroke-width:1.0;" x1="670" x2="974" y1="608.1797" y2="608.1797"/><text fill="#000000" font-family="sans-serif" font-size="13" font-weight="bold" lengthAdjust="spacing" textLength="14" x="677" y="603.4248">18</text><text fill="#000000" font-family="sans-serif" font-size="13" lengthAdjust="spacing" textLength="75" x="695" y="603.4248">getInstance()</text><polygon fill="#181818" points="681,632.7031,671,636.7031,681,640.7031,677,636.7031" style="stroke:#181818;stroke-width:1.0;"/><line style="stroke:#181818;stroke-width:1.0;stroke-dasharray:2.0,2.0;" x1="675" x2="984" y1="636.7031" y2="636.7031"/><text fill="#000000" font-family="sans-serif" font-size="13" font-weight="bold" lengthAdjust="spacing" textLength="14" x="687" y="631.9482">19</text><text fill="#000000" font-family="sans-serif" font-size="13" lengthAdjust="spacing" textLength="67" x="705" y="631.9482">repositories</text><polygon fill="#181818" points="1075,661.2266,1085,665.2266,1075,669.2266,1079,665.2266" style="stroke:#181818;stroke-width:1.0;"/><line style="stroke:#181818;stroke-width:1.0;" x1="670" x2="1081" y1="665.2266" y2="665.2266"/><text fill="#000000" font-family="sans-serif" font-size="13" font-weight="bold" lengthAdjust="spacing" textLength="14" x="677" y="660.4717">20</text><text fill="#000000" font-family="sans-serif" font-size="13" lengthAdjust="spacing" textLength="194" x="695" y="660.4717">getMessagesOfClientRepository()</text><polygon fill="#181818" points="681,689.75,671,693.75,681,697.75,677,693.75" style="stroke:#181818;stroke-width:1.0;"/><line style="stroke:#181818;stroke-width:1.0;stroke-dasharray:2.0,2.0;" x1="675" x2="1091" y1="693.75" y2="693.75"/><text fill="#000000" font-family="sans-serif" font-size="13" font-weight="bold" lengthAdjust="spacing" textLength="14" x="687" y="688.9951">21</text><text fill="#000000" font-family="sans-serif" font-size="13" lengthAdjust="spacing" textLength="168" x="705" y="688.9951">MessagesOfClientRepository</text><polygon fill="#181818" points="1863.5,718.2734,1873.5,722.2734,1863.5,726.2734,1867.5,722.2734" style="stroke:#181818;stroke-width:1.0;"/><line style="stroke:#181818;stroke-width:1.0;" x1="670" x2="1869.5" y1="722.2734" y2="722.2734"/><text fill="#000000" font-family="sans-serif" font-size="13" font-weight="bold" lengthAdjust="spacing" textLength="14" x="677" y="717.5186">22</text><text fill="#000000" font-family="sans-serif" font-size="13" lengthAdjust="spacing" textLength="140" x="695" y="717.5186">save(MessagesOfClient)</text><polygon fill="#181818" points="681,746.7969,671,750.7969,681,754.7969,677,750.7969" style="stroke:#181818;stroke-width:1.0;"/><line style="stroke:#181818;stroke-width:1.0;stroke-dasharray:2.0,2.0;" x1="675" x2="1879.5" y1="750.7969" y2="750.7969"/><text fill="#000000" font-family="sans-serif" font-size="13" font-weight="bold" lengthAdjust="spacing" textLength="14" x="687" y="746.042">23</text><text fill="#000000" font-family="sans-serif" font-size="13" lengthAdjust="spacing" textLength="148" x="705" y="746.042">Saved messages of client</text><polygon fill="#181818" points="323,775.3203,313,779.3203,323,783.3203,319,779.3203" style="stroke:#181818;stroke-width:1.0;"/><line style="stroke:#181818;stroke-width:1.0;stroke-dasharray:2.0,2.0;" x1="317" x2="664" y1="779.3203" y2="779.3203"/><text fill="#000000" font-family="sans-serif" font-size="13" font-weight="bold" lengthAdjust="spacing" textLength="14" x="329" y="774.5654">24</text><text fill="#000000" font-family="sans-serif" font-size="13" lengthAdjust="spacing" textLength="306" x="347" y="774.5654">Saved the decision of the client about the apointment</text><polygon fill="#181818" points="42,803.8438,32,807.8438,42,811.8438,38,807.8438" style="stroke:#181818;stroke-width:1.0;"/><line style="stroke:#181818;stroke-width:1.0;stroke-dasharray:2.0,2.0;" x1="36" x2="306" y1="807.8438" y2="807.8438"/><text fill="#000000" font-family="sans-serif" font-size="13" font-weight="bold" lengthAdjust="spacing" textLength="14" x="48" y="803.0889">25</text><text fill="#000000" font-family="sans-serif" font-size="13" lengthAdjust="spacing" textLength="146" x="66" y="803.0889">Display sucess message</text><!--SRC=[hLN1Rk8m4BtxAomkxLRY1pYiL86qGW9r1NHFN8mPmDl4JcsdNVv-ntOIOeYpeTfS89cPDsyyyyRcJSY2QPRJN4d5JrhbGAqkWPZ6KZ3-newmjkSCg0PkcJncRGTpOdlrAUIH7bXcW11MMYNBV0UQa8UJs0CzA6LtwWzXt2fDHzDCWBGZoWoTBWYYMC55mQIbeyalOOHTmNi9nhxElS_hlCTdggJLAij01xpDgWzn1ON2DwNFthlRT1NV60GO7tNnN0jt5bXj7A9R4Ljv2_1pyRo98zf4bgmeG4-sjzzySFYR3fzjNk9O_E03yJUEMe8ns5dpSWWDkTGrsQPjWKJIJ8ZhilXW5bnp2QsUwOAElsChwOJIYXYr9w1vGABgu5zPeOIqEK8saGqSpa7p4O4GpdNxwGaXkGRqw3AZyGVOUzBu4I8-5Z4wcesGHx1pQL0A71w_DH0HJDUKH9xkwK8VLymdj3r7KUWUXgUf2t535vXtJtsg3Z-iaSaZNLWcH9JWUmjN4-p6GSg6VS1ZsvfWcY0IEIUIOFgWAnhNKucjCrrbYumL2CAXsgwmdFuwWPmXihZOSOhIZNVhS6ziDP- -u-seDuLVcmSTwKM0KOOWn6IA0TCK1gRU9ikaibCflC3RDhSj75l7TNrIdwPdNQH0sylfQj_DWBjBK1omvHmAI_4ErF0Rhz9Uy2HqjDoUlmGPTboN2eVikoykl3kMtN_STkchAbd9FrTUt_LtzzvBWzMxxzeZnNiehPwCBTMkCVM-Le9nKk3UExqT1gQFzHlIkAdTeqwCmA6eL1VIKRPJfRrBsqbnpuGfCdQcfkJ8jQwjLzD_0G00]--></g></svg>
