<?xml version="1.0" encoding="us-ascii" standalone="no"?><svg xmlns="http://www.w3.org/2000/svg" xmlns:xlink="http://www.w3.org/1999/xlink" contentStyleType="text/css" height="449px" preserveAspectRatio="none" style="width:736px;height:449px;background:#FFFFFF;" version="1.1" viewBox="0 0 736 449" width="736px" zoomAndPan="magnify"><defs/><g><rect fill="#FFFFFF" height="269.8281" style="stroke:#181818;stroke-width:1.0;" width="10" x="21" y="90.6406"/><rect fill="#FFFFFF" height="126.2109" style="stroke:#181818;stroke-width:1.0;" width="10" x="295" y="111.1641"/><rect fill="#FFFFFF" height="85.5703" style="stroke:#181818;stroke-width:1.0;" width="10" x="295" y="265.8984"/><rect fill="#FFFFFF" height="28.5234" style="stroke:#181818;stroke-width:1.0;" width="10" x="646" y="180.3281"/><rect fill="#FFFFFF" height="28.5234" style="stroke:#181818;stroke-width:1.0;" width="10" x="646" y="294.4219"/><line style="stroke:#181818;stroke-width:0.5;stroke-dasharray:5.0,5.0;" x1="26" x2="26" y1="80.6406" y2="369.4688"/><line style="stroke:#181818;stroke-width:0.5;stroke-dasharray:5.0,5.0;" x1="299.5" x2="299.5" y1="80.6406" y2="369.4688"/><line style="stroke:#181818;stroke-width:0.5;stroke-dasharray:5.0,5.0;" x1="650.5" x2="650.5" y1="149.4844" y2="369.4688"/><text fill="#000000" font-family="sans-serif" font-size="14" lengthAdjust="spacing" textLength="36" x="5" y="77.6738">Client</text><ellipse cx="26" cy="13.5" fill="#E3E3E3" rx="8" ry="8" style="stroke:#181818;stroke-width:0.5;"/><path d="M26,21.5 L26,48.5 M13,29.5 L39,29.5 M26,48.5 L13,63.5 M26,48.5 L39,63.5 " fill="none" style="stroke:#181818;stroke-width:0.5;"/><text fill="#000000" font-family="sans-serif" font-size="14" lengthAdjust="spacing" textLength="36" x="5" y="381.1426">Client</text><ellipse cx="26" cy="392.6094" fill="#E3E3E3" rx="8" ry="8" style="stroke:#181818;stroke-width:0.5;"/><path d="M26,400.6094 L26,427.6094 M13,408.6094 L39,408.6094 M26,427.6094 L13,442.6094 M26,427.6094 L39,442.6094 " fill="none" style="stroke:#181818;stroke-width:0.5;"/><rect fill="#E3E3E3" height="29.6406" rx="2.5" ry="2.5" style="stroke:#181818;stroke-width:0.5;" width="109" x="245.5" y="50"/><text fill="#000000" font-family="sans-serif" font-size="14" lengthAdjust="spacing" textLength="95" x="252.5" y="69.6738">:VisitRequestUI</text><rect fill="#E3E3E3" height="29.6406" rx="2.5" ry="2.5" style="stroke:#181818;stroke-width:0.5;" width="109" x="245.5" y="368.4688"/><text fill="#000000" font-family="sans-serif" font-size="14" lengthAdjust="spacing" textLength="95" x="252.5" y="388.1426">:VisitRequestUI</text><rect fill="#E3E3E3" height="29.6406" rx="2.5" ry="2.5" style="stroke:#181818;stroke-width:0.5;" width="159" x="571.5" y="368.4688"/><text fill="#000000" font-family="sans-serif" font-size="14" lengthAdjust="spacing" textLength="145" x="578.5" y="388.1426">:VisitRequestController</text><rect fill="#FFFFFF" height="269.8281" style="stroke:#181818;stroke-width:1.0;" width="10" x="21" y="90.6406"/><rect fill="#FFFFFF" height="126.2109" style="stroke:#181818;stroke-width:1.0;" width="10" x="295" y="111.1641"/><rect fill="#FFFFFF" height="85.5703" style="stroke:#181818;stroke-width:1.0;" width="10" x="295" y="265.8984"/><rect fill="#FFFFFF" height="28.5234" style="stroke:#181818;stroke-width:1.0;" width="10" x="646" y="180.3281"/><rect fill="#FFFFFF" height="28.5234" style="stroke:#181818;stroke-width:1.0;" width="10" x="646" y="294.4219"/><polygon fill="#181818" points="283,107.1641,293,111.1641,283,115.1641,287,111.1641" style="stroke:#181818;stroke-width:1.0;"/><line style="stroke:#181818;stroke-width:1.0;" x1="31" x2="289" y1="111.1641" y2="111.1641"/><text fill="#000000" font-family="sans-serif" font-size="13" font-weight="bold" lengthAdjust="spacing" textLength="7" x="38" y="106.4092">1</text><text fill="#000000" font-family="sans-serif" font-size="13" lengthAdjust="spacing" textLength="231" x="49" y="106.4092">Request the message of the apointment</text><polygon fill="#181818" points="559.5,135.6875,569.5,139.6875,559.5,143.6875,563.5,139.6875" style="stroke:#181818;stroke-width:1.0;"/><line style="stroke:#181818;stroke-width:1.0;" x1="305" x2="565.5" y1="139.6875" y2="139.6875"/><text fill="#000000" font-family="sans-serif" font-size="13" font-weight="bold" lengthAdjust="spacing" textLength="7" x="312" y="134.9326">2</text><text fill="#000000" font-family="sans-serif" font-size="13" lengthAdjust="spacing" textLength="36" x="323" y="134.9326">create</text><rect fill="#E3E3E3" height="29.6406" rx="2.5" ry="2.5" style="stroke:#181818;stroke-width:0.5;" width="159" x="571.5" y="119.1641"/><text fill="#000000" font-family="sans-serif" font-size="14" lengthAdjust="spacing" textLength="145" x="578.5" y="138.8379">:VisitRequestController</text><polygon fill="#181818" points="634,176.3281,644,180.3281,634,184.3281,638,180.3281" style="stroke:#181818;stroke-width:1.0;"/><line style="stroke:#181818;stroke-width:1.0;" x1="305" x2="640" y1="180.3281" y2="180.3281"/><text fill="#000000" font-family="sans-serif" font-size="13" font-weight="bold" lengthAdjust="spacing" textLength="7" x="312" y="175.5732">3</text><text fill="#000000" font-family="sans-serif" font-size="13" lengthAdjust="spacing" textLength="182" x="323" y="175.5732">Get message of the apointment</text><polygon fill="#181818" points="316,204.8516,306,208.8516,316,212.8516,312,208.8516" style="stroke:#181818;stroke-width:1.0;"/><line style="stroke:#181818;stroke-width:1.0;stroke-dasharray:2.0,2.0;" x1="310" x2="650" y1="208.8516" y2="208.8516"/><text fill="#000000" font-family="sans-serif" font-size="13" font-weight="bold" lengthAdjust="spacing" textLength="7" x="322" y="204.0967">4</text><text fill="#000000" font-family="sans-serif" font-size="13" lengthAdjust="spacing" textLength="157" x="333" y="204.0967">Message of the apointment</text><polygon fill="#181818" points="42,233.375,32,237.375,42,241.375,38,237.375" style="stroke:#181818;stroke-width:1.0;"/><line style="stroke:#181818;stroke-width:1.0;stroke-dasharray:2.0,2.0;" x1="36" x2="299" y1="237.375" y2="237.375"/><text fill="#000000" font-family="sans-serif" font-size="13" font-weight="bold" lengthAdjust="spacing" textLength="7" x="48" y="232.6201">5</text><text fill="#000000" font-family="sans-serif" font-size="13" lengthAdjust="spacing" textLength="200" x="59" y="232.6201">Shows message of the apointment</text><polygon fill="#181818" points="283,261.8984,293,265.8984,283,269.8984,287,265.8984" style="stroke:#181818;stroke-width:1.0;"/><line style="stroke:#181818;stroke-width:1.0;" x1="31" x2="289" y1="265.8984" y2="265.8984"/><text fill="#000000" font-family="sans-serif" font-size="13" font-weight="bold" lengthAdjust="spacing" textLength="7" x="38" y="261.1436">6</text><text fill="#000000" font-family="sans-serif" font-size="13" lengthAdjust="spacing" textLength="234" x="49" y="261.1436">Decide if accept or reject the apointment</text><polygon fill="#181818" points="634,290.4219,644,294.4219,634,298.4219,638,294.4219" style="stroke:#181818;stroke-width:1.0;"/><line style="stroke:#181818;stroke-width:1.0;" x1="305" x2="640" y1="294.4219" y2="294.4219"/><text fill="#000000" font-family="sans-serif" font-size="13" font-weight="bold" lengthAdjust="spacing" textLength="7" x="312" y="289.667">7</text><text fill="#000000" font-family="sans-serif" font-size="13" lengthAdjust="spacing" textLength="182" x="323" y="289.667">Accept or reject the apointment</text><polygon fill="#181818" points="316,318.9453,306,322.9453,316,326.9453,312,322.9453" style="stroke:#181818;stroke-width:1.0;"/><line style="stroke:#181818;stroke-width:1.0;stroke-dasharray:2.0,2.0;" x1="310" x2="650" y1="322.9453" y2="322.9453"/><text fill="#000000" font-family="sans-serif" font-size="13" font-weight="bold" lengthAdjust="spacing" textLength="7" x="322" y="318.1904">8</text><text fill="#000000" font-family="sans-serif" font-size="13" lengthAdjust="spacing" textLength="306" x="333" y="318.1904">Saved the decision of the client about the apointment</text><polygon fill="#181818" points="42,347.4688,32,351.4688,42,355.4688,38,351.4688" style="stroke:#181818;stroke-width:1.0;"/><line style="stroke:#181818;stroke-width:1.0;stroke-dasharray:2.0,2.0;" x1="36" x2="299" y1="351.4688" y2="351.4688"/><text fill="#000000" font-family="sans-serif" font-size="13" font-weight="bold" lengthAdjust="spacing" textLength="7" x="48" y="346.7139">9</text><text fill="#000000" font-family="sans-serif" font-size="13" lengthAdjust="spacing" textLength="146" x="59" y="346.7139">Display sucess message</text><!--SRC=[dPB1Ri8m38RlUGgBooGaNe33fAb84nAxmDZTf2xDQECkSM6y_Pm25Kmh4kkjiVFvpvV4dVCD1goXPi-s35mJI6Z9nBxIeDtXbbPoh0W2MK6_hQuROeav7vpVGe5L96Em5VPjlQ5Wp5FfSeA2MJRyRT0A1nXbbICl8y08sS8eHPnr3Ng1qVJ3HITB-cefodhUzQpdTteozXAugYYSUE_BXKbpt1w54jx0-SiMC7bM64m1pfj1IeAQOjG30XVTBpRilDGQiD_PupH9lwWWnQLvux4YRI3j-AkinLUIHyQS3j6lT-4JQ7B9_pR8kjcKqotokfRofO0ftghaGxmJS0XwhUENuHdPTF6kq5DPQWJqtWDzwlEv2nz4t-Xy-HVoP7LOwWhtb7UeNCD7n_wYmdRl5N33hJmaVD3upCMcmYF4rghrY_fxedy0]--></g></svg>
