<?xml version="1.0" encoding="us-ascii" standalone="no"?><svg xmlns="http://www.w3.org/2000/svg" xmlns:xlink="http://www.w3.org/1999/xlink" contentStyleType="text/css" height="900px" preserveAspectRatio="none" style="width:873px;height:900px;background:#FFFFFF;" version="1.1" viewBox="0 0 873 900" width="873px" zoomAndPan="magnify"><defs/><g><text fill="#000000" font-family="sans-serif" font-size="14" font-weight="bold" lengthAdjust="spacing" textLength="228" x="324.75" y="30.1074">System Sequence Diagram (SSD)</text><rect fill="#FFFFFF" height="675.082" style="stroke:#181818;stroke-width:1.0;" width="10" x="67.5" y="133.2422"/><rect fill="#FFFFFF" height="31.291" style="stroke:#181818;stroke-width:1.0;" width="10" x="725.5" y="156.5332"/><rect fill="#FFFFFF" height="31.291" style="stroke:#181818;stroke-width:1.0;" width="10" x="725.5" y="219.1152"/><rect fill="#FFFFFF" height="31.291" style="stroke:#181818;stroke-width:1.0;" width="10" x="725.5" y="281.6973"/><rect fill="#FFFFFF" height="57.582" style="stroke:#181818;stroke-width:1.0;" width="10" x="725.5" y="344.2793"/><rect fill="#FFFFFF" height="31.291" style="stroke:#181818;stroke-width:1.0;" width="10" x="725.5" y="433.1523"/><rect fill="#FFFFFF" height="47.9219" style="stroke:#181818;stroke-width:1.0;" width="10" x="725.5" y="495.7344"/><rect fill="#FFFFFF" height="31.291" style="stroke:#181818;stroke-width:1.0;" width="10" x="725.5" y="574.9473"/><rect fill="#FFFFFF" height="47.9219" style="stroke:#181818;stroke-width:1.0;" width="10" x="725.5" y="637.5293"/><rect fill="#FFFFFF" height="44.291" style="stroke:#181818;stroke-width:1.0;" width="10" x="725.5" y="716.7422"/><rect fill="none" height="365.4629" style="stroke:#000000;stroke-width:1.5;" width="762.5" x="10" y="359.2793"/><line style="stroke:#181818;stroke-width:0.5;stroke-dasharray:5.0,5.0;" x1="72" x2="72" y1="123.2422" y2="817.3242"/><line style="stroke:#181818;stroke-width:0.5;stroke-dasharray:5.0,5.0;" x1="730.5" x2="730.5" y1="123.2422" y2="817.3242"/><text fill="#000000" font-family="sans-serif" font-size="14" lengthAdjust="spacing" textLength="99" x="20" y="119.7285">RealStateAgent</text><ellipse cx="72.5" cy="53.1211" fill="#E3E3E3" rx="8" ry="8" style="stroke:#181818;stroke-width:0.5;"/><path d="M72.5,61.1211 L72.5,88.1211 M59.5,69.1211 L85.5,69.1211 M72.5,88.1211 L59.5,103.1211 M72.5,88.1211 L85.5,103.1211 " fill="none" style="stroke:#181818;stroke-width:0.5;"/><text fill="#000000" font-family="sans-serif" font-size="14" lengthAdjust="spacing" textLength="99" x="20" y="831.4316">RealStateAgent</text><ellipse cx="72.5" cy="843.4453" fill="#E3E3E3" rx="8" ry="8" style="stroke:#181818;stroke-width:0.5;"/><path d="M72.5,851.4453 L72.5,878.4453 M59.5,859.4453 L85.5,859.4453 M72.5,878.4453 L59.5,893.4453 M72.5,878.4453 L85.5,893.4453 " fill="none" style="stroke:#181818;stroke-width:0.5;"/><rect fill="#E3E3E3" height="32.6211" rx="2.5" ry="2.5" style="stroke:#181818;stroke-width:0.5;" width="64" x="698.5" y="89.6211"/><text fill="#000000" font-family="sans-serif" font-size="14" lengthAdjust="spacing" textLength="50" x="705.5" y="111.7285">:System</text><rect fill="#E3E3E3" height="32.6211" rx="2.5" ry="2.5" style="stroke:#181818;stroke-width:0.5;" width="64" x="698.5" y="816.3242"/><text fill="#000000" font-family="sans-serif" font-size="14" lengthAdjust="spacing" textLength="50" x="705.5" y="838.4316">:System</text><rect fill="#FFFFFF" height="675.082" style="stroke:#181818;stroke-width:1.0;" width="10" x="67.5" y="133.2422"/><rect fill="#FFFFFF" height="31.291" style="stroke:#181818;stroke-width:1.0;" width="10" x="725.5" y="156.5332"/><rect fill="#FFFFFF" height="31.291" style="stroke:#181818;stroke-width:1.0;" width="10" x="725.5" y="219.1152"/><rect fill="#FFFFFF" height="31.291" style="stroke:#181818;stroke-width:1.0;" width="10" x="725.5" y="281.6973"/><rect fill="#FFFFFF" height="57.582" style="stroke:#181818;stroke-width:1.0;" width="10" x="725.5" y="344.2793"/><rect fill="#FFFFFF" height="31.291" style="stroke:#181818;stroke-width:1.0;" width="10" x="725.5" y="433.1523"/><rect fill="#FFFFFF" height="47.9219" style="stroke:#181818;stroke-width:1.0;" width="10" x="725.5" y="495.7344"/><rect fill="#FFFFFF" height="31.291" style="stroke:#181818;stroke-width:1.0;" width="10" x="725.5" y="574.9473"/><rect fill="#FFFFFF" height="47.9219" style="stroke:#181818;stroke-width:1.0;" width="10" x="725.5" y="637.5293"/><rect fill="#FFFFFF" height="44.291" style="stroke:#181818;stroke-width:1.0;" width="10" x="725.5" y="716.7422"/><polygon fill="#181818" points="713.5,152.5332,723.5,156.5332,713.5,160.5332,717.5,156.5332" style="stroke:#181818;stroke-width:1.0;"/><line style="stroke:#181818;stroke-width:1.0;" x1="77.5" x2="719.5" y1="156.5332" y2="156.5332"/><text fill="#000000" font-family="sans-serif" font-size="13" font-weight="bold" lengthAdjust="spacing" textLength="7" x="84.5" y="151.2705">1</text><text fill="#000000" font-family="sans-serif" font-size="13" lengthAdjust="spacing" textLength="157" x="95.5" y="151.2705">Initiate property registration</text><polygon fill="#181818" points="88.5,183.8242,78.5,187.8242,88.5,191.8242,84.5,187.8242" style="stroke:#181818;stroke-width:1.0;"/><line style="stroke:#181818;stroke-width:1.0;stroke-dasharray:2.0,2.0;" x1="82.5" x2="729.5" y1="187.8242" y2="187.8242"/><text fill="#000000" font-family="sans-serif" font-size="13" font-weight="bold" lengthAdjust="spacing" textLength="7" x="94.5" y="182.5615">2</text><text fill="#000000" font-family="sans-serif" font-size="13" lengthAdjust="spacing" textLength="613" x="105.5" y="182.5615">Asks for Owner attributes (name, citizenCardNumber, taxNumber, Address, EmailAddress, phoneNumber)</text><polygon fill="#181818" points="713.5,215.1152,723.5,219.1152,713.5,223.1152,717.5,219.1152" style="stroke:#181818;stroke-width:1.0;"/><line style="stroke:#181818;stroke-width:1.0;" x1="77.5" x2="719.5" y1="219.1152" y2="219.1152"/><text fill="#000000" font-family="sans-serif" font-size="13" font-weight="bold" lengthAdjust="spacing" textLength="7" x="84.5" y="213.8525">3</text><text fill="#000000" font-family="sans-serif" font-size="13" lengthAdjust="spacing" textLength="611" x="95.5" y="213.8525">submits Owner attributes (name, citizenCardNumber, taxNumber, Address, EmailAddress, phoneNumber)</text><polygon fill="#181818" points="88.5,246.4063,78.5,250.4063,88.5,254.4063,84.5,250.4063" style="stroke:#181818;stroke-width:1.0;"/><line style="stroke:#181818;stroke-width:1.0;stroke-dasharray:2.0,2.0;" x1="82.5" x2="729.5" y1="250.4063" y2="250.4063"/><text fill="#000000" font-family="sans-serif" font-size="13" font-weight="bold" lengthAdjust="spacing" textLength="7" x="94.5" y="245.1436">4</text><text fill="#000000" font-family="sans-serif" font-size="13" lengthAdjust="spacing" textLength="307" x="105.5" y="245.1436">Asks for property type (House or Apartment or Land))</text><polygon fill="#181818" points="713.5,277.6973,723.5,281.6973,713.5,285.6973,717.5,281.6973" style="stroke:#181818;stroke-width:1.0;"/><line style="stroke:#181818;stroke-width:1.0;" x1="77.5" x2="719.5" y1="281.6973" y2="281.6973"/><text fill="#000000" font-family="sans-serif" font-size="13" font-weight="bold" lengthAdjust="spacing" textLength="7" x="84.5" y="276.4346">5</text><text fill="#000000" font-family="sans-serif" font-size="13" lengthAdjust="spacing" textLength="287" x="95.5" y="276.4346">selects Property Type (House/Apartment or Land)</text><polygon fill="#181818" points="88.5,308.9883,78.5,312.9883,88.5,316.9883,84.5,312.9883" style="stroke:#181818;stroke-width:1.0;"/><line style="stroke:#181818;stroke-width:1.0;stroke-dasharray:2.0,2.0;" x1="82.5" x2="729.5" y1="312.9883" y2="312.9883"/><text fill="#000000" font-family="sans-serif" font-size="13" font-weight="bold" lengthAdjust="spacing" textLength="7" x="94.5" y="307.7256">6</text><text fill="#000000" font-family="sans-serif" font-size="13" lengthAdjust="spacing" textLength="418" x="105.5" y="307.7256">Displays a form for the agent to fill with the property description and cost</text><polygon fill="#181818" points="713.5,340.2793,723.5,344.2793,713.5,348.2793,717.5,344.2793" style="stroke:#181818;stroke-width:1.0;"/><line style="stroke:#181818;stroke-width:1.0;" x1="77.5" x2="719.5" y1="344.2793" y2="344.2793"/><text fill="#000000" font-family="sans-serif" font-size="13" font-weight="bold" lengthAdjust="spacing" textLength="7" x="84.5" y="339.0166">7</text><text fill="#000000" font-family="sans-serif" font-size="13" lengthAdjust="spacing" textLength="376" x="95.5" y="339.0166">Fills out the form with the description of the property and the cost</text><path d="M10,359.2793 L71,359.2793 L71,368.5703 L61,378.5703 L10,378.5703 L10,359.2793 " fill="#EEEEEE" style="stroke:#000000;stroke-width:1.5;"/><rect fill="none" height="365.4629" style="stroke:#000000;stroke-width:1.5;" width="762.5" x="10" y="359.2793"/><text fill="#000000" font-family="sans-serif" font-size="13" font-weight="bold" lengthAdjust="spacing" textLength="16" x="25" y="374.3076">alt</text><text fill="#000000" font-family="sans-serif" font-size="11" font-weight="bold" lengthAdjust="spacing" textLength="158" x="86" y="373.1494">[Property type is Apartment]</text><polygon fill="#181818" points="88.5,397.8613,78.5,401.8613,88.5,405.8613,84.5,401.8613" style="stroke:#181818;stroke-width:1.0;"/><line style="stroke:#181818;stroke-width:1.0;stroke-dasharray:2.0,2.0;" x1="82.5" x2="729.5" y1="401.8613" y2="401.8613"/><text fill="#000000" font-family="sans-serif" font-size="13" font-weight="bold" lengthAdjust="spacing" textLength="7" x="94.5" y="396.5986">8</text><text fill="#000000" font-family="sans-serif" font-size="13" lengthAdjust="spacing" textLength="401" x="105.5" y="396.5986">Asks for number of rooms, number of bathrooms, number of kitchens,</text><polygon fill="#181818" points="713.5,429.1523,723.5,433.1523,713.5,437.1523,717.5,433.1523" style="stroke:#181818;stroke-width:1.0;"/><line style="stroke:#181818;stroke-width:1.0;" x1="77.5" x2="719.5" y1="433.1523" y2="433.1523"/><text fill="#000000" font-family="sans-serif" font-size="13" font-weight="bold" lengthAdjust="spacing" textLength="7" x="84.5" y="427.8896">9</text><text fill="#000000" font-family="sans-serif" font-size="13" lengthAdjust="spacing" textLength="402" x="95.5" y="427.8896">fills out number of rooms, number of bathrooms, number of kitchens...</text><polygon fill="#181818" points="88.5,460.4434,78.5,464.4434,88.5,468.4434,84.5,464.4434" style="stroke:#181818;stroke-width:1.0;"/><line style="stroke:#181818;stroke-width:1.0;stroke-dasharray:2.0,2.0;" x1="82.5" x2="729.5" y1="464.4434" y2="464.4434"/><text fill="#000000" font-family="sans-serif" font-size="13" font-weight="bold" lengthAdjust="spacing" textLength="14" x="94.5" y="459.1807">10</text><text fill="#000000" font-family="sans-serif" font-size="13" lengthAdjust="spacing" textLength="451" x="112.5" y="459.1807">Display a form for the agent to select whether or not the property has a garage</text><polygon fill="#181818" points="713.5,491.7344,723.5,495.7344,713.5,499.7344,717.5,495.7344" style="stroke:#181818;stroke-width:1.0;"/><line style="stroke:#181818;stroke-width:1.0;" x1="77.5" x2="719.5" y1="495.7344" y2="495.7344"/><text fill="#000000" font-family="sans-serif" font-size="13" font-weight="bold" lengthAdjust="spacing" textLength="14" x="84.5" y="490.4717">11</text><text fill="#000000" font-family="sans-serif" font-size="13" lengthAdjust="spacing" textLength="275" x="102.5" y="490.4717">Select whether the property has a garage or not</text><line style="stroke:#000000;stroke-width:1.0;stroke-dasharray:2.0,2.0;" x1="10" x2="772.5" y1="504.7344" y2="504.7344"/><text fill="#000000" font-family="sans-serif" font-size="11" font-weight="bold" lengthAdjust="spacing" textLength="134" x="15" y="516.6045">[Property type is House]</text><polygon fill="#181818" points="88.5,539.6563,78.5,543.6563,88.5,547.6563,84.5,543.6563" style="stroke:#181818;stroke-width:1.0;"/><line style="stroke:#181818;stroke-width:1.0;stroke-dasharray:2.0,2.0;" x1="82.5" x2="729.5" y1="543.6563" y2="543.6563"/><text fill="#000000" font-family="sans-serif" font-size="13" font-weight="bold" lengthAdjust="spacing" textLength="14" x="94.5" y="538.3936">12</text><text fill="#000000" font-family="sans-serif" font-size="13" lengthAdjust="spacing" textLength="409" x="112.5" y="538.3936">Asks for number of rooms, number of bathrooms, number of kitchens...</text><polygon fill="#181818" points="713.5,570.9473,723.5,574.9473,713.5,578.9473,717.5,574.9473" style="stroke:#181818;stroke-width:1.0;"/><line style="stroke:#181818;stroke-width:1.0;" x1="77.5" x2="719.5" y1="574.9473" y2="574.9473"/><text fill="#000000" font-family="sans-serif" font-size="13" font-weight="bold" lengthAdjust="spacing" textLength="14" x="84.5" y="569.6846">13</text><text fill="#000000" font-family="sans-serif" font-size="13" lengthAdjust="spacing" textLength="390" x="102.5" y="569.6846">fills out number of rooms, number of bathrooms, number of kitchens</text><polygon fill="#181818" points="88.5,602.2383,78.5,606.2383,88.5,610.2383,84.5,606.2383" style="stroke:#181818;stroke-width:1.0;"/><line style="stroke:#181818;stroke-width:1.0;stroke-dasharray:2.0,2.0;" x1="82.5" x2="729.5" y1="606.2383" y2="606.2383"/><text fill="#000000" font-family="sans-serif" font-size="13" font-weight="bold" lengthAdjust="spacing" textLength="14" x="94.5" y="600.9756">14</text><text fill="#000000" font-family="sans-serif" font-size="13" lengthAdjust="spacing" textLength="421" x="112.5" y="600.9756">Displays form for additional property details (e.g., garage, backyard, etc.)</text><polygon fill="#181818" points="713.5,633.5293,723.5,637.5293,713.5,641.5293,717.5,637.5293" style="stroke:#181818;stroke-width:1.0;"/><line style="stroke:#181818;stroke-width:1.0;" x1="77.5" x2="719.5" y1="637.5293" y2="637.5293"/><text fill="#000000" font-family="sans-serif" font-size="13" font-weight="bold" lengthAdjust="spacing" textLength="14" x="84.5" y="632.2666">15</text><text fill="#000000" font-family="sans-serif" font-size="13" lengthAdjust="spacing" textLength="198" x="102.5" y="632.2666">Fills out additional property details</text><line style="stroke:#000000;stroke-width:1.0;stroke-dasharray:2.0,2.0;" x1="10" x2="772.5" y1="646.5293" y2="646.5293"/><text fill="#000000" font-family="sans-serif" font-size="11" font-weight="bold" lengthAdjust="spacing" textLength="126" x="15" y="658.3994">[Property type is Land]</text><polygon fill="#181818" points="88.5,681.4512,78.5,685.4512,88.5,689.4512,84.5,685.4512" style="stroke:#181818;stroke-width:1.0;"/><line style="stroke:#181818;stroke-width:1.0;stroke-dasharray:2.0,2.0;" x1="82.5" x2="729.5" y1="685.4512" y2="685.4512"/><text fill="#000000" font-family="sans-serif" font-size="13" font-weight="bold" lengthAdjust="spacing" textLength="14" x="94.5" y="680.1885">16</text><text fill="#000000" font-family="sans-serif" font-size="13" lengthAdjust="spacing" textLength="524" x="112.5" y="680.1885">Ask for additional details of the land (m^2, if it is for construction or agricultural purposes...)</text><polygon fill="#181818" points="713.5,712.7422,723.5,716.7422,713.5,720.7422,717.5,716.7422" style="stroke:#181818;stroke-width:1.0;"/><line style="stroke:#181818;stroke-width:1.0;" x1="77.5" x2="719.5" y1="716.7422" y2="716.7422"/><text fill="#000000" font-family="sans-serif" font-size="13" font-weight="bold" lengthAdjust="spacing" textLength="14" x="84.5" y="711.4795">17</text><text fill="#000000" font-family="sans-serif" font-size="13" lengthAdjust="spacing" textLength="551" x="102.5" y="711.4795">Fills out the additional details of the land (m^2, if it is for construction or agricultural purposes...)</text><line style="stroke:#181818;stroke-width:1.0;stroke-dasharray:2.0,2.0;" x1="735.5" x2="777.5" y1="760.0332" y2="760.0332"/><line style="stroke:#181818;stroke-width:1.0;stroke-dasharray:2.0,2.0;" x1="777.5" x2="777.5" y1="760.0332" y2="773.0332"/><line style="stroke:#181818;stroke-width:1.0;stroke-dasharray:2.0,2.0;" x1="730.5" x2="777.5" y1="773.0332" y2="773.0332"/><polygon fill="#181818" points="740.5,769.0332,730.5,773.0332,740.5,777.0332,736.5,773.0332" style="stroke:#181818;stroke-width:1.0;"/><text fill="#000000" font-family="sans-serif" font-size="13" font-weight="bold" lengthAdjust="spacing" textLength="14" x="742.5" y="754.7705">18</text><text fill="#000000" font-family="sans-serif" font-size="13" lengthAdjust="spacing" textLength="106" x="760.5" y="754.7705">Save new property</text><polygon fill="#181818" points="88.5,795.3242,78.5,799.3242,88.5,803.3242,84.5,799.3242" style="stroke:#181818;stroke-width:1.0;"/><line style="stroke:#181818;stroke-width:1.0;stroke-dasharray:2.0,2.0;" x1="82.5" x2="729.5" y1="799.3242" y2="799.3242"/><text fill="#000000" font-family="sans-serif" font-size="13" font-weight="bold" lengthAdjust="spacing" textLength="14" x="94.5" y="794.0615">19</text><text fill="#000000" font-family="sans-serif" font-size="13" lengthAdjust="spacing" textLength="399" x="112.5" y="794.0615">Display confirmation message and sends message to property owner</text><!--SRC=[lLN1Rjim3BtxAuYU4i3DW1rx612i6pPWs8PbkmvWPDeMOacUI3VBldwKdJXjl1P9WUvYo9Jq7ib7KhonliM83bpmmTGnE0A97MKyxhHeDbZHIdODGIGZwAlc_W6kiGXRwoieiM7ACh6YHrSx5dAmebyTUKDmQx5AnsUhrUqyox2Ju3ktffYXaH3XwXjXin8KMbRavGgGuGVhjhA8DRP5Bt1rCy3skyCoI_VjdTuRZcVf2zTl3WxSm4TlnQRzDeQMekmqZCgoH1GR_F7w0Mz_yLenUgmRMFA6eLGdlsoz6b0asdKdn33pw2W7emn_oB_5M7pkWyf1yFTXkIoAICmvl7Dec_6lhOEduSmyAsZYnoGGxjRE2h-W5vVaOiocx5g2sOVGCO7QbqamfnAcdq_eY_cPqL6ZrSNmzO3x_OZxQWfwZg-tbji6TmoOF7Qzsr8JOAema02bRHhOMgbxynXHGMoYRLDvW7A12IndnV1UyHX29prUppcYtmSDvKF2H98CFT641XivPgNFjkLZcfyKQMYnn1T3S2htqR16gIV6ZHLJa-Vyh73BCTpdyYmMYmk4V5J7eNPWMvEQOweH7-HXYcjCPL3foAhehE1M3p4V1TkpJSCWdOPJtVfwVX7DKYx_ZseNzTwe61Q5JTMFpVrE4nr6Ei5eKItoVKPpPJURdOwn74ZCOdvXxpr1TAvAQSGy8j9fB8SGzZtTf5wUkP-lSx0bM4bewOO9Nf-SpWpzhmXLjAPhf8l9pIwsWIb9E7_6e7b9RwO9EydCiDH-mJi2Jzinv_yAv2IZnyvMXqeRNVyaWzENANLMSfwLZqUBzleeQKZFu9JaBm00]--></g></svg>