<?xml version="1.0" encoding="UTF-8" standalone="no"?><svg xmlns="http://www.w3.org/2000/svg" xmlns:xlink="http://www.w3.org/1999/xlink" contentStyleType="text/css" height="1200px" preserveAspectRatio="none" style="width:373px;height:1200px;background:#FFFFFF;" version="1.1" viewBox="0 0 373 1200" width="373px" zoomAndPan="magnify"><defs/><g><!--class CreateStoreUI--><g id="elem_CreateStoreUI"><rect codeLine="11" fill="#F1F1F1" height="48" id="CreateStoreUI" rx="2.5" ry="2.5" style="stroke:#181818;stroke-width:0.5;" width="121" x="98.5" y="7"/><ellipse cx="113.5" cy="23" fill="#ADD1B2" rx="11" ry="11" style="stroke:#181818;stroke-width:1.0;"/><path d="M116.2656,18.875 Q116.4219,18.6563 116.6094,18.5469 Q116.7969,18.4375 117.0156,18.4375 Q117.3906,18.4375 117.625,18.7031 Q117.8594,18.9531 117.8594,19.5625 L117.8594,21.0156 Q117.8594,21.625 117.625,21.8906 Q117.3906,22.1563 117.0156,22.1563 Q116.6719,22.1563 116.4688,21.9531 Q116.2656,21.7656 116.1563,21.25 Q116.1094,20.8906 115.9219,20.7031 Q115.5938,20.3281 114.9844,20.1094 Q114.375,19.8906 113.75,19.8906 Q112.9844,19.8906 112.3438,20.2188 Q111.7188,20.5469 111.2188,21.2969 Q110.7344,22.0469 110.7344,23.0781 L110.7344,24.1719 Q110.7344,25.4063 111.625,26.2344 Q112.5156,27.0469 114.1094,27.0469 Q115.0469,27.0469 115.7031,26.7969 Q116.0938,26.6406 116.5156,26.2031 Q116.7813,25.9375 116.9219,25.8594 Q117.0781,25.7813 117.2813,25.7813 Q117.6094,25.7813 117.8594,26.0469 Q118.125,26.2969 118.125,26.6406 Q118.125,26.9844 117.7813,27.3906 Q117.2813,27.9688 116.4844,28.2969 Q115.4063,28.75 114.1094,28.75 Q112.5938,28.75 111.3906,28.125 Q110.4063,27.625 109.7188,26.5625 Q109.0313,25.4844 109.0313,24.2031 L109.0313,23.0469 Q109.0313,21.7188 109.6406,20.5781 Q110.2656,19.4219 111.3594,18.8125 Q112.4531,18.1875 113.6875,18.1875 Q114.4219,18.1875 115.0625,18.3594 Q115.7188,18.5156 116.2656,18.875 Z " fill="#000000"/><text fill="#000000" font-family="sans-serif" font-size="14" lengthAdjust="spacing" textLength="89" x="127.5" y="28.7969">CreateStoreUI</text><line style="stroke:#181818;stroke-width:0.5;" x1="99.5" x2="218.5" y1="39" y2="39"/><line style="stroke:#181818;stroke-width:0.5;" x1="99.5" x2="218.5" y1="47" y2="47"/></g><!--class CreateStoreController--><g id="elem_CreateStoreController"><rect codeLine="13" fill="#F1F1F1" height="122.4844" id="CreateStoreController" rx="2.5" ry="2.5" style="stroke:#181818;stroke-width:0.5;" width="246" x="36" y="116"/><ellipse cx="85.25" cy="132" fill="#ADD1B2" rx="11" ry="11" style="stroke:#181818;stroke-width:1.0;"/><path d="M88.0156,127.875 Q88.1719,127.6563 88.3594,127.5469 Q88.5469,127.4375 88.7656,127.4375 Q89.1406,127.4375 89.375,127.7031 Q89.6094,127.9531 89.6094,128.5625 L89.6094,130.0156 Q89.6094,130.625 89.375,130.8906 Q89.1406,131.1563 88.7656,131.1563 Q88.4219,131.1563 88.2188,130.9531 Q88.0156,130.7656 87.9063,130.25 Q87.8594,129.8906 87.6719,129.7031 Q87.3438,129.3281 86.7344,129.1094 Q86.125,128.8906 85.5,128.8906 Q84.7344,128.8906 84.0938,129.2188 Q83.4688,129.5469 82.9688,130.2969 Q82.4844,131.0469 82.4844,132.0781 L82.4844,133.1719 Q82.4844,134.4063 83.375,135.2344 Q84.2656,136.0469 85.8594,136.0469 Q86.7969,136.0469 87.4531,135.7969 Q87.8438,135.6406 88.2656,135.2031 Q88.5313,134.9375 88.6719,134.8594 Q88.8281,134.7813 89.0313,134.7813 Q89.3594,134.7813 89.6094,135.0469 Q89.875,135.2969 89.875,135.6406 Q89.875,135.9844 89.5313,136.3906 Q89.0313,136.9688 88.2344,137.2969 Q87.1563,137.75 85.8594,137.75 Q84.3438,137.75 83.1406,137.125 Q82.1563,136.625 81.4688,135.5625 Q80.7813,134.4844 80.7813,133.2031 L80.7813,132.0469 Q80.7813,130.7188 81.3906,129.5781 Q82.0156,128.4219 83.1094,127.8125 Q84.2031,127.1875 85.4375,127.1875 Q86.1719,127.1875 86.8125,127.3594 Q87.4688,127.5156 88.0156,127.875 Z " fill="#000000"/><text fill="#000000" font-family="sans-serif" font-size="14" lengthAdjust="spacing" textLength="139" x="105.75" y="137.7969">CreateStoreController</text><line style="stroke:#181818;stroke-width:0.5;" x1="37" x2="281" y1="148" y2="148"/><line style="stroke:#181818;stroke-width:0.5;" x1="37" x2="281" y1="156" y2="156"/><ellipse cx="47" cy="170.8105" fill="#84BE84" rx="3" ry="3" style="stroke:#038048;stroke-width:1.0;"/><text fill="#000000" font-family="sans-serif" font-size="14" lengthAdjust="spacing" textLength="149" x="56" y="175.1074">CreateStoreController()</text><ellipse cx="47" cy="189.4316" fill="#84BE84" rx="3" ry="3" style="stroke:#038048;stroke-width:1.0;"/><text fill="#000000" font-family="sans-serif" font-size="14" lengthAdjust="spacing" textLength="118" x="56" y="193.7285">getStoreNetWork()</text><ellipse cx="47" cy="217.3633" fill="#84BE84" rx="3" ry="3" style="stroke:#038048;stroke-width:1.0;"/><text fill="#000000" font-family="sans-serif" font-size="14" lengthAdjust="spacing" textLength="216" x="56" y="212.3496">createStore(ID, designation/name,</text><text fill="#000000" font-family="sans-serif" font-size="14" lengthAdjust="spacing" textLength="200" x="60" y="230.9707">location, phone number, e-mail)</text></g><!--class RealEstate--><g id="elem_RealEstate"><rect codeLine="24" fill="#F1F1F1" height="215.5898" id="RealEstate" rx="2.5" ry="2.5" style="stroke:#181818;stroke-width:0.5;" width="156" x="81" y="299"/><ellipse cx="120.75" cy="315" fill="#ADD1B2" rx="11" ry="11" style="stroke:#181818;stroke-width:1.0;"/><path d="M123.5156,310.875 Q123.6719,310.6563 123.8594,310.5469 Q124.0469,310.4375 124.2656,310.4375 Q124.6406,310.4375 124.875,310.7031 Q125.1094,310.9531 125.1094,311.5625 L125.1094,313.0156 Q125.1094,313.625 124.875,313.8906 Q124.6406,314.1563 124.2656,314.1563 Q123.9219,314.1563 123.7188,313.9531 Q123.5156,313.7656 123.4063,313.25 Q123.3594,312.8906 123.1719,312.7031 Q122.8438,312.3281 122.2344,312.1094 Q121.625,311.8906 121,311.8906 Q120.2344,311.8906 119.5938,312.2188 Q118.9688,312.5469 118.4688,313.2969 Q117.9844,314.0469 117.9844,315.0781 L117.9844,316.1719 Q117.9844,317.4063 118.875,318.2344 Q119.7656,319.0469 121.3594,319.0469 Q122.2969,319.0469 122.9531,318.7969 Q123.3438,318.6406 123.7656,318.2031 Q124.0313,317.9375 124.1719,317.8594 Q124.3281,317.7813 124.5313,317.7813 Q124.8594,317.7813 125.1094,318.0469 Q125.375,318.2969 125.375,318.6406 Q125.375,318.9844 125.0313,319.3906 Q124.5313,319.9688 123.7344,320.2969 Q122.6563,320.75 121.3594,320.75 Q119.8438,320.75 118.6406,320.125 Q117.6563,319.625 116.9688,318.5625 Q116.2813,317.4844 116.2813,316.2031 L116.2813,315.0469 Q116.2813,313.7188 116.8906,312.5781 Q117.5156,311.4219 118.6094,310.8125 Q119.7031,310.1875 120.9375,310.1875 Q121.6719,310.1875 122.3125,310.3594 Q122.9688,310.5156 123.5156,310.875 Z " fill="#000000"/><text fill="#000000" font-family="sans-serif" font-size="14" lengthAdjust="spacing" textLength="69" x="140.25" y="320.7969">RealEstate</text><line style="stroke:#181818;stroke-width:0.5;" x1="82" x2="236" y1="331" y2="331"/><rect fill="none" height="6" style="stroke:#C82930;stroke-width:1.0;" width="6" x="89" y="342.8105"/><text fill="#000000" font-family="sans-serif" font-size="14" lengthAdjust="spacing" textLength="76" x="101" y="350.1074">String name</text><rect fill="none" height="6" style="stroke:#C82930;stroke-width:1.0;" width="6" x="89" y="361.4316"/><text fill="#000000" font-family="sans-serif" font-size="14" lengthAdjust="spacing" textLength="92" x="101" y="368.7285">String address</text><rect fill="none" height="6" style="stroke:#C82930;stroke-width:1.0;" width="6" x="89" y="380.0527"/><text fill="#000000" font-family="sans-serif" font-size="14" lengthAdjust="spacing" textLength="117" x="101" y="387.3496">String descriptions</text><rect fill="none" height="6" style="stroke:#C82930;stroke-width:1.0;" width="6" x="89" y="398.6738"/><text fill="#000000" font-family="sans-serif" font-size="14" lengthAdjust="spacing" textLength="88" x="101" y="405.9707">String website</text><rect fill="none" height="6" style="stroke:#C82930;stroke-width:1.0;" width="6" x="89" y="417.2949"/><text fill="#000000" font-family="sans-serif" font-size="14" lengthAdjust="spacing" textLength="130" x="101" y="424.5918">String phoneNumber</text><rect fill="none" height="6" style="stroke:#C82930;stroke-width:1.0;" width="6" x="89" y="435.916"/><text fill="#000000" font-family="sans-serif" font-size="14" lengthAdjust="spacing" textLength="79" x="101" y="443.2129">String e-mail</text><rect fill="none" height="6" style="stroke:#C82930;stroke-width:1.0;" width="6" x="89" y="454.5371"/><text fill="#000000" font-family="sans-serif" font-size="14" lengthAdjust="spacing" textLength="109" x="101" y="461.834">String vatNumber</text><rect fill="none" height="6" style="stroke:#C82930;stroke-width:1.0;" width="6" x="89" y="473.1582"/><text fill="#000000" font-family="sans-serif" font-size="14" lengthAdjust="spacing" textLength="68" x="101" y="480.4551">String logo</text><line style="stroke:#181818;stroke-width:0.5;" x1="82" x2="236" y1="487.9688" y2="487.9688"/><ellipse cx="92" cy="502.7793" fill="#84BE84" rx="3" ry="3" style="stroke:#038048;stroke-width:1.0;"/><text fill="#000000" font-family="sans-serif" font-size="14" lengthAdjust="spacing" textLength="118" x="101" y="507.0762">getStoreNetWork()</text></g><!--class StoreNetWork--><g id="elem_StoreNetWork"><rect codeLine="36" fill="#F1F1F1" height="178.3477" id="StoreNetWork" rx="2.5" ry="2.5" style="stroke:#181818;stroke-width:0.5;" width="246" x="7" y="721"/><ellipse cx="81.75" cy="737" fill="#ADD1B2" rx="11" ry="11" style="stroke:#181818;stroke-width:1.0;"/><path d="M84.5156,732.875 Q84.6719,732.6563 84.8594,732.5469 Q85.0469,732.4375 85.2656,732.4375 Q85.6406,732.4375 85.875,732.7031 Q86.1094,732.9531 86.1094,733.5625 L86.1094,735.0156 Q86.1094,735.625 85.875,735.8906 Q85.6406,736.1563 85.2656,736.1563 Q84.9219,736.1563 84.7188,735.9531 Q84.5156,735.7656 84.4063,735.25 Q84.3594,734.8906 84.1719,734.7031 Q83.8438,734.3281 83.2344,734.1094 Q82.625,733.8906 82,733.8906 Q81.2344,733.8906 80.5938,734.2188 Q79.9688,734.5469 79.4688,735.2969 Q78.9844,736.0469 78.9844,737.0781 L78.9844,738.1719 Q78.9844,739.4063 79.875,740.2344 Q80.7656,741.0469 82.3594,741.0469 Q83.2969,741.0469 83.9531,740.7969 Q84.3438,740.6406 84.7656,740.2031 Q85.0313,739.9375 85.1719,739.8594 Q85.3281,739.7813 85.5313,739.7813 Q85.8594,739.7813 86.1094,740.0469 Q86.375,740.2969 86.375,740.6406 Q86.375,740.9844 86.0313,741.3906 Q85.5313,741.9688 84.7344,742.2969 Q83.6563,742.75 82.3594,742.75 Q80.8438,742.75 79.6406,742.125 Q78.6563,741.625 77.9688,740.5625 Q77.2813,739.4844 77.2813,738.2031 L77.2813,737.0469 Q77.2813,735.7188 77.8906,734.5781 Q78.5156,733.4219 79.6094,732.8125 Q80.7031,732.1875 81.9375,732.1875 Q82.6719,732.1875 83.3125,732.3594 Q83.9688,732.5156 84.5156,732.875 Z " fill="#000000"/><text fill="#000000" font-family="sans-serif" font-size="14" lengthAdjust="spacing" textLength="88" x="102.25" y="742.7969">StoreNetWork</text><line style="stroke:#181818;stroke-width:0.5;" x1="8" x2="252" y1="753" y2="753"/><rect fill="none" height="6" style="stroke:#C82930;stroke-width:1.0;" width="6" x="15" y="764.8105"/><text fill="#000000" font-family="sans-serif" font-size="14" lengthAdjust="spacing" textLength="76" x="27" y="772.1074">String name</text><rect fill="none" height="6" style="stroke:#C82930;stroke-width:1.0;" width="6" x="15" y="783.4316"/><text fill="#000000" font-family="sans-serif" font-size="14" lengthAdjust="spacing" textLength="92" x="27" y="790.7285">String address</text><rect fill="none" height="6" style="stroke:#C82930;stroke-width:1.0;" width="6" x="15" y="802.0527"/><text fill="#000000" font-family="sans-serif" font-size="14" lengthAdjust="spacing" textLength="112" x="27" y="809.3496">int branchNumber</text><line style="stroke:#181818;stroke-width:0.5;" x1="8" x2="252" y1="816.8633" y2="816.8633"/><ellipse cx="18" cy="840.9844" fill="#84BE84" rx="3" ry="3" style="stroke:#038048;stroke-width:1.0;"/><text fill="#000000" font-family="sans-serif" font-size="14" lengthAdjust="spacing" textLength="216" x="27" y="835.9707">createStore(ID, designation/name,</text><text fill="#000000" font-family="sans-serif" font-size="14" lengthAdjust="spacing" textLength="200" x="31" y="854.5918">location, phone number, e-mail)</text><ellipse cx="18" cy="868.916" fill="#84BE84" rx="3" ry="3" style="stroke:#038048;stroke-width:1.0;"/><text fill="#000000" font-family="sans-serif" font-size="14" lengthAdjust="spacing" textLength="91" x="27" y="873.2129">validate(store)</text><ellipse cx="18" cy="887.5371" fill="#84BE84" rx="3" ry="3" style="stroke:#038048;stroke-width:1.0;"/><text fill="#000000" font-family="sans-serif" font-size="14" lengthAdjust="spacing" textLength="100" x="27" y="891.834">addStore(store)</text></g><!--class Administrator--><g id="elem_Administrator"><rect codeLine="44" fill="#F1F1F1" height="48" id="Administrator" rx="2.5" ry="2.5" style="stroke:#181818;stroke-width:0.5;" width="115" x="201.5" y="594"/><ellipse cx="216.5" cy="610" fill="#ADD1B2" rx="11" ry="11" style="stroke:#181818;stroke-width:1.0;"/><path d="M219.2656,605.875 Q219.4219,605.6563 219.6094,605.5469 Q219.7969,605.4375 220.0156,605.4375 Q220.3906,605.4375 220.625,605.7031 Q220.8594,605.9531 220.8594,606.5625 L220.8594,608.0156 Q220.8594,608.625 220.625,608.8906 Q220.3906,609.1563 220.0156,609.1563 Q219.6719,609.1563 219.4688,608.9531 Q219.2656,608.7656 219.1563,608.25 Q219.1094,607.8906 218.9219,607.7031 Q218.5938,607.3281 217.9844,607.1094 Q217.375,606.8906 216.75,606.8906 Q215.9844,606.8906 215.3438,607.2188 Q214.7188,607.5469 214.2188,608.2969 Q213.7344,609.0469 213.7344,610.0781 L213.7344,611.1719 Q213.7344,612.4063 214.625,613.2344 Q215.5156,614.0469 217.1094,614.0469 Q218.0469,614.0469 218.7031,613.7969 Q219.0938,613.6406 219.5156,613.2031 Q219.7813,612.9375 219.9219,612.8594 Q220.0781,612.7813 220.2813,612.7813 Q220.6094,612.7813 220.8594,613.0469 Q221.125,613.2969 221.125,613.6406 Q221.125,613.9844 220.7813,614.3906 Q220.2813,614.9688 219.4844,615.2969 Q218.4063,615.75 217.1094,615.75 Q215.5938,615.75 214.3906,615.125 Q213.4063,614.625 212.7188,613.5625 Q212.0313,612.4844 212.0313,611.2031 L212.0313,610.0469 Q212.0313,608.7188 212.6406,607.5781 Q213.2656,606.4219 214.3594,605.8125 Q215.4531,605.1875 216.6875,605.1875 Q217.4219,605.1875 218.0625,605.3594 Q218.7188,605.5156 219.2656,605.875 Z " fill="#000000"/><text fill="#000000" font-family="sans-serif" font-size="14" lengthAdjust="spacing" textLength="83" x="230.5" y="615.7969">Administrator</text><line style="stroke:#181818;stroke-width:0.5;" x1="202.5" x2="315.5" y1="626" y2="626"/><line style="stroke:#181818;stroke-width:0.5;" x1="202.5" x2="315.5" y1="634" y2="634"/></g><!--class Store--><g id="elem_Store"><rect codeLine="46" fill="#F1F1F1" height="215.5898" id="Store" rx="2.5" ry="2.5" style="stroke:#181818;stroke-width:0.5;" width="230" x="111" y="978"/><ellipse cx="204.75" cy="994" fill="#ADD1B2" rx="11" ry="11" style="stroke:#181818;stroke-width:1.0;"/><path d="M207.5156,989.875 Q207.6719,989.6563 207.8594,989.5469 Q208.0469,989.4375 208.2656,989.4375 Q208.6406,989.4375 208.875,989.7031 Q209.1094,989.9531 209.1094,990.5625 L209.1094,992.0156 Q209.1094,992.625 208.875,992.8906 Q208.6406,993.1563 208.2656,993.1563 Q207.9219,993.1563 207.7188,992.9531 Q207.5156,992.7656 207.4063,992.25 Q207.3594,991.8906 207.1719,991.7031 Q206.8438,991.3281 206.2344,991.1094 Q205.625,990.8906 205,990.8906 Q204.2344,990.8906 203.5938,991.2188 Q202.9688,991.5469 202.4688,992.2969 Q201.9844,993.0469 201.9844,994.0781 L201.9844,995.1719 Q201.9844,996.4063 202.875,997.2344 Q203.7656,998.0469 205.3594,998.0469 Q206.2969,998.0469 206.9531,997.7969 Q207.3438,997.6406 207.7656,997.2031 Q208.0313,996.9375 208.1719,996.8594 Q208.3281,996.7813 208.5313,996.7813 Q208.8594,996.7813 209.1094,997.0469 Q209.375,997.2969 209.375,997.6406 Q209.375,997.9844 209.0313,998.3906 Q208.5313,998.9688 207.7344,999.2969 Q206.6563,999.75 205.3594,999.75 Q203.8438,999.75 202.6406,999.125 Q201.6563,998.625 200.9688,997.5625 Q200.2813,996.4844 200.2813,995.2031 L200.2813,994.0469 Q200.2813,992.7188 200.8906,991.5781 Q201.5156,990.4219 202.6094,989.8125 Q203.7031,989.1875 204.9375,989.1875 Q205.6719,989.1875 206.3125,989.3594 Q206.9688,989.5156 207.5156,989.875 Z " fill="#000000"/><text fill="#000000" font-family="sans-serif" font-size="14" lengthAdjust="spacing" textLength="34" x="225.25" y="999.7969">Store</text><line style="stroke:#181818;stroke-width:0.5;" x1="112" x2="340" y1="1010" y2="1010"/><rect fill="none" height="6" style="stroke:#C82930;stroke-width:1.0;" width="6" x="119" y="1021.8105"/><text fill="#000000" font-family="sans-serif" font-size="14" lengthAdjust="spacing" textLength="32" x="131" y="1029.1074">Int ID</text><rect fill="none" height="6" style="stroke:#C82930;stroke-width:1.0;" width="6" x="119" y="1040.4316"/><text fill="#000000" font-family="sans-serif" font-size="14" lengthAdjust="spacing" textLength="114" x="131" y="1047.7285">String designation</text><rect fill="none" height="6" style="stroke:#C82930;stroke-width:1.0;" width="6" x="119" y="1059.0527"/><text fill="#000000" font-family="sans-serif" font-size="14" lengthAdjust="spacing" textLength="90" x="131" y="1066.3496">String location</text><rect fill="none" height="6" style="stroke:#C82930;stroke-width:1.0;" width="6" x="119" y="1077.6738"/><text fill="#000000" font-family="sans-serif" font-size="14" lengthAdjust="spacing" textLength="130" x="131" y="1084.9707">String phoneNumber</text><rect fill="none" height="6" style="stroke:#C82930;stroke-width:1.0;" width="6" x="119" y="1096.2949"/><text fill="#000000" font-family="sans-serif" font-size="14" lengthAdjust="spacing" textLength="79" x="131" y="1103.5918">String e-mail</text><rect fill="none" height="6" style="stroke:#C82930;stroke-width:1.0;" width="6" x="119" y="1114.916"/><text fill="#000000" font-family="sans-serif" font-size="14" lengthAdjust="spacing" textLength="122" x="131" y="1122.2129">Employee manager</text><line style="stroke:#181818;stroke-width:0.5;" x1="112" x2="340" y1="1129.7266" y2="1129.7266"/><ellipse cx="122" cy="1153.8477" fill="#84BE84" rx="3" ry="3" style="stroke:#038048;stroke-width:1.0;"/><text fill="#000000" font-family="sans-serif" font-size="14" lengthAdjust="spacing" textLength="176" x="131" y="1148.834">Store(ID, designation/name,</text><text fill="#000000" font-family="sans-serif" font-size="14" lengthAdjust="spacing" textLength="200" x="135" y="1167.4551">location, phone number, e-mail)</text><ellipse cx="122" cy="1181.7793" fill="#84BE84" rx="3" ry="3" style="stroke:#038048;stroke-width:1.0;"/><text fill="#000000" font-family="sans-serif" font-size="14" lengthAdjust="spacing" textLength="59" x="131" y="1186.0762">validate()</text></g><!--link CreateStoreController to RealEstate--><g id="link_CreateStoreController_RealEstate"><path codeLine="60" d="M159,238.2 C159,255.21 159,274.28 159,293.31 " fill="none" id="CreateStoreController-to-RealEstate" style="stroke:#181818;stroke-width:1.0;stroke-dasharray:7.0,7.0;"/><polygon fill="#181818" points="159,298.67,163,289.67,159,293.67,155,289.67,159,298.67" style="stroke:#181818;stroke-width:1.0;"/></g><!--link RealEstate to Administrator--><g id="link_RealEstate_Administrator"><path codeLine="62" d="M210.32,515.26 C224.51,544.92 238.57,574.29 247.9,593.79 " fill="none" id="RealEstate-Administrator" style="stroke:#181818;stroke-width:1.0;"/><polygon fill="#000000" points="239.1583,559.1557,237.9049,549.7281,232.6029,552.2653,239.1583,559.1557" style="stroke:#000000;stroke-width:1.0;"/><text fill="#000000" font-family="sans-serif" font-size="13" lengthAdjust="spacing" textLength="21" x="246" y="560.0283">has</text><text fill="#000000" font-family="sans-serif" font-size="13" lengthAdjust="spacing" textLength="7" x="206.3835" y="536.7907">1</text><text fill="#000000" font-family="sans-serif" font-size="13" lengthAdjust="spacing" textLength="7" x="237.3413" y="582.8807">1</text></g><!--link RealEstate to StoreNetWork--><g id="link_RealEstate_StoreNetWork"><path codeLine="63" d="M151.25,515.2 C146.6,579.46 140.76,660.19 136.38,720.75 " fill="none" id="RealEstate-StoreNetWork" style="stroke:#181818;stroke-width:1.0;"/><polygon fill="#000000" points="150.6392,623.1325,154.2231,614.323,148.3606,613.8989,150.6392,623.1325" style="stroke:#000000;stroke-width:1.0;"/><text fill="#000000" font-family="sans-serif" font-size="13" lengthAdjust="spacing" textLength="21" x="160" y="623.5283">has</text><text fill="#000000" font-family="sans-serif" font-size="13" lengthAdjust="spacing" textLength="7" x="143.5293" y="536.7269">1</text><text fill="#000000" font-family="sans-serif" font-size="13" lengthAdjust="spacing" textLength="7" x="129.6185" y="709.6811">1</text></g><!--link StoreNetWork to Store--><g id="link_StoreNetWork_Store"><path codeLine="68" d="M160.9,899.2 C169.67,924.23 179.32,951.77 188.44,977.79 " fill="none" id="StoreNetWork-Store" style="stroke:#181818;stroke-width:1.0;"/><polygon fill="#000000" points="184.6535,943.3642,184.4358,933.8561,178.8887,935.8,184.6535,943.3642" style="stroke:#000000;stroke-width:1.0;"/><text fill="#000000" font-family="sans-serif" font-size="13" lengthAdjust="spacing" textLength="21" x="192" y="944.0283">has</text><text fill="#000000" font-family="sans-serif" font-size="13" lengthAdjust="spacing" textLength="7" x="156.1691" y="921.3168">1</text><text fill="#000000" font-family="sans-serif" font-size="13" lengthAdjust="spacing" textLength="5" x="180.6233" y="966.6368">*</text></g><!--link Administrator to Store--><g id="link_Administrator_Store"><path codeLine="69" d="M272.07,642.09 C280.16,656.37 289,672 289,672 C289,672 289,691 289,691 C289,691 271,899 271,899 C271,899 261.92,936.53 251.92,977.88 " fill="none" id="Administrator-Store" style="stroke:#181818;stroke-width:1.0;"/><polygon fill="#000000" points="291.2995,805.1545,287.8241,814.0073,293.6913,814.3594,291.2995,805.1545" style="stroke:#000000;stroke-width:1.0;"/><text fill="#000000" font-family="sans-serif" font-size="13" lengthAdjust="spacing" textLength="65" x="300" y="815.5283">Created By</text><text fill="#000000" font-family="sans-serif" font-size="13" lengthAdjust="spacing" textLength="7" x="267.4027" y="664.0976">1</text><text fill="#000000" font-family="sans-serif" font-size="13" lengthAdjust="spacing" textLength="5" x="248.5667" y="966.7331">*</text></g><!--link Administrator to StoreNetWork--><g id="link_Administrator_StoreNetWork"><path codeLine="70" d="M243.18,642.3 C229.73,662.12 209.51,691.89 189.87,720.81 " fill="none" id="Administrator-StoreNetWork" style="stroke:#181818;stroke-width:1.0;"/><polygon fill="#000000" points="222.1912,685.782,229.7037,679.95,224.841,676.648,222.1912,685.782" style="stroke:#000000;stroke-width:1.0;"/><text fill="#000000" font-family="sans-serif" font-size="13" lengthAdjust="spacing" textLength="46" x="234" y="687.0283">Manage</text><text fill="#000000" font-family="sans-serif" font-size="13" lengthAdjust="spacing" textLength="7" x="231.7123" y="663.947">1</text><text fill="#000000" font-family="sans-serif" font-size="13" lengthAdjust="spacing" textLength="7" x="187.5381" y="709.746">1</text></g><!--link CreateStoreUI to CreateStoreController--><g id="link_CreateStoreUI_CreateStoreController"><path codeLine="71" d="M159,55.14 C159,70.31 159,90.96 159,110.9 " fill="none" id="CreateStoreUI-to-CreateStoreController" style="stroke:#181818;stroke-width:1.0;stroke-dasharray:7.0,7.0;"/><polygon fill="#181818" points="159,115.95,163,106.95,159,110.95,155,106.95,159,115.95" style="stroke:#181818;stroke-width:1.0;"/></g><!--SRC=[hLInRjim4Dtr5OSiTbexHTUY2D0c6JmaGuAYIvSpTP48apo1l2GGXFvxIScoHLieCeI38BttT7VlKTGYxBHhqAC5ouvLxTaIY7-XuiWqg7POqPEqXi2J4dILcGf2ZIM_QLV1CvemPOns96r3qB1fqqEnc27P2nVzKWP3W1jFAB4VU_grwOg_v_0DE_5i3FckWBW-pvFBoprRaVJK0yblzhi3hevlBJUtAoWfwCgXQ7PV75fQmHy7XbMFhA2fsH6u5xiblm9QMzJcieW3BWmz2mY3rrKjKEeKKtnbOkgHqDm5YUsw_mwrXYVnASlKFqUmB3s5a8DnPELraxgTC6-q3LfEQlGM7de7EJ6uoR5Nb3cfuOgBmxPCFNGVcUjGwXMDBcEnPKZLHZH6CLIVeEzEJZk1hKUdwhsxqSgFqcgdWtYCLRlSuMZjOqsDas_YI9lRivqTwv_chsRGz-tidMqCjqHWqSL3xTC-nZLxVE3gwdhotHR5yHuklbwir_6IPmRVeCO0rxFAwOTo4AQL4OFyqrv-qELjpaJ3_2NyRE7xhFQy_tqVG2oT_MvwpxDff4d_0G00]--></g></svg>