<?xml version="1.0" encoding="us-ascii" standalone="no"?><svg xmlns="http://www.w3.org/2000/svg" xmlns:xlink="http://www.w3.org/1999/xlink" contentStyleType="text/css" height="1180px" preserveAspectRatio="none" style="width:676px;height:1180px;background:#FFFFFF;" version="1.1" viewBox="0 0 676 1180" width="676px" zoomAndPan="magnify"><defs/><g><!--class Employee--><g id="elem_Employee"><rect codeLine="7" fill="#F1F1F1" height="66.6211" id="Employee" rx="2.5" ry="2.5" style="stroke:#181818;stroke-width:0.5;" width="94" x="200" y="1107"/><ellipse cx="215" cy="1123" fill="#ADD1B2" rx="11" ry="11" style="stroke:#181818;stroke-width:1.0;"/><path d="M217.7656,1118.875 Q217.9219,1118.6563 218.1094,1118.5469 Q218.2969,1118.4375 218.5156,1118.4375 Q218.8906,1118.4375 219.125,1118.7031 Q219.3594,1118.9531 219.3594,1119.5625 L219.3594,1121.0156 Q219.3594,1121.625 219.125,1121.8906 Q218.8906,1122.1563 218.5156,1122.1563 Q218.1719,1122.1563 217.9688,1121.9531 Q217.7656,1121.7656 217.6563,1121.25 Q217.6094,1120.8906 217.4219,1120.7031 Q217.0938,1120.3281 216.4844,1120.1094 Q215.875,1119.8906 215.25,1119.8906 Q214.4844,1119.8906 213.8438,1120.2188 Q213.2188,1120.5469 212.7188,1121.2969 Q212.2344,1122.0469 212.2344,1123.0781 L212.2344,1124.1719 Q212.2344,1125.4063 213.125,1126.2344 Q214.0156,1127.0469 215.6094,1127.0469 Q216.5469,1127.0469 217.2031,1126.7969 Q217.5938,1126.6406 218.0156,1126.2031 Q218.2813,1125.9375 218.4219,1125.8594 Q218.5781,1125.7813 218.7813,1125.7813 Q219.1094,1125.7813 219.3594,1126.0469 Q219.625,1126.2969 219.625,1126.6406 Q219.625,1126.9844 219.2813,1127.3906 Q218.7813,1127.9688 217.9844,1128.2969 Q216.9063,1128.75 215.6094,1128.75 Q214.0938,1128.75 212.8906,1128.125 Q211.9063,1127.625 211.2188,1126.5625 Q210.5313,1125.4844 210.5313,1124.2031 L210.5313,1123.0469 Q210.5313,1121.7188 211.1406,1120.5781 Q211.7656,1119.4219 212.8594,1118.8125 Q213.9531,1118.1875 215.1875,1118.1875 Q215.9219,1118.1875 216.5625,1118.3594 Q217.2188,1118.5156 217.7656,1118.875 Z " fill="#000000"/><text fill="#000000" font-family="sans-serif" font-size="14" lengthAdjust="spacing" textLength="62" x="229" y="1128.7969">Employee</text><line style="stroke:#181818;stroke-width:0.5;" x1="201" x2="293" y1="1139" y2="1139"/><rect fill="none" height="6" style="stroke:#C82930;stroke-width:1.0;" width="6" x="208" y="1150.8105"/><text fill="#000000" font-family="sans-serif" font-size="14" lengthAdjust="spacing" textLength="38" x="220" y="1158.1074">salary</text><line style="stroke:#181818;stroke-width:0.5;" x1="201" x2="293" y1="1165.6211" y2="1165.6211"/></g><!--class User--><g id="elem_User"><rect codeLine="13" fill="#F1F1F1" height="196.9688" id="User" rx="2.5" ry="2.5" style="stroke:#181818;stroke-width:0.5;" width="118" x="7" y="812.5"/><ellipse cx="47.65" cy="828.5" fill="#ADD1B2" rx="11" ry="11" style="stroke:#181818;stroke-width:1.0;"/><path d="M50.4156,824.375 Q50.5719,824.1563 50.7594,824.0469 Q50.9469,823.9375 51.1656,823.9375 Q51.5406,823.9375 51.775,824.2031 Q52.0094,824.4531 52.0094,825.0625 L52.0094,826.5156 Q52.0094,827.125 51.775,827.3906 Q51.5406,827.6563 51.1656,827.6563 Q50.8219,827.6563 50.6188,827.4531 Q50.4156,827.2656 50.3063,826.75 Q50.2594,826.3906 50.0719,826.2031 Q49.7438,825.8281 49.1344,825.6094 Q48.525,825.3906 47.9,825.3906 Q47.1344,825.3906 46.4938,825.7188 Q45.8688,826.0469 45.3688,826.7969 Q44.8844,827.5469 44.8844,828.5781 L44.8844,829.6719 Q44.8844,830.9063 45.775,831.7344 Q46.6656,832.5469 48.2594,832.5469 Q49.1969,832.5469 49.8531,832.2969 Q50.2438,832.1406 50.6656,831.7031 Q50.9313,831.4375 51.0719,831.3594 Q51.2281,831.2813 51.4313,831.2813 Q51.7594,831.2813 52.0094,831.5469 Q52.275,831.7969 52.275,832.1406 Q52.275,832.4844 51.9313,832.8906 Q51.4313,833.4688 50.6344,833.7969 Q49.5563,834.25 48.2594,834.25 Q46.7438,834.25 45.5406,833.625 Q44.5563,833.125 43.8688,832.0625 Q43.1813,830.9844 43.1813,829.7031 L43.1813,828.5469 Q43.1813,827.2188 43.7906,826.0781 Q44.4156,824.9219 45.5094,824.3125 Q46.6031,823.6875 47.8375,823.6875 Q48.5719,823.6875 49.2125,823.8594 Q49.8688,824.0156 50.4156,824.375 Z " fill="#000000"/><text fill="#000000" font-family="sans-serif" font-size="14" lengthAdjust="spacing" textLength="29" x="67.35" y="834.2969">User</text><line style="stroke:#181818;stroke-width:0.5;" x1="8" x2="124" y1="844.5" y2="844.5"/><rect fill="none" height="6" style="stroke:#C82930;stroke-width:1.0;" width="6" x="15" y="856.3105"/><text fill="#000000" font-family="sans-serif" font-size="14" lengthAdjust="spacing" textLength="35" x="27" y="863.6074">name</text><rect fill="none" height="6" style="stroke:#C82930;stroke-width:1.0;" width="6" x="15" y="874.9316"/><text fill="#000000" font-family="sans-serif" font-size="14" lengthAdjust="spacing" textLength="76" x="27" y="882.2285">descriptions</text><rect fill="none" height="6" style="stroke:#C82930;stroke-width:1.0;" width="6" x="15" y="893.5527"/><text fill="#000000" font-family="sans-serif" font-size="14" lengthAdjust="spacing" textLength="70" x="27" y="900.8496">tax number</text><rect fill="none" height="6" style="stroke:#C82930;stroke-width:1.0;" width="6" x="15" y="912.1738"/><text fill="#000000" font-family="sans-serif" font-size="14" lengthAdjust="spacing" textLength="51" x="27" y="919.4707">address</text><rect fill="none" height="6" style="stroke:#C82930;stroke-width:1.0;" width="6" x="15" y="930.7949"/><text fill="#000000" font-family="sans-serif" font-size="14" lengthAdjust="spacing" textLength="88" x="27" y="938.0918">email address</text><rect fill="none" height="6" style="stroke:#C82930;stroke-width:1.0;" width="6" x="15" y="949.416"/><text fill="#000000" font-family="sans-serif" font-size="14" lengthAdjust="spacing" textLength="92" x="27" y="956.7129">phone number</text><rect fill="none" height="6" style="stroke:#C82930;stroke-width:1.0;" width="6" x="15" y="968.0371"/><text fill="#000000" font-family="sans-serif" font-size="14" lengthAdjust="spacing" textLength="60" x="27" y="975.334">password</text><rect fill="none" height="6" style="stroke:#C82930;stroke-width:1.0;" width="6" x="15" y="986.6582"/><text fill="#000000" font-family="sans-serif" font-size="14" lengthAdjust="spacing" textLength="31" x="27" y="993.9551">roles</text><line style="stroke:#181818;stroke-width:0.5;" x1="8" x2="124" y1="1001.4688" y2="1001.4688"/></g><!--class Roles--><g id="elem_Roles"><rect codeLine="10" fill="#F1F1F1" height="48" id="Roles" rx="2.5" ry="2.5" style="stroke:#181818;stroke-width:0.5;" width="68" x="32" y="1116.5"/><ellipse cx="47" cy="1132.5" fill="#EB937F" rx="11" ry="11" style="stroke:#181818;stroke-width:1.0;"/><path d="M45.8594,1133.2969 L45.8594,1135.7969 L50.1875,1135.7969 L50.1875,1134.875 Q50.1875,1134.2656 50.4219,1134 Q50.6719,1133.7344 51.0469,1133.7344 Q51.4219,1133.7344 51.6563,1134 Q51.8906,1134.2656 51.8906,1134.875 L51.8906,1137.5 L43.8906,1137.5 Q43.2656,1137.5 43,1137.2656 Q42.75,1137.0313 42.75,1136.6406 Q42.75,1136.2656 43.0156,1136.0313 Q43.2813,1135.7969 43.8906,1135.7969 L44.1563,1135.7969 L44.1563,1129.1406 L43.8906,1129.1406 Q43.2656,1129.1406 43,1128.9063 Q42.75,1128.6719 42.75,1128.2813 Q42.75,1127.9063 43,1127.6719 Q43.2656,1127.4375 43.8906,1127.4375 L51.5156,1127.4375 L51.5156,1130.0313 Q51.5156,1130.6406 51.2813,1130.9063 Q51.0625,1131.1563 50.6719,1131.1563 Q50.2969,1131.1563 50.0625,1130.9063 Q49.8281,1130.6406 49.8281,1130.0313 L49.8281,1129.1406 L45.8594,1129.1406 L45.8594,1131.5938 L47.3438,1131.5938 Q47.3438,1130.9375 47.4688,1130.75 Q47.7344,1130.3438 48.2031,1130.3438 Q48.5781,1130.3438 48.8125,1130.6094 Q49.0469,1130.8594 49.0469,1131.4688 L49.0469,1133.4375 Q49.0469,1133.9844 48.9219,1134.1719 Q48.6563,1134.5625 48.2031,1134.5625 Q47.7344,1134.5625 47.4688,1134.1563 Q47.3438,1133.9688 47.3438,1133.2969 L45.8594,1133.2969 Z " fill="#000000"/><text fill="#000000" font-family="sans-serif" font-size="14" lengthAdjust="spacing" textLength="36" x="61" y="1138.2969">Roles</text><line style="stroke:#181818;stroke-width:0.5;" x1="33" x2="99" y1="1148.5" y2="1148.5"/><line style="stroke:#181818;stroke-width:0.5;" x1="33" x2="99" y1="1156.5" y2="1156.5"/></g><!--class Repositories--><g id="elem_Repositories"><rect codeLine="25" fill="#F1F1F1" height="103.8633" id="Repositories" rx="2.5" ry="2.5" style="stroke:#181818;stroke-width:0.5;" width="200" x="122" y="410"/><ellipse cx="178.25" cy="426" fill="#ADD1B2" rx="11" ry="11" style="stroke:#181818;stroke-width:1.0;"/><path d="M181.0156,421.875 Q181.1719,421.6563 181.3594,421.5469 Q181.5469,421.4375 181.7656,421.4375 Q182.1406,421.4375 182.375,421.7031 Q182.6094,421.9531 182.6094,422.5625 L182.6094,424.0156 Q182.6094,424.625 182.375,424.8906 Q182.1406,425.1563 181.7656,425.1563 Q181.4219,425.1563 181.2188,424.9531 Q181.0156,424.7656 180.9063,424.25 Q180.8594,423.8906 180.6719,423.7031 Q180.3438,423.3281 179.7344,423.1094 Q179.125,422.8906 178.5,422.8906 Q177.7344,422.8906 177.0938,423.2188 Q176.4688,423.5469 175.9688,424.2969 Q175.4844,425.0469 175.4844,426.0781 L175.4844,427.1719 Q175.4844,428.4063 176.375,429.2344 Q177.2656,430.0469 178.8594,430.0469 Q179.7969,430.0469 180.4531,429.7969 Q180.8438,429.6406 181.2656,429.2031 Q181.5313,428.9375 181.6719,428.8594 Q181.8281,428.7813 182.0313,428.7813 Q182.3594,428.7813 182.6094,429.0469 Q182.875,429.2969 182.875,429.6406 Q182.875,429.9844 182.5313,430.3906 Q182.0313,430.9688 181.2344,431.2969 Q180.1563,431.75 178.8594,431.75 Q177.3438,431.75 176.1406,431.125 Q175.1563,430.625 174.4688,429.5625 Q173.7813,428.4844 173.7813,427.2031 L173.7813,426.0469 Q173.7813,424.7188 174.3906,423.5781 Q175.0156,422.4219 176.1094,421.8125 Q177.2031,421.1875 178.4375,421.1875 Q179.1719,421.1875 179.8125,421.3594 Q180.4688,421.5156 181.0156,421.875 Z " fill="#000000"/><text fill="#000000" font-family="sans-serif" font-size="14" lengthAdjust="spacing" textLength="79" x="198.75" y="431.7969">Repositories</text><line style="stroke:#181818;stroke-width:0.5;" x1="123" x2="321" y1="442" y2="442"/><line style="stroke:#181818;stroke-width:0.5;" x1="123" x2="321" y1="450" y2="450"/><rect fill="#F24D5C" height="6" style="stroke:#C82930;stroke-width:1.0;" width="6" x="130" y="461.8105"/><text fill="#000000" font-family="sans-serif" font-size="14" lengthAdjust="spacing" textLength="89" x="142" y="469.1074">Repositories()</text><ellipse cx="133" cy="483.4316" fill="#84BE84" rx="3" ry="3" style="stroke:#038048;stroke-width:1.0;"/><text fill="#000000" font-family="sans-serif" font-size="14" lengthAdjust="spacing" textLength="174" x="142" y="487.7285">getInstance() : Repositories</text><ellipse cx="133" cy="502.0527" fill="#84BE84" rx="3" ry="3" style="stroke:#038048;stroke-width:1.0;"/><text fill="#000000" font-family="sans-serif" font-size="14" lengthAdjust="spacing" textLength="132" x="142" y="506.3496">getStoreRepository()</text></g><!--class CreateStoreUI--><g id="elem_CreateStoreUI"><rect codeLine="31" fill="#F1F1F1" height="48" id="CreateStoreUI" rx="2.5" ry="2.5" style="stroke:#181818;stroke-width:0.5;" width="121" x="264.5" y="7"/><ellipse cx="279.5" cy="23" fill="#ADD1B2" rx="11" ry="11" style="stroke:#181818;stroke-width:1.0;"/><path d="M282.2656,18.875 Q282.4219,18.6563 282.6094,18.5469 Q282.7969,18.4375 283.0156,18.4375 Q283.3906,18.4375 283.625,18.7031 Q283.8594,18.9531 283.8594,19.5625 L283.8594,21.0156 Q283.8594,21.625 283.625,21.8906 Q283.3906,22.1563 283.0156,22.1563 Q282.6719,22.1563 282.4688,21.9531 Q282.2656,21.7656 282.1563,21.25 Q282.1094,20.8906 281.9219,20.7031 Q281.5938,20.3281 280.9844,20.1094 Q280.375,19.8906 279.75,19.8906 Q278.9844,19.8906 278.3438,20.2188 Q277.7188,20.5469 277.2188,21.2969 Q276.7344,22.0469 276.7344,23.0781 L276.7344,24.1719 Q276.7344,25.4063 277.625,26.2344 Q278.5156,27.0469 280.1094,27.0469 Q281.0469,27.0469 281.7031,26.7969 Q282.0938,26.6406 282.5156,26.2031 Q282.7813,25.9375 282.9219,25.8594 Q283.0781,25.7813 283.2813,25.7813 Q283.6094,25.7813 283.8594,26.0469 Q284.125,26.2969 284.125,26.6406 Q284.125,26.9844 283.7813,27.3906 Q283.2813,27.9688 282.4844,28.2969 Q281.4063,28.75 280.1094,28.75 Q278.5938,28.75 277.3906,28.125 Q276.4063,27.625 275.7188,26.5625 Q275.0313,25.4844 275.0313,24.2031 L275.0313,23.0469 Q275.0313,21.7188 275.6406,20.5781 Q276.2656,19.4219 277.3594,18.8125 Q278.4531,18.1875 279.6875,18.1875 Q280.4219,18.1875 281.0625,18.3594 Q281.7188,18.5156 282.2656,18.875 Z " fill="#000000"/><text fill="#000000" font-family="sans-serif" font-size="14" lengthAdjust="spacing" textLength="89" x="293.5" y="28.7969">CreateStoreUI</text><line style="stroke:#181818;stroke-width:0.5;" x1="265.5" x2="384.5" y1="39" y2="39"/><line style="stroke:#181818;stroke-width:0.5;" x1="265.5" x2="384.5" y1="47" y2="47"/></g><!--class CreateStoreController--><g id="elem_CreateStoreController"><rect codeLine="33" fill="#F1F1F1" height="141.1055" id="CreateStoreController" rx="2.5" ry="2.5" style="stroke:#181818;stroke-width:0.5;" width="305" x="172.5" y="134.5"/><ellipse cx="251.25" cy="150.5" fill="#ADD1B2" rx="11" ry="11" style="stroke:#181818;stroke-width:1.0;"/><path d="M254.0156,146.375 Q254.1719,146.1563 254.3594,146.0469 Q254.5469,145.9375 254.7656,145.9375 Q255.1406,145.9375 255.375,146.2031 Q255.6094,146.4531 255.6094,147.0625 L255.6094,148.5156 Q255.6094,149.125 255.375,149.3906 Q255.1406,149.6563 254.7656,149.6563 Q254.4219,149.6563 254.2188,149.4531 Q254.0156,149.2656 253.9063,148.75 Q253.8594,148.3906 253.6719,148.2031 Q253.3438,147.8281 252.7344,147.6094 Q252.125,147.3906 251.5,147.3906 Q250.7344,147.3906 250.0938,147.7188 Q249.4688,148.0469 248.9688,148.7969 Q248.4844,149.5469 248.4844,150.5781 L248.4844,151.6719 Q248.4844,152.9063 249.375,153.7344 Q250.2656,154.5469 251.8594,154.5469 Q252.7969,154.5469 253.4531,154.2969 Q253.8438,154.1406 254.2656,153.7031 Q254.5313,153.4375 254.6719,153.3594 Q254.8281,153.2813 255.0313,153.2813 Q255.3594,153.2813 255.6094,153.5469 Q255.875,153.7969 255.875,154.1406 Q255.875,154.4844 255.5313,154.8906 Q255.0313,155.4688 254.2344,155.7969 Q253.1563,156.25 251.8594,156.25 Q250.3438,156.25 249.1406,155.625 Q248.1563,155.125 247.4688,154.0625 Q246.7813,152.9844 246.7813,151.7031 L246.7813,150.5469 Q246.7813,149.2188 247.3906,148.0781 Q248.0156,146.9219 249.1094,146.3125 Q250.2031,145.6875 251.4375,145.6875 Q252.1719,145.6875 252.8125,145.8594 Q253.4688,146.0156 254.0156,146.375 Z " fill="#000000"/><text fill="#000000" font-family="sans-serif" font-size="14" lengthAdjust="spacing" textLength="139" x="271.75" y="156.2969">CreateStoreController</text><line style="stroke:#181818;stroke-width:0.5;" x1="173.5" x2="476.5" y1="166.5" y2="166.5"/><line style="stroke:#181818;stroke-width:0.5;" x1="173.5" x2="476.5" y1="174.5" y2="174.5"/><ellipse cx="183.5" cy="189.3105" fill="#84BE84" rx="3" ry="3" style="stroke:#038048;stroke-width:1.0;"/><text fill="#000000" font-family="sans-serif" font-size="14" lengthAdjust="spacing" textLength="149" x="192.5" y="193.6074">CreateStoreController()</text><ellipse cx="183.5" cy="207.9316" fill="#84BE84" rx="3" ry="3" style="stroke:#038048;stroke-width:1.0;"/><text fill="#000000" font-family="sans-serif" font-size="14" lengthAdjust="spacing" textLength="118" x="192.5" y="212.2285">getStoreNetWork()</text><ellipse cx="183.5" cy="235.8633" fill="#84BE84" rx="3" ry="3" style="stroke:#038048;stroke-width:1.0;"/><text fill="#000000" font-family="sans-serif" font-size="14" lengthAdjust="spacing" textLength="253" x="192.5" y="230.8496">createStore(designation, phoneNumber,</text><text fill="#000000" font-family="sans-serif" font-size="14" lengthAdjust="spacing" textLength="275" x="196.5" y="249.4707">e-mail, vatNumber, address,branchNumber)</text><ellipse cx="183.5" cy="263.7949" fill="#84BE84" rx="3" ry="3" style="stroke:#038048;stroke-width:1.0;"/><text fill="#000000" font-family="sans-serif" font-size="14" lengthAdjust="spacing" textLength="132" x="192.5" y="268.0918">getStoreRepository()</text></g><!--class RealEstate--><g id="elem_RealEstate"><rect codeLine="41" fill="#F1F1F1" height="178.3477" id="RealEstate" rx="2.5" ry="2.5" style="stroke:#181818;stroke-width:0.5;" width="156" x="513" y="116"/><ellipse cx="552.75" cy="132" fill="#ADD1B2" rx="11" ry="11" style="stroke:#181818;stroke-width:1.0;"/><path d="M555.5156,127.875 Q555.6719,127.6563 555.8594,127.5469 Q556.0469,127.4375 556.2656,127.4375 Q556.6406,127.4375 556.875,127.7031 Q557.1094,127.9531 557.1094,128.5625 L557.1094,130.0156 Q557.1094,130.625 556.875,130.8906 Q556.6406,131.1563 556.2656,131.1563 Q555.9219,131.1563 555.7188,130.9531 Q555.5156,130.7656 555.4063,130.25 Q555.3594,129.8906 555.1719,129.7031 Q554.8438,129.3281 554.2344,129.1094 Q553.625,128.8906 553,128.8906 Q552.2344,128.8906 551.5938,129.2188 Q550.9688,129.5469 550.4688,130.2969 Q549.9844,131.0469 549.9844,132.0781 L549.9844,133.1719 Q549.9844,134.4063 550.875,135.2344 Q551.7656,136.0469 553.3594,136.0469 Q554.2969,136.0469 554.9531,135.7969 Q555.3438,135.6406 555.7656,135.2031 Q556.0313,134.9375 556.1719,134.8594 Q556.3281,134.7813 556.5313,134.7813 Q556.8594,134.7813 557.1094,135.0469 Q557.375,135.2969 557.375,135.6406 Q557.375,135.9844 557.0313,136.3906 Q556.5313,136.9688 555.7344,137.2969 Q554.6563,137.75 553.3594,137.75 Q551.8438,137.75 550.6406,137.125 Q549.6563,136.625 548.9688,135.5625 Q548.2813,134.4844 548.2813,133.2031 L548.2813,132.0469 Q548.2813,130.7188 548.8906,129.5781 Q549.5156,128.4219 550.6094,127.8125 Q551.7031,127.1875 552.9375,127.1875 Q553.6719,127.1875 554.3125,127.3594 Q554.9688,127.5156 555.5156,127.875 Z " fill="#000000"/><text fill="#000000" font-family="sans-serif" font-size="14" lengthAdjust="spacing" textLength="69" x="572.25" y="137.7969">RealEstate</text><line style="stroke:#181818;stroke-width:0.5;" x1="514" x2="668" y1="148" y2="148"/><rect fill="none" height="6" style="stroke:#C82930;stroke-width:1.0;" width="6" x="521" y="159.8105"/><text fill="#000000" font-family="sans-serif" font-size="14" lengthAdjust="spacing" textLength="76" x="533" y="167.1074">String name</text><rect fill="none" height="6" style="stroke:#C82930;stroke-width:1.0;" width="6" x="521" y="178.4316"/><text fill="#000000" font-family="sans-serif" font-size="14" lengthAdjust="spacing" textLength="92" x="533" y="185.7285">String address</text><rect fill="none" height="6" style="stroke:#C82930;stroke-width:1.0;" width="6" x="521" y="197.0527"/><text fill="#000000" font-family="sans-serif" font-size="14" lengthAdjust="spacing" textLength="117" x="533" y="204.3496">String descriptions</text><rect fill="none" height="6" style="stroke:#C82930;stroke-width:1.0;" width="6" x="521" y="215.6738"/><text fill="#000000" font-family="sans-serif" font-size="14" lengthAdjust="spacing" textLength="88" x="533" y="222.9707">String website</text><rect fill="none" height="6" style="stroke:#C82930;stroke-width:1.0;" width="6" x="521" y="234.2949"/><text fill="#000000" font-family="sans-serif" font-size="14" lengthAdjust="spacing" textLength="130" x="533" y="241.5918">String phoneNumber</text><rect fill="none" height="6" style="stroke:#C82930;stroke-width:1.0;" width="6" x="521" y="252.916"/><text fill="#000000" font-family="sans-serif" font-size="14" lengthAdjust="spacing" textLength="79" x="533" y="260.2129">String e-mail</text><rect fill="none" height="6" style="stroke:#C82930;stroke-width:1.0;" width="6" x="521" y="271.5371"/><text fill="#000000" font-family="sans-serif" font-size="14" lengthAdjust="spacing" textLength="109" x="533" y="278.834">String vatNumber</text><line style="stroke:#181818;stroke-width:0.5;" x1="514" x2="668" y1="286.3477" y2="286.3477"/></g><!--class StoreNetWork--><g id="elem_StoreNetWork"><rect codeLine="50" fill="#F1F1F1" height="178.3477" id="StoreNetWork" rx="2.5" ry="2.5" style="stroke:#181818;stroke-width:0.5;" width="305" x="357.5" y="373"/><ellipse cx="461.75" cy="389" fill="#ADD1B2" rx="11" ry="11" style="stroke:#181818;stroke-width:1.0;"/><path d="M464.5156,384.875 Q464.6719,384.6563 464.8594,384.5469 Q465.0469,384.4375 465.2656,384.4375 Q465.6406,384.4375 465.875,384.7031 Q466.1094,384.9531 466.1094,385.5625 L466.1094,387.0156 Q466.1094,387.625 465.875,387.8906 Q465.6406,388.1563 465.2656,388.1563 Q464.9219,388.1563 464.7188,387.9531 Q464.5156,387.7656 464.4063,387.25 Q464.3594,386.8906 464.1719,386.7031 Q463.8438,386.3281 463.2344,386.1094 Q462.625,385.8906 462,385.8906 Q461.2344,385.8906 460.5938,386.2188 Q459.9688,386.5469 459.4688,387.2969 Q458.9844,388.0469 458.9844,389.0781 L458.9844,390.1719 Q458.9844,391.4063 459.875,392.2344 Q460.7656,393.0469 462.3594,393.0469 Q463.2969,393.0469 463.9531,392.7969 Q464.3438,392.6406 464.7656,392.2031 Q465.0313,391.9375 465.1719,391.8594 Q465.3281,391.7813 465.5313,391.7813 Q465.8594,391.7813 466.1094,392.0469 Q466.375,392.2969 466.375,392.6406 Q466.375,392.9844 466.0313,393.3906 Q465.5313,393.9688 464.7344,394.2969 Q463.6563,394.75 462.3594,394.75 Q460.8438,394.75 459.6406,394.125 Q458.6563,393.625 457.9688,392.5625 Q457.2813,391.4844 457.2813,390.2031 L457.2813,389.0469 Q457.2813,387.7188 457.8906,386.5781 Q458.5156,385.4219 459.6094,384.8125 Q460.7031,384.1875 461.9375,384.1875 Q462.6719,384.1875 463.3125,384.3594 Q463.9688,384.5156 464.5156,384.875 Z " fill="#000000"/><text fill="#000000" font-family="sans-serif" font-size="14" lengthAdjust="spacing" textLength="88" x="482.25" y="394.7969">StoreNetWork</text><line style="stroke:#181818;stroke-width:0.5;" x1="358.5" x2="661.5" y1="405" y2="405"/><rect fill="none" height="6" style="stroke:#C82930;stroke-width:1.0;" width="6" x="365.5" y="416.8105"/><text fill="#000000" font-family="sans-serif" font-size="14" lengthAdjust="spacing" textLength="76" x="377.5" y="424.1074">String name</text><rect fill="none" height="6" style="stroke:#C82930;stroke-width:1.0;" width="6" x="365.5" y="435.4316"/><text fill="#000000" font-family="sans-serif" font-size="14" lengthAdjust="spacing" textLength="92" x="377.5" y="442.7285">String address</text><rect fill="none" height="6" style="stroke:#C82930;stroke-width:1.0;" width="6" x="365.5" y="454.0527"/><text fill="#000000" font-family="sans-serif" font-size="14" lengthAdjust="spacing" textLength="112" x="377.5" y="461.3496">int branchNumber</text><rect fill="none" height="6" style="stroke:#C82930;stroke-width:1.0;" width="6" x="365.5" y="472.6738"/><text fill="#000000" font-family="sans-serif" font-size="14" lengthAdjust="spacing" textLength="169" x="377.5" y="479.9707">StoreRepository repository</text><line style="stroke:#181818;stroke-width:0.5;" x1="358.5" x2="661.5" y1="487.4844" y2="487.4844"/><ellipse cx="368.5" cy="511.6055" fill="#84BE84" rx="3" ry="3" style="stroke:#038048;stroke-width:1.0;"/><text fill="#000000" font-family="sans-serif" font-size="14" lengthAdjust="spacing" textLength="253" x="377.5" y="506.5918">createStore(designation, phoneNumber,</text><text fill="#000000" font-family="sans-serif" font-size="14" lengthAdjust="spacing" textLength="275" x="381.5" y="525.2129">e-mail, vatNumber, address,branchNumber)</text><ellipse cx="368.5" cy="539.5371" fill="#84BE84" rx="3" ry="3" style="stroke:#038048;stroke-width:1.0;"/><text fill="#000000" font-family="sans-serif" font-size="14" lengthAdjust="spacing" textLength="100" x="377.5" y="543.834">addStore(store)</text></g><!--class Administrator--><g id="elem_Administrator"><rect codeLine="58" fill="#F1F1F1" height="48" id="Administrator" rx="2.5" ry="2.5" style="stroke:#181818;stroke-width:0.5;" width="115" x="65.5" y="648.5"/><ellipse cx="80.5" cy="664.5" fill="#ADD1B2" rx="11" ry="11" style="stroke:#181818;stroke-width:1.0;"/><path d="M83.2656,660.375 Q83.4219,660.1563 83.6094,660.0469 Q83.7969,659.9375 84.0156,659.9375 Q84.3906,659.9375 84.625,660.2031 Q84.8594,660.4531 84.8594,661.0625 L84.8594,662.5156 Q84.8594,663.125 84.625,663.3906 Q84.3906,663.6563 84.0156,663.6563 Q83.6719,663.6563 83.4688,663.4531 Q83.2656,663.2656 83.1563,662.75 Q83.1094,662.3906 82.9219,662.2031 Q82.5938,661.8281 81.9844,661.6094 Q81.375,661.3906 80.75,661.3906 Q79.9844,661.3906 79.3438,661.7188 Q78.7188,662.0469 78.2188,662.7969 Q77.7344,663.5469 77.7344,664.5781 L77.7344,665.6719 Q77.7344,666.9063 78.625,667.7344 Q79.5156,668.5469 81.1094,668.5469 Q82.0469,668.5469 82.7031,668.2969 Q83.0938,668.1406 83.5156,667.7031 Q83.7813,667.4375 83.9219,667.3594 Q84.0781,667.2813 84.2813,667.2813 Q84.6094,667.2813 84.8594,667.5469 Q85.125,667.7969 85.125,668.1406 Q85.125,668.4844 84.7813,668.8906 Q84.2813,669.4688 83.4844,669.7969 Q82.4063,670.25 81.1094,670.25 Q79.5938,670.25 78.3906,669.625 Q77.4063,669.125 76.7188,668.0625 Q76.0313,666.9844 76.0313,665.7031 L76.0313,664.5469 Q76.0313,663.2188 76.6406,662.0781 Q77.2656,660.9219 78.3594,660.3125 Q79.4531,659.6875 80.6875,659.6875 Q81.4219,659.6875 82.0625,659.8594 Q82.7188,660.0156 83.2656,660.375 Z " fill="#000000"/><text fill="#000000" font-family="sans-serif" font-size="14" lengthAdjust="spacing" textLength="83" x="94.5" y="670.2969">Administrator</text><line style="stroke:#181818;stroke-width:0.5;" x1="66.5" x2="179.5" y1="680.5" y2="680.5"/><line style="stroke:#181818;stroke-width:0.5;" x1="66.5" x2="179.5" y1="688.5" y2="688.5"/></g><!--class Store--><g id="elem_Store"><rect codeLine="62" fill="#F1F1F1" height="234.2109" id="Store" rx="2.5" ry="2.5" style="stroke:#181818;stroke-width:0.5;" width="305" x="160.5" y="794"/><ellipse cx="291.75" cy="810" fill="#ADD1B2" rx="11" ry="11" style="stroke:#181818;stroke-width:1.0;"/><path d="M294.5156,805.875 Q294.6719,805.6563 294.8594,805.5469 Q295.0469,805.4375 295.2656,805.4375 Q295.6406,805.4375 295.875,805.7031 Q296.1094,805.9531 296.1094,806.5625 L296.1094,808.0156 Q296.1094,808.625 295.875,808.8906 Q295.6406,809.1563 295.2656,809.1563 Q294.9219,809.1563 294.7188,808.9531 Q294.5156,808.7656 294.4063,808.25 Q294.3594,807.8906 294.1719,807.7031 Q293.8438,807.3281 293.2344,807.1094 Q292.625,806.8906 292,806.8906 Q291.2344,806.8906 290.5938,807.2188 Q289.9688,807.5469 289.4688,808.2969 Q288.9844,809.0469 288.9844,810.0781 L288.9844,811.1719 Q288.9844,812.4063 289.875,813.2344 Q290.7656,814.0469 292.3594,814.0469 Q293.2969,814.0469 293.9531,813.7969 Q294.3438,813.6406 294.7656,813.2031 Q295.0313,812.9375 295.1719,812.8594 Q295.3281,812.7813 295.5313,812.7813 Q295.8594,812.7813 296.1094,813.0469 Q296.375,813.2969 296.375,813.6406 Q296.375,813.9844 296.0313,814.3906 Q295.5313,814.9688 294.7344,815.2969 Q293.6563,815.75 292.3594,815.75 Q290.8438,815.75 289.6406,815.125 Q288.6563,814.625 287.9688,813.5625 Q287.2813,812.4844 287.2813,811.2031 L287.2813,810.0469 Q287.2813,808.7188 287.8906,807.5781 Q288.5156,806.4219 289.6094,805.8125 Q290.7031,805.1875 291.9375,805.1875 Q292.6719,805.1875 293.3125,805.3594 Q293.9688,805.5156 294.5156,805.875 Z " fill="#000000"/><text fill="#000000" font-family="sans-serif" font-size="14" lengthAdjust="spacing" textLength="34" x="312.25" y="815.7969">Store</text><line style="stroke:#181818;stroke-width:0.5;" x1="161.5" x2="464.5" y1="826" y2="826"/><rect fill="none" height="6" style="stroke:#C82930;stroke-width:1.0;" width="6" x="168.5" y="837.8105"/><text fill="#000000" font-family="sans-serif" font-size="14" lengthAdjust="spacing" textLength="112" x="180.5" y="845.1074">Int branchNumber</text><rect fill="none" height="6" style="stroke:#C82930;stroke-width:1.0;" width="6" x="168.5" y="856.4316"/><text fill="#000000" font-family="sans-serif" font-size="14" lengthAdjust="spacing" textLength="114" x="180.5" y="863.7285">String designation</text><rect fill="none" height="6" style="stroke:#C82930;stroke-width:1.0;" width="6" x="168.5" y="875.0527"/><text fill="#000000" font-family="sans-serif" font-size="14" lengthAdjust="spacing" textLength="92" x="180.5" y="882.3496">String address</text><rect fill="none" height="6" style="stroke:#C82930;stroke-width:1.0;" width="6" x="168.5" y="893.6738"/><text fill="#000000" font-family="sans-serif" font-size="14" lengthAdjust="spacing" textLength="130" x="180.5" y="900.9707">String phoneNumber</text><rect fill="none" height="6" style="stroke:#C82930;stroke-width:1.0;" width="6" x="168.5" y="912.2949"/><text fill="#000000" font-family="sans-serif" font-size="14" lengthAdjust="spacing" textLength="79" x="180.5" y="919.5918">String e-mail</text><rect fill="none" height="6" style="stroke:#C82930;stroke-width:1.0;" width="6" x="168.5" y="930.916"/><text fill="#000000" font-family="sans-serif" font-size="14" lengthAdjust="spacing" textLength="109" x="180.5" y="938.2129">String vatNumber</text><rect fill="none" height="6" style="stroke:#C82930;stroke-width:1.0;" width="6" x="168.5" y="949.5371"/><text fill="#000000" font-family="sans-serif" font-size="14" lengthAdjust="spacing" textLength="122" x="180.5" y="956.834">Employee manager</text><line style="stroke:#181818;stroke-width:0.5;" x1="161.5" x2="464.5" y1="964.3477" y2="964.3477"/><ellipse cx="171.5" cy="988.4688" fill="#84BE84" rx="3" ry="3" style="stroke:#038048;stroke-width:1.0;"/><text fill="#000000" font-family="sans-serif" font-size="14" lengthAdjust="spacing" textLength="213" x="180.5" y="983.4551">Store(designation, phoneNumber,</text><text fill="#000000" font-family="sans-serif" font-size="14" lengthAdjust="spacing" textLength="275" x="184.5" y="1002.0762">e-mail, vatNumber, address,branchNumber)</text><ellipse cx="171.5" cy="1016.4004" fill="#84BE84" rx="3" ry="3" style="stroke:#038048;stroke-width:1.0;"/><text fill="#000000" font-family="sans-serif" font-size="14" lengthAdjust="spacing" textLength="59" x="180.5" y="1020.6973">validate()</text></g><!--class StoreRepository--><g id="elem_StoreRepository"><rect codeLine="75" fill="#F1F1F1" height="85.2422" id="StoreRepository" rx="2.5" ry="2.5" style="stroke:#181818;stroke-width:0.5;" width="156" x="235" y="630"/><ellipse cx="259.9" cy="646" fill="#ADD1B2" rx="11" ry="11" style="stroke:#181818;stroke-width:1.0;"/><path d="M262.6656,641.875 Q262.8219,641.6563 263.0094,641.5469 Q263.1969,641.4375 263.4156,641.4375 Q263.7906,641.4375 264.025,641.7031 Q264.2594,641.9531 264.2594,642.5625 L264.2594,644.0156 Q264.2594,644.625 264.025,644.8906 Q263.7906,645.1563 263.4156,645.1563 Q263.0719,645.1563 262.8688,644.9531 Q262.6656,644.7656 262.5563,644.25 Q262.5094,643.8906 262.3219,643.7031 Q261.9938,643.3281 261.3844,643.1094 Q260.775,642.8906 260.15,642.8906 Q259.3844,642.8906 258.7438,643.2188 Q258.1188,643.5469 257.6188,644.2969 Q257.1344,645.0469 257.1344,646.0781 L257.1344,647.1719 Q257.1344,648.4063 258.025,649.2344 Q258.9156,650.0469 260.5094,650.0469 Q261.4469,650.0469 262.1031,649.7969 Q262.4938,649.6406 262.9156,649.2031 Q263.1813,648.9375 263.3219,648.8594 Q263.4781,648.7813 263.6813,648.7813 Q264.0094,648.7813 264.2594,649.0469 Q264.525,649.2969 264.525,649.6406 Q264.525,649.9844 264.1813,650.3906 Q263.6813,650.9688 262.8844,651.2969 Q261.8063,651.75 260.5094,651.75 Q258.9938,651.75 257.7906,651.125 Q256.8063,650.625 256.1188,649.5625 Q255.4312,648.4844 255.4312,647.2031 L255.4312,646.0469 Q255.4312,644.7188 256.0406,643.5781 Q256.6656,642.4219 257.7594,641.8125 Q258.8531,641.1875 260.0875,641.1875 Q260.8219,641.1875 261.4625,641.3594 Q262.1188,641.5156 262.6656,641.875 Z " fill="#000000"/><text fill="#000000" font-family="sans-serif" font-size="14" lengthAdjust="spacing" textLength="102" x="276.1" y="651.7969">StoreRepository</text><line style="stroke:#181818;stroke-width:0.5;" x1="236" x2="390" y1="662" y2="662"/><rect fill="none" height="6" style="stroke:#C82930;stroke-width:1.0;" width="6" x="243" y="673.8105"/><text fill="#000000" font-family="sans-serif" font-size="14" lengthAdjust="spacing" textLength="130" x="255" y="681.1074">List&lt;Store&gt; storeList</text><line style="stroke:#181818;stroke-width:0.5;" x1="236" x2="390" y1="688.6211" y2="688.6211"/><ellipse cx="246" cy="703.4316" fill="#84BE84" rx="3" ry="3" style="stroke:#038048;stroke-width:1.0;"/><text fill="#000000" font-family="sans-serif" font-size="14" lengthAdjust="spacing" textLength="91" x="255" y="707.7285">validate(store)</text></g><!--reverse link User to Employee--><g id="link_User_Employee"><path d="M136.37,1018.01 C140.49,1024.21 143,1028 143,1028 C143,1028 185.94,1074.04 216.64,1106.95 " fill="none" id="User-backto-Employee" style="stroke:#181818;stroke-width:1.0;"/><polygon fill="none" points="130.37,1021.63,125.14,1001.1,142.03,1013.89,130.37,1021.63" style="stroke:#181818;stroke-width:1.0;"/></g><!--link RealEstate to StoreNetWork--><g id="link_RealEstate_StoreNetWork"><path codeLine="81" d="M563.01,294.11 C554.92,319.59 546.08,347.4 537.99,372.88 " fill="none" id="RealEstate-StoreNetWork" style="stroke:#181818;stroke-width:1.0;"/><polygon fill="#000000" points="555.4864,338.4109,561.0256,330.6799,555.4235,328.9005,555.4864,338.4109" style="stroke:#000000;stroke-width:1.0;"/><text fill="#000000" font-family="sans-serif" font-size="13" lengthAdjust="spacing" textLength="21" x="566" y="339.0283">has</text><text fill="#000000" font-family="sans-serif" font-size="13" lengthAdjust="spacing" textLength="7" x="553.3038" y="316.5242">1</text><text fill="#000000" font-family="sans-serif" font-size="13" lengthAdjust="spacing" textLength="7" x="533.0181" y="361.8218">1</text></g><!--link CreateStoreUI to CreateStoreController--><g id="link_CreateStoreUI_CreateStoreController"><path codeLine="82" d="M325,55.2 C325,74.28 325,102.44 325,129.14 " fill="none" id="CreateStoreUI-to-CreateStoreController" style="stroke:#181818;stroke-width:1.0;stroke-dasharray:7.0,7.0;"/><polygon fill="#181818" points="325,134.46,329,125.46,325,129.46,321,125.46,325,134.46" style="stroke:#181818;stroke-width:1.0;"/></g><!--link CreateStoreController to StoreNetWork--><g id="link_CreateStoreController_StoreNetWork"><path codeLine="83" d="M375.55,275.68 C396.34,304.33 420.71,337.92 442.95,368.57 " fill="none" id="CreateStoreController-to-StoreNetWork" style="stroke:#181818;stroke-width:1.0;stroke-dasharray:7.0,7.0;"/><polygon fill="#181818" points="445.93,372.69,443.8674,363.0596,442.9874,368.6476,437.3994,367.7676,445.93,372.69" style="stroke:#181818;stroke-width:1.0;"/></g><!--link Repositories to StoreRepository--><g id="link_Repositories_StoreRepository"><path codeLine="84" d="M244.26,514 C259.78,549.57 280.24,596.44 294.79,629.77 " fill="none" id="Repositories-StoreRepository" style="stroke:#181818;stroke-width:1.0;"/><polygon fill="#000000" points="288.0001,595.228,287.0754,585.7625,281.6883,588.1138,288.0001,595.228" style="stroke:#000000;stroke-width:1.0;"/><text fill="#000000" font-family="sans-serif" font-size="13" lengthAdjust="spacing" textLength="21" x="295" y="596.0283">has</text><text fill="#000000" font-family="sans-serif" font-size="13" lengthAdjust="spacing" textLength="7" x="239.6636" y="535.8073">1</text><text fill="#000000" font-family="sans-serif" font-size="13" lengthAdjust="spacing" textLength="7" x="284.33" y="618.6374">1</text></g><!--link StoreRepository to Store--><g id="link_StoreRepository_Store"><path codeLine="85" d="M313,715.24 C313,737.32 313,765.63 313,793.79 " fill="none" id="StoreRepository-Store" style="stroke:#181818;stroke-width:1.0;"/><polygon fill="#000000" points="318,759.6455,320.9389,750.6004,315.0611,750.6004,318,759.6455" style="stroke:#000000;stroke-width:1.0;"/><text fill="#000000" font-family="sans-serif" font-size="13" lengthAdjust="spacing" textLength="21" x="327" y="760.0283">has</text><text fill="#000000" font-family="sans-serif" font-size="13" lengthAdjust="spacing" textLength="7" x="305.4641" y="737.1182">1</text><text fill="#000000" font-family="sans-serif" font-size="13" lengthAdjust="spacing" textLength="5" x="307.8398" y="782.7676">*</text></g><!--link Administrator to User--><g id="link_Administrator_User"><path codeLine="88" d="M117.43,696.61 C111.93,719.42 103.1,756.09 94.28,792.64 " fill="none" id="Administrator-to-User" style="stroke:#181818;stroke-width:1.0;"/><polygon fill="none" points="101.05,794.46,89.56,812.26,87.44,791.18,101.05,794.46" style="stroke:#181818;stroke-width:1.0;"/></g><!--link User to Roles--><g id="link_User_Roles"><path codeLine="89" d="M66,1009.8 C66,1049.06 66,1090.91 66,1116.13 " fill="none" id="User-Roles" style="stroke:#181818;stroke-width:1.0;"/><text fill="#000000" font-family="sans-serif" font-size="13" lengthAdjust="spacing" textLength="7" x="58.7539" y="1031.3842">1</text><text fill="#000000" font-family="sans-serif" font-size="13" lengthAdjust="spacing" textLength="20" x="43.5625" y="1105.1817">1..*</text></g><!--link Administrator to Store--><g id="link_Administrator_Store"><path codeLine="90" d="M141.56,696.61 C160.1,719.68 190.03,756.94 219.74,793.91 " fill="none" id="Administrator-Store" style="stroke:#181818;stroke-width:1.0;"/><polygon fill="#000000" points="204.1318,758.5432,200.7573,749.6514,196.1753,753.333,204.1318,758.5432" style="stroke:#000000;stroke-width:1.0;"/><text fill="#000000" font-family="sans-serif" font-size="13" lengthAdjust="spacing" textLength="45" x="210" y="760.0283">Creates</text><text fill="#000000" font-family="sans-serif" font-size="13" lengthAdjust="spacing" textLength="7" x="138.2309" y="718.6225">1</text><text fill="#000000" font-family="sans-serif" font-size="13" lengthAdjust="spacing" textLength="5" x="208.6054" y="782.8953">*</text></g><!--link StoreNetWork to StoreRepository--><g id="link_StoreNetWork_StoreRepository"><path codeLine="91" d="M426.74,551.12 C400.91,578.46 373.64,607.32 352.28,629.92 " fill="none" id="StoreNetWork-StoreRepository" style="stroke:#181818;stroke-width:1.0;"/><polygon fill="#000000" points="395.566,594.2797,403.9143,589.7239,399.6421,585.6869,395.566,594.2797" style="stroke:#000000;stroke-width:1.0;"/><text fill="#000000" font-family="sans-serif" font-size="13" lengthAdjust="spacing" textLength="21" x="408" y="596.0283">has</text><text fill="#000000" font-family="sans-serif" font-size="13" lengthAdjust="spacing" textLength="7" x="412.5552" y="573.2301">1</text><text fill="#000000" font-family="sans-serif" font-size="13" lengthAdjust="spacing" textLength="7" x="350.9824" y="618.8113">1</text></g><!--link Store to Employee--><g id="link_Store_Employee"><path codeLine="92" d="M279.32,1028.08 C270.93,1057 262.6,1085.72 256.5,1106.76 " fill="none" id="Store-Employee" style="stroke:#181818;stroke-width:1.0;"/><polygon fill="#000000" points="274.6072,1072.4476,279.9494,1064.5792,274.3042,1062.9419,274.6072,1072.4476" style="stroke:#000000;stroke-width:1.0;"/><text fill="#000000" font-family="sans-serif" font-size="13" lengthAdjust="spacing" textLength="21" x="285" y="1073.0283">has</text><text fill="#000000" font-family="sans-serif" font-size="13" lengthAdjust="spacing" textLength="7" x="269.9382" y="1050.1559">1</text><text fill="#000000" font-family="sans-serif" font-size="13" lengthAdjust="spacing" textLength="20" x="236.4047" y="1095.8002">0..*</text></g><!--SRC=[jLKzRzim4DtvAmvPR3UsqQv5OQ08CXWeCiG8kdHXf8j4c285aeaZkFtlFKeaJGbgaHQj1y5wz_dUdSyBUnIgvOOtq6YbYzhe1i6PPsGNIykB8w_mu3g9OB1mN5KoTx0rB_L9g0gUkBIvHGg5hciHMYqx_y8MCqPjd6QiaDnQk6rQgJj4m5U7ghJmOD6S6T1dOxdafcC_6Ahd1kwrH7jcz3f4PewWU8FXQucsCA9rGYiR8CTVWJ8yeWa0Bqk3DfgnuK9EiBRM2iT1BHKzQLE6L-FRyTs4TkwnrLOuRGHQY7tbu7BLWzTGeTihIweMk5p1nv7JnUL002PJHz6fr8r1xh1tUDYVao0PVAELemPbLEXwtfYtr9lkq7tLvfZmuXAr9655fRWNTZteSzVBiuPl2d3ZHLp32tSH3OAk7mqnhGTqzNj-2ubF3fm68whQGIdyzb6zYyPStf9o3gF01sVy7cRp3yXud06SsOrWEU4ZzJ79aP4S6mQsOomnJ_F85Jt_Pq79DYIr_hdwCtM4Sf0dJRwZ2T4fY5yJnSzb8vImpd22_IQod7ia_U_fld0fIX9o6PdkVqKXpZsMViEM_ENO1pZTiuOhEg8ckn0JFUCAVo7zFlMs7VJJyy2KPnYhJtRv4S3LXolORFmptpKwAJkekMMZEm7RxMx-2h1PjFVFqxBHXQEYMULiIsBnAJu4l0i1oOsnqGuHdU-x_hGp_uXbjbiAxFy09kupMGSseO4eoTlQ3Mxl-t9faj7b9m00]--></g></svg>