<?xml version="1.0" encoding="UTF-8" standalone="no"?><svg xmlns="http://www.w3.org/2000/svg" xmlns:xlink="http://www.w3.org/1999/xlink" contentStyleType="text/css" height="1188px" preserveAspectRatio="none" style="width:1357px;height:1188px;background:#FFFFFF;" version="1.1" viewBox="0 0 1357 1188" width="1357px" zoomAndPan="magnify"><defs/><g><rect fill="#FFFFFF" height="993.4297" style="stroke:#181818;stroke-width:1.0;" width="10" x="44.5" y="93.6211"/><rect fill="#FFFFFF" height="262.6582" style="stroke:#181818;stroke-width:1.0;" width="10" x="351.5" y="116.9121"/><rect fill="#FFFFFF" height="92.873" style="stroke:#181818;stroke-width:1.0;" width="10" x="351.5" y="428.1523"/><rect fill="#FFFFFF" height="534.7344" style="stroke:#181818;stroke-width:1.0;" width="10" x="351.5" y="552.3164"/><rect fill="#FFFFFF" height="156.4551" style="stroke:#181818;stroke-width:1.0;" width="10" x="644.5" y="191.8242"/><rect fill="#FFFFFF" height="454.8613" style="stroke:#181818;stroke-width:1.0;" width="10" x="644.5" y="600.8984"/><rect fill="#FFFFFF" height="93.873" style="stroke:#181818;stroke-width:1.0;" width="10" x="792.5" y="223.1152"/><rect fill="#FFFFFF" height="31.291" style="stroke:#181818;stroke-width:1.0;" width="10" x="940.5" y="254.4063"/><rect fill="#FFFFFF" height="374.9883" style="stroke:#181818;stroke-width:1.0;" width="10" x="940.5" y="649.4805"/><rect fill="#FFFFFF" height="160.873" style="stroke:#181818;stroke-width:1.0;" width="10" x="945.5" y="825.3047"/><rect fill="#FFFFFF" height="28" style="stroke:#181818;stroke-width:1.0;" width="10" x="950.5" y="869.5957"/><rect fill="#FFFFFF" height="70.9512" style="stroke:#181818;stroke-width:1.0;" width="10" x="1259.5" y="708.0625"/><rect fill="#FFFFFF" height="28" style="stroke:#181818;stroke-width:1.0;" width="10" x="1264.5" y="751.0137"/><line style="stroke:#181818;stroke-width:0.5;stroke-dasharray:5.0,5.0;" x1="49" x2="49" y1="83.6211" y2="1105.0508"/><line style="stroke:#181818;stroke-width:0.5;stroke-dasharray:5.0,5.0;" x1="356" x2="356" y1="83.6211" y2="1105.0508"/><line style="stroke:#181818;stroke-width:0.5;stroke-dasharray:5.0,5.0;" x1="649" x2="649" y1="156.7227" y2="1105.0508"/><line style="stroke:#181818;stroke-width:0.5;stroke-dasharray:5.0,5.0;" x1="797" x2="797" y1="83.6211" y2="1105.0508"/><line style="stroke:#181818;stroke-width:0.5;stroke-dasharray:5.0,5.0;" x1="945.5" x2="945.5" y1="83.6211" y2="1105.0508"/><line style="stroke:#181818;stroke-width:0.5;stroke-dasharray:5.0,5.0;" x1="1264.5" x2="1264.5" y1="698.6016" y2="1105.0508"/><text fill="#000000" font-family="sans-serif" font-size="14" lengthAdjust="spacing" textLength="83" x="5" y="80.1074">Administrator</text><ellipse cx="49.5" cy="13.5" fill="#E3E3E3" rx="8" ry="8" style="stroke:#181818;stroke-width:0.5;"/><path d="M49.5,21.5 L49.5,48.5 M36.5,29.5 L62.5,29.5 M49.5,48.5 L36.5,63.5 M49.5,48.5 L62.5,63.5 " fill="none" style="stroke:#181818;stroke-width:0.5;"/><text fill="#000000" font-family="sans-serif" font-size="14" lengthAdjust="spacing" textLength="83" x="5" y="1119.1582">Administrator</text><ellipse cx="49.5" cy="1131.1719" fill="#E3E3E3" rx="8" ry="8" style="stroke:#181818;stroke-width:0.5;"/><path d="M49.5,1139.1719 L49.5,1166.1719 M36.5,1147.1719 L62.5,1147.1719 M49.5,1166.1719 L36.5,1181.1719 M49.5,1166.1719 L62.5,1181.1719 " fill="none" style="stroke:#181818;stroke-width:0.5;"/><rect fill="#E3E3E3" height="32.6211" rx="2.5" ry="2.5" style="stroke:#181818;stroke-width:0.5;" width="107" x="303" y="50"/><text fill="#000000" font-family="sans-serif" font-size="14" lengthAdjust="spacing" textLength="93" x="310" y="72.1074">:CreateStoreUI</text><rect fill="#E3E3E3" height="32.6211" rx="2.5" ry="2.5" style="stroke:#181818;stroke-width:0.5;" width="107" x="303" y="1104.0508"/><text fill="#000000" font-family="sans-serif" font-size="14" lengthAdjust="spacing" textLength="93" x="310" y="1126.1582">:CreateStoreUI</text><rect fill="#E3E3E3" height="32.6211" rx="2.5" ry="2.5" style="stroke:#181818;stroke-width:0.5;" width="157" x="571" y="1104.0508"/><text fill="#000000" font-family="sans-serif" font-size="14" lengthAdjust="spacing" textLength="143" x="578" y="1126.1582">:CreateStoreController</text><rect fill="#E3E3E3" height="32.6211" rx="2.5" ry="2.5" style="stroke:#181818;stroke-width:0.5;" width="87" x="754" y="50"/><text fill="#000000" font-family="sans-serif" font-size="14" lengthAdjust="spacing" textLength="73" x="761" y="72.1074">:RealEstate</text><rect fill="#E3E3E3" height="32.6211" rx="2.5" ry="2.5" style="stroke:#181818;stroke-width:0.5;" width="87" x="754" y="1104.0508"/><text fill="#000000" font-family="sans-serif" font-size="14" lengthAdjust="spacing" textLength="73" x="761" y="1126.1582">:RealEstate</text><rect fill="#E3E3E3" height="32.6211" rx="2.5" ry="2.5" style="stroke:#181818;stroke-width:0.5;" width="106" x="892.5" y="50"/><text fill="#000000" font-family="sans-serif" font-size="14" lengthAdjust="spacing" textLength="92" x="899.5" y="72.1074">:StoreNetWork</text><rect fill="#E3E3E3" height="32.6211" rx="2.5" ry="2.5" style="stroke:#181818;stroke-width:0.5;" width="106" x="892.5" y="1104.0508"/><text fill="#000000" font-family="sans-serif" font-size="14" lengthAdjust="spacing" textLength="92" x="899.5" y="1126.1582">:StoreNetWork</text><rect fill="#E3E3E3" height="51.2422" rx="2.5" ry="2.5" style="stroke:#181818;stroke-width:0.5;" width="52" x="1238.5" y="1104.0508"/><text fill="#000000" font-family="sans-serif" font-size="14" lengthAdjust="spacing" textLength="32" x="1248.5" y="1126.1582">store</text><text fill="#000000" font-family="sans-serif" font-size="14" lengthAdjust="spacing" textLength="38" x="1245.5" y="1144.7793">:Store</text><rect fill="#FFFFFF" height="993.4297" style="stroke:#181818;stroke-width:1.0;" width="10" x="44.5" y="93.6211"/><rect fill="#FFFFFF" height="262.6582" style="stroke:#181818;stroke-width:1.0;" width="10" x="351.5" y="116.9121"/><rect fill="#FFFFFF" height="92.873" style="stroke:#181818;stroke-width:1.0;" width="10" x="351.5" y="428.1523"/><rect fill="#FFFFFF" height="534.7344" style="stroke:#181818;stroke-width:1.0;" width="10" x="351.5" y="552.3164"/><rect fill="#FFFFFF" height="156.4551" style="stroke:#181818;stroke-width:1.0;" width="10" x="644.5" y="191.8242"/><rect fill="#FFFFFF" height="454.8613" style="stroke:#181818;stroke-width:1.0;" width="10" x="644.5" y="600.8984"/><rect fill="#FFFFFF" height="93.873" style="stroke:#181818;stroke-width:1.0;" width="10" x="792.5" y="223.1152"/><rect fill="#FFFFFF" height="31.291" style="stroke:#181818;stroke-width:1.0;" width="10" x="940.5" y="254.4063"/><rect fill="#FFFFFF" height="374.9883" style="stroke:#181818;stroke-width:1.0;" width="10" x="940.5" y="649.4805"/><rect fill="#FFFFFF" height="160.873" style="stroke:#181818;stroke-width:1.0;" width="10" x="945.5" y="825.3047"/><rect fill="#FFFFFF" height="28" style="stroke:#181818;stroke-width:1.0;" width="10" x="950.5" y="869.5957"/><rect fill="#FFFFFF" height="70.9512" style="stroke:#181818;stroke-width:1.0;" width="10" x="1259.5" y="708.0625"/><rect fill="#FFFFFF" height="28" style="stroke:#181818;stroke-width:1.0;" width="10" x="1264.5" y="751.0137"/><polygon fill="#181818" points="339.5,112.9121,349.5,116.9121,339.5,120.9121,343.5,116.9121" style="stroke:#181818;stroke-width:1.0;"/><line style="stroke:#181818;stroke-width:1.0;" x1="54.5" x2="345.5" y1="116.9121" y2="116.9121"/><text fill="#000000" font-family="sans-serif" font-size="13" font-weight="bold" lengthAdjust="spacing" textLength="7" x="61.5" y="111.6494">1</text><text fill="#000000" font-family="sans-serif" font-size="13" lengthAdjust="spacing" textLength="156" x="72.5" y="111.6494">asks to create a new Store</text><polygon fill="#181818" points="559,144.2031,569,148.2031,559,152.2031,563,148.2031" style="stroke:#181818;stroke-width:1.0;"/><line style="stroke:#181818;stroke-width:1.0;" x1="361.5" x2="565" y1="148.2031" y2="148.2031"/><text fill="#000000" font-family="sans-serif" font-size="13" font-weight="bold" lengthAdjust="spacing" textLength="7" x="368.5" y="142.9404">2</text><text fill="#000000" font-family="sans-serif" font-size="13" lengthAdjust="spacing" textLength="36" x="379.5" y="142.9404">create</text><rect fill="#E3E3E3" height="32.6211" rx="2.5" ry="2.5" style="stroke:#181818;stroke-width:0.5;" width="157" x="571" y="124.9121"/><text fill="#000000" font-family="sans-serif" font-size="14" lengthAdjust="spacing" textLength="143" x="578" y="147.0195">:CreateStoreController</text><polygon fill="#181818" points="632.5,187.8242,642.5,191.8242,632.5,195.8242,636.5,191.8242" style="stroke:#181818;stroke-width:1.0;"/><line style="stroke:#181818;stroke-width:1.0;" x1="361.5" x2="638.5" y1="191.8242" y2="191.8242"/><text fill="#000000" font-family="sans-serif" font-size="13" font-weight="bold" lengthAdjust="spacing" textLength="7" x="368.5" y="186.5615">3</text><text fill="#000000" font-family="sans-serif" font-size="13" lengthAdjust="spacing" textLength="108" x="379.5" y="186.5615">getStoreNetWork()</text><polygon fill="#181818" points="780.5,219.1152,790.5,223.1152,780.5,227.1152,784.5,223.1152" style="stroke:#181818;stroke-width:1.0;"/><line style="stroke:#181818;stroke-width:1.0;" x1="654.5" x2="786.5" y1="223.1152" y2="223.1152"/><text fill="#000000" font-family="sans-serif" font-size="13" font-weight="bold" lengthAdjust="spacing" textLength="7" x="661.5" y="217.8525">4</text><text fill="#000000" font-family="sans-serif" font-size="13" lengthAdjust="spacing" textLength="108" x="672.5" y="217.8525">getStoreNetWork()</text><polygon fill="#181818" points="928.5,250.4063,938.5,254.4063,928.5,258.4063,932.5,254.4063" style="stroke:#181818;stroke-width:1.0;"/><line style="stroke:#181818;stroke-width:1.0;" x1="802.5" x2="934.5" y1="254.4063" y2="254.4063"/><text fill="#000000" font-family="sans-serif" font-size="13" font-weight="bold" lengthAdjust="spacing" textLength="7" x="809.5" y="249.1436">5</text><text fill="#000000" font-family="sans-serif" font-size="13" lengthAdjust="spacing" textLength="108" x="820.5" y="249.1436">getStoreNetWork()</text><polygon fill="#181818" points="813.5,281.6973,803.5,285.6973,813.5,289.6973,809.5,285.6973" style="stroke:#181818;stroke-width:1.0;"/><line style="stroke:#181818;stroke-width:1.0;stroke-dasharray:2.0,2.0;" x1="807.5" x2="944.5" y1="285.6973" y2="285.6973"/><text fill="#000000" font-family="sans-serif" font-size="13" font-weight="bold" lengthAdjust="spacing" textLength="7" x="819.5" y="280.4346">6</text><text fill="#000000" font-family="sans-serif" font-size="13" lengthAdjust="spacing" textLength="82" x="830.5" y="280.4346">StoreNetWork</text><polygon fill="#181818" points="665.5,312.9883,655.5,316.9883,665.5,320.9883,661.5,316.9883" style="stroke:#181818;stroke-width:1.0;"/><line style="stroke:#181818;stroke-width:1.0;stroke-dasharray:2.0,2.0;" x1="659.5" x2="796.5" y1="316.9883" y2="316.9883"/><text fill="#000000" font-family="sans-serif" font-size="13" font-weight="bold" lengthAdjust="spacing" textLength="7" x="671.5" y="311.7256">7</text><text fill="#000000" font-family="sans-serif" font-size="13" lengthAdjust="spacing" textLength="82" x="682.5" y="311.7256">StoreNetWork</text><polygon fill="#181818" points="372.5,344.2793,362.5,348.2793,372.5,352.2793,368.5,348.2793" style="stroke:#181818;stroke-width:1.0;"/><line style="stroke:#181818;stroke-width:1.0;stroke-dasharray:2.0,2.0;" x1="366.5" x2="648.5" y1="348.2793" y2="348.2793"/><text fill="#000000" font-family="sans-serif" font-size="13" font-weight="bold" lengthAdjust="spacing" textLength="7" x="378.5" y="343.0166">8</text><text fill="#000000" font-family="sans-serif" font-size="13" lengthAdjust="spacing" textLength="82" x="389.5" y="343.0166">StoreNetWork</text><polygon fill="#181818" points="65.5,375.5703,55.5,379.5703,65.5,383.5703,61.5,379.5703" style="stroke:#181818;stroke-width:1.0;"/><line style="stroke:#181818;stroke-width:1.0;stroke-dasharray:2.0,2.0;" x1="59.5" x2="355.5" y1="379.5703" y2="379.5703"/><text fill="#000000" font-family="sans-serif" font-size="13" font-weight="bold" lengthAdjust="spacing" textLength="7" x="71.5" y="374.3076">9</text><text fill="#000000" font-family="sans-serif" font-size="13" lengthAdjust="spacing" textLength="79" x="82.5" y="374.3076">requests data</text><polygon fill="#181818" points="339.5,424.1523,349.5,428.1523,339.5,432.1523,343.5,428.1523" style="stroke:#181818;stroke-width:1.0;"/><line style="stroke:#181818;stroke-width:1.0;" x1="54.5" x2="345.5" y1="428.1523" y2="428.1523"/><text fill="#000000" font-family="sans-serif" font-size="13" font-weight="bold" lengthAdjust="spacing" textLength="14" x="61.5" y="414.2441">10</text><text fill="#000000" font-family="sans-serif" font-size="13" lengthAdjust="spacing" textLength="256" x="79.5" y="405.5986">types requested data (ID, designation/name,</text><text fill="#000000" font-family="sans-serif" font-size="13" lengthAdjust="spacing" textLength="182" x="83.5" y="422.8896">location, phone number, e-mail)</text><line style="stroke:#181818;stroke-width:1.0;stroke-dasharray:2.0,2.0;" x1="361.5" x2="403.5" y1="476.7344" y2="476.7344"/><line style="stroke:#181818;stroke-width:1.0;stroke-dasharray:2.0,2.0;" x1="403.5" x2="403.5" y1="476.7344" y2="489.7344"/><line style="stroke:#181818;stroke-width:1.0;stroke-dasharray:2.0,2.0;" x1="362.5" x2="403.5" y1="489.7344" y2="489.7344"/><polygon fill="#181818" points="372.5,485.7344,362.5,489.7344,372.5,493.7344,368.5,489.7344" style="stroke:#181818;stroke-width:1.0;"/><text fill="#000000" font-family="sans-serif" font-size="13" font-weight="bold" lengthAdjust="spacing" textLength="14" x="368.5" y="462.8262">11</text><text fill="#000000" font-family="sans-serif" font-size="13" lengthAdjust="spacing" textLength="234" x="386.5" y="454.1807">keepData(ID,designation/name, location,</text><text fill="#000000" font-family="sans-serif" font-size="13" lengthAdjust="spacing" textLength="129" x="390.5" y="471.4717">phone number, e-mail)</text><polygon fill="#181818" points="65.5,517.0254,55.5,521.0254,65.5,525.0254,61.5,521.0254" style="stroke:#181818;stroke-width:1.0;"/><line style="stroke:#181818;stroke-width:1.0;stroke-dasharray:2.0,2.0;" x1="59.5" x2="355.5" y1="521.0254" y2="521.0254"/><text fill="#000000" font-family="sans-serif" font-size="13" font-weight="bold" lengthAdjust="spacing" textLength="14" x="71.5" y="515.7627">12</text><text fill="#000000" font-family="sans-serif" font-size="13" lengthAdjust="spacing" textLength="248" x="89.5" y="515.7627">show typed data and requests confirmation</text><polygon fill="#181818" points="339.5,548.3164,349.5,552.3164,339.5,556.3164,343.5,552.3164" style="stroke:#181818;stroke-width:1.0;"/><line style="stroke:#181818;stroke-width:1.0;" x1="54.5" x2="345.5" y1="552.3164" y2="552.3164"/><text fill="#000000" font-family="sans-serif" font-size="13" font-weight="bold" lengthAdjust="spacing" textLength="14" x="61.5" y="547.0537">13</text><text fill="#000000" font-family="sans-serif" font-size="13" lengthAdjust="spacing" textLength="70" x="79.5" y="547.0537">submit Data</text><polygon fill="#181818" points="632.5,596.8984,642.5,600.8984,632.5,604.8984,636.5,600.8984" style="stroke:#181818;stroke-width:1.0;"/><line style="stroke:#181818;stroke-width:1.0;" x1="361.5" x2="638.5" y1="600.8984" y2="600.8984"/><text fill="#000000" font-family="sans-serif" font-size="13" font-weight="bold" lengthAdjust="spacing" textLength="14" x="368.5" y="586.9902">14</text><text fill="#000000" font-family="sans-serif" font-size="13" lengthAdjust="spacing" textLength="246" x="386.5" y="578.3447">createStore(ID,designation/name, location,</text><text fill="#000000" font-family="sans-serif" font-size="13" lengthAdjust="spacing" textLength="129" x="386.5" y="595.6357">phone number, e-mail)</text><polygon fill="#181818" points="928.5,645.4805,938.5,649.4805,928.5,653.4805,932.5,649.4805" style="stroke:#181818;stroke-width:1.0;"/><line style="stroke:#181818;stroke-width:1.0;" x1="654.5" x2="934.5" y1="649.4805" y2="649.4805"/><text fill="#000000" font-family="sans-serif" font-size="13" font-weight="bold" lengthAdjust="spacing" textLength="14" x="661.5" y="635.5723">15</text><text fill="#000000" font-family="sans-serif" font-size="13" lengthAdjust="spacing" textLength="246" x="679.5" y="626.9268">createStore(ID,designation/name, location,</text><text fill="#000000" font-family="sans-serif" font-size="13" lengthAdjust="spacing" textLength="129" x="679.5" y="644.2178">phone number, e-mail)</text><polygon fill="#181818" points="1226.5,694.0625,1236.5,698.0625,1226.5,702.0625,1230.5,698.0625" style="stroke:#181818;stroke-width:1.0;"/><line style="stroke:#181818;stroke-width:1.0;" x1="950.5" x2="1232.5" y1="698.0625" y2="698.0625"/><text fill="#000000" font-family="sans-serif" font-size="13" font-weight="bold" lengthAdjust="spacing" textLength="14" x="957.5" y="684.1543">16</text><text fill="#000000" font-family="sans-serif" font-size="13" lengthAdjust="spacing" textLength="246" x="975.5" y="675.5088">createStore(ID,designation/name, location,</text><text fill="#000000" font-family="sans-serif" font-size="13" lengthAdjust="spacing" textLength="129" x="975.5" y="692.7998">phone number, e-mail)</text><rect fill="#E3E3E3" height="51.2422" rx="2.5" ry="2.5" style="stroke:#181818;stroke-width:0.5;" width="52" x="1238.5" y="657.4805"/><text fill="#000000" font-family="sans-serif" font-size="14" lengthAdjust="spacing" textLength="32" x="1248.5" y="679.5879">store</text><text fill="#000000" font-family="sans-serif" font-size="14" lengthAdjust="spacing" textLength="38" x="1245.5" y="698.209">:Store</text><line style="stroke:#181818;stroke-width:1.0;" x1="1274.5" x2="1316.5" y1="743.0137" y2="743.0137"/><line style="stroke:#181818;stroke-width:1.0;" x1="1316.5" x2="1316.5" y1="743.0137" y2="756.0137"/><line style="stroke:#181818;stroke-width:1.0;" x1="1275.5" x2="1316.5" y1="756.0137" y2="756.0137"/><polygon fill="#181818" points="1285.5,752.0137,1275.5,756.0137,1285.5,760.0137,1281.5,756.0137" style="stroke:#181818;stroke-width:1.0;"/><text fill="#000000" font-family="sans-serif" font-size="13" font-weight="bold" lengthAdjust="spacing" textLength="14" x="1281.5" y="737.751">17</text><text fill="#000000" font-family="sans-serif" font-size="13" lengthAdjust="spacing" textLength="51" x="1299.5" y="737.751">validate()</text><line style="stroke:#181818;stroke-width:1.0;" x1="950.5" x2="997.5" y1="812.3047" y2="812.3047"/><line style="stroke:#181818;stroke-width:1.0;" x1="997.5" x2="997.5" y1="812.3047" y2="825.3047"/><line style="stroke:#181818;stroke-width:1.0;" x1="956.5" x2="997.5" y1="825.3047" y2="825.3047"/><polygon fill="#181818" points="966.5,821.3047,956.5,825.3047,966.5,829.3047,962.5,825.3047" style="stroke:#181818;stroke-width:1.0;"/><text fill="#000000" font-family="sans-serif" font-size="13" font-weight="bold" lengthAdjust="spacing" textLength="14" x="962.5" y="807.042">18</text><text fill="#000000" font-family="sans-serif" font-size="13" lengthAdjust="spacing" textLength="89" x="980.5" y="807.042">addStore(store)</text><line style="stroke:#181818;stroke-width:1.0;" x1="960.5" x2="1002.5" y1="861.5957" y2="861.5957"/><line style="stroke:#181818;stroke-width:1.0;" x1="1002.5" x2="1002.5" y1="861.5957" y2="874.5957"/><line style="stroke:#181818;stroke-width:1.0;" x1="961.5" x2="1002.5" y1="874.5957" y2="874.5957"/><polygon fill="#181818" points="971.5,870.5957,961.5,874.5957,971.5,878.5957,967.5,874.5957" style="stroke:#181818;stroke-width:1.0;"/><text fill="#000000" font-family="sans-serif" font-size="13" font-weight="bold" lengthAdjust="spacing" textLength="14" x="967.5" y="856.333">19</text><text fill="#000000" font-family="sans-serif" font-size="13" lengthAdjust="spacing" textLength="111" x="985.5" y="856.333">validateStore(store)</text><line style="stroke:#181818;stroke-width:1.0;stroke-dasharray:2.0,2.0;" x1="955.5" x2="997.5" y1="935.8867" y2="935.8867"/><line style="stroke:#181818;stroke-width:1.0;stroke-dasharray:2.0,2.0;" x1="997.5" x2="997.5" y1="935.8867" y2="948.8867"/><line style="stroke:#181818;stroke-width:1.0;stroke-dasharray:2.0,2.0;" x1="956.5" x2="997.5" y1="948.8867" y2="948.8867"/><polygon fill="#181818" points="966.5,944.8867,956.5,948.8867,966.5,952.8867,962.5,948.8867" style="stroke:#181818;stroke-width:1.0;"/><text fill="#000000" font-family="sans-serif" font-size="13" font-weight="bold" lengthAdjust="spacing" textLength="14" x="962.5" y="930.624">20</text><text fill="#000000" font-family="sans-serif" font-size="13" lengthAdjust="spacing" textLength="4" x="980.5" y="930.624"> </text><line style="stroke:#181818;stroke-width:1.0;stroke-dasharray:2.0,2.0;" x1="955.5" x2="997.5" y1="985.1777" y2="985.1777"/><line style="stroke:#181818;stroke-width:1.0;stroke-dasharray:2.0,2.0;" x1="997.5" x2="997.5" y1="985.1777" y2="998.1777"/><line style="stroke:#181818;stroke-width:1.0;stroke-dasharray:2.0,2.0;" x1="950.5" x2="997.5" y1="998.1777" y2="998.1777"/><polygon fill="#181818" points="960.5,994.1777,950.5,998.1777,960.5,1002.1777,956.5,998.1777" style="stroke:#181818;stroke-width:1.0;"/><text fill="#000000" font-family="sans-serif" font-size="13" font-weight="bold" lengthAdjust="spacing" textLength="14" x="962.5" y="979.915">21</text><text fill="#000000" font-family="sans-serif" font-size="13" lengthAdjust="spacing" textLength="4" x="980.5" y="979.915"> </text><polygon fill="#181818" points="665.5,1020.4688,655.5,1024.4688,665.5,1028.4688,661.5,1024.4688" style="stroke:#181818;stroke-width:1.0;"/><line style="stroke:#181818;stroke-width:1.0;stroke-dasharray:2.0,2.0;" x1="659.5" x2="944.5" y1="1024.4688" y2="1024.4688"/><text fill="#000000" font-family="sans-serif" font-size="13" font-weight="bold" lengthAdjust="spacing" textLength="14" x="671.5" y="1019.2061">22</text><text fill="#000000" font-family="sans-serif" font-size="13" lengthAdjust="spacing" textLength="29" x="689.5" y="1019.2061">store</text><polygon fill="#181818" points="372.5,1051.7598,362.5,1055.7598,372.5,1059.7598,368.5,1055.7598" style="stroke:#181818;stroke-width:1.0;"/><line style="stroke:#181818;stroke-width:1.0;stroke-dasharray:2.0,2.0;" x1="366.5" x2="648.5" y1="1055.7598" y2="1055.7598"/><text fill="#000000" font-family="sans-serif" font-size="13" font-weight="bold" lengthAdjust="spacing" textLength="14" x="378.5" y="1050.4971">23</text><text fill="#000000" font-family="sans-serif" font-size="13" lengthAdjust="spacing" textLength="29" x="396.5" y="1050.4971">store</text><polygon fill="#181818" points="60.5,1083.0508,50.5,1087.0508,60.5,1091.0508,56.5,1087.0508" style="stroke:#181818;stroke-width:1.0;"/><line style="stroke:#181818;stroke-width:1.0;stroke-dasharray:2.0,2.0;" x1="54.5" x2="355.5" y1="1087.0508" y2="1087.0508"/><text fill="#000000" font-family="sans-serif" font-size="13" font-weight="bold" lengthAdjust="spacing" textLength="14" x="66.5" y="1081.7881">24</text><text fill="#000000" font-family="sans-serif" font-size="13" lengthAdjust="spacing" textLength="152" x="84.5" y="1081.7881">Shows Operation success</text><!--SRC=[hLHDZ-8m3BtdLrXSvaEWlNCOQGGSa7PP2HRjPIucDH2rJJf967R-_RffwGVJ5WxJM-Fdz-8NsovMEaEBAQH66tcq9YNmzaJ2LP4CPOm7slZFXC2IzAWFIHFWZXYPiz87s6FYI0WyUQDFwOwi40z75H7iZV4xyq-WzCR2w3LAbLREM-JV4Q23r_almMnUIPMXzZ2QpYoXPrLZQRiCcEso7p8psbkJ95JGpVwiVrw1ruJ9mdbE28ZruYeUQ5Ra_neR1yHcrKQu7F2c2s2147b1weCvGm42oez_OFB25uOfus87te0CbmK4JMS873M-Ok4IeV4n0TFanJm_CrL1qOFW-85yiuh7fnQq4WdcD2CXdMdMYviaBIBsy3h654oqMTr5r29ZkxlYJ3MvNAr9rmcEQ8XklPZKNWroDNYunWwlBe_Roz9WQDcTlnSdvmqovM5wFv7p3YBqA3fIkHskUYge-i-Ct2MRef0EZylvc7ETEcZqokWV6bCQmvk6nCXmCeRiQ3H1CPfZe4cAAdaQxCBola4MOg9ipbgvr5UbIeObXuMsoye3TpJdK4zP1UgejaKQlLSs3QptsSD7Kt2dNQeyp9kczjLMzOEiTydDykwqiNVEmdXyd-3G6ENZmuBv-lXUmRPez-XENZPSw0ScYj-MRYw0coCj1eDrBvH5vovZ51KLX-tTyKWDl-gqovKxKuVixbv0vGuRF6bdNWFB9Wqt4SDYxGNLcz6nbS90RdWW7VpEo8PUu66Iafph6R-EKsRv3m00]--></g></svg>