<?xml version="1.0" encoding="us-ascii" standalone="no"?><svg xmlns="http://www.w3.org/2000/svg" xmlns:xlink="http://www.w3.org/1999/xlink" contentStyleType="text/css" height="1162px" preserveAspectRatio="none" style="width:608px;height:1162px;background:#FFFFFF;" version="1.1" viewBox="0 0 608 1162" width="608px" zoomAndPan="magnify"><defs/><g><!--class Employee--><g id="elem_Employee"><rect codeLine="7" fill="#F1F1F1" height="66.6211" id="Employee" rx="2.5" ry="2.5" style="stroke:#181818;stroke-width:0.5;" width="94" x="181" y="1089"/><ellipse cx="196" cy="1105" fill="#ADD1B2" rx="11" ry="11" style="stroke:#181818;stroke-width:1.0;"/><path d="M198.7656,1100.875 Q198.9219,1100.6563 199.1094,1100.5469 Q199.2969,1100.4375 199.5156,1100.4375 Q199.8906,1100.4375 200.125,1100.7031 Q200.3594,1100.9531 200.3594,1101.5625 L200.3594,1103.0156 Q200.3594,1103.625 200.125,1103.8906 Q199.8906,1104.1563 199.5156,1104.1563 Q199.1719,1104.1563 198.9688,1103.9531 Q198.7656,1103.7656 198.6563,1103.25 Q198.6094,1102.8906 198.4219,1102.7031 Q198.0938,1102.3281 197.4844,1102.1094 Q196.875,1101.8906 196.25,1101.8906 Q195.4844,1101.8906 194.8438,1102.2188 Q194.2188,1102.5469 193.7188,1103.2969 Q193.2344,1104.0469 193.2344,1105.0781 L193.2344,1106.1719 Q193.2344,1107.4063 194.125,1108.2344 Q195.0156,1109.0469 196.6094,1109.0469 Q197.5469,1109.0469 198.2031,1108.7969 Q198.5938,1108.6406 199.0156,1108.2031 Q199.2813,1107.9375 199.4219,1107.8594 Q199.5781,1107.7813 199.7813,1107.7813 Q200.1094,1107.7813 200.3594,1108.0469 Q200.625,1108.2969 200.625,1108.6406 Q200.625,1108.9844 200.2813,1109.3906 Q199.7813,1109.9688 198.9844,1110.2969 Q197.9063,1110.75 196.6094,1110.75 Q195.0938,1110.75 193.8906,1110.125 Q192.9063,1109.625 192.2188,1108.5625 Q191.5313,1107.4844 191.5313,1106.2031 L191.5313,1105.0469 Q191.5313,1103.7188 192.1406,1102.5781 Q192.7656,1101.4219 193.8594,1100.8125 Q194.9531,1100.1875 196.1875,1100.1875 Q196.9219,1100.1875 197.5625,1100.3594 Q198.2188,1100.5156 198.7656,1100.875 Z " fill="#000000"/><text fill="#000000" font-family="sans-serif" font-size="14" lengthAdjust="spacing" textLength="62" x="210" y="1110.7969">Employee</text><line style="stroke:#181818;stroke-width:0.5;" x1="182" x2="274" y1="1121" y2="1121"/><rect fill="none" height="6" style="stroke:#C82930;stroke-width:1.0;" width="6" x="189" y="1132.8105"/><text fill="#000000" font-family="sans-serif" font-size="14" lengthAdjust="spacing" textLength="38" x="201" y="1140.1074">salary</text><line style="stroke:#181818;stroke-width:0.5;" x1="182" x2="274" y1="1147.6211" y2="1147.6211"/></g><!--class User--><g id="elem_User"><rect codeLine="13" fill="#F1F1F1" height="196.9688" id="User" rx="2.5" ry="2.5" style="stroke:#181818;stroke-width:0.5;" width="118" x="7" y="803.5"/><ellipse cx="47.65" cy="819.5" fill="#ADD1B2" rx="11" ry="11" style="stroke:#181818;stroke-width:1.0;"/><path d="M50.4156,815.375 Q50.5719,815.1563 50.7594,815.0469 Q50.9469,814.9375 51.1656,814.9375 Q51.5406,814.9375 51.775,815.2031 Q52.0094,815.4531 52.0094,816.0625 L52.0094,817.5156 Q52.0094,818.125 51.775,818.3906 Q51.5406,818.6563 51.1656,818.6563 Q50.8219,818.6563 50.6188,818.4531 Q50.4156,818.2656 50.3063,817.75 Q50.2594,817.3906 50.0719,817.2031 Q49.7438,816.8281 49.1344,816.6094 Q48.525,816.3906 47.9,816.3906 Q47.1344,816.3906 46.4938,816.7188 Q45.8688,817.0469 45.3688,817.7969 Q44.8844,818.5469 44.8844,819.5781 L44.8844,820.6719 Q44.8844,821.9063 45.775,822.7344 Q46.6656,823.5469 48.2594,823.5469 Q49.1969,823.5469 49.8531,823.2969 Q50.2438,823.1406 50.6656,822.7031 Q50.9313,822.4375 51.0719,822.3594 Q51.2281,822.2813 51.4313,822.2813 Q51.7594,822.2813 52.0094,822.5469 Q52.275,822.7969 52.275,823.1406 Q52.275,823.4844 51.9313,823.8906 Q51.4313,824.4688 50.6344,824.7969 Q49.5563,825.25 48.2594,825.25 Q46.7438,825.25 45.5406,824.625 Q44.5563,824.125 43.8688,823.0625 Q43.1813,821.9844 43.1813,820.7031 L43.1813,819.5469 Q43.1813,818.2188 43.7906,817.0781 Q44.4156,815.9219 45.5094,815.3125 Q46.6031,814.6875 47.8375,814.6875 Q48.5719,814.6875 49.2125,814.8594 Q49.8688,815.0156 50.4156,815.375 Z " fill="#000000"/><text fill="#000000" font-family="sans-serif" font-size="14" lengthAdjust="spacing" textLength="29" x="67.35" y="825.2969">User</text><line style="stroke:#181818;stroke-width:0.5;" x1="8" x2="124" y1="835.5" y2="835.5"/><rect fill="none" height="6" style="stroke:#C82930;stroke-width:1.0;" width="6" x="15" y="847.3105"/><text fill="#000000" font-family="sans-serif" font-size="14" lengthAdjust="spacing" textLength="35" x="27" y="854.6074">name</text><rect fill="none" height="6" style="stroke:#C82930;stroke-width:1.0;" width="6" x="15" y="865.9316"/><text fill="#000000" font-family="sans-serif" font-size="14" lengthAdjust="spacing" textLength="76" x="27" y="873.2285">descriptions</text><rect fill="none" height="6" style="stroke:#C82930;stroke-width:1.0;" width="6" x="15" y="884.5527"/><text fill="#000000" font-family="sans-serif" font-size="14" lengthAdjust="spacing" textLength="70" x="27" y="891.8496">tax number</text><rect fill="none" height="6" style="stroke:#C82930;stroke-width:1.0;" width="6" x="15" y="903.1738"/><text fill="#000000" font-family="sans-serif" font-size="14" lengthAdjust="spacing" textLength="51" x="27" y="910.4707">address</text><rect fill="none" height="6" style="stroke:#C82930;stroke-width:1.0;" width="6" x="15" y="921.7949"/><text fill="#000000" font-family="sans-serif" font-size="14" lengthAdjust="spacing" textLength="88" x="27" y="929.0918">email address</text><rect fill="none" height="6" style="stroke:#C82930;stroke-width:1.0;" width="6" x="15" y="940.416"/><text fill="#000000" font-family="sans-serif" font-size="14" lengthAdjust="spacing" textLength="92" x="27" y="947.7129">phone number</text><rect fill="none" height="6" style="stroke:#C82930;stroke-width:1.0;" width="6" x="15" y="959.0371"/><text fill="#000000" font-family="sans-serif" font-size="14" lengthAdjust="spacing" textLength="60" x="27" y="966.334">password</text><rect fill="none" height="6" style="stroke:#C82930;stroke-width:1.0;" width="6" x="15" y="977.6582"/><text fill="#000000" font-family="sans-serif" font-size="14" lengthAdjust="spacing" textLength="31" x="27" y="984.9551">roles</text><line style="stroke:#181818;stroke-width:0.5;" x1="8" x2="124" y1="992.4688" y2="992.4688"/></g><!--class Roles--><g id="elem_Roles"><rect codeLine="10" fill="#F1F1F1" height="48" id="Roles" rx="2.5" ry="2.5" style="stroke:#181818;stroke-width:0.5;" width="68" x="32" y="1098.5"/><ellipse cx="47" cy="1114.5" fill="#EB937F" rx="11" ry="11" style="stroke:#181818;stroke-width:1.0;"/><path d="M45.8594,1115.2969 L45.8594,1117.7969 L50.1875,1117.7969 L50.1875,1116.875 Q50.1875,1116.2656 50.4219,1116 Q50.6719,1115.7344 51.0469,1115.7344 Q51.4219,1115.7344 51.6563,1116 Q51.8906,1116.2656 51.8906,1116.875 L51.8906,1119.5 L43.8906,1119.5 Q43.2656,1119.5 43,1119.2656 Q42.75,1119.0313 42.75,1118.6406 Q42.75,1118.2656 43.0156,1118.0313 Q43.2813,1117.7969 43.8906,1117.7969 L44.1563,1117.7969 L44.1563,1111.1406 L43.8906,1111.1406 Q43.2656,1111.1406 43,1110.9063 Q42.75,1110.6719 42.75,1110.2813 Q42.75,1109.9063 43,1109.6719 Q43.2656,1109.4375 43.8906,1109.4375 L51.5156,1109.4375 L51.5156,1112.0313 Q51.5156,1112.6406 51.2813,1112.9063 Q51.0625,1113.1563 50.6719,1113.1563 Q50.2969,1113.1563 50.0625,1112.9063 Q49.8281,1112.6406 49.8281,1112.0313 L49.8281,1111.1406 L45.8594,1111.1406 L45.8594,1113.5938 L47.3438,1113.5938 Q47.3438,1112.9375 47.4688,1112.75 Q47.7344,1112.3438 48.2031,1112.3438 Q48.5781,1112.3438 48.8125,1112.6094 Q49.0469,1112.8594 49.0469,1113.4688 L49.0469,1115.4375 Q49.0469,1115.9844 48.9219,1116.1719 Q48.6563,1116.5625 48.2031,1116.5625 Q47.7344,1116.5625 47.4688,1116.1563 Q47.3438,1115.9688 47.3438,1115.2969 L45.8594,1115.2969 Z " fill="#000000"/><text fill="#000000" font-family="sans-serif" font-size="14" lengthAdjust="spacing" textLength="36" x="61" y="1120.2969">Roles</text><line style="stroke:#181818;stroke-width:0.5;" x1="33" x2="99" y1="1130.5" y2="1130.5"/><line style="stroke:#181818;stroke-width:0.5;" x1="33" x2="99" y1="1138.5" y2="1138.5"/></g><!--class Repositories--><g id="elem_Repositories"><rect codeLine="25" fill="#F1F1F1" height="103.8633" id="Repositories" rx="2.5" ry="2.5" style="stroke:#181818;stroke-width:0.5;" width="200" x="91" y="410"/><ellipse cx="147.25" cy="426" fill="#ADD1B2" rx="11" ry="11" style="stroke:#181818;stroke-width:1.0;"/><path d="M150.0156,421.875 Q150.1719,421.6563 150.3594,421.5469 Q150.5469,421.4375 150.7656,421.4375 Q151.1406,421.4375 151.375,421.7031 Q151.6094,421.9531 151.6094,422.5625 L151.6094,424.0156 Q151.6094,424.625 151.375,424.8906 Q151.1406,425.1563 150.7656,425.1563 Q150.4219,425.1563 150.2188,424.9531 Q150.0156,424.7656 149.9063,424.25 Q149.8594,423.8906 149.6719,423.7031 Q149.3438,423.3281 148.7344,423.1094 Q148.125,422.8906 147.5,422.8906 Q146.7344,422.8906 146.0938,423.2188 Q145.4688,423.5469 144.9688,424.2969 Q144.4844,425.0469 144.4844,426.0781 L144.4844,427.1719 Q144.4844,428.4063 145.375,429.2344 Q146.2656,430.0469 147.8594,430.0469 Q148.7969,430.0469 149.4531,429.7969 Q149.8438,429.6406 150.2656,429.2031 Q150.5313,428.9375 150.6719,428.8594 Q150.8281,428.7813 151.0313,428.7813 Q151.3594,428.7813 151.6094,429.0469 Q151.875,429.2969 151.875,429.6406 Q151.875,429.9844 151.5313,430.3906 Q151.0313,430.9688 150.2344,431.2969 Q149.1563,431.75 147.8594,431.75 Q146.3438,431.75 145.1406,431.125 Q144.1563,430.625 143.4688,429.5625 Q142.7813,428.4844 142.7813,427.2031 L142.7813,426.0469 Q142.7813,424.7188 143.3906,423.5781 Q144.0156,422.4219 145.1094,421.8125 Q146.2031,421.1875 147.4375,421.1875 Q148.1719,421.1875 148.8125,421.3594 Q149.4688,421.5156 150.0156,421.875 Z " fill="#000000"/><text fill="#000000" font-family="sans-serif" font-size="14" lengthAdjust="spacing" textLength="79" x="167.75" y="431.7969">Repositories</text><line style="stroke:#181818;stroke-width:0.5;" x1="92" x2="290" y1="442" y2="442"/><line style="stroke:#181818;stroke-width:0.5;" x1="92" x2="290" y1="450" y2="450"/><rect fill="#F24D5C" height="6" style="stroke:#C82930;stroke-width:1.0;" width="6" x="99" y="461.8105"/><text fill="#000000" font-family="sans-serif" font-size="14" lengthAdjust="spacing" textLength="89" x="111" y="469.1074">Repositories()</text><ellipse cx="102" cy="483.4316" fill="#84BE84" rx="3" ry="3" style="stroke:#038048;stroke-width:1.0;"/><text fill="#000000" font-family="sans-serif" font-size="14" lengthAdjust="spacing" textLength="174" x="111" y="487.7285">getInstance() : Repositories</text><ellipse cx="102" cy="502.0527" fill="#84BE84" rx="3" ry="3" style="stroke:#038048;stroke-width:1.0;"/><text fill="#000000" font-family="sans-serif" font-size="14" lengthAdjust="spacing" textLength="132" x="111" y="506.3496">getStoreRepository()</text></g><!--class CreateStoreUI--><g id="elem_CreateStoreUI"><rect codeLine="31" fill="#F1F1F1" height="48" id="CreateStoreUI" rx="2.5" ry="2.5" style="stroke:#181818;stroke-width:0.5;" width="121" x="226.5" y="7"/><ellipse cx="241.5" cy="23" fill="#ADD1B2" rx="11" ry="11" style="stroke:#181818;stroke-width:1.0;"/><path d="M244.2656,18.875 Q244.4219,18.6563 244.6094,18.5469 Q244.7969,18.4375 245.0156,18.4375 Q245.3906,18.4375 245.625,18.7031 Q245.8594,18.9531 245.8594,19.5625 L245.8594,21.0156 Q245.8594,21.625 245.625,21.8906 Q245.3906,22.1563 245.0156,22.1563 Q244.6719,22.1563 244.4688,21.9531 Q244.2656,21.7656 244.1563,21.25 Q244.1094,20.8906 243.9219,20.7031 Q243.5938,20.3281 242.9844,20.1094 Q242.375,19.8906 241.75,19.8906 Q240.9844,19.8906 240.3438,20.2188 Q239.7188,20.5469 239.2188,21.2969 Q238.7344,22.0469 238.7344,23.0781 L238.7344,24.1719 Q238.7344,25.4063 239.625,26.2344 Q240.5156,27.0469 242.1094,27.0469 Q243.0469,27.0469 243.7031,26.7969 Q244.0938,26.6406 244.5156,26.2031 Q244.7813,25.9375 244.9219,25.8594 Q245.0781,25.7813 245.2813,25.7813 Q245.6094,25.7813 245.8594,26.0469 Q246.125,26.2969 246.125,26.6406 Q246.125,26.9844 245.7813,27.3906 Q245.2813,27.9688 244.4844,28.2969 Q243.4063,28.75 242.1094,28.75 Q240.5938,28.75 239.3906,28.125 Q238.4063,27.625 237.7188,26.5625 Q237.0313,25.4844 237.0313,24.2031 L237.0313,23.0469 Q237.0313,21.7188 237.6406,20.5781 Q238.2656,19.4219 239.3594,18.8125 Q240.4531,18.1875 241.6875,18.1875 Q242.4219,18.1875 243.0625,18.3594 Q243.7188,18.5156 244.2656,18.875 Z " fill="#000000"/><text fill="#000000" font-family="sans-serif" font-size="14" lengthAdjust="spacing" textLength="89" x="255.5" y="28.7969">CreateStoreUI</text><line style="stroke:#181818;stroke-width:0.5;" x1="227.5" x2="346.5" y1="39" y2="39"/><line style="stroke:#181818;stroke-width:0.5;" x1="227.5" x2="346.5" y1="47" y2="47"/></g><!--class CreateStoreController--><g id="elem_CreateStoreController"><rect codeLine="33" fill="#F1F1F1" height="141.1055" id="CreateStoreController" rx="2.5" ry="2.5" style="stroke:#181818;stroke-width:0.5;" width="246" x="164" y="134.5"/><ellipse cx="213.25" cy="150.5" fill="#ADD1B2" rx="11" ry="11" style="stroke:#181818;stroke-width:1.0;"/><path d="M216.0156,146.375 Q216.1719,146.1563 216.3594,146.0469 Q216.5469,145.9375 216.7656,145.9375 Q217.1406,145.9375 217.375,146.2031 Q217.6094,146.4531 217.6094,147.0625 L217.6094,148.5156 Q217.6094,149.125 217.375,149.3906 Q217.1406,149.6563 216.7656,149.6563 Q216.4219,149.6563 216.2188,149.4531 Q216.0156,149.2656 215.9063,148.75 Q215.8594,148.3906 215.6719,148.2031 Q215.3438,147.8281 214.7344,147.6094 Q214.125,147.3906 213.5,147.3906 Q212.7344,147.3906 212.0938,147.7188 Q211.4688,148.0469 210.9688,148.7969 Q210.4844,149.5469 210.4844,150.5781 L210.4844,151.6719 Q210.4844,152.9063 211.375,153.7344 Q212.2656,154.5469 213.8594,154.5469 Q214.7969,154.5469 215.4531,154.2969 Q215.8438,154.1406 216.2656,153.7031 Q216.5313,153.4375 216.6719,153.3594 Q216.8281,153.2813 217.0313,153.2813 Q217.3594,153.2813 217.6094,153.5469 Q217.875,153.7969 217.875,154.1406 Q217.875,154.4844 217.5313,154.8906 Q217.0313,155.4688 216.2344,155.7969 Q215.1563,156.25 213.8594,156.25 Q212.3438,156.25 211.1406,155.625 Q210.1563,155.125 209.4688,154.0625 Q208.7813,152.9844 208.7813,151.7031 L208.7813,150.5469 Q208.7813,149.2188 209.3906,148.0781 Q210.0156,146.9219 211.1094,146.3125 Q212.2031,145.6875 213.4375,145.6875 Q214.1719,145.6875 214.8125,145.8594 Q215.4688,146.0156 216.0156,146.375 Z " fill="#000000"/><text fill="#000000" font-family="sans-serif" font-size="14" lengthAdjust="spacing" textLength="139" x="233.75" y="156.2969">CreateStoreController</text><line style="stroke:#181818;stroke-width:0.5;" x1="165" x2="409" y1="166.5" y2="166.5"/><line style="stroke:#181818;stroke-width:0.5;" x1="165" x2="409" y1="174.5" y2="174.5"/><ellipse cx="175" cy="189.3105" fill="#84BE84" rx="3" ry="3" style="stroke:#038048;stroke-width:1.0;"/><text fill="#000000" font-family="sans-serif" font-size="14" lengthAdjust="spacing" textLength="149" x="184" y="193.6074">CreateStoreController()</text><ellipse cx="175" cy="207.9316" fill="#84BE84" rx="3" ry="3" style="stroke:#038048;stroke-width:1.0;"/><text fill="#000000" font-family="sans-serif" font-size="14" lengthAdjust="spacing" textLength="118" x="184" y="212.2285">getStoreNetWork()</text><ellipse cx="175" cy="235.8633" fill="#84BE84" rx="3" ry="3" style="stroke:#038048;stroke-width:1.0;"/><text fill="#000000" font-family="sans-serif" font-size="14" lengthAdjust="spacing" textLength="216" x="184" y="230.8496">createStore(ID, designation/name,</text><text fill="#000000" font-family="sans-serif" font-size="14" lengthAdjust="spacing" textLength="200" x="188" y="249.4707">location, phone number, e-mail)</text><ellipse cx="175" cy="263.7949" fill="#84BE84" rx="3" ry="3" style="stroke:#038048;stroke-width:1.0;"/><text fill="#000000" font-family="sans-serif" font-size="14" lengthAdjust="spacing" textLength="132" x="184" y="268.0918">getStoreRepository()</text></g><!--class RealEstate--><g id="elem_RealEstate"><rect codeLine="41" fill="#F1F1F1" height="178.3477" id="RealEstate" rx="2.5" ry="2.5" style="stroke:#181818;stroke-width:0.5;" width="156" x="445" y="116"/><ellipse cx="484.75" cy="132" fill="#ADD1B2" rx="11" ry="11" style="stroke:#181818;stroke-width:1.0;"/><path d="M487.5156,127.875 Q487.6719,127.6563 487.8594,127.5469 Q488.0469,127.4375 488.2656,127.4375 Q488.6406,127.4375 488.875,127.7031 Q489.1094,127.9531 489.1094,128.5625 L489.1094,130.0156 Q489.1094,130.625 488.875,130.8906 Q488.6406,131.1563 488.2656,131.1563 Q487.9219,131.1563 487.7188,130.9531 Q487.5156,130.7656 487.4063,130.25 Q487.3594,129.8906 487.1719,129.7031 Q486.8438,129.3281 486.2344,129.1094 Q485.625,128.8906 485,128.8906 Q484.2344,128.8906 483.5938,129.2188 Q482.9688,129.5469 482.4688,130.2969 Q481.9844,131.0469 481.9844,132.0781 L481.9844,133.1719 Q481.9844,134.4063 482.875,135.2344 Q483.7656,136.0469 485.3594,136.0469 Q486.2969,136.0469 486.9531,135.7969 Q487.3438,135.6406 487.7656,135.2031 Q488.0313,134.9375 488.1719,134.8594 Q488.3281,134.7813 488.5313,134.7813 Q488.8594,134.7813 489.1094,135.0469 Q489.375,135.2969 489.375,135.6406 Q489.375,135.9844 489.0313,136.3906 Q488.5313,136.9688 487.7344,137.2969 Q486.6563,137.75 485.3594,137.75 Q483.8438,137.75 482.6406,137.125 Q481.6563,136.625 480.9688,135.5625 Q480.2813,134.4844 480.2813,133.2031 L480.2813,132.0469 Q480.2813,130.7188 480.8906,129.5781 Q481.5156,128.4219 482.6094,127.8125 Q483.7031,127.1875 484.9375,127.1875 Q485.6719,127.1875 486.3125,127.3594 Q486.9688,127.5156 487.5156,127.875 Z " fill="#000000"/><text fill="#000000" font-family="sans-serif" font-size="14" lengthAdjust="spacing" textLength="69" x="504.25" y="137.7969">RealEstate</text><line style="stroke:#181818;stroke-width:0.5;" x1="446" x2="600" y1="148" y2="148"/><rect fill="none" height="6" style="stroke:#C82930;stroke-width:1.0;" width="6" x="453" y="159.8105"/><text fill="#000000" font-family="sans-serif" font-size="14" lengthAdjust="spacing" textLength="76" x="465" y="167.1074">String name</text><rect fill="none" height="6" style="stroke:#C82930;stroke-width:1.0;" width="6" x="453" y="178.4316"/><text fill="#000000" font-family="sans-serif" font-size="14" lengthAdjust="spacing" textLength="92" x="465" y="185.7285">String address</text><rect fill="none" height="6" style="stroke:#C82930;stroke-width:1.0;" width="6" x="453" y="197.0527"/><text fill="#000000" font-family="sans-serif" font-size="14" lengthAdjust="spacing" textLength="117" x="465" y="204.3496">String descriptions</text><rect fill="none" height="6" style="stroke:#C82930;stroke-width:1.0;" width="6" x="453" y="215.6738"/><text fill="#000000" font-family="sans-serif" font-size="14" lengthAdjust="spacing" textLength="88" x="465" y="222.9707">String website</text><rect fill="none" height="6" style="stroke:#C82930;stroke-width:1.0;" width="6" x="453" y="234.2949"/><text fill="#000000" font-family="sans-serif" font-size="14" lengthAdjust="spacing" textLength="130" x="465" y="241.5918">String phoneNumber</text><rect fill="none" height="6" style="stroke:#C82930;stroke-width:1.0;" width="6" x="453" y="252.916"/><text fill="#000000" font-family="sans-serif" font-size="14" lengthAdjust="spacing" textLength="79" x="465" y="260.2129">String e-mail</text><rect fill="none" height="6" style="stroke:#C82930;stroke-width:1.0;" width="6" x="453" y="271.5371"/><text fill="#000000" font-family="sans-serif" font-size="14" lengthAdjust="spacing" textLength="109" x="465" y="278.834">String vatNumber</text><line style="stroke:#181818;stroke-width:0.5;" x1="446" x2="600" y1="286.3477" y2="286.3477"/></g><!--class StoreNetWork--><g id="elem_StoreNetWork"><rect codeLine="50" fill="#F1F1F1" height="178.3477" id="StoreNetWork" rx="2.5" ry="2.5" style="stroke:#181818;stroke-width:0.5;" width="246" x="326" y="373"/><ellipse cx="400.75" cy="389" fill="#ADD1B2" rx="11" ry="11" style="stroke:#181818;stroke-width:1.0;"/><path d="M403.5156,384.875 Q403.6719,384.6563 403.8594,384.5469 Q404.0469,384.4375 404.2656,384.4375 Q404.6406,384.4375 404.875,384.7031 Q405.1094,384.9531 405.1094,385.5625 L405.1094,387.0156 Q405.1094,387.625 404.875,387.8906 Q404.6406,388.1563 404.2656,388.1563 Q403.9219,388.1563 403.7188,387.9531 Q403.5156,387.7656 403.4063,387.25 Q403.3594,386.8906 403.1719,386.7031 Q402.8438,386.3281 402.2344,386.1094 Q401.625,385.8906 401,385.8906 Q400.2344,385.8906 399.5938,386.2188 Q398.9688,386.5469 398.4688,387.2969 Q397.9844,388.0469 397.9844,389.0781 L397.9844,390.1719 Q397.9844,391.4063 398.875,392.2344 Q399.7656,393.0469 401.3594,393.0469 Q402.2969,393.0469 402.9531,392.7969 Q403.3438,392.6406 403.7656,392.2031 Q404.0313,391.9375 404.1719,391.8594 Q404.3281,391.7813 404.5313,391.7813 Q404.8594,391.7813 405.1094,392.0469 Q405.375,392.2969 405.375,392.6406 Q405.375,392.9844 405.0313,393.3906 Q404.5313,393.9688 403.7344,394.2969 Q402.6563,394.75 401.3594,394.75 Q399.8438,394.75 398.6406,394.125 Q397.6563,393.625 396.9688,392.5625 Q396.2813,391.4844 396.2813,390.2031 L396.2813,389.0469 Q396.2813,387.7188 396.8906,386.5781 Q397.5156,385.4219 398.6094,384.8125 Q399.7031,384.1875 400.9375,384.1875 Q401.6719,384.1875 402.3125,384.3594 Q402.9688,384.5156 403.5156,384.875 Z " fill="#000000"/><text fill="#000000" font-family="sans-serif" font-size="14" lengthAdjust="spacing" textLength="88" x="421.25" y="394.7969">StoreNetWork</text><line style="stroke:#181818;stroke-width:0.5;" x1="327" x2="571" y1="405" y2="405"/><rect fill="none" height="6" style="stroke:#C82930;stroke-width:1.0;" width="6" x="334" y="416.8105"/><text fill="#000000" font-family="sans-serif" font-size="14" lengthAdjust="spacing" textLength="76" x="346" y="424.1074">String name</text><rect fill="none" height="6" style="stroke:#C82930;stroke-width:1.0;" width="6" x="334" y="435.4316"/><text fill="#000000" font-family="sans-serif" font-size="14" lengthAdjust="spacing" textLength="92" x="346" y="442.7285">String address</text><rect fill="none" height="6" style="stroke:#C82930;stroke-width:1.0;" width="6" x="334" y="454.0527"/><text fill="#000000" font-family="sans-serif" font-size="14" lengthAdjust="spacing" textLength="112" x="346" y="461.3496">int branchNumber</text><rect fill="none" height="6" style="stroke:#C82930;stroke-width:1.0;" width="6" x="334" y="472.6738"/><text fill="#000000" font-family="sans-serif" font-size="14" lengthAdjust="spacing" textLength="169" x="346" y="479.9707">StoreRepository repository</text><line style="stroke:#181818;stroke-width:0.5;" x1="327" x2="571" y1="487.4844" y2="487.4844"/><ellipse cx="337" cy="511.6055" fill="#84BE84" rx="3" ry="3" style="stroke:#038048;stroke-width:1.0;"/><text fill="#000000" font-family="sans-serif" font-size="14" lengthAdjust="spacing" textLength="216" x="346" y="506.5918">createStore(ID, designation/name,</text><text fill="#000000" font-family="sans-serif" font-size="14" lengthAdjust="spacing" textLength="200" x="350" y="525.2129">location, phone number, e-mail)</text><ellipse cx="337" cy="539.5371" fill="#84BE84" rx="3" ry="3" style="stroke:#038048;stroke-width:1.0;"/><text fill="#000000" font-family="sans-serif" font-size="14" lengthAdjust="spacing" textLength="100" x="346" y="543.834">addStore(store)</text></g><!--class Administrator--><g id="elem_Administrator"><rect codeLine="58" fill="#F1F1F1" height="48" id="Administrator" rx="2.5" ry="2.5" style="stroke:#181818;stroke-width:0.5;" width="115" x="37.5" y="648.5"/><ellipse cx="52.5" cy="664.5" fill="#ADD1B2" rx="11" ry="11" style="stroke:#181818;stroke-width:1.0;"/><path d="M55.2656,660.375 Q55.4219,660.1563 55.6094,660.0469 Q55.7969,659.9375 56.0156,659.9375 Q56.3906,659.9375 56.625,660.2031 Q56.8594,660.4531 56.8594,661.0625 L56.8594,662.5156 Q56.8594,663.125 56.625,663.3906 Q56.3906,663.6563 56.0156,663.6563 Q55.6719,663.6563 55.4688,663.4531 Q55.2656,663.2656 55.1563,662.75 Q55.1094,662.3906 54.9219,662.2031 Q54.5938,661.8281 53.9844,661.6094 Q53.375,661.3906 52.75,661.3906 Q51.9844,661.3906 51.3438,661.7188 Q50.7188,662.0469 50.2188,662.7969 Q49.7344,663.5469 49.7344,664.5781 L49.7344,665.6719 Q49.7344,666.9063 50.625,667.7344 Q51.5156,668.5469 53.1094,668.5469 Q54.0469,668.5469 54.7031,668.2969 Q55.0938,668.1406 55.5156,667.7031 Q55.7813,667.4375 55.9219,667.3594 Q56.0781,667.2813 56.2813,667.2813 Q56.6094,667.2813 56.8594,667.5469 Q57.125,667.7969 57.125,668.1406 Q57.125,668.4844 56.7813,668.8906 Q56.2813,669.4688 55.4844,669.7969 Q54.4063,670.25 53.1094,670.25 Q51.5938,670.25 50.3906,669.625 Q49.4063,669.125 48.7188,668.0625 Q48.0313,666.9844 48.0313,665.7031 L48.0313,664.5469 Q48.0313,663.2188 48.6406,662.0781 Q49.2656,660.9219 50.3594,660.3125 Q51.4531,659.6875 52.6875,659.6875 Q53.4219,659.6875 54.0625,659.8594 Q54.7188,660.0156 55.2656,660.375 Z " fill="#000000"/><text fill="#000000" font-family="sans-serif" font-size="14" lengthAdjust="spacing" textLength="83" x="66.5" y="670.2969">Administrator</text><line style="stroke:#181818;stroke-width:0.5;" x1="38.5" x2="151.5" y1="680.5" y2="680.5"/><line style="stroke:#181818;stroke-width:0.5;" x1="38.5" x2="151.5" y1="688.5" y2="688.5"/></g><!--class Store--><g id="elem_Store"><rect codeLine="60" fill="#F1F1F1" height="215.5898" id="Store" rx="2.5" ry="2.5" style="stroke:#181818;stroke-width:0.5;" width="230" x="160" y="794"/><ellipse cx="253.75" cy="810" fill="#ADD1B2" rx="11" ry="11" style="stroke:#181818;stroke-width:1.0;"/><path d="M256.5156,805.875 Q256.6719,805.6563 256.8594,805.5469 Q257.0469,805.4375 257.2656,805.4375 Q257.6406,805.4375 257.875,805.7031 Q258.1094,805.9531 258.1094,806.5625 L258.1094,808.0156 Q258.1094,808.625 257.875,808.8906 Q257.6406,809.1563 257.2656,809.1563 Q256.9219,809.1563 256.7188,808.9531 Q256.5156,808.7656 256.4063,808.25 Q256.3594,807.8906 256.1719,807.7031 Q255.8438,807.3281 255.2344,807.1094 Q254.625,806.8906 254,806.8906 Q253.2344,806.8906 252.5938,807.2188 Q251.9688,807.5469 251.4688,808.2969 Q250.9844,809.0469 250.9844,810.0781 L250.9844,811.1719 Q250.9844,812.4063 251.875,813.2344 Q252.7656,814.0469 254.3594,814.0469 Q255.2969,814.0469 255.9531,813.7969 Q256.3438,813.6406 256.7656,813.2031 Q257.0313,812.9375 257.1719,812.8594 Q257.3281,812.7813 257.5313,812.7813 Q257.8594,812.7813 258.1094,813.0469 Q258.375,813.2969 258.375,813.6406 Q258.375,813.9844 258.0313,814.3906 Q257.5313,814.9688 256.7344,815.2969 Q255.6563,815.75 254.3594,815.75 Q252.8438,815.75 251.6406,815.125 Q250.6563,814.625 249.9688,813.5625 Q249.2813,812.4844 249.2813,811.2031 L249.2813,810.0469 Q249.2813,808.7188 249.8906,807.5781 Q250.5156,806.4219 251.6094,805.8125 Q252.7031,805.1875 253.9375,805.1875 Q254.6719,805.1875 255.3125,805.3594 Q255.9688,805.5156 256.5156,805.875 Z " fill="#000000"/><text fill="#000000" font-family="sans-serif" font-size="14" lengthAdjust="spacing" textLength="34" x="274.25" y="815.7969">Store</text><line style="stroke:#181818;stroke-width:0.5;" x1="161" x2="389" y1="826" y2="826"/><rect fill="none" height="6" style="stroke:#C82930;stroke-width:1.0;" width="6" x="168" y="837.8105"/><text fill="#000000" font-family="sans-serif" font-size="14" lengthAdjust="spacing" textLength="32" x="180" y="845.1074">Int ID</text><rect fill="none" height="6" style="stroke:#C82930;stroke-width:1.0;" width="6" x="168" y="856.4316"/><text fill="#000000" font-family="sans-serif" font-size="14" lengthAdjust="spacing" textLength="114" x="180" y="863.7285">String designation</text><rect fill="none" height="6" style="stroke:#C82930;stroke-width:1.0;" width="6" x="168" y="875.0527"/><text fill="#000000" font-family="sans-serif" font-size="14" lengthAdjust="spacing" textLength="90" x="180" y="882.3496">String location</text><rect fill="none" height="6" style="stroke:#C82930;stroke-width:1.0;" width="6" x="168" y="893.6738"/><text fill="#000000" font-family="sans-serif" font-size="14" lengthAdjust="spacing" textLength="130" x="180" y="900.9707">String phoneNumber</text><rect fill="none" height="6" style="stroke:#C82930;stroke-width:1.0;" width="6" x="168" y="912.2949"/><text fill="#000000" font-family="sans-serif" font-size="14" lengthAdjust="spacing" textLength="79" x="180" y="919.5918">String e-mail</text><rect fill="none" height="6" style="stroke:#C82930;stroke-width:1.0;" width="6" x="168" y="930.916"/><text fill="#000000" font-family="sans-serif" font-size="14" lengthAdjust="spacing" textLength="122" x="180" y="938.2129">Employee manager</text><line style="stroke:#181818;stroke-width:0.5;" x1="161" x2="389" y1="945.7266" y2="945.7266"/><ellipse cx="171" cy="969.8477" fill="#84BE84" rx="3" ry="3" style="stroke:#038048;stroke-width:1.0;"/><text fill="#000000" font-family="sans-serif" font-size="14" lengthAdjust="spacing" textLength="176" x="180" y="964.834">Store(ID, designation/name,</text><text fill="#000000" font-family="sans-serif" font-size="14" lengthAdjust="spacing" textLength="200" x="184" y="983.4551">location, phone number, e-mail)</text><ellipse cx="171" cy="997.7793" fill="#84BE84" rx="3" ry="3" style="stroke:#038048;stroke-width:1.0;"/><text fill="#000000" font-family="sans-serif" font-size="14" lengthAdjust="spacing" textLength="59" x="180" y="1002.0762">validate()</text></g><!--class StoreRepository--><g id="elem_StoreRepository"><rect codeLine="72" fill="#F1F1F1" height="85.2422" id="StoreRepository" rx="2.5" ry="2.5" style="stroke:#181818;stroke-width:0.5;" width="156" x="197" y="630"/><ellipse cx="221.9" cy="646" fill="#ADD1B2" rx="11" ry="11" style="stroke:#181818;stroke-width:1.0;"/><path d="M224.6656,641.875 Q224.8219,641.6563 225.0094,641.5469 Q225.1969,641.4375 225.4156,641.4375 Q225.7906,641.4375 226.025,641.7031 Q226.2594,641.9531 226.2594,642.5625 L226.2594,644.0156 Q226.2594,644.625 226.025,644.8906 Q225.7906,645.1563 225.4156,645.1563 Q225.0719,645.1563 224.8688,644.9531 Q224.6656,644.7656 224.5563,644.25 Q224.5094,643.8906 224.3219,643.7031 Q223.9938,643.3281 223.3844,643.1094 Q222.775,642.8906 222.15,642.8906 Q221.3844,642.8906 220.7438,643.2188 Q220.1188,643.5469 219.6188,644.2969 Q219.1344,645.0469 219.1344,646.0781 L219.1344,647.1719 Q219.1344,648.4063 220.025,649.2344 Q220.9156,650.0469 222.5094,650.0469 Q223.4469,650.0469 224.1031,649.7969 Q224.4938,649.6406 224.9156,649.2031 Q225.1813,648.9375 225.3219,648.8594 Q225.4781,648.7813 225.6813,648.7813 Q226.0094,648.7813 226.2594,649.0469 Q226.525,649.2969 226.525,649.6406 Q226.525,649.9844 226.1813,650.3906 Q225.6813,650.9688 224.8844,651.2969 Q223.8063,651.75 222.5094,651.75 Q220.9938,651.75 219.7906,651.125 Q218.8063,650.625 218.1188,649.5625 Q217.4313,648.4844 217.4313,647.2031 L217.4313,646.0469 Q217.4313,644.7188 218.0406,643.5781 Q218.6656,642.4219 219.7594,641.8125 Q220.8531,641.1875 222.0875,641.1875 Q222.8219,641.1875 223.4625,641.3594 Q224.1188,641.5156 224.6656,641.875 Z " fill="#000000"/><text fill="#000000" font-family="sans-serif" font-size="14" lengthAdjust="spacing" textLength="102" x="238.1" y="651.7969">StoreRepository</text><line style="stroke:#181818;stroke-width:0.5;" x1="198" x2="352" y1="662" y2="662"/><rect fill="none" height="6" style="stroke:#C82930;stroke-width:1.0;" width="6" x="205" y="673.8105"/><text fill="#000000" font-family="sans-serif" font-size="14" lengthAdjust="spacing" textLength="130" x="217" y="681.1074">List&lt;Store&gt; storeList</text><line style="stroke:#181818;stroke-width:0.5;" x1="198" x2="352" y1="688.6211" y2="688.6211"/><ellipse cx="208" cy="703.4316" fill="#84BE84" rx="3" ry="3" style="stroke:#038048;stroke-width:1.0;"/><text fill="#000000" font-family="sans-serif" font-size="14" lengthAdjust="spacing" textLength="91" x="217" y="707.7285">validate(store)</text></g><!--reverse link User to Employee--><g id="link_User_Employee"><path d="M136.96,1002.91 C140.12,1007.36 142,1010 142,1010 C142,1010 177.51,1056.04 202.89,1088.95 " fill="none" id="User-backto-Employee" style="stroke:#181818;stroke-width:1.0;"/><polygon fill="none" points="131.01,1006.61,125.13,986.25,142.42,998.51,131.01,1006.61" style="stroke:#181818;stroke-width:1.0;"/></g><!--link RealEstate to StoreNetWork--><g id="link_RealEstate_StoreNetWork"><path codeLine="78" d="M497.43,294.11 C490.04,319.59 481.97,347.4 474.57,372.88 " fill="none" id="RealEstate-StoreNetWork" style="stroke:#181818;stroke-width:1.0;"/><polygon fill="#000000" points="491.6064,338.4474,496.9499,330.5798,491.3049,328.9416,491.6064,338.4474" style="stroke:#000000;stroke-width:1.0;"/><text fill="#000000" font-family="sans-serif" font-size="13" lengthAdjust="spacing" textLength="21" x="502" y="339.0283">has</text><text fill="#000000" font-family="sans-serif" font-size="13" lengthAdjust="spacing" textLength="7" x="487.9318" y="316.5242">1</text><text fill="#000000" font-family="sans-serif" font-size="13" lengthAdjust="spacing" textLength="7" x="469.3977" y="361.8218">1</text></g><!--link CreateStoreUI to CreateStoreController--><g id="link_CreateStoreUI_CreateStoreController"><path codeLine="79" d="M287,55.2 C287,74.28 287,102.44 287,129.14 " fill="none" id="CreateStoreUI-to-CreateStoreController" style="stroke:#181818;stroke-width:1.0;stroke-dasharray:7.0,7.0;"/><polygon fill="#181818" points="287,134.46,291,125.46,287,129.46,283,125.46,287,134.46" style="stroke:#181818;stroke-width:1.0;"/></g><!--link CreateStoreController to StoreNetWork--><g id="link_CreateStoreController_StoreNetWork"><path codeLine="80" d="M331.27,275.68 C349.39,304.21 370.63,337.64 390.04,368.2 " fill="none" id="CreateStoreController-to-StoreNetWork" style="stroke:#181818;stroke-width:1.0;stroke-dasharray:7.0,7.0;"/><polygon fill="#181818" points="392.89,372.69,391.4499,362.947,390.213,368.467,384.6931,367.2301,392.89,372.69" style="stroke:#181818;stroke-width:1.0;"/></g><!--link Repositories to StoreRepository--><g id="link_Repositories_StoreRepository"><path codeLine="81" d="M211.55,514 C225.88,549.57 244.76,596.44 258.19,629.77 " fill="none" id="Repositories-StoreRepository" style="stroke:#181818;stroke-width:1.0;"/><polygon fill="#000000" points="252.8684,595.2833,252.2144,585.7952,246.7624,587.9917,252.8684,595.2833" style="stroke:#000000;stroke-width:1.0;"/><text fill="#000000" font-family="sans-serif" font-size="13" lengthAdjust="spacing" textLength="21" x="260" y="596.0283">has</text><text fill="#000000" font-family="sans-serif" font-size="13" lengthAdjust="spacing" textLength="7" x="206.7345" y="535.8073">1</text><text fill="#000000" font-family="sans-serif" font-size="13" lengthAdjust="spacing" textLength="7" x="247.9531" y="618.6374">1</text></g><!--link StoreRepository to Store--><g id="link_StoreRepository_Store"><path codeLine="82" d="M275,715.23 C275,737.42 275,765.82 275,793.71 " fill="none" id="StoreRepository-Store" style="stroke:#181818;stroke-width:1.0;"/><polygon fill="#000000" points="280,759.6455,282.9389,750.6004,277.0611,750.6004,280,759.6455" style="stroke:#000000;stroke-width:1.0;"/><text fill="#000000" font-family="sans-serif" font-size="13" lengthAdjust="spacing" textLength="21" x="289" y="760.0283">has</text><text fill="#000000" font-family="sans-serif" font-size="13" lengthAdjust="spacing" textLength="7" x="267.4422" y="737.427">1</text><text fill="#000000" font-family="sans-serif" font-size="13" lengthAdjust="spacing" textLength="5" x="269.832" y="782.915">*</text></g><!--link Administrator to User--><g id="link_Administrator_User"><path codeLine="85" d="M92.06,696.57 C89.38,717.57 85.21,750.29 80.99,783.44 " fill="none" id="Administrator-to-User" style="stroke:#181818;stroke-width:1.0;"/><polygon fill="none" points="87.91,784.52,78.43,803.47,74.02,782.75,87.91,784.52" style="stroke:#181818;stroke-width:1.0;"/></g><!--link User to Roles--><g id="link_User_Roles"><path codeLine="86" d="M66,1000.75 C66,1036.88 66,1074.71 66,1098.19 " fill="none" id="User-Roles" style="stroke:#181818;stroke-width:1.0;"/><text fill="#000000" font-family="sans-serif" font-size="13" lengthAdjust="spacing" textLength="7" x="58.7539" y="1022.3307">1</text><text fill="#000000" font-family="sans-serif" font-size="13" lengthAdjust="spacing" textLength="20" x="43.5625" y="1087.2564">1..*</text></g><!--link Administrator to Store--><g id="link_Administrator_Store"><path codeLine="87" d="M113.25,696.57 C131.62,719.78 161.3,757.29 190.25,793.89 " fill="none" id="Administrator-Store" style="stroke:#181818;stroke-width:1.0;"/><polygon fill="#000000" points="172.1024,758.5666,168.7949,749.6497,164.1853,753.2968,172.1024,758.5666" style="stroke:#000000;stroke-width:1.0;"/><text fill="#000000" font-family="sans-serif" font-size="13" lengthAdjust="spacing" textLength="45" x="178" y="760.0283">Creates</text><text fill="#000000" font-family="sans-serif" font-size="13" lengthAdjust="spacing" textLength="7" x="109.8453" y="718.5727">1</text><text fill="#000000" font-family="sans-serif" font-size="13" lengthAdjust="spacing" textLength="5" x="179.1152" y="782.7438">*</text></g><!--link StoreNetWork to StoreRepository--><g id="link_StoreNetWork_StoreRepository"><path codeLine="88" d="M375.46,551.12 C352.64,578.46 328.56,607.32 309.7,629.92 " fill="none" id="StoreNetWork-StoreRepository" style="stroke:#181818;stroke-width:1.0;"/><polygon fill="#000000" points="348.7964,594.4844,356.8482,589.4228,352.3353,585.6568,348.7964,594.4844" style="stroke:#000000;stroke-width:1.0;"/><text fill="#000000" font-family="sans-serif" font-size="13" lengthAdjust="spacing" textLength="21" x="361" y="596.0283">has</text><text fill="#000000" font-family="sans-serif" font-size="13" lengthAdjust="spacing" textLength="7" x="362.0801" y="573.2301">1</text><text fill="#000000" font-family="sans-serif" font-size="13" lengthAdjust="spacing" textLength="7" x="307.6725" y="618.8113">1</text></g><!--link Store to Employee--><g id="link_Store_Employee"><path codeLine="89" d="M251.98,1010.01 C245.8,1038.77 239.56,1067.74 235,1088.94 " fill="none" id="Store-Employee" style="stroke:#181818;stroke-width:1.0;"/><polygon fill="#000000" points="248.9484,1054.5337,253.7239,1046.309,247.9776,1045.0728,248.9484,1054.5337" style="stroke:#000000;stroke-width:1.0;"/><text fill="#000000" font-family="sans-serif" font-size="13" lengthAdjust="spacing" textLength="21" x="259" y="1055.0283">has</text><text fill="#000000" font-family="sans-serif" font-size="13" lengthAdjust="spacing" textLength="7" x="243.2811" y="1031.5247">1</text><text fill="#000000" font-family="sans-serif" font-size="13" lengthAdjust="spacing" textLength="20" x="214.4094" y="1077.7537">0..*</text></g><!--SRC=[hLGzRzim4DtvAmvPR3Usswv5OQ18CXWeCiG8kdIXfOj4c285aeaZkFtlFSgaJAf2qHRH84ZlFj-x8sVs85JB3M-WqKeNjT4DWZFFo2wMbXS7Nk7ETHB1OE6ugcJgO6jUwgDG5JnnQLEB50fTroAqMdR-XyqcZDeupLWXkRLmrxHITuY0hmvLQU7HeZane6TbkUIcOpyPgkS67hH4UsBqUuvC747n1iDdYROmedL2AniWnr-1CkpH182NfK4RpTXm8KTOMsk5UL1BHO_QbE7N-7PyDw6T1sor5KuRWHPYNoauN_JWDLJejigIgWNE5_0fSxgux0Z0mTHHz53gnY1ts3iyRa-380byevMZ1cLKw7hQcBRKc-xHVTFcCE359Mg-lLrwSKMbk1VtlTTy2TyLI5tqo39JRGcuyi8k_anf9l79WTDWH5KxA8LVE4fsaPNBEnBBOTHqvunVlMJa0Sad6C29TGYM8-wfZr6Edi5zElPWE9F9iHVkWciSGIhYwUqr98RdFDQ_5_ycY50EzeQshXxnouP21pv-3go-b8rGmZh32JxbP2FBD-7tmgKeIQnvfBQbdhUtlqqqviyDiSR_J7IuXXgkwEupoS4U2HJNy2i9yhctRQ0VXmV6FCASVBBB8iFLnojOhVmxtHUw2JPGSykoumthzMRwyB99jFTFqxBiOgAYIULaxB7u63y7l0i1WnjZsL8GdH-R_aPc_XNBhDSKsD_R8_U9h6SseO4eoT-r6zm-zEM6IKQNNm00]--></g></svg>