<?xml version="1.0" encoding="us-ascii" standalone="no"?><svg xmlns="http://www.w3.org/2000/svg" xmlns:xlink="http://www.w3.org/1999/xlink" contentStyleType="text/css" height="480px" preserveAspectRatio="none" style="width:452px;height:480px;background:#FFFFFF;" version="1.1" viewBox="0 0 452 480" width="452px" zoomAndPan="magnify"><defs/><g><text fill="#000000" font-family="sans-serif" font-size="14" font-weight="bold" lengthAdjust="spacing" textLength="228" x="113.75" y="30.1074">System Sequence Diagram (SSD)</text><rect fill="#FFFFFF" height="255.3281" style="stroke:#181818;stroke-width:1.0;" width="10" x="58.5" y="133.2422"/><rect fill="#FFFFFF" height="31.291" style="stroke:#181818;stroke-width:1.0;" width="10" x="399.5" y="156.5332"/><rect fill="#FFFFFF" height="38.291" style="stroke:#181818;stroke-width:1.0;" width="10" x="399.5" y="245.4063"/><rect fill="#FFFFFF" height="38.291" style="stroke:#181818;stroke-width:1.0;" width="10" x="399.5" y="341.2793"/><rect fill="none" height="50.582" style="stroke:#000000;stroke-width:1.5;" width="436.5" x="10" y="202.8242"/><rect fill="none" height="50.582" style="stroke:#000000;stroke-width:1.5;" width="436.5" x="10" y="298.6973"/><line style="stroke:#181818;stroke-width:0.5;stroke-dasharray:5.0,5.0;" x1="63" x2="63" y1="123.2422" y2="397.5703"/><line style="stroke:#181818;stroke-width:0.5;stroke-dasharray:5.0,5.0;" x1="404.5" x2="404.5" y1="123.2422" y2="397.5703"/><text fill="#000000" font-family="sans-serif" font-size="14" lengthAdjust="spacing" textLength="81" x="20" y="119.7285">Unregistered</text><ellipse cx="63.5" cy="53.1211" fill="#E3E3E3" rx="8" ry="8" style="stroke:#181818;stroke-width:0.5;"/><path d="M63.5,61.1211 L63.5,88.1211 M50.5,69.1211 L76.5,69.1211 M63.5,88.1211 L50.5,103.1211 M63.5,88.1211 L76.5,103.1211 " fill="none" style="stroke:#181818;stroke-width:0.5;"/><text fill="#000000" font-family="sans-serif" font-size="14" lengthAdjust="spacing" textLength="81" x="20" y="411.6777">Unregistered</text><ellipse cx="63.5" cy="423.6914" fill="#E3E3E3" rx="8" ry="8" style="stroke:#181818;stroke-width:0.5;"/><path d="M63.5,431.6914 L63.5,458.6914 M50.5,439.6914 L76.5,439.6914 M63.5,458.6914 L50.5,473.6914 M63.5,458.6914 L76.5,473.6914 " fill="none" style="stroke:#181818;stroke-width:0.5;"/><rect fill="#E3E3E3" height="32.6211" rx="2.5" ry="2.5" style="stroke:#181818;stroke-width:0.5;" width="64" x="372.5" y="89.6211"/><text fill="#000000" font-family="sans-serif" font-size="14" lengthAdjust="spacing" textLength="50" x="379.5" y="111.7285">:System</text><rect fill="#E3E3E3" height="32.6211" rx="2.5" ry="2.5" style="stroke:#181818;stroke-width:0.5;" width="64" x="372.5" y="396.5703"/><text fill="#000000" font-family="sans-serif" font-size="14" lengthAdjust="spacing" textLength="50" x="379.5" y="418.6777">:System</text><rect fill="#FFFFFF" height="255.3281" style="stroke:#181818;stroke-width:1.0;" width="10" x="58.5" y="133.2422"/><rect fill="#FFFFFF" height="31.291" style="stroke:#181818;stroke-width:1.0;" width="10" x="399.5" y="156.5332"/><rect fill="#FFFFFF" height="38.291" style="stroke:#181818;stroke-width:1.0;" width="10" x="399.5" y="245.4063"/><rect fill="#FFFFFF" height="38.291" style="stroke:#181818;stroke-width:1.0;" width="10" x="399.5" y="341.2793"/><polygon fill="#181818" points="387.5,152.5332,397.5,156.5332,387.5,160.5332,391.5,156.5332" style="stroke:#181818;stroke-width:1.0;"/><line style="stroke:#181818;stroke-width:1.0;" x1="68.5" x2="393.5" y1="156.5332" y2="156.5332"/><text fill="#000000" font-family="sans-serif" font-size="13" font-weight="bold" lengthAdjust="spacing" textLength="7" x="75.5" y="151.2705">1</text><text fill="#000000" font-family="sans-serif" font-size="13" lengthAdjust="spacing" textLength="174" x="86.5" y="151.2705">Asks to get a list of properties</text><polygon fill="#181818" points="79.5,183.8242,69.5,187.8242,79.5,191.8242,75.5,187.8242" style="stroke:#181818;stroke-width:1.0;"/><line style="stroke:#181818;stroke-width:1.0;stroke-dasharray:2.0,2.0;" x1="73.5" x2="403.5" y1="187.8242" y2="187.8242"/><text fill="#000000" font-family="sans-serif" font-size="13" font-weight="bold" lengthAdjust="spacing" textLength="7" x="85.5" y="182.5615">2</text><text fill="#000000" font-family="sans-serif" font-size="13" lengthAdjust="spacing" textLength="139" x="96.5" y="182.5615">Display list of properties</text><path d="M10,202.8242 L71,202.8242 L71,212.1152 L61,222.1152 L10,222.1152 L10,202.8242 " fill="#EEEEEE" style="stroke:#000000;stroke-width:1.5;"/><rect fill="none" height="50.582" style="stroke:#000000;stroke-width:1.5;" width="436.5" x="10" y="202.8242"/><text fill="#000000" font-family="sans-serif" font-size="13" font-weight="bold" lengthAdjust="spacing" textLength="16" x="25" y="217.8525">alt</text><text fill="#000000" font-family="sans-serif" font-size="11" font-weight="bold" lengthAdjust="spacing" textLength="132" x="86" y="216.6943">[User filters properties]</text><polygon fill="#181818" points="387.5,241.4063,397.5,245.4063,387.5,249.4063,391.5,245.4063" style="stroke:#181818;stroke-width:1.0;"/><line style="stroke:#181818;stroke-width:1.0;" x1="68.5" x2="393.5" y1="245.4063" y2="245.4063"/><text fill="#000000" font-family="sans-serif" font-size="13" font-weight="bold" lengthAdjust="spacing" textLength="7" x="75.5" y="240.1436">3</text><text fill="#000000" font-family="sans-serif" font-size="13" lengthAdjust="spacing" textLength="178" x="86.5" y="240.1436">Selects wanted filter properties</text><polygon fill="#181818" points="79.5,279.6973,69.5,283.6973,79.5,287.6973,75.5,283.6973" style="stroke:#181818;stroke-width:1.0;"/><line style="stroke:#181818;stroke-width:1.0;stroke-dasharray:2.0,2.0;" x1="73.5" x2="403.5" y1="283.6973" y2="283.6973"/><text fill="#000000" font-family="sans-serif" font-size="13" font-weight="bold" lengthAdjust="spacing" textLength="7" x="85.5" y="278.4346">4</text><text fill="#000000" font-family="sans-serif" font-size="13" lengthAdjust="spacing" textLength="238" x="96.5" y="278.4346">Display list of properties by selected filter</text><path d="M10,298.6973 L71,298.6973 L71,307.9883 L61,317.9883 L10,317.9883 L10,298.6973 " fill="#EEEEEE" style="stroke:#000000;stroke-width:1.5;"/><rect fill="none" height="50.582" style="stroke:#000000;stroke-width:1.5;" width="436.5" x="10" y="298.6973"/><text fill="#000000" font-family="sans-serif" font-size="13" font-weight="bold" lengthAdjust="spacing" textLength="16" x="25" y="313.7256">alt</text><text fill="#000000" font-family="sans-serif" font-size="11" font-weight="bold" lengthAdjust="spacing" textLength="129" x="86" y="312.5674">[User sorts properties]</text><polygon fill="#181818" points="387.5,337.2793,397.5,341.2793,387.5,345.2793,391.5,341.2793" style="stroke:#181818;stroke-width:1.0;"/><line style="stroke:#181818;stroke-width:1.0;" x1="68.5" x2="393.5" y1="341.2793" y2="341.2793"/><text fill="#000000" font-family="sans-serif" font-size="13" font-weight="bold" lengthAdjust="spacing" textLength="7" x="75.5" y="336.0166">5</text><text fill="#000000" font-family="sans-serif" font-size="13" lengthAdjust="spacing" textLength="301" x="86.5" y="336.0166">Selects wanted sort filter of properties (price, parish)</text><polygon fill="#181818" points="79.5,375.5703,69.5,379.5703,79.5,383.5703,75.5,379.5703" style="stroke:#181818;stroke-width:1.0;"/><line style="stroke:#181818;stroke-width:1.0;stroke-dasharray:2.0,2.0;" x1="73.5" x2="403.5" y1="379.5703" y2="379.5703"/><text fill="#000000" font-family="sans-serif" font-size="13" font-weight="bold" lengthAdjust="spacing" textLength="7" x="85.5" y="374.3076">6</text><text fill="#000000" font-family="sans-serif" font-size="13" lengthAdjust="spacing" textLength="253" x="96.5" y="374.3076">Display list of properties by selected criteria</text><!--SRC=[dP9HRi8m38RVSmgB9v361NYOD8aRL1p0IqsnI9CiTeTw-xajL6DqsaIUBDd_v_-t8cUE6GksqAQO_Acaba1BHqxcJaP_neOgxGD18QyOc_1zG4vOfml71euOX9nJLXkjUb5geQAFZg8ds3Csm_YwglORvx3J5BlsdOf3hwd0wX0BDMoYGlKAKE0WrhGTofupHeNLReAEtQbqWve_KMaQTs1lg63xUhEmWpSv2sY2XXGGWYs1T8HSKYQZauog6NGZm_LTCLiZZkITPP4SiF-DLDCY2uDEW2C7Ioa_POlMAmfsSu6B7O3ggtH9kRYIOZqFF1C7tdkGqS6y-uxtLr99HP_AEGXlOUyThNDXJo_sBmlBQVE__4zdzeND0kF35H-JVm40]--></g></svg>
