<?xml version="1.0" encoding="us-ascii" standalone="no"?><svg xmlns="http://www.w3.org/2000/svg" xmlns:xlink="http://www.w3.org/1999/xlink" contentStyleType="text/css" height="605px" preserveAspectRatio="none" style="width:587px;height:605px;background:#FFFFFF;" version="1.1" viewBox="0 0 587 605" width="587px" zoomAndPan="magnify"><defs/><g><text fill="#000000" font-family="sans-serif" font-size="14" font-weight="bold" lengthAdjust="spacing" textLength="228" x="181.25" y="30.1074">System Sequence Diagram (SSD)</text><rect fill="#FFFFFF" height="380.4922" style="stroke:#181818;stroke-width:1.0;" width="10" x="58.5" y="133.2422"/><rect fill="#FFFFFF" height="31.291" style="stroke:#181818;stroke-width:1.0;" width="10" x="534.5" y="156.5332"/><rect fill="#FFFFFF" height="31.291" style="stroke:#181818;stroke-width:1.0;" width="10" x="534.5" y="245.4063"/><rect fill="#FFFFFF" height="38.291" style="stroke:#181818;stroke-width:1.0;" width="10" x="534.5" y="307.9883"/><rect fill="#FFFFFF" height="31.291" style="stroke:#181818;stroke-width:1.0;" width="10" x="534.5" y="403.8613"/><rect fill="#FFFFFF" height="38.291" style="stroke:#181818;stroke-width:1.0;" width="10" x="534.5" y="466.4434"/><rect fill="none" height="113.1641" style="stroke:#000000;stroke-width:1.5;" width="571.5" x="10" y="202.8242"/><rect fill="none" height="113.1641" style="stroke:#000000;stroke-width:1.5;" width="571.5" x="10" y="361.2793"/><line style="stroke:#181818;stroke-width:0.5;stroke-dasharray:5.0,5.0;" x1="63" x2="63" y1="123.2422" y2="522.7344"/><line style="stroke:#181818;stroke-width:0.5;stroke-dasharray:5.0,5.0;" x1="539.5" x2="539.5" y1="123.2422" y2="522.7344"/><text fill="#000000" font-family="sans-serif" font-size="14" lengthAdjust="spacing" textLength="81" x="20" y="119.7285">Unregistered</text><ellipse cx="63.5" cy="53.1211" fill="#E3E3E3" rx="8" ry="8" style="stroke:#181818;stroke-width:0.5;"/><path d="M63.5,61.1211 L63.5,88.1211 M50.5,69.1211 L76.5,69.1211 M63.5,88.1211 L50.5,103.1211 M63.5,88.1211 L76.5,103.1211 " fill="none" style="stroke:#181818;stroke-width:0.5;"/><text fill="#000000" font-family="sans-serif" font-size="14" lengthAdjust="spacing" textLength="81" x="20" y="536.8418">Unregistered</text><ellipse cx="63.5" cy="548.8555" fill="#E3E3E3" rx="8" ry="8" style="stroke:#181818;stroke-width:0.5;"/><path d="M63.5,556.8555 L63.5,583.8555 M50.5,564.8555 L76.5,564.8555 M63.5,583.8555 L50.5,598.8555 M63.5,583.8555 L76.5,598.8555 " fill="none" style="stroke:#181818;stroke-width:0.5;"/><rect fill="#E3E3E3" height="32.6211" rx="2.5" ry="2.5" style="stroke:#181818;stroke-width:0.5;" width="64" x="507.5" y="89.6211"/><text fill="#000000" font-family="sans-serif" font-size="14" lengthAdjust="spacing" textLength="50" x="514.5" y="111.7285">:System</text><rect fill="#E3E3E3" height="32.6211" rx="2.5" ry="2.5" style="stroke:#181818;stroke-width:0.5;" width="64" x="507.5" y="521.7344"/><text fill="#000000" font-family="sans-serif" font-size="14" lengthAdjust="spacing" textLength="50" x="514.5" y="543.8418">:System</text><rect fill="#FFFFFF" height="380.4922" style="stroke:#181818;stroke-width:1.0;" width="10" x="58.5" y="133.2422"/><rect fill="#FFFFFF" height="31.291" style="stroke:#181818;stroke-width:1.0;" width="10" x="534.5" y="156.5332"/><rect fill="#FFFFFF" height="31.291" style="stroke:#181818;stroke-width:1.0;" width="10" x="534.5" y="245.4063"/><rect fill="#FFFFFF" height="38.291" style="stroke:#181818;stroke-width:1.0;" width="10" x="534.5" y="307.9883"/><rect fill="#FFFFFF" height="31.291" style="stroke:#181818;stroke-width:1.0;" width="10" x="534.5" y="403.8613"/><rect fill="#FFFFFF" height="38.291" style="stroke:#181818;stroke-width:1.0;" width="10" x="534.5" y="466.4434"/><polygon fill="#181818" points="522.5,152.5332,532.5,156.5332,522.5,160.5332,526.5,156.5332" style="stroke:#181818;stroke-width:1.0;"/><line style="stroke:#181818;stroke-width:1.0;" x1="68.5" x2="528.5" y1="156.5332" y2="156.5332"/><text fill="#000000" font-family="sans-serif" font-size="13" font-weight="bold" lengthAdjust="spacing" textLength="7" x="75.5" y="151.2705">1</text><text fill="#000000" font-family="sans-serif" font-size="13" lengthAdjust="spacing" textLength="174" x="86.5" y="151.2705">Asks to get a list of properties</text><polygon fill="#181818" points="79.5,183.8242,69.5,187.8242,79.5,191.8242,75.5,187.8242" style="stroke:#181818;stroke-width:1.0;"/><line style="stroke:#181818;stroke-width:1.0;stroke-dasharray:2.0,2.0;" x1="73.5" x2="538.5" y1="187.8242" y2="187.8242"/><text fill="#000000" font-family="sans-serif" font-size="13" font-weight="bold" lengthAdjust="spacing" textLength="7" x="85.5" y="182.5615">2</text><text fill="#000000" font-family="sans-serif" font-size="13" lengthAdjust="spacing" textLength="139" x="96.5" y="182.5615">Display list of properties</text><path d="M10,202.8242 L71,202.8242 L71,212.1152 L61,222.1152 L10,222.1152 L10,202.8242 " fill="#EEEEEE" style="stroke:#000000;stroke-width:1.5;"/><rect fill="none" height="113.1641" style="stroke:#000000;stroke-width:1.5;" width="571.5" x="10" y="202.8242"/><text fill="#000000" font-family="sans-serif" font-size="13" font-weight="bold" lengthAdjust="spacing" textLength="16" x="25" y="217.8525">alt</text><text fill="#000000" font-family="sans-serif" font-size="11" font-weight="bold" lengthAdjust="spacing" textLength="132" x="86" y="216.6943">[User filters properties]</text><polygon fill="#181818" points="522.5,241.4063,532.5,245.4063,522.5,249.4063,526.5,245.4063" style="stroke:#181818;stroke-width:1.0;"/><line style="stroke:#181818;stroke-width:1.0;" x1="68.5" x2="528.5" y1="245.4063" y2="245.4063"/><text fill="#000000" font-family="sans-serif" font-size="13" font-weight="bold" lengthAdjust="spacing" textLength="7" x="75.5" y="240.1436">3</text><text fill="#000000" font-family="sans-serif" font-size="13" lengthAdjust="spacing" textLength="134" x="86.5" y="240.1436">Asks to filter properties</text><polygon fill="#181818" points="79.5,272.6973,69.5,276.6973,79.5,280.6973,75.5,276.6973" style="stroke:#181818;stroke-width:1.0;"/><line style="stroke:#181818;stroke-width:1.0;stroke-dasharray:2.0,2.0;" x1="73.5" x2="538.5" y1="276.6973" y2="276.6973"/><text fill="#000000" font-family="sans-serif" font-size="13" font-weight="bold" lengthAdjust="spacing" textLength="7" x="85.5" y="271.4346">4</text><text fill="#000000" font-family="sans-serif" font-size="13" lengthAdjust="spacing" textLength="431" x="96.5" y="271.4346">Display search filters (type of business, type of property, number of rooms)</text><polygon fill="#181818" points="522.5,303.9883,532.5,307.9883,522.5,311.9883,526.5,307.9883" style="stroke:#181818;stroke-width:1.0;"/><line style="stroke:#181818;stroke-width:1.0;" x1="68.5" x2="528.5" y1="307.9883" y2="307.9883"/><text fill="#000000" font-family="sans-serif" font-size="13" font-weight="bold" lengthAdjust="spacing" textLength="7" x="75.5" y="302.7256">5</text><text fill="#000000" font-family="sans-serif" font-size="13" lengthAdjust="spacing" textLength="117" x="86.5" y="302.7256">Selects wanted filter</text><polygon fill="#181818" points="79.5,342.2793,69.5,346.2793,79.5,350.2793,75.5,346.2793" style="stroke:#181818;stroke-width:1.0;"/><line style="stroke:#181818;stroke-width:1.0;stroke-dasharray:2.0,2.0;" x1="73.5" x2="538.5" y1="346.2793" y2="346.2793"/><text fill="#000000" font-family="sans-serif" font-size="13" font-weight="bold" lengthAdjust="spacing" textLength="7" x="85.5" y="341.0166">6</text><text fill="#000000" font-family="sans-serif" font-size="13" lengthAdjust="spacing" textLength="238" x="96.5" y="341.0166">Display list of properties by selected filter</text><path d="M10,361.2793 L71,361.2793 L71,370.5703 L61,380.5703 L10,380.5703 L10,361.2793 " fill="#EEEEEE" style="stroke:#000000;stroke-width:1.5;"/><rect fill="none" height="113.1641" style="stroke:#000000;stroke-width:1.5;" width="571.5" x="10" y="361.2793"/><text fill="#000000" font-family="sans-serif" font-size="13" font-weight="bold" lengthAdjust="spacing" textLength="16" x="25" y="376.3076">alt</text><text fill="#000000" font-family="sans-serif" font-size="11" font-weight="bold" lengthAdjust="spacing" textLength="129" x="86" y="375.1494">[User sorts properties]</text><polygon fill="#181818" points="522.5,399.8613,532.5,403.8613,522.5,407.8613,526.5,403.8613" style="stroke:#181818;stroke-width:1.0;"/><line style="stroke:#181818;stroke-width:1.0;" x1="68.5" x2="528.5" y1="403.8613" y2="403.8613"/><text fill="#000000" font-family="sans-serif" font-size="13" font-weight="bold" lengthAdjust="spacing" textLength="7" x="75.5" y="398.5986">7</text><text fill="#000000" font-family="sans-serif" font-size="13" lengthAdjust="spacing" textLength="132" x="86.5" y="398.5986">Asks to sort properties</text><polygon fill="#181818" points="79.5,431.1523,69.5,435.1523,79.5,439.1523,75.5,435.1523" style="stroke:#181818;stroke-width:1.0;"/><line style="stroke:#181818;stroke-width:1.0;stroke-dasharray:2.0,2.0;" x1="73.5" x2="538.5" y1="435.1523" y2="435.1523"/><text fill="#000000" font-family="sans-serif" font-size="13" font-weight="bold" lengthAdjust="spacing" textLength="7" x="85.5" y="429.8896">8</text><text fill="#000000" font-family="sans-serif" font-size="13" lengthAdjust="spacing" textLength="195" x="96.5" y="429.8896">Display sort criteria (price, parish)</text><polygon fill="#181818" points="522.5,462.4434,532.5,466.4434,522.5,470.4434,526.5,466.4434" style="stroke:#181818;stroke-width:1.0;"/><line style="stroke:#181818;stroke-width:1.0;" x1="68.5" x2="528.5" y1="466.4434" y2="466.4434"/><text fill="#000000" font-family="sans-serif" font-size="13" font-weight="bold" lengthAdjust="spacing" textLength="7" x="75.5" y="461.1807">9</text><text fill="#000000" font-family="sans-serif" font-size="13" lengthAdjust="spacing" textLength="132" x="86.5" y="461.1807">Selects wanted criteria</text><polygon fill="#181818" points="79.5,500.7344,69.5,504.7344,79.5,508.7344,75.5,504.7344" style="stroke:#181818;stroke-width:1.0;"/><line style="stroke:#181818;stroke-width:1.0;stroke-dasharray:2.0,2.0;" x1="73.5" x2="538.5" y1="504.7344" y2="504.7344"/><text fill="#000000" font-family="sans-serif" font-size="13" font-weight="bold" lengthAdjust="spacing" textLength="14" x="85.5" y="499.4717">10</text><text fill="#000000" font-family="sans-serif" font-size="13" lengthAdjust="spacing" textLength="253" x="103.5" y="499.4717">Display list of properties by selected criteria</text><!--SRC=[hLDBRi8m4Dtx52DM8C45M5Ign0qY3Z0uGsBXsAvd0ihjQvEFIfiWKU6LPS_x-ILyCIvWn0OQxxokesy89BQaUBe9g2zOKI6T9OYa1LrbVmvmZQM_6LV16IsJKc8aZHOT2pLGq5TBJXCS35PvV5qKXurIs8ftRNEYg52BZx0wkaYLIQ18vGgGuSZfCcc8qIQW4rZjUzBxRRzL6MskADIFAqWhxs3tCLhOmoTV6CH3HG88Dec0FqE8Fb1Y9xwZ9gAH6OOrqEmIuvrvdx9miDWjCPKqouLMUeApiIab_uOzjTvZvY2BlfzxPyAewydBMhf0ESkfPUE8UGlZoQ3PRQ4lB9z5xnlUJ59_4oy6AiYcZuZXbXgbSj1_y3n7HQvyc7cr5pZbn5bvNdC-m6DjxAEyLbf6lBEoJAUZIUODmZf4escRVj1ek7v75oErMknYU9AnZNytCAFqpFmt]--></g></svg>