<?xml version="1.0" encoding="us-ascii" standalone="no"?><svg xmlns="http://www.w3.org/2000/svg" xmlns:xlink="http://www.w3.org/1999/xlink" contentStyleType="text/css" height="574px" preserveAspectRatio="none" style="width:799px;height:574px;background:#FFFFFF;" version="1.1" viewBox="0 0 799 574" width="799px" zoomAndPan="magnify"><defs/><g><text fill="#000000" font-family="sans-serif" font-size="14" font-weight="bold" lengthAdjust="spacing" textLength="228" x="287" y="27.6738">System Sequence Diagram (SSD)</text><rect fill="#FFFFFF" height="357.7578" style="stroke:#181818;stroke-width:1.0;" width="10" x="36" y="127.2813"/><rect fill="#FFFFFF" height="70.0469" style="stroke:#181818;stroke-width:1.0;" width="10" x="549" y="147.8047"/><rect fill="#FFFFFF" height="100.5703" style="stroke:#181818;stroke-width:1.0;" width="10" x="549" y="269.8984"/><rect fill="#FFFFFF" height="85.0469" style="stroke:#181818;stroke-width:1.0;" width="10" x="549" y="398.9922"/><rect fill="none" height="86.5703" style="stroke:#000000;stroke-width:1.5;" width="733" x="10" y="232.8516"/><rect fill="none" height="143.6172" style="stroke:#000000;stroke-width:1.5;" width="783" x="10" y="333.4219"/><line style="stroke:#181818;stroke-width:0.5;stroke-dasharray:5.0,5.0;" x1="41" x2="41" y1="117.2813" y2="494.0391"/><line style="stroke:#181818;stroke-width:0.5;stroke-dasharray:5.0,5.0;" x1="554" x2="554" y1="117.2813" y2="494.0391"/><text fill="#000000" font-family="sans-serif" font-size="14" lengthAdjust="spacing" textLength="36" x="20" y="114.3145">Client</text><ellipse cx="41" cy="50.1406" fill="#E3E3E3" rx="8" ry="8" style="stroke:#181818;stroke-width:0.5;"/><path d="M41,58.1406 L41,85.1406 M28,66.1406 L54,66.1406 M41,85.1406 L28,100.1406 M41,85.1406 L54,100.1406 " fill="none" style="stroke:#181818;stroke-width:0.5;"/><text fill="#000000" font-family="sans-serif" font-size="14" lengthAdjust="spacing" textLength="36" x="20" y="505.7129">Client</text><ellipse cx="41" cy="517.1797" fill="#E3E3E3" rx="8" ry="8" style="stroke:#181818;stroke-width:0.5;"/><path d="M41,525.1797 L41,552.1797 M28,533.1797 L54,533.1797 M41,552.1797 L28,567.1797 M41,552.1797 L54,567.1797 " fill="none" style="stroke:#181818;stroke-width:0.5;"/><rect fill="#E3E3E3" height="29.6406" rx="2.5" ry="2.5" style="stroke:#181818;stroke-width:0.5;" width="64" x="522" y="86.6406"/><text fill="#000000" font-family="sans-serif" font-size="14" lengthAdjust="spacing" textLength="50" x="529" y="106.3145">:System</text><rect fill="#E3E3E3" height="29.6406" rx="2.5" ry="2.5" style="stroke:#181818;stroke-width:0.5;" width="64" x="522" y="493.0391"/><text fill="#000000" font-family="sans-serif" font-size="14" lengthAdjust="spacing" textLength="50" x="529" y="512.7129">:System</text><rect fill="#FFFFFF" height="357.7578" style="stroke:#181818;stroke-width:1.0;" width="10" x="36" y="127.2813"/><rect fill="#FFFFFF" height="70.0469" style="stroke:#181818;stroke-width:1.0;" width="10" x="549" y="147.8047"/><rect fill="#FFFFFF" height="100.5703" style="stroke:#181818;stroke-width:1.0;" width="10" x="549" y="269.8984"/><rect fill="#FFFFFF" height="85.0469" style="stroke:#181818;stroke-width:1.0;" width="10" x="549" y="398.9922"/><polygon fill="#181818" points="537,143.8047,547,147.8047,537,151.8047,541,147.8047" style="stroke:#181818;stroke-width:1.0;"/><line style="stroke:#181818;stroke-width:1.0;" x1="46" x2="543" y1="147.8047" y2="147.8047"/><text fill="#000000" font-family="sans-serif" font-size="13" font-weight="bold" lengthAdjust="spacing" textLength="7" x="53" y="143.0498">1</text><text fill="#000000" font-family="sans-serif" font-size="13" lengthAdjust="spacing" textLength="152" x="64" y="143.0498">Read appointment request</text><line style="stroke:#181818;stroke-width:1.0;" x1="559" x2="601" y1="176.3281" y2="176.3281"/><line style="stroke:#181818;stroke-width:1.0;" x1="601" x2="601" y1="176.3281" y2="189.3281"/><line style="stroke:#181818;stroke-width:1.0;" x1="560" x2="601" y1="189.3281" y2="189.3281"/><polygon fill="#181818" points="570,185.3281,560,189.3281,570,193.3281,566,189.3281" style="stroke:#181818;stroke-width:1.0;"/><text fill="#000000" font-family="sans-serif" font-size="13" font-weight="bold" lengthAdjust="spacing" textLength="7" x="566" y="171.5732">2</text><text fill="#000000" font-family="sans-serif" font-size="13" lengthAdjust="spacing" textLength="185" x="577" y="171.5732">Notify agent of message display</text><polygon fill="#181818" points="57,213.8516,47,217.8516,57,221.8516,53,217.8516" style="stroke:#181818;stroke-width:1.0;"/><line style="stroke:#181818;stroke-width:1.0;stroke-dasharray:2.0,2.0;" x1="51" x2="553" y1="217.8516" y2="217.8516"/><text fill="#000000" font-family="sans-serif" font-size="13" font-weight="bold" lengthAdjust="spacing" textLength="7" x="63" y="213.0967">3</text><text fill="#000000" font-family="sans-serif" font-size="13" lengthAdjust="spacing" textLength="468" x="74" y="213.0967">Display appointment request (property info, date, agent name and phone number)</text><path d="M10,232.8516 L71,232.8516 L71,239.375 L61,249.375 L10,249.375 L10,232.8516 " fill="#EEEEEE" style="stroke:#000000;stroke-width:1.5;"/><rect fill="none" height="86.5703" style="stroke:#000000;stroke-width:1.5;" width="733" x="10" y="232.8516"/><text fill="#000000" font-family="sans-serif" font-size="13" font-weight="bold" lengthAdjust="spacing" textLength="16" x="25" y="245.6201">alt</text><text fill="#000000" font-family="sans-serif" font-size="11" font-weight="bold" lengthAdjust="spacing" textLength="133" x="86" y="244.8096">[Appointment accepted]</text><polygon fill="#181818" points="537,265.8984,547,269.8984,537,273.8984,541,269.8984" style="stroke:#181818;stroke-width:1.0;"/><line style="stroke:#181818;stroke-width:1.0;" x1="46" x2="543" y1="269.8984" y2="269.8984"/><text fill="#000000" font-family="sans-serif" font-size="13" font-weight="bold" lengthAdjust="spacing" textLength="7" x="53" y="265.1436">4</text><text fill="#000000" font-family="sans-serif" font-size="13" lengthAdjust="spacing" textLength="167" x="64" y="265.1436">Accept or reject appointment</text><line style="stroke:#181818;stroke-width:1.0;" x1="559" x2="601" y1="298.4219" y2="298.4219"/><line style="stroke:#181818;stroke-width:1.0;" x1="601" x2="601" y1="298.4219" y2="311.4219"/><line style="stroke:#181818;stroke-width:1.0;" x1="560" x2="601" y1="311.4219" y2="311.4219"/><polygon fill="#181818" points="570,307.4219,560,311.4219,570,315.4219,566,311.4219" style="stroke:#181818;stroke-width:1.0;"/><text fill="#000000" font-family="sans-serif" font-size="13" font-weight="bold" lengthAdjust="spacing" textLength="7" x="566" y="293.667">5</text><text fill="#000000" font-family="sans-serif" font-size="13" lengthAdjust="spacing" textLength="154" x="577" y="293.667">Notify agent of acceptance</text><path d="M10,333.4219 L71,333.4219 L71,339.9453 L61,349.9453 L10,349.9453 L10,333.4219 " fill="#EEEEEE" style="stroke:#000000;stroke-width:1.5;"/><rect fill="none" height="143.6172" style="stroke:#000000;stroke-width:1.5;" width="783" x="10" y="333.4219"/><text fill="#000000" font-family="sans-serif" font-size="13" font-weight="bold" lengthAdjust="spacing" textLength="16" x="25" y="346.1904">alt</text><text fill="#000000" font-family="sans-serif" font-size="11" font-weight="bold" lengthAdjust="spacing" textLength="129" x="86" y="345.3799">[Appointment rejected]</text><polygon fill="#181818" points="57,366.4688,47,370.4688,57,374.4688,53,370.4688" style="stroke:#181818;stroke-width:1.0;"/><line style="stroke:#181818;stroke-width:1.0;stroke-dasharray:2.0,2.0;" x1="51" x2="553" y1="370.4688" y2="370.4688"/><text fill="#000000" font-family="sans-serif" font-size="13" font-weight="bold" lengthAdjust="spacing" textLength="7" x="63" y="365.7139">6</text><text fill="#000000" font-family="sans-serif" font-size="13" lengthAdjust="spacing" textLength="162" x="74" y="365.7139">Request reason for rejection</text><polygon fill="#181818" points="537,394.9922,547,398.9922,537,402.9922,541,398.9922" style="stroke:#181818;stroke-width:1.0;"/><line style="stroke:#181818;stroke-width:1.0;" x1="46" x2="543" y1="398.9922" y2="398.9922"/><text fill="#000000" font-family="sans-serif" font-size="13" font-weight="bold" lengthAdjust="spacing" textLength="7" x="53" y="394.2373">7</text><text fill="#000000" font-family="sans-serif" font-size="13" lengthAdjust="spacing" textLength="156" x="64" y="394.2373">Provide reason for rejection</text><line style="stroke:#181818;stroke-width:1.0;" x1="559" x2="601" y1="427.5156" y2="427.5156"/><line style="stroke:#181818;stroke-width:1.0;" x1="601" x2="601" y1="427.5156" y2="440.5156"/><line style="stroke:#181818;stroke-width:1.0;" x1="560" x2="601" y1="440.5156" y2="440.5156"/><polygon fill="#181818" points="570,436.5156,560,440.5156,570,444.5156,566,440.5156" style="stroke:#181818;stroke-width:1.0;"/><text fill="#000000" font-family="sans-serif" font-size="13" font-weight="bold" lengthAdjust="spacing" textLength="7" x="566" y="422.7607">8</text><text fill="#000000" font-family="sans-serif" font-size="13" lengthAdjust="spacing" textLength="204" x="577" y="422.7607">Notify agent of rejection and reason</text><polygon fill="#181818" points="57,465.0391,47,469.0391,57,473.0391,53,469.0391" style="stroke:#181818;stroke-width:1.0;"/><line style="stroke:#181818;stroke-width:1.0;stroke-dasharray:2.0,2.0;" x1="51" x2="548" y1="469.0391" y2="469.0391"/><text fill="#000000" font-family="sans-serif" font-size="13" font-weight="bold" lengthAdjust="spacing" textLength="7" x="63" y="464.2842">9</text><text fill="#000000" font-family="sans-serif" font-size="13" lengthAdjust="spacing" textLength="146" x="74" y="464.2842">Display sucess message</text><!--SRC=[dLBBRW8n3BpxAonE8D4Vu509bNDLTR_0JRoGaatIn4krVr_l0xe5gahTKzRnZ6V6AKSN4cLgi8aXcaEE3QFabg5SRXAP8-svaiupPZP2OU_d3UL0DdwwiCUQV640SQAjLLU46wpue-LW67UEzdtxigfsAm1g9OQsUUCCP2HcN3nvnq4MI0MD1-KMProY8BZOZ6J3tNY47kLE9DmtW_7uy3XTRV2LoIAb55sGHZbLjeeeyesPI2QDC-Xp55Ttg8OL5cjik1JzGUjAyjHT40enVgEcXlAzORXCEIREqg4BTLoZrS7hYJcG1at1OZh4m3W6iGBBrmg1lE1snax6S1AsrvwtGnqroCplkgMv980RvwZVt-x7OQJhWm71mTug6kUfeZddbC_hb4LcAZ5WVP7dOXZwRnttrP_MNd8yESk_a_pFt8LZMCH83lTCd9TSMgEluVma08OqRWry0G00]--></g></svg>
