<?xml version="1.0" encoding="us-ascii" standalone="no"?><svg xmlns="http://www.w3.org/2000/svg" xmlns:xlink="http://www.w3.org/1999/xlink" contentStyleType="text/css" height="698px" preserveAspectRatio="none" style="width:713px;height:698px;background:#FFFFFF;" version="1.1" viewBox="0 0 713 698" width="713px" zoomAndPan="magnify"><defs/><g><text fill="#000000" font-family="sans-serif" font-size="14" font-weight="bold" lengthAdjust="spacing" textLength="228" x="244.25" y="27.6738">System Sequence Diagram (SSD)</text><rect fill="#FFFFFF" height="482.3281" style="stroke:#181818;stroke-width:1.0;" width="10" x="36.5" y="127.2813"/><rect fill="#FFFFFF" height="153.0938" style="stroke:#181818;stroke-width:1.0;" width="10" x="324.5" y="147.8047"/><rect fill="#FFFFFF" height="111.5703" style="stroke:#181818;stroke-width:1.0;" width="10" x="324.5" y="352.9453"/><rect fill="#FFFFFF" height="70.0469" style="stroke:#181818;stroke-width:1.0;" width="10" x="324.5" y="523.5625"/><rect fill="none" height="156.6172" style="stroke:#000000;stroke-width:1.5;" width="690.5" x="10" y="315.8984"/><rect fill="none" height="115.0938" style="stroke:#000000;stroke-width:1.5;" width="697.5" x="10" y="486.5156"/><line style="stroke:#181818;stroke-width:0.5;stroke-dasharray:5.0,5.0;" x1="41" x2="41" y1="117.2813" y2="618.6094"/><line style="stroke:#181818;stroke-width:0.5;stroke-dasharray:5.0,5.0;" x1="329.5" x2="329.5" y1="117.2813" y2="618.6094"/><text fill="#000000" font-family="sans-serif" font-size="14" lengthAdjust="spacing" textLength="37" x="20" y="114.3145">Agent</text><ellipse cx="41.5" cy="50.1406" fill="#E3E3E3" rx="8" ry="8" style="stroke:#181818;stroke-width:0.5;"/><path d="M41.5,58.1406 L41.5,85.1406 M28.5,66.1406 L54.5,66.1406 M41.5,85.1406 L28.5,100.1406 M41.5,85.1406 L54.5,100.1406 " fill="none" style="stroke:#181818;stroke-width:0.5;"/><text fill="#000000" font-family="sans-serif" font-size="14" lengthAdjust="spacing" textLength="37" x="20" y="630.2832">Agent</text><ellipse cx="41.5" cy="641.75" fill="#E3E3E3" rx="8" ry="8" style="stroke:#181818;stroke-width:0.5;"/><path d="M41.5,649.75 L41.5,676.75 M28.5,657.75 L54.5,657.75 M41.5,676.75 L28.5,691.75 M41.5,676.75 L54.5,691.75 " fill="none" style="stroke:#181818;stroke-width:0.5;"/><rect fill="#E3E3E3" height="29.6406" rx="2.5" ry="2.5" style="stroke:#181818;stroke-width:0.5;" width="64" x="297.5" y="86.6406"/><text fill="#000000" font-family="sans-serif" font-size="14" lengthAdjust="spacing" textLength="50" x="304.5" y="106.3145">:System</text><rect fill="#E3E3E3" height="29.6406" rx="2.5" ry="2.5" style="stroke:#181818;stroke-width:0.5;" width="64" x="297.5" y="617.6094"/><text fill="#000000" font-family="sans-serif" font-size="14" lengthAdjust="spacing" textLength="50" x="304.5" y="637.2832">:System</text><rect fill="#FFFFFF" height="482.3281" style="stroke:#181818;stroke-width:1.0;" width="10" x="36.5" y="127.2813"/><rect fill="#FFFFFF" height="153.0938" style="stroke:#181818;stroke-width:1.0;" width="10" x="324.5" y="147.8047"/><rect fill="#FFFFFF" height="111.5703" style="stroke:#181818;stroke-width:1.0;" width="10" x="324.5" y="352.9453"/><rect fill="#FFFFFF" height="70.0469" style="stroke:#181818;stroke-width:1.0;" width="10" x="324.5" y="523.5625"/><polygon fill="#181818" points="312.5,143.8047,322.5,147.8047,312.5,151.8047,316.5,147.8047" style="stroke:#181818;stroke-width:1.0;"/><line style="stroke:#181818;stroke-width:1.0;" x1="46.5" x2="318.5" y1="147.8047" y2="147.8047"/><text fill="#000000" font-family="sans-serif" font-size="13" font-weight="bold" lengthAdjust="spacing" textLength="7" x="53.5" y="143.0498">1</text><text fill="#000000" font-family="sans-serif" font-size="13" lengthAdjust="spacing" textLength="238" x="64.5" y="143.0498">"Asks to list real estate purchase orders"</text><line style="stroke:#181818;stroke-width:1.0;" x1="334.5" x2="376.5" y1="176.3281" y2="176.3281"/><line style="stroke:#181818;stroke-width:1.0;" x1="376.5" x2="376.5" y1="176.3281" y2="189.3281"/><line style="stroke:#181818;stroke-width:1.0;" x1="335.5" x2="376.5" y1="189.3281" y2="189.3281"/><polygon fill="#181818" points="345.5,185.3281,335.5,189.3281,345.5,193.3281,341.5,189.3281" style="stroke:#181818;stroke-width:1.0;"/><text fill="#000000" font-family="sans-serif" font-size="13" font-weight="bold" lengthAdjust="spacing" textLength="7" x="341.5" y="171.5732">2</text><text fill="#000000" font-family="sans-serif" font-size="13" lengthAdjust="spacing" textLength="201" x="352.5" y="171.5732">Group purchase orders by property</text><line style="stroke:#181818;stroke-width:1.0;" x1="334.5" x2="376.5" y1="217.8516" y2="217.8516"/><line style="stroke:#181818;stroke-width:1.0;" x1="376.5" x2="376.5" y1="217.8516" y2="230.8516"/><line style="stroke:#181818;stroke-width:1.0;" x1="335.5" x2="376.5" y1="230.8516" y2="230.8516"/><polygon fill="#181818" points="345.5,226.8516,335.5,230.8516,345.5,234.8516,341.5,230.8516" style="stroke:#181818;stroke-width:1.0;"/><text fill="#000000" font-family="sans-serif" font-size="13" font-weight="bold" lengthAdjust="spacing" textLength="7" x="341.5" y="213.0967">3</text><text fill="#000000" font-family="sans-serif" font-size="13" lengthAdjust="spacing" textLength="241" x="352.5" y="213.0967">Sort properties from oldest to most recent</text><line style="stroke:#181818;stroke-width:1.0;" x1="334.5" x2="376.5" y1="259.375" y2="259.375"/><line style="stroke:#181818;stroke-width:1.0;" x1="376.5" x2="376.5" y1="259.375" y2="272.375"/><line style="stroke:#181818;stroke-width:1.0;" x1="335.5" x2="376.5" y1="272.375" y2="272.375"/><polygon fill="#181818" points="345.5,268.375,335.5,272.375,345.5,276.375,341.5,272.375" style="stroke:#181818;stroke-width:1.0;"/><text fill="#000000" font-family="sans-serif" font-size="13" font-weight="bold" lengthAdjust="spacing" textLength="7" x="341.5" y="254.6201">4</text><text fill="#000000" font-family="sans-serif" font-size="13" lengthAdjust="spacing" textLength="280" x="352.5" y="254.6201">Sort purchase orders from highest offer to lowest</text><polygon fill="#181818" points="57.5,296.8984,47.5,300.8984,57.5,304.8984,53.5,300.8984" style="stroke:#181818;stroke-width:1.0;"/><line style="stroke:#181818;stroke-width:1.0;stroke-dasharray:2.0,2.0;" x1="51.5" x2="328.5" y1="300.8984" y2="300.8984"/><text fill="#000000" font-family="sans-serif" font-size="13" font-weight="bold" lengthAdjust="spacing" textLength="7" x="63.5" y="296.1436">5</text><text fill="#000000" font-family="sans-serif" font-size="13" lengthAdjust="spacing" textLength="243" x="74.5" y="296.1436">"Displays list real estate purchase orders"</text><path d="M10,315.8984 L71,315.8984 L71,322.4219 L61,332.4219 L10,332.4219 L10,315.8984 " fill="#EEEEEE" style="stroke:#000000;stroke-width:1.5;"/><rect fill="none" height="156.6172" style="stroke:#000000;stroke-width:1.5;" width="690.5" x="10" y="315.8984"/><text fill="#000000" font-family="sans-serif" font-size="13" font-weight="bold" lengthAdjust="spacing" textLength="16" x="25" y="328.667">alt</text><a href="Accept" target="_top" title="Accept" xlink:actuate="onRequest" xlink:href="Accept" xlink:show="new" xlink:title="Accept" xlink:type="simple"><text fill="#1D1D1D" font-family="sans-serif" font-size="11" font-weight="bold" lengthAdjust="spacing" text-decoration="underline" textLength="38" x="86" y="327.8564">Accept</text></a><polygon fill="#181818" points="312.5,348.9453,322.5,352.9453,312.5,356.9453,316.5,352.9453" style="stroke:#181818;stroke-width:1.0;"/><line style="stroke:#181818;stroke-width:1.0;" x1="46.5" x2="318.5" y1="352.9453" y2="352.9453"/><text fill="#000000" font-family="sans-serif" font-size="13" font-weight="bold" lengthAdjust="spacing" textLength="7" x="53.5" y="348.1904">6</text><text fill="#000000" font-family="sans-serif" font-size="13" lengthAdjust="spacing" textLength="141" x="64.5" y="348.1904">"Accept purchase order"</text><line style="stroke:#181818;stroke-width:1.0;" x1="334.5" x2="376.5" y1="381.4688" y2="381.4688"/><line style="stroke:#181818;stroke-width:1.0;" x1="376.5" x2="376.5" y1="381.4688" y2="394.4688"/><line style="stroke:#181818;stroke-width:1.0;" x1="335.5" x2="376.5" y1="394.4688" y2="394.4688"/><polygon fill="#181818" points="345.5,390.4688,335.5,394.4688,345.5,398.4688,341.5,394.4688" style="stroke:#181818;stroke-width:1.0;"/><text fill="#000000" font-family="sans-serif" font-size="13" font-weight="bold" lengthAdjust="spacing" textLength="7" x="341.5" y="376.7139">7</text><text fill="#000000" font-family="sans-serif" font-size="13" lengthAdjust="spacing" textLength="259" x="352.5" y="376.7139">Decline all other purchase orders for property</text><line style="stroke:#181818;stroke-width:1.0;stroke-dasharray:2.0,2.0;" x1="334.5" x2="376.5" y1="422.9922" y2="422.9922"/><line style="stroke:#181818;stroke-width:1.0;stroke-dasharray:2.0,2.0;" x1="376.5" x2="376.5" y1="422.9922" y2="435.9922"/><line style="stroke:#181818;stroke-width:1.0;stroke-dasharray:2.0,2.0;" x1="335.5" x2="376.5" y1="435.9922" y2="435.9922"/><polygon fill="#181818" points="345.5,431.9922,335.5,435.9922,345.5,439.9922,341.5,435.9922" style="stroke:#181818;stroke-width:1.0;"/><text fill="#000000" font-family="sans-serif" font-size="13" font-weight="bold" lengthAdjust="spacing" textLength="7" x="341.5" y="418.2373">8</text><text fill="#000000" font-family="sans-serif" font-size="13" lengthAdjust="spacing" textLength="336" x="352.5" y="418.2373">"Send an email to the client to confirm the agent decision"</text><polygon fill="#181818" points="57.5,460.5156,47.5,464.5156,57.5,468.5156,53.5,464.5156" style="stroke:#181818;stroke-width:1.0;"/><line style="stroke:#181818;stroke-width:1.0;stroke-dasharray:2.0,2.0;" x1="51.5" x2="328.5" y1="464.5156" y2="464.5156"/><text fill="#000000" font-family="sans-serif" font-size="13" font-weight="bold" lengthAdjust="spacing" textLength="7" x="63.5" y="459.7607">9</text><text fill="#000000" font-family="sans-serif" font-size="13" lengthAdjust="spacing" textLength="170" x="74.5" y="459.7607">"Displays success message"</text><path d="M10,486.5156 L71,486.5156 L71,493.0391 L61,503.0391 L10,503.0391 L10,486.5156 " fill="#EEEEEE" style="stroke:#000000;stroke-width:1.5;"/><rect fill="none" height="115.0938" style="stroke:#000000;stroke-width:1.5;" width="697.5" x="10" y="486.5156"/><text fill="#000000" font-family="sans-serif" font-size="13" font-weight="bold" lengthAdjust="spacing" textLength="16" x="25" y="499.2842">alt</text><a href="Decline" target="_top" title="Decline" xlink:actuate="onRequest" xlink:href="Decline" xlink:show="new" xlink:title="Decline" xlink:type="simple"><text fill="#1D1D1D" font-family="sans-serif" font-size="11" font-weight="bold" lengthAdjust="spacing" text-decoration="underline" textLength="40" x="86" y="498.4736">Decline</text></a><polygon fill="#181818" points="312.5,519.5625,322.5,523.5625,312.5,527.5625,316.5,523.5625" style="stroke:#181818;stroke-width:1.0;"/><line style="stroke:#181818;stroke-width:1.0;" x1="46.5" x2="318.5" y1="523.5625" y2="523.5625"/><text fill="#000000" font-family="sans-serif" font-size="13" font-weight="bold" lengthAdjust="spacing" textLength="14" x="53.5" y="518.8076">10</text><text fill="#000000" font-family="sans-serif" font-size="13" lengthAdjust="spacing" textLength="143" x="71.5" y="518.8076">"Decline purchase order"</text><line style="stroke:#181818;stroke-width:1.0;stroke-dasharray:2.0,2.0;" x1="334.5" x2="376.5" y1="552.0859" y2="552.0859"/><line style="stroke:#181818;stroke-width:1.0;stroke-dasharray:2.0,2.0;" x1="376.5" x2="376.5" y1="552.0859" y2="565.0859"/><line style="stroke:#181818;stroke-width:1.0;stroke-dasharray:2.0,2.0;" x1="335.5" x2="376.5" y1="565.0859" y2="565.0859"/><polygon fill="#181818" points="345.5,561.0859,335.5,565.0859,345.5,569.0859,341.5,565.0859" style="stroke:#181818;stroke-width:1.0;"/><text fill="#000000" font-family="sans-serif" font-size="13" font-weight="bold" lengthAdjust="spacing" textLength="14" x="341.5" y="547.3311">11</text><text fill="#000000" font-family="sans-serif" font-size="13" lengthAdjust="spacing" textLength="336" x="359.5" y="547.3311">"Send an email to the client to confirm the agent decision"</text><polygon fill="#181818" points="57.5,589.6094,47.5,593.6094,57.5,597.6094,53.5,593.6094" style="stroke:#181818;stroke-width:1.0;"/><line style="stroke:#181818;stroke-width:1.0;stroke-dasharray:2.0,2.0;" x1="51.5" x2="328.5" y1="593.6094" y2="593.6094"/><text fill="#000000" font-family="sans-serif" font-size="13" font-weight="bold" lengthAdjust="spacing" textLength="14" x="63.5" y="588.8545">12</text><text fill="#000000" font-family="sans-serif" font-size="13" lengthAdjust="spacing" textLength="170" x="81.5" y="588.8545">"Displays success message"</text><!--SRC=[pP8nRkGm34LxdO9mbIts0bC423307i1ba8AHQLiOMTIAT0BVFfGddiawaqNAD8Oaab__FqjE8MKiEC74YVrOU2BGCfEJIoMZF-50hIwHe91NJ4Fys20ZTlmQqW0zHY7dDAYrjeieJT3ItvcI9pW676hxNTiUVpc7itAQfsSgjlRA1Pg7WP8sW08uEDFMu4F6fD0Spc9hxRnSXy8BAjLcXmFylj-kF9YKd0IK8GPHCuqHIBGsvxdu4OM0IqT5cglCflikSf4xm9_2SzvFmlC2kN2ceikDcPQBRlL00hsX1OwTsQY-9bvzUGlyvV3klbLX3CDO9RZlgQm1-TNsLzUcOYoCm358ZhZ8Dn1qz0a2HeN71-yfwzCDkcjX9_Gjb4VoCIJxPp42wsWPFiMqbt3Xwlu9TZNGKke04z248LOC9WMcR3ZhpdFgGvdMKwoF2ZhoGGAdvd-aPBPS8Z3PnyQizmOPjruTzOpeFSzJTRgdj6NTOt9VW_eX8RU8Rm00]--></g></svg>

