<?xml version="1.0" encoding="us-ascii" standalone="no"?><svg xmlns="http://www.w3.org/2000/svg" xmlns:xlink="http://www.w3.org/1999/xlink" contentStyleType="text/css" height="758px" preserveAspectRatio="none" style="width:873px;height:758px;background:#FFFFFF;" version="1.1" viewBox="0 0 873 758" width="873px" zoomAndPan="magnify"><defs/><g><text fill="#000000" font-family="sans-serif" font-size="14" font-weight="bold" lengthAdjust="spacing" textLength="228" x="324.75" y="30.1074">System Sequence Diagram (SSD)</text><rect fill="#FFFFFF" height="533.2871" style="stroke:#181818;stroke-width:1.0;" width="10" x="67.5" y="133.2422"/><rect fill="#FFFFFF" height="31.291" style="stroke:#181818;stroke-width:1.0;" width="10" x="725.5" y="156.5332"/><rect fill="#FFFFFF" height="31.291" style="stroke:#181818;stroke-width:1.0;" width="10" x="725.5" y="219.1152"/><rect fill="#FFFFFF" height="57.582" style="stroke:#181818;stroke-width:1.0;" width="10" x="725.5" y="281.6973"/><rect fill="#FFFFFF" height="47.9219" style="stroke:#181818;stroke-width:1.0;" width="10" x="725.5" y="370.5703"/><rect fill="#FFFFFF" height="31.291" style="stroke:#181818;stroke-width:1.0;" width="10" x="725.5" y="449.7832"/><rect fill="#FFFFFF" height="38.291" style="stroke:#181818;stroke-width:1.0;" width="10" x="725.5" y="512.3652"/><rect fill="#FFFFFF" height="37.291" style="stroke:#181818;stroke-width:1.0;" width="10" x="725.5" y="581.9473"/><rect fill="none" height="223.668" style="stroke:#000000;stroke-width:1.5;" width="762.5" x="10" y="296.6973"/><line style="stroke:#181818;stroke-width:0.5;stroke-dasharray:5.0,5.0;" x1="72" x2="72" y1="123.2422" y2="675.5293"/><line style="stroke:#181818;stroke-width:0.5;stroke-dasharray:5.0,5.0;" x1="730.5" x2="730.5" y1="123.2422" y2="675.5293"/><text fill="#000000" font-family="sans-serif" font-size="14" lengthAdjust="spacing" textLength="99" x="20" y="119.7285">RealStateAgent</text><ellipse cx="72.5" cy="53.1211" fill="#E3E3E3" rx="8" ry="8" style="stroke:#181818;stroke-width:0.5;"/><path d="M72.5,61.1211 L72.5,88.1211 M59.5,69.1211 L85.5,69.1211 M72.5,88.1211 L59.5,103.1211 M72.5,88.1211 L85.5,103.1211 " fill="none" style="stroke:#181818;stroke-width:0.5;"/><text fill="#000000" font-family="sans-serif" font-size="14" lengthAdjust="spacing" textLength="99" x="20" y="689.6367">RealStateAgent</text><ellipse cx="72.5" cy="701.6504" fill="#E3E3E3" rx="8" ry="8" style="stroke:#181818;stroke-width:0.5;"/><path d="M72.5,709.6504 L72.5,736.6504 M59.5,717.6504 L85.5,717.6504 M72.5,736.6504 L59.5,751.6504 M72.5,736.6504 L85.5,751.6504 " fill="none" style="stroke:#181818;stroke-width:0.5;"/><rect fill="#E3E3E3" height="32.6211" rx="2.5" ry="2.5" style="stroke:#181818;stroke-width:0.5;" width="64" x="698.5" y="89.6211"/><text fill="#000000" font-family="sans-serif" font-size="14" lengthAdjust="spacing" textLength="50" x="705.5" y="111.7285">:System</text><rect fill="#E3E3E3" height="32.6211" rx="2.5" ry="2.5" style="stroke:#181818;stroke-width:0.5;" width="64" x="698.5" y="674.5293"/><text fill="#000000" font-family="sans-serif" font-size="14" lengthAdjust="spacing" textLength="50" x="705.5" y="696.6367">:System</text><rect fill="#FFFFFF" height="533.2871" style="stroke:#181818;stroke-width:1.0;" width="10" x="67.5" y="133.2422"/><rect fill="#FFFFFF" height="31.291" style="stroke:#181818;stroke-width:1.0;" width="10" x="725.5" y="156.5332"/><rect fill="#FFFFFF" height="31.291" style="stroke:#181818;stroke-width:1.0;" width="10" x="725.5" y="219.1152"/><rect fill="#FFFFFF" height="57.582" style="stroke:#181818;stroke-width:1.0;" width="10" x="725.5" y="281.6973"/><rect fill="#FFFFFF" height="47.9219" style="stroke:#181818;stroke-width:1.0;" width="10" x="725.5" y="370.5703"/><rect fill="#FFFFFF" height="31.291" style="stroke:#181818;stroke-width:1.0;" width="10" x="725.5" y="449.7832"/><rect fill="#FFFFFF" height="38.291" style="stroke:#181818;stroke-width:1.0;" width="10" x="725.5" y="512.3652"/><rect fill="#FFFFFF" height="37.291" style="stroke:#181818;stroke-width:1.0;" width="10" x="725.5" y="581.9473"/><polygon fill="#181818" points="713.5,152.5332,723.5,156.5332,713.5,160.5332,717.5,156.5332" style="stroke:#181818;stroke-width:1.0;"/><line style="stroke:#181818;stroke-width:1.0;" x1="77.5" x2="719.5" y1="156.5332" y2="156.5332"/><text fill="#000000" font-family="sans-serif" font-size="13" font-weight="bold" lengthAdjust="spacing" textLength="7" x="84.5" y="151.2705">1</text><text fill="#000000" font-family="sans-serif" font-size="13" lengthAdjust="spacing" textLength="157" x="95.5" y="151.2705">Initiate property registration</text><polygon fill="#181818" points="88.5,183.8242,78.5,187.8242,88.5,191.8242,84.5,187.8242" style="stroke:#181818;stroke-width:1.0;"/><line style="stroke:#181818;stroke-width:1.0;stroke-dasharray:2.0,2.0;" x1="82.5" x2="729.5" y1="187.8242" y2="187.8242"/><text fill="#000000" font-family="sans-serif" font-size="13" font-weight="bold" lengthAdjust="spacing" textLength="7" x="94.5" y="182.5615">2</text><text fill="#000000" font-family="sans-serif" font-size="13" lengthAdjust="spacing" textLength="613" x="105.5" y="182.5615">Asks for Owner attributes (name, citizenCardNumber, taxNumber, Address, EmailAddress, phoneNumber)</text><polygon fill="#181818" points="713.5,215.1152,723.5,219.1152,713.5,223.1152,717.5,219.1152" style="stroke:#181818;stroke-width:1.0;"/><line style="stroke:#181818;stroke-width:1.0;" x1="77.5" x2="719.5" y1="219.1152" y2="219.1152"/><text fill="#000000" font-family="sans-serif" font-size="13" font-weight="bold" lengthAdjust="spacing" textLength="7" x="84.5" y="213.8525">3</text><text fill="#000000" font-family="sans-serif" font-size="13" lengthAdjust="spacing" textLength="611" x="95.5" y="213.8525">submits Owner attributes (name, citizenCardNumber, taxNumber, Address, EmailAddress, phoneNumber)</text><polygon fill="#181818" points="88.5,246.4063,78.5,250.4063,88.5,254.4063,84.5,250.4063" style="stroke:#181818;stroke-width:1.0;"/><line style="stroke:#181818;stroke-width:1.0;stroke-dasharray:2.0,2.0;" x1="82.5" x2="729.5" y1="250.4063" y2="250.4063"/><text fill="#000000" font-family="sans-serif" font-size="13" font-weight="bold" lengthAdjust="spacing" textLength="7" x="94.5" y="245.1436">4</text><text fill="#000000" font-family="sans-serif" font-size="13" lengthAdjust="spacing" textLength="307" x="105.5" y="245.1436">Asks for property type (House or Apartment or Land))</text><polygon fill="#181818" points="713.5,277.6973,723.5,281.6973,713.5,285.6973,717.5,281.6973" style="stroke:#181818;stroke-width:1.0;"/><line style="stroke:#181818;stroke-width:1.0;" x1="77.5" x2="719.5" y1="281.6973" y2="281.6973"/><text fill="#000000" font-family="sans-serif" font-size="13" font-weight="bold" lengthAdjust="spacing" textLength="7" x="84.5" y="276.4346">5</text><text fill="#000000" font-family="sans-serif" font-size="13" lengthAdjust="spacing" textLength="287" x="95.5" y="276.4346">selects Property Type (House/Apartment or Land)</text><path d="M10,296.6973 L71,296.6973 L71,305.9883 L61,315.9883 L10,315.9883 L10,296.6973 " fill="#EEEEEE" style="stroke:#000000;stroke-width:1.5;"/><rect fill="none" height="223.668" style="stroke:#000000;stroke-width:1.5;" width="762.5" x="10" y="296.6973"/><text fill="#000000" font-family="sans-serif" font-size="13" font-weight="bold" lengthAdjust="spacing" textLength="16" x="25" y="311.7256">alt</text><text fill="#000000" font-family="sans-serif" font-size="11" font-weight="bold" lengthAdjust="spacing" textLength="211" x="86" y="310.5674">[Property type is Apartment or House]</text><polygon fill="#181818" points="88.5,335.2793,78.5,339.2793,88.5,343.2793,84.5,339.2793" style="stroke:#181818;stroke-width:1.0;"/><line style="stroke:#181818;stroke-width:1.0;stroke-dasharray:2.0,2.0;" x1="82.5" x2="729.5" y1="339.2793" y2="339.2793"/><text fill="#000000" font-family="sans-serif" font-size="13" font-weight="bold" lengthAdjust="spacing" textLength="7" x="94.5" y="334.0166">6</text><text fill="#000000" font-family="sans-serif" font-size="13" lengthAdjust="spacing" textLength="409" x="105.5" y="334.0166">Asks for number of rooms, number of bathrooms, number of kitchens...</text><polygon fill="#181818" points="713.5,366.5703,723.5,370.5703,713.5,374.5703,717.5,370.5703" style="stroke:#181818;stroke-width:1.0;"/><line style="stroke:#181818;stroke-width:1.0;" x1="77.5" x2="719.5" y1="370.5703" y2="370.5703"/><text fill="#000000" font-family="sans-serif" font-size="13" font-weight="bold" lengthAdjust="spacing" textLength="7" x="84.5" y="365.3076">7</text><text fill="#000000" font-family="sans-serif" font-size="13" lengthAdjust="spacing" textLength="402" x="95.5" y="365.3076">fills out number of rooms, number of bathrooms, number of kitchens...</text><line style="stroke:#000000;stroke-width:1.0;stroke-dasharray:2.0,2.0;" x1="10" x2="772.5" y1="379.5703" y2="379.5703"/><text fill="#000000" font-family="sans-serif" font-size="11" font-weight="bold" lengthAdjust="spacing" textLength="134" x="15" y="391.4404">[Property type is House]</text><polygon fill="#181818" points="88.5,414.4922,78.5,418.4922,88.5,422.4922,84.5,418.4922" style="stroke:#181818;stroke-width:1.0;"/><line style="stroke:#181818;stroke-width:1.0;stroke-dasharray:2.0,2.0;" x1="82.5" x2="729.5" y1="418.4922" y2="418.4922"/><text fill="#000000" font-family="sans-serif" font-size="13" font-weight="bold" lengthAdjust="spacing" textLength="7" x="94.5" y="413.2295">8</text><text fill="#000000" font-family="sans-serif" font-size="13" lengthAdjust="spacing" textLength="397" x="105.5" y="413.2295">Asks for number of rooms, number of bathrooms, number of kitchens</text><polygon fill="#181818" points="713.5,445.7832,723.5,449.7832,713.5,453.7832,717.5,449.7832" style="stroke:#181818;stroke-width:1.0;"/><line style="stroke:#181818;stroke-width:1.0;" x1="77.5" x2="719.5" y1="449.7832" y2="449.7832"/><text fill="#000000" font-family="sans-serif" font-size="13" font-weight="bold" lengthAdjust="spacing" textLength="7" x="84.5" y="444.5205">9</text><text fill="#000000" font-family="sans-serif" font-size="13" lengthAdjust="spacing" textLength="390" x="95.5" y="444.5205">fills out number of rooms, number of bathrooms, number of kitchens</text><polygon fill="#181818" points="88.5,477.0742,78.5,481.0742,88.5,485.0742,84.5,481.0742" style="stroke:#181818;stroke-width:1.0;"/><line style="stroke:#181818;stroke-width:1.0;stroke-dasharray:2.0,2.0;" x1="82.5" x2="729.5" y1="481.0742" y2="481.0742"/><text fill="#000000" font-family="sans-serif" font-size="13" font-weight="bold" lengthAdjust="spacing" textLength="14" x="94.5" y="475.8115">10</text><text fill="#000000" font-family="sans-serif" font-size="13" lengthAdjust="spacing" textLength="421" x="112.5" y="475.8115">Displays form for additional property details (e.g., garage, backyard, etc.)</text><polygon fill="#181818" points="713.5,508.3652,723.5,512.3652,713.5,516.3652,717.5,512.3652" style="stroke:#181818;stroke-width:1.0;"/><line style="stroke:#181818;stroke-width:1.0;" x1="77.5" x2="719.5" y1="512.3652" y2="512.3652"/><text fill="#000000" font-family="sans-serif" font-size="13" font-weight="bold" lengthAdjust="spacing" textLength="14" x="84.5" y="507.1025">11</text><text fill="#000000" font-family="sans-serif" font-size="13" lengthAdjust="spacing" textLength="198" x="102.5" y="507.1025">Fills out additional property details</text><polygon fill="#181818" points="88.5,546.6563,78.5,550.6563,88.5,554.6563,84.5,550.6563" style="stroke:#181818;stroke-width:1.0;"/><line style="stroke:#181818;stroke-width:1.0;stroke-dasharray:2.0,2.0;" x1="82.5" x2="729.5" y1="550.6563" y2="550.6563"/><text fill="#000000" font-family="sans-serif" font-size="13" font-weight="bold" lengthAdjust="spacing" textLength="14" x="94.5" y="545.3936">12</text><text fill="#000000" font-family="sans-serif" font-size="13" lengthAdjust="spacing" textLength="418" x="112.5" y="545.3936">Displays a form for the agent to fill with the property description and cost</text><polygon fill="#181818" points="713.5,577.9473,723.5,581.9473,713.5,585.9473,717.5,581.9473" style="stroke:#181818;stroke-width:1.0;"/><line style="stroke:#181818;stroke-width:1.0;" x1="77.5" x2="719.5" y1="581.9473" y2="581.9473"/><text fill="#000000" font-family="sans-serif" font-size="13" font-weight="bold" lengthAdjust="spacing" textLength="14" x="84.5" y="576.6846">13</text><text fill="#000000" font-family="sans-serif" font-size="13" lengthAdjust="spacing" textLength="376" x="102.5" y="576.6846">Fills out the form with the description of the property and the cost</text><line style="stroke:#181818;stroke-width:1.0;stroke-dasharray:2.0,2.0;" x1="735.5" x2="777.5" y1="618.2383" y2="618.2383"/><line style="stroke:#181818;stroke-width:1.0;stroke-dasharray:2.0,2.0;" x1="777.5" x2="777.5" y1="618.2383" y2="631.2383"/><line style="stroke:#181818;stroke-width:1.0;stroke-dasharray:2.0,2.0;" x1="730.5" x2="777.5" y1="631.2383" y2="631.2383"/><polygon fill="#181818" points="740.5,627.2383,730.5,631.2383,740.5,635.2383,736.5,631.2383" style="stroke:#181818;stroke-width:1.0;"/><text fill="#000000" font-family="sans-serif" font-size="13" font-weight="bold" lengthAdjust="spacing" textLength="14" x="742.5" y="612.9756">14</text><text fill="#000000" font-family="sans-serif" font-size="13" lengthAdjust="spacing" textLength="106" x="760.5" y="612.9756">Save new property</text><polygon fill="#181818" points="88.5,653.5293,78.5,657.5293,88.5,661.5293,84.5,657.5293" style="stroke:#181818;stroke-width:1.0;"/><line style="stroke:#181818;stroke-width:1.0;stroke-dasharray:2.0,2.0;" x1="82.5" x2="729.5" y1="657.5293" y2="657.5293"/><text fill="#000000" font-family="sans-serif" font-size="13" font-weight="bold" lengthAdjust="spacing" textLength="14" x="94.5" y="652.2666">15</text><text fill="#000000" font-family="sans-serif" font-size="13" lengthAdjust="spacing" textLength="174" x="112.5" y="652.2666">Display confirmation message</text><!--SRC=[jLJ1ZjCm4BtdAqOzjL8tt7j0gYWha10W0XymJIQ9rTWEzcHB-7h63aswfAqMK7kedB7dlNdFdl47PLfqg45RO_FQMKt0hgF4ZpijvWUiAEE-8N2KCvggEJ_WQopiKPaAIcmy9GahbgDPxvaqPFIz8vCJx1HMuVWootQh9C6EhUdqdbo2ELi7Yo-4JSR8jAt8y0BGmpSlsyB2AbSj6eR5Pe2DkyCo2VdgIVA6uqduXuVNfm8syDueLc6_TRObnxt8g9HdXwoicT9FUByJ7mGZOcrWwmyUIYdoqz5809cTsdTC7fO6DQqX5uQVPDwWApv6KMjW_75QRel2aVThUAjHDUDNMrj3mvbLKj2iZfaGt-srOd_7Alx6Yz5Dxbk2vJlRUGA9RyE5QRd2yF41JR5weJfgv7Lv-7p2_JhXlfg3pcl5XgVaM9Jopwk9M4a2yhiXR7YMO4jmrcgnQ0hiaUjPyA0uhyduD4qZz0Mn8JmJNAgcyM0x_c_6YtmapJZtuyo2EzamOb_nuKvUZDXNIUTQTygt3VPHhuwYiIXKc0hOJE-x89Q6aIwZj4hNKCdKgwJRzZ8OUscrDH3dwUgVP3-EicyGNrT6fhZKegCid8HnJO1Xi0BRw3OS5TSnVCRdSwVQK0P8Yq5kFR-eTISP0IzoZkZde79TpmW3IGX4ebkpPrXk8CCd0aF74U9IUNyOCleXDAPKJiUn3rgcdnWo1_W5]--></g></svg>