<?xml version="1.0" encoding="us-ascii" standalone="no"?><svg xmlns="http://www.w3.org/2000/svg" xmlns:xlink="http://www.w3.org/1999/xlink" contentStyleType="text/css" height="489px" preserveAspectRatio="none" style="width:697px;height:489px;background:#FFFFFF;" version="1.1" viewBox="0 0 697 489" width="697px" zoomAndPan="magnify"><defs/><g><text fill="#000000" font-family="sans-serif" font-size="14" font-weight="bold" lengthAdjust="spacing" textLength="228" x="236.75" y="30.1074">System Sequence Diagram (SSD)</text><rect fill="#FFFFFF" height="264.3281" style="stroke:#181818;stroke-width:1.0;" width="10" x="52.5" y="133.2422"/><rect fill="#FFFFFF" height="31.291" style="stroke:#181818;stroke-width:1.0;" width="10" x="551.5" y="156.5332"/><rect fill="#FFFFFF" height="31.291" style="stroke:#181818;stroke-width:1.0;" width="10" x="551.5" y="219.1152"/><rect fill="#FFFFFF" height="106.873" style="stroke:#181818;stroke-width:1.0;" width="10" x="551.5" y="281.6973"/><rect fill="#FFFFFF" height="37.291" style="stroke:#181818;stroke-width:1.0;" width="10" x="556.5" y="312.9883"/><line style="stroke:#181818;stroke-width:0.5;stroke-dasharray:5.0,5.0;" x1="57" x2="57" y1="123.2422" y2="406.5703"/><line style="stroke:#181818;stroke-width:0.5;stroke-dasharray:5.0,5.0;" x1="556.5" x2="556.5" y1="123.2422" y2="406.5703"/><text fill="#000000" font-family="sans-serif" font-size="14" lengthAdjust="spacing" textLength="99" x="5" y="119.7285">RealStateAgent</text><ellipse cx="57.5" cy="53.1211" fill="#E3E3E3" rx="8" ry="8" style="stroke:#181818;stroke-width:0.5;"/><path d="M57.5,61.1211 L57.5,88.1211 M44.5,69.1211 L70.5,69.1211 M57.5,88.1211 L44.5,103.1211 M57.5,88.1211 L70.5,103.1211 " fill="none" style="stroke:#181818;stroke-width:0.5;"/><text fill="#000000" font-family="sans-serif" font-size="14" lengthAdjust="spacing" textLength="99" x="5" y="420.6777">RealStateAgent</text><ellipse cx="57.5" cy="432.6914" fill="#E3E3E3" rx="8" ry="8" style="stroke:#181818;stroke-width:0.5;"/><path d="M57.5,440.6914 L57.5,467.6914 M44.5,448.6914 L70.5,448.6914 M57.5,467.6914 L44.5,482.6914 M57.5,467.6914 L70.5,482.6914 " fill="none" style="stroke:#181818;stroke-width:0.5;"/><rect fill="#E3E3E3" height="32.6211" rx="2.5" ry="2.5" style="stroke:#181818;stroke-width:0.5;" width="64" x="524.5" y="89.6211"/><text fill="#000000" font-family="sans-serif" font-size="14" lengthAdjust="spacing" textLength="50" x="531.5" y="111.7285">:System</text><rect fill="#E3E3E3" height="32.6211" rx="2.5" ry="2.5" style="stroke:#181818;stroke-width:0.5;" width="64" x="524.5" y="405.5703"/><text fill="#000000" font-family="sans-serif" font-size="14" lengthAdjust="spacing" textLength="50" x="531.5" y="427.6777">:System</text><rect fill="#FFFFFF" height="264.3281" style="stroke:#181818;stroke-width:1.0;" width="10" x="52.5" y="133.2422"/><rect fill="#FFFFFF" height="31.291" style="stroke:#181818;stroke-width:1.0;" width="10" x="551.5" y="156.5332"/><rect fill="#FFFFFF" height="31.291" style="stroke:#181818;stroke-width:1.0;" width="10" x="551.5" y="219.1152"/><rect fill="#FFFFFF" height="106.873" style="stroke:#181818;stroke-width:1.0;" width="10" x="551.5" y="281.6973"/><rect fill="#FFFFFF" height="37.291" style="stroke:#181818;stroke-width:1.0;" width="10" x="556.5" y="312.9883"/><polygon fill="#181818" points="539.5,152.5332,549.5,156.5332,539.5,160.5332,543.5,156.5332" style="stroke:#181818;stroke-width:1.0;"/><line style="stroke:#181818;stroke-width:1.0;" x1="62.5" x2="545.5" y1="156.5332" y2="156.5332"/><text fill="#000000" font-family="sans-serif" font-size="13" font-weight="bold" lengthAdjust="spacing" textLength="7" x="69.5" y="151.2705">1</text><text fill="#000000" font-family="sans-serif" font-size="13" lengthAdjust="spacing" textLength="157" x="80.5" y="151.2705">Initiate property registration</text><polygon fill="#181818" points="73.5,183.8242,63.5,187.8242,73.5,191.8242,69.5,187.8242" style="stroke:#181818;stroke-width:1.0;"/><line style="stroke:#181818;stroke-width:1.0;stroke-dasharray:2.0,2.0;" x1="67.5" x2="555.5" y1="187.8242" y2="187.8242"/><text fill="#000000" font-family="sans-serif" font-size="13" font-weight="bold" lengthAdjust="spacing" textLength="7" x="79.5" y="182.5615">2</text><text fill="#000000" font-family="sans-serif" font-size="13" lengthAdjust="spacing" textLength="167" x="90.5" y="182.5615">Asks for Owner and Property</text><polygon fill="#181818" points="539.5,215.1152,549.5,219.1152,539.5,223.1152,543.5,219.1152" style="stroke:#181818;stroke-width:1.0;"/><line style="stroke:#181818;stroke-width:1.0;" x1="62.5" x2="545.5" y1="219.1152" y2="219.1152"/><text fill="#000000" font-family="sans-serif" font-size="13" font-weight="bold" lengthAdjust="spacing" textLength="7" x="69.5" y="213.8525">3</text><text fill="#000000" font-family="sans-serif" font-size="13" lengthAdjust="spacing" textLength="161" x="80.5" y="213.8525">selects Owner and Property</text><polygon fill="#181818" points="73.5,246.4063,63.5,250.4063,73.5,254.4063,69.5,250.4063" style="stroke:#181818;stroke-width:1.0;"/><line style="stroke:#181818;stroke-width:1.0;stroke-dasharray:2.0,2.0;" x1="67.5" x2="555.5" y1="250.4063" y2="250.4063"/><text fill="#000000" font-family="sans-serif" font-size="13" font-weight="bold" lengthAdjust="spacing" textLength="7" x="79.5" y="245.1436">4</text><text fill="#000000" font-family="sans-serif" font-size="13" lengthAdjust="spacing" textLength="454" x="90.5" y="245.1436">Displays a form for the agent to fill with the cost and description of the property</text><polygon fill="#181818" points="539.5,277.6973,549.5,281.6973,539.5,285.6973,543.5,281.6973" style="stroke:#181818;stroke-width:1.0;"/><line style="stroke:#181818;stroke-width:1.0;" x1="62.5" x2="545.5" y1="281.6973" y2="281.6973"/><text fill="#000000" font-family="sans-serif" font-size="13" font-weight="bold" lengthAdjust="spacing" textLength="7" x="69.5" y="276.4346">5</text><text fill="#000000" font-family="sans-serif" font-size="13" lengthAdjust="spacing" textLength="354" x="80.5" y="276.4346">Fills out the form with the cost and description of the property</text><polygon fill="#181818" points="544.5,308.9883,554.5,312.9883,544.5,316.9883,548.5,312.9883" style="stroke:#181818;stroke-width:1.0;"/><line style="stroke:#181818;stroke-width:1.0;" x1="62.5" x2="550.5" y1="312.9883" y2="312.9883"/><text fill="#000000" font-family="sans-serif" font-size="13" font-weight="bold" lengthAdjust="spacing" textLength="7" x="69.5" y="307.7256">6</text><text fill="#000000" font-family="sans-serif" font-size="13" lengthAdjust="spacing" textLength="75" x="80.5" y="307.7256">submits data</text><line style="stroke:#181818;stroke-width:1.0;stroke-dasharray:2.0,2.0;" x1="566.5" x2="608.5" y1="349.2793" y2="349.2793"/><line style="stroke:#181818;stroke-width:1.0;stroke-dasharray:2.0,2.0;" x1="608.5" x2="608.5" y1="349.2793" y2="362.2793"/><line style="stroke:#181818;stroke-width:1.0;stroke-dasharray:2.0,2.0;" x1="561.5" x2="608.5" y1="362.2793" y2="362.2793"/><polygon fill="#181818" points="571.5,358.2793,561.5,362.2793,571.5,366.2793,567.5,362.2793" style="stroke:#181818;stroke-width:1.0;"/><text fill="#000000" font-family="sans-serif" font-size="13" font-weight="bold" lengthAdjust="spacing" textLength="7" x="573.5" y="344.0166">7</text><text fill="#000000" font-family="sans-serif" font-size="13" lengthAdjust="spacing" textLength="106" x="584.5" y="344.0166">Save new property</text><polygon fill="#181818" points="73.5,384.5703,63.5,388.5703,73.5,392.5703,69.5,388.5703" style="stroke:#181818;stroke-width:1.0;"/><line style="stroke:#181818;stroke-width:1.0;stroke-dasharray:2.0,2.0;" x1="67.5" x2="555.5" y1="388.5703" y2="388.5703"/><text fill="#000000" font-family="sans-serif" font-size="13" font-weight="bold" lengthAdjust="spacing" textLength="7" x="79.5" y="383.3076">8</text><text fill="#000000" font-family="sans-serif" font-size="13" lengthAdjust="spacing" textLength="174" x="90.5" y="383.3076">Display confirmation message</text><!--SRC=[dP9BJiD038RtEONL5IouG1T8bIeaLY0Y3k1EdCJgl1WxZN9x9fEsGb2amAmiFpx__ZLoP1yneGCNV31z2ev0qq2LN2iHpH4xgdMo18cCek_irmRfiGaZ-mvQj49LfQovjPv4oK5D7mDvGx1dxERskxhUtrSL3Xhyu0wKAZGQ4cpU26sjgBJhoEi6KE1TSZblKJOSqIjijWksL9UmckVvbEUMzWhocoDuUBo8sCApP-Mv9wOGAUcKJ-bODA5oy6NcYhbmv-GPy91PXRc5dHm5sYpuPVGvWRw1rpEpJ3Hq4_H3aP3DPiflc9LgzYpHuYI0ioPNX6bFWBE7e05QjXP6rhwaJH0jkneIapZEnqDeIot-vugdZ1S8WnP4aV3tPIiD6mwEis4DAgwoQ0ctKEE9mDEuwi9l5byTpjVubfCh_mKSYMIBRuC-0G00]--></g></svg>