<?xml version="1.0" encoding="us-ascii" standalone="no"?><svg xmlns="http://www.w3.org/2000/svg" xmlns:xlink="http://www.w3.org/1999/xlink" contentStyleType="text/css" height="414px" preserveAspectRatio="none" style="width:570px;height:414px;background:#FFFFFF;" version="1.1" viewBox="0 0 570 414" width="570px" zoomAndPan="magnify"><defs/><g><text fill="#000000" font-family="sans-serif" font-size="14" font-weight="bold" lengthAdjust="spacing" textLength="228" x="170.25" y="30.1074">System Sequence Diagram (SSD)</text><rect fill="#FFFFFF" height="179.7461" style="stroke:#181818;stroke-width:1.0;" width="10" x="21.5" y="133.2422"/><rect fill="#FFFFFF" height="31.291" style="stroke:#181818;stroke-width:1.0;" width="10" x="527.5" y="156.5332"/><rect fill="#FFFFFF" height="31.291" style="stroke:#181818;stroke-width:1.0;" width="10" x="527.5" y="250.4063"/><line style="stroke:#181818;stroke-width:0.5;stroke-dasharray:5.0,5.0;" x1="26" x2="26" y1="123.2422" y2="330.9883"/><line style="stroke:#181818;stroke-width:0.5;stroke-dasharray:5.0,5.0;" x1="532.5" x2="532.5" y1="123.2422" y2="330.9883"/><text fill="#000000" font-family="sans-serif" font-size="14" lengthAdjust="spacing" textLength="37" x="5" y="119.7285">Agent</text><ellipse cx="26.5" cy="53.1211" fill="#E3E3E3" rx="8" ry="8" style="stroke:#181818;stroke-width:0.5;"/><path d="M26.5,61.1211 L26.5,88.1211 M13.5,69.1211 L39.5,69.1211 M26.5,88.1211 L13.5,103.1211 M26.5,88.1211 L39.5,103.1211 " fill="none" style="stroke:#181818;stroke-width:0.5;"/><text fill="#000000" font-family="sans-serif" font-size="14" lengthAdjust="spacing" textLength="37" x="5" y="345.0957">Agent</text><ellipse cx="26.5" cy="357.1094" fill="#E3E3E3" rx="8" ry="8" style="stroke:#181818;stroke-width:0.5;"/><path d="M26.5,365.1094 L26.5,392.1094 M13.5,373.1094 L39.5,373.1094 M26.5,392.1094 L13.5,407.1094 M26.5,392.1094 L39.5,407.1094 " fill="none" style="stroke:#181818;stroke-width:0.5;"/><rect fill="#E3E3E3" height="32.6211" rx="2.5" ry="2.5" style="stroke:#181818;stroke-width:0.5;" width="64" x="500.5" y="89.6211"/><text fill="#000000" font-family="sans-serif" font-size="14" lengthAdjust="spacing" textLength="50" x="507.5" y="111.7285">:System</text><rect fill="#E3E3E3" height="32.6211" rx="2.5" ry="2.5" style="stroke:#181818;stroke-width:0.5;" width="64" x="500.5" y="329.9883"/><text fill="#000000" font-family="sans-serif" font-size="14" lengthAdjust="spacing" textLength="50" x="507.5" y="352.0957">:System</text><rect fill="#FFFFFF" height="179.7461" style="stroke:#181818;stroke-width:1.0;" width="10" x="21.5" y="133.2422"/><rect fill="#FFFFFF" height="31.291" style="stroke:#181818;stroke-width:1.0;" width="10" x="527.5" y="156.5332"/><rect fill="#FFFFFF" height="31.291" style="stroke:#181818;stroke-width:1.0;" width="10" x="527.5" y="250.4063"/><polygon fill="#181818" points="515.5,152.5332,525.5,156.5332,515.5,160.5332,519.5,156.5332" style="stroke:#181818;stroke-width:1.0;"/><line style="stroke:#181818;stroke-width:1.0;" x1="31.5" x2="521.5" y1="156.5332" y2="156.5332"/><text fill="#000000" font-family="sans-serif" font-size="13" font-weight="bold" lengthAdjust="spacing" textLength="7" x="38.5" y="151.2705">1</text><text fill="#000000" font-family="sans-serif" font-size="13" lengthAdjust="spacing" textLength="346" x="49.5" y="151.2705">Requests to see the list of property announcement requests</text><polygon fill="#181818" points="42.5,183.8242,32.5,187.8242,42.5,191.8242,38.5,187.8242" style="stroke:#181818;stroke-width:1.0;"/><line style="stroke:#181818;stroke-width:1.0;stroke-dasharray:2.0,2.0;" x1="36.5" x2="531.5" y1="187.8242" y2="187.8242"/><text fill="#000000" font-family="sans-serif" font-size="13" font-weight="bold" lengthAdjust="spacing" textLength="7" x="48.5" y="182.5615">2</text><text fill="#000000" font-family="sans-serif" font-size="13" lengthAdjust="spacing" textLength="461" x="59.5" y="182.5615">Shows list of property announcement requests sorted by date (most recent first)</text><polygon fill="#181818" points="42.5,215.1152,32.5,219.1152,42.5,223.1152,38.5,219.1152" style="stroke:#181818;stroke-width:1.0;"/><line style="stroke:#181818;stroke-width:1.0;stroke-dasharray:2.0,2.0;" x1="36.5" x2="531.5" y1="219.1152" y2="219.1152"/><text fill="#000000" font-family="sans-serif" font-size="13" font-weight="bold" lengthAdjust="spacing" textLength="7" x="48.5" y="213.8525">3</text><text fill="#000000" font-family="sans-serif" font-size="13" lengthAdjust="spacing" textLength="378" x="59.5" y="213.8525">Asks Agent to select a property announcement request to accept</text><polygon fill="#181818" points="515.5,246.4063,525.5,250.4063,515.5,254.4063,519.5,250.4063" style="stroke:#181818;stroke-width:1.0;"/><line style="stroke:#181818;stroke-width:1.0;" x1="31.5" x2="521.5" y1="250.4063" y2="250.4063"/><text fill="#000000" font-family="sans-serif" font-size="13" font-weight="bold" lengthAdjust="spacing" textLength="7" x="38.5" y="245.1436">4</text><text fill="#000000" font-family="sans-serif" font-size="13" lengthAdjust="spacing" textLength="300" x="49.5" y="245.1436">Selects a property announcement request to accept</text><polygon fill="#181818" points="42.5,277.6973,32.5,281.6973,42.5,285.6973,38.5,281.6973" style="stroke:#181818;stroke-width:1.0;"/><line style="stroke:#181818;stroke-width:1.0;stroke-dasharray:2.0,2.0;" x1="36.5" x2="531.5" y1="281.6973" y2="281.6973"/><text fill="#000000" font-family="sans-serif" font-size="13" font-weight="bold" lengthAdjust="spacing" textLength="7" x="48.5" y="276.4346">5</text><text fill="#000000" font-family="sans-serif" font-size="13" lengthAdjust="spacing" textLength="377" x="59.5" y="276.4346">Confirms acceptance of the request and posts the announcement</text><polygon fill="#181818" points="37.5,308.9883,27.5,312.9883,37.5,316.9883,33.5,312.9883" style="stroke:#181818;stroke-width:1.0;"/><line style="stroke:#181818;stroke-width:1.0;stroke-dasharray:2.0,2.0;" x1="31.5" x2="531.5" y1="312.9883" y2="312.9883"/><text fill="#000000" font-family="sans-serif" font-size="13" font-weight="bold" lengthAdjust="spacing" textLength="7" x="43.5" y="307.7256">6</text><text fill="#000000" font-family="sans-serif" font-size="13" lengthAdjust="spacing" textLength="309" x="54.5" y="307.7256">Refreshes the list of property announcement requests</text><!--SRC=[bL91Zi8m3Bpd5HOdEF013YkXvGNa1TxKRIEQk1kxY_hxJTA2a7Q582Sh7i_OOyl5nn4J1WWSsVM90u6cYOpSCoEw2tPaTHu84Zd5s0sF0EcnuQkF7RGu21cZNZFKpg8KmDBtHD4Hd3ns1RwrzhGp1YVbE8KlIWQTSeBDiQEe6q216fdChjxv4QF2vh3GrVGIcbBdVr1fnHl8huQm_xZ97-1S6X0LK0QXF5vFC7XHu1R6n2CbdG5Zv2bt6KfrMYiguLtafbe-L_9zrba43s1xligBn22Sb1hucg4frDl0KhAkW5gVH7TLfg5NrOzoMMrRnXpodW2Vjr6Gw1oD-apihw6siikRzAzEyianEn1ahSLoEjdGihKRCSO6HguhpR-Fsc-wTgOsaVGaxnx5Fn8FNyiv_W80]--></g></svg>